%FSLAX25Y25*%
%MOIN*%
G70*
G01*
G75*
G04 Layer_Color=8388736*
%ADD10R,0.24000X0.08000*%
%ADD11R,0.05000X0.04000*%
%ADD12O,0.08000X0.02400*%
%ADD13R,0.08000X0.02400*%
%ADD14R,0.04000X0.05000*%
%ADD15R,0.09843X0.07874*%
%ADD16R,0.12500X0.06000*%
G04:AMPARAMS|DCode=17|XSize=60mil|YSize=60mil|CornerRadius=15mil|HoleSize=0mil|Usage=FLASHONLY|Rotation=180.000|XOffset=0mil|YOffset=0mil|HoleType=Round|Shape=RoundedRectangle|*
%AMROUNDEDRECTD17*
21,1,0.06000,0.03000,0,0,180.0*
21,1,0.03000,0.06000,0,0,180.0*
1,1,0.03000,-0.01500,0.01500*
1,1,0.03000,0.01500,0.01500*
1,1,0.03000,0.01500,-0.01500*
1,1,0.03000,-0.01500,-0.01500*
%
%ADD17ROUNDEDRECTD17*%
%ADD18R,0.06000X0.10000*%
%ADD19R,0.13000X0.17000*%
%ADD20R,0.15748X0.07874*%
G04:AMPARAMS|DCode=21|XSize=40mil|YSize=50mil|CornerRadius=0mil|HoleSize=0mil|Usage=FLASHONLY|Rotation=45.000|XOffset=0mil|YOffset=0mil|HoleType=Round|Shape=Rectangle|*
%AMROTATEDRECTD21*
4,1,4,0.00354,-0.03182,-0.03182,0.00354,-0.00354,0.03182,0.03182,-0.00354,0.00354,-0.03182,0.0*
%
%ADD21ROTATEDRECTD21*%

G04:AMPARAMS|DCode=22|XSize=40mil|YSize=50mil|CornerRadius=0mil|HoleSize=0mil|Usage=FLASHONLY|Rotation=315.000|XOffset=0mil|YOffset=0mil|HoleType=Round|Shape=Rectangle|*
%AMROTATEDRECTD22*
4,1,4,-0.03182,-0.00354,0.00354,0.03182,0.03182,0.00354,-0.00354,-0.03182,-0.03182,-0.00354,0.0*
%
%ADD22ROTATEDRECTD22*%

%ADD23C,0.01000*%
%ADD24C,0.02500*%
%ADD25R,0.04712X0.19969*%
%ADD26C,0.06500*%
%ADD27C,0.23622*%
%ADD28C,0.09000*%
%ADD29C,0.03500*%
%ADD30C,0.03200*%
%ADD31C,0.03400*%
%ADD32R,0.03000X0.03000*%
%ADD33C,0.00800*%
%ADD34C,0.00400*%
%ADD35C,0.00600*%
%ADD36C,0.00500*%
%ADD37C,0.00984*%
%ADD38R,0.08400X0.03800*%
%ADD39C,0.10000*%
%ADD40R,0.24400X0.08400*%
%ADD41R,0.05800X0.04800*%
%ADD42O,0.08800X0.03200*%
%ADD43R,0.08800X0.03200*%
%ADD44R,0.04800X0.05800*%
%ADD45R,0.10642X0.08674*%
%ADD46R,0.13300X0.06800*%
G04:AMPARAMS|DCode=47|XSize=64mil|YSize=64mil|CornerRadius=17mil|HoleSize=0mil|Usage=FLASHONLY|Rotation=180.000|XOffset=0mil|YOffset=0mil|HoleType=Round|Shape=RoundedRectangle|*
%AMROUNDEDRECTD47*
21,1,0.06400,0.03000,0,0,180.0*
21,1,0.03000,0.06400,0,0,180.0*
1,1,0.03400,-0.01500,0.01500*
1,1,0.03400,0.01500,0.01500*
1,1,0.03400,0.01500,-0.01500*
1,1,0.03400,-0.01500,-0.01500*
%
%ADD47ROUNDEDRECTD47*%
%ADD48R,0.06400X0.10400*%
%ADD49R,0.13400X0.17400*%
%ADD50R,0.16148X0.08274*%
G04:AMPARAMS|DCode=51|XSize=48mil|YSize=58mil|CornerRadius=0mil|HoleSize=0mil|Usage=FLASHONLY|Rotation=45.000|XOffset=0mil|YOffset=0mil|HoleType=Round|Shape=Rectangle|*
%AMROTATEDRECTD51*
4,1,4,0.00354,-0.03748,-0.03748,0.00354,-0.00354,0.03748,0.03748,-0.00354,0.00354,-0.03748,0.0*
%
%ADD51ROTATEDRECTD51*%

G04:AMPARAMS|DCode=52|XSize=48mil|YSize=58mil|CornerRadius=0mil|HoleSize=0mil|Usage=FLASHONLY|Rotation=315.000|XOffset=0mil|YOffset=0mil|HoleType=Round|Shape=Rectangle|*
%AMROTATEDRECTD52*
4,1,4,-0.03748,-0.00354,0.00354,0.03748,0.03748,0.00354,-0.00354,-0.03748,-0.03748,-0.00354,0.0*
%
%ADD52ROTATEDRECTD52*%

%ADD53C,0.07300*%
%ADD54C,0.24022*%
%ADD55C,0.09800*%
G36*
X-508394Y-357883D02*
X-508335D01*
X-508268Y-357896D01*
X-508188Y-357903D01*
X-508102Y-357923D01*
X-508002Y-357943D01*
X-507902Y-357976D01*
X-507795Y-358010D01*
X-507682Y-358056D01*
X-507575Y-358109D01*
X-507469Y-358169D01*
X-507362Y-358249D01*
X-507262Y-358329D01*
X-507169Y-358429D01*
X-507162Y-358436D01*
X-507149Y-358456D01*
X-507123Y-358489D01*
X-507096Y-358529D01*
X-507056Y-358589D01*
X-507016Y-358662D01*
X-506976Y-358742D01*
X-506929Y-358842D01*
X-506889Y-358955D01*
X-506843Y-359075D01*
X-506809Y-359215D01*
X-506770Y-359361D01*
X-506743Y-359528D01*
X-506723Y-359708D01*
X-506709Y-359894D01*
Y-360101D01*
X-509167D01*
Y-360107D01*
Y-360121D01*
Y-360141D01*
X-509160Y-360174D01*
X-509154Y-360254D01*
X-509134Y-360354D01*
X-509107Y-360460D01*
X-509067Y-360574D01*
X-509007Y-360687D01*
X-508934Y-360787D01*
X-508921Y-360800D01*
X-508894Y-360827D01*
X-508847Y-360860D01*
X-508781Y-360907D01*
X-508694Y-360953D01*
X-508601Y-360986D01*
X-508488Y-361013D01*
X-508368Y-361026D01*
X-508328D01*
X-508288Y-361020D01*
X-508235Y-361013D01*
X-508175Y-361000D01*
X-508115Y-360973D01*
X-508048Y-360946D01*
X-507988Y-360907D01*
X-507982Y-360900D01*
X-507962Y-360880D01*
X-507935Y-360853D01*
X-507895Y-360807D01*
X-507855Y-360747D01*
X-507815Y-360680D01*
X-507775Y-360594D01*
X-507742Y-360494D01*
X-506763Y-360660D01*
Y-360667D01*
X-506770Y-360687D01*
X-506783Y-360713D01*
X-506796Y-360747D01*
X-506823Y-360793D01*
X-506843Y-360847D01*
X-506909Y-360966D01*
X-506996Y-361100D01*
X-507096Y-361233D01*
X-507222Y-361366D01*
X-507362Y-361479D01*
X-507369D01*
X-507382Y-361493D01*
X-507402Y-361506D01*
X-507436Y-361526D01*
X-507475Y-361546D01*
X-507522Y-361566D01*
X-507575Y-361593D01*
X-507642Y-361619D01*
X-507715Y-361646D01*
X-507789Y-361672D01*
X-507962Y-361712D01*
X-508161Y-361746D01*
X-508381Y-361759D01*
X-508421D01*
X-508474Y-361752D01*
X-508541Y-361746D01*
X-508621Y-361739D01*
X-508708Y-361726D01*
X-508814Y-361706D01*
X-508921Y-361679D01*
X-509034Y-361646D01*
X-509154Y-361606D01*
X-509274Y-361553D01*
X-509387Y-361493D01*
X-509507Y-361419D01*
X-509613Y-361333D01*
X-509713Y-361240D01*
X-509806Y-361126D01*
X-509813Y-361120D01*
X-509820Y-361100D01*
X-509840Y-361073D01*
X-509866Y-361033D01*
X-509893Y-360986D01*
X-509920Y-360927D01*
X-509953Y-360853D01*
X-509986Y-360773D01*
X-510026Y-360687D01*
X-510059Y-360594D01*
X-510086Y-360487D01*
X-510113Y-360374D01*
X-510139Y-360254D01*
X-510159Y-360127D01*
X-510166Y-359987D01*
X-510173Y-359848D01*
Y-359834D01*
Y-359808D01*
X-510166Y-359761D01*
Y-359694D01*
X-510159Y-359621D01*
X-510146Y-359528D01*
X-510133Y-359428D01*
X-510113Y-359321D01*
X-510086Y-359208D01*
X-510053Y-359088D01*
X-510019Y-358968D01*
X-509973Y-358849D01*
X-509913Y-358729D01*
X-509853Y-358615D01*
X-509780Y-358502D01*
X-509693Y-358402D01*
X-509687Y-358396D01*
X-509673Y-358382D01*
X-509647Y-358356D01*
X-509607Y-358323D01*
X-509560Y-358282D01*
X-509500Y-358236D01*
X-509434Y-358189D01*
X-509360Y-358136D01*
X-509274Y-358089D01*
X-509187Y-358043D01*
X-509087Y-357996D01*
X-508974Y-357956D01*
X-508861Y-357923D01*
X-508741Y-357896D01*
X-508608Y-357883D01*
X-508474Y-357876D01*
X-508434D01*
X-508394Y-357883D01*
D02*
G37*
G36*
X-518851D02*
X-518791D01*
X-518717Y-357896D01*
X-518638Y-357903D01*
X-518544Y-357923D01*
X-518438Y-357943D01*
X-518331Y-357976D01*
X-518218Y-358010D01*
X-518105Y-358056D01*
X-517992Y-358109D01*
X-517872Y-358169D01*
X-517759Y-358249D01*
X-517652Y-358329D01*
X-517545Y-358429D01*
X-517539Y-358436D01*
X-517519Y-358456D01*
X-517492Y-358482D01*
X-517459Y-358529D01*
X-517419Y-358582D01*
X-517372Y-358649D01*
X-517326Y-358722D01*
X-517272Y-358809D01*
X-517226Y-358902D01*
X-517179Y-359008D01*
X-517132Y-359122D01*
X-517093Y-359242D01*
X-517053Y-359368D01*
X-517026Y-359508D01*
X-517013Y-359654D01*
X-517006Y-359808D01*
Y-359814D01*
Y-359848D01*
X-517013Y-359888D01*
Y-359947D01*
X-517019Y-360021D01*
X-517032Y-360107D01*
X-517053Y-360201D01*
X-517072Y-360300D01*
X-517106Y-360407D01*
X-517139Y-360520D01*
X-517186Y-360633D01*
X-517239Y-360753D01*
X-517299Y-360873D01*
X-517372Y-360986D01*
X-517459Y-361100D01*
X-517552Y-361206D01*
X-517559Y-361213D01*
X-517579Y-361233D01*
X-517605Y-361260D01*
X-517652Y-361293D01*
X-517705Y-361333D01*
X-517765Y-361379D01*
X-517845Y-361433D01*
X-517925Y-361479D01*
X-518025Y-361533D01*
X-518125Y-361586D01*
X-518238Y-361632D01*
X-518358Y-361672D01*
X-518484Y-361706D01*
X-518624Y-361732D01*
X-518764Y-361752D01*
X-518917Y-361759D01*
X-518971D01*
X-519004Y-361752D01*
X-519051D01*
X-519104Y-361746D01*
X-519164Y-361739D01*
X-519230Y-361732D01*
X-519383Y-361706D01*
X-519543Y-361666D01*
X-519723Y-361606D01*
X-519896Y-361533D01*
X-519903D01*
X-519916Y-361519D01*
X-519943Y-361506D01*
X-519970Y-361486D01*
X-520010Y-361466D01*
X-520056Y-361433D01*
X-520156Y-361359D01*
X-520269Y-361266D01*
X-520382Y-361146D01*
X-520496Y-361013D01*
X-520596Y-360853D01*
Y-360847D01*
X-520609Y-360833D01*
X-520616Y-360807D01*
X-520636Y-360773D01*
X-520649Y-360727D01*
X-520669Y-360680D01*
X-520695Y-360620D01*
X-520716Y-360547D01*
X-520736Y-360474D01*
X-520762Y-360394D01*
X-520782Y-360300D01*
X-520795Y-360207D01*
X-520822Y-360001D01*
X-520835Y-359768D01*
Y-359761D01*
Y-359748D01*
Y-359721D01*
X-520829Y-359681D01*
Y-359641D01*
X-520822Y-359588D01*
X-520815Y-359528D01*
X-520802Y-359468D01*
X-520776Y-359321D01*
X-520736Y-359162D01*
X-520676Y-358995D01*
X-520596Y-358822D01*
Y-358815D01*
X-520582Y-358802D01*
X-520569Y-358775D01*
X-520549Y-358749D01*
X-520529Y-358709D01*
X-520496Y-358662D01*
X-520423Y-358562D01*
X-520323Y-358449D01*
X-520209Y-358336D01*
X-520070Y-358223D01*
X-519916Y-358123D01*
X-519910D01*
X-519896Y-358109D01*
X-519870Y-358103D01*
X-519836Y-358083D01*
X-519796Y-358063D01*
X-519743Y-358043D01*
X-519690Y-358023D01*
X-519623Y-357996D01*
X-519477Y-357956D01*
X-519310Y-357916D01*
X-519130Y-357890D01*
X-518931Y-357876D01*
X-518891D01*
X-518851Y-357883D01*
D02*
G37*
G36*
X-515261Y-361672D02*
X-516240D01*
Y-356551D01*
X-515261D01*
Y-361672D01*
D02*
G37*
G36*
X-536760Y-357417D02*
X-538271D01*
Y-361672D01*
X-539304D01*
Y-357417D01*
X-540822D01*
Y-356551D01*
X-536760D01*
Y-357417D01*
D02*
G37*
G36*
X-534342Y-357883D02*
X-534282D01*
X-534209Y-357896D01*
X-534129Y-357903D01*
X-534035Y-357923D01*
X-533929Y-357943D01*
X-533822Y-357976D01*
X-533709Y-358010D01*
X-533596Y-358056D01*
X-533483Y-358109D01*
X-533363Y-358169D01*
X-533250Y-358249D01*
X-533143Y-358329D01*
X-533037Y-358429D01*
X-533030Y-358436D01*
X-533010Y-358456D01*
X-532983Y-358482D01*
X-532950Y-358529D01*
X-532910Y-358582D01*
X-532863Y-358649D01*
X-532817Y-358722D01*
X-532763Y-358809D01*
X-532717Y-358902D01*
X-532670Y-359008D01*
X-532624Y-359122D01*
X-532584Y-359242D01*
X-532544Y-359368D01*
X-532517Y-359508D01*
X-532504Y-359654D01*
X-532497Y-359808D01*
Y-359814D01*
Y-359848D01*
X-532504Y-359888D01*
Y-359947D01*
X-532510Y-360021D01*
X-532524Y-360107D01*
X-532544Y-360201D01*
X-532564Y-360300D01*
X-532597Y-360407D01*
X-532630Y-360520D01*
X-532677Y-360633D01*
X-532730Y-360753D01*
X-532790Y-360873D01*
X-532863Y-360986D01*
X-532950Y-361100D01*
X-533043Y-361206D01*
X-533050Y-361213D01*
X-533070Y-361233D01*
X-533097Y-361260D01*
X-533143Y-361293D01*
X-533196Y-361333D01*
X-533256Y-361379D01*
X-533336Y-361433D01*
X-533416Y-361479D01*
X-533516Y-361533D01*
X-533616Y-361586D01*
X-533729Y-361632D01*
X-533849Y-361672D01*
X-533976Y-361706D01*
X-534115Y-361732D01*
X-534255Y-361752D01*
X-534409Y-361759D01*
X-534462D01*
X-534495Y-361752D01*
X-534542D01*
X-534595Y-361746D01*
X-534655Y-361739D01*
X-534722Y-361732D01*
X-534875Y-361706D01*
X-535035Y-361666D01*
X-535214Y-361606D01*
X-535388Y-361533D01*
X-535394D01*
X-535407Y-361519D01*
X-535434Y-361506D01*
X-535461Y-361486D01*
X-535501Y-361466D01*
X-535547Y-361433D01*
X-535647Y-361359D01*
X-535760Y-361266D01*
X-535874Y-361146D01*
X-535987Y-361013D01*
X-536087Y-360853D01*
Y-360847D01*
X-536100Y-360833D01*
X-536107Y-360807D01*
X-536127Y-360773D01*
X-536140Y-360727D01*
X-536160Y-360680D01*
X-536187Y-360620D01*
X-536207Y-360547D01*
X-536227Y-360474D01*
X-536253Y-360394D01*
X-536273Y-360300D01*
X-536287Y-360207D01*
X-536313Y-360001D01*
X-536327Y-359768D01*
Y-359761D01*
Y-359748D01*
Y-359721D01*
X-536320Y-359681D01*
Y-359641D01*
X-536313Y-359588D01*
X-536307Y-359528D01*
X-536293Y-359468D01*
X-536267Y-359321D01*
X-536227Y-359162D01*
X-536167Y-358995D01*
X-536087Y-358822D01*
Y-358815D01*
X-536073Y-358802D01*
X-536060Y-358775D01*
X-536040Y-358749D01*
X-536020Y-358709D01*
X-535987Y-358662D01*
X-535914Y-358562D01*
X-535814Y-358449D01*
X-535701Y-358336D01*
X-535561Y-358223D01*
X-535407Y-358123D01*
X-535401D01*
X-535388Y-358109D01*
X-535361Y-358103D01*
X-535327Y-358083D01*
X-535288Y-358063D01*
X-535234Y-358043D01*
X-535181Y-358023D01*
X-535114Y-357996D01*
X-534968Y-357956D01*
X-534801Y-357916D01*
X-534622Y-357890D01*
X-534422Y-357876D01*
X-534382D01*
X-534342Y-357883D01*
D02*
G37*
G36*
X-510852Y-361672D02*
X-511764D01*
Y-361140D01*
X-511778Y-361146D01*
X-511804Y-361186D01*
X-511851Y-361240D01*
X-511918Y-361306D01*
X-511998Y-361386D01*
X-512091Y-361466D01*
X-512191Y-361539D01*
X-512304Y-361606D01*
X-512317Y-361613D01*
X-512357Y-361632D01*
X-512417Y-361652D01*
X-512497Y-361679D01*
X-512590Y-361712D01*
X-512697Y-361732D01*
X-512810Y-361752D01*
X-512930Y-361759D01*
X-512957D01*
X-512990Y-361752D01*
X-513036D01*
X-513090Y-361746D01*
X-513156Y-361732D01*
X-513230Y-361719D01*
X-513303Y-361692D01*
X-513389Y-361666D01*
X-513476Y-361632D01*
X-513569Y-361593D01*
X-513663Y-361539D01*
X-513756Y-361486D01*
X-513842Y-361413D01*
X-513936Y-361339D01*
X-514022Y-361246D01*
X-514029Y-361240D01*
X-514042Y-361220D01*
X-514062Y-361193D01*
X-514095Y-361153D01*
X-514129Y-361100D01*
X-514162Y-361033D01*
X-514209Y-360960D01*
X-514249Y-360873D01*
X-514289Y-360780D01*
X-514329Y-360667D01*
X-514368Y-360554D01*
X-514402Y-360420D01*
X-514435Y-360287D01*
X-514455Y-360134D01*
X-514468Y-359974D01*
X-514475Y-359808D01*
Y-359794D01*
Y-359768D01*
Y-359714D01*
X-514468Y-359654D01*
X-514462Y-359575D01*
X-514448Y-359481D01*
X-514435Y-359381D01*
X-514422Y-359275D01*
X-514368Y-359042D01*
X-514335Y-358922D01*
X-514289Y-358802D01*
X-514242Y-358682D01*
X-514182Y-358569D01*
X-514115Y-358469D01*
X-514036Y-358369D01*
X-514029Y-358362D01*
X-514015Y-358349D01*
X-513989Y-358323D01*
X-513956Y-358289D01*
X-513909Y-358256D01*
X-513856Y-358216D01*
X-513796Y-358169D01*
X-513729Y-358123D01*
X-513649Y-358076D01*
X-513563Y-358029D01*
X-513469Y-357990D01*
X-513370Y-357956D01*
X-513263Y-357923D01*
X-513156Y-357896D01*
X-513036Y-357883D01*
X-512910Y-357876D01*
X-512850D01*
X-512803Y-357883D01*
X-512750Y-357890D01*
X-512690Y-357903D01*
X-512617Y-357923D01*
X-512544Y-357943D01*
X-512464Y-357969D01*
X-512377Y-358003D01*
X-512284Y-358043D01*
X-512191Y-358096D01*
X-512104Y-358156D01*
X-512011Y-358223D01*
X-511918Y-358302D01*
X-511831Y-358396D01*
Y-356551D01*
X-510852D01*
Y-361672D01*
D02*
G37*
G36*
X-523426Y-356464D02*
X-523346Y-356471D01*
X-523253Y-356478D01*
X-523153Y-356491D01*
X-523040Y-356511D01*
X-522807Y-356564D01*
X-522687Y-356597D01*
X-522567Y-356638D01*
X-522447Y-356684D01*
X-522334Y-356744D01*
X-522227Y-356811D01*
X-522134Y-356884D01*
X-522127Y-356891D01*
X-522114Y-356904D01*
X-522087Y-356924D01*
X-522054Y-356957D01*
X-522021Y-357004D01*
X-521981Y-357050D01*
X-521934Y-357110D01*
X-521888Y-357184D01*
X-521841Y-357257D01*
X-521794Y-357343D01*
X-521755Y-357437D01*
X-521714Y-357537D01*
X-521681Y-357643D01*
X-521648Y-357756D01*
X-521628Y-357883D01*
X-521621Y-358010D01*
X-522654Y-358049D01*
Y-358043D01*
Y-358029D01*
X-522660Y-358010D01*
X-522667Y-357983D01*
X-522687Y-357916D01*
X-522714Y-357830D01*
X-522753Y-357736D01*
X-522800Y-357643D01*
X-522867Y-357557D01*
X-522940Y-357483D01*
X-522953Y-357477D01*
X-522980Y-357457D01*
X-523033Y-357430D01*
X-523106Y-357397D01*
X-523193Y-357363D01*
X-523306Y-357337D01*
X-523440Y-357317D01*
X-523593Y-357310D01*
X-523666D01*
X-523706Y-357317D01*
X-523746D01*
X-523852Y-357330D01*
X-523966Y-357357D01*
X-524079Y-357390D01*
X-524199Y-357437D01*
X-524299Y-357497D01*
X-524305Y-357503D01*
X-524325Y-357517D01*
X-524352Y-357543D01*
X-524378Y-357583D01*
X-524405Y-357630D01*
X-524432Y-357683D01*
X-524452Y-357743D01*
X-524458Y-357816D01*
Y-357823D01*
Y-357843D01*
X-524452Y-357883D01*
X-524438Y-357923D01*
X-524418Y-357969D01*
X-524392Y-358023D01*
X-524359Y-358076D01*
X-524305Y-358129D01*
X-524299Y-358136D01*
X-524285Y-358143D01*
X-524265Y-358156D01*
X-524239Y-358169D01*
X-524205Y-358189D01*
X-524165Y-358209D01*
X-524112Y-358229D01*
X-524059Y-358256D01*
X-523992Y-358282D01*
X-523912Y-358309D01*
X-523826Y-358343D01*
X-523726Y-358369D01*
X-523619Y-358402D01*
X-523493Y-358436D01*
X-523359Y-358469D01*
X-523353D01*
X-523326Y-358476D01*
X-523286Y-358489D01*
X-523233Y-358502D01*
X-523173Y-358516D01*
X-523100Y-358536D01*
X-523020Y-358556D01*
X-522940Y-358582D01*
X-522760Y-358642D01*
X-522574Y-358702D01*
X-522401Y-358769D01*
X-522321Y-358809D01*
X-522247Y-358842D01*
X-522241D01*
X-522234Y-358849D01*
X-522214Y-358862D01*
X-522187Y-358875D01*
X-522121Y-358922D01*
X-522041Y-358982D01*
X-521948Y-359055D01*
X-521854Y-359148D01*
X-521768Y-359248D01*
X-521681Y-359368D01*
Y-359375D01*
X-521674Y-359381D01*
X-521661Y-359401D01*
X-521648Y-359428D01*
X-521635Y-359461D01*
X-521615Y-359495D01*
X-521575Y-359594D01*
X-521541Y-359708D01*
X-521508Y-359848D01*
X-521481Y-360008D01*
X-521475Y-360181D01*
Y-360187D01*
Y-360201D01*
Y-360227D01*
X-521481Y-360254D01*
Y-360294D01*
X-521488Y-360340D01*
X-521508Y-360454D01*
X-521535Y-360580D01*
X-521581Y-360720D01*
X-521641Y-360867D01*
X-521721Y-361013D01*
Y-361020D01*
X-521735Y-361026D01*
X-521748Y-361046D01*
X-521768Y-361073D01*
X-521821Y-361140D01*
X-521901Y-361226D01*
X-522001Y-361319D01*
X-522114Y-361413D01*
X-522254Y-361499D01*
X-522414Y-361579D01*
X-522421D01*
X-522434Y-361586D01*
X-522460Y-361599D01*
X-522494Y-361606D01*
X-522540Y-361619D01*
X-522587Y-361639D01*
X-522654Y-361652D01*
X-522720Y-361672D01*
X-522800Y-361692D01*
X-522880Y-361706D01*
X-522973Y-361719D01*
X-523073Y-361739D01*
X-523286Y-361759D01*
X-523526Y-361766D01*
X-523619D01*
X-523686Y-361759D01*
X-523766Y-361752D01*
X-523859Y-361739D01*
X-523966Y-361726D01*
X-524079Y-361712D01*
X-524319Y-361659D01*
X-524438Y-361619D01*
X-524565Y-361579D01*
X-524685Y-361526D01*
X-524805Y-361466D01*
X-524918Y-361399D01*
X-525018Y-361319D01*
X-525025Y-361313D01*
X-525038Y-361299D01*
X-525065Y-361273D01*
X-525098Y-361233D01*
X-525144Y-361186D01*
X-525184Y-361133D01*
X-525238Y-361066D01*
X-525291Y-360986D01*
X-525344Y-360900D01*
X-525397Y-360807D01*
X-525451Y-360700D01*
X-525497Y-360580D01*
X-525544Y-360454D01*
X-525584Y-360314D01*
X-525611Y-360167D01*
X-525637Y-360014D01*
X-524632Y-359914D01*
Y-359921D01*
X-524625Y-359934D01*
X-524618Y-359961D01*
X-524612Y-359994D01*
X-524605Y-360041D01*
X-524592Y-360087D01*
X-524552Y-360194D01*
X-524505Y-360320D01*
X-524438Y-360440D01*
X-524359Y-360560D01*
X-524265Y-360660D01*
X-524252Y-360667D01*
X-524212Y-360693D01*
X-524152Y-360733D01*
X-524065Y-360773D01*
X-523959Y-360820D01*
X-523832Y-360853D01*
X-523686Y-360880D01*
X-523519Y-360893D01*
X-523473D01*
X-523440Y-360887D01*
X-523393D01*
X-523346Y-360880D01*
X-523240Y-360867D01*
X-523113Y-360840D01*
X-522993Y-360807D01*
X-522873Y-360753D01*
X-522767Y-360687D01*
X-522753Y-360680D01*
X-522727Y-360647D01*
X-522687Y-360607D01*
X-522634Y-360547D01*
X-522587Y-360474D01*
X-522547Y-360387D01*
X-522520Y-360294D01*
X-522507Y-360194D01*
Y-360187D01*
Y-360161D01*
X-522514Y-360127D01*
X-522520Y-360087D01*
X-522534Y-360034D01*
X-522554Y-359981D01*
X-522580Y-359928D01*
X-522614Y-359881D01*
X-522620Y-359874D01*
X-522634Y-359861D01*
X-522660Y-359834D01*
X-522700Y-359808D01*
X-522753Y-359774D01*
X-522813Y-359734D01*
X-522893Y-359694D01*
X-522987Y-359661D01*
X-522993Y-359654D01*
X-523027Y-359648D01*
X-523046Y-359641D01*
X-523080Y-359634D01*
X-523113Y-359621D01*
X-523160Y-359608D01*
X-523206Y-359594D01*
X-523266Y-359575D01*
X-523333Y-359555D01*
X-523413Y-359535D01*
X-523499Y-359515D01*
X-523593Y-359488D01*
X-523699Y-359461D01*
X-523812Y-359435D01*
X-523819D01*
X-523846Y-359428D01*
X-523892Y-359415D01*
X-523946Y-359395D01*
X-524012Y-359375D01*
X-524092Y-359355D01*
X-524179Y-359328D01*
X-524272Y-359295D01*
X-524465Y-359222D01*
X-524658Y-359135D01*
X-524745Y-359088D01*
X-524831Y-359035D01*
X-524911Y-358982D01*
X-524978Y-358928D01*
X-524985Y-358922D01*
X-524998Y-358909D01*
X-525018Y-358882D01*
X-525051Y-358855D01*
X-525084Y-358809D01*
X-525124Y-358762D01*
X-525164Y-358702D01*
X-525211Y-358635D01*
X-525251Y-358569D01*
X-525298Y-358489D01*
X-525371Y-358309D01*
X-525404Y-358216D01*
X-525424Y-358109D01*
X-525437Y-358003D01*
X-525444Y-357890D01*
Y-357883D01*
Y-357870D01*
Y-357850D01*
X-525437Y-357823D01*
X-525431Y-357750D01*
X-525418Y-357657D01*
X-525391Y-357543D01*
X-525351Y-357423D01*
X-525298Y-357290D01*
X-525224Y-357164D01*
Y-357157D01*
X-525211Y-357150D01*
X-525184Y-357104D01*
X-525131Y-357044D01*
X-525065Y-356971D01*
X-524971Y-356884D01*
X-524865Y-356797D01*
X-524738Y-356711D01*
X-524592Y-356638D01*
X-524585D01*
X-524572Y-356631D01*
X-524552Y-356617D01*
X-524518Y-356611D01*
X-524478Y-356597D01*
X-524425Y-356578D01*
X-524372Y-356564D01*
X-524305Y-356544D01*
X-524239Y-356531D01*
X-524159Y-356518D01*
X-523992Y-356484D01*
X-523799Y-356464D01*
X-523586Y-356458D01*
X-523493D01*
X-523426Y-356464D01*
D02*
G37*
G36*
X-529587Y-357883D02*
X-529527Y-357890D01*
X-529467Y-357903D01*
X-529393Y-357916D01*
X-529314Y-357943D01*
X-529227Y-357969D01*
X-529140Y-358003D01*
X-529047Y-358043D01*
X-528954Y-358089D01*
X-528861Y-358149D01*
X-528774Y-358223D01*
X-528681Y-358296D01*
X-528594Y-358389D01*
X-528588Y-358396D01*
X-528574Y-358409D01*
X-528554Y-358442D01*
X-528521Y-358482D01*
X-528488Y-358536D01*
X-528448Y-358595D01*
X-528408Y-358669D01*
X-528368Y-358755D01*
X-528328Y-358849D01*
X-528281Y-358955D01*
X-528248Y-359075D01*
X-528215Y-359195D01*
X-528181Y-359335D01*
X-528161Y-359481D01*
X-528148Y-359634D01*
X-528141Y-359801D01*
Y-359814D01*
Y-359841D01*
Y-359888D01*
X-528148Y-359954D01*
X-528155Y-360034D01*
X-528168Y-360121D01*
X-528181Y-360221D01*
X-528201Y-360334D01*
X-528221Y-360447D01*
X-528255Y-360560D01*
X-528288Y-360687D01*
X-528335Y-360807D01*
X-528388Y-360920D01*
X-528448Y-361040D01*
X-528521Y-361146D01*
X-528601Y-361246D01*
X-528608Y-361253D01*
X-528621Y-361266D01*
X-528648Y-361293D01*
X-528681Y-361326D01*
X-528727Y-361366D01*
X-528781Y-361406D01*
X-528841Y-361453D01*
X-528907Y-361499D01*
X-528987Y-361553D01*
X-529067Y-361599D01*
X-529160Y-361639D01*
X-529254Y-361679D01*
X-529360Y-361712D01*
X-529467Y-361739D01*
X-529580Y-361752D01*
X-529700Y-361759D01*
X-529753D01*
X-529813Y-361752D01*
X-529886Y-361746D01*
X-529973Y-361732D01*
X-530066Y-361706D01*
X-530159Y-361679D01*
X-530259Y-361639D01*
X-530273Y-361632D01*
X-530299Y-361613D01*
X-530352Y-361586D01*
X-530419Y-361539D01*
X-530492Y-361486D01*
X-530579Y-361413D01*
X-530679Y-361326D01*
X-530779Y-361220D01*
Y-363091D01*
X-531758D01*
Y-357963D01*
X-530845D01*
Y-358509D01*
X-530839Y-358496D01*
X-530812Y-358462D01*
X-530772Y-358409D01*
X-530719Y-358349D01*
X-530652Y-358276D01*
X-530572Y-358203D01*
X-530472Y-358123D01*
X-530366Y-358056D01*
X-530359D01*
X-530352Y-358049D01*
X-530313Y-358029D01*
X-530253Y-357996D01*
X-530166Y-357963D01*
X-530066Y-357936D01*
X-529953Y-357903D01*
X-529826Y-357883D01*
X-529693Y-357876D01*
X-529633D01*
X-529587Y-357883D01*
D02*
G37*
G36*
X-504072D02*
X-503992Y-357896D01*
X-503892Y-357923D01*
X-503779Y-357956D01*
X-503666Y-358003D01*
X-503546Y-358063D01*
X-503852Y-358922D01*
X-503866Y-358915D01*
X-503892Y-358895D01*
X-503939Y-358869D01*
X-503999Y-358835D01*
X-504072Y-358809D01*
X-504152Y-358782D01*
X-504232Y-358762D01*
X-504312Y-358755D01*
X-504345D01*
X-504385Y-358762D01*
X-504438Y-358769D01*
X-504492Y-358782D01*
X-504552Y-358809D01*
X-504612Y-358835D01*
X-504672Y-358875D01*
X-504678Y-358882D01*
X-504692Y-358895D01*
X-504718Y-358928D01*
X-504751Y-358968D01*
X-504785Y-359028D01*
X-504825Y-359095D01*
X-504858Y-359182D01*
X-504891Y-359288D01*
Y-359301D01*
X-504898Y-359321D01*
X-504905Y-359348D01*
X-504911Y-359388D01*
X-504918Y-359428D01*
X-504925Y-359488D01*
X-504931Y-359555D01*
X-504938Y-359628D01*
X-504945Y-359721D01*
X-504951Y-359821D01*
X-504958Y-359934D01*
X-504965Y-360061D01*
Y-360201D01*
X-504971Y-360354D01*
Y-360527D01*
Y-361672D01*
X-505950D01*
Y-357963D01*
X-505038D01*
Y-358489D01*
X-505024Y-358482D01*
X-505018Y-358462D01*
X-504998Y-358436D01*
X-504951Y-358369D01*
X-504898Y-358296D01*
X-504831Y-358209D01*
X-504765Y-358129D01*
X-504692Y-358056D01*
X-504618Y-358003D01*
X-504612Y-357996D01*
X-504585Y-357983D01*
X-504545Y-357963D01*
X-504498Y-357936D01*
X-504432Y-357916D01*
X-504365Y-357896D01*
X-504285Y-357883D01*
X-504199Y-357876D01*
X-504139D01*
X-504072Y-357883D01*
D02*
G37*
%LPC*%
G36*
X-518851Y-358676D02*
X-518964D01*
X-518991Y-358682D01*
X-519057Y-358689D01*
X-519150Y-358715D01*
X-519250Y-358749D01*
X-519357Y-358802D01*
X-519470Y-358875D01*
X-519517Y-358922D01*
X-519570Y-358975D01*
X-519583Y-358988D01*
X-519597Y-359008D01*
X-519610Y-359028D01*
X-519630Y-359062D01*
X-519650Y-359095D01*
X-519697Y-359188D01*
X-519750Y-359308D01*
X-519790Y-359455D01*
X-519816Y-359628D01*
X-519830Y-359821D01*
Y-359828D01*
Y-359848D01*
Y-359874D01*
X-519823Y-359914D01*
Y-359961D01*
X-519816Y-360014D01*
X-519796Y-360134D01*
X-519763Y-360267D01*
X-519723Y-360414D01*
X-519657Y-360547D01*
X-519570Y-360667D01*
X-519557Y-360680D01*
X-519523Y-360713D01*
X-519470Y-360760D01*
X-519390Y-360813D01*
X-519297Y-360867D01*
X-519190Y-360913D01*
X-519064Y-360946D01*
X-518997Y-360953D01*
X-518924Y-360960D01*
X-518884D01*
X-518857Y-360953D01*
X-518791Y-360946D01*
X-518704Y-360920D01*
X-518598Y-360887D01*
X-518491Y-360833D01*
X-518385Y-360760D01*
X-518331Y-360720D01*
X-518285Y-360667D01*
Y-360660D01*
X-518271Y-360653D01*
X-518258Y-360633D01*
X-518245Y-360613D01*
X-518225Y-360580D01*
X-518198Y-360547D01*
X-518151Y-360447D01*
X-518105Y-360327D01*
X-518058Y-360181D01*
X-518032Y-360014D01*
X-518018Y-359814D01*
Y-359808D01*
Y-359788D01*
Y-359761D01*
X-518025Y-359721D01*
Y-359681D01*
X-518032Y-359628D01*
X-518051Y-359501D01*
X-518085Y-359368D01*
X-518131Y-359228D01*
X-518198Y-359095D01*
X-518285Y-358975D01*
Y-358968D01*
X-518298Y-358962D01*
X-518331Y-358928D01*
X-518385Y-358882D01*
X-518464Y-358822D01*
X-518558Y-358769D01*
X-518664Y-358722D01*
X-518784Y-358689D01*
X-518851Y-358676D01*
D02*
G37*
G36*
X-508415Y-358629D02*
X-508428D01*
X-508468Y-358635D01*
X-508528Y-358642D01*
X-508601Y-358656D01*
X-508688Y-358689D01*
X-508774Y-358729D01*
X-508861Y-358789D01*
X-508947Y-358869D01*
X-508954Y-358882D01*
X-508981Y-358909D01*
X-509014Y-358962D01*
X-509047Y-359035D01*
X-509087Y-359128D01*
X-509120Y-359235D01*
X-509147Y-359361D01*
X-509154Y-359501D01*
X-507682D01*
Y-359495D01*
Y-359481D01*
Y-359461D01*
X-507689Y-359428D01*
X-507695Y-359355D01*
X-507715Y-359261D01*
X-507742Y-359155D01*
X-507782Y-359048D01*
X-507835Y-358948D01*
X-507908Y-358855D01*
X-507915Y-358849D01*
X-507948Y-358822D01*
X-507988Y-358782D01*
X-508048Y-358742D01*
X-508121Y-358702D01*
X-508208Y-358662D01*
X-508308Y-358635D01*
X-508415Y-358629D01*
D02*
G37*
G36*
X-534342Y-358676D02*
X-534455D01*
X-534482Y-358682D01*
X-534548Y-358689D01*
X-534642Y-358715D01*
X-534741Y-358749D01*
X-534848Y-358802D01*
X-534961Y-358875D01*
X-535008Y-358922D01*
X-535061Y-358975D01*
X-535075Y-358988D01*
X-535088Y-359008D01*
X-535101Y-359028D01*
X-535121Y-359062D01*
X-535141Y-359095D01*
X-535188Y-359188D01*
X-535241Y-359308D01*
X-535281Y-359455D01*
X-535308Y-359628D01*
X-535321Y-359821D01*
Y-359828D01*
Y-359848D01*
Y-359874D01*
X-535314Y-359914D01*
Y-359961D01*
X-535308Y-360014D01*
X-535288Y-360134D01*
X-535254Y-360267D01*
X-535214Y-360414D01*
X-535148Y-360547D01*
X-535061Y-360667D01*
X-535048Y-360680D01*
X-535014Y-360713D01*
X-534961Y-360760D01*
X-534881Y-360813D01*
X-534788Y-360867D01*
X-534682Y-360913D01*
X-534555Y-360946D01*
X-534488Y-360953D01*
X-534415Y-360960D01*
X-534375D01*
X-534348Y-360953D01*
X-534282Y-360946D01*
X-534195Y-360920D01*
X-534089Y-360887D01*
X-533982Y-360833D01*
X-533876Y-360760D01*
X-533822Y-360720D01*
X-533776Y-360667D01*
Y-360660D01*
X-533762Y-360653D01*
X-533749Y-360633D01*
X-533736Y-360613D01*
X-533716Y-360580D01*
X-533689Y-360547D01*
X-533643Y-360447D01*
X-533596Y-360327D01*
X-533549Y-360181D01*
X-533523Y-360014D01*
X-533509Y-359814D01*
Y-359808D01*
Y-359788D01*
Y-359761D01*
X-533516Y-359721D01*
Y-359681D01*
X-533523Y-359628D01*
X-533543Y-359501D01*
X-533576Y-359368D01*
X-533623Y-359228D01*
X-533689Y-359095D01*
X-533776Y-358975D01*
Y-358968D01*
X-533789Y-358962D01*
X-533822Y-358928D01*
X-533876Y-358882D01*
X-533956Y-358822D01*
X-534049Y-358769D01*
X-534155Y-358722D01*
X-534275Y-358689D01*
X-534342Y-358676D01*
D02*
G37*
G36*
X-512584Y-358629D02*
X-512684D01*
X-512710Y-358635D01*
X-512777Y-358642D01*
X-512857Y-358662D01*
X-512950Y-358695D01*
X-513043Y-358749D01*
X-513143Y-358815D01*
X-513236Y-358909D01*
X-513243Y-358922D01*
X-513270Y-358962D01*
X-513310Y-359028D01*
X-513349Y-359115D01*
X-513396Y-359235D01*
X-513429Y-359375D01*
X-513456Y-359548D01*
X-513469Y-359741D01*
Y-359748D01*
Y-359768D01*
Y-359801D01*
Y-359841D01*
X-513463Y-359888D01*
Y-359947D01*
X-513449Y-360074D01*
X-513429Y-360214D01*
X-513403Y-360360D01*
X-513363Y-360494D01*
X-513336Y-360554D01*
X-513310Y-360607D01*
Y-360613D01*
X-513296Y-360620D01*
X-513283Y-360640D01*
X-513263Y-360667D01*
X-513210Y-360727D01*
X-513136Y-360793D01*
X-513043Y-360867D01*
X-512930Y-360927D01*
X-512863Y-360953D01*
X-512797Y-360973D01*
X-512723Y-360980D01*
X-512644Y-360986D01*
X-512610D01*
X-512584Y-360980D01*
X-512524Y-360973D01*
X-512444Y-360953D01*
X-512351Y-360913D01*
X-512257Y-360867D01*
X-512157Y-360793D01*
X-512111Y-360753D01*
X-512064Y-360700D01*
Y-360693D01*
X-512051Y-360687D01*
X-512044Y-360667D01*
X-512024Y-360647D01*
X-512011Y-360613D01*
X-511991Y-360580D01*
X-511964Y-360534D01*
X-511944Y-360487D01*
X-511924Y-360427D01*
X-511898Y-360360D01*
X-511878Y-360294D01*
X-511864Y-360214D01*
X-511844Y-360127D01*
X-511838Y-360041D01*
X-511824Y-359941D01*
Y-359834D01*
Y-359828D01*
Y-359808D01*
Y-359774D01*
X-511831Y-359728D01*
Y-359674D01*
X-511838Y-359614D01*
X-511851Y-359481D01*
X-511884Y-359328D01*
X-511924Y-359175D01*
X-511978Y-359035D01*
X-512018Y-358968D01*
X-512057Y-358915D01*
Y-358909D01*
X-512071Y-358902D01*
X-512098Y-358869D01*
X-512151Y-358822D01*
X-512217Y-358769D01*
X-512304Y-358722D01*
X-512404Y-358676D01*
X-512524Y-358642D01*
X-512584Y-358629D01*
D02*
G37*
G36*
X-529900Y-358649D02*
X-529993D01*
X-530020Y-358656D01*
X-530086Y-358662D01*
X-530166Y-358682D01*
X-530266Y-358715D01*
X-530366Y-358769D01*
X-530466Y-358835D01*
X-530559Y-358928D01*
X-530566Y-358942D01*
X-530592Y-358982D01*
X-530632Y-359048D01*
X-530672Y-359135D01*
X-530719Y-359255D01*
X-530752Y-359395D01*
X-530779Y-359561D01*
X-530792Y-359754D01*
Y-359761D01*
Y-359781D01*
Y-359814D01*
X-530785Y-359854D01*
Y-359908D01*
X-530779Y-359967D01*
X-530759Y-360107D01*
X-530732Y-360254D01*
X-530686Y-360407D01*
X-530626Y-360554D01*
X-530586Y-360620D01*
X-530546Y-360680D01*
X-530532Y-360693D01*
X-530499Y-360727D01*
X-530446Y-360773D01*
X-530379Y-360827D01*
X-530293Y-360887D01*
X-530186Y-360933D01*
X-530073Y-360966D01*
X-530013Y-360973D01*
X-529946Y-360980D01*
X-529933D01*
X-529886Y-360973D01*
X-529826Y-360966D01*
X-529746Y-360946D01*
X-529660Y-360913D01*
X-529567Y-360867D01*
X-529467Y-360800D01*
X-529380Y-360707D01*
X-529367Y-360693D01*
X-529360Y-360680D01*
X-529340Y-360653D01*
X-529327Y-360627D01*
X-529307Y-360587D01*
X-529287Y-360540D01*
X-529260Y-360494D01*
X-529240Y-360434D01*
X-529220Y-360367D01*
X-529200Y-360294D01*
X-529180Y-360214D01*
X-529167Y-360121D01*
X-529154Y-360027D01*
X-529147Y-359921D01*
Y-359808D01*
Y-359801D01*
Y-359781D01*
Y-359754D01*
X-529154Y-359714D01*
Y-359661D01*
X-529160Y-359608D01*
X-529174Y-359481D01*
X-529207Y-359335D01*
X-529247Y-359195D01*
X-529307Y-359055D01*
X-529347Y-358995D01*
X-529387Y-358935D01*
Y-358928D01*
X-529400Y-358922D01*
X-529427Y-358889D01*
X-529480Y-358842D01*
X-529547Y-358789D01*
X-529627Y-358742D01*
X-529727Y-358695D01*
X-529840Y-358662D01*
X-529900Y-358649D01*
D02*
G37*
%LPD*%
D39*
X16688Y0D02*
G03*
X16688Y0I-16688J0D01*
G01*
D40*
X31000Y11500D02*
D03*
Y-11500D02*
D03*
D41*
X0Y-30500D02*
D03*
Y-22500D02*
D03*
Y22500D02*
D03*
Y14500D02*
D03*
D42*
X-162500Y21500D02*
D03*
X-184500D02*
D03*
X-162500Y31500D02*
D03*
Y36500D02*
D03*
X-184500Y31500D02*
D03*
Y26500D02*
D03*
X-162500D02*
D03*
D43*
X-184500Y36500D02*
D03*
D44*
X-23475Y-50D02*
D03*
X-15475D02*
D03*
X-200500Y52000D02*
D03*
X-192500Y52000D02*
D03*
X-190000Y43500D02*
D03*
X-182000Y43500D02*
D03*
X5000Y31000D02*
D03*
X13000D02*
D03*
D45*
X-205500Y-39500D02*
D03*
Y-24736D02*
D03*
X-154000Y-36500D02*
D03*
Y-21736D02*
D03*
X-171500Y-21500D02*
D03*
Y-36264D02*
D03*
D46*
X-137000Y-22000D02*
D03*
Y-40500D02*
D03*
X-188500Y-20500D02*
D03*
Y-39000D02*
D03*
X-205500Y3500D02*
D03*
Y-15000D02*
D03*
D47*
X-0Y-19000D02*
D03*
D48*
X18600Y0D02*
D03*
D49*
X-32200Y33000D02*
D03*
X-147000D02*
D03*
D50*
X-203000Y26000D02*
D03*
X-203000Y42000D02*
D03*
D51*
X10793Y10793D02*
D03*
X16450Y16450D02*
D03*
D52*
X10293Y-10793D02*
D03*
X15950Y-16450D02*
D03*
X-10293Y10793D02*
D03*
X-15950Y16450D02*
D03*
D53*
X22500Y31000D02*
D03*
X32500D02*
D03*
X-149252Y4921D02*
D03*
X-165000D02*
D03*
X-180748D02*
D03*
D54*
X0Y0D02*
D03*
D55*
X-135472Y-12402D02*
D03*
X-194528Y12402D02*
D03*
M02*
