%FSLAX25Y25*%
%MOIN*%
G70*
G01*
G75*
G04 Layer_Physical_Order=2*
G04 Layer_Color=16711680*
%ADD10R,0.24000X0.08000*%
%ADD11R,0.05000X0.04000*%
%ADD12O,0.08000X0.02400*%
%ADD13R,0.08000X0.02400*%
%ADD14R,0.04000X0.05000*%
%ADD15R,0.09843X0.07874*%
%ADD16R,0.12500X0.06000*%
G04:AMPARAMS|DCode=17|XSize=60mil|YSize=60mil|CornerRadius=15mil|HoleSize=0mil|Usage=FLASHONLY|Rotation=180.000|XOffset=0mil|YOffset=0mil|HoleType=Round|Shape=RoundedRectangle|*
%AMROUNDEDRECTD17*
21,1,0.06000,0.03000,0,0,180.0*
21,1,0.03000,0.06000,0,0,180.0*
1,1,0.03000,-0.01500,0.01500*
1,1,0.03000,0.01500,0.01500*
1,1,0.03000,0.01500,-0.01500*
1,1,0.03000,-0.01500,-0.01500*
%
%ADD17ROUNDEDRECTD17*%
%ADD18R,0.06000X0.10000*%
%ADD19R,0.13000X0.17000*%
%ADD20R,0.15748X0.07874*%
G04:AMPARAMS|DCode=21|XSize=40mil|YSize=50mil|CornerRadius=0mil|HoleSize=0mil|Usage=FLASHONLY|Rotation=45.000|XOffset=0mil|YOffset=0mil|HoleType=Round|Shape=Rectangle|*
%AMROTATEDRECTD21*
4,1,4,0.00354,-0.03182,-0.03182,0.00354,-0.00354,0.03182,0.03182,-0.00354,0.00354,-0.03182,0.0*
%
%ADD21ROTATEDRECTD21*%

G04:AMPARAMS|DCode=22|XSize=40mil|YSize=50mil|CornerRadius=0mil|HoleSize=0mil|Usage=FLASHONLY|Rotation=315.000|XOffset=0mil|YOffset=0mil|HoleType=Round|Shape=Rectangle|*
%AMROTATEDRECTD22*
4,1,4,-0.03182,-0.00354,0.00354,0.03182,0.03182,0.00354,-0.00354,-0.03182,-0.03182,-0.00354,0.0*
%
%ADD22ROTATEDRECTD22*%

%ADD23C,0.01000*%
%ADD24C,0.02500*%
%ADD25R,0.04712X0.19969*%
%ADD26C,0.06500*%
%ADD27C,0.23622*%
%ADD28C,0.09000*%
%ADD29C,0.03500*%
%ADD30C,0.03200*%
%ADD31C,0.03400*%
%ADD32R,0.03000X0.03000*%
G36*
X-507520Y-376711D02*
X-507453D01*
X-507386Y-376717D01*
X-507307Y-376724D01*
X-507153Y-376744D01*
X-506987Y-376770D01*
X-506834Y-376810D01*
X-506767Y-376837D01*
X-506701Y-376864D01*
X-506694D01*
X-506687Y-376870D01*
X-506647Y-376890D01*
X-506594Y-376924D01*
X-506521Y-376970D01*
X-506447Y-377024D01*
X-506374Y-377097D01*
X-506308Y-377170D01*
X-506248Y-377257D01*
X-506241Y-377270D01*
X-506228Y-377303D01*
X-506214Y-377330D01*
X-506208Y-377363D01*
X-506194Y-377410D01*
X-506181Y-377456D01*
X-506168Y-377510D01*
X-506154Y-377576D01*
X-506148Y-377649D01*
X-506134Y-377729D01*
X-506128Y-377816D01*
X-506121Y-377916D01*
X-506114Y-378023D01*
Y-378136D01*
X-506128Y-379281D01*
Y-379288D01*
Y-379301D01*
Y-379328D01*
Y-379361D01*
Y-379401D01*
Y-379448D01*
X-506121Y-379554D01*
X-506114Y-379674D01*
X-506108Y-379794D01*
X-506094Y-379907D01*
X-506081Y-380007D01*
Y-380020D01*
X-506074Y-380047D01*
X-506061Y-380094D01*
X-506041Y-380154D01*
X-506014Y-380227D01*
X-505988Y-380313D01*
X-505948Y-380407D01*
X-505901Y-380500D01*
X-506874D01*
Y-380493D01*
X-506880Y-380480D01*
X-506887Y-380460D01*
X-506900Y-380427D01*
X-506914Y-380387D01*
X-506934Y-380340D01*
X-506954Y-380280D01*
X-506974Y-380214D01*
Y-380207D01*
Y-380200D01*
X-506987Y-380167D01*
X-506993Y-380127D01*
X-507007Y-380100D01*
X-507020Y-380114D01*
X-507054Y-380140D01*
X-507100Y-380187D01*
X-507167Y-380240D01*
X-507247Y-380300D01*
X-507340Y-380360D01*
X-507440Y-380413D01*
X-507546Y-380467D01*
X-507560Y-380473D01*
X-507593Y-380487D01*
X-507653Y-380507D01*
X-507726Y-380527D01*
X-507819Y-380547D01*
X-507919Y-380567D01*
X-508033Y-380580D01*
X-508152Y-380587D01*
X-508206D01*
X-508246Y-380580D01*
X-508292D01*
X-508352Y-380573D01*
X-508479Y-380547D01*
X-508625Y-380513D01*
X-508778Y-380460D01*
X-508925Y-380380D01*
X-508991Y-380333D01*
X-509058Y-380280D01*
X-509065Y-380274D01*
X-509071Y-380267D01*
X-509085Y-380247D01*
X-509111Y-380227D01*
X-509158Y-380154D01*
X-509218Y-380067D01*
X-509278Y-379954D01*
X-509331Y-379814D01*
X-509371Y-379661D01*
X-509378Y-379581D01*
X-509384Y-379494D01*
Y-379488D01*
Y-379481D01*
Y-379441D01*
X-509378Y-379381D01*
X-509365Y-379308D01*
X-509351Y-379221D01*
X-509325Y-379128D01*
X-509285Y-379028D01*
X-509238Y-378935D01*
X-509231Y-378922D01*
X-509211Y-378895D01*
X-509178Y-378848D01*
X-509125Y-378795D01*
X-509065Y-378735D01*
X-508998Y-378675D01*
X-508912Y-378615D01*
X-508818Y-378562D01*
X-508805Y-378555D01*
X-508765Y-378542D01*
X-508705Y-378515D01*
X-508619Y-378482D01*
X-508505Y-378449D01*
X-508372Y-378409D01*
X-508219Y-378369D01*
X-508039Y-378335D01*
X-508033D01*
X-508006Y-378329D01*
X-507973Y-378322D01*
X-507926Y-378315D01*
X-507873Y-378302D01*
X-507806Y-378289D01*
X-507659Y-378256D01*
X-507500Y-378216D01*
X-507340Y-378176D01*
X-507267Y-378156D01*
X-507200Y-378129D01*
X-507133Y-378109D01*
X-507080Y-378089D01*
Y-377996D01*
Y-377989D01*
Y-377982D01*
Y-377949D01*
X-507087Y-377896D01*
X-507100Y-377836D01*
X-507113Y-377763D01*
X-507140Y-377696D01*
X-507180Y-377636D01*
X-507227Y-377583D01*
X-507233Y-377576D01*
X-507253Y-377563D01*
X-507293Y-377543D01*
X-507346Y-377516D01*
X-507413Y-377496D01*
X-507506Y-377476D01*
X-507620Y-377463D01*
X-507753Y-377456D01*
X-507799D01*
X-507846Y-377463D01*
X-507906Y-377470D01*
X-507973Y-377483D01*
X-508039Y-377503D01*
X-508106Y-377530D01*
X-508166Y-377563D01*
X-508172Y-377570D01*
X-508192Y-377583D01*
X-508219Y-377610D01*
X-508252Y-377649D01*
X-508286Y-377696D01*
X-508325Y-377763D01*
X-508365Y-377836D01*
X-508399Y-377929D01*
X-509285Y-377769D01*
Y-377763D01*
X-509278Y-377743D01*
X-509271Y-377716D01*
X-509258Y-377683D01*
X-509238Y-377636D01*
X-509218Y-377583D01*
X-509165Y-377470D01*
X-509098Y-377337D01*
X-509005Y-377203D01*
X-508898Y-377077D01*
X-508772Y-376970D01*
X-508765D01*
X-508752Y-376957D01*
X-508732Y-376944D01*
X-508705Y-376930D01*
X-508665Y-376910D01*
X-508619Y-376884D01*
X-508559Y-376864D01*
X-508499Y-376837D01*
X-508425Y-376810D01*
X-508346Y-376790D01*
X-508252Y-376764D01*
X-508159Y-376744D01*
X-508052Y-376730D01*
X-507933Y-376717D01*
X-507813Y-376704D01*
X-507573D01*
X-507520Y-376711D01*
D02*
G37*
G36*
X-512428Y-379634D02*
X-509857D01*
Y-380500D01*
X-513460D01*
Y-375418D01*
X-512428D01*
Y-379634D01*
D02*
G37*
G36*
X-538116Y-375385D02*
X-537969Y-375392D01*
X-537816Y-375398D01*
X-537676Y-375412D01*
X-537610Y-375425D01*
X-537550Y-375432D01*
X-537536D01*
X-537496Y-375445D01*
X-537443Y-375458D01*
X-537370Y-375478D01*
X-537290Y-375505D01*
X-537197Y-375545D01*
X-537103Y-375592D01*
X-537017Y-375645D01*
X-537004Y-375652D01*
X-536977Y-375672D01*
X-536937Y-375711D01*
X-536877Y-375758D01*
X-536817Y-375818D01*
X-536750Y-375891D01*
X-536684Y-375978D01*
X-536624Y-376071D01*
X-536617Y-376084D01*
X-536597Y-376118D01*
X-536571Y-376171D01*
X-536544Y-376244D01*
X-536517Y-376338D01*
X-536491Y-376437D01*
X-536471Y-376551D01*
X-536464Y-376671D01*
Y-376677D01*
Y-376684D01*
Y-376704D01*
Y-376730D01*
X-536471Y-376797D01*
X-536491Y-376890D01*
X-536511Y-376990D01*
X-536544Y-377103D01*
X-536591Y-377217D01*
X-536657Y-377330D01*
X-536664Y-377343D01*
X-536691Y-377377D01*
X-536737Y-377430D01*
X-536797Y-377496D01*
X-536870Y-377570D01*
X-536964Y-377649D01*
X-537063Y-377716D01*
X-537183Y-377783D01*
X-537177D01*
X-537163Y-377789D01*
X-537137Y-377796D01*
X-537103Y-377809D01*
X-537070Y-377823D01*
X-537023Y-377843D01*
X-536917Y-377896D01*
X-536804Y-377956D01*
X-536684Y-378036D01*
X-536571Y-378136D01*
X-536464Y-378249D01*
Y-378256D01*
X-536451Y-378262D01*
X-536437Y-378282D01*
X-536424Y-378309D01*
X-536384Y-378376D01*
X-536338Y-378469D01*
X-536291Y-378582D01*
X-536251Y-378715D01*
X-536224Y-378862D01*
X-536211Y-379022D01*
Y-379028D01*
Y-379035D01*
Y-379055D01*
Y-379081D01*
X-536218Y-379148D01*
X-536231Y-379235D01*
X-536251Y-379341D01*
X-536284Y-379454D01*
X-536324Y-379574D01*
X-536377Y-379701D01*
Y-379708D01*
X-536384Y-379714D01*
X-536404Y-379754D01*
X-536444Y-379814D01*
X-536491Y-379887D01*
X-536557Y-379974D01*
X-536630Y-380060D01*
X-536724Y-380147D01*
X-536824Y-380227D01*
X-536837Y-380234D01*
X-536870Y-380260D01*
X-536937Y-380293D01*
X-537017Y-380327D01*
X-537117Y-380374D01*
X-537237Y-380407D01*
X-537370Y-380440D01*
X-537516Y-380467D01*
X-537543D01*
X-537570Y-380473D01*
X-537649D01*
X-537703Y-380480D01*
X-537769D01*
X-537843Y-380487D01*
X-538036D01*
X-538149Y-380493D01*
X-538422D01*
X-538582Y-380500D01*
X-540500D01*
Y-375378D01*
X-538249D01*
X-538116Y-375385D01*
D02*
G37*
G36*
X-503111Y-380367D02*
X-503350Y-381013D01*
Y-381019D01*
X-503357Y-381026D01*
X-503371Y-381066D01*
X-503397Y-381126D01*
X-503430Y-381193D01*
X-503464Y-381273D01*
X-503510Y-381352D01*
X-503550Y-381432D01*
X-503597Y-381506D01*
X-503604Y-381512D01*
X-503617Y-381532D01*
X-503644Y-381566D01*
X-503677Y-381606D01*
X-503717Y-381652D01*
X-503763Y-381699D01*
X-503870Y-381785D01*
X-503877Y-381792D01*
X-503897Y-381805D01*
X-503930Y-381825D01*
X-503970Y-381845D01*
X-504023Y-381872D01*
X-504090Y-381899D01*
X-504163Y-381925D01*
X-504243Y-381952D01*
X-504250D01*
X-504283Y-381959D01*
X-504329Y-381972D01*
X-504389Y-381979D01*
X-504463Y-381992D01*
X-504549Y-382005D01*
X-504643Y-382012D01*
X-504789D01*
X-504849Y-382005D01*
X-504916D01*
X-505002Y-381998D01*
X-505095Y-381985D01*
X-505295Y-381952D01*
X-505382Y-381186D01*
X-505369D01*
X-505342Y-381193D01*
X-505302Y-381199D01*
X-505242Y-381206D01*
X-505182Y-381219D01*
X-505109Y-381226D01*
X-504969Y-381233D01*
X-504956D01*
X-504916Y-381226D01*
X-504856Y-381219D01*
X-504776Y-381206D01*
X-504696Y-381179D01*
X-504609Y-381146D01*
X-504529Y-381093D01*
X-504463Y-381026D01*
X-504456Y-381019D01*
X-504436Y-380993D01*
X-504403Y-380946D01*
X-504369Y-380886D01*
X-504329Y-380813D01*
X-504283Y-380726D01*
X-504243Y-380627D01*
X-504210Y-380513D01*
X-505622Y-376790D01*
X-504576D01*
X-503690Y-379428D01*
X-502818Y-376790D01*
X-501799D01*
X-503111Y-380367D01*
D02*
G37*
G36*
X-495359Y-376711D02*
X-495279Y-376724D01*
X-495179Y-376750D01*
X-495065Y-376784D01*
X-494952Y-376830D01*
X-494832Y-376890D01*
X-495139Y-377749D01*
X-495152Y-377743D01*
X-495179Y-377723D01*
X-495225Y-377696D01*
X-495285Y-377663D01*
X-495359Y-377636D01*
X-495438Y-377610D01*
X-495518Y-377590D01*
X-495598Y-377583D01*
X-495632D01*
X-495672Y-377590D01*
X-495725Y-377596D01*
X-495778Y-377610D01*
X-495838Y-377636D01*
X-495898Y-377663D01*
X-495958Y-377703D01*
X-495965Y-377710D01*
X-495978Y-377723D01*
X-496004Y-377756D01*
X-496038Y-377796D01*
X-496071Y-377856D01*
X-496111Y-377923D01*
X-496144Y-378009D01*
X-496178Y-378116D01*
Y-378129D01*
X-496184Y-378149D01*
X-496191Y-378176D01*
X-496198Y-378216D01*
X-496204Y-378256D01*
X-496211Y-378315D01*
X-496218Y-378382D01*
X-496224Y-378455D01*
X-496231Y-378549D01*
X-496238Y-378648D01*
X-496244Y-378762D01*
X-496251Y-378888D01*
Y-379028D01*
X-496258Y-379181D01*
Y-379355D01*
Y-380500D01*
X-497237D01*
Y-376790D01*
X-496324D01*
Y-377316D01*
X-496311Y-377310D01*
X-496304Y-377290D01*
X-496284Y-377263D01*
X-496238Y-377197D01*
X-496184Y-377123D01*
X-496118Y-377037D01*
X-496051Y-376957D01*
X-495978Y-376884D01*
X-495905Y-376830D01*
X-495898Y-376824D01*
X-495871Y-376810D01*
X-495831Y-376790D01*
X-495785Y-376764D01*
X-495718Y-376744D01*
X-495652Y-376724D01*
X-495572Y-376711D01*
X-495485Y-376704D01*
X-495425D01*
X-495359Y-376711D01*
D02*
G37*
G36*
X-517536D02*
X-517443Y-376724D01*
X-517337Y-376744D01*
X-517223Y-376777D01*
X-517103Y-376817D01*
X-516997Y-376870D01*
X-516990D01*
X-516984Y-376877D01*
X-516950Y-376904D01*
X-516897Y-376937D01*
X-516837Y-376997D01*
X-516764Y-377063D01*
X-516697Y-377150D01*
X-516631Y-377250D01*
X-516571Y-377363D01*
X-516564Y-377377D01*
X-516551Y-377410D01*
X-516537Y-377463D01*
X-516517Y-377543D01*
X-516497Y-377649D01*
X-516477Y-377783D01*
X-516471Y-377863D01*
Y-377943D01*
X-516464Y-378029D01*
Y-378129D01*
Y-380500D01*
X-517443D01*
Y-378382D01*
Y-378376D01*
Y-378356D01*
Y-378329D01*
Y-378295D01*
Y-378249D01*
X-517450Y-378196D01*
X-517456Y-378082D01*
X-517470Y-377962D01*
X-517490Y-377849D01*
X-517516Y-377743D01*
X-517530Y-377703D01*
X-517550Y-377670D01*
X-517556Y-377663D01*
X-517576Y-377636D01*
X-517610Y-377603D01*
X-517650Y-377563D01*
X-517709Y-377523D01*
X-517783Y-377490D01*
X-517869Y-377463D01*
X-517969Y-377456D01*
X-518003D01*
X-518043Y-377463D01*
X-518096Y-377470D01*
X-518156Y-377490D01*
X-518222Y-377510D01*
X-518289Y-377543D01*
X-518356Y-377583D01*
X-518362Y-377590D01*
X-518382Y-377610D01*
X-518415Y-377636D01*
X-518455Y-377676D01*
X-518495Y-377729D01*
X-518542Y-377796D01*
X-518582Y-377869D01*
X-518615Y-377956D01*
Y-377969D01*
X-518629Y-378003D01*
X-518642Y-378062D01*
X-518655Y-378142D01*
X-518669Y-378249D01*
X-518682Y-378382D01*
X-518688Y-378535D01*
X-518695Y-378628D01*
Y-378722D01*
Y-380500D01*
X-519674D01*
Y-378469D01*
Y-378462D01*
Y-378442D01*
Y-378415D01*
Y-378382D01*
Y-378335D01*
Y-378289D01*
X-519681Y-378182D01*
X-519688Y-378062D01*
X-519694Y-377949D01*
X-519707Y-377849D01*
X-519721Y-377809D01*
X-519728Y-377776D01*
Y-377769D01*
X-519734Y-377749D01*
X-519747Y-377723D01*
X-519767Y-377683D01*
X-519821Y-377610D01*
X-519854Y-377570D01*
X-519894Y-377536D01*
X-519901Y-377530D01*
X-519914Y-377523D01*
X-519941Y-377510D01*
X-519967Y-377496D01*
X-520014Y-377483D01*
X-520060Y-377470D01*
X-520120Y-377456D01*
X-520227D01*
X-520267Y-377463D01*
X-520320Y-377470D01*
X-520387Y-377490D01*
X-520453Y-377510D01*
X-520527Y-377543D01*
X-520600Y-377583D01*
X-520607Y-377590D01*
X-520627Y-377603D01*
X-520660Y-377636D01*
X-520700Y-377670D01*
X-520740Y-377723D01*
X-520786Y-377783D01*
X-520826Y-377856D01*
X-520860Y-377936D01*
Y-377949D01*
X-520873Y-377982D01*
X-520880Y-378036D01*
X-520893Y-378116D01*
X-520906Y-378222D01*
X-520913Y-378282D01*
X-520920Y-378356D01*
X-520926Y-378429D01*
Y-378515D01*
X-520933Y-378602D01*
Y-378702D01*
Y-380500D01*
X-521912D01*
Y-376790D01*
X-521006D01*
Y-377303D01*
X-520999Y-377296D01*
X-520986Y-377277D01*
X-520960Y-377250D01*
X-520920Y-377210D01*
X-520873Y-377163D01*
X-520820Y-377110D01*
X-520753Y-377057D01*
X-520680Y-377004D01*
X-520600Y-376950D01*
X-520513Y-376890D01*
X-520420Y-376844D01*
X-520320Y-376797D01*
X-520214Y-376757D01*
X-520100Y-376730D01*
X-519980Y-376711D01*
X-519861Y-376704D01*
X-519801D01*
X-519734Y-376711D01*
X-519648Y-376724D01*
X-519554Y-376744D01*
X-519448Y-376770D01*
X-519341Y-376804D01*
X-519241Y-376857D01*
X-519228Y-376864D01*
X-519195Y-376884D01*
X-519148Y-376917D01*
X-519088Y-376963D01*
X-519022Y-377030D01*
X-518955Y-377103D01*
X-518882Y-377190D01*
X-518815Y-377296D01*
Y-377290D01*
X-518802Y-377283D01*
X-518775Y-377250D01*
X-518722Y-377197D01*
X-518655Y-377130D01*
X-518575Y-377063D01*
X-518489Y-376990D01*
X-518389Y-376917D01*
X-518289Y-376857D01*
X-518282D01*
X-518276Y-376850D01*
X-518236Y-376830D01*
X-518182Y-376810D01*
X-518102Y-376777D01*
X-518016Y-376750D01*
X-517909Y-376730D01*
X-517803Y-376711D01*
X-517683Y-376704D01*
X-517616D01*
X-517536Y-376711D01*
D02*
G37*
G36*
X-89622Y82673D02*
X-30140Y73858D01*
X-20829Y62707D01*
X-20833Y62686D01*
X-22699Y61020D01*
X-22756Y60946D01*
X-22828Y60887D01*
X-24271Y59142D01*
X-24313Y59064D01*
X-24373Y58999D01*
X-25556Y57055D01*
X-25587Y56971D01*
X-25637Y56897D01*
X-26532Y54791D01*
X-26550Y54700D01*
X-26590Y54617D01*
X-27194Y52272D01*
X-27199Y52179D01*
X-27226Y52091D01*
X-27257Y51795D01*
X-27716Y51597D01*
X-28113Y51902D01*
X-28782Y52179D01*
X-29500Y52274D01*
X-30218Y52179D01*
X-30887Y51902D01*
X-31169Y51686D01*
X-31521Y52040D01*
X-30799Y52972D01*
X-30749Y53070D01*
X-30680Y53156D01*
X-29831Y54783D01*
X-29798Y54897D01*
X-29743Y55002D01*
X-29187Y56882D01*
X-29176Y57000D01*
X-29142Y57114D01*
X-28969Y58953D01*
X-28977Y59035D01*
X-28964Y59115D01*
X-28994Y59881D01*
X-29005Y59928D01*
X-29001Y59977D01*
X-29094Y60760D01*
X-29117Y60830D01*
X-29120Y60904D01*
X-29489Y62428D01*
X-29531Y62519D01*
X-29552Y62617D01*
X-30187Y64118D01*
X-30245Y64203D01*
X-30282Y64299D01*
X-31182Y65708D01*
X-31255Y65784D01*
X-31309Y65874D01*
X-32448Y67124D01*
X-32533Y67186D01*
X-32602Y67266D01*
X-33933Y68299D01*
X-34032Y68348D01*
X-34117Y68417D01*
X-35745Y69266D01*
X-35859Y69299D01*
X-35963Y69354D01*
X-37843Y69910D01*
X-37961Y69921D01*
X-38075Y69955D01*
X-39914Y70129D01*
X-39996Y70120D01*
X-40077Y70133D01*
X-40842Y70103D01*
X-40889Y70092D01*
X-40938Y70096D01*
X-41721Y70003D01*
X-41791Y69980D01*
X-41865Y69977D01*
X-43389Y69608D01*
X-43480Y69566D01*
X-43578Y69546D01*
X-45079Y68911D01*
X-45164Y68853D01*
X-45261Y68815D01*
X-46670Y67915D01*
X-46745Y67843D01*
X-46835Y67788D01*
X-48085Y66649D01*
X-48147Y66564D01*
X-48227Y66495D01*
X-49260Y65164D01*
X-49309Y65066D01*
X-49378Y64980D01*
X-50227Y63353D01*
X-50260Y63239D01*
X-50315Y63134D01*
X-50872Y61254D01*
X-50883Y61136D01*
X-50916Y61022D01*
X-51090Y59183D01*
X-51082Y59101D01*
X-51094Y59020D01*
X-51064Y58255D01*
X-51053Y58208D01*
X-51057Y58159D01*
X-50964Y57376D01*
X-50941Y57306D01*
X-50938Y57232D01*
X-50569Y55708D01*
X-50527Y55617D01*
X-50507Y55519D01*
X-49872Y54018D01*
X-49814Y53933D01*
X-49776Y53837D01*
X-48877Y52428D01*
X-48804Y52352D01*
X-48750Y52262D01*
X-47611Y51012D01*
X-47526Y50950D01*
X-47456Y50870D01*
X-46125Y49837D01*
X-46027Y49788D01*
X-45941Y49719D01*
X-44314Y48870D01*
X-44200Y48837D01*
X-44095Y48782D01*
X-42216Y48226D01*
X-42097Y48215D01*
X-41983Y48181D01*
X-40144Y48007D01*
X-40062Y48016D01*
X-39981Y48003D01*
X-39216Y48033D01*
X-39169Y48044D01*
X-39120Y48040D01*
X-38337Y48133D01*
X-38267Y48156D01*
X-38193Y48159D01*
X-36669Y48528D01*
X-36579Y48570D01*
X-36481Y48590D01*
X-34980Y49226D01*
X-34894Y49283D01*
X-34798Y49321D01*
X-33389Y50221D01*
X-33313Y50293D01*
X-33223Y50348D01*
X-32298Y51191D01*
X-31902Y50887D01*
X-32179Y50218D01*
X-32274Y49500D01*
X-32179Y48782D01*
X-31902Y48113D01*
X-31461Y47539D01*
X-31029Y47207D01*
Y43000D01*
X-30913Y42415D01*
X-30581Y41919D01*
X-18581Y29919D01*
X-18085Y29587D01*
X-17500Y29471D01*
X-3293D01*
X-2961Y29039D01*
X-2387Y28598D01*
X-1718Y28321D01*
X-1000Y28226D01*
X-282Y28321D01*
X387Y28598D01*
X961Y29039D01*
X1402Y29613D01*
X1679Y30282D01*
X1774Y31000D01*
X1679Y31718D01*
X1402Y32387D01*
X961Y32961D01*
X387Y33402D01*
X-282Y33679D01*
X-1000Y33774D01*
X-1718Y33679D01*
X-2387Y33402D01*
X-2961Y32961D01*
X-3293Y32529D01*
X-5487D01*
X-5571Y33022D01*
X-3739Y33664D01*
X-3655Y33713D01*
X-3561Y33742D01*
X-1361Y34930D01*
X-1289Y34990D01*
X-1205Y35030D01*
X602Y36394D01*
X661Y36461D01*
X735Y36511D01*
X2335Y38129D01*
X2385Y38203D01*
X2451Y38263D01*
X3808Y40106D01*
X3847Y40189D01*
X3905Y40261D01*
X5035Y42403D01*
X5061Y42492D01*
X5108Y42572D01*
X5869Y44759D01*
X5880Y44841D01*
X5912Y44917D01*
X6289Y46771D01*
X6290Y46846D01*
X6310Y46919D01*
X6464Y48878D01*
X6454Y48965D01*
X6465Y49051D01*
X6311Y51516D01*
X6286Y51609D01*
X6284Y51706D01*
X5742Y54132D01*
X5702Y54221D01*
X5684Y54317D01*
X4760Y56641D01*
X4709Y56719D01*
X4679Y56807D01*
X3697Y58483D01*
X3638Y62401D01*
X4016Y62728D01*
X9048Y61911D01*
X19997Y60019D01*
X20262Y59971D01*
X20262D01*
X20531Y59923D01*
X20531D01*
X20531Y59923D01*
X20809Y59873D01*
X33222Y54179D01*
X34148Y52371D01*
X43777Y25598D01*
Y-23096D01*
X34303Y-51975D01*
X33303Y-54006D01*
X20805Y-59848D01*
X20693Y-59868D01*
X20693Y-59868D01*
X20693D01*
X20424Y-59916D01*
X20424D01*
X19995Y-59993D01*
X13158Y-61192D01*
X7263Y-62177D01*
X4840Y-56388D01*
X5523Y-54779D01*
X5542Y-54692D01*
X5581Y-54612D01*
X6160Y-52411D01*
X6166Y-52322D01*
X6193Y-52237D01*
X6450Y-49963D01*
X6442Y-49871D01*
X6457Y-49780D01*
X6367Y-47360D01*
X6345Y-47270D01*
X6346Y-47177D01*
X5914Y-44902D01*
X5883Y-44826D01*
X5872Y-44744D01*
X5275Y-42949D01*
X5237Y-42883D01*
X5219Y-42810D01*
X4374Y-41035D01*
X4323Y-40966D01*
X4290Y-40885D01*
X2926Y-38826D01*
X2858Y-38757D01*
X2807Y-38674D01*
X1127Y-36843D01*
X1048Y-36785D01*
X985Y-36711D01*
X-975Y-35158D01*
X-1058Y-35116D01*
X-1129Y-35055D01*
X-3095Y-33933D01*
X-3180Y-33905D01*
X-3255Y-33857D01*
X-5373Y-33025D01*
X-5461Y-33009D01*
X-5542Y-32972D01*
X-7771Y-32452D01*
X-7863Y-32449D01*
X-7952Y-32424D01*
X-10366Y-32232D01*
X-10458Y-32243D01*
X-10550Y-32231D01*
X-12860Y-32396D01*
X-12939Y-32418D01*
X-13022Y-32419D01*
X-14874Y-32803D01*
X-14944Y-32833D01*
X-15019Y-32843D01*
X-16880Y-33475D01*
X-16955Y-33518D01*
X-17039Y-33541D01*
X-19242Y-34656D01*
X-19319Y-34716D01*
X-19407Y-34756D01*
X-21421Y-36212D01*
X-21488Y-36284D01*
X-21569Y-36338D01*
X-23339Y-38104D01*
X-23391Y-38182D01*
X-23460Y-38245D01*
X-24803Y-40067D01*
X-24841Y-40148D01*
X-24897Y-40216D01*
X-25970Y-42224D01*
X-25996Y-42309D01*
X-26042Y-42386D01*
X-26818Y-44539D01*
X-26831Y-44630D01*
X-26866Y-44715D01*
X-27338Y-47091D01*
X-27338Y-47183D01*
X-27360Y-47273D01*
X-27466Y-49587D01*
X-27453Y-49668D01*
X-27462Y-49750D01*
X-27296Y-51635D01*
X-27274Y-51707D01*
X-27273Y-51783D01*
X-26862Y-53705D01*
X-26828Y-53784D01*
X-26814Y-53870D01*
X-25964Y-56189D01*
X-25913Y-56271D01*
X-25883Y-56364D01*
X-24672Y-58534D01*
X-24608Y-58608D01*
X-24564Y-58695D01*
X-23016Y-60659D01*
X-22945Y-60720D01*
X-22890Y-60795D01*
X-21236Y-62341D01*
X-21161Y-62388D01*
X-21099Y-62452D01*
X-20626Y-62781D01*
X-20558Y-63276D01*
X-30134Y-74847D01*
X-89733Y-82432D01*
X-146368Y-82476D01*
X-157887Y-73168D01*
D01*
X-157729Y-73295D01*
X-157881Y-73136D01*
X-157847Y-72637D01*
X-156702Y-71720D01*
X-156648Y-71656D01*
X-156580Y-71608D01*
X-154873Y-69815D01*
X-154821Y-69733D01*
X-154751Y-69665D01*
X-153338Y-67613D01*
X-153299Y-67524D01*
X-153241Y-67445D01*
X-152163Y-65181D01*
X-152140Y-65091D01*
X-152097Y-65008D01*
X-151443Y-62835D01*
X-151434Y-62747D01*
X-151404Y-62663D01*
X-151068Y-60406D01*
X-151073Y-60315D01*
X-151055Y-60225D01*
X-151057Y-57828D01*
X-151075Y-57738D01*
X-151071Y-57646D01*
X-151417Y-55365D01*
X-151444Y-55290D01*
X-151450Y-55212D01*
X-151922Y-53559D01*
X-151953Y-53499D01*
X-151967Y-53431D01*
X-152639Y-51793D01*
X-152685Y-51723D01*
X-152711Y-51645D01*
X-153950Y-49501D01*
X-154015Y-49428D01*
X-154060Y-49342D01*
X-155630Y-47408D01*
X-155706Y-47346D01*
X-155764Y-47267D01*
X-157633Y-45596D01*
X-157713Y-45548D01*
X-157780Y-45483D01*
X-159681Y-44243D01*
X-159763Y-44210D01*
X-159835Y-44157D01*
X-161906Y-43199D01*
X-161995Y-43177D01*
X-162076Y-43135D01*
X-164376Y-42462D01*
X-164467Y-42454D01*
X-164554Y-42423D01*
X-166841Y-42112D01*
X-166920Y-42117D01*
X-166997Y-42101D01*
X-168715Y-42088D01*
X-168783Y-42101D01*
X-168851Y-42095D01*
X-170612Y-42278D01*
X-170692Y-42302D01*
X-170775Y-42306D01*
X-173181Y-42890D01*
X-173269Y-42931D01*
X-173364Y-42950D01*
X-175663Y-43912D01*
X-175744Y-43967D01*
X-175835Y-44001D01*
X-177966Y-45323D01*
X-178034Y-45386D01*
X-178116Y-45432D01*
X-179841Y-46906D01*
X-179896Y-46976D01*
X-179967Y-47030D01*
X-181470Y-48746D01*
X-181516Y-48825D01*
X-181579Y-48891D01*
X-182874Y-50908D01*
X-182907Y-50994D01*
X-182960Y-51069D01*
X-183904Y-53175D01*
X-183922Y-53252D01*
X-183959Y-53322D01*
X-184455Y-54967D01*
X-184462Y-55035D01*
X-184487Y-55098D01*
X-184622Y-55828D01*
X-208378Y-55581D01*
X-209800Y-53152D01*
X-211267Y-50024D01*
X-212557Y-46410D01*
X-213475Y-42693D01*
X-213978Y-39264D01*
X-214174Y-35394D01*
Y35435D01*
X-214122Y37405D01*
X-213970Y39347D01*
X-213453Y42794D01*
X-212521Y46537D01*
X-211233Y50129D01*
X-209768Y53237D01*
X-208272Y55779D01*
X-184623Y55861D01*
X-184487Y55124D01*
X-184462Y55061D01*
X-184455Y54993D01*
X-183959Y53348D01*
X-183922Y53278D01*
X-183904Y53201D01*
X-182961Y51095D01*
X-182907Y51020D01*
X-182874Y50934D01*
X-181579Y48917D01*
X-181516Y48851D01*
X-181470Y48772D01*
X-179967Y47056D01*
X-179896Y47002D01*
X-179841Y46932D01*
X-178116Y45458D01*
X-178034Y45412D01*
X-177966Y45348D01*
X-175835Y44027D01*
X-175744Y43992D01*
X-175663Y43938D01*
X-173364Y42976D01*
X-173269Y42957D01*
X-173181Y42916D01*
X-170775Y42331D01*
X-170692Y42328D01*
X-170613Y42303D01*
X-168851Y42121D01*
X-168783Y42127D01*
X-168716Y42114D01*
X-166998Y42127D01*
X-166920Y42143D01*
X-166842Y42138D01*
X-164555Y42449D01*
X-164468Y42479D01*
X-164376Y42487D01*
X-162076Y43161D01*
X-161995Y43203D01*
X-161906Y43224D01*
X-159836Y44183D01*
X-159764Y44235D01*
X-159681Y44268D01*
X-157781Y45508D01*
X-157714Y45573D01*
X-157633Y45621D01*
X-155765Y47293D01*
X-155706Y47371D01*
X-155631Y47433D01*
X-154060Y49367D01*
X-154015Y49453D01*
X-153951Y49526D01*
X-152712Y51670D01*
X-152685Y51749D01*
X-152639Y51818D01*
X-151967Y53456D01*
X-151954Y53524D01*
X-151923Y53584D01*
X-151450Y55237D01*
X-151444Y55315D01*
X-151417Y55389D01*
X-151071Y57671D01*
X-151075Y57763D01*
X-151057Y57853D01*
X-151055Y60250D01*
X-151073Y60340D01*
X-151068Y60431D01*
X-151404Y62687D01*
X-151434Y62771D01*
X-151443Y62860D01*
X-152096Y65033D01*
X-152140Y65115D01*
X-152163Y65206D01*
X-153240Y67470D01*
X-153299Y67549D01*
X-153337Y67638D01*
X-154750Y69691D01*
X-154820Y69758D01*
X-154872Y69840D01*
X-156579Y71633D01*
X-156647Y71681D01*
X-156701Y71745D01*
X-157846Y72662D01*
X-157880Y73161D01*
X-157868Y73173D01*
X-157868D01*
X-157858Y73184D01*
X-157858D01*
X-157664Y73388D01*
X-157895Y73199D01*
D01*
X-146264Y82696D01*
X-89622Y82673D01*
D02*
G37*
G36*
X-529951Y-376790D02*
X-529278D01*
Y-377570D01*
X-529951D01*
Y-379075D01*
Y-379081D01*
Y-379095D01*
Y-379115D01*
Y-379148D01*
Y-379221D01*
Y-379308D01*
X-529944Y-379401D01*
Y-379488D01*
Y-379561D01*
X-529937Y-379588D01*
Y-379608D01*
X-529931Y-379621D01*
X-529917Y-379647D01*
X-529891Y-379688D01*
X-529851Y-379727D01*
X-529844D01*
X-529837Y-379734D01*
X-529804Y-379747D01*
X-529744Y-379767D01*
X-529677Y-379774D01*
X-529651D01*
X-529624Y-379767D01*
X-529578Y-379761D01*
X-529524Y-379754D01*
X-529458Y-379734D01*
X-529378Y-379714D01*
X-529285Y-379681D01*
X-529198Y-380447D01*
X-529205D01*
X-529211Y-380453D01*
X-529231Y-380460D01*
X-529258Y-380467D01*
X-529331Y-380493D01*
X-529424Y-380513D01*
X-529538Y-380540D01*
X-529671Y-380567D01*
X-529817Y-380580D01*
X-529977Y-380587D01*
X-530024D01*
X-530070Y-380580D01*
X-530130Y-380573D01*
X-530204Y-380567D01*
X-530284Y-380547D01*
X-530370Y-380527D01*
X-530450Y-380500D01*
X-530457Y-380493D01*
X-530483Y-380487D01*
X-530523Y-380467D01*
X-530570Y-380440D01*
X-530670Y-380367D01*
X-530723Y-380320D01*
X-530763Y-380274D01*
X-530770Y-380267D01*
X-530776Y-380247D01*
X-530796Y-380214D01*
X-530816Y-380167D01*
X-530843Y-380114D01*
X-530863Y-380047D01*
X-530883Y-379974D01*
X-530903Y-379887D01*
Y-379881D01*
X-530910Y-379854D01*
Y-379807D01*
X-530916Y-379734D01*
X-530923Y-379641D01*
Y-379588D01*
Y-379521D01*
X-530930Y-379454D01*
Y-379375D01*
Y-379288D01*
Y-379195D01*
Y-377570D01*
X-531383D01*
Y-376790D01*
X-530930D01*
Y-376051D01*
X-529951Y-375472D01*
Y-376790D01*
D02*
G37*
G36*
X-533587Y-376711D02*
X-533527D01*
X-533454Y-376724D01*
X-533374Y-376730D01*
X-533281Y-376750D01*
X-533174Y-376770D01*
X-533067Y-376804D01*
X-532954Y-376837D01*
X-532841Y-376884D01*
X-532728Y-376937D01*
X-532608Y-376997D01*
X-532495Y-377077D01*
X-532388Y-377157D01*
X-532282Y-377257D01*
X-532275Y-377263D01*
X-532255Y-377283D01*
X-532228Y-377310D01*
X-532195Y-377357D01*
X-532155Y-377410D01*
X-532108Y-377476D01*
X-532062Y-377550D01*
X-532009Y-377636D01*
X-531962Y-377729D01*
X-531915Y-377836D01*
X-531869Y-377949D01*
X-531829Y-378069D01*
X-531789Y-378196D01*
X-531762Y-378335D01*
X-531749Y-378482D01*
X-531742Y-378635D01*
Y-378642D01*
Y-378675D01*
X-531749Y-378715D01*
Y-378775D01*
X-531755Y-378848D01*
X-531769Y-378935D01*
X-531789Y-379028D01*
X-531809Y-379128D01*
X-531842Y-379235D01*
X-531875Y-379348D01*
X-531922Y-379461D01*
X-531975Y-379581D01*
X-532035Y-379701D01*
X-532108Y-379814D01*
X-532195Y-379927D01*
X-532288Y-380034D01*
X-532295Y-380041D01*
X-532315Y-380060D01*
X-532341Y-380087D01*
X-532388Y-380120D01*
X-532441Y-380160D01*
X-532501Y-380207D01*
X-532581Y-380260D01*
X-532661Y-380307D01*
X-532761Y-380360D01*
X-532861Y-380413D01*
X-532974Y-380460D01*
X-533094Y-380500D01*
X-533221Y-380533D01*
X-533360Y-380560D01*
X-533500Y-380580D01*
X-533653Y-380587D01*
X-533707D01*
X-533740Y-380580D01*
X-533787D01*
X-533840Y-380573D01*
X-533900Y-380567D01*
X-533966Y-380560D01*
X-534120Y-380533D01*
X-534280Y-380493D01*
X-534459Y-380433D01*
X-534632Y-380360D01*
X-534639D01*
X-534653Y-380347D01*
X-534679Y-380333D01*
X-534706Y-380313D01*
X-534746Y-380293D01*
X-534792Y-380260D01*
X-534892Y-380187D01*
X-535006Y-380094D01*
X-535119Y-379974D01*
X-535232Y-379841D01*
X-535332Y-379681D01*
Y-379674D01*
X-535345Y-379661D01*
X-535352Y-379634D01*
X-535372Y-379601D01*
X-535385Y-379554D01*
X-535405Y-379508D01*
X-535432Y-379448D01*
X-535452Y-379375D01*
X-535472Y-379301D01*
X-535498Y-379221D01*
X-535518Y-379128D01*
X-535532Y-379035D01*
X-535558Y-378828D01*
X-535572Y-378595D01*
Y-378589D01*
Y-378575D01*
Y-378549D01*
X-535565Y-378509D01*
Y-378469D01*
X-535558Y-378415D01*
X-535552Y-378356D01*
X-535538Y-378295D01*
X-535512Y-378149D01*
X-535472Y-377989D01*
X-535412Y-377823D01*
X-535332Y-377649D01*
Y-377643D01*
X-535319Y-377629D01*
X-535305Y-377603D01*
X-535285Y-377576D01*
X-535265Y-377536D01*
X-535232Y-377490D01*
X-535159Y-377390D01*
X-535059Y-377277D01*
X-534946Y-377163D01*
X-534806Y-377050D01*
X-534653Y-376950D01*
X-534646D01*
X-534632Y-376937D01*
X-534606Y-376930D01*
X-534573Y-376910D01*
X-534533Y-376890D01*
X-534479Y-376870D01*
X-534426Y-376850D01*
X-534360Y-376824D01*
X-534213Y-376784D01*
X-534047Y-376744D01*
X-533867Y-376717D01*
X-533667Y-376704D01*
X-533627D01*
X-533587Y-376711D01*
D02*
G37*
G36*
X-524449D02*
X-524390D01*
X-524316Y-376724D01*
X-524236Y-376730D01*
X-524143Y-376750D01*
X-524037Y-376770D01*
X-523930Y-376804D01*
X-523817Y-376837D01*
X-523703Y-376884D01*
X-523590Y-376937D01*
X-523470Y-376997D01*
X-523357Y-377077D01*
X-523251Y-377157D01*
X-523144Y-377257D01*
X-523137Y-377263D01*
X-523117Y-377283D01*
X-523091Y-377310D01*
X-523058Y-377357D01*
X-523018Y-377410D01*
X-522971Y-377476D01*
X-522924Y-377550D01*
X-522871Y-377636D01*
X-522824Y-377729D01*
X-522778Y-377836D01*
X-522731Y-377949D01*
X-522691Y-378069D01*
X-522651Y-378196D01*
X-522625Y-378335D01*
X-522611Y-378482D01*
X-522605Y-378635D01*
Y-378642D01*
Y-378675D01*
X-522611Y-378715D01*
Y-378775D01*
X-522618Y-378848D01*
X-522631Y-378935D01*
X-522651Y-379028D01*
X-522671Y-379128D01*
X-522705Y-379235D01*
X-522738Y-379348D01*
X-522784Y-379461D01*
X-522838Y-379581D01*
X-522898Y-379701D01*
X-522971Y-379814D01*
X-523058Y-379927D01*
X-523151Y-380034D01*
X-523157Y-380041D01*
X-523177Y-380060D01*
X-523204Y-380087D01*
X-523251Y-380120D01*
X-523304Y-380160D01*
X-523364Y-380207D01*
X-523444Y-380260D01*
X-523524Y-380307D01*
X-523624Y-380360D01*
X-523724Y-380413D01*
X-523837Y-380460D01*
X-523957Y-380500D01*
X-524083Y-380533D01*
X-524223Y-380560D01*
X-524363Y-380580D01*
X-524516Y-380587D01*
X-524569D01*
X-524603Y-380580D01*
X-524649D01*
X-524703Y-380573D01*
X-524762Y-380567D01*
X-524829Y-380560D01*
X-524982Y-380533D01*
X-525142Y-380493D01*
X-525322Y-380433D01*
X-525495Y-380360D01*
X-525502D01*
X-525515Y-380347D01*
X-525542Y-380333D01*
X-525568Y-380313D01*
X-525608Y-380293D01*
X-525655Y-380260D01*
X-525755Y-380187D01*
X-525868Y-380094D01*
X-525981Y-379974D01*
X-526094Y-379841D01*
X-526194Y-379681D01*
Y-379674D01*
X-526208Y-379661D01*
X-526214Y-379634D01*
X-526234Y-379601D01*
X-526248Y-379554D01*
X-526268Y-379508D01*
X-526294Y-379448D01*
X-526314Y-379375D01*
X-526334Y-379301D01*
X-526361Y-379221D01*
X-526381Y-379128D01*
X-526394Y-379035D01*
X-526421Y-378828D01*
X-526434Y-378595D01*
Y-378589D01*
Y-378575D01*
Y-378549D01*
X-526427Y-378509D01*
Y-378469D01*
X-526421Y-378415D01*
X-526414Y-378356D01*
X-526401Y-378295D01*
X-526374Y-378149D01*
X-526334Y-377989D01*
X-526274Y-377823D01*
X-526194Y-377649D01*
Y-377643D01*
X-526181Y-377629D01*
X-526168Y-377603D01*
X-526148Y-377576D01*
X-526128Y-377536D01*
X-526094Y-377490D01*
X-526021Y-377390D01*
X-525921Y-377277D01*
X-525808Y-377163D01*
X-525668Y-377050D01*
X-525515Y-376950D01*
X-525508D01*
X-525495Y-376937D01*
X-525468Y-376930D01*
X-525435Y-376910D01*
X-525395Y-376890D01*
X-525342Y-376870D01*
X-525289Y-376850D01*
X-525222Y-376824D01*
X-525075Y-376784D01*
X-524909Y-376744D01*
X-524729Y-376717D01*
X-524529Y-376704D01*
X-524489D01*
X-524449Y-376711D01*
D02*
G37*
G36*
X-499681D02*
X-499621D01*
X-499554Y-376724D01*
X-499474Y-376730D01*
X-499388Y-376750D01*
X-499288Y-376770D01*
X-499188Y-376804D01*
X-499082Y-376837D01*
X-498968Y-376884D01*
X-498862Y-376937D01*
X-498755Y-376997D01*
X-498649Y-377077D01*
X-498549Y-377157D01*
X-498455Y-377257D01*
X-498449Y-377263D01*
X-498435Y-377283D01*
X-498409Y-377316D01*
X-498382Y-377357D01*
X-498342Y-377416D01*
X-498302Y-377490D01*
X-498262Y-377570D01*
X-498216Y-377670D01*
X-498176Y-377783D01*
X-498129Y-377903D01*
X-498096Y-378043D01*
X-498056Y-378189D01*
X-498029Y-378356D01*
X-498009Y-378535D01*
X-497996Y-378722D01*
Y-378928D01*
X-500453D01*
Y-378935D01*
Y-378948D01*
Y-378968D01*
X-500447Y-379001D01*
X-500440Y-379081D01*
X-500420Y-379181D01*
X-500393Y-379288D01*
X-500353Y-379401D01*
X-500294Y-379514D01*
X-500220Y-379614D01*
X-500207Y-379627D01*
X-500180Y-379654D01*
X-500134Y-379688D01*
X-500067Y-379734D01*
X-499981Y-379781D01*
X-499887Y-379814D01*
X-499774Y-379841D01*
X-499654Y-379854D01*
X-499614D01*
X-499574Y-379847D01*
X-499521Y-379841D01*
X-499461Y-379827D01*
X-499401Y-379801D01*
X-499334Y-379774D01*
X-499275Y-379734D01*
X-499268Y-379727D01*
X-499248Y-379708D01*
X-499221Y-379681D01*
X-499181Y-379634D01*
X-499141Y-379574D01*
X-499101Y-379508D01*
X-499061Y-379421D01*
X-499028Y-379321D01*
X-498049Y-379488D01*
Y-379494D01*
X-498056Y-379514D01*
X-498069Y-379541D01*
X-498082Y-379574D01*
X-498109Y-379621D01*
X-498129Y-379674D01*
X-498196Y-379794D01*
X-498282Y-379927D01*
X-498382Y-380060D01*
X-498509Y-380194D01*
X-498649Y-380307D01*
X-498655D01*
X-498668Y-380320D01*
X-498689Y-380333D01*
X-498722Y-380353D01*
X-498762Y-380374D01*
X-498808Y-380393D01*
X-498862Y-380420D01*
X-498928Y-380447D01*
X-499002Y-380473D01*
X-499075Y-380500D01*
X-499248Y-380540D01*
X-499448Y-380573D01*
X-499668Y-380587D01*
X-499708D01*
X-499761Y-380580D01*
X-499827Y-380573D01*
X-499907Y-380567D01*
X-499994Y-380553D01*
X-500100Y-380533D01*
X-500207Y-380507D01*
X-500320Y-380473D01*
X-500440Y-380433D01*
X-500560Y-380380D01*
X-500673Y-380320D01*
X-500793Y-380247D01*
X-500900Y-380160D01*
X-500999Y-380067D01*
X-501093Y-379954D01*
X-501099Y-379947D01*
X-501106Y-379927D01*
X-501126Y-379901D01*
X-501153Y-379861D01*
X-501179Y-379814D01*
X-501206Y-379754D01*
X-501239Y-379681D01*
X-501273Y-379601D01*
X-501313Y-379514D01*
X-501346Y-379421D01*
X-501372Y-379314D01*
X-501399Y-379201D01*
X-501426Y-379081D01*
X-501446Y-378955D01*
X-501452Y-378815D01*
X-501459Y-378675D01*
Y-378662D01*
Y-378635D01*
X-501452Y-378589D01*
Y-378522D01*
X-501446Y-378449D01*
X-501432Y-378356D01*
X-501419Y-378256D01*
X-501399Y-378149D01*
X-501372Y-378036D01*
X-501339Y-377916D01*
X-501306Y-377796D01*
X-501259Y-377676D01*
X-501199Y-377556D01*
X-501139Y-377443D01*
X-501066Y-377330D01*
X-500980Y-377230D01*
X-500973Y-377223D01*
X-500960Y-377210D01*
X-500933Y-377183D01*
X-500893Y-377150D01*
X-500846Y-377110D01*
X-500786Y-377063D01*
X-500720Y-377017D01*
X-500647Y-376963D01*
X-500560Y-376917D01*
X-500473Y-376870D01*
X-500374Y-376824D01*
X-500260Y-376784D01*
X-500147Y-376750D01*
X-500027Y-376724D01*
X-499894Y-376711D01*
X-499761Y-376704D01*
X-499721D01*
X-499681Y-376711D01*
D02*
G37*
G36*
X-527566Y-376790D02*
X-526894D01*
Y-377570D01*
X-527566D01*
Y-379075D01*
Y-379081D01*
Y-379095D01*
Y-379115D01*
Y-379148D01*
Y-379221D01*
Y-379308D01*
X-527560Y-379401D01*
Y-379488D01*
Y-379561D01*
X-527553Y-379588D01*
Y-379608D01*
X-527546Y-379621D01*
X-527533Y-379647D01*
X-527506Y-379688D01*
X-527466Y-379727D01*
X-527460D01*
X-527453Y-379734D01*
X-527420Y-379747D01*
X-527360Y-379767D01*
X-527293Y-379774D01*
X-527267D01*
X-527240Y-379767D01*
X-527193Y-379761D01*
X-527140Y-379754D01*
X-527073Y-379734D01*
X-526994Y-379714D01*
X-526900Y-379681D01*
X-526814Y-380447D01*
X-526820D01*
X-526827Y-380453D01*
X-526847Y-380460D01*
X-526874Y-380467D01*
X-526947Y-380493D01*
X-527040Y-380513D01*
X-527153Y-380540D01*
X-527287Y-380567D01*
X-527433Y-380580D01*
X-527593Y-380587D01*
X-527639D01*
X-527686Y-380580D01*
X-527746Y-380573D01*
X-527819Y-380567D01*
X-527899Y-380547D01*
X-527986Y-380527D01*
X-528066Y-380500D01*
X-528072Y-380493D01*
X-528099Y-380487D01*
X-528139Y-380467D01*
X-528186Y-380440D01*
X-528286Y-380367D01*
X-528339Y-380320D01*
X-528379Y-380274D01*
X-528385Y-380267D01*
X-528392Y-380247D01*
X-528412Y-380214D01*
X-528432Y-380167D01*
X-528459Y-380114D01*
X-528479Y-380047D01*
X-528499Y-379974D01*
X-528519Y-379887D01*
Y-379881D01*
X-528525Y-379854D01*
Y-379807D01*
X-528532Y-379734D01*
X-528539Y-379641D01*
Y-379588D01*
Y-379521D01*
X-528545Y-379454D01*
Y-379375D01*
Y-379288D01*
Y-379195D01*
Y-377570D01*
X-528998D01*
Y-376790D01*
X-528545D01*
Y-376051D01*
X-527566Y-375472D01*
Y-376790D01*
D02*
G37*
%LPC*%
G36*
X-538395Y-378269D02*
X-539468D01*
Y-379634D01*
X-538322D01*
X-538209Y-379627D01*
X-538089D01*
X-537976Y-379621D01*
X-537923D01*
X-537876Y-379614D01*
X-537836D01*
X-537803Y-379608D01*
X-537789D01*
X-537763Y-379601D01*
X-537723Y-379588D01*
X-537670Y-379568D01*
X-537610Y-379541D01*
X-537543Y-379508D01*
X-537483Y-379461D01*
X-537423Y-379408D01*
X-537416Y-379401D01*
X-537403Y-379375D01*
X-537376Y-379341D01*
X-537350Y-379288D01*
X-537323Y-379228D01*
X-537296Y-379155D01*
X-537283Y-379068D01*
X-537277Y-378968D01*
Y-378955D01*
Y-378928D01*
X-537283Y-378888D01*
X-537290Y-378835D01*
X-537303Y-378775D01*
X-537323Y-378709D01*
X-537350Y-378642D01*
X-537390Y-378582D01*
X-537396Y-378575D01*
X-537410Y-378555D01*
X-537436Y-378522D01*
X-537470Y-378489D01*
X-537516Y-378449D01*
X-537576Y-378409D01*
X-537643Y-378376D01*
X-537716Y-378342D01*
X-537729Y-378335D01*
X-537763Y-378329D01*
X-537789Y-378322D01*
X-537823Y-378315D01*
X-537863Y-378309D01*
X-537909Y-378302D01*
X-537969Y-378295D01*
X-538036Y-378289D01*
X-538109D01*
X-538196Y-378282D01*
X-538289Y-378276D01*
X-538395Y-378269D01*
D02*
G37*
G36*
X-524449Y-377503D02*
X-524563D01*
X-524589Y-377510D01*
X-524656Y-377516D01*
X-524749Y-377543D01*
X-524849Y-377576D01*
X-524956Y-377629D01*
X-525069Y-377703D01*
X-525115Y-377749D01*
X-525169Y-377803D01*
X-525182Y-377816D01*
X-525195Y-377836D01*
X-525209Y-377856D01*
X-525229Y-377889D01*
X-525249Y-377923D01*
X-525295Y-378016D01*
X-525349Y-378136D01*
X-525388Y-378282D01*
X-525415Y-378455D01*
X-525428Y-378648D01*
Y-378655D01*
Y-378675D01*
Y-378702D01*
X-525422Y-378742D01*
Y-378788D01*
X-525415Y-378842D01*
X-525395Y-378961D01*
X-525362Y-379095D01*
X-525322Y-379241D01*
X-525255Y-379375D01*
X-525169Y-379494D01*
X-525155Y-379508D01*
X-525122Y-379541D01*
X-525069Y-379588D01*
X-524989Y-379641D01*
X-524896Y-379694D01*
X-524789Y-379741D01*
X-524662Y-379774D01*
X-524596Y-379781D01*
X-524523Y-379787D01*
X-524483D01*
X-524456Y-379781D01*
X-524390Y-379774D01*
X-524303Y-379747D01*
X-524196Y-379714D01*
X-524090Y-379661D01*
X-523983Y-379588D01*
X-523930Y-379548D01*
X-523883Y-379494D01*
Y-379488D01*
X-523870Y-379481D01*
X-523857Y-379461D01*
X-523843Y-379441D01*
X-523823Y-379408D01*
X-523797Y-379375D01*
X-523750Y-379275D01*
X-523703Y-379155D01*
X-523657Y-379008D01*
X-523630Y-378842D01*
X-523617Y-378642D01*
Y-378635D01*
Y-378615D01*
Y-378589D01*
X-523624Y-378549D01*
Y-378509D01*
X-523630Y-378455D01*
X-523650Y-378329D01*
X-523684Y-378196D01*
X-523730Y-378056D01*
X-523797Y-377923D01*
X-523883Y-377803D01*
Y-377796D01*
X-523897Y-377789D01*
X-523930Y-377756D01*
X-523983Y-377710D01*
X-524063Y-377649D01*
X-524156Y-377596D01*
X-524263Y-377550D01*
X-524383Y-377516D01*
X-524449Y-377503D01*
D02*
G37*
G36*
X-507080Y-378728D02*
X-507087D01*
X-507113Y-378742D01*
X-507160Y-378755D01*
X-507227Y-378775D01*
X-507313Y-378795D01*
X-507420Y-378822D01*
X-507540Y-378848D01*
X-507686Y-378882D01*
X-507693D01*
X-507706Y-378888D01*
X-507726D01*
X-507753Y-378895D01*
X-507819Y-378915D01*
X-507906Y-378935D01*
X-507993Y-378961D01*
X-508079Y-378988D01*
X-508159Y-379015D01*
X-508219Y-379048D01*
X-508226Y-379055D01*
X-508246Y-379075D01*
X-508279Y-379101D01*
X-508312Y-379141D01*
X-508346Y-379195D01*
X-508379Y-379255D01*
X-508399Y-379321D01*
X-508405Y-379394D01*
Y-379401D01*
Y-379428D01*
X-508399Y-379468D01*
X-508386Y-379514D01*
X-508365Y-379574D01*
X-508339Y-379627D01*
X-508306Y-379688D01*
X-508252Y-379747D01*
X-508246Y-379754D01*
X-508226Y-379767D01*
X-508192Y-379794D01*
X-508146Y-379821D01*
X-508092Y-379847D01*
X-508026Y-379874D01*
X-507953Y-379887D01*
X-507866Y-379894D01*
X-507819D01*
X-507766Y-379887D01*
X-507699Y-379874D01*
X-507626Y-379854D01*
X-507540Y-379821D01*
X-507446Y-379781D01*
X-507353Y-379721D01*
X-507346Y-379714D01*
X-507327Y-379701D01*
X-507293Y-379667D01*
X-507260Y-379634D01*
X-507220Y-379588D01*
X-507180Y-379534D01*
X-507147Y-379468D01*
X-507120Y-379401D01*
Y-379394D01*
X-507113Y-379375D01*
X-507107Y-379341D01*
X-507100Y-379294D01*
X-507093Y-379228D01*
X-507087Y-379148D01*
X-507080Y-379048D01*
Y-378928D01*
Y-378728D01*
D02*
G37*
G36*
X-533587Y-377503D02*
X-533700D01*
X-533727Y-377510D01*
X-533793Y-377516D01*
X-533887Y-377543D01*
X-533987Y-377576D01*
X-534093Y-377629D01*
X-534206Y-377703D01*
X-534253Y-377749D01*
X-534306Y-377803D01*
X-534319Y-377816D01*
X-534333Y-377836D01*
X-534346Y-377856D01*
X-534366Y-377889D01*
X-534386Y-377923D01*
X-534433Y-378016D01*
X-534486Y-378136D01*
X-534526Y-378282D01*
X-534553Y-378455D01*
X-534566Y-378648D01*
Y-378655D01*
Y-378675D01*
Y-378702D01*
X-534559Y-378742D01*
Y-378788D01*
X-534553Y-378842D01*
X-534533Y-378961D01*
X-534499Y-379095D01*
X-534459Y-379241D01*
X-534393Y-379375D01*
X-534306Y-379494D01*
X-534293Y-379508D01*
X-534260Y-379541D01*
X-534206Y-379588D01*
X-534126Y-379641D01*
X-534033Y-379694D01*
X-533927Y-379741D01*
X-533800Y-379774D01*
X-533733Y-379781D01*
X-533660Y-379787D01*
X-533620D01*
X-533594Y-379781D01*
X-533527Y-379774D01*
X-533440Y-379747D01*
X-533334Y-379714D01*
X-533227Y-379661D01*
X-533121Y-379588D01*
X-533067Y-379548D01*
X-533021Y-379494D01*
Y-379488D01*
X-533007Y-379481D01*
X-532994Y-379461D01*
X-532981Y-379441D01*
X-532961Y-379408D01*
X-532934Y-379375D01*
X-532888Y-379275D01*
X-532841Y-379155D01*
X-532794Y-379008D01*
X-532768Y-378842D01*
X-532754Y-378642D01*
Y-378635D01*
Y-378615D01*
Y-378589D01*
X-532761Y-378549D01*
Y-378509D01*
X-532768Y-378455D01*
X-532788Y-378329D01*
X-532821Y-378196D01*
X-532868Y-378056D01*
X-532934Y-377923D01*
X-533021Y-377803D01*
Y-377796D01*
X-533034Y-377789D01*
X-533067Y-377756D01*
X-533121Y-377710D01*
X-533201Y-377649D01*
X-533294Y-377596D01*
X-533400Y-377550D01*
X-533520Y-377516D01*
X-533587Y-377503D01*
D02*
G37*
G36*
X-194528Y17949D02*
X-195963Y17760D01*
X-197301Y17206D01*
X-198450Y16324D01*
X-199332Y15175D01*
X-199886Y13837D01*
X-200075Y12402D01*
X-199886Y10966D01*
X-199332Y9628D01*
X-198450Y8479D01*
X-197301Y7597D01*
X-195963Y7043D01*
X-194528Y6854D01*
X-193092Y7043D01*
X-191754Y7597D01*
X-190605Y8479D01*
X-189723Y9628D01*
X-189169Y10966D01*
X-188980Y12402D01*
X-189169Y13837D01*
X-189723Y15175D01*
X-190605Y16324D01*
X-191754Y17206D01*
X-193092Y17760D01*
X-194528Y17949D01*
D02*
G37*
G36*
X-170000Y23500D02*
X-177000D01*
Y17500D01*
X-175794D01*
Y16000D01*
X-175619Y15122D01*
X-175122Y14378D01*
X-168320Y7576D01*
X-168712Y7065D01*
X-169141Y6031D01*
X-169287Y4921D01*
X-169141Y3812D01*
X-168712Y2778D01*
X-168031Y1890D01*
X-167143Y1209D01*
X-166110Y781D01*
X-165000Y635D01*
X-163891Y781D01*
X-162857Y1209D01*
X-161969Y1890D01*
X-161288Y2778D01*
X-160859Y3812D01*
X-160713Y4921D01*
X-160859Y6031D01*
X-161288Y7065D01*
X-161969Y7952D01*
X-162857Y8634D01*
X-163126Y8745D01*
X-163378Y9122D01*
X-171206Y16950D01*
Y17500D01*
X-170000D01*
Y23500D01*
D02*
G37*
G36*
X-180748Y9208D02*
X-181858Y9062D01*
X-182891Y8634D01*
X-183779Y7952D01*
X-184460Y7065D01*
X-184889Y6031D01*
X-185035Y4921D01*
X-184889Y3812D01*
X-184460Y2778D01*
X-183779Y1890D01*
X-182891Y1209D01*
X-181858Y781D01*
X-180748Y635D01*
X-179639Y781D01*
X-178605Y1209D01*
X-177717Y1890D01*
X-177036Y2778D01*
X-176607Y3812D01*
X-176461Y4921D01*
X-176607Y6031D01*
X-177036Y7065D01*
X-177717Y7952D01*
X-178605Y8634D01*
X-179639Y9062D01*
X-180748Y9208D01*
D02*
G37*
G36*
X-138502Y70133D02*
X-139267Y70103D01*
X-139315Y70092D01*
X-139363Y70096D01*
X-140146Y70003D01*
X-140217Y69980D01*
X-140291Y69977D01*
X-141814Y69608D01*
X-141905Y69566D01*
X-142003Y69546D01*
X-143504Y68911D01*
X-143589Y68853D01*
X-143686Y68815D01*
X-145095Y67915D01*
X-145170Y67843D01*
X-145261Y67788D01*
X-146510Y66649D01*
X-146572Y66564D01*
X-146652Y66495D01*
X-147685Y65164D01*
X-147734Y65066D01*
X-147803Y64980D01*
X-148652Y63353D01*
X-148685Y63239D01*
X-148741Y63134D01*
X-149297Y61254D01*
X-149308Y61136D01*
X-149342Y61022D01*
X-149515Y59183D01*
X-149507Y59101D01*
X-149520Y59021D01*
X-149490Y58255D01*
X-149478Y58208D01*
X-149482Y58159D01*
X-149389Y57376D01*
X-149367Y57306D01*
X-149364Y57232D01*
X-148994Y55708D01*
X-148952Y55617D01*
X-148932Y55519D01*
X-148297Y54018D01*
X-148239Y53933D01*
X-148201Y53837D01*
X-147302Y52428D01*
X-147229Y52352D01*
X-147175Y52262D01*
X-146036Y51012D01*
X-145951Y50950D01*
X-145882Y50870D01*
X-144550Y49837D01*
X-144452Y49788D01*
X-144366Y49719D01*
X-142739Y48870D01*
X-142625Y48837D01*
X-142520Y48782D01*
X-140641Y48226D01*
X-140522Y48215D01*
X-140408Y48181D01*
X-138569Y48007D01*
X-138488Y48016D01*
X-138407Y48003D01*
X-137642Y48033D01*
X-137594Y48044D01*
X-137545Y48040D01*
X-136762Y48133D01*
X-136692Y48156D01*
X-136618Y48159D01*
X-135094Y48528D01*
X-135004Y48570D01*
X-134906Y48590D01*
X-133405Y49226D01*
X-133319Y49283D01*
X-133223Y49321D01*
X-131814Y50221D01*
X-131738Y50293D01*
X-131648Y50348D01*
X-130399Y51487D01*
X-130336Y51572D01*
X-130257Y51641D01*
X-129224Y52972D01*
X-129174Y53070D01*
X-129105Y53156D01*
X-128257Y54783D01*
X-128223Y54897D01*
X-128168Y55002D01*
X-127612Y56882D01*
X-127601Y57000D01*
X-127567Y57114D01*
X-127394Y58953D01*
X-127402Y59035D01*
X-127389Y59116D01*
X-127419Y59881D01*
X-127430Y59928D01*
X-127427Y59977D01*
X-127519Y60760D01*
X-127542Y60830D01*
X-127545Y60904D01*
X-127915Y62428D01*
X-127956Y62519D01*
X-127977Y62617D01*
X-128612Y64118D01*
X-128670Y64203D01*
X-128707Y64299D01*
X-129607Y65708D01*
X-129680Y65784D01*
X-129734Y65874D01*
X-130873Y67124D01*
X-130958Y67186D01*
X-131027Y67266D01*
X-132358Y68299D01*
X-132457Y68348D01*
X-132543Y68417D01*
X-134170Y69266D01*
X-134284Y69299D01*
X-134389Y69354D01*
X-136268Y69910D01*
X-136387Y69921D01*
X-136501Y69955D01*
X-138340Y70129D01*
X-138421Y70120D01*
X-138502Y70133D01*
D02*
G37*
G36*
X22500Y35287D02*
X21391Y35141D01*
X20357Y34712D01*
X19469Y34031D01*
X18788Y33143D01*
X18359Y32109D01*
X18213Y31000D01*
X18359Y29890D01*
X18788Y28857D01*
X19469Y27969D01*
X20357Y27288D01*
X21391Y26859D01*
X22500Y26713D01*
X23609Y26859D01*
X24643Y27288D01*
X25531Y27969D01*
X26212Y28857D01*
X26641Y29890D01*
X26787Y31000D01*
X26641Y32109D01*
X26212Y33143D01*
X25531Y34031D01*
X24643Y34712D01*
X23609Y35141D01*
X22500Y35287D01*
D02*
G37*
G36*
X-179500Y39274D02*
X-180218Y39179D01*
X-180887Y38902D01*
X-181461Y38461D01*
X-181902Y37887D01*
X-182179Y37218D01*
X-182274Y36500D01*
X-182179Y35782D01*
X-181902Y35113D01*
X-181461Y34539D01*
X-180961Y34154D01*
X-180913Y33915D01*
X-180581Y33419D01*
X-177000Y29837D01*
Y25500D01*
X-170000D01*
Y31500D01*
X-174337D01*
X-177468Y34631D01*
X-177098Y35113D01*
X-176821Y35782D01*
X-176726Y36500D01*
X-176821Y37218D01*
X-177098Y37887D01*
X-177539Y38461D01*
X-178113Y38902D01*
X-178782Y39179D01*
X-179500Y39274D01*
D02*
G37*
G36*
X-70000Y77294D02*
X-70090Y77276D01*
X-71421Y77145D01*
X-72788Y76731D01*
X-74047Y76057D01*
X-75151Y75151D01*
X-76057Y74047D01*
X-76731Y72788D01*
X-77145Y71421D01*
X-77276Y70090D01*
X-77294Y70000D01*
Y-67500D01*
X-77284Y-67553D01*
X-77355Y-68092D01*
X-77369Y-68205D01*
X-77641Y-68862D01*
X-78074Y-69426D01*
X-78638Y-69858D01*
X-79295Y-70130D01*
X-79947Y-70216D01*
X-80000Y-70206D01*
X-80053Y-70216D01*
X-80705Y-70130D01*
X-81362Y-69858D01*
X-81926Y-69426D01*
X-82358Y-68862D01*
X-82630Y-68205D01*
X-82645Y-68092D01*
X-82716Y-67553D01*
X-82706Y-67500D01*
Y70000D01*
X-82716Y70053D01*
X-82724Y70090D01*
X-82855Y71421D01*
X-83270Y72788D01*
X-83943Y74047D01*
X-84849Y75151D01*
X-85953Y76057D01*
X-87212Y76731D01*
X-88579Y77145D01*
X-89910Y77276D01*
X-90000Y77294D01*
X-90090Y77276D01*
X-91421Y77145D01*
X-92788Y76731D01*
X-94047Y76057D01*
X-95151Y75151D01*
X-96057Y74047D01*
X-96731Y72788D01*
X-97145Y71421D01*
X-97276Y70090D01*
X-97294Y70000D01*
Y-67500D01*
X-97284Y-67553D01*
X-97369Y-68205D01*
X-97641Y-68862D01*
X-98074Y-69426D01*
X-98638Y-69858D01*
X-99295Y-70130D01*
X-99947Y-70216D01*
X-100000Y-70206D01*
X-100053Y-70216D01*
X-100705Y-70130D01*
X-101362Y-69858D01*
X-101926Y-69426D01*
X-102358Y-68862D01*
X-102630Y-68205D01*
X-102716Y-67553D01*
X-102706Y-67500D01*
Y70000D01*
X-102724Y70090D01*
X-102725Y70103D01*
X-102855Y71421D01*
X-103270Y72788D01*
X-103943Y74047D01*
X-104849Y75151D01*
X-105953Y76057D01*
X-107212Y76731D01*
X-108579Y77145D01*
X-109910Y77276D01*
X-110000Y77294D01*
X-110090Y77276D01*
X-111421Y77145D01*
X-112788Y76731D01*
X-114047Y76057D01*
X-115151Y75151D01*
X-116057Y74047D01*
X-116730Y72788D01*
X-117145Y71421D01*
X-117276Y70090D01*
X-117294Y70000D01*
Y-67500D01*
X-117284Y-67553D01*
X-117328Y-67890D01*
X-117369Y-68205D01*
X-117642Y-68862D01*
X-118074Y-69426D01*
X-118638Y-69858D01*
X-119295Y-70130D01*
X-119947Y-70216D01*
X-120000Y-70206D01*
X-120053Y-70216D01*
X-120705Y-70130D01*
X-121362Y-69858D01*
X-121926Y-69426D01*
X-122358Y-68862D01*
X-122631Y-68205D01*
X-122716Y-67553D01*
X-122706Y-67500D01*
Y42000D01*
X-122705D01*
X-122885Y43371D01*
X-123414Y44648D01*
X-124256Y45744D01*
X-125352Y46586D01*
X-126629Y47115D01*
X-128000Y47295D01*
Y47294D01*
X-132500D01*
Y47300D01*
X-134001Y47102D01*
X-135400Y46523D01*
X-136601Y45601D01*
X-137523Y44400D01*
X-138102Y43001D01*
X-138300Y41500D01*
X-138294D01*
Y1000D01*
X-139000D01*
Y-6000D01*
X-133000D01*
Y1000D01*
X-133706D01*
Y41500D01*
X-133715Y41544D01*
X-133699Y41622D01*
X-133630Y41968D01*
X-133365Y42365D01*
X-132968Y42630D01*
X-132544Y42715D01*
X-132500Y42706D01*
X-128000D01*
X-127980Y42710D01*
X-127727Y42659D01*
X-127495Y42505D01*
X-127341Y42273D01*
X-127290Y42020D01*
X-127294Y42000D01*
Y-56134D01*
X-127791Y-56194D01*
X-127915Y-55682D01*
X-127956Y-55591D01*
X-127977Y-55493D01*
X-128612Y-53993D01*
X-128670Y-53907D01*
X-128707Y-53811D01*
X-129607Y-52402D01*
X-129680Y-52326D01*
X-129734Y-52236D01*
X-130873Y-50987D01*
X-130958Y-50924D01*
X-131027Y-50844D01*
X-132358Y-49812D01*
X-132457Y-49762D01*
X-132543Y-49693D01*
X-134170Y-48845D01*
X-134284Y-48811D01*
X-134389Y-48756D01*
X-136268Y-48200D01*
X-136387Y-48189D01*
X-136501Y-48155D01*
X-138340Y-47982D01*
X-138421Y-47990D01*
X-138502Y-47977D01*
X-139267Y-48007D01*
X-139315Y-48018D01*
X-139363Y-48015D01*
X-140146Y-48107D01*
X-140217Y-48130D01*
X-140291Y-48133D01*
X-141814Y-48502D01*
X-141905Y-48544D01*
X-142003Y-48565D01*
X-143504Y-49200D01*
X-143589Y-49258D01*
X-143686Y-49295D01*
X-145095Y-50195D01*
X-145170Y-50268D01*
X-145261Y-50322D01*
X-146510Y-51461D01*
X-146572Y-51546D01*
X-146652Y-51615D01*
X-147685Y-52946D01*
X-147734Y-53045D01*
X-147803Y-53130D01*
X-148652Y-54758D01*
X-148685Y-54871D01*
X-148741Y-54976D01*
X-149297Y-56856D01*
X-149308Y-56974D01*
X-149342Y-57088D01*
X-149515Y-58927D01*
X-149507Y-59009D01*
X-149520Y-59090D01*
X-149490Y-59855D01*
X-149478Y-59903D01*
X-149482Y-59951D01*
X-149389Y-60734D01*
X-149367Y-60804D01*
X-149364Y-60878D01*
X-148994Y-62402D01*
X-148952Y-62493D01*
X-148932Y-62591D01*
X-148297Y-64092D01*
X-148239Y-64177D01*
X-148201Y-64274D01*
X-147302Y-65683D01*
X-147229Y-65758D01*
X-147175Y-65848D01*
X-146036Y-67098D01*
X-145951Y-67160D01*
X-145882Y-67240D01*
X-144550Y-68273D01*
X-144452Y-68322D01*
X-144366Y-68391D01*
X-142739Y-69240D01*
X-142625Y-69273D01*
X-142520Y-69328D01*
X-140641Y-69885D01*
X-140522Y-69895D01*
X-140408Y-69929D01*
X-138569Y-70103D01*
X-138488Y-70095D01*
X-138407Y-70107D01*
X-137642Y-70078D01*
X-137594Y-70066D01*
X-137545Y-70070D01*
X-136762Y-69977D01*
X-136692Y-69954D01*
X-136618Y-69951D01*
X-135094Y-69582D01*
X-135004Y-69540D01*
X-134906Y-69520D01*
X-133405Y-68885D01*
X-133319Y-68827D01*
X-133223Y-68789D01*
X-131814Y-67890D01*
X-131738Y-67817D01*
X-131648Y-67763D01*
X-130399Y-66624D01*
X-130336Y-66539D01*
X-130257Y-66470D01*
X-129224Y-65138D01*
X-129174Y-65040D01*
X-129105Y-64954D01*
X-128257Y-63327D01*
X-128223Y-63213D01*
X-128168Y-63108D01*
X-127789Y-61826D01*
X-127294Y-61898D01*
Y-67500D01*
X-127276Y-67590D01*
X-127145Y-68921D01*
X-126731Y-70288D01*
X-126057Y-71547D01*
X-125151Y-72651D01*
X-124047Y-73557D01*
X-122788Y-74230D01*
X-121421Y-74645D01*
X-120090Y-74776D01*
X-120000Y-74794D01*
X-119910Y-74776D01*
X-118579Y-74645D01*
X-117212Y-74230D01*
X-115953Y-73557D01*
X-114849Y-72651D01*
X-113943Y-71547D01*
X-113269Y-70288D01*
X-112855Y-68921D01*
X-112724Y-67590D01*
X-112706Y-67500D01*
Y70000D01*
X-112716Y70053D01*
X-112630Y70705D01*
X-112358Y71362D01*
X-111926Y71926D01*
X-111362Y72359D01*
X-110705Y72631D01*
X-110053Y72716D01*
X-110000Y72706D01*
X-109947Y72716D01*
X-109295Y72631D01*
X-108638Y72359D01*
X-108074Y71926D01*
X-107642Y71362D01*
X-107369Y70705D01*
X-107284Y70053D01*
X-107294Y70000D01*
Y-67500D01*
X-107276Y-67590D01*
X-107209Y-68273D01*
X-107145Y-68921D01*
X-106730Y-70288D01*
X-106057Y-71547D01*
X-105151Y-72651D01*
X-104047Y-73557D01*
X-102788Y-74230D01*
X-101421Y-74645D01*
X-100090Y-74776D01*
X-100000Y-74794D01*
X-99910Y-74776D01*
X-98579Y-74645D01*
X-97212Y-74230D01*
X-95953Y-73557D01*
X-94849Y-72651D01*
X-93943Y-71547D01*
X-93269Y-70288D01*
X-92855Y-68921D01*
X-92724Y-67590D01*
X-92706Y-67500D01*
Y70000D01*
X-92716Y70053D01*
X-92630Y70705D01*
X-92358Y71362D01*
X-91926Y71926D01*
X-91362Y72359D01*
X-90705Y72631D01*
X-90053Y72716D01*
X-90000Y72706D01*
X-89947Y72716D01*
X-89295Y72631D01*
X-88638Y72359D01*
X-88074Y71926D01*
X-87642Y71362D01*
X-87370Y70705D01*
X-87289Y70096D01*
X-87284Y70053D01*
X-87294Y70000D01*
Y-67500D01*
X-87276Y-67590D01*
X-87145Y-68921D01*
X-86730Y-70288D01*
X-86057Y-71547D01*
X-85151Y-72651D01*
X-84047Y-73557D01*
X-82788Y-74230D01*
X-81421Y-74645D01*
X-80090Y-74776D01*
X-80000Y-74794D01*
X-79910Y-74776D01*
X-78579Y-74645D01*
X-77212Y-74230D01*
X-75953Y-73557D01*
X-74849Y-72651D01*
X-73943Y-71547D01*
X-73269Y-70288D01*
X-72855Y-68921D01*
X-72800Y-68369D01*
X-72724Y-67590D01*
X-72706Y-67500D01*
Y70000D01*
X-72716Y70053D01*
X-72631Y70705D01*
X-72359Y71362D01*
X-71926Y71926D01*
X-71362Y72359D01*
X-70705Y72631D01*
X-70053Y72716D01*
X-70000Y72706D01*
X-69947Y72716D01*
X-69295Y72631D01*
X-68638Y72359D01*
X-68074Y71926D01*
X-67642Y71362D01*
X-67370Y70705D01*
X-67284Y70058D01*
X-67284Y70053D01*
X-67294Y70000D01*
Y-67500D01*
X-67284Y-67553D01*
X-67276Y-67590D01*
X-67145Y-68921D01*
X-66730Y-70288D01*
X-66057Y-71547D01*
X-65151Y-72651D01*
X-64047Y-73557D01*
X-62788Y-74230D01*
X-61421Y-74645D01*
X-60090Y-74776D01*
X-60000Y-74794D01*
X-59910Y-74776D01*
X-58579Y-74645D01*
X-57212Y-74230D01*
X-55953Y-73557D01*
X-54849Y-72651D01*
X-53943Y-71547D01*
X-53269Y-70288D01*
X-52855Y-68921D01*
X-52724Y-67590D01*
X-52706Y-67500D01*
Y40000D01*
X-52716Y40053D01*
X-52714Y40068D01*
X-52631Y40705D01*
X-52359Y41362D01*
X-51926Y41926D01*
X-51362Y42358D01*
X-50705Y42630D01*
X-50053Y42716D01*
X-50000Y42706D01*
X-49947Y42716D01*
X-49295Y42630D01*
X-48638Y42358D01*
X-48074Y41926D01*
X-47642Y41362D01*
X-47370Y40705D01*
X-47284Y40053D01*
X-47292Y40012D01*
X-47294Y40000D01*
Y-37500D01*
X-47276Y-37590D01*
X-47145Y-38921D01*
X-46731Y-40288D01*
X-46057Y-41547D01*
X-45151Y-42651D01*
X-44047Y-43557D01*
X-42788Y-44230D01*
X-41421Y-44645D01*
X-40090Y-44776D01*
X-40000Y-44794D01*
X-39910Y-44776D01*
X-38579Y-44645D01*
X-37212Y-44230D01*
X-35953Y-43557D01*
X-34849Y-42651D01*
X-33943Y-41547D01*
X-33270Y-40288D01*
X-32855Y-38921D01*
X-32724Y-37590D01*
X-32706Y-37500D01*
Y-7000D01*
X-32727Y-6895D01*
X-32579Y-5773D01*
X-32105Y-4630D01*
X-31352Y-3648D01*
X-30370Y-2895D01*
X-29227Y-2421D01*
X-28105Y-2273D01*
X-28000Y-2294D01*
X-19642D01*
X-19623Y-2583D01*
X-19118Y-5123D01*
X-18286Y-7574D01*
X-17141Y-9896D01*
X-15702Y-12049D01*
X-13995Y-13995D01*
X-12049Y-15702D01*
X-9896Y-17141D01*
X-7574Y-18286D01*
X-5123Y-19118D01*
X-2583Y-19623D01*
X0Y-19792D01*
X2583Y-19623D01*
X5123Y-19118D01*
X7574Y-18286D01*
X9896Y-17141D01*
X12049Y-15702D01*
X13995Y-13995D01*
X15702Y-12049D01*
X17141Y-9896D01*
X18286Y-7574D01*
X19118Y-5123D01*
X19623Y-2583D01*
X19792Y0D01*
X19623Y2583D01*
X19118Y5123D01*
X18286Y7574D01*
X17141Y9896D01*
X15702Y12049D01*
X13995Y13995D01*
X12049Y15702D01*
X9896Y17141D01*
X7574Y18286D01*
X5123Y19118D01*
X2583Y19623D01*
X0Y19792D01*
X-2583Y19623D01*
X-5123Y19118D01*
X-7574Y18286D01*
X-9896Y17141D01*
X-12049Y15702D01*
X-13995Y13995D01*
X-15702Y12049D01*
X-17141Y9896D01*
X-18286Y7574D01*
X-19118Y5123D01*
X-19623Y2583D01*
X-19642Y2294D01*
X-28000D01*
Y2295D01*
X-29813Y2116D01*
X-31557Y1587D01*
X-33164Y728D01*
X-34572Y-428D01*
X-35728Y-1836D01*
X-36587Y-3443D01*
X-37116Y-5187D01*
X-37295Y-7000D01*
X-37294D01*
Y-37500D01*
X-37284Y-37553D01*
X-37369Y-38205D01*
X-37642Y-38862D01*
X-38074Y-39426D01*
X-38638Y-39858D01*
X-39295Y-40130D01*
X-39947Y-40216D01*
X-40000Y-40206D01*
X-40053Y-40216D01*
X-40705Y-40130D01*
X-41362Y-39858D01*
X-41926Y-39426D01*
X-42358Y-38862D01*
X-42630Y-38205D01*
X-42716Y-37553D01*
X-42706Y-37500D01*
Y40000D01*
X-42708Y40012D01*
X-42724Y40090D01*
X-42855Y41421D01*
X-43270Y42788D01*
X-43943Y44047D01*
X-44849Y45151D01*
X-45953Y46057D01*
X-47212Y46731D01*
X-48579Y47145D01*
X-49910Y47276D01*
X-50000Y47294D01*
X-50090Y47276D01*
X-51421Y47145D01*
X-52788Y46731D01*
X-54047Y46057D01*
X-55151Y45151D01*
X-56057Y44047D01*
X-56731Y42788D01*
X-57145Y41421D01*
X-57276Y40090D01*
X-57294Y40000D01*
Y-67500D01*
X-57284Y-67553D01*
X-57318Y-67817D01*
X-57370Y-68205D01*
X-57642Y-68862D01*
X-58074Y-69426D01*
X-58638Y-69858D01*
X-59295Y-70130D01*
X-59947Y-70216D01*
X-60000Y-70206D01*
X-60053Y-70216D01*
X-60705Y-70130D01*
X-61362Y-69858D01*
X-61926Y-69426D01*
X-62358Y-68862D01*
X-62630Y-68205D01*
X-62716Y-67553D01*
X-62706Y-67500D01*
Y70000D01*
X-62724Y70090D01*
X-62855Y71421D01*
X-63270Y72788D01*
X-63943Y74047D01*
X-64849Y75151D01*
X-65953Y76057D01*
X-67212Y76731D01*
X-68579Y77145D01*
X-69910Y77276D01*
X-70000Y77294D01*
D02*
G37*
G36*
X-538429Y-376231D02*
X-539468D01*
Y-377416D01*
X-538475D01*
X-538342Y-377410D01*
X-538116D01*
X-538076Y-377403D01*
X-538029D01*
X-537996Y-377396D01*
X-537949Y-377383D01*
X-537889Y-377370D01*
X-537823Y-377343D01*
X-537756Y-377310D01*
X-537683Y-377270D01*
X-537623Y-377217D01*
X-537616Y-377210D01*
X-537596Y-377190D01*
X-537576Y-377157D01*
X-537543Y-377110D01*
X-537516Y-377050D01*
X-537496Y-376983D01*
X-537476Y-376904D01*
X-537470Y-376817D01*
Y-376804D01*
Y-376777D01*
X-537476Y-376730D01*
X-537483Y-376677D01*
X-537503Y-376617D01*
X-537523Y-376551D01*
X-537556Y-376491D01*
X-537603Y-376431D01*
X-537610Y-376424D01*
X-537630Y-376404D01*
X-537656Y-376384D01*
X-537703Y-376351D01*
X-537756Y-376324D01*
X-537823Y-376291D01*
X-537903Y-376271D01*
X-537996Y-376251D01*
X-538002D01*
X-538029Y-376244D01*
X-538116D01*
X-538162Y-376238D01*
X-538349D01*
X-538429Y-376231D01*
D02*
G37*
G36*
X-499701Y-377456D02*
X-499714D01*
X-499754Y-377463D01*
X-499814Y-377470D01*
X-499887Y-377483D01*
X-499974Y-377516D01*
X-500061Y-377556D01*
X-500147Y-377616D01*
X-500234Y-377696D01*
X-500240Y-377710D01*
X-500267Y-377736D01*
X-500300Y-377789D01*
X-500333Y-377863D01*
X-500374Y-377956D01*
X-500407Y-378062D01*
X-500433Y-378189D01*
X-500440Y-378329D01*
X-498968D01*
Y-378322D01*
Y-378309D01*
Y-378289D01*
X-498975Y-378256D01*
X-498982Y-378182D01*
X-499002Y-378089D01*
X-499028Y-377982D01*
X-499068Y-377876D01*
X-499121Y-377776D01*
X-499195Y-377683D01*
X-499201Y-377676D01*
X-499235Y-377649D01*
X-499275Y-377610D01*
X-499334Y-377570D01*
X-499408Y-377530D01*
X-499494Y-377490D01*
X-499594Y-377463D01*
X-499701Y-377456D01*
D02*
G37*
G36*
X-135472Y-6854D02*
X-136908Y-7043D01*
X-138246Y-7597D01*
X-139395Y-8479D01*
X-140277Y-9628D01*
X-140831Y-10966D01*
X-141020Y-12402D01*
X-140831Y-13837D01*
X-140277Y-15175D01*
X-139395Y-16324D01*
X-138246Y-17206D01*
X-136908Y-17760D01*
X-135472Y-17949D01*
X-134037Y-17760D01*
X-132699Y-17206D01*
X-131550Y-16324D01*
X-130668Y-15175D01*
X-130114Y-13837D01*
X-129925Y-12402D01*
X-130114Y-10966D01*
X-130668Y-9628D01*
X-131550Y-8479D01*
X-132699Y-7597D01*
X-134037Y-7043D01*
X-135472Y-6854D01*
D02*
G37*
G36*
X-166500Y39274D02*
X-167218Y39179D01*
X-167887Y38902D01*
X-168461Y38461D01*
X-168902Y37887D01*
X-169179Y37218D01*
X-169274Y36500D01*
X-169179Y35782D01*
X-168902Y35113D01*
X-168461Y34539D01*
X-167887Y34098D01*
X-167218Y33821D01*
X-166500Y33726D01*
X-165782Y33821D01*
X-165113Y34098D01*
X-164539Y34539D01*
X-164207Y34971D01*
X-163134D01*
X-156829Y28666D01*
Y2833D01*
X-159581Y81D01*
X-159913Y-415D01*
X-160029Y-1000D01*
Y-3000D01*
X-161500D01*
Y-4971D01*
X-163000D01*
Y-3000D01*
X-169000D01*
Y-10000D01*
X-163000D01*
Y-8029D01*
X-161500D01*
Y-10000D01*
X-155500D01*
Y-3000D01*
X-156971D01*
Y-1633D01*
X-154219Y1119D01*
X-153887Y1615D01*
X-153771Y2200D01*
Y3443D01*
X-153280Y3540D01*
X-152964Y2778D01*
X-152283Y1890D01*
X-151395Y1209D01*
X-150361Y781D01*
X-149252Y635D01*
X-148143Y781D01*
X-147416Y1082D01*
X-147047Y836D01*
D01*
X-147000Y804D01*
D01*
Y-305D01*
X-147378Y-381D01*
X-148122Y-878D01*
X-150244Y-3000D01*
X-153500D01*
Y-10000D01*
X-152794D01*
Y-16472D01*
X-152902Y-16613D01*
X-153179Y-17282D01*
X-153274Y-18000D01*
X-153179Y-18718D01*
X-152902Y-19387D01*
X-152461Y-19961D01*
X-151887Y-20402D01*
X-151218Y-20679D01*
X-150500Y-20774D01*
X-149782Y-20679D01*
X-149113Y-20402D01*
X-148539Y-19961D01*
X-148098Y-19387D01*
X-147898Y-18904D01*
X-147880Y-18878D01*
X-147874Y-18848D01*
X-147821Y-18718D01*
X-147766Y-18303D01*
X-147706Y-18000D01*
X-147766Y-17697D01*
X-147821Y-17282D01*
X-147874Y-17152D01*
X-147880Y-17122D01*
X-147898Y-17096D01*
X-148098Y-16613D01*
X-148206Y-16472D01*
Y-10000D01*
X-147500D01*
Y-6744D01*
X-146756Y-6000D01*
X-141000D01*
Y1000D01*
X-146603D01*
X-146651Y1140D01*
D01*
X-146764Y1474D01*
X-146221Y1890D01*
X-145540Y2778D01*
X-145111Y3812D01*
X-144965Y4921D01*
X-145111Y6031D01*
X-145540Y7065D01*
X-146221Y7952D01*
X-147109Y8634D01*
X-148143Y9062D01*
X-149252Y9208D01*
X-150361Y9062D01*
X-151395Y8634D01*
X-152283Y7952D01*
X-152964Y7065D01*
X-153280Y6302D01*
X-153771Y6400D01*
Y29300D01*
X-153887Y29885D01*
X-154219Y30381D01*
X-161419Y37581D01*
X-161915Y37913D01*
X-162500Y38029D01*
X-164207D01*
X-164539Y38461D01*
X-165113Y38902D01*
X-165782Y39179D01*
X-166500Y39274D01*
D02*
G37*
G36*
X-40077Y-47977D02*
X-40842Y-48007D01*
X-40889Y-48018D01*
X-40938Y-48015D01*
X-41721Y-48107D01*
X-41791Y-48130D01*
X-41865Y-48133D01*
X-43389Y-48502D01*
X-43480Y-48544D01*
X-43578Y-48565D01*
X-45079Y-49200D01*
X-45164Y-49258D01*
X-45261Y-49295D01*
X-46670Y-50195D01*
X-46745Y-50268D01*
X-46835Y-50322D01*
X-48085Y-51461D01*
X-48147Y-51546D01*
X-48227Y-51615D01*
X-49260Y-52946D01*
X-49309Y-53045D01*
X-49378Y-53130D01*
X-50227Y-54758D01*
X-50260Y-54871D01*
X-50315Y-54976D01*
X-50872Y-56856D01*
X-50883Y-56974D01*
X-50916Y-57088D01*
X-51090Y-58927D01*
X-51082Y-59009D01*
X-51094Y-59090D01*
X-51064Y-59855D01*
X-51053Y-59903D01*
X-51057Y-59951D01*
X-50964Y-60734D01*
X-50941Y-60804D01*
X-50938Y-60878D01*
X-50569Y-62402D01*
X-50527Y-62493D01*
X-50507Y-62591D01*
X-49872Y-64092D01*
X-49814Y-64177D01*
X-49776Y-64274D01*
X-48877Y-65683D01*
X-48804Y-65758D01*
X-48750Y-65848D01*
X-47611Y-67098D01*
X-47526Y-67160D01*
X-47456Y-67240D01*
X-46125Y-68273D01*
X-46027Y-68322D01*
X-45941Y-68391D01*
X-44314Y-69240D01*
X-44200Y-69273D01*
X-44095Y-69328D01*
X-42216Y-69885D01*
X-42097Y-69895D01*
X-41983Y-69929D01*
X-40144Y-70103D01*
X-40062Y-70095D01*
X-39981Y-70107D01*
X-39216Y-70078D01*
X-39169Y-70066D01*
X-39120Y-70070D01*
X-38337Y-69977D01*
X-38267Y-69954D01*
X-38193Y-69951D01*
X-36669Y-69582D01*
X-36579Y-69540D01*
X-36481Y-69520D01*
X-34980Y-68885D01*
X-34894Y-68827D01*
X-34798Y-68789D01*
X-33389Y-67890D01*
X-33313Y-67817D01*
X-33223Y-67763D01*
X-31974Y-66624D01*
X-31911Y-66539D01*
X-31831Y-66470D01*
X-30799Y-65138D01*
X-30749Y-65040D01*
X-30680Y-64954D01*
X-29831Y-63327D01*
X-29798Y-63213D01*
X-29743Y-63108D01*
X-29187Y-61229D01*
X-29176Y-61110D01*
X-29142Y-60996D01*
X-28969Y-59157D01*
X-28977Y-59076D01*
X-28964Y-58995D01*
X-28994Y-58230D01*
X-29005Y-58182D01*
X-29001Y-58133D01*
X-29094Y-57350D01*
X-29117Y-57280D01*
X-29120Y-57206D01*
X-29489Y-55682D01*
X-29531Y-55591D01*
X-29552Y-55493D01*
X-30187Y-53993D01*
X-30245Y-53907D01*
X-30282Y-53811D01*
X-31182Y-52402D01*
X-31255Y-52326D01*
X-31309Y-52236D01*
X-32448Y-50987D01*
X-32533Y-50924D01*
X-32602Y-50844D01*
X-33933Y-49812D01*
X-34032Y-49762D01*
X-34117Y-49693D01*
X-35745Y-48845D01*
X-35859Y-48811D01*
X-35963Y-48756D01*
X-37843Y-48200D01*
X-37961Y-48189D01*
X-38075Y-48155D01*
X-39914Y-47982D01*
X-39996Y-47990D01*
X-40077Y-47977D01*
D02*
G37*
%LPD*%
D11*
X-173500Y20500D02*
D03*
X-173500Y28500D02*
D03*
D14*
X-150500Y-6500D02*
D03*
X-158500D02*
D03*
X-174000D02*
D03*
X-166000D02*
D03*
X-136000Y-2500D02*
D03*
X-144000D02*
D03*
D23*
X-29500Y43000D02*
X-17500Y31000D01*
X-29500Y43000D02*
Y49500D01*
X-17500Y31000D02*
X-1000D01*
X-179500Y34500D02*
Y36500D01*
Y34500D02*
X-173500Y28500D01*
X-166000Y-6500D02*
X-158500D01*
Y-1000D01*
X-155300Y2200D01*
Y29300D01*
X-162500Y36500D02*
X-155300Y29300D01*
X-166500Y36500D02*
X-162500D01*
D24*
X-120000Y-72500D02*
G03*
X-115000Y-67500I0J5000D01*
G01*
X-100000Y-72500D02*
G03*
X-95000Y-67500I0J5000D01*
G01*
X-80000Y-72500D02*
G03*
X-75000Y-67500I0J5000D01*
G01*
X-60000Y-72500D02*
G03*
X-55000Y-67500I0J5000D01*
G01*
X-40000Y-42500D02*
G03*
X-35000Y-37500I0J5000D01*
G01*
X-125000Y-67500D02*
G03*
X-120000Y-72500I5000J0D01*
G01*
X-125000Y42000D02*
G03*
X-128000Y45000I-3000J0D01*
G01*
X-110000Y75000D02*
G03*
X-115000Y70000I0J-5000D01*
G01*
X-105000Y-67500D02*
G03*
X-100000Y-72500I5000J0D01*
G01*
X-85000Y-67500D02*
G03*
X-80000Y-72500I5000J0D01*
G01*
X-105000Y70000D02*
G03*
X-110000Y75000I-5000J0D01*
G01*
X-132500Y45000D02*
G03*
X-136000Y41500I0J-3500D01*
G01*
X-90000Y75000D02*
G03*
X-95000Y70000I0J-5000D01*
G01*
X-85000D02*
G03*
X-90000Y75000I-5000J0D01*
G01*
X-70000D02*
G03*
X-75000Y70000I0J-5000D01*
G01*
X-65000Y-67500D02*
G03*
X-60000Y-72500I5000J0D01*
G01*
X-65000Y70000D02*
G03*
X-70000Y75000I-5000J0D01*
G01*
X-50000Y45000D02*
G03*
X-55000Y40000I0J-5000D01*
G01*
X-45000Y-37500D02*
G03*
X-40000Y-42500I5000J0D01*
G01*
X-45000Y40000D02*
G03*
X-50000Y45000I-5000J0D01*
G01*
X-28000Y0D02*
G03*
X-35000Y-7000I0J-7000D01*
G01*
X-28000Y0D02*
G03*
X-35000Y-7000I0J-7000D01*
G01*
X-45000Y40000D02*
G03*
X-50000Y45000I-5000J0D01*
G01*
X-45000Y-37500D02*
G03*
X-40000Y-42500I5000J0D01*
G01*
X-50000Y45000D02*
G03*
X-55000Y40000I0J-5000D01*
G01*
X-65000Y70000D02*
G03*
X-70000Y75000I-5000J0D01*
G01*
X-65000Y-67500D02*
G03*
X-60000Y-72500I5000J0D01*
G01*
X-70000Y75000D02*
G03*
X-75000Y70000I0J-5000D01*
G01*
X-85000D02*
G03*
X-90000Y75000I-5000J0D01*
G01*
D02*
G03*
X-95000Y70000I0J-5000D01*
G01*
X-132500Y45000D02*
G03*
X-136000Y41500I0J-3500D01*
G01*
X-105000Y70000D02*
G03*
X-110000Y75000I-5000J0D01*
G01*
X-85000Y-67500D02*
G03*
X-80000Y-72500I5000J0D01*
G01*
X-105000Y-67500D02*
G03*
X-100000Y-72500I5000J0D01*
G01*
X-110000Y75000D02*
G03*
X-115000Y70000I0J-5000D01*
G01*
X-125000Y42000D02*
G03*
X-128000Y45000I-3000J0D01*
G01*
X-125000Y-67500D02*
G03*
X-120000Y-72500I5000J0D01*
G01*
X-40000Y-42500D02*
G03*
X-35000Y-37500I0J5000D01*
G01*
X-60000Y-72500D02*
G03*
X-55000Y-67500I0J5000D01*
G01*
X-80000Y-72500D02*
G03*
X-75000Y-67500I0J5000D01*
G01*
X-100000Y-72500D02*
G03*
X-95000Y-67500I0J5000D01*
G01*
X-120000Y-72500D02*
G03*
X-115000Y-67500I0J5000D01*
G01*
X-173500Y16000D02*
Y20500D01*
Y16000D02*
X-165000Y7500D01*
X-150500Y-17500D02*
Y-6500D01*
Y-18000D02*
X-150000D01*
X-125000Y-67500D02*
Y42000D01*
X-115000Y-67500D02*
Y70000D01*
X-105000Y-67500D02*
Y70000D01*
X-95000Y-67500D02*
Y70000D01*
X-85000Y-67500D02*
Y70000D01*
X-136000Y-2500D02*
Y41500D01*
X-132500Y45000D02*
X-128000D01*
X-75000Y-67500D02*
Y70000D01*
X-65000Y-67500D02*
Y70000D01*
X-55000Y-67500D02*
Y40000D01*
X-45000Y-37500D02*
Y40000D01*
X-35000Y-37500D02*
Y-7000D01*
X-28000Y0D02*
X-17500D01*
X-28000D02*
X-17500D01*
X-35000Y-37500D02*
Y-7000D01*
X-45000Y-37500D02*
Y40000D01*
X-55000Y-67500D02*
Y40000D01*
X-65000Y-67500D02*
Y70000D01*
X-75000Y-67500D02*
Y70000D01*
X-132500Y45000D02*
X-128000D01*
X-136000Y-2500D02*
Y41500D01*
X-85000Y-67500D02*
Y70000D01*
X-95000Y-67500D02*
Y70000D01*
X-105000Y-67500D02*
Y70000D01*
X-115000Y-67500D02*
Y70000D01*
X-125000Y-67500D02*
Y42000D01*
X-12049Y0D02*
X0D01*
X-165000Y4921D02*
Y7500D01*
X-146500Y-2500D02*
X-144000D01*
X-150500Y-6500D02*
X-146500Y-2500D01*
X-150500Y-17500D02*
X-150000Y-18000D01*
D26*
X22500Y31000D02*
D03*
X32500D02*
D03*
X-149252Y4921D02*
D03*
X-165000D02*
D03*
X-180748D02*
D03*
D27*
X0Y0D02*
D03*
D28*
X-135472Y-12402D02*
D03*
X-194528Y12402D02*
D03*
D29*
X-29500Y49500D02*
D03*
X-1000Y31000D02*
D03*
X-166500Y18000D02*
D03*
X-184000Y43500D02*
D03*
X-179500Y36500D02*
D03*
X-166500D02*
D03*
X-150500Y-18000D02*
D03*
X-188500Y18000D02*
D03*
D30*
X26000Y15500D02*
D03*
Y-15500D02*
D03*
X35000D02*
D03*
X-9900Y22500D02*
D03*
X10400D02*
D03*
X34999Y15499D02*
D03*
D31*
X-30000Y20000D02*
D03*
X-130000Y-80000D02*
D03*
X-120000D02*
D03*
X-185000Y-17500D02*
D03*
X-192000D02*
D03*
X-158500Y18000D02*
D03*
X-176000Y-6500D02*
D03*
X6000Y59500D02*
D03*
X19500Y57500D02*
D03*
X31000Y52000D02*
D03*
X41000Y24500D02*
D03*
Y-22500D02*
D03*
X31000Y-52000D02*
D03*
X19500Y-57000D02*
D03*
X8500Y-58000D02*
D03*
X-24000Y-63500D02*
D03*
X-31500Y-72000D02*
D03*
X-145500Y-79500D02*
D03*
X-153500Y-73000D02*
D03*
X-188000Y-53000D02*
D03*
X-206000D02*
D03*
X-206500Y53000D02*
D03*
X-187000D02*
D03*
X-154000Y73000D02*
D03*
X-145500Y80000D02*
D03*
X-96500Y-80000D02*
D03*
X-60000Y-64000D02*
D03*
Y-54000D02*
D03*
Y-44000D02*
D03*
Y-34000D02*
D03*
Y-24000D02*
D03*
Y-14000D02*
D03*
Y-4000D02*
D03*
Y6000D02*
D03*
Y16000D02*
D03*
Y26000D02*
D03*
Y36000D02*
D03*
Y46000D02*
D03*
Y56000D02*
D03*
Y66000D02*
D03*
X-70000D02*
D03*
Y56000D02*
D03*
Y46000D02*
D03*
Y36000D02*
D03*
Y26000D02*
D03*
Y16000D02*
D03*
Y6000D02*
D03*
Y-4000D02*
D03*
Y-14000D02*
D03*
Y-24000D02*
D03*
Y-34000D02*
D03*
Y-44000D02*
D03*
Y-54000D02*
D03*
Y-64000D02*
D03*
X-80000Y66000D02*
D03*
Y56000D02*
D03*
Y46000D02*
D03*
Y36000D02*
D03*
Y26000D02*
D03*
Y16000D02*
D03*
Y6000D02*
D03*
Y-4000D02*
D03*
Y-14000D02*
D03*
Y-24000D02*
D03*
Y-34000D02*
D03*
Y-44000D02*
D03*
Y-54000D02*
D03*
Y-64000D02*
D03*
X-90000Y66000D02*
D03*
Y56000D02*
D03*
Y46000D02*
D03*
Y36000D02*
D03*
Y26000D02*
D03*
Y16000D02*
D03*
Y6000D02*
D03*
Y-4000D02*
D03*
Y-14000D02*
D03*
Y-24000D02*
D03*
Y-34000D02*
D03*
Y-44000D02*
D03*
Y-54000D02*
D03*
Y-64000D02*
D03*
X-100000Y66000D02*
D03*
Y56000D02*
D03*
Y46000D02*
D03*
Y36000D02*
D03*
Y26000D02*
D03*
Y16000D02*
D03*
Y6000D02*
D03*
Y-4000D02*
D03*
Y-14000D02*
D03*
Y-24000D02*
D03*
Y-34000D02*
D03*
Y-44000D02*
D03*
Y-54000D02*
D03*
Y-64000D02*
D03*
X-110000Y66000D02*
D03*
Y56000D02*
D03*
Y46000D02*
D03*
Y36000D02*
D03*
Y26000D02*
D03*
Y16000D02*
D03*
Y6000D02*
D03*
Y-4000D02*
D03*
Y-14000D02*
D03*
Y-24000D02*
D03*
Y-34000D02*
D03*
Y-44000D02*
D03*
Y-54000D02*
D03*
Y-64000D02*
D03*
X-120000Y66000D02*
D03*
Y56000D02*
D03*
Y46000D02*
D03*
Y36000D02*
D03*
Y26000D02*
D03*
Y16000D02*
D03*
Y6000D02*
D03*
Y-4000D02*
D03*
Y-14000D02*
D03*
Y-24000D02*
D03*
Y-34000D02*
D03*
Y-44000D02*
D03*
Y-54000D02*
D03*
Y-64000D02*
D03*
X-129988Y36000D02*
D03*
Y26000D02*
D03*
Y16000D02*
D03*
Y6000D02*
D03*
Y-4000D02*
D03*
Y-34000D02*
D03*
X-142000Y6000D02*
D03*
Y16000D02*
D03*
Y46000D02*
D03*
X-50000Y36000D02*
D03*
Y26000D02*
D03*
Y16000D02*
D03*
Y6000D02*
D03*
X-40000Y36000D02*
D03*
Y26000D02*
D03*
Y16000D02*
D03*
Y6000D02*
D03*
Y-4000D02*
D03*
X-50000D02*
D03*
Y-14000D02*
D03*
Y-24000D02*
D03*
Y-34000D02*
D03*
Y-44000D02*
D03*
X-40000Y-34000D02*
D03*
Y-24000D02*
D03*
Y-14000D02*
D03*
X-30000Y-34000D02*
D03*
Y-24000D02*
D03*
Y-14000D02*
D03*
X-180500Y18000D02*
D03*
D32*
X-12500Y0D02*
D03*
X-16786D02*
D03*
M02*
