G04*
G04 #@! TF.GenerationSoftware,Altium Limited,Altium Designer,25.5.2 (35)*
G04*
G04 Layer_Color=128*
%FSLAX44Y44*%
%MOMM*%
G71*
G04*
G04 #@! TF.SameCoordinates,2B58446A-7EB2-4CA3-8779-5F23494D5F83*
G04*
G04*
G04 #@! TF.FilePolarity,Positive*
G04*
G01*
G75*
G04:AMPARAMS|DCode=14|XSize=0.72mm|YSize=0.99mm|CornerRadius=0.09mm|HoleSize=0mm|Usage=FLASHONLY|Rotation=90.000|XOffset=0mm|YOffset=0mm|HoleType=Round|Shape=RoundedRectangle|*
%AMROUNDEDRECTD14*
21,1,0.7200,0.8100,0,0,90.0*
21,1,0.5400,0.9900,0,0,90.0*
1,1,0.1800,0.4050,0.2700*
1,1,0.1800,0.4050,-0.2700*
1,1,0.1800,-0.4050,-0.2700*
1,1,0.1800,-0.4050,0.2700*
%
%ADD14ROUNDEDRECTD14*%
G04:AMPARAMS|DCode=17|XSize=1.4mm|YSize=1.05mm|CornerRadius=0.1313mm|HoleSize=0mm|Usage=FLASHONLY|Rotation=90.000|XOffset=0mm|YOffset=0mm|HoleType=Round|Shape=RoundedRectangle|*
%AMROUNDEDRECTD17*
21,1,1.4000,0.7875,0,0,90.0*
21,1,1.1375,1.0500,0,0,90.0*
1,1,0.2625,0.3938,0.5688*
1,1,0.2625,0.3938,-0.5688*
1,1,0.2625,-0.3938,-0.5688*
1,1,0.2625,-0.3938,0.5688*
%
%ADD17ROUNDEDRECTD17*%
G04:AMPARAMS|DCode=18|XSize=0.72mm|YSize=0.99mm|CornerRadius=0.09mm|HoleSize=0mm|Usage=FLASHONLY|Rotation=0.000|XOffset=0mm|YOffset=0mm|HoleType=Round|Shape=RoundedRectangle|*
%AMROUNDEDRECTD18*
21,1,0.7200,0.8100,0,0,0.0*
21,1,0.5400,0.9900,0,0,0.0*
1,1,0.1800,0.2700,-0.4050*
1,1,0.1800,-0.2700,-0.4050*
1,1,0.1800,-0.2700,0.4050*
1,1,0.1800,0.2700,0.4050*
%
%ADD18ROUNDEDRECTD18*%
G04:AMPARAMS|DCode=46|XSize=1.2mm|YSize=2.7mm|CornerRadius=0.05mm|HoleSize=0mm|Usage=FLASHONLY|Rotation=270.000|XOffset=0mm|YOffset=0mm|HoleType=Round|Shape=RoundedRectangle|*
%AMROUNDEDRECTD46*
21,1,1.2000,2.6000,0,0,270.0*
21,1,1.1000,2.7000,0,0,270.0*
1,1,0.1000,-1.3000,-0.5500*
1,1,0.1000,-1.3000,0.5500*
1,1,0.1000,1.3000,0.5500*
1,1,0.1000,1.3000,-0.5500*
%
%ADD46ROUNDEDRECTD46*%
G04:AMPARAMS|DCode=47|XSize=2.7mm|YSize=1.1mm|CornerRadius=0.1375mm|HoleSize=0mm|Usage=FLASHONLY|Rotation=0.000|XOffset=0mm|YOffset=0mm|HoleType=Round|Shape=RoundedRectangle|*
%AMROUNDEDRECTD47*
21,1,2.7000,0.8250,0,0,0.0*
21,1,2.4250,1.1000,0,0,0.0*
1,1,0.2750,1.2125,-0.4125*
1,1,0.2750,-1.2125,-0.4125*
1,1,0.2750,-1.2125,0.4125*
1,1,0.2750,1.2125,0.4125*
%
%ADD47ROUNDEDRECTD47*%
G04:AMPARAMS|DCode=48|XSize=2mm|YSize=2mm|CornerRadius=0.2mm|HoleSize=0mm|Usage=FLASHONLY|Rotation=0.000|XOffset=0mm|YOffset=0mm|HoleType=Round|Shape=RoundedRectangle|*
%AMROUNDEDRECTD48*
21,1,2.0000,1.6000,0,0,0.0*
21,1,1.6000,2.0000,0,0,0.0*
1,1,0.4000,0.8000,-0.8000*
1,1,0.4000,-0.8000,-0.8000*
1,1,0.4000,-0.8000,0.8000*
1,1,0.4000,0.8000,0.8000*
%
%ADD48ROUNDEDRECTD48*%
G04:AMPARAMS|DCode=49|XSize=1.05mm|YSize=0.55mm|CornerRadius=0.0688mm|HoleSize=0mm|Usage=FLASHONLY|Rotation=90.000|XOffset=0mm|YOffset=0mm|HoleType=Round|Shape=RoundedRectangle|*
%AMROUNDEDRECTD49*
21,1,1.0500,0.4125,0,0,90.0*
21,1,0.9125,0.5500,0,0,90.0*
1,1,0.1375,0.2063,0.4563*
1,1,0.1375,0.2063,-0.4563*
1,1,0.1375,-0.2063,-0.4563*
1,1,0.1375,-0.2063,0.4563*
%
%ADD49ROUNDEDRECTD49*%
D14*
X-333250Y57600D02*
D03*
Y71400D02*
D03*
X-375742Y130964D02*
D03*
Y144764D02*
D03*
X-317750Y99650D02*
D03*
Y85850D02*
D03*
X-317750Y57600D02*
D03*
X-317750Y71400D02*
D03*
X-317778Y25449D02*
D03*
Y39249D02*
D03*
D17*
X-335750Y128299D02*
D03*
X-316750D02*
D03*
X-335750Y148349D02*
D03*
X-316750Y148349D02*
D03*
X-275278Y148349D02*
D03*
X-294278D02*
D03*
X-275335Y128299D02*
D03*
X-294335Y128299D02*
D03*
D18*
X-312350Y164500D02*
D03*
X-326250Y164500D02*
D03*
D46*
X-246000Y108250D02*
D03*
Y86250D02*
D03*
D47*
X-291778Y52349D02*
D03*
X-291778Y22349D02*
D03*
X-187778Y5349D02*
D03*
Y35349D02*
D03*
X-291778Y-28651D02*
D03*
Y1349D02*
D03*
X-187778Y-62651D02*
D03*
Y-32651D02*
D03*
X-291778Y-96651D02*
D03*
Y-66651D02*
D03*
D48*
X-262278Y-30651D02*
D03*
X-217278Y-30651D02*
D03*
X-262278Y37437D02*
D03*
X-217278Y37437D02*
D03*
X-217278Y3349D02*
D03*
X-262278Y3349D02*
D03*
X-217278Y-64651D02*
D03*
X-262278Y-64651D02*
D03*
X-262278Y-98651D02*
D03*
X-217278Y-98651D02*
D03*
D49*
X-275278Y109707D02*
D03*
X-294278D02*
D03*
X-294278Y84707D02*
D03*
X-284778Y84707D02*
D03*
X-275278Y84707D02*
D03*
M02*
