M48
;Layer_Color=9474304
;FILE_FORMAT=4:4
METRIC,LZ
;TYPE=PLATED
T01F00S00C0.3000
T02F00S00C0.3556
T03F00S00C0.4000
T05F00S00C1.0000
T06F00S00C5.0000
;TYPE=NON_PLATED
T07F00S00C1.8000
%
T01
X00123Y-00134
X00123Y-0011725
X00123Y-001005
X00123Y-0008375
X00123Y-00067
X00123Y-0005025
X00123Y-000335
X00123Y-0001675
X00123Y0
X0014
X0014Y-0001675
X0014Y-000335
X0014Y-0005025
X0014Y-00067
X0014Y-0008375
X0014Y-001005
X0014Y-0011725
X0014Y-00134
X0010625
X000895
X0007275
X00056
X0003925
X000225
X0000575
X-00011
X-00011Y-0011725
X0000575
X000225
X0003925
X00056
X0007275
X000895
X0010625
X0010625Y-001005
X000895
X0007275
X00056
X0003925
X000225
X0000575
X-00011
X-00011Y-0008375
X0000575
X000225
X0003925
X00056
X0007275
X000895
X0010625
X0010625Y-00067
X000895
X0007275
X00056
X0003925
X000225
X0000575
X-00011
X-00011Y-0005025
X0000575
X000225
X0003925
X00056
X0007275
X000895
X0010625
X0010625Y-000335
X000895
X0007275
X00056
X0003925
X000225
X0000575
X-00011
X-00011Y-0001675
X0000575
X000225
X0003925
X00056
X0007275
X000895
X0010625
X0010625Y0
X000895
X0007275
X00056
X0003925
X000225
X0000575
X-00011
X-00028
X-0004475
X-000615
X-0007825
X-00095
X-0011175
X-0011175Y-0001675
X-00095
X-0007825
X-000615
X-0004475
X-00028
X-00028Y-000335
X-0004475
X-000615
X-0007825
X-00095
X-0011175
X-0011175Y-0005025
X-00095
X-0007825
X-000615
X-0004475
X-00028
X-00028Y-00067
X-0004475
X-000615
X-0007825
X-00095
X-0011175
X-0011175Y-0008375
X-00095
X-0007825
X-000615
X-0004475
X-00028
X-00028Y-001005
X-0004475
X-000615
X-0007825
X-00095
X-0011175
X-0011175Y-0011725
X-00095
X-0007825
X-000615
X-0004475
X-00028
X-00028Y-00134
X-0004475
X-000615
X-0007825
X-00095
X-0011175
X-0012875
X-001455
X-0016225
X-00179
X-0019575
X-002125
X-0022925
X-00246
X-00246Y-0011725
X-0022925
X-002125
X-0019575
X-00179
X-0016225
X-001455
X-0012875
X-0012875Y-001005
X-001455
X-0016225
X-00179
X-0019575
X-0019575Y-0008375
X-00179
X-0016225
X-001455
X-0012875
X-0012875Y-00067
X-001455
X-0016225
X-0016225Y-0005025
X-001455
X-0012875
X-0012875Y-000335
X-001455
X-0016225
X-0016225Y-0001675
X-001455
X-0012875
X-0012875Y0
X-001455
X-0016225
X-00179Y-0001675
X-0019575
X-0019575Y-0005025
X-00179
X-00246
X-00246Y-0008375
X-00246Y-0001675
X-00304097Y00033747
X-00301212Y0006715
X-0033325Y00079725
X-00324Y0011025
X-00305512Y00128299
Y00148349
X-00287478Y00094907
X-002125Y001005
X-0019575
X-00179
X-0016225
X-001455
X-0012875
X-0012875Y0011725
X-001455
X-0016225
X-00179
X-0019575
X-002125
X-002125Y00134
X-0022925
X-00246
X-0019575
X-00179
X-0016225
X-001455
X-0012875
X-0011175
X-00095
X-0007825
X-000615
X-0004475
X-00028
X-00028Y0011725
X-0004475
X-000615
X-0007825
X-00095
X-0011175
X-0011175Y001005
X-00095
X-0007825
X-000615
X-0004475
X-00028
X-00028Y0008375
X-0004475
X-000615
X-0007825
X-00095
X-0011175
X-0011175Y00067
X-00095
X-0007825
X-000615
X-0004475
X-00028
X-00028Y0005025
X-0004475
X-000615
X-0007825
X-00095
X-0011175
X-0011175Y000335
X-00095
X-0007825
X-000615
X-0004475
X-00028
X-00028Y0001675
X-0004475
X-000615
X-0007825
X-00095
X-0011175
X-0012875
X-001455
X-0016225
X-0016225Y000335
X-001455
X-0012875
X-0012875Y0005025
X-001455
X-0016225
X-00179
X-0019575
X-0019575Y00067
X-002125
X-002125Y0008375
X-0019575
X-00179
X-0016225
X-001455
X-0012875
X-0012875Y00067
X-001455
X-0016225
X-00179
X-00246Y0005025
X-00246Y0001675
X-00011
X0000575
X000225
X0003925
X00056
X0007275
X000895
X0010625
X0010625Y000335
X000895
X0007275
X00056
X0003925
X000225
X0000575
X-00011
X-00011Y0005025
X0000575
X000225
X0003925
X00056
X0007275
X000895
X0010625
X0010625Y00067
X000895
X0007275
X00056
X0003925
X000225
X0000575
X-00011
X-00011Y0008375
X0000575
X000225
X0003925
X00056
X0007275
X000895
X0010625
X0010625Y001005
X000895
X0007275
X00056
X0003925
X000225
X0000575
X-00011
X-00011Y0011725
X0000575
X000225
X0003925
X00056
X0007275
X000895
X0010625
X0010625Y00134
X000895
X0007275
X00056
X0003925
X000225
X0000575
X-00011
X00123
X00123Y0011725
X00123Y001005
X00123Y0008375
X00123Y00067
X00123Y0005025
X00123Y000335
X00123Y0001675
X0014
X0014Y000335
X0014Y0005025
X0014Y00067
X0014Y0008375
X0014Y001005
X0014Y0011725
X0014Y00134
T02
X-00291778Y-00114151
T03
X-0035825Y-0002975
Y-0002125
Y-0001275
Y-0000425
Y0000425
X-0034475
Y-0000425
Y-0001275
Y-0002125
Y-0002975
Y0001275
Y0002125
Y0002975
X-0035825
Y0002125
Y0001275
T05
X-00352Y000833
Y001087
T06
X00204Y0
T07
X00365249Y-00042501
Y00037999
M30
