G04*
G04 #@! TF.GenerationSoftware,Altium Limited,Altium Designer,25.5.2 (35)*
G04*
G04 Layer_Color=255*
%FSLAX44Y44*%
%MOMM*%
G71*
G04*
G04 #@! TF.SameCoordinates,2B58446A-7EB2-4CA3-8779-5F23494D5F83*
G04*
G04*
G04 #@! TF.FilePolarity,Positive*
G04*
G01*
G75*
G04:AMPARAMS|DCode=12|XSize=1.2mm|YSize=1.2mm|CornerRadius=0.05mm|HoleSize=0mm|Usage=FLASHONLY|Rotation=90.000|XOffset=0mm|YOffset=0mm|HoleType=Round|Shape=RoundedRectangle|*
%AMROUNDEDRECTD12*
21,1,1.2000,1.1000,0,0,90.0*
21,1,1.1000,1.2000,0,0,90.0*
1,1,0.1000,0.5500,0.5500*
1,1,0.1000,0.5500,-0.5500*
1,1,0.1000,-0.5500,-0.5500*
1,1,0.1000,-0.5500,0.5500*
%
%ADD12ROUNDEDRECTD12*%
G04:AMPARAMS|DCode=13|XSize=1.6mm|YSize=1.5mm|CornerRadius=0.05mm|HoleSize=0mm|Usage=FLASHONLY|Rotation=0.000|XOffset=0mm|YOffset=0mm|HoleType=Round|Shape=RoundedRectangle|*
%AMROUNDEDRECTD13*
21,1,1.6000,1.4000,0,0,0.0*
21,1,1.5000,1.5000,0,0,0.0*
1,1,0.1000,0.7500,-0.7000*
1,1,0.1000,-0.7500,-0.7000*
1,1,0.1000,-0.7500,0.7000*
1,1,0.1000,0.7500,0.7000*
%
%ADD13ROUNDEDRECTD13*%
G04:AMPARAMS|DCode=14|XSize=0.72mm|YSize=0.99mm|CornerRadius=0.09mm|HoleSize=0mm|Usage=FLASHONLY|Rotation=90.000|XOffset=0mm|YOffset=0mm|HoleType=Round|Shape=RoundedRectangle|*
%AMROUNDEDRECTD14*
21,1,0.7200,0.8100,0,0,90.0*
21,1,0.5400,0.9900,0,0,90.0*
1,1,0.1800,0.4050,0.2700*
1,1,0.1800,0.4050,-0.2700*
1,1,0.1800,-0.4050,-0.2700*
1,1,0.1800,-0.4050,0.2700*
%
%ADD14ROUNDEDRECTD14*%
G04:AMPARAMS|DCode=15|XSize=2.54mm|YSize=1.524mm|CornerRadius=0.1905mm|HoleSize=0mm|Usage=FLASHONLY|Rotation=270.000|XOffset=0mm|YOffset=0mm|HoleType=Round|Shape=RoundedRectangle|*
%AMROUNDEDRECTD15*
21,1,2.5400,1.1430,0,0,270.0*
21,1,2.1590,1.5240,0,0,270.0*
1,1,0.3810,-0.5715,-1.0795*
1,1,0.3810,-0.5715,1.0795*
1,1,0.3810,0.5715,1.0795*
1,1,0.3810,0.5715,-1.0795*
%
%ADD15ROUNDEDRECTD15*%
G04:AMPARAMS|DCode=16|XSize=1.524mm|YSize=1.524mm|CornerRadius=0.1905mm|HoleSize=0mm|Usage=FLASHONLY|Rotation=180.000|XOffset=0mm|YOffset=0mm|HoleType=Round|Shape=RoundedRectangle|*
%AMROUNDEDRECTD16*
21,1,1.5240,1.1430,0,0,180.0*
21,1,1.1430,1.5240,0,0,180.0*
1,1,0.3810,-0.5715,0.5715*
1,1,0.3810,0.5715,0.5715*
1,1,0.3810,0.5715,-0.5715*
1,1,0.3810,-0.5715,-0.5715*
%
%ADD16ROUNDEDRECTD16*%
G04:AMPARAMS|DCode=17|XSize=1.4mm|YSize=1.05mm|CornerRadius=0.1313mm|HoleSize=0mm|Usage=FLASHONLY|Rotation=90.000|XOffset=0mm|YOffset=0mm|HoleType=Round|Shape=RoundedRectangle|*
%AMROUNDEDRECTD17*
21,1,1.4000,0.7875,0,0,90.0*
21,1,1.1375,1.0500,0,0,90.0*
1,1,0.2625,0.3938,0.5688*
1,1,0.2625,0.3938,-0.5688*
1,1,0.2625,-0.3938,-0.5688*
1,1,0.2625,-0.3938,0.5688*
%
%ADD17ROUNDEDRECTD17*%
G04:AMPARAMS|DCode=18|XSize=0.72mm|YSize=0.99mm|CornerRadius=0.09mm|HoleSize=0mm|Usage=FLASHONLY|Rotation=0.000|XOffset=0mm|YOffset=0mm|HoleType=Round|Shape=RoundedRectangle|*
%AMROUNDEDRECTD18*
21,1,0.7200,0.8100,0,0,0.0*
21,1,0.5400,0.9900,0,0,0.0*
1,1,0.1800,0.2700,-0.4050*
1,1,0.1800,-0.2700,-0.4050*
1,1,0.1800,-0.2700,0.4050*
1,1,0.1800,0.2700,0.4050*
%
%ADD18ROUNDEDRECTD18*%
G04:AMPARAMS|DCode=35|XSize=0.9mm|YSize=1.7mm|CornerRadius=0.45mm|HoleSize=0mm|Usage=FLASHONLY|Rotation=270.000|XOffset=0mm|YOffset=0mm|HoleType=Round|Shape=RoundedRectangle|*
%AMROUNDEDRECTD35*
21,1,0.9000,0.8000,0,0,270.0*
21,1,0.0000,1.7000,0,0,270.0*
1,1,0.9000,-0.4000,0.0000*
1,1,0.9000,-0.4000,0.0000*
1,1,0.9000,0.4000,0.0000*
1,1,0.9000,0.4000,0.0000*
%
%ADD35ROUNDEDRECTD35*%
G04:AMPARAMS|DCode=36|XSize=0.9mm|YSize=2.4mm|CornerRadius=0.45mm|HoleSize=0mm|Usage=FLASHONLY|Rotation=270.000|XOffset=0mm|YOffset=0mm|HoleType=Round|Shape=RoundedRectangle|*
%AMROUNDEDRECTD36*
21,1,0.9000,1.5000,0,0,270.0*
21,1,0.0000,2.4000,0,0,270.0*
1,1,0.9000,-0.7500,0.0000*
1,1,0.9000,-0.7500,0.0000*
1,1,0.9000,0.7500,0.0000*
1,1,0.9000,0.7500,0.0000*
%
%ADD36ROUNDEDRECTD36*%
%ADD37C,0.6500*%
%ADD39C,2.5000*%
%ADD42C,1.5000*%
%ADD43C,6.0000*%
D12*
X162500Y52250D02*
D03*
X182500D02*
D03*
X-295512Y79207D02*
D03*
X-315512Y79207D02*
D03*
D13*
X172500Y84750D02*
D03*
X-305512Y111707D02*
D03*
D14*
X162250Y13650D02*
D03*
Y-150D02*
D03*
X204000Y-76900D02*
D03*
Y-63100D02*
D03*
D15*
X251244Y0D02*
D03*
D16*
X204000Y-48260D02*
D03*
D17*
X-273378Y-131000D02*
D03*
X-292378D02*
D03*
X232500Y30000D02*
D03*
X251500D02*
D03*
X232500Y-30000D02*
D03*
X251500D02*
D03*
D18*
X-343100Y-60000D02*
D03*
X-356900D02*
D03*
X-343100Y60000D02*
D03*
X-356900D02*
D03*
D35*
X-388350Y43250D02*
D03*
Y-43250D02*
D03*
D36*
X-354550Y43250D02*
D03*
Y-43250D02*
D03*
D37*
X-344750Y29750D02*
D03*
Y21250D02*
D03*
Y12750D02*
D03*
Y4250D02*
D03*
Y-4250D02*
D03*
Y-12750D02*
D03*
Y-21250D02*
D03*
Y-29750D02*
D03*
X-358250D02*
D03*
Y-21250D02*
D03*
Y-12750D02*
D03*
Y-4250D02*
D03*
Y4250D02*
D03*
Y12750D02*
D03*
Y21250D02*
D03*
Y29750D02*
D03*
D39*
X-357206Y-131000D02*
D03*
X-321763D02*
D03*
X365249Y37999D02*
D03*
Y-42501D02*
D03*
D42*
X-352000Y108700D02*
D03*
Y83300D02*
D03*
D43*
X204000Y0D02*
D03*
M02*
