G04*
G04 #@! TF.GenerationSoftware,Altium Limited,Altium Designer,25.5.2 (35)*
G04*
G04 Layer_Color=16711935*
%FSLAX44Y44*%
%MOMM*%
G71*
G04*
G04 #@! TF.SameCoordinates,2B58446A-7EB2-4CA3-8779-5F23494D5F83*
G04*
G04*
G04 #@! TF.FilePolarity,Positive*
G04*
G01*
G75*
%ADD54C,0.0500*%
D54*
X412250Y113000D02*
G03*
X412000Y113250I-250J0D01*
G01*
X412250Y113000D02*
G03*
X412000Y113250I-250J0D01*
G01*
X398250Y193000D02*
G03*
X398000Y193250I-250J0D01*
G01*
X398250Y193000D02*
G03*
X398000Y193250I-250J0D01*
G01*
X412000Y-113250D02*
G03*
X412250Y-113000I0J250D01*
G01*
X412000Y-113250D02*
G03*
X412250Y-113000I0J250D01*
G01*
X398000Y-193250D02*
G03*
X398250Y-193000I0J250D01*
G01*
X398000Y-193250D02*
G03*
X398250Y-193000I0J250D01*
G01*
X-398000Y193250D02*
G03*
X-398250Y193000I0J-250D01*
G01*
X-398000Y193250D02*
G03*
X-398250Y193000I0J-250D01*
G01*
X-412000Y113250D02*
G03*
X-412250Y113000I0J-250D01*
G01*
X-412000Y113250D02*
G03*
X-412250Y113000I0J-250D01*
G01*
X-398250Y-193000D02*
G03*
X-398000Y-193250I250J0D01*
G01*
X-412250Y-113000D02*
G03*
X-412000Y-113250I250J0D01*
G01*
X-398250Y-193000D02*
G03*
X-398000Y-193250I250J0D01*
G01*
X-412250Y-113000D02*
G03*
X-412000Y-113250I250J0D01*
G01*
X398250Y113250D02*
X412000D01*
X398250D02*
Y193000D01*
X412250Y-113000D02*
Y113000D01*
X398250Y-113250D02*
X412000D01*
X398250Y-193000D02*
Y-113250D01*
X-398000Y193250D02*
X398000D01*
X-412000Y113250D02*
X-398250D01*
Y193000D01*
X-398000Y-193250D02*
X398000D01*
X-398250Y-193000D02*
Y-113250D01*
X-412250Y-113000D02*
Y113000D01*
X-412000Y-113250D02*
X-398250D01*
M02*
