G04*
G04 #@! TF.GenerationSoftware,Altium Limited,Altium Designer,25.8.1 (18)*
G04*
G04 Layer_Color=65535*
%FSLAX44Y44*%
%MOMM*%
G71*
G04*
G04 #@! TF.SameCoordinates,327828DF-0DB9-4246-8E8B-F53C81CF52F2*
G04*
G04*
G04 #@! TF.FilePolarity,Positive*
G04*
G01*
G75*
%ADD10C,0.1500*%
G36*
X-125398Y-69479D02*
X-125276Y-69496D01*
X-125034Y-69548D01*
X-124930Y-69617D01*
X-124825Y-69687D01*
X-124808Y-69704D01*
X-124791Y-69721D01*
X-124756Y-69791D01*
X-124704Y-69860D01*
X-124669Y-69964D01*
X-124635Y-70103D01*
X-124617Y-70259D01*
X-124600Y-70450D01*
Y-70467D01*
Y-70537D01*
X-124617Y-70641D01*
X-124635Y-70762D01*
X-124704Y-71005D01*
X-124756Y-71127D01*
X-124843Y-71231D01*
X-124860Y-71248D01*
X-124878Y-71266D01*
X-124947Y-71300D01*
X-125016Y-71335D01*
X-125120Y-71387D01*
X-125259Y-71422D01*
X-125415Y-71439D01*
X-125589Y-71456D01*
X-125675D01*
X-125762Y-71439D01*
X-125884Y-71422D01*
X-126127Y-71370D01*
X-126231Y-71318D01*
X-126335Y-71248D01*
Y-71231D01*
X-126369Y-71196D01*
X-126404Y-71144D01*
X-126439Y-71057D01*
X-126474Y-70953D01*
X-126508Y-70814D01*
X-126526Y-70658D01*
X-126543Y-70467D01*
Y-70450D01*
Y-70381D01*
X-126526Y-70277D01*
X-126508Y-70155D01*
X-126456Y-69895D01*
X-126404Y-69791D01*
X-126335Y-69687D01*
X-126317Y-69669D01*
X-126283Y-69652D01*
X-126231Y-69617D01*
X-126161Y-69565D01*
X-126057Y-69531D01*
X-125918Y-69496D01*
X-125762Y-69479D01*
X-125571Y-69461D01*
X-125485D01*
X-125398Y-69479D01*
D02*
G37*
G36*
X12798Y-69479D02*
X13006Y-69496D01*
X13232Y-69513D01*
X13700Y-69600D01*
X13735D01*
X13804Y-69617D01*
X13925Y-69652D01*
X14082Y-69687D01*
X14255Y-69739D01*
X14446Y-69791D01*
X14845Y-69930D01*
X14862D01*
X14932Y-69964D01*
X15036Y-69999D01*
X15157Y-70051D01*
X15435Y-70190D01*
X15712Y-70346D01*
X15730Y-70363D01*
X15764Y-70381D01*
X15834Y-70433D01*
X15920Y-70485D01*
X16077Y-70606D01*
X16146Y-70658D01*
X16215Y-70728D01*
X16233Y-70745D01*
X16302Y-70814D01*
X16372Y-70918D01*
X16424Y-71023D01*
X16441Y-71057D01*
X16458Y-71127D01*
X16476Y-71248D01*
X16493Y-71422D01*
Y-71439D01*
Y-71491D01*
X16476Y-71578D01*
X16458Y-71682D01*
Y-71699D01*
X16441Y-71768D01*
X16424Y-71855D01*
X16389Y-71942D01*
X16372Y-71959D01*
X16354Y-71994D01*
X16302Y-72063D01*
X16233Y-72116D01*
X16215Y-72133D01*
X16163Y-72150D01*
X16094Y-72168D01*
X16007Y-72185D01*
X15972D01*
X15868Y-72150D01*
X15730Y-72098D01*
X15625Y-72046D01*
X15522Y-71977D01*
X15504Y-71959D01*
X15469Y-71942D01*
X15417Y-71907D01*
X15331Y-71838D01*
X15227Y-71786D01*
X15105Y-71716D01*
X14966Y-71630D01*
X14810Y-71560D01*
X14793Y-71543D01*
X14741Y-71526D01*
X14637Y-71474D01*
X14515Y-71422D01*
X14359Y-71352D01*
X14186Y-71283D01*
X13978Y-71213D01*
X13752Y-71144D01*
X13717Y-71127D01*
X13648Y-71109D01*
X13509Y-71075D01*
X13336Y-71040D01*
X13110Y-71005D01*
X12867Y-70971D01*
X12590Y-70936D01*
X12104D01*
X12000Y-70953D01*
X11896D01*
X11636Y-70988D01*
X11341Y-71040D01*
X11011Y-71109D01*
X10699Y-71196D01*
X10369Y-71335D01*
X10352D01*
X10334Y-71352D01*
X10230Y-71404D01*
X10074Y-71491D01*
X9883Y-71612D01*
X9658Y-71768D01*
X9415Y-71959D01*
X9172Y-72185D01*
X8946Y-72428D01*
X8929Y-72463D01*
X8860Y-72549D01*
X8756Y-72705D01*
X8617Y-72896D01*
X8478Y-73139D01*
X8339Y-73417D01*
X8183Y-73729D01*
X8062Y-74076D01*
Y-74093D01*
X8044Y-74111D01*
X8027Y-74163D01*
X8010Y-74249D01*
X7992Y-74336D01*
X7975Y-74440D01*
X7923Y-74700D01*
X7854Y-74995D01*
X7819Y-75360D01*
X7784Y-75741D01*
X7767Y-76158D01*
Y-76175D01*
Y-76210D01*
Y-76279D01*
Y-76366D01*
X7784Y-76470D01*
Y-76609D01*
X7819Y-76904D01*
X7854Y-77251D01*
X7906Y-77615D01*
X7992Y-77997D01*
X8114Y-78378D01*
Y-78396D01*
X8131Y-78413D01*
X8148Y-78465D01*
X8183Y-78534D01*
X8253Y-78725D01*
X8357Y-78951D01*
X8495Y-79211D01*
X8669Y-79471D01*
X8860Y-79749D01*
X9068Y-80009D01*
X9103Y-80044D01*
X9172Y-80113D01*
X9311Y-80234D01*
X9484Y-80373D01*
X9693Y-80547D01*
X9935Y-80703D01*
X10213Y-80876D01*
X10525Y-81015D01*
X10543D01*
X10560Y-81032D01*
X10612Y-81050D01*
X10681Y-81067D01*
X10855Y-81119D01*
X11080Y-81171D01*
X11358Y-81241D01*
X11670Y-81293D01*
X12017Y-81327D01*
X12381Y-81345D01*
X12486D01*
X12624Y-81327D01*
X12780D01*
X12989Y-81310D01*
X13197Y-81275D01*
X13683Y-81189D01*
X13717D01*
X13804Y-81154D01*
X13925Y-81119D01*
X14082Y-81084D01*
X14272Y-81015D01*
X14463Y-80946D01*
X14654Y-80859D01*
X14845Y-80772D01*
Y-76973D01*
X11774D01*
X11670Y-76938D01*
X11531Y-76886D01*
X11462Y-76834D01*
X11410Y-76765D01*
Y-76747D01*
X11393Y-76730D01*
X11358Y-76626D01*
X11323Y-76453D01*
X11306Y-76244D01*
Y-76210D01*
Y-76158D01*
Y-76054D01*
X11323Y-75967D01*
Y-75950D01*
X11341Y-75880D01*
X11358Y-75811D01*
X11393Y-75741D01*
X11410Y-75724D01*
X11445Y-75672D01*
X11497Y-75620D01*
X11566Y-75568D01*
X11583Y-75550D01*
X11636Y-75533D01*
X11722Y-75516D01*
X11826Y-75498D01*
X15764D01*
X15851Y-75516D01*
X15938Y-75550D01*
X15955D01*
X16025Y-75585D01*
X16111Y-75620D01*
X16198Y-75689D01*
X16215Y-75707D01*
X16267Y-75759D01*
X16337Y-75845D01*
X16389Y-75950D01*
X16406Y-75984D01*
X16424Y-76054D01*
X16441Y-76175D01*
X16458Y-76314D01*
Y-81032D01*
Y-81050D01*
Y-81084D01*
Y-81137D01*
X16441Y-81206D01*
X16424Y-81362D01*
X16354Y-81536D01*
Y-81553D01*
X16337Y-81570D01*
X16267Y-81657D01*
X16129Y-81778D01*
X16042Y-81848D01*
X15938Y-81917D01*
X15920D01*
X15886Y-81952D01*
X15816Y-81987D01*
X15730Y-82021D01*
X15625Y-82073D01*
X15504Y-82143D01*
X15348Y-82212D01*
X15192Y-82282D01*
X15174D01*
X15122Y-82316D01*
X15036Y-82351D01*
X14914Y-82386D01*
X14776Y-82438D01*
X14619Y-82472D01*
X14255Y-82577D01*
X14238D01*
X14168Y-82594D01*
X14082Y-82611D01*
X13960Y-82646D01*
X13804Y-82681D01*
X13648Y-82715D01*
X13283Y-82767D01*
X13266D01*
X13197Y-82785D01*
X13110D01*
X12989Y-82802D01*
X12850Y-82819D01*
X12676D01*
X12329Y-82837D01*
X12086D01*
X11948Y-82819D01*
X11792D01*
X11618Y-82802D01*
X11445Y-82785D01*
X11028Y-82715D01*
X10577Y-82646D01*
X10126Y-82524D01*
X9675Y-82368D01*
X9658D01*
X9623Y-82351D01*
X9571Y-82316D01*
X9484Y-82282D01*
X9380Y-82229D01*
X9259Y-82160D01*
X8999Y-82021D01*
X8686Y-81831D01*
X8357Y-81588D01*
X8010Y-81327D01*
X7697Y-81015D01*
X7680Y-80998D01*
X7663Y-80981D01*
X7628Y-80928D01*
X7559Y-80859D01*
X7489Y-80772D01*
X7420Y-80668D01*
X7246Y-80425D01*
X7038Y-80113D01*
X6830Y-79766D01*
X6639Y-79367D01*
X6466Y-78933D01*
Y-78916D01*
X6448Y-78881D01*
X6431Y-78812D01*
X6396Y-78725D01*
X6362Y-78604D01*
X6327Y-78465D01*
X6292Y-78309D01*
X6258Y-78135D01*
X6188Y-77754D01*
X6119Y-77285D01*
X6067Y-76800D01*
X6049Y-76262D01*
Y-76244D01*
Y-76192D01*
Y-76106D01*
Y-76002D01*
X6067Y-75863D01*
Y-75707D01*
X6084Y-75533D01*
X6101Y-75342D01*
X6153Y-74909D01*
X6240Y-74458D01*
X6344Y-73972D01*
X6500Y-73503D01*
Y-73486D01*
X6518Y-73451D01*
X6552Y-73382D01*
X6587Y-73295D01*
X6639Y-73191D01*
X6691Y-73052D01*
X6830Y-72775D01*
X7021Y-72428D01*
X7229Y-72081D01*
X7489Y-71716D01*
X7784Y-71370D01*
X7801Y-71352D01*
X7819Y-71335D01*
X7871Y-71283D01*
X7940Y-71213D01*
X8114Y-71057D01*
X8357Y-70849D01*
X8652Y-70624D01*
X8999Y-70398D01*
X9380Y-70173D01*
X9797Y-69964D01*
X9814D01*
X9849Y-69947D01*
X9918Y-69912D01*
X10005Y-69878D01*
X10109Y-69843D01*
X10248Y-69808D01*
X10386Y-69756D01*
X10560Y-69704D01*
X10941Y-69617D01*
X11375Y-69531D01*
X11861Y-69479D01*
X12364Y-69461D01*
X12624D01*
X12798Y-69479D01*
D02*
G37*
G36*
X-48719Y-68698D02*
X-48615Y-68715D01*
X-48597D01*
X-48528Y-68733D01*
X-48459Y-68750D01*
X-48372Y-68785D01*
X-48355Y-68802D01*
X-48303Y-68819D01*
X-48250Y-68871D01*
X-48198Y-68941D01*
X-48181Y-68958D01*
X-48164Y-68993D01*
X-48146Y-69062D01*
X-48129Y-69132D01*
Y-82299D01*
Y-82316D01*
Y-82368D01*
X-48164Y-82438D01*
X-48198Y-82524D01*
X-48216Y-82542D01*
X-48233Y-82577D01*
X-48285Y-82628D01*
X-48355Y-82681D01*
X-48372D01*
X-48424Y-82698D01*
X-48493Y-82715D01*
X-48580Y-82733D01*
X-48650D01*
X-48736Y-82750D01*
X-49066D01*
X-49170Y-82733D01*
X-49187D01*
X-49239Y-82715D01*
X-49309Y-82698D01*
X-49395Y-82681D01*
X-49413Y-82663D01*
X-49448Y-82646D01*
X-49552Y-82542D01*
X-49569Y-82524D01*
X-49586Y-82472D01*
X-49604Y-82403D01*
X-49621Y-82299D01*
Y-81241D01*
X-49638Y-81275D01*
X-49690Y-81362D01*
X-49777Y-81501D01*
X-49916Y-81657D01*
X-50072Y-81848D01*
X-50280Y-82039D01*
X-50523Y-82247D01*
X-50801Y-82420D01*
X-50835Y-82438D01*
X-50939Y-82490D01*
X-51096Y-82559D01*
X-51304Y-82646D01*
X-51564Y-82733D01*
X-51859Y-82802D01*
X-52189Y-82854D01*
X-52536Y-82871D01*
X-52709D01*
X-52900Y-82854D01*
X-53125Y-82819D01*
X-53403Y-82785D01*
X-53698Y-82715D01*
X-53993Y-82611D01*
X-54270Y-82490D01*
X-54305Y-82472D01*
X-54392Y-82420D01*
X-54513Y-82334D01*
X-54687Y-82212D01*
X-54860Y-82056D01*
X-55068Y-81865D01*
X-55259Y-81657D01*
X-55433Y-81414D01*
X-55450Y-81379D01*
X-55502Y-81293D01*
X-55589Y-81154D01*
X-55676Y-80963D01*
X-55797Y-80738D01*
X-55901Y-80477D01*
X-56005Y-80165D01*
X-56092Y-79853D01*
Y-79836D01*
Y-79818D01*
X-56109Y-79766D01*
X-56127Y-79697D01*
X-56144Y-79523D01*
X-56179Y-79280D01*
X-56213Y-79003D01*
X-56248Y-78691D01*
X-56265Y-78344D01*
X-56283Y-77979D01*
Y-77962D01*
Y-77927D01*
Y-77875D01*
Y-77788D01*
Y-77684D01*
X-56265Y-77563D01*
X-56248Y-77285D01*
X-56231Y-76973D01*
X-56179Y-76609D01*
X-56127Y-76262D01*
X-56040Y-75897D01*
Y-75880D01*
X-56023Y-75863D01*
X-56005Y-75811D01*
X-55988Y-75741D01*
X-55936Y-75568D01*
X-55849Y-75342D01*
X-55745Y-75099D01*
X-55606Y-74822D01*
X-55450Y-74562D01*
X-55276Y-74301D01*
X-55259Y-74267D01*
X-55190Y-74197D01*
X-55086Y-74076D01*
X-54930Y-73920D01*
X-54756Y-73746D01*
X-54531Y-73573D01*
X-54288Y-73417D01*
X-54028Y-73260D01*
X-54010D01*
X-53993Y-73243D01*
X-53889Y-73208D01*
X-53733Y-73139D01*
X-53524Y-73070D01*
X-53264Y-73000D01*
X-52969Y-72931D01*
X-52640Y-72896D01*
X-52293Y-72879D01*
X-52154D01*
X-51980Y-72896D01*
X-51772Y-72931D01*
X-51529Y-72966D01*
X-51269Y-73035D01*
X-51009Y-73139D01*
X-50731Y-73260D01*
X-50697Y-73278D01*
X-50610Y-73330D01*
X-50488Y-73417D01*
X-50332Y-73538D01*
X-50176Y-73677D01*
X-50003Y-73850D01*
X-49847Y-74058D01*
X-49708Y-74284D01*
Y-69132D01*
Y-69114D01*
Y-69062D01*
X-49673Y-68941D01*
X-49656Y-68924D01*
X-49638Y-68889D01*
X-49569Y-68837D01*
X-49500Y-68785D01*
X-49482Y-68767D01*
X-49430Y-68750D01*
X-49344Y-68733D01*
X-49257Y-68715D01*
X-49239D01*
X-49170Y-68698D01*
X-49066Y-68681D01*
X-48823D01*
X-48719Y-68698D01*
D02*
G37*
G36*
X33841Y-72896D02*
X34049Y-72913D01*
X34292Y-72966D01*
X34552Y-73018D01*
X34830Y-73104D01*
X35073Y-73208D01*
X35108Y-73226D01*
X35177Y-73260D01*
X35298Y-73330D01*
X35437Y-73434D01*
X35611Y-73555D01*
X35784Y-73694D01*
X35958Y-73868D01*
X36114Y-74058D01*
X36131Y-74076D01*
X36183Y-74145D01*
X36253Y-74267D01*
X36339Y-74405D01*
X36426Y-74596D01*
X36530Y-74805D01*
X36617Y-75030D01*
X36686Y-75290D01*
Y-75325D01*
X36721Y-75412D01*
X36738Y-75568D01*
X36773Y-75759D01*
X36808Y-76002D01*
X36825Y-76279D01*
X36860Y-76591D01*
Y-76938D01*
Y-82299D01*
Y-82316D01*
Y-82368D01*
X36825Y-82438D01*
X36790Y-82507D01*
X36773Y-82524D01*
X36738Y-82559D01*
X36686Y-82611D01*
X36617Y-82663D01*
X36600D01*
X36548Y-82681D01*
X36478Y-82698D01*
X36391Y-82715D01*
X36374D01*
X36305Y-82733D01*
X36200Y-82750D01*
X35940D01*
X35836Y-82733D01*
X35732Y-82715D01*
X35715D01*
X35663Y-82698D01*
X35593Y-82681D01*
X35507Y-82663D01*
X35489Y-82646D01*
X35454Y-82628D01*
X35333Y-82524D01*
Y-82507D01*
X35316Y-82455D01*
X35298Y-82386D01*
X35281Y-82299D01*
Y-77042D01*
Y-77025D01*
Y-77008D01*
Y-76904D01*
Y-76765D01*
X35264Y-76591D01*
X35246Y-76383D01*
X35229Y-76175D01*
X35194Y-75967D01*
X35142Y-75776D01*
Y-75759D01*
X35125Y-75689D01*
X35090Y-75602D01*
X35055Y-75481D01*
X34951Y-75203D01*
X34795Y-74943D01*
X34778Y-74926D01*
X34761Y-74891D01*
X34709Y-74822D01*
X34639Y-74752D01*
X34448Y-74596D01*
X34206Y-74440D01*
X34188Y-74423D01*
X34136Y-74405D01*
X34067Y-74371D01*
X33980Y-74336D01*
X33858Y-74301D01*
X33720Y-74284D01*
X33564Y-74249D01*
X33286D01*
X33165Y-74267D01*
X33008Y-74301D01*
X32818Y-74371D01*
X32609Y-74440D01*
X32384Y-74562D01*
X32141Y-74718D01*
X32106Y-74735D01*
X32037Y-74805D01*
X31898Y-74909D01*
X31742Y-75047D01*
X31534Y-75238D01*
X31308Y-75464D01*
X31065Y-75724D01*
X30823Y-76019D01*
Y-82299D01*
Y-82316D01*
Y-82368D01*
X30788Y-82438D01*
X30753Y-82507D01*
X30736Y-82524D01*
X30701Y-82559D01*
X30649Y-82611D01*
X30580Y-82663D01*
X30562D01*
X30510Y-82681D01*
X30441Y-82698D01*
X30354Y-82715D01*
X30337D01*
X30267Y-82733D01*
X30163Y-82750D01*
X29903D01*
X29799Y-82733D01*
X29695Y-82715D01*
X29678D01*
X29625Y-82698D01*
X29539Y-82681D01*
X29452Y-82663D01*
X29435Y-82646D01*
X29383Y-82628D01*
X29331Y-82577D01*
X29279Y-82507D01*
Y-82490D01*
X29261Y-82438D01*
X29244Y-82368D01*
Y-82299D01*
Y-73434D01*
Y-73417D01*
Y-73365D01*
X29279Y-73243D01*
X29296Y-73226D01*
X29313Y-73191D01*
X29365Y-73139D01*
X29435Y-73087D01*
X29452Y-73070D01*
X29504Y-73052D01*
X29591Y-73035D01*
X29678Y-73018D01*
X29695D01*
X29764Y-73000D01*
X29868Y-72983D01*
X30111D01*
X30198Y-73000D01*
X30302Y-73018D01*
X30337D01*
X30389Y-73035D01*
X30476Y-73052D01*
X30562Y-73104D01*
X30580Y-73122D01*
X30614Y-73139D01*
X30666Y-73191D01*
X30701Y-73260D01*
X30719Y-73278D01*
X30736Y-73313D01*
X30753Y-73365D01*
Y-73434D01*
Y-74458D01*
X30770Y-74440D01*
X30823Y-74353D01*
X30927Y-74215D01*
X31065Y-74041D01*
X31222Y-73850D01*
X31430Y-73642D01*
X31673Y-73451D01*
X31950Y-73295D01*
X31968D01*
X31985Y-73278D01*
X32089Y-73226D01*
X32245Y-73156D01*
X32436Y-73087D01*
X32679Y-73018D01*
X32939Y-72948D01*
X33217Y-72896D01*
X33512Y-72879D01*
X33668D01*
X33841Y-72896D01*
D02*
G37*
G36*
X-61539Y-72896D02*
X-61331Y-72913D01*
X-61088Y-72966D01*
X-60828Y-73018D01*
X-60550Y-73104D01*
X-60307Y-73208D01*
X-60273Y-73226D01*
X-60203Y-73260D01*
X-60082Y-73330D01*
X-59943Y-73434D01*
X-59770Y-73555D01*
X-59596Y-73694D01*
X-59423Y-73868D01*
X-59267Y-74058D01*
X-59249Y-74076D01*
X-59197Y-74145D01*
X-59128Y-74267D01*
X-59041Y-74405D01*
X-58954Y-74596D01*
X-58850Y-74805D01*
X-58763Y-75030D01*
X-58694Y-75290D01*
Y-75325D01*
X-58659Y-75412D01*
X-58642Y-75568D01*
X-58607Y-75759D01*
X-58573Y-76002D01*
X-58555Y-76279D01*
X-58521Y-76591D01*
Y-76938D01*
Y-82299D01*
Y-82316D01*
Y-82368D01*
X-58555Y-82438D01*
X-58590Y-82507D01*
X-58607Y-82524D01*
X-58642Y-82559D01*
X-58694Y-82611D01*
X-58763Y-82663D01*
X-58781D01*
X-58833Y-82681D01*
X-58902Y-82698D01*
X-58989Y-82715D01*
X-59006D01*
X-59076Y-82733D01*
X-59180Y-82750D01*
X-59440D01*
X-59544Y-82733D01*
X-59648Y-82715D01*
X-59666D01*
X-59718Y-82698D01*
X-59787Y-82681D01*
X-59874Y-82663D01*
X-59891Y-82646D01*
X-59926Y-82628D01*
X-60047Y-82524D01*
Y-82507D01*
X-60065Y-82455D01*
X-60082Y-82386D01*
X-60099Y-82299D01*
Y-77042D01*
Y-77025D01*
Y-77008D01*
Y-76904D01*
Y-76765D01*
X-60117Y-76591D01*
X-60134Y-76383D01*
X-60151Y-76175D01*
X-60186Y-75967D01*
X-60238Y-75776D01*
Y-75759D01*
X-60255Y-75689D01*
X-60290Y-75602D01*
X-60325Y-75481D01*
X-60429Y-75203D01*
X-60585Y-74943D01*
X-60602Y-74926D01*
X-60620Y-74891D01*
X-60672Y-74822D01*
X-60741Y-74752D01*
X-60932Y-74596D01*
X-61175Y-74440D01*
X-61192Y-74423D01*
X-61244Y-74405D01*
X-61314Y-74371D01*
X-61400Y-74336D01*
X-61522Y-74301D01*
X-61661Y-74284D01*
X-61817Y-74249D01*
X-62094D01*
X-62216Y-74267D01*
X-62372Y-74301D01*
X-62563Y-74371D01*
X-62771Y-74440D01*
X-62997Y-74562D01*
X-63239Y-74718D01*
X-63274Y-74735D01*
X-63344Y-74805D01*
X-63482Y-74909D01*
X-63638Y-75047D01*
X-63847Y-75238D01*
X-64072Y-75464D01*
X-64315Y-75724D01*
X-64558Y-76019D01*
Y-82299D01*
Y-82316D01*
Y-82368D01*
X-64592Y-82438D01*
X-64627Y-82507D01*
X-64645Y-82524D01*
X-64679Y-82559D01*
X-64731Y-82611D01*
X-64801Y-82663D01*
X-64818D01*
X-64870Y-82681D01*
X-64939Y-82698D01*
X-65026Y-82715D01*
X-65044D01*
X-65113Y-82733D01*
X-65217Y-82750D01*
X-65477D01*
X-65581Y-82733D01*
X-65686Y-82715D01*
X-65703D01*
X-65755Y-82698D01*
X-65842Y-82681D01*
X-65928Y-82663D01*
X-65946Y-82646D01*
X-65998Y-82628D01*
X-66050Y-82577D01*
X-66102Y-82507D01*
Y-82490D01*
X-66119Y-82438D01*
X-66136Y-82368D01*
Y-82299D01*
Y-73434D01*
Y-73417D01*
Y-73365D01*
X-66102Y-73243D01*
X-66084Y-73226D01*
X-66067Y-73191D01*
X-66015Y-73139D01*
X-65946Y-73087D01*
X-65928Y-73070D01*
X-65876Y-73052D01*
X-65790Y-73035D01*
X-65703Y-73018D01*
X-65686D01*
X-65616Y-73000D01*
X-65512Y-72983D01*
X-65269D01*
X-65182Y-73000D01*
X-65078Y-73018D01*
X-65044D01*
X-64991Y-73035D01*
X-64905Y-73052D01*
X-64818Y-73104D01*
X-64801Y-73122D01*
X-64766Y-73139D01*
X-64714Y-73191D01*
X-64679Y-73260D01*
X-64662Y-73278D01*
X-64645Y-73313D01*
X-64627Y-73365D01*
Y-73434D01*
Y-74458D01*
X-64610Y-74440D01*
X-64558Y-74353D01*
X-64454Y-74215D01*
X-64315Y-74041D01*
X-64159Y-73850D01*
X-63951Y-73642D01*
X-63708Y-73451D01*
X-63430Y-73295D01*
X-63413D01*
X-63396Y-73278D01*
X-63291Y-73226D01*
X-63135Y-73156D01*
X-62944Y-73087D01*
X-62702Y-73018D01*
X-62441Y-72948D01*
X-62164Y-72896D01*
X-61869Y-72879D01*
X-61713D01*
X-61539Y-72896D01*
D02*
G37*
G36*
X87204Y-72896D02*
X87239D01*
X87326Y-72913D01*
X87447Y-72931D01*
X87603Y-72966D01*
X87638D01*
X87742Y-72983D01*
X87864Y-73018D01*
X87985Y-73070D01*
X88020D01*
X88089Y-73104D01*
X88176Y-73139D01*
X88245Y-73191D01*
X88263Y-73208D01*
X88297Y-73226D01*
X88332Y-73278D01*
X88366Y-73330D01*
Y-73347D01*
X88384Y-73365D01*
X88419Y-73469D01*
Y-73486D01*
X88436Y-73521D01*
X88453Y-73590D01*
Y-73677D01*
Y-73694D01*
X88471Y-73746D01*
Y-73816D01*
Y-73902D01*
Y-73920D01*
Y-73972D01*
Y-74058D01*
X88453Y-74163D01*
Y-74180D01*
X88436Y-74249D01*
X88419Y-74319D01*
X88401Y-74405D01*
Y-74423D01*
X88366Y-74458D01*
X88332Y-74510D01*
X88280Y-74579D01*
X88263Y-74596D01*
X88228Y-74614D01*
X88158Y-74631D01*
X88054Y-74648D01*
X87985D01*
X87915Y-74631D01*
X87829Y-74614D01*
X87811Y-74596D01*
X87759Y-74579D01*
X87655Y-74544D01*
X87534Y-74510D01*
X87499Y-74492D01*
X87412Y-74475D01*
X87308Y-74458D01*
X87170Y-74423D01*
X87135Y-74405D01*
X87065Y-74388D01*
X86961Y-74371D01*
X86788D01*
X86684Y-74388D01*
X86545Y-74405D01*
X86371Y-74475D01*
X86354D01*
X86337Y-74492D01*
X86233Y-74562D01*
X86077Y-74666D01*
X85886Y-74805D01*
X85868Y-74822D01*
X85851Y-74839D01*
X85799Y-74891D01*
X85730Y-74961D01*
X85643Y-75047D01*
X85556Y-75169D01*
X85452Y-75290D01*
X85331Y-75429D01*
X85313Y-75446D01*
X85279Y-75498D01*
X85226Y-75585D01*
X85140Y-75689D01*
X85053Y-75828D01*
X84949Y-75984D01*
X84827Y-76175D01*
X84706Y-76366D01*
Y-82299D01*
Y-82316D01*
Y-82368D01*
X84671Y-82438D01*
X84637Y-82507D01*
X84619Y-82524D01*
X84585Y-82559D01*
X84533Y-82611D01*
X84463Y-82663D01*
X84446D01*
X84394Y-82681D01*
X84324Y-82698D01*
X84238Y-82715D01*
X84220D01*
X84151Y-82733D01*
X84047Y-82750D01*
X83787D01*
X83682Y-82733D01*
X83578Y-82715D01*
X83561D01*
X83509Y-82698D01*
X83422Y-82681D01*
X83336Y-82663D01*
X83318Y-82646D01*
X83266Y-82628D01*
X83214Y-82577D01*
X83162Y-82507D01*
Y-82490D01*
X83145Y-82438D01*
X83127Y-82368D01*
Y-82299D01*
Y-73434D01*
Y-73417D01*
Y-73365D01*
X83162Y-73243D01*
X83179Y-73226D01*
X83197Y-73191D01*
X83249Y-73139D01*
X83318Y-73087D01*
X83336Y-73070D01*
X83388Y-73052D01*
X83474Y-73035D01*
X83561Y-73018D01*
X83578D01*
X83648Y-73000D01*
X83752Y-72983D01*
X83995D01*
X84081Y-73000D01*
X84186Y-73018D01*
X84220D01*
X84272Y-73035D01*
X84359Y-73052D01*
X84446Y-73104D01*
X84463Y-73122D01*
X84498Y-73139D01*
X84550Y-73191D01*
X84585Y-73260D01*
X84602Y-73278D01*
X84619Y-73313D01*
X84637Y-73365D01*
Y-73434D01*
Y-74544D01*
X84654Y-74458D01*
X84689Y-74353D01*
X84723Y-74232D01*
X84793Y-74093D01*
X84880Y-73954D01*
X84984Y-73816D01*
X85001Y-73798D01*
X85036Y-73764D01*
X85105Y-73694D01*
X85192Y-73607D01*
X85400Y-73434D01*
X85643Y-73260D01*
X85660Y-73243D01*
X85695Y-73226D01*
X85764Y-73191D01*
X85851Y-73139D01*
X86042Y-73035D01*
X86267Y-72966D01*
X86285D01*
X86320Y-72948D01*
X86389Y-72931D01*
X86458Y-72913D01*
X86666Y-72896D01*
X86909Y-72879D01*
X87083D01*
X87204Y-72896D01*
D02*
G37*
G36*
X53705D02*
X53740D01*
X53826Y-72913D01*
X53948Y-72931D01*
X54104Y-72966D01*
X54139D01*
X54243Y-72983D01*
X54364Y-73018D01*
X54486Y-73070D01*
X54520D01*
X54590Y-73104D01*
X54676Y-73139D01*
X54746Y-73191D01*
X54763Y-73208D01*
X54798Y-73226D01*
X54833Y-73278D01*
X54867Y-73330D01*
Y-73347D01*
X54885Y-73365D01*
X54919Y-73469D01*
Y-73486D01*
X54937Y-73521D01*
X54954Y-73590D01*
Y-73677D01*
Y-73694D01*
X54971Y-73746D01*
Y-73816D01*
Y-73902D01*
Y-73920D01*
Y-73972D01*
Y-74058D01*
X54954Y-74163D01*
Y-74180D01*
X54937Y-74249D01*
X54919Y-74319D01*
X54902Y-74405D01*
Y-74423D01*
X54867Y-74458D01*
X54833Y-74510D01*
X54780Y-74579D01*
X54763Y-74596D01*
X54728Y-74614D01*
X54659Y-74631D01*
X54555Y-74648D01*
X54486D01*
X54416Y-74631D01*
X54329Y-74614D01*
X54312Y-74596D01*
X54260Y-74579D01*
X54156Y-74544D01*
X54035Y-74510D01*
X54000Y-74492D01*
X53913Y-74475D01*
X53809Y-74458D01*
X53670Y-74423D01*
X53636Y-74405D01*
X53566Y-74388D01*
X53462Y-74371D01*
X53288D01*
X53184Y-74388D01*
X53046Y-74405D01*
X52872Y-74475D01*
X52855D01*
X52837Y-74492D01*
X52733Y-74562D01*
X52577Y-74666D01*
X52386Y-74805D01*
X52369Y-74822D01*
X52352Y-74839D01*
X52300Y-74891D01*
X52230Y-74961D01*
X52144Y-75047D01*
X52057Y-75169D01*
X51953Y-75290D01*
X51831Y-75429D01*
X51814Y-75446D01*
X51779Y-75498D01*
X51727Y-75585D01*
X51640Y-75689D01*
X51554Y-75828D01*
X51450Y-75984D01*
X51328Y-76175D01*
X51207Y-76366D01*
Y-82299D01*
Y-82316D01*
Y-82368D01*
X51172Y-82438D01*
X51137Y-82507D01*
X51120Y-82524D01*
X51085Y-82559D01*
X51033Y-82611D01*
X50964Y-82663D01*
X50946D01*
X50894Y-82681D01*
X50825Y-82698D01*
X50738Y-82715D01*
X50721D01*
X50652Y-82733D01*
X50547Y-82750D01*
X50287D01*
X50183Y-82733D01*
X50079Y-82715D01*
X50062D01*
X50010Y-82698D01*
X49923Y-82681D01*
X49836Y-82663D01*
X49819Y-82646D01*
X49767Y-82628D01*
X49715Y-82577D01*
X49663Y-82507D01*
Y-82490D01*
X49645Y-82438D01*
X49628Y-82368D01*
Y-82299D01*
Y-73434D01*
Y-73417D01*
Y-73365D01*
X49663Y-73243D01*
X49680Y-73226D01*
X49697Y-73191D01*
X49749Y-73139D01*
X49819Y-73087D01*
X49836Y-73070D01*
X49888Y-73052D01*
X49975Y-73035D01*
X50062Y-73018D01*
X50079D01*
X50149Y-73000D01*
X50253Y-72983D01*
X50495D01*
X50582Y-73000D01*
X50686Y-73018D01*
X50721D01*
X50773Y-73035D01*
X50860Y-73052D01*
X50946Y-73104D01*
X50964Y-73122D01*
X50999Y-73139D01*
X51051Y-73191D01*
X51085Y-73260D01*
X51103Y-73278D01*
X51120Y-73313D01*
X51137Y-73365D01*
Y-73434D01*
Y-74544D01*
X51155Y-74458D01*
X51189Y-74353D01*
X51224Y-74232D01*
X51293Y-74093D01*
X51380Y-73954D01*
X51484Y-73816D01*
X51502Y-73798D01*
X51536Y-73764D01*
X51606Y-73694D01*
X51693Y-73607D01*
X51901Y-73434D01*
X52144Y-73260D01*
X52161Y-73243D01*
X52196Y-73226D01*
X52265Y-73191D01*
X52352Y-73139D01*
X52543Y-73035D01*
X52768Y-72966D01*
X52785D01*
X52820Y-72948D01*
X52889Y-72931D01*
X52959Y-72913D01*
X53167Y-72896D01*
X53410Y-72879D01*
X53583D01*
X53705Y-72896D01*
D02*
G37*
G36*
X-12409Y-72913D02*
X-12166Y-72948D01*
X-12149D01*
X-12114Y-72966D01*
X-12045D01*
X-11958Y-72983D01*
X-11750Y-73035D01*
X-11524Y-73104D01*
X-11507D01*
X-11472Y-73122D01*
X-11420Y-73139D01*
X-11351Y-73156D01*
X-11195Y-73226D01*
X-11021Y-73313D01*
X-11004D01*
X-10987Y-73330D01*
X-10900Y-73382D01*
X-10778Y-73434D01*
X-10674Y-73503D01*
X-10657Y-73521D01*
X-10605Y-73555D01*
X-10553Y-73608D01*
X-10501Y-73677D01*
X-10483Y-73694D01*
X-10466Y-73729D01*
X-10431Y-73833D01*
Y-73850D01*
X-10414Y-73885D01*
Y-73937D01*
X-10397Y-74024D01*
Y-74041D01*
X-10379Y-74093D01*
Y-74163D01*
Y-74232D01*
Y-74249D01*
Y-74301D01*
X-10397Y-74388D01*
X-10414Y-74475D01*
Y-74492D01*
X-10431Y-74544D01*
X-10449Y-74614D01*
X-10483Y-74700D01*
Y-74718D01*
X-10518Y-74752D01*
X-10553Y-74822D01*
X-10605Y-74874D01*
X-10622Y-74891D01*
X-10657Y-74909D01*
X-10744Y-74926D01*
X-10831Y-74943D01*
X-10865D01*
X-10934Y-74926D01*
X-11039Y-74891D01*
X-11160Y-74822D01*
X-11195Y-74805D01*
X-11281Y-74752D01*
X-11403Y-74666D01*
X-11576Y-74579D01*
X-11594D01*
X-11611Y-74562D01*
X-11663Y-74527D01*
X-11733Y-74510D01*
X-11923Y-74440D01*
X-12149Y-74353D01*
X-12166D01*
X-12201Y-74336D01*
X-12270Y-74319D01*
X-12374Y-74301D01*
X-12478Y-74284D01*
X-12617Y-74267D01*
X-12912Y-74249D01*
X-13068D01*
X-13155Y-74267D01*
X-13398Y-74284D01*
X-13641Y-74353D01*
X-13658D01*
X-13693Y-74371D01*
X-13745Y-74388D01*
X-13814Y-74423D01*
X-13988Y-74510D01*
X-14161Y-74631D01*
X-14196Y-74666D01*
X-14265Y-74735D01*
X-14352Y-74857D01*
X-14439Y-75013D01*
Y-75030D01*
X-14456Y-75047D01*
X-14474Y-75152D01*
X-14508Y-75325D01*
X-14526Y-75516D01*
Y-75533D01*
Y-75585D01*
X-14508Y-75655D01*
Y-75741D01*
X-14456Y-75950D01*
X-14369Y-76158D01*
Y-76175D01*
X-14335Y-76192D01*
X-14248Y-76296D01*
X-14092Y-76453D01*
X-13901Y-76609D01*
X-13884D01*
X-13849Y-76643D01*
X-13780Y-76678D01*
X-13693Y-76730D01*
X-13589Y-76782D01*
X-13467Y-76834D01*
X-13311Y-76904D01*
X-13155Y-76973D01*
X-13138D01*
X-13086Y-77008D01*
X-12999Y-77042D01*
X-12878Y-77077D01*
X-12756Y-77129D01*
X-12617Y-77181D01*
X-12322Y-77303D01*
X-12305D01*
X-12253Y-77337D01*
X-12166Y-77355D01*
X-12062Y-77407D01*
X-11941Y-77459D01*
X-11802Y-77528D01*
X-11507Y-77667D01*
X-11490Y-77684D01*
X-11438Y-77702D01*
X-11351Y-77754D01*
X-11247Y-77806D01*
X-10987Y-77979D01*
X-10726Y-78187D01*
X-10709Y-78205D01*
X-10674Y-78239D01*
X-10605Y-78309D01*
X-10518Y-78396D01*
X-10431Y-78500D01*
X-10345Y-78621D01*
X-10171Y-78916D01*
X-10154Y-78933D01*
X-10136Y-78985D01*
X-10102Y-79089D01*
X-10050Y-79211D01*
X-10015Y-79350D01*
X-9980Y-79523D01*
X-9963Y-79731D01*
X-9946Y-79940D01*
Y-79974D01*
Y-80061D01*
X-9963Y-80182D01*
X-9980Y-80356D01*
X-10015Y-80547D01*
X-10050Y-80755D01*
X-10119Y-80981D01*
X-10206Y-81189D01*
X-10223Y-81206D01*
X-10258Y-81275D01*
X-10310Y-81379D01*
X-10397Y-81501D01*
X-10501Y-81657D01*
X-10622Y-81796D01*
X-10761Y-81952D01*
X-10934Y-82108D01*
X-10952Y-82125D01*
X-11021Y-82177D01*
X-11108Y-82247D01*
X-11247Y-82316D01*
X-11403Y-82420D01*
X-11594Y-82507D01*
X-11819Y-82594D01*
X-12045Y-82681D01*
X-12079D01*
X-12149Y-82715D01*
X-12288Y-82733D01*
X-12461Y-82767D01*
X-12669Y-82802D01*
X-12912Y-82837D01*
X-13173Y-82854D01*
X-13450Y-82871D01*
X-13623D01*
X-13745Y-82854D01*
X-13901D01*
X-14057Y-82837D01*
X-14369Y-82785D01*
X-14387D01*
X-14439Y-82767D01*
X-14526Y-82750D01*
X-14630Y-82733D01*
X-14873Y-82681D01*
X-15150Y-82611D01*
X-15167D01*
X-15202Y-82594D01*
X-15272Y-82559D01*
X-15358Y-82542D01*
X-15549Y-82455D01*
X-15740Y-82368D01*
X-15757D01*
X-15775Y-82351D01*
X-15879Y-82282D01*
X-16000Y-82195D01*
X-16122Y-82108D01*
X-16139Y-82091D01*
X-16191Y-82021D01*
X-16260Y-81917D01*
X-16330Y-81796D01*
Y-81778D01*
Y-81761D01*
X-16347Y-81657D01*
X-16365Y-81518D01*
X-16382Y-81310D01*
Y-81293D01*
Y-81223D01*
Y-81154D01*
X-16365Y-81067D01*
Y-81050D01*
X-16347Y-80998D01*
X-16330Y-80928D01*
X-16313Y-80842D01*
X-16295Y-80824D01*
X-16278Y-80772D01*
X-16226Y-80720D01*
X-16156Y-80668D01*
X-16139Y-80651D01*
X-16087Y-80616D01*
X-16018Y-80599D01*
X-15931Y-80581D01*
X-15896D01*
X-15809Y-80599D01*
X-15688Y-80651D01*
X-15532Y-80738D01*
X-15515D01*
X-15497Y-80772D01*
X-15445Y-80790D01*
X-15376Y-80842D01*
X-15202Y-80928D01*
X-14994Y-81050D01*
X-14977D01*
X-14942Y-81067D01*
X-14873Y-81102D01*
X-14803Y-81137D01*
X-14699Y-81189D01*
X-14578Y-81241D01*
X-14317Y-81327D01*
X-14300D01*
X-14248Y-81345D01*
X-14161Y-81362D01*
X-14057Y-81379D01*
X-13918Y-81414D01*
X-13745Y-81432D01*
X-13571Y-81449D01*
X-13225D01*
X-13120Y-81432D01*
X-12878Y-81414D01*
X-12617Y-81362D01*
X-12600D01*
X-12565Y-81345D01*
X-12496Y-81327D01*
X-12427Y-81293D01*
X-12236Y-81223D01*
X-12045Y-81119D01*
X-12027D01*
X-12010Y-81084D01*
X-11906Y-80998D01*
X-11785Y-80859D01*
X-11663Y-80686D01*
Y-80668D01*
X-11646Y-80633D01*
X-11611Y-80581D01*
X-11594Y-80495D01*
X-11542Y-80304D01*
X-11524Y-80044D01*
Y-80026D01*
Y-79992D01*
Y-79922D01*
X-11542Y-79836D01*
X-11594Y-79645D01*
X-11698Y-79454D01*
Y-79436D01*
X-11733Y-79419D01*
X-11819Y-79315D01*
X-11975Y-79176D01*
X-12166Y-79020D01*
X-12184Y-79003D01*
X-12218Y-78985D01*
X-12288Y-78951D01*
X-12357Y-78899D01*
X-12461Y-78847D01*
X-12583Y-78777D01*
X-12860Y-78656D01*
X-12878D01*
X-12930Y-78621D01*
X-12999Y-78604D01*
X-13103Y-78552D01*
X-13225Y-78500D01*
X-13363Y-78448D01*
X-13693Y-78326D01*
X-13710D01*
X-13762Y-78292D01*
X-13849Y-78257D01*
X-13953Y-78205D01*
X-14092Y-78153D01*
X-14231Y-78083D01*
X-14543Y-77944D01*
X-14560Y-77927D01*
X-14612Y-77910D01*
X-14699Y-77858D01*
X-14786Y-77806D01*
X-15046Y-77632D01*
X-15306Y-77424D01*
X-15324Y-77407D01*
X-15358Y-77372D01*
X-15428Y-77303D01*
X-15497Y-77199D01*
X-15601Y-77094D01*
X-15688Y-76956D01*
X-15861Y-76643D01*
Y-76626D01*
X-15896Y-76557D01*
X-15931Y-76470D01*
X-15965Y-76331D01*
X-16000Y-76175D01*
X-16035Y-76002D01*
X-16052Y-75793D01*
X-16070Y-75568D01*
Y-75550D01*
Y-75481D01*
X-16052Y-75377D01*
Y-75256D01*
X-16035Y-75117D01*
X-16000Y-74943D01*
X-15896Y-74596D01*
X-15879Y-74579D01*
X-15861Y-74510D01*
X-15809Y-74423D01*
X-15757Y-74301D01*
X-15671Y-74163D01*
X-15567Y-74024D01*
X-15445Y-73868D01*
X-15306Y-73729D01*
X-15289Y-73712D01*
X-15237Y-73660D01*
X-15150Y-73590D01*
X-15029Y-73503D01*
X-14873Y-73417D01*
X-14699Y-73313D01*
X-14508Y-73208D01*
X-14283Y-73122D01*
X-14248Y-73104D01*
X-14179Y-73087D01*
X-14040Y-73052D01*
X-13866Y-73000D01*
X-13658Y-72948D01*
X-13415Y-72913D01*
X-13138Y-72896D01*
X-12843Y-72879D01*
X-12635D01*
X-12409Y-72913D01*
D02*
G37*
G36*
X-99705D02*
X-99462Y-72948D01*
X-99445D01*
X-99410Y-72966D01*
X-99341D01*
X-99254Y-72983D01*
X-99046Y-73035D01*
X-98820Y-73104D01*
X-98803D01*
X-98769Y-73122D01*
X-98716Y-73139D01*
X-98647Y-73156D01*
X-98491Y-73226D01*
X-98317Y-73313D01*
X-98300D01*
X-98283Y-73330D01*
X-98196Y-73382D01*
X-98075Y-73434D01*
X-97971Y-73503D01*
X-97953Y-73521D01*
X-97901Y-73555D01*
X-97849Y-73608D01*
X-97797Y-73677D01*
X-97780Y-73694D01*
X-97762Y-73729D01*
X-97728Y-73833D01*
Y-73850D01*
X-97710Y-73885D01*
Y-73937D01*
X-97693Y-74024D01*
Y-74041D01*
X-97676Y-74093D01*
Y-74163D01*
Y-74232D01*
Y-74249D01*
Y-74301D01*
X-97693Y-74388D01*
X-97710Y-74475D01*
Y-74492D01*
X-97728Y-74544D01*
X-97745Y-74614D01*
X-97780Y-74700D01*
Y-74718D01*
X-97814Y-74752D01*
X-97849Y-74822D01*
X-97901Y-74874D01*
X-97918Y-74891D01*
X-97953Y-74909D01*
X-98040Y-74926D01*
X-98127Y-74943D01*
X-98161D01*
X-98231Y-74926D01*
X-98335Y-74891D01*
X-98456Y-74822D01*
X-98491Y-74805D01*
X-98578Y-74752D01*
X-98699Y-74666D01*
X-98873Y-74579D01*
X-98890D01*
X-98907Y-74562D01*
X-98959Y-74527D01*
X-99029Y-74510D01*
X-99220Y-74440D01*
X-99445Y-74353D01*
X-99462D01*
X-99497Y-74336D01*
X-99566Y-74319D01*
X-99671Y-74301D01*
X-99775Y-74284D01*
X-99914Y-74267D01*
X-100208Y-74249D01*
X-100365D01*
X-100451Y-74267D01*
X-100694Y-74284D01*
X-100937Y-74353D01*
X-100954D01*
X-100989Y-74371D01*
X-101041Y-74388D01*
X-101110Y-74423D01*
X-101284Y-74510D01*
X-101458Y-74631D01*
X-101492Y-74666D01*
X-101561Y-74735D01*
X-101648Y-74857D01*
X-101735Y-75013D01*
Y-75030D01*
X-101752Y-75047D01*
X-101770Y-75152D01*
X-101804Y-75325D01*
X-101822Y-75516D01*
Y-75533D01*
Y-75585D01*
X-101804Y-75655D01*
Y-75741D01*
X-101752Y-75950D01*
X-101666Y-76158D01*
Y-76175D01*
X-101631Y-76192D01*
X-101544Y-76296D01*
X-101388Y-76453D01*
X-101197Y-76609D01*
X-101180D01*
X-101145Y-76643D01*
X-101076Y-76678D01*
X-100989Y-76730D01*
X-100885Y-76782D01*
X-100764Y-76834D01*
X-100607Y-76904D01*
X-100451Y-76973D01*
X-100434D01*
X-100382Y-77008D01*
X-100295Y-77042D01*
X-100174Y-77077D01*
X-100052Y-77129D01*
X-99914Y-77181D01*
X-99619Y-77303D01*
X-99601D01*
X-99549Y-77337D01*
X-99462Y-77355D01*
X-99358Y-77407D01*
X-99237Y-77459D01*
X-99098Y-77528D01*
X-98803Y-77667D01*
X-98786Y-77684D01*
X-98734Y-77702D01*
X-98647Y-77754D01*
X-98543Y-77806D01*
X-98283Y-77979D01*
X-98022Y-78187D01*
X-98005Y-78205D01*
X-97971Y-78239D01*
X-97901Y-78309D01*
X-97814Y-78396D01*
X-97728Y-78500D01*
X-97641Y-78621D01*
X-97467Y-78916D01*
X-97450Y-78933D01*
X-97433Y-78985D01*
X-97398Y-79089D01*
X-97346Y-79211D01*
X-97311Y-79350D01*
X-97276Y-79523D01*
X-97259Y-79731D01*
X-97242Y-79940D01*
Y-79974D01*
Y-80061D01*
X-97259Y-80182D01*
X-97276Y-80356D01*
X-97311Y-80547D01*
X-97346Y-80755D01*
X-97415Y-80981D01*
X-97502Y-81189D01*
X-97519Y-81206D01*
X-97554Y-81275D01*
X-97606Y-81379D01*
X-97693Y-81501D01*
X-97797Y-81657D01*
X-97918Y-81796D01*
X-98057Y-81952D01*
X-98231Y-82108D01*
X-98248Y-82125D01*
X-98317Y-82177D01*
X-98404Y-82247D01*
X-98543Y-82316D01*
X-98699Y-82420D01*
X-98890Y-82507D01*
X-99115Y-82594D01*
X-99341Y-82681D01*
X-99376D01*
X-99445Y-82715D01*
X-99584Y-82733D01*
X-99757Y-82767D01*
X-99965Y-82802D01*
X-100208Y-82837D01*
X-100469Y-82854D01*
X-100746Y-82871D01*
X-100920D01*
X-101041Y-82854D01*
X-101197D01*
X-101353Y-82837D01*
X-101666Y-82785D01*
X-101683D01*
X-101735Y-82767D01*
X-101822Y-82750D01*
X-101926Y-82733D01*
X-102169Y-82681D01*
X-102446Y-82611D01*
X-102464D01*
X-102498Y-82594D01*
X-102568Y-82559D01*
X-102654Y-82542D01*
X-102845Y-82455D01*
X-103036Y-82368D01*
X-103054D01*
X-103071Y-82351D01*
X-103175Y-82282D01*
X-103296Y-82195D01*
X-103418Y-82108D01*
X-103435Y-82091D01*
X-103487Y-82021D01*
X-103557Y-81917D01*
X-103626Y-81796D01*
Y-81778D01*
Y-81761D01*
X-103643Y-81657D01*
X-103661Y-81518D01*
X-103678Y-81310D01*
Y-81293D01*
Y-81223D01*
Y-81154D01*
X-103661Y-81067D01*
Y-81050D01*
X-103643Y-80998D01*
X-103626Y-80928D01*
X-103609Y-80842D01*
X-103591Y-80824D01*
X-103574Y-80772D01*
X-103522Y-80720D01*
X-103453Y-80668D01*
X-103435Y-80651D01*
X-103383Y-80616D01*
X-103314Y-80599D01*
X-103227Y-80581D01*
X-103192D01*
X-103105Y-80599D01*
X-102984Y-80651D01*
X-102828Y-80738D01*
X-102811D01*
X-102793Y-80772D01*
X-102741Y-80790D01*
X-102672Y-80842D01*
X-102498Y-80928D01*
X-102290Y-81050D01*
X-102273D01*
X-102238Y-81067D01*
X-102169Y-81102D01*
X-102099Y-81137D01*
X-101995Y-81189D01*
X-101874Y-81241D01*
X-101614Y-81327D01*
X-101596D01*
X-101544Y-81345D01*
X-101458Y-81362D01*
X-101353Y-81379D01*
X-101215Y-81414D01*
X-101041Y-81432D01*
X-100868Y-81449D01*
X-100521D01*
X-100417Y-81432D01*
X-100174Y-81414D01*
X-99914Y-81362D01*
X-99896D01*
X-99861Y-81345D01*
X-99792Y-81327D01*
X-99723Y-81293D01*
X-99532Y-81223D01*
X-99341Y-81119D01*
X-99324D01*
X-99306Y-81084D01*
X-99202Y-80998D01*
X-99081Y-80859D01*
X-98959Y-80686D01*
Y-80668D01*
X-98942Y-80633D01*
X-98907Y-80581D01*
X-98890Y-80495D01*
X-98838Y-80304D01*
X-98820Y-80044D01*
Y-80026D01*
Y-79992D01*
Y-79922D01*
X-98838Y-79836D01*
X-98890Y-79645D01*
X-98994Y-79454D01*
Y-79436D01*
X-99029Y-79419D01*
X-99115Y-79315D01*
X-99272Y-79176D01*
X-99462Y-79020D01*
X-99480Y-79003D01*
X-99515Y-78985D01*
X-99584Y-78951D01*
X-99653Y-78899D01*
X-99757Y-78847D01*
X-99879Y-78777D01*
X-100156Y-78656D01*
X-100174D01*
X-100226Y-78621D01*
X-100295Y-78604D01*
X-100399Y-78552D01*
X-100521Y-78500D01*
X-100659Y-78448D01*
X-100989Y-78326D01*
X-101006D01*
X-101058Y-78292D01*
X-101145Y-78257D01*
X-101249Y-78205D01*
X-101388Y-78153D01*
X-101527Y-78083D01*
X-101839Y-77944D01*
X-101856Y-77927D01*
X-101909Y-77910D01*
X-101995Y-77858D01*
X-102082Y-77806D01*
X-102342Y-77632D01*
X-102602Y-77424D01*
X-102620Y-77407D01*
X-102654Y-77372D01*
X-102724Y-77303D01*
X-102793Y-77199D01*
X-102897Y-77094D01*
X-102984Y-76956D01*
X-103158Y-76643D01*
Y-76626D01*
X-103192Y-76557D01*
X-103227Y-76470D01*
X-103262Y-76331D01*
X-103296Y-76175D01*
X-103331Y-76002D01*
X-103348Y-75793D01*
X-103366Y-75568D01*
Y-75550D01*
Y-75481D01*
X-103348Y-75377D01*
Y-75256D01*
X-103331Y-75117D01*
X-103296Y-74943D01*
X-103192Y-74596D01*
X-103175Y-74579D01*
X-103158Y-74510D01*
X-103105Y-74423D01*
X-103054Y-74301D01*
X-102967Y-74163D01*
X-102863Y-74024D01*
X-102741Y-73868D01*
X-102602Y-73729D01*
X-102585Y-73712D01*
X-102533Y-73660D01*
X-102446Y-73590D01*
X-102325Y-73503D01*
X-102169Y-73417D01*
X-101995Y-73313D01*
X-101804Y-73208D01*
X-101579Y-73122D01*
X-101544Y-73104D01*
X-101475Y-73087D01*
X-101336Y-73052D01*
X-101163Y-73000D01*
X-100954Y-72948D01*
X-100711Y-72913D01*
X-100434Y-72896D01*
X-100139Y-72879D01*
X-99931D01*
X-99705Y-72913D01*
D02*
G37*
G36*
X-81368Y-72896D02*
X-81229D01*
X-81091Y-72913D01*
X-80778Y-72983D01*
X-80761D01*
X-80709Y-73000D01*
X-80622Y-73018D01*
X-80518Y-73035D01*
X-80258Y-73122D01*
X-79980Y-73208D01*
X-79963D01*
X-79911Y-73226D01*
X-79842Y-73260D01*
X-79755Y-73295D01*
X-79547Y-73399D01*
X-79338Y-73538D01*
X-79321D01*
X-79286Y-73573D01*
X-79182Y-73642D01*
X-79061Y-73764D01*
X-78939Y-73868D01*
X-78922Y-73885D01*
X-78870Y-73937D01*
X-78801Y-74007D01*
X-78749Y-74076D01*
X-78731Y-74093D01*
X-78714Y-74128D01*
X-78679Y-74197D01*
X-78645Y-74267D01*
Y-74284D01*
X-78627Y-74319D01*
X-78610Y-74388D01*
Y-74475D01*
Y-74492D01*
X-78593Y-74544D01*
Y-74631D01*
Y-74718D01*
Y-74735D01*
Y-74770D01*
Y-74839D01*
X-78610Y-74909D01*
X-78645Y-75082D01*
X-78731Y-75256D01*
X-78749Y-75290D01*
X-78818Y-75342D01*
X-78922Y-75394D01*
X-79061Y-75429D01*
X-79096D01*
X-79200Y-75412D01*
X-79338Y-75342D01*
X-79425Y-75308D01*
X-79512Y-75238D01*
X-79529Y-75221D01*
X-79547Y-75203D01*
X-79599Y-75169D01*
X-79668Y-75117D01*
X-79824Y-74995D01*
X-80032Y-74857D01*
X-80050Y-74839D01*
X-80084Y-74822D01*
X-80154Y-74787D01*
X-80223Y-74735D01*
X-80327Y-74666D01*
X-80449Y-74614D01*
X-80744Y-74475D01*
X-80761D01*
X-80813Y-74440D01*
X-80900Y-74423D01*
X-81021Y-74388D01*
X-81160Y-74353D01*
X-81334Y-74336D01*
X-81524Y-74301D01*
X-81837D01*
X-81923Y-74319D01*
X-82028Y-74336D01*
X-82132Y-74353D01*
X-82409Y-74423D01*
X-82687Y-74527D01*
X-82999Y-74683D01*
X-83155Y-74787D01*
X-83294Y-74909D01*
X-83433Y-75065D01*
X-83554Y-75221D01*
Y-75238D01*
X-83589Y-75256D01*
X-83606Y-75308D01*
X-83658Y-75394D01*
X-83693Y-75481D01*
X-83745Y-75602D01*
X-83814Y-75741D01*
X-83866Y-75897D01*
X-83918Y-76071D01*
X-83988Y-76279D01*
X-84040Y-76487D01*
X-84075Y-76730D01*
X-84127Y-76990D01*
X-84144Y-77285D01*
X-84179Y-77580D01*
Y-77910D01*
Y-77927D01*
Y-77944D01*
Y-77997D01*
Y-78066D01*
X-84161Y-78239D01*
Y-78448D01*
X-84144Y-78708D01*
X-84109Y-78968D01*
X-84057Y-79246D01*
X-84005Y-79506D01*
Y-79541D01*
X-83970Y-79610D01*
X-83936Y-79731D01*
X-83884Y-79887D01*
X-83814Y-80061D01*
X-83728Y-80252D01*
X-83624Y-80425D01*
X-83519Y-80599D01*
X-83502Y-80616D01*
X-83467Y-80668D01*
X-83398Y-80738D01*
X-83294Y-80824D01*
X-83190Y-80928D01*
X-83051Y-81032D01*
X-82895Y-81137D01*
X-82739Y-81223D01*
X-82721D01*
X-82652Y-81258D01*
X-82565Y-81293D01*
X-82444Y-81327D01*
X-82288Y-81362D01*
X-82114Y-81397D01*
X-81906Y-81414D01*
X-81698Y-81432D01*
X-81611D01*
X-81507Y-81414D01*
X-81368D01*
X-81229Y-81397D01*
X-81073Y-81362D01*
X-80744Y-81258D01*
X-80726D01*
X-80674Y-81223D01*
X-80588Y-81189D01*
X-80484Y-81137D01*
X-80241Y-81015D01*
X-79998Y-80876D01*
X-79980Y-80859D01*
X-79946Y-80842D01*
X-79894Y-80807D01*
X-79807Y-80738D01*
X-79633Y-80616D01*
X-79443Y-80460D01*
X-79425Y-80443D01*
X-79391Y-80425D01*
X-79286Y-80339D01*
X-79148Y-80269D01*
X-79061Y-80252D01*
X-78991Y-80234D01*
X-78974D01*
X-78905Y-80252D01*
X-78835Y-80269D01*
X-78766Y-80321D01*
X-78749Y-80339D01*
X-78714Y-80373D01*
X-78662Y-80425D01*
X-78627Y-80512D01*
X-78610Y-80529D01*
X-78593Y-80581D01*
X-78575Y-80651D01*
X-78558Y-80738D01*
Y-80755D01*
X-78541Y-80807D01*
Y-80894D01*
Y-80998D01*
Y-81015D01*
Y-81067D01*
Y-81137D01*
X-78558Y-81223D01*
Y-81241D01*
X-78575Y-81293D01*
X-78610Y-81432D01*
Y-81449D01*
X-78627Y-81484D01*
X-78679Y-81605D01*
X-78697Y-81622D01*
X-78714Y-81657D01*
X-78783Y-81744D01*
X-78870Y-81831D01*
X-78887Y-81848D01*
X-78974Y-81917D01*
X-79113Y-82039D01*
X-79321Y-82177D01*
X-79338Y-82195D01*
X-79373Y-82212D01*
X-79443Y-82247D01*
X-79529Y-82299D01*
X-79633Y-82351D01*
X-79755Y-82420D01*
X-80032Y-82542D01*
X-80050D01*
X-80102Y-82559D01*
X-80189Y-82594D01*
X-80293Y-82628D01*
X-80414Y-82663D01*
X-80553Y-82698D01*
X-80883Y-82767D01*
X-80900D01*
X-80952Y-82785D01*
X-81039Y-82802D01*
X-81160Y-82819D01*
X-81299Y-82837D01*
X-81455Y-82854D01*
X-81802Y-82871D01*
X-81958D01*
X-82149Y-82854D01*
X-82374Y-82837D01*
X-82652Y-82802D01*
X-82947Y-82733D01*
X-83242Y-82663D01*
X-83537Y-82559D01*
X-83572Y-82542D01*
X-83658Y-82490D01*
X-83797Y-82420D01*
X-83970Y-82316D01*
X-84179Y-82177D01*
X-84387Y-82004D01*
X-84595Y-81813D01*
X-84803Y-81588D01*
X-84820Y-81553D01*
X-84890Y-81466D01*
X-84977Y-81345D01*
X-85081Y-81154D01*
X-85202Y-80928D01*
X-85341Y-80668D01*
X-85462Y-80373D01*
X-85567Y-80044D01*
Y-80026D01*
X-85584Y-80009D01*
Y-79957D01*
X-85601Y-79887D01*
X-85618Y-79801D01*
X-85636Y-79697D01*
X-85688Y-79436D01*
X-85740Y-79124D01*
X-85775Y-78777D01*
X-85792Y-78378D01*
X-85809Y-77944D01*
Y-77927D01*
Y-77892D01*
Y-77823D01*
Y-77719D01*
X-85792Y-77615D01*
Y-77476D01*
X-85775Y-77164D01*
X-85740Y-76817D01*
X-85671Y-76435D01*
X-85601Y-76036D01*
X-85497Y-75672D01*
Y-75655D01*
X-85480Y-75637D01*
X-85462Y-75585D01*
X-85445Y-75516D01*
X-85376Y-75342D01*
X-85272Y-75117D01*
X-85150Y-74874D01*
X-84994Y-74614D01*
X-84820Y-74353D01*
X-84612Y-74111D01*
X-84578Y-74076D01*
X-84508Y-74007D01*
X-84387Y-73902D01*
X-84231Y-73764D01*
X-84040Y-73608D01*
X-83814Y-73451D01*
X-83554Y-73313D01*
X-83277Y-73191D01*
X-83259D01*
X-83242Y-73174D01*
X-83138Y-73139D01*
X-82982Y-73087D01*
X-82791Y-73035D01*
X-82548Y-72983D01*
X-82270Y-72931D01*
X-81958Y-72896D01*
X-81646Y-72879D01*
X-81472D01*
X-81368Y-72896D01*
D02*
G37*
G36*
X-118112D02*
X-117973D01*
X-117834Y-72913D01*
X-117522Y-72983D01*
X-117505D01*
X-117452Y-73000D01*
X-117366Y-73018D01*
X-117262Y-73035D01*
X-117001Y-73122D01*
X-116724Y-73208D01*
X-116706D01*
X-116655Y-73226D01*
X-116585Y-73260D01*
X-116498Y-73295D01*
X-116290Y-73399D01*
X-116082Y-73538D01*
X-116065D01*
X-116030Y-73573D01*
X-115926Y-73642D01*
X-115804Y-73764D01*
X-115683Y-73868D01*
X-115666Y-73885D01*
X-115614Y-73937D01*
X-115544Y-74007D01*
X-115492Y-74076D01*
X-115475Y-74093D01*
X-115457Y-74128D01*
X-115423Y-74197D01*
X-115388Y-74267D01*
Y-74284D01*
X-115371Y-74319D01*
X-115353Y-74388D01*
Y-74475D01*
Y-74492D01*
X-115336Y-74544D01*
Y-74631D01*
Y-74718D01*
Y-74735D01*
Y-74770D01*
Y-74839D01*
X-115353Y-74909D01*
X-115388Y-75082D01*
X-115475Y-75256D01*
X-115492Y-75290D01*
X-115562Y-75342D01*
X-115666Y-75394D01*
X-115804Y-75429D01*
X-115839D01*
X-115943Y-75412D01*
X-116082Y-75342D01*
X-116169Y-75308D01*
X-116256Y-75238D01*
X-116273Y-75221D01*
X-116290Y-75203D01*
X-116342Y-75169D01*
X-116412Y-75117D01*
X-116568Y-74995D01*
X-116776Y-74857D01*
X-116793Y-74839D01*
X-116828Y-74822D01*
X-116897Y-74787D01*
X-116967Y-74735D01*
X-117071Y-74666D01*
X-117192Y-74614D01*
X-117487Y-74475D01*
X-117505D01*
X-117557Y-74440D01*
X-117643Y-74423D01*
X-117765Y-74388D01*
X-117903Y-74353D01*
X-118077Y-74336D01*
X-118268Y-74301D01*
X-118580D01*
X-118667Y-74319D01*
X-118771Y-74336D01*
X-118875Y-74353D01*
X-119153Y-74423D01*
X-119430Y-74527D01*
X-119742Y-74683D01*
X-119899Y-74787D01*
X-120037Y-74909D01*
X-120176Y-75065D01*
X-120298Y-75221D01*
Y-75238D01*
X-120332Y-75256D01*
X-120350Y-75308D01*
X-120402Y-75394D01*
X-120436Y-75481D01*
X-120488Y-75602D01*
X-120558Y-75741D01*
X-120610Y-75897D01*
X-120662Y-76071D01*
X-120731Y-76279D01*
X-120783Y-76487D01*
X-120818Y-76730D01*
X-120870Y-76990D01*
X-120887Y-77285D01*
X-120922Y-77580D01*
Y-77910D01*
Y-77927D01*
Y-77944D01*
Y-77997D01*
Y-78066D01*
X-120905Y-78239D01*
Y-78448D01*
X-120887Y-78708D01*
X-120853Y-78968D01*
X-120801Y-79246D01*
X-120749Y-79506D01*
Y-79541D01*
X-120714Y-79610D01*
X-120679Y-79731D01*
X-120627Y-79887D01*
X-120558Y-80061D01*
X-120471Y-80252D01*
X-120367Y-80425D01*
X-120263Y-80599D01*
X-120246Y-80616D01*
X-120211Y-80668D01*
X-120141Y-80738D01*
X-120037Y-80824D01*
X-119933Y-80928D01*
X-119795Y-81032D01*
X-119638Y-81137D01*
X-119482Y-81223D01*
X-119465D01*
X-119396Y-81258D01*
X-119309Y-81293D01*
X-119187Y-81327D01*
X-119031Y-81362D01*
X-118858Y-81397D01*
X-118650Y-81414D01*
X-118441Y-81432D01*
X-118355D01*
X-118251Y-81414D01*
X-118112D01*
X-117973Y-81397D01*
X-117817Y-81362D01*
X-117487Y-81258D01*
X-117470D01*
X-117418Y-81223D01*
X-117331Y-81189D01*
X-117227Y-81137D01*
X-116984Y-81015D01*
X-116741Y-80876D01*
X-116724Y-80859D01*
X-116689Y-80842D01*
X-116637Y-80807D01*
X-116550Y-80738D01*
X-116377Y-80616D01*
X-116186Y-80460D01*
X-116169Y-80443D01*
X-116134Y-80425D01*
X-116030Y-80339D01*
X-115891Y-80269D01*
X-115804Y-80252D01*
X-115735Y-80234D01*
X-115718D01*
X-115648Y-80252D01*
X-115579Y-80269D01*
X-115510Y-80321D01*
X-115492Y-80339D01*
X-115457Y-80373D01*
X-115405Y-80425D01*
X-115371Y-80512D01*
X-115353Y-80529D01*
X-115336Y-80581D01*
X-115319Y-80651D01*
X-115301Y-80738D01*
Y-80755D01*
X-115284Y-80807D01*
Y-80894D01*
Y-80998D01*
Y-81015D01*
Y-81067D01*
Y-81137D01*
X-115301Y-81223D01*
Y-81241D01*
X-115319Y-81293D01*
X-115353Y-81432D01*
Y-81449D01*
X-115371Y-81484D01*
X-115423Y-81605D01*
X-115440Y-81622D01*
X-115457Y-81657D01*
X-115527Y-81744D01*
X-115614Y-81831D01*
X-115631Y-81848D01*
X-115718Y-81917D01*
X-115857Y-82039D01*
X-116065Y-82177D01*
X-116082Y-82195D01*
X-116117Y-82212D01*
X-116186Y-82247D01*
X-116273Y-82299D01*
X-116377Y-82351D01*
X-116498Y-82420D01*
X-116776Y-82542D01*
X-116793D01*
X-116845Y-82559D01*
X-116932Y-82594D01*
X-117036Y-82628D01*
X-117158Y-82663D01*
X-117296Y-82698D01*
X-117626Y-82767D01*
X-117643D01*
X-117695Y-82785D01*
X-117782Y-82802D01*
X-117903Y-82819D01*
X-118042Y-82837D01*
X-118198Y-82854D01*
X-118545Y-82871D01*
X-118702D01*
X-118892Y-82854D01*
X-119118Y-82837D01*
X-119396Y-82802D01*
X-119690Y-82733D01*
X-119985Y-82663D01*
X-120280Y-82559D01*
X-120315Y-82542D01*
X-120402Y-82490D01*
X-120541Y-82420D01*
X-120714Y-82316D01*
X-120922Y-82177D01*
X-121130Y-82004D01*
X-121339Y-81813D01*
X-121547Y-81588D01*
X-121564Y-81553D01*
X-121633Y-81466D01*
X-121720Y-81345D01*
X-121824Y-81154D01*
X-121946Y-80928D01*
X-122085Y-80668D01*
X-122206Y-80373D01*
X-122310Y-80044D01*
Y-80026D01*
X-122327Y-80009D01*
Y-79957D01*
X-122345Y-79887D01*
X-122362Y-79801D01*
X-122379Y-79697D01*
X-122431Y-79436D01*
X-122484Y-79124D01*
X-122518Y-78777D01*
X-122535Y-78378D01*
X-122553Y-77944D01*
Y-77927D01*
Y-77892D01*
Y-77823D01*
Y-77719D01*
X-122535Y-77615D01*
Y-77476D01*
X-122518Y-77164D01*
X-122484Y-76817D01*
X-122414Y-76435D01*
X-122345Y-76036D01*
X-122241Y-75672D01*
Y-75655D01*
X-122223Y-75637D01*
X-122206Y-75585D01*
X-122189Y-75516D01*
X-122119Y-75342D01*
X-122015Y-75117D01*
X-121894Y-74874D01*
X-121737Y-74614D01*
X-121564Y-74353D01*
X-121356Y-74111D01*
X-121321Y-74076D01*
X-121252Y-74007D01*
X-121130Y-73902D01*
X-120974Y-73764D01*
X-120783Y-73608D01*
X-120558Y-73451D01*
X-120298Y-73313D01*
X-120020Y-73191D01*
X-120003D01*
X-119985Y-73174D01*
X-119881Y-73139D01*
X-119725Y-73087D01*
X-119534Y-73035D01*
X-119291Y-72983D01*
X-119014Y-72931D01*
X-118702Y-72896D01*
X-118389Y-72879D01*
X-118216D01*
X-118112Y-72896D01*
D02*
G37*
G36*
X107918Y-69635D02*
X108005Y-69669D01*
X108022D01*
X108091Y-69704D01*
X108178Y-69739D01*
X108265Y-69808D01*
X108282Y-69826D01*
X108334Y-69878D01*
X108404Y-69964D01*
X108456Y-70068D01*
X108473Y-70103D01*
X108490Y-70173D01*
X108508Y-70294D01*
X108525Y-70433D01*
Y-82299D01*
Y-82316D01*
Y-82368D01*
X108490Y-82438D01*
X108456Y-82524D01*
X108438Y-82542D01*
X108404Y-82577D01*
X108352Y-82628D01*
X108265Y-82663D01*
X108248D01*
X108195Y-82681D01*
X108109Y-82698D01*
X108022Y-82715D01*
X108005D01*
X107935Y-82733D01*
X107831Y-82750D01*
X107588D01*
X107484Y-82733D01*
X107380Y-82715D01*
X107363D01*
X107311Y-82698D01*
X107224Y-82681D01*
X107137Y-82663D01*
X107120Y-82646D01*
X107085Y-82628D01*
X106964Y-82524D01*
Y-82507D01*
X106946Y-82455D01*
X106929Y-82386D01*
X106912Y-82299D01*
Y-71796D01*
X102297Y-82455D01*
Y-82472D01*
X102262Y-82507D01*
X102176Y-82611D01*
X102158D01*
X102124Y-82646D01*
X102072Y-82663D01*
X102002Y-82698D01*
X101985D01*
X101950Y-82715D01*
X101881D01*
X101811Y-82733D01*
X101742D01*
X101655Y-82750D01*
X101360D01*
X101274Y-82733D01*
X101256D01*
X101204Y-82715D01*
X101135Y-82698D01*
X101065Y-82681D01*
X101048D01*
X101013Y-82663D01*
X100892Y-82594D01*
X100875Y-82577D01*
X100857Y-82542D01*
X100823Y-82490D01*
X100805Y-82438D01*
X96468Y-71916D01*
Y-82299D01*
Y-82316D01*
Y-82368D01*
X96433Y-82438D01*
X96399Y-82524D01*
X96381Y-82542D01*
X96347Y-82577D01*
X96295Y-82628D01*
X96208Y-82663D01*
X96191D01*
X96138Y-82681D01*
X96052Y-82698D01*
X95965Y-82715D01*
X95948D01*
X95878Y-82733D01*
X95774Y-82750D01*
X95514D01*
X95410Y-82733D01*
X95306Y-82715D01*
X95288D01*
X95236Y-82698D01*
X95150Y-82681D01*
X95063Y-82663D01*
X95046Y-82646D01*
X94994Y-82628D01*
X94942Y-82577D01*
X94889Y-82507D01*
Y-82490D01*
X94872Y-82438D01*
X94855Y-82368D01*
Y-82299D01*
Y-70433D01*
Y-70415D01*
Y-70363D01*
X94872Y-70277D01*
X94889Y-70190D01*
X94959Y-69982D01*
X95011Y-69878D01*
X95098Y-69808D01*
X95115Y-69791D01*
X95150Y-69774D01*
X95202Y-69739D01*
X95254Y-69704D01*
X95427Y-69652D01*
X95514Y-69617D01*
X96416D01*
X96572Y-69652D01*
X96746Y-69687D01*
X96763D01*
X96780Y-69704D01*
X96884Y-69739D01*
X97006Y-69791D01*
X97145Y-69878D01*
X97179Y-69895D01*
X97249Y-69964D01*
X97336Y-70051D01*
X97422Y-70173D01*
X97440Y-70207D01*
X97457Y-70242D01*
X97492Y-70311D01*
X97526Y-70398D01*
X97561Y-70502D01*
X97596Y-70641D01*
X97631Y-70814D01*
X101639Y-80213D01*
X105836Y-70571D01*
Y-70554D01*
X105854Y-70537D01*
X105888Y-70433D01*
X105958Y-70294D01*
X106044Y-70155D01*
Y-70138D01*
X106062Y-70121D01*
X106131Y-70051D01*
X106235Y-69947D01*
X106339Y-69843D01*
X106374Y-69826D01*
X106443Y-69774D01*
X106547Y-69721D01*
X106669Y-69669D01*
X106686D01*
X106704Y-69652D01*
X106790Y-69635D01*
X106912Y-69617D01*
X107831D01*
X107918Y-69635D01*
D02*
G37*
G36*
X-23477Y-73000D02*
X-23373Y-73018D01*
X-23338D01*
X-23286Y-73035D01*
X-23200Y-73052D01*
X-23113Y-73087D01*
X-23096Y-73104D01*
X-23061Y-73122D01*
X-23009Y-73174D01*
X-22957Y-73243D01*
X-22940Y-73260D01*
X-22922Y-73295D01*
X-22905Y-73365D01*
X-22887Y-73434D01*
Y-82299D01*
Y-82316D01*
Y-82368D01*
X-22922Y-82438D01*
X-22957Y-82507D01*
X-22974Y-82524D01*
X-22991Y-82559D01*
X-23044Y-82611D01*
X-23130Y-82663D01*
X-23148D01*
X-23200Y-82681D01*
X-23269Y-82698D01*
X-23373Y-82715D01*
X-23391D01*
X-23460Y-82733D01*
X-23547Y-82750D01*
X-23772D01*
X-23894Y-82733D01*
X-23998Y-82715D01*
X-24015D01*
X-24067Y-82698D01*
X-24137Y-82681D01*
X-24223Y-82663D01*
X-24241Y-82646D01*
X-24275Y-82628D01*
X-24327Y-82577D01*
X-24379Y-82507D01*
Y-82490D01*
X-24397Y-82438D01*
X-24414Y-82368D01*
X-24431Y-82299D01*
Y-81275D01*
X-24449Y-81293D01*
X-24501Y-81397D01*
X-24605Y-81536D01*
X-24744Y-81709D01*
X-24900Y-81917D01*
X-25108Y-82108D01*
X-25351Y-82299D01*
X-25628Y-82472D01*
X-25663Y-82490D01*
X-25767Y-82542D01*
X-25906Y-82594D01*
X-26114Y-82663D01*
X-26340Y-82750D01*
X-26600Y-82802D01*
X-26878Y-82854D01*
X-27173Y-82871D01*
X-27329D01*
X-27502Y-82854D01*
X-27710Y-82837D01*
X-27953Y-82802D01*
X-28213Y-82733D01*
X-28474Y-82663D01*
X-28734Y-82559D01*
X-28768Y-82542D01*
X-28838Y-82507D01*
X-28959Y-82438D01*
X-29098Y-82334D01*
X-29272Y-82212D01*
X-29445Y-82073D01*
X-29619Y-81900D01*
X-29775Y-81709D01*
X-29792Y-81692D01*
X-29844Y-81605D01*
X-29913Y-81501D01*
X-30000Y-81345D01*
X-30087Y-81171D01*
X-30191Y-80963D01*
X-30278Y-80720D01*
X-30347Y-80477D01*
Y-80443D01*
X-30364Y-80356D01*
X-30399Y-80200D01*
X-30417Y-80009D01*
X-30451Y-79766D01*
X-30486Y-79471D01*
X-30503Y-79159D01*
Y-78795D01*
Y-73434D01*
Y-73417D01*
Y-73365D01*
X-30469Y-73243D01*
X-30451Y-73226D01*
X-30434Y-73191D01*
X-30382Y-73139D01*
X-30312Y-73087D01*
X-30295Y-73070D01*
X-30226Y-73052D01*
X-30156Y-73035D01*
X-30052Y-73018D01*
X-30018D01*
X-29948Y-73000D01*
X-29844Y-72983D01*
X-29619D01*
X-29515Y-73000D01*
X-29410Y-73018D01*
X-29376D01*
X-29324Y-73035D01*
X-29237Y-73052D01*
X-29150Y-73087D01*
X-29133Y-73104D01*
X-29098Y-73122D01*
X-29046Y-73174D01*
X-28994Y-73243D01*
X-28977Y-73260D01*
X-28959Y-73295D01*
X-28942Y-73365D01*
X-28925Y-73434D01*
Y-78691D01*
Y-78725D01*
Y-78829D01*
Y-78968D01*
X-28907Y-79159D01*
X-28890Y-79350D01*
X-28873Y-79575D01*
X-28838Y-79783D01*
X-28803Y-79992D01*
Y-80009D01*
X-28786Y-80078D01*
X-28751Y-80165D01*
X-28716Y-80269D01*
X-28612Y-80547D01*
X-28456Y-80807D01*
X-28439Y-80824D01*
X-28421Y-80859D01*
X-28370Y-80928D01*
X-28300Y-80998D01*
X-28127Y-81154D01*
X-27884Y-81310D01*
X-27866D01*
X-27814Y-81345D01*
X-27745Y-81362D01*
X-27641Y-81397D01*
X-27519Y-81432D01*
X-27381Y-81449D01*
X-27225Y-81484D01*
X-26947D01*
X-26825Y-81466D01*
X-26669Y-81432D01*
X-26479Y-81379D01*
X-26270Y-81293D01*
X-26045Y-81189D01*
X-25819Y-81032D01*
X-25785Y-81015D01*
X-25715Y-80946D01*
X-25576Y-80842D01*
X-25403Y-80703D01*
X-25212Y-80512D01*
X-24969Y-80287D01*
X-24726Y-80026D01*
X-24466Y-79731D01*
Y-73434D01*
Y-73417D01*
Y-73365D01*
X-24431Y-73243D01*
X-24414Y-73226D01*
X-24397Y-73191D01*
X-24345Y-73139D01*
X-24275Y-73087D01*
X-24258Y-73070D01*
X-24189Y-73052D01*
X-24119Y-73035D01*
X-24015Y-73018D01*
X-23980D01*
X-23911Y-73000D01*
X-23807Y-72983D01*
X-23581D01*
X-23477Y-73000D01*
D02*
G37*
G36*
X136074Y-69583D02*
X136178Y-69600D01*
X136195D01*
X136265Y-69617D01*
X136352Y-69635D01*
X136438Y-69669D01*
X136456Y-69687D01*
X136508Y-69704D01*
X136560Y-69756D01*
X136612Y-69826D01*
X136629Y-69843D01*
X136647Y-69878D01*
X136664Y-69947D01*
X136681Y-70016D01*
Y-82299D01*
Y-82316D01*
Y-82368D01*
X136647Y-82438D01*
X136612Y-82507D01*
X136594Y-82524D01*
X136560Y-82559D01*
X136508Y-82611D01*
X136421Y-82663D01*
X136404D01*
X136352Y-82681D01*
X136282Y-82698D01*
X136195Y-82715D01*
X136178D01*
X136109Y-82733D01*
X136005Y-82750D01*
X135744D01*
X135640Y-82733D01*
X135536Y-82715D01*
X135519D01*
X135467Y-82698D01*
X135380Y-82681D01*
X135293Y-82663D01*
X135276Y-82646D01*
X135241Y-82628D01*
X135120Y-82524D01*
Y-82507D01*
X135103Y-82455D01*
X135085Y-82386D01*
X135068Y-82299D01*
Y-70016D01*
Y-69999D01*
Y-69947D01*
X135085Y-69878D01*
X135120Y-69808D01*
X135137Y-69791D01*
X135172Y-69756D01*
X135224Y-69704D01*
X135311Y-69669D01*
X135328Y-69652D01*
X135380Y-69635D01*
X135467Y-69617D01*
X135554Y-69600D01*
X135571D01*
X135640Y-69583D01*
X135744Y-69565D01*
X135970D01*
X136074Y-69583D01*
D02*
G37*
G36*
X131165D02*
X131269Y-69600D01*
X131286D01*
X131355Y-69617D01*
X131442Y-69635D01*
X131529Y-69669D01*
X131546Y-69687D01*
X131598Y-69704D01*
X131650Y-69756D01*
X131702Y-69826D01*
X131720Y-69843D01*
X131737Y-69878D01*
X131754Y-69947D01*
X131772Y-70016D01*
Y-82299D01*
Y-82316D01*
Y-82368D01*
X131737Y-82438D01*
X131702Y-82507D01*
X131685Y-82524D01*
X131650Y-82559D01*
X131598Y-82611D01*
X131511Y-82663D01*
X131494D01*
X131442Y-82681D01*
X131373Y-82698D01*
X131286Y-82715D01*
X131269D01*
X131199Y-82733D01*
X131095Y-82750D01*
X130835D01*
X130731Y-82733D01*
X130627Y-82715D01*
X130609D01*
X130557Y-82698D01*
X130471Y-82681D01*
X130384Y-82663D01*
X130366Y-82646D01*
X130332Y-82628D01*
X130210Y-82524D01*
Y-82507D01*
X130193Y-82455D01*
X130176Y-82386D01*
X130158Y-82299D01*
Y-70016D01*
Y-69999D01*
Y-69947D01*
X130176Y-69878D01*
X130210Y-69808D01*
X130228Y-69791D01*
X130262Y-69756D01*
X130315Y-69704D01*
X130401Y-69669D01*
X130419Y-69652D01*
X130471Y-69635D01*
X130557Y-69617D01*
X130644Y-69600D01*
X130661D01*
X130731Y-69583D01*
X130835Y-69565D01*
X131060D01*
X131165Y-69583D01*
D02*
G37*
G36*
X126255D02*
X126359Y-69600D01*
X126376D01*
X126446Y-69617D01*
X126533Y-69635D01*
X126619Y-69669D01*
X126637Y-69687D01*
X126689Y-69704D01*
X126741Y-69756D01*
X126793Y-69826D01*
X126810Y-69843D01*
X126827Y-69878D01*
X126845Y-69947D01*
X126862Y-70016D01*
Y-82299D01*
Y-82316D01*
Y-82368D01*
X126827Y-82438D01*
X126793Y-82507D01*
X126776Y-82524D01*
X126741Y-82559D01*
X126689Y-82611D01*
X126602Y-82663D01*
X126585D01*
X126533Y-82681D01*
X126463Y-82698D01*
X126376Y-82715D01*
X126359D01*
X126290Y-82733D01*
X126186Y-82750D01*
X125925D01*
X125821Y-82733D01*
X125717Y-82715D01*
X125700D01*
X125648Y-82698D01*
X125561Y-82681D01*
X125474Y-82663D01*
X125457Y-82646D01*
X125422Y-82628D01*
X125301Y-82524D01*
Y-82507D01*
X125283Y-82455D01*
X125266Y-82386D01*
X125249Y-82299D01*
Y-70016D01*
Y-69999D01*
Y-69947D01*
X125266Y-69878D01*
X125301Y-69808D01*
X125318Y-69791D01*
X125353Y-69756D01*
X125405Y-69704D01*
X125492Y-69669D01*
X125509Y-69652D01*
X125561Y-69635D01*
X125648Y-69617D01*
X125735Y-69600D01*
X125752D01*
X125821Y-69583D01*
X125925Y-69565D01*
X126151D01*
X126255Y-69583D01*
D02*
G37*
G36*
X112585Y-68646D02*
X112689Y-68663D01*
X112723D01*
X112775Y-68681D01*
X112862Y-68698D01*
X112949Y-68733D01*
X112966Y-68750D01*
X113001Y-68767D01*
X113053Y-68819D01*
X113105Y-68889D01*
X113122Y-68906D01*
X113140Y-68941D01*
X113157Y-69010D01*
X113174Y-69080D01*
Y-77042D01*
X116575Y-73330D01*
X116592Y-73313D01*
X116627Y-73278D01*
X116679Y-73226D01*
X116748Y-73174D01*
X116766Y-73156D01*
X116818Y-73139D01*
X116887Y-73104D01*
X116974Y-73070D01*
X116991D01*
X117060Y-73052D01*
X117147Y-73035D01*
X117251Y-73018D01*
X117286D01*
X117355Y-73000D01*
X117442Y-72983D01*
X117754D01*
X117876Y-73000D01*
X117910D01*
X117963Y-73018D01*
X118049Y-73035D01*
X118136Y-73070D01*
X118153D01*
X118205Y-73104D01*
X118275Y-73139D01*
X118344Y-73191D01*
X118362Y-73208D01*
X118396Y-73243D01*
X118414Y-73330D01*
X118431Y-73417D01*
Y-73434D01*
X118414Y-73503D01*
X118396Y-73607D01*
X118344Y-73712D01*
X118327Y-73729D01*
X118292Y-73781D01*
X118223Y-73850D01*
X118153Y-73937D01*
X114597Y-77216D01*
X118483Y-81778D01*
X118518Y-81796D01*
X118570Y-81865D01*
X118639Y-81952D01*
X118709Y-82039D01*
X118726Y-82056D01*
X118743Y-82108D01*
X118761Y-82177D01*
X118778Y-82282D01*
Y-82299D01*
Y-82351D01*
X118743Y-82420D01*
X118709Y-82507D01*
X118691Y-82524D01*
X118657Y-82559D01*
X118604Y-82611D01*
X118535Y-82663D01*
X118518D01*
X118466Y-82681D01*
X118396Y-82698D01*
X118292Y-82715D01*
X118275D01*
X118205Y-82733D01*
X118101Y-82750D01*
X117702D01*
X117581Y-82733D01*
X117564D01*
X117494Y-82715D01*
X117407D01*
X117321Y-82698D01*
X117303D01*
X117251Y-82663D01*
X117182Y-82646D01*
X117113Y-82594D01*
X117095Y-82577D01*
X117060Y-82542D01*
X117008Y-82472D01*
X116939Y-82403D01*
X113174Y-77476D01*
Y-82299D01*
Y-82316D01*
Y-82368D01*
X113140Y-82438D01*
X113105Y-82507D01*
X113088Y-82524D01*
X113053Y-82559D01*
X113001Y-82611D01*
X112932Y-82663D01*
X112914D01*
X112862Y-82681D01*
X112793Y-82698D01*
X112706Y-82715D01*
X112689D01*
X112619Y-82733D01*
X112515Y-82750D01*
X112255D01*
X112151Y-82733D01*
X112047Y-82715D01*
X112029D01*
X111977Y-82698D01*
X111891Y-82681D01*
X111804Y-82663D01*
X111787Y-82646D01*
X111735Y-82628D01*
X111683Y-82577D01*
X111630Y-82507D01*
Y-82490D01*
X111613Y-82438D01*
X111596Y-82368D01*
Y-82299D01*
Y-69080D01*
Y-69062D01*
Y-69010D01*
X111630Y-68889D01*
X111648Y-68871D01*
X111665Y-68837D01*
X111717Y-68785D01*
X111787Y-68733D01*
X111804Y-68715D01*
X111873Y-68698D01*
X111943Y-68681D01*
X112047Y-68663D01*
X112081D01*
X112151Y-68646D01*
X112255Y-68629D01*
X112480D01*
X112585Y-68646D01*
D02*
G37*
G36*
X60054Y-72896D02*
X60280Y-72913D01*
X60523Y-72931D01*
X60800Y-72983D01*
X61061Y-73035D01*
X61321Y-73122D01*
X61355Y-73139D01*
X61442Y-73174D01*
X61564Y-73226D01*
X61720Y-73295D01*
X61893Y-73399D01*
X62067Y-73521D01*
X62240Y-73660D01*
X62414Y-73816D01*
X62431Y-73833D01*
X62483Y-73885D01*
X62552Y-73989D01*
X62656Y-74110D01*
X62761Y-74267D01*
X62847Y-74458D01*
X62951Y-74666D01*
X63021Y-74891D01*
X63038Y-74926D01*
X63056Y-74995D01*
X63090Y-75134D01*
X63125Y-75308D01*
X63160Y-75516D01*
X63177Y-75759D01*
X63212Y-76036D01*
Y-76314D01*
Y-82299D01*
Y-82334D01*
X63194Y-82403D01*
X63160Y-82507D01*
X63090Y-82594D01*
X63073Y-82611D01*
X63021Y-82646D01*
X62934Y-82681D01*
X62830Y-82715D01*
X62813D01*
X62743Y-82733D01*
X62622Y-82750D01*
X62362D01*
X62257Y-82733D01*
X62136Y-82715D01*
X62119D01*
X62049Y-82698D01*
X61963Y-82663D01*
X61876Y-82594D01*
X61859Y-82577D01*
X61824Y-82524D01*
X61772Y-82420D01*
X61754Y-82299D01*
Y-81518D01*
X61737Y-81553D01*
X61702Y-81622D01*
X61633Y-81726D01*
X61529Y-81865D01*
X61373Y-82021D01*
X61199Y-82195D01*
X60974Y-82351D01*
X60714Y-82507D01*
X60679Y-82524D01*
X60592Y-82559D01*
X60436Y-82628D01*
X60245Y-82681D01*
X60002Y-82750D01*
X59742Y-82819D01*
X59447Y-82854D01*
X59135Y-82871D01*
X59013D01*
X58875Y-82854D01*
X58701D01*
X58493Y-82819D01*
X58267Y-82785D01*
X58042Y-82750D01*
X57816Y-82681D01*
X57799Y-82663D01*
X57712Y-82646D01*
X57608Y-82594D01*
X57469Y-82542D01*
X57313Y-82455D01*
X57140Y-82368D01*
X56810Y-82125D01*
X56793Y-82108D01*
X56741Y-82056D01*
X56671Y-81987D01*
X56567Y-81882D01*
X56463Y-81744D01*
X56359Y-81605D01*
X56255Y-81432D01*
X56168Y-81241D01*
Y-81223D01*
X56134Y-81154D01*
X56099Y-81050D01*
X56064Y-80894D01*
X56030Y-80720D01*
X55995Y-80529D01*
X55978Y-80304D01*
X55960Y-80078D01*
Y-80061D01*
Y-80044D01*
Y-79939D01*
X55978Y-79801D01*
X55995Y-79610D01*
X56030Y-79384D01*
X56099Y-79159D01*
X56168Y-78933D01*
X56272Y-78708D01*
X56290Y-78673D01*
X56342Y-78604D01*
X56411Y-78500D01*
X56515Y-78361D01*
X56637Y-78205D01*
X56793Y-78049D01*
X56984Y-77892D01*
X57192Y-77736D01*
X57227Y-77719D01*
X57296Y-77667D01*
X57435Y-77597D01*
X57591Y-77511D01*
X57799Y-77424D01*
X58042Y-77320D01*
X58320Y-77233D01*
X58614Y-77147D01*
X58632D01*
X58649Y-77129D01*
X58753Y-77112D01*
X58927Y-77077D01*
X59152Y-77042D01*
X59412Y-77008D01*
X59725Y-76990D01*
X60054Y-76956D01*
X61633D01*
Y-76400D01*
Y-76383D01*
Y-76314D01*
Y-76210D01*
X61616Y-76088D01*
X61598Y-75932D01*
X61581Y-75776D01*
X61512Y-75464D01*
Y-75446D01*
X61494Y-75394D01*
X61459Y-75325D01*
X61425Y-75238D01*
X61321Y-75030D01*
X61165Y-74822D01*
X61147Y-74805D01*
X61130Y-74770D01*
X61078Y-74735D01*
X61008Y-74666D01*
X60922Y-74614D01*
X60818Y-74544D01*
X60557Y-74423D01*
X60540D01*
X60488Y-74405D01*
X60401Y-74371D01*
X60297Y-74353D01*
X60158Y-74319D01*
X60002Y-74301D01*
X59829Y-74284D01*
X59430D01*
X59291Y-74301D01*
X59135Y-74319D01*
X58961Y-74336D01*
X58614Y-74423D01*
X58597D01*
X58545Y-74440D01*
X58458Y-74475D01*
X58354Y-74510D01*
X58094Y-74614D01*
X57816Y-74735D01*
X57799D01*
X57764Y-74770D01*
X57695Y-74805D01*
X57608Y-74839D01*
X57417Y-74943D01*
X57209Y-75065D01*
X57192D01*
X57175Y-75082D01*
X57070Y-75134D01*
X56932Y-75186D01*
X56810Y-75203D01*
X56741D01*
X56671Y-75186D01*
X56602Y-75169D01*
X56585D01*
X56550Y-75134D01*
X56498Y-75099D01*
X56446Y-75047D01*
Y-75030D01*
X56411Y-74978D01*
X56394Y-74909D01*
X56377Y-74839D01*
Y-74822D01*
Y-74770D01*
X56359Y-74683D01*
Y-74579D01*
Y-74562D01*
Y-74544D01*
Y-74440D01*
X56377Y-74301D01*
X56394Y-74180D01*
Y-74145D01*
X56428Y-74076D01*
X56481Y-73989D01*
X56567Y-73885D01*
X56602Y-73850D01*
X56689Y-73781D01*
X56845Y-73677D01*
X57053Y-73555D01*
X57070Y-73538D01*
X57122Y-73521D01*
X57192Y-73486D01*
X57279Y-73434D01*
X57400Y-73382D01*
X57521Y-73330D01*
X57816Y-73226D01*
X57834D01*
X57886Y-73191D01*
X57972Y-73174D01*
X58094Y-73139D01*
X58233Y-73104D01*
X58389Y-73052D01*
X58736Y-72983D01*
X58753D01*
X58823Y-72966D01*
X58927Y-72948D01*
X59048Y-72931D01*
X59204Y-72913D01*
X59360Y-72896D01*
X59725Y-72879D01*
X59881D01*
X60054Y-72896D01*
D02*
G37*
G36*
X-19036Y-68646D02*
X-18932Y-68663D01*
X-18897D01*
X-18845Y-68681D01*
X-18759Y-68698D01*
X-18672Y-68733D01*
X-18655Y-68750D01*
X-18620Y-68767D01*
X-18568Y-68819D01*
X-18516Y-68889D01*
X-18498Y-68906D01*
X-18481Y-68941D01*
X-18464Y-69010D01*
X-18446Y-69080D01*
Y-82299D01*
Y-82316D01*
Y-82368D01*
X-18481Y-82438D01*
X-18516Y-82507D01*
X-18533Y-82524D01*
X-18568Y-82559D01*
X-18620Y-82611D01*
X-18689Y-82663D01*
X-18707D01*
X-18759Y-82681D01*
X-18828Y-82698D01*
X-18915Y-82715D01*
X-18932D01*
X-19001Y-82733D01*
X-19105Y-82750D01*
X-19366D01*
X-19470Y-82733D01*
X-19574Y-82715D01*
X-19591D01*
X-19643Y-82698D01*
X-19730Y-82681D01*
X-19817Y-82663D01*
X-19834Y-82646D01*
X-19886Y-82628D01*
X-19938Y-82577D01*
X-19990Y-82507D01*
Y-82490D01*
X-20008Y-82438D01*
X-20025Y-82368D01*
Y-82299D01*
Y-69080D01*
Y-69062D01*
Y-69010D01*
X-19990Y-68889D01*
X-19973Y-68871D01*
X-19956Y-68837D01*
X-19904Y-68785D01*
X-19834Y-68733D01*
X-19817Y-68715D01*
X-19747Y-68698D01*
X-19678Y-68681D01*
X-19574Y-68663D01*
X-19539D01*
X-19470Y-68646D01*
X-19366Y-68629D01*
X-19140D01*
X-19036Y-68646D01*
D02*
G37*
G36*
X-36783Y-69635D02*
X-36662D01*
X-36384Y-69669D01*
X-36315D01*
X-36228Y-69687D01*
X-36124Y-69704D01*
X-35985Y-69721D01*
X-35829Y-69756D01*
X-35482Y-69826D01*
X-35465D01*
X-35396Y-69843D01*
X-35291Y-69878D01*
X-35170Y-69912D01*
X-35014Y-69982D01*
X-34823Y-70051D01*
X-34632Y-70138D01*
X-34441Y-70259D01*
X-34424Y-70277D01*
X-34355Y-70311D01*
X-34251Y-70381D01*
X-34129Y-70485D01*
X-33990Y-70606D01*
X-33834Y-70728D01*
X-33678Y-70884D01*
X-33539Y-71057D01*
X-33522Y-71075D01*
X-33470Y-71144D01*
X-33400Y-71231D01*
X-33314Y-71370D01*
X-33227Y-71526D01*
X-33123Y-71716D01*
X-33036Y-71907D01*
X-32949Y-72133D01*
X-32932Y-72168D01*
X-32915Y-72237D01*
X-32880Y-72358D01*
X-32845Y-72532D01*
X-32811Y-72723D01*
X-32776Y-72948D01*
X-32741Y-73191D01*
Y-73451D01*
Y-73469D01*
Y-73486D01*
Y-73538D01*
Y-73608D01*
X-32759Y-73781D01*
X-32776Y-74007D01*
X-32828Y-74267D01*
X-32880Y-74562D01*
X-32967Y-74857D01*
X-33071Y-75152D01*
X-33088Y-75186D01*
X-33123Y-75273D01*
X-33192Y-75429D01*
X-33296Y-75602D01*
X-33435Y-75828D01*
X-33574Y-76036D01*
X-33765Y-76262D01*
X-33973Y-76487D01*
X-34008Y-76505D01*
X-34077Y-76574D01*
X-34199Y-76678D01*
X-34372Y-76800D01*
X-34580Y-76938D01*
X-34823Y-77094D01*
X-35101Y-77233D01*
X-35413Y-77355D01*
X-35430D01*
X-35448Y-77372D01*
X-35500Y-77389D01*
X-35569Y-77407D01*
X-35742Y-77441D01*
X-35968Y-77494D01*
X-36263Y-77563D01*
X-36610Y-77598D01*
X-36992Y-77632D01*
X-37425Y-77650D01*
X-38848D01*
Y-82299D01*
Y-82316D01*
Y-82368D01*
X-38883Y-82438D01*
X-38917Y-82507D01*
X-38935Y-82524D01*
X-38969Y-82559D01*
X-39021Y-82611D01*
X-39108Y-82663D01*
X-39125D01*
X-39177Y-82681D01*
X-39247Y-82698D01*
X-39334Y-82715D01*
X-39351D01*
X-39420Y-82733D01*
X-39524Y-82750D01*
X-39785D01*
X-39889Y-82733D01*
X-39993Y-82715D01*
X-40010D01*
X-40062Y-82698D01*
X-40149Y-82681D01*
X-40236Y-82663D01*
X-40253Y-82646D01*
X-40288Y-82628D01*
X-40409Y-82524D01*
Y-82507D01*
X-40427Y-82455D01*
X-40444Y-82386D01*
X-40461Y-82299D01*
Y-70433D01*
Y-70415D01*
Y-70363D01*
X-40444Y-70277D01*
X-40427Y-70190D01*
X-40357Y-69982D01*
X-40305Y-69878D01*
X-40218Y-69808D01*
X-40201Y-69791D01*
X-40166Y-69774D01*
X-40114Y-69739D01*
X-40062Y-69704D01*
X-39889Y-69652D01*
X-39802Y-69617D01*
X-36905D01*
X-36783Y-69635D01*
D02*
G37*
G36*
X-125363Y-73000D02*
X-125259Y-73018D01*
X-125225D01*
X-125172Y-73035D01*
X-125086Y-73052D01*
X-124999Y-73087D01*
X-124982Y-73104D01*
X-124947Y-73122D01*
X-124895Y-73174D01*
X-124843Y-73243D01*
X-124825Y-73260D01*
X-124808Y-73295D01*
X-124791Y-73365D01*
X-124773Y-73434D01*
Y-82299D01*
Y-82316D01*
Y-82368D01*
X-124808Y-82438D01*
X-124843Y-82507D01*
X-124860Y-82524D01*
X-124895Y-82559D01*
X-124947Y-82611D01*
X-125016Y-82663D01*
X-125034D01*
X-125086Y-82681D01*
X-125155Y-82698D01*
X-125242Y-82715D01*
X-125259D01*
X-125329Y-82733D01*
X-125433Y-82750D01*
X-125693D01*
X-125797Y-82733D01*
X-125901Y-82715D01*
X-125918D01*
X-125970Y-82698D01*
X-126057Y-82681D01*
X-126144Y-82663D01*
X-126161Y-82646D01*
X-126213Y-82628D01*
X-126265Y-82577D01*
X-126317Y-82507D01*
Y-82490D01*
X-126335Y-82438D01*
X-126352Y-82368D01*
Y-82299D01*
Y-73434D01*
Y-73417D01*
Y-73365D01*
X-126317Y-73243D01*
X-126300Y-73226D01*
X-126283Y-73191D01*
X-126231Y-73139D01*
X-126161Y-73087D01*
X-126144Y-73070D01*
X-126075Y-73052D01*
X-126005Y-73035D01*
X-125901Y-73018D01*
X-125866D01*
X-125797Y-73000D01*
X-125693Y-72983D01*
X-125467D01*
X-125363Y-73000D01*
D02*
G37*
G36*
X-132667Y-69635D02*
X-132545D01*
X-132268Y-69669D01*
X-132198D01*
X-132112Y-69687D01*
X-132008Y-69704D01*
X-131869Y-69721D01*
X-131713Y-69756D01*
X-131366Y-69826D01*
X-131348D01*
X-131279Y-69843D01*
X-131175Y-69878D01*
X-131053Y-69912D01*
X-130897Y-69982D01*
X-130707Y-70051D01*
X-130516Y-70138D01*
X-130325Y-70259D01*
X-130308Y-70277D01*
X-130238Y-70311D01*
X-130134Y-70381D01*
X-130013Y-70485D01*
X-129874Y-70606D01*
X-129718Y-70728D01*
X-129562Y-70884D01*
X-129423Y-71057D01*
X-129405Y-71075D01*
X-129353Y-71144D01*
X-129284Y-71231D01*
X-129197Y-71370D01*
X-129110Y-71526D01*
X-129006Y-71716D01*
X-128920Y-71907D01*
X-128833Y-72133D01*
X-128816Y-72168D01*
X-128798Y-72237D01*
X-128764Y-72358D01*
X-128729Y-72532D01*
X-128694Y-72723D01*
X-128659Y-72948D01*
X-128625Y-73191D01*
Y-73451D01*
Y-73469D01*
Y-73486D01*
Y-73538D01*
Y-73608D01*
X-128642Y-73781D01*
X-128659Y-74007D01*
X-128712Y-74267D01*
X-128764Y-74562D01*
X-128850Y-74857D01*
X-128954Y-75152D01*
X-128972Y-75186D01*
X-129006Y-75273D01*
X-129076Y-75429D01*
X-129180Y-75602D01*
X-129319Y-75828D01*
X-129458Y-76036D01*
X-129648Y-76262D01*
X-129857Y-76487D01*
X-129891Y-76505D01*
X-129960Y-76574D01*
X-130082Y-76678D01*
X-130255Y-76800D01*
X-130464Y-76938D01*
X-130707Y-77094D01*
X-130984Y-77233D01*
X-131296Y-77355D01*
X-131314D01*
X-131331Y-77372D01*
X-131383Y-77389D01*
X-131453Y-77407D01*
X-131626Y-77441D01*
X-131852Y-77494D01*
X-132146Y-77563D01*
X-132493Y-77598D01*
X-132875Y-77632D01*
X-133309Y-77650D01*
X-134731D01*
Y-82299D01*
Y-82316D01*
Y-82368D01*
X-134766Y-82438D01*
X-134801Y-82507D01*
X-134818Y-82524D01*
X-134853Y-82559D01*
X-134905Y-82611D01*
X-134992Y-82663D01*
X-135009D01*
X-135061Y-82681D01*
X-135130Y-82698D01*
X-135217Y-82715D01*
X-135234D01*
X-135304Y-82733D01*
X-135408Y-82750D01*
X-135668D01*
X-135772Y-82733D01*
X-135876Y-82715D01*
X-135894D01*
X-135946Y-82698D01*
X-136032Y-82681D01*
X-136119Y-82663D01*
X-136137Y-82646D01*
X-136171Y-82628D01*
X-136293Y-82524D01*
Y-82507D01*
X-136310Y-82455D01*
X-136327Y-82386D01*
X-136345Y-82299D01*
Y-70433D01*
Y-70415D01*
Y-70363D01*
X-136327Y-70277D01*
X-136310Y-70190D01*
X-136241Y-69982D01*
X-136189Y-69878D01*
X-136102Y-69808D01*
X-136084Y-69791D01*
X-136050Y-69774D01*
X-135998Y-69739D01*
X-135946Y-69704D01*
X-135772Y-69652D01*
X-135686Y-69617D01*
X-132788D01*
X-132667Y-69635D01*
D02*
G37*
G36*
X67393Y-70624D02*
X67497Y-70641D01*
X67531D01*
X67583Y-70658D01*
X67670Y-70676D01*
X67757Y-70710D01*
X67774Y-70728D01*
X67809Y-70745D01*
X67861Y-70797D01*
X67913Y-70866D01*
X67930Y-70884D01*
X67948Y-70918D01*
X67965Y-70988D01*
X67982Y-71057D01*
Y-73035D01*
X70307D01*
X70377Y-73070D01*
X70446Y-73104D01*
X70463Y-73122D01*
X70515Y-73139D01*
X70567Y-73191D01*
X70619Y-73260D01*
X70637Y-73278D01*
X70654Y-73313D01*
X70689Y-73399D01*
X70706Y-73486D01*
Y-73503D01*
X70723Y-73555D01*
X70741Y-73642D01*
Y-73729D01*
Y-73746D01*
Y-73781D01*
Y-73833D01*
X70723Y-73902D01*
X70689Y-74076D01*
X70602Y-74232D01*
X70585Y-74267D01*
X70498Y-74319D01*
X70377Y-74388D01*
X70307Y-74405D01*
X70220Y-74423D01*
X67982D01*
Y-79575D01*
Y-79593D01*
Y-79610D01*
Y-79662D01*
Y-79731D01*
X68000Y-79905D01*
X68017Y-80113D01*
X68035Y-80338D01*
X68087Y-80564D01*
X68138Y-80790D01*
X68225Y-80980D01*
X68243Y-80998D01*
X68277Y-81050D01*
X68329Y-81119D01*
X68433Y-81206D01*
X68555Y-81293D01*
X68694Y-81362D01*
X68885Y-81414D01*
X69110Y-81432D01*
X69232D01*
X69353Y-81414D01*
X69492Y-81397D01*
X69509D01*
X69526Y-81379D01*
X69596Y-81362D01*
X69700Y-81327D01*
X69804Y-81293D01*
X69821Y-81275D01*
X69891Y-81258D01*
X69977Y-81223D01*
X70064Y-81189D01*
X70082Y-81171D01*
X70151Y-81154D01*
X70220Y-81137D01*
X70324Y-81119D01*
X70377D01*
X70429Y-81137D01*
X70498Y-81171D01*
X70515Y-81189D01*
X70550Y-81206D01*
X70602Y-81258D01*
X70637Y-81327D01*
X70654Y-81345D01*
X70671Y-81379D01*
X70689Y-81449D01*
X70706Y-81518D01*
Y-81536D01*
X70723Y-81588D01*
X70741Y-81657D01*
Y-81761D01*
Y-81778D01*
Y-81796D01*
Y-81900D01*
X70723Y-82021D01*
X70689Y-82160D01*
X70671Y-82195D01*
X70654Y-82264D01*
X70602Y-82351D01*
X70533Y-82438D01*
X70515Y-82455D01*
X70463Y-82507D01*
X70377Y-82559D01*
X70255Y-82628D01*
X70220Y-82646D01*
X70151Y-82663D01*
X70030Y-82698D01*
X69873Y-82733D01*
X69839D01*
X69752Y-82767D01*
X69630Y-82785D01*
X69474Y-82802D01*
X69440D01*
X69336Y-82819D01*
X69197Y-82837D01*
X68919D01*
X68798Y-82819D01*
X68624D01*
X68433Y-82785D01*
X68243Y-82750D01*
X68035Y-82715D01*
X67826Y-82646D01*
X67809Y-82628D01*
X67740Y-82611D01*
X67653Y-82559D01*
X67531Y-82507D01*
X67410Y-82420D01*
X67271Y-82316D01*
X67132Y-82195D01*
X66994Y-82056D01*
X66976Y-82039D01*
X66941Y-81987D01*
X66890Y-81900D01*
X66820Y-81778D01*
X66751Y-81640D01*
X66664Y-81483D01*
X66595Y-81293D01*
X66543Y-81084D01*
Y-81050D01*
X66525Y-80980D01*
X66508Y-80859D01*
X66473Y-80703D01*
X66456Y-80495D01*
X66421Y-80269D01*
X66404Y-80009D01*
Y-79731D01*
Y-74423D01*
X65241D01*
X65137Y-74405D01*
X65016Y-74336D01*
X64964Y-74301D01*
X64912Y-74232D01*
Y-74215D01*
X64894Y-74197D01*
X64860Y-74093D01*
X64808Y-73937D01*
X64790Y-73729D01*
Y-73712D01*
Y-73642D01*
Y-73555D01*
X64808Y-73469D01*
Y-73451D01*
X64825Y-73399D01*
X64877Y-73260D01*
X64894Y-73243D01*
X64929Y-73208D01*
X64981Y-73156D01*
X65051Y-73104D01*
X65068Y-73087D01*
X65120Y-73070D01*
X65189Y-73052D01*
X65276Y-73035D01*
X66404D01*
Y-71057D01*
Y-71040D01*
Y-70988D01*
X66438Y-70866D01*
X66456Y-70849D01*
X66473Y-70814D01*
X66525Y-70762D01*
X66595Y-70710D01*
X66612Y-70693D01*
X66681Y-70676D01*
X66751Y-70658D01*
X66855Y-70641D01*
X66890D01*
X66959Y-70624D01*
X67063Y-70606D01*
X67288D01*
X67393Y-70624D01*
D02*
G37*
G36*
X76830Y-72896D02*
X76934D01*
X77194Y-72913D01*
X77489Y-72966D01*
X77801Y-73018D01*
X78131Y-73104D01*
X78443Y-73226D01*
X78461D01*
X78478Y-73243D01*
X78582Y-73295D01*
X78738Y-73365D01*
X78929Y-73486D01*
X79137Y-73625D01*
X79380Y-73798D01*
X79606Y-74007D01*
X79814Y-74232D01*
X79831Y-74267D01*
X79901Y-74353D01*
X80005Y-74475D01*
X80126Y-74666D01*
X80265Y-74891D01*
X80404Y-75151D01*
X80525Y-75446D01*
X80647Y-75776D01*
Y-75793D01*
X80664Y-75811D01*
X80681Y-75863D01*
X80699Y-75932D01*
X80733Y-76123D01*
X80785Y-76366D01*
X80837Y-76661D01*
X80890Y-77008D01*
X80907Y-77389D01*
X80924Y-77788D01*
Y-77806D01*
Y-77840D01*
Y-77892D01*
Y-77962D01*
Y-78066D01*
X80907Y-78170D01*
X80890Y-78448D01*
X80855Y-78760D01*
X80803Y-79089D01*
X80733Y-79436D01*
X80629Y-79801D01*
Y-79818D01*
X80612Y-79836D01*
X80595Y-79887D01*
X80577Y-79957D01*
X80508Y-80130D01*
X80421Y-80338D01*
X80300Y-80599D01*
X80161Y-80876D01*
X79987Y-81137D01*
X79779Y-81414D01*
X79762Y-81449D01*
X79675Y-81536D01*
X79554Y-81657D01*
X79380Y-81813D01*
X79172Y-81987D01*
X78929Y-82160D01*
X78652Y-82334D01*
X78339Y-82490D01*
X78322D01*
X78305Y-82507D01*
X78253Y-82524D01*
X78183Y-82542D01*
X78010Y-82611D01*
X77767Y-82681D01*
X77489Y-82750D01*
X77142Y-82819D01*
X76778Y-82854D01*
X76362Y-82871D01*
X76188D01*
X76084Y-82854D01*
X75980D01*
X75720Y-82837D01*
X75425Y-82785D01*
X75095Y-82733D01*
X74783Y-82646D01*
X74453Y-82542D01*
X74436D01*
X74419Y-82524D01*
X74314Y-82472D01*
X74158Y-82403D01*
X73985Y-82282D01*
X73759Y-82143D01*
X73534Y-81969D01*
X73308Y-81778D01*
X73083Y-81553D01*
X73065Y-81518D01*
X72996Y-81432D01*
X72892Y-81293D01*
X72771Y-81102D01*
X72632Y-80876D01*
X72510Y-80616D01*
X72372Y-80321D01*
X72267Y-79992D01*
Y-79974D01*
X72250Y-79957D01*
Y-79905D01*
X72233Y-79836D01*
X72181Y-79645D01*
X72146Y-79402D01*
X72094Y-79089D01*
X72042Y-78742D01*
X72024Y-78361D01*
X72007Y-77944D01*
Y-77927D01*
Y-77892D01*
Y-77840D01*
Y-77754D01*
Y-77667D01*
X72024Y-77545D01*
X72042Y-77285D01*
X72077Y-76973D01*
X72111Y-76643D01*
X72181Y-76296D01*
X72267Y-75950D01*
Y-75932D01*
X72285Y-75915D01*
X72302Y-75863D01*
X72319Y-75793D01*
X72389Y-75620D01*
X72476Y-75412D01*
X72597Y-75151D01*
X72736Y-74891D01*
X72909Y-74614D01*
X73117Y-74353D01*
X73152Y-74319D01*
X73222Y-74232D01*
X73343Y-74110D01*
X73517Y-73954D01*
X73725Y-73781D01*
X73967Y-73607D01*
X74228Y-73434D01*
X74540Y-73278D01*
X74557D01*
X74575Y-73260D01*
X74627Y-73243D01*
X74696Y-73208D01*
X74870Y-73156D01*
X75113Y-73070D01*
X75407Y-73000D01*
X75754Y-72948D01*
X76136Y-72896D01*
X76552Y-72879D01*
X76726D01*
X76830Y-72896D01*
D02*
G37*
G36*
X43764D02*
X44007Y-72931D01*
X44285Y-72966D01*
X44597Y-73035D01*
X44892Y-73122D01*
X45187Y-73243D01*
X45204D01*
X45222Y-73260D01*
X45308Y-73313D01*
X45447Y-73382D01*
X45621Y-73486D01*
X45829Y-73625D01*
X46037Y-73798D01*
X46228Y-73989D01*
X46419Y-74197D01*
X46436Y-74232D01*
X46505Y-74301D01*
X46592Y-74423D01*
X46696Y-74596D01*
X46800Y-74787D01*
X46922Y-75030D01*
X47043Y-75290D01*
X47130Y-75568D01*
X47147Y-75602D01*
X47165Y-75707D01*
X47199Y-75863D01*
X47251Y-76054D01*
X47286Y-76296D01*
X47321Y-76574D01*
X47338Y-76869D01*
X47355Y-77181D01*
Y-77424D01*
Y-77441D01*
Y-77493D01*
X47338Y-77580D01*
X47321Y-77684D01*
X47286Y-77788D01*
X47251Y-77892D01*
X47182Y-77997D01*
X47095Y-78066D01*
X47078D01*
X47043Y-78101D01*
X47008Y-78118D01*
X46939Y-78153D01*
X46766Y-78205D01*
X46592Y-78239D01*
X40746D01*
Y-78274D01*
Y-78344D01*
Y-78465D01*
X40763Y-78621D01*
X40780Y-78812D01*
X40798Y-79020D01*
X40884Y-79489D01*
Y-79523D01*
X40919Y-79593D01*
X40954Y-79714D01*
X41006Y-79853D01*
X41075Y-80026D01*
X41162Y-80200D01*
X41266Y-80391D01*
X41388Y-80564D01*
X41405Y-80581D01*
X41457Y-80633D01*
X41526Y-80720D01*
X41631Y-80807D01*
X41752Y-80911D01*
X41908Y-81032D01*
X42082Y-81137D01*
X42272Y-81223D01*
X42307Y-81241D01*
X42376Y-81258D01*
X42498Y-81293D01*
X42654Y-81327D01*
X42862Y-81379D01*
X43105Y-81414D01*
X43365Y-81432D01*
X43678Y-81449D01*
X43886D01*
X44025Y-81432D01*
X44198D01*
X44372Y-81414D01*
X44718Y-81362D01*
X44736D01*
X44805Y-81345D01*
X44892Y-81327D01*
X44996Y-81293D01*
X45256Y-81223D01*
X45534Y-81137D01*
X45551D01*
X45603Y-81119D01*
X45655Y-81084D01*
X45742Y-81050D01*
X45950Y-80963D01*
X46141Y-80876D01*
X46158D01*
X46193Y-80859D01*
X46297Y-80807D01*
X46419Y-80772D01*
X46540Y-80755D01*
X46609D01*
X46679Y-80790D01*
X46766Y-80824D01*
X46783Y-80842D01*
X46818Y-80876D01*
X46870Y-80928D01*
X46904Y-80998D01*
X46922Y-81015D01*
X46939Y-81050D01*
X46956Y-81119D01*
X46974Y-81206D01*
Y-81223D01*
X46991Y-81293D01*
X47008Y-81379D01*
Y-81483D01*
Y-81501D01*
Y-81536D01*
X46991Y-81640D01*
Y-81657D01*
X46974Y-81692D01*
X46956Y-81796D01*
Y-81813D01*
X46939Y-81848D01*
X46887Y-81952D01*
Y-81969D01*
X46870Y-81987D01*
X46783Y-82091D01*
X46766Y-82108D01*
X46714Y-82125D01*
X46662Y-82160D01*
X46592Y-82195D01*
X46523Y-82229D01*
X46419Y-82282D01*
X46401D01*
X46367Y-82299D01*
X46315Y-82334D01*
X46228Y-82368D01*
X46124Y-82403D01*
X46002Y-82455D01*
X45725Y-82559D01*
X45707D01*
X45655Y-82577D01*
X45568Y-82594D01*
X45447Y-82628D01*
X45308Y-82663D01*
X45152Y-82698D01*
X44961Y-82733D01*
X44753Y-82767D01*
X44736D01*
X44649Y-82785D01*
X44545Y-82802D01*
X44389Y-82819D01*
X44198Y-82837D01*
X44007Y-82854D01*
X43782Y-82871D01*
X43365D01*
X43261Y-82854D01*
X43157D01*
X42897Y-82837D01*
X42602Y-82802D01*
X42272Y-82733D01*
X41960Y-82663D01*
X41631Y-82559D01*
X41613D01*
X41596Y-82542D01*
X41492Y-82490D01*
X41336Y-82420D01*
X41145Y-82316D01*
X40919Y-82177D01*
X40694Y-82004D01*
X40451Y-81813D01*
X40225Y-81588D01*
X40208Y-81553D01*
X40139Y-81466D01*
X40034Y-81327D01*
X39896Y-81154D01*
X39757Y-80928D01*
X39618Y-80651D01*
X39479Y-80356D01*
X39358Y-80026D01*
Y-80009D01*
X39341Y-79992D01*
Y-79939D01*
X39323Y-79870D01*
X39288Y-79783D01*
X39271Y-79679D01*
X39219Y-79419D01*
X39167Y-79107D01*
X39132Y-78742D01*
X39098Y-78326D01*
X39080Y-77892D01*
Y-77875D01*
Y-77840D01*
Y-77771D01*
Y-77702D01*
X39098Y-77597D01*
Y-77476D01*
X39115Y-77199D01*
X39150Y-76869D01*
X39202Y-76522D01*
X39271Y-76158D01*
X39375Y-75811D01*
Y-75793D01*
X39393Y-75776D01*
X39410Y-75724D01*
X39427Y-75655D01*
X39497Y-75481D01*
X39601Y-75273D01*
X39705Y-75030D01*
X39861Y-74770D01*
X40034Y-74492D01*
X40225Y-74249D01*
X40260Y-74215D01*
X40329Y-74145D01*
X40451Y-74024D01*
X40607Y-73868D01*
X40815Y-73712D01*
X41041Y-73538D01*
X41301Y-73382D01*
X41596Y-73243D01*
X41613D01*
X41631Y-73226D01*
X41735Y-73191D01*
X41908Y-73122D01*
X42134Y-73052D01*
X42394Y-73000D01*
X42689Y-72931D01*
X43036Y-72896D01*
X43383Y-72879D01*
X43556D01*
X43764Y-72896D01*
D02*
G37*
G36*
X23380D02*
X23623Y-72931D01*
X23901Y-72966D01*
X24213Y-73035D01*
X24508Y-73122D01*
X24803Y-73243D01*
X24820D01*
X24837Y-73260D01*
X24924Y-73313D01*
X25063Y-73382D01*
X25236Y-73486D01*
X25445Y-73625D01*
X25653Y-73798D01*
X25844Y-73989D01*
X26035Y-74197D01*
X26052Y-74232D01*
X26121Y-74301D01*
X26208Y-74423D01*
X26312Y-74596D01*
X26416Y-74787D01*
X26538Y-75030D01*
X26659Y-75290D01*
X26746Y-75568D01*
X26763Y-75602D01*
X26780Y-75707D01*
X26815Y-75863D01*
X26867Y-76054D01*
X26902Y-76296D01*
X26937Y-76574D01*
X26954Y-76869D01*
X26971Y-77181D01*
Y-77424D01*
Y-77441D01*
Y-77493D01*
X26954Y-77580D01*
X26937Y-77684D01*
X26902Y-77788D01*
X26867Y-77892D01*
X26798Y-77997D01*
X26711Y-78066D01*
X26694D01*
X26659Y-78101D01*
X26624Y-78118D01*
X26555Y-78153D01*
X26381Y-78205D01*
X26208Y-78239D01*
X20362D01*
Y-78274D01*
Y-78344D01*
Y-78465D01*
X20379Y-78621D01*
X20396Y-78812D01*
X20414Y-79020D01*
X20500Y-79489D01*
Y-79523D01*
X20535Y-79593D01*
X20570Y-79714D01*
X20622Y-79853D01*
X20691Y-80026D01*
X20778Y-80200D01*
X20882Y-80391D01*
X21003Y-80564D01*
X21021Y-80581D01*
X21073Y-80633D01*
X21142Y-80720D01*
X21246Y-80807D01*
X21368Y-80911D01*
X21524Y-81032D01*
X21697Y-81137D01*
X21888Y-81223D01*
X21923Y-81241D01*
X21992Y-81258D01*
X22114Y-81293D01*
X22270Y-81327D01*
X22478Y-81379D01*
X22721Y-81414D01*
X22981Y-81432D01*
X23293Y-81449D01*
X23502D01*
X23640Y-81432D01*
X23814D01*
X23987Y-81414D01*
X24334Y-81362D01*
X24352D01*
X24421Y-81345D01*
X24508Y-81327D01*
X24612Y-81293D01*
X24872Y-81223D01*
X25150Y-81137D01*
X25167D01*
X25219Y-81119D01*
X25271Y-81084D01*
X25358Y-81050D01*
X25566Y-80963D01*
X25757Y-80876D01*
X25774D01*
X25809Y-80859D01*
X25913Y-80807D01*
X26035Y-80772D01*
X26156Y-80755D01*
X26225D01*
X26295Y-80790D01*
X26381Y-80824D01*
X26399Y-80842D01*
X26433Y-80876D01*
X26486Y-80928D01*
X26520Y-80998D01*
X26538Y-81015D01*
X26555Y-81050D01*
X26572Y-81119D01*
X26590Y-81206D01*
Y-81223D01*
X26607Y-81293D01*
X26624Y-81379D01*
Y-81483D01*
Y-81501D01*
Y-81536D01*
X26607Y-81640D01*
Y-81657D01*
X26590Y-81692D01*
X26572Y-81796D01*
Y-81813D01*
X26555Y-81848D01*
X26503Y-81952D01*
Y-81969D01*
X26486Y-81987D01*
X26399Y-82091D01*
X26381Y-82108D01*
X26329Y-82125D01*
X26277Y-82160D01*
X26208Y-82195D01*
X26139Y-82229D01*
X26035Y-82282D01*
X26017D01*
X25982Y-82299D01*
X25930Y-82334D01*
X25844Y-82368D01*
X25740Y-82403D01*
X25618Y-82455D01*
X25340Y-82559D01*
X25323D01*
X25271Y-82577D01*
X25184Y-82594D01*
X25063Y-82628D01*
X24924Y-82663D01*
X24768Y-82698D01*
X24577Y-82733D01*
X24369Y-82767D01*
X24352D01*
X24265Y-82785D01*
X24161Y-82802D01*
X24005Y-82819D01*
X23814Y-82837D01*
X23623Y-82854D01*
X23398Y-82871D01*
X22981D01*
X22877Y-82854D01*
X22773D01*
X22513Y-82837D01*
X22218Y-82802D01*
X21888Y-82733D01*
X21576Y-82663D01*
X21246Y-82559D01*
X21229D01*
X21212Y-82542D01*
X21108Y-82490D01*
X20951Y-82420D01*
X20761Y-82316D01*
X20535Y-82177D01*
X20310Y-82004D01*
X20067Y-81813D01*
X19841Y-81588D01*
X19824Y-81553D01*
X19754Y-81466D01*
X19650Y-81327D01*
X19511Y-81154D01*
X19373Y-80928D01*
X19234Y-80651D01*
X19095Y-80356D01*
X18974Y-80026D01*
Y-80009D01*
X18956Y-79992D01*
Y-79939D01*
X18939Y-79870D01*
X18904Y-79783D01*
X18887Y-79679D01*
X18835Y-79419D01*
X18783Y-79107D01*
X18748Y-78742D01*
X18714Y-78326D01*
X18696Y-77892D01*
Y-77875D01*
Y-77840D01*
Y-77771D01*
Y-77702D01*
X18714Y-77597D01*
Y-77476D01*
X18731Y-77199D01*
X18766Y-76869D01*
X18818Y-76522D01*
X18887Y-76158D01*
X18991Y-75811D01*
Y-75793D01*
X19008Y-75776D01*
X19026Y-75724D01*
X19043Y-75655D01*
X19112Y-75481D01*
X19217Y-75273D01*
X19321Y-75030D01*
X19477Y-74770D01*
X19650Y-74492D01*
X19841Y-74249D01*
X19876Y-74215D01*
X19945Y-74145D01*
X20067Y-74024D01*
X20223Y-73868D01*
X20431Y-73712D01*
X20656Y-73538D01*
X20917Y-73382D01*
X21212Y-73243D01*
X21229D01*
X21246Y-73226D01*
X21351Y-73191D01*
X21524Y-73122D01*
X21749Y-73052D01*
X22010Y-73000D01*
X22305Y-72931D01*
X22652Y-72896D01*
X22998Y-72879D01*
X23172D01*
X23380Y-72896D01*
D02*
G37*
G36*
X-3735Y-72896D02*
X-3492Y-72931D01*
X-3215Y-72966D01*
X-2902Y-73035D01*
X-2607Y-73122D01*
X-2313Y-73243D01*
X-2295D01*
X-2278Y-73260D01*
X-2191Y-73313D01*
X-2052Y-73382D01*
X-1879Y-73486D01*
X-1671Y-73625D01*
X-1462Y-73798D01*
X-1272Y-73989D01*
X-1081Y-74197D01*
X-1063Y-74232D01*
X-994Y-74301D01*
X-907Y-74423D01*
X-803Y-74596D01*
X-699Y-74787D01*
X-578Y-75030D01*
X-456Y-75290D01*
X-369Y-75568D01*
X-352Y-75602D01*
X-335Y-75707D01*
X-300Y-75863D01*
X-248Y-76054D01*
X-213Y-76296D01*
X-179Y-76574D01*
X-161Y-76869D01*
X-144Y-77181D01*
Y-77424D01*
Y-77441D01*
Y-77494D01*
X-161Y-77580D01*
X-179Y-77684D01*
X-213Y-77788D01*
X-248Y-77892D01*
X-317Y-77997D01*
X-404Y-78066D01*
X-421D01*
X-456Y-78101D01*
X-491Y-78118D01*
X-560Y-78153D01*
X-734Y-78205D01*
X-907Y-78239D01*
X-6754D01*
Y-78274D01*
Y-78344D01*
Y-78465D01*
X-6736Y-78621D01*
X-6719Y-78812D01*
X-6702Y-79020D01*
X-6615Y-79489D01*
Y-79523D01*
X-6580Y-79593D01*
X-6546Y-79714D01*
X-6493Y-79853D01*
X-6424Y-80026D01*
X-6337Y-80200D01*
X-6233Y-80391D01*
X-6112Y-80564D01*
X-6094Y-80581D01*
X-6042Y-80633D01*
X-5973Y-80720D01*
X-5869Y-80807D01*
X-5747Y-80911D01*
X-5591Y-81032D01*
X-5418Y-81137D01*
X-5227Y-81223D01*
X-5192Y-81241D01*
X-5123Y-81258D01*
X-5002Y-81293D01*
X-4845Y-81327D01*
X-4637Y-81379D01*
X-4394Y-81414D01*
X-4134Y-81432D01*
X-3822Y-81449D01*
X-3614D01*
X-3475Y-81432D01*
X-3301D01*
X-3128Y-81414D01*
X-2781Y-81362D01*
X-2763D01*
X-2694Y-81345D01*
X-2607Y-81327D01*
X-2503Y-81293D01*
X-2243Y-81223D01*
X-1965Y-81137D01*
X-1948D01*
X-1896Y-81119D01*
X-1844Y-81084D01*
X-1757Y-81050D01*
X-1549Y-80963D01*
X-1358Y-80876D01*
X-1341D01*
X-1306Y-80859D01*
X-1202Y-80807D01*
X-1081Y-80772D01*
X-959Y-80755D01*
X-890D01*
X-821Y-80790D01*
X-734Y-80824D01*
X-716Y-80842D01*
X-682Y-80876D01*
X-630Y-80928D01*
X-595Y-80998D01*
X-578Y-81015D01*
X-560Y-81050D01*
X-543Y-81119D01*
X-526Y-81206D01*
Y-81223D01*
X-508Y-81293D01*
X-491Y-81379D01*
Y-81484D01*
Y-81501D01*
Y-81536D01*
X-508Y-81640D01*
Y-81657D01*
X-526Y-81692D01*
X-543Y-81796D01*
Y-81813D01*
X-560Y-81848D01*
X-612Y-81952D01*
Y-81969D01*
X-630Y-81987D01*
X-716Y-82091D01*
X-734Y-82108D01*
X-786Y-82125D01*
X-838Y-82160D01*
X-907Y-82195D01*
X-977Y-82229D01*
X-1081Y-82282D01*
X-1098D01*
X-1133Y-82299D01*
X-1185Y-82334D01*
X-1272Y-82368D01*
X-1376Y-82403D01*
X-1497Y-82455D01*
X-1775Y-82559D01*
X-1792D01*
X-1844Y-82577D01*
X-1931Y-82594D01*
X-2052Y-82628D01*
X-2191Y-82663D01*
X-2347Y-82698D01*
X-2538Y-82733D01*
X-2746Y-82767D01*
X-2763D01*
X-2850Y-82785D01*
X-2954Y-82802D01*
X-3110Y-82819D01*
X-3301Y-82837D01*
X-3492Y-82854D01*
X-3718Y-82871D01*
X-4134D01*
X-4238Y-82854D01*
X-4342D01*
X-4602Y-82837D01*
X-4897Y-82802D01*
X-5227Y-82733D01*
X-5539Y-82663D01*
X-5869Y-82559D01*
X-5886D01*
X-5904Y-82542D01*
X-6008Y-82490D01*
X-6164Y-82420D01*
X-6355Y-82316D01*
X-6580Y-82177D01*
X-6806Y-82004D01*
X-7049Y-81813D01*
X-7274Y-81588D01*
X-7291Y-81553D01*
X-7361Y-81466D01*
X-7465Y-81327D01*
X-7604Y-81154D01*
X-7742Y-80928D01*
X-7881Y-80651D01*
X-8020Y-80356D01*
X-8141Y-80026D01*
Y-80009D01*
X-8159Y-79992D01*
Y-79940D01*
X-8176Y-79870D01*
X-8211Y-79783D01*
X-8228Y-79679D01*
X-8280Y-79419D01*
X-8332Y-79107D01*
X-8367Y-78742D01*
X-8402Y-78326D01*
X-8419Y-77892D01*
Y-77875D01*
Y-77840D01*
Y-77771D01*
Y-77702D01*
X-8402Y-77598D01*
Y-77476D01*
X-8384Y-77199D01*
X-8350Y-76869D01*
X-8298Y-76522D01*
X-8228Y-76158D01*
X-8124Y-75811D01*
Y-75793D01*
X-8107Y-75776D01*
X-8089Y-75724D01*
X-8072Y-75655D01*
X-8003Y-75481D01*
X-7899Y-75273D01*
X-7794Y-75030D01*
X-7638Y-74770D01*
X-7465Y-74492D01*
X-7274Y-74249D01*
X-7239Y-74215D01*
X-7170Y-74145D01*
X-7049Y-74024D01*
X-6892Y-73868D01*
X-6684Y-73712D01*
X-6459Y-73538D01*
X-6198Y-73382D01*
X-5904Y-73243D01*
X-5886D01*
X-5869Y-73226D01*
X-5765Y-73191D01*
X-5591Y-73122D01*
X-5366Y-73052D01*
X-5106Y-73000D01*
X-4811Y-72931D01*
X-4464Y-72896D01*
X-4117Y-72879D01*
X-3943D01*
X-3735Y-72896D01*
D02*
G37*
G36*
X-72434D02*
X-72330D01*
X-72070Y-72913D01*
X-71775Y-72966D01*
X-71462Y-73018D01*
X-71133Y-73104D01*
X-70820Y-73226D01*
X-70803D01*
X-70786Y-73243D01*
X-70682Y-73295D01*
X-70526Y-73365D01*
X-70335Y-73486D01*
X-70127Y-73625D01*
X-69884Y-73798D01*
X-69658Y-74007D01*
X-69450Y-74232D01*
X-69433Y-74267D01*
X-69363Y-74353D01*
X-69259Y-74475D01*
X-69138Y-74666D01*
X-68999Y-74891D01*
X-68860Y-75152D01*
X-68739Y-75446D01*
X-68617Y-75776D01*
Y-75793D01*
X-68600Y-75811D01*
X-68583Y-75863D01*
X-68565Y-75932D01*
X-68531Y-76123D01*
X-68478Y-76366D01*
X-68426Y-76661D01*
X-68374Y-77008D01*
X-68357Y-77389D01*
X-68340Y-77788D01*
Y-77806D01*
Y-77840D01*
Y-77892D01*
Y-77962D01*
Y-78066D01*
X-68357Y-78170D01*
X-68374Y-78448D01*
X-68409Y-78760D01*
X-68461Y-79089D01*
X-68531Y-79436D01*
X-68635Y-79801D01*
Y-79818D01*
X-68652Y-79836D01*
X-68669Y-79887D01*
X-68687Y-79957D01*
X-68756Y-80130D01*
X-68843Y-80339D01*
X-68964Y-80599D01*
X-69103Y-80876D01*
X-69276Y-81137D01*
X-69485Y-81414D01*
X-69502Y-81449D01*
X-69589Y-81536D01*
X-69710Y-81657D01*
X-69884Y-81813D01*
X-70092Y-81987D01*
X-70335Y-82160D01*
X-70612Y-82334D01*
X-70925Y-82490D01*
X-70942D01*
X-70959Y-82507D01*
X-71011Y-82524D01*
X-71081Y-82542D01*
X-71254Y-82611D01*
X-71497Y-82681D01*
X-71775Y-82750D01*
X-72122Y-82819D01*
X-72486Y-82854D01*
X-72902Y-82871D01*
X-73076D01*
X-73180Y-82854D01*
X-73284D01*
X-73544Y-82837D01*
X-73839Y-82785D01*
X-74169Y-82733D01*
X-74481Y-82646D01*
X-74811Y-82542D01*
X-74828D01*
X-74845Y-82524D01*
X-74949Y-82472D01*
X-75106Y-82403D01*
X-75279Y-82282D01*
X-75504Y-82143D01*
X-75730Y-81969D01*
X-75956Y-81778D01*
X-76181Y-81553D01*
X-76199Y-81518D01*
X-76268Y-81432D01*
X-76372Y-81293D01*
X-76493Y-81102D01*
X-76632Y-80876D01*
X-76754Y-80616D01*
X-76892Y-80321D01*
X-76996Y-79992D01*
Y-79974D01*
X-77014Y-79957D01*
Y-79905D01*
X-77031Y-79836D01*
X-77083Y-79645D01*
X-77118Y-79402D01*
X-77170Y-79089D01*
X-77222Y-78742D01*
X-77239Y-78361D01*
X-77257Y-77944D01*
Y-77927D01*
Y-77892D01*
Y-77840D01*
Y-77754D01*
Y-77667D01*
X-77239Y-77545D01*
X-77222Y-77285D01*
X-77187Y-76973D01*
X-77153Y-76643D01*
X-77083Y-76296D01*
X-76996Y-75950D01*
Y-75932D01*
X-76979Y-75915D01*
X-76962Y-75863D01*
X-76944Y-75793D01*
X-76875Y-75620D01*
X-76788Y-75412D01*
X-76667Y-75152D01*
X-76528Y-74891D01*
X-76355Y-74614D01*
X-76146Y-74353D01*
X-76112Y-74319D01*
X-76042Y-74232D01*
X-75921Y-74111D01*
X-75747Y-73954D01*
X-75539Y-73781D01*
X-75296Y-73608D01*
X-75036Y-73434D01*
X-74724Y-73278D01*
X-74707D01*
X-74689Y-73260D01*
X-74637Y-73243D01*
X-74568Y-73208D01*
X-74394Y-73156D01*
X-74151Y-73070D01*
X-73857Y-73000D01*
X-73509Y-72948D01*
X-73128Y-72896D01*
X-72712Y-72879D01*
X-72538D01*
X-72434Y-72896D01*
D02*
G37*
G36*
X-91031D02*
X-90788Y-72931D01*
X-90511Y-72966D01*
X-90198Y-73035D01*
X-89904Y-73122D01*
X-89609Y-73243D01*
X-89591D01*
X-89574Y-73260D01*
X-89487Y-73313D01*
X-89348Y-73382D01*
X-89175Y-73486D01*
X-88967Y-73625D01*
X-88759Y-73798D01*
X-88568Y-73989D01*
X-88377Y-74197D01*
X-88360Y-74232D01*
X-88290Y-74301D01*
X-88203Y-74423D01*
X-88099Y-74596D01*
X-87995Y-74787D01*
X-87874Y-75030D01*
X-87752Y-75290D01*
X-87666Y-75568D01*
X-87648Y-75602D01*
X-87631Y-75707D01*
X-87596Y-75863D01*
X-87544Y-76054D01*
X-87509Y-76296D01*
X-87475Y-76574D01*
X-87458Y-76869D01*
X-87440Y-77181D01*
Y-77424D01*
Y-77441D01*
Y-77494D01*
X-87458Y-77580D01*
X-87475Y-77684D01*
X-87509Y-77788D01*
X-87544Y-77892D01*
X-87614Y-77997D01*
X-87700Y-78066D01*
X-87718D01*
X-87752Y-78101D01*
X-87787Y-78118D01*
X-87857Y-78153D01*
X-88030Y-78205D01*
X-88203Y-78239D01*
X-94050D01*
Y-78274D01*
Y-78344D01*
Y-78465D01*
X-94032Y-78621D01*
X-94015Y-78812D01*
X-93998Y-79020D01*
X-93911Y-79489D01*
Y-79523D01*
X-93876Y-79593D01*
X-93842Y-79714D01*
X-93790Y-79853D01*
X-93720Y-80026D01*
X-93633Y-80200D01*
X-93529Y-80391D01*
X-93408Y-80564D01*
X-93391Y-80581D01*
X-93338Y-80633D01*
X-93269Y-80720D01*
X-93165Y-80807D01*
X-93044Y-80911D01*
X-92887Y-81032D01*
X-92714Y-81137D01*
X-92523Y-81223D01*
X-92488Y-81241D01*
X-92419Y-81258D01*
X-92298Y-81293D01*
X-92142Y-81327D01*
X-91933Y-81379D01*
X-91690Y-81414D01*
X-91430Y-81432D01*
X-91118Y-81449D01*
X-90910D01*
X-90771Y-81432D01*
X-90597D01*
X-90424Y-81414D01*
X-90077Y-81362D01*
X-90060D01*
X-89990Y-81345D01*
X-89904Y-81327D01*
X-89799Y-81293D01*
X-89539Y-81223D01*
X-89262Y-81137D01*
X-89244D01*
X-89192Y-81119D01*
X-89140Y-81084D01*
X-89053Y-81050D01*
X-88845Y-80963D01*
X-88654Y-80876D01*
X-88637D01*
X-88602Y-80859D01*
X-88498Y-80807D01*
X-88377Y-80772D01*
X-88256Y-80755D01*
X-88186D01*
X-88117Y-80790D01*
X-88030Y-80824D01*
X-88013Y-80842D01*
X-87978Y-80876D01*
X-87926Y-80928D01*
X-87891Y-80998D01*
X-87874Y-81015D01*
X-87857Y-81050D01*
X-87839Y-81119D01*
X-87822Y-81206D01*
Y-81223D01*
X-87804Y-81293D01*
X-87787Y-81379D01*
Y-81484D01*
Y-81501D01*
Y-81536D01*
X-87804Y-81640D01*
Y-81657D01*
X-87822Y-81692D01*
X-87839Y-81796D01*
Y-81813D01*
X-87857Y-81848D01*
X-87908Y-81952D01*
Y-81969D01*
X-87926Y-81987D01*
X-88013Y-82091D01*
X-88030Y-82108D01*
X-88082Y-82125D01*
X-88134Y-82160D01*
X-88203Y-82195D01*
X-88273Y-82229D01*
X-88377Y-82282D01*
X-88394D01*
X-88429Y-82299D01*
X-88481Y-82334D01*
X-88568Y-82368D01*
X-88672Y-82403D01*
X-88793Y-82455D01*
X-89071Y-82559D01*
X-89088D01*
X-89140Y-82577D01*
X-89227Y-82594D01*
X-89348Y-82628D01*
X-89487Y-82663D01*
X-89643Y-82698D01*
X-89834Y-82733D01*
X-90042Y-82767D01*
X-90060D01*
X-90146Y-82785D01*
X-90251Y-82802D01*
X-90407Y-82819D01*
X-90597Y-82837D01*
X-90788Y-82854D01*
X-91014Y-82871D01*
X-91430D01*
X-91534Y-82854D01*
X-91638D01*
X-91899Y-82837D01*
X-92193Y-82802D01*
X-92523Y-82733D01*
X-92835Y-82663D01*
X-93165Y-82559D01*
X-93182D01*
X-93200Y-82542D01*
X-93304Y-82490D01*
X-93460Y-82420D01*
X-93651Y-82316D01*
X-93876Y-82177D01*
X-94102Y-82004D01*
X-94345Y-81813D01*
X-94570Y-81588D01*
X-94588Y-81553D01*
X-94657Y-81466D01*
X-94761Y-81327D01*
X-94900Y-81154D01*
X-95039Y-80928D01*
X-95177Y-80651D01*
X-95316Y-80356D01*
X-95438Y-80026D01*
Y-80009D01*
X-95455Y-79992D01*
Y-79940D01*
X-95472Y-79870D01*
X-95507Y-79783D01*
X-95524Y-79679D01*
X-95576Y-79419D01*
X-95628Y-79107D01*
X-95663Y-78742D01*
X-95698Y-78326D01*
X-95715Y-77892D01*
Y-77875D01*
Y-77840D01*
Y-77771D01*
Y-77702D01*
X-95698Y-77598D01*
Y-77476D01*
X-95681Y-77199D01*
X-95646Y-76869D01*
X-95594Y-76522D01*
X-95524Y-76158D01*
X-95420Y-75811D01*
Y-75793D01*
X-95403Y-75776D01*
X-95386Y-75724D01*
X-95368Y-75655D01*
X-95299Y-75481D01*
X-95195Y-75273D01*
X-95091Y-75030D01*
X-94935Y-74770D01*
X-94761Y-74492D01*
X-94570Y-74249D01*
X-94536Y-74215D01*
X-94466Y-74145D01*
X-94345Y-74024D01*
X-94189Y-73868D01*
X-93980Y-73712D01*
X-93755Y-73538D01*
X-93495Y-73382D01*
X-93200Y-73243D01*
X-93182D01*
X-93165Y-73226D01*
X-93061Y-73191D01*
X-92887Y-73122D01*
X-92662Y-73052D01*
X-92402Y-73000D01*
X-92107Y-72931D01*
X-91760Y-72896D01*
X-91413Y-72879D01*
X-91239D01*
X-91031Y-72896D01*
D02*
G37*
G36*
X-109177D02*
X-109073D01*
X-108813Y-72913D01*
X-108518Y-72966D01*
X-108206Y-73018D01*
X-107876Y-73104D01*
X-107564Y-73226D01*
X-107547D01*
X-107529Y-73243D01*
X-107425Y-73295D01*
X-107269Y-73365D01*
X-107078Y-73486D01*
X-106870Y-73625D01*
X-106627Y-73798D01*
X-106402Y-74007D01*
X-106194Y-74232D01*
X-106176Y-74267D01*
X-106107Y-74353D01*
X-106003Y-74475D01*
X-105881Y-74666D01*
X-105743Y-74891D01*
X-105604Y-75152D01*
X-105482Y-75446D01*
X-105361Y-75776D01*
Y-75793D01*
X-105344Y-75811D01*
X-105326Y-75863D01*
X-105309Y-75932D01*
X-105274Y-76123D01*
X-105222Y-76366D01*
X-105170Y-76661D01*
X-105118Y-77008D01*
X-105101Y-77389D01*
X-105083Y-77788D01*
Y-77806D01*
Y-77840D01*
Y-77892D01*
Y-77962D01*
Y-78066D01*
X-105101Y-78170D01*
X-105118Y-78448D01*
X-105153Y-78760D01*
X-105205Y-79089D01*
X-105274Y-79436D01*
X-105378Y-79801D01*
Y-79818D01*
X-105395Y-79836D01*
X-105413Y-79887D01*
X-105430Y-79957D01*
X-105500Y-80130D01*
X-105586Y-80339D01*
X-105708Y-80599D01*
X-105847Y-80876D01*
X-106020Y-81137D01*
X-106228Y-81414D01*
X-106246Y-81449D01*
X-106332Y-81536D01*
X-106454Y-81657D01*
X-106627Y-81813D01*
X-106835Y-81987D01*
X-107078Y-82160D01*
X-107356Y-82334D01*
X-107668Y-82490D01*
X-107685D01*
X-107703Y-82507D01*
X-107755Y-82524D01*
X-107824Y-82542D01*
X-107998Y-82611D01*
X-108241Y-82681D01*
X-108518Y-82750D01*
X-108865Y-82819D01*
X-109229Y-82854D01*
X-109646Y-82871D01*
X-109819D01*
X-109923Y-82854D01*
X-110028D01*
X-110288Y-82837D01*
X-110583Y-82785D01*
X-110912Y-82733D01*
X-111224Y-82646D01*
X-111554Y-82542D01*
X-111572D01*
X-111589Y-82524D01*
X-111693Y-82472D01*
X-111849Y-82403D01*
X-112022Y-82282D01*
X-112248Y-82143D01*
X-112474Y-81969D01*
X-112699Y-81778D01*
X-112925Y-81553D01*
X-112942Y-81518D01*
X-113011Y-81432D01*
X-113115Y-81293D01*
X-113237Y-81102D01*
X-113376Y-80876D01*
X-113497Y-80616D01*
X-113636Y-80321D01*
X-113740Y-79992D01*
Y-79974D01*
X-113757Y-79957D01*
Y-79905D01*
X-113775Y-79836D01*
X-113827Y-79645D01*
X-113861Y-79402D01*
X-113913Y-79089D01*
X-113966Y-78742D01*
X-113983Y-78361D01*
X-114000Y-77944D01*
Y-77927D01*
Y-77892D01*
Y-77840D01*
Y-77754D01*
Y-77667D01*
X-113983Y-77545D01*
X-113966Y-77285D01*
X-113931Y-76973D01*
X-113896Y-76643D01*
X-113827Y-76296D01*
X-113740Y-75950D01*
Y-75932D01*
X-113723Y-75915D01*
X-113705Y-75863D01*
X-113688Y-75793D01*
X-113618Y-75620D01*
X-113532Y-75412D01*
X-113410Y-75152D01*
X-113272Y-74891D01*
X-113098Y-74614D01*
X-112890Y-74353D01*
X-112855Y-74319D01*
X-112786Y-74232D01*
X-112664Y-74111D01*
X-112491Y-73954D01*
X-112283Y-73781D01*
X-112040Y-73608D01*
X-111780Y-73434D01*
X-111467Y-73278D01*
X-111450D01*
X-111433Y-73260D01*
X-111381Y-73243D01*
X-111311Y-73208D01*
X-111138Y-73156D01*
X-110895Y-73070D01*
X-110600Y-73000D01*
X-110253Y-72948D01*
X-109871Y-72896D01*
X-109455Y-72879D01*
X-109282D01*
X-109177Y-72896D01*
D02*
G37*
%LPC*%
G36*
X-52345Y-74284D02*
X-52449D01*
X-52570Y-74301D01*
X-52709Y-74319D01*
X-52882Y-74353D01*
X-53056Y-74405D01*
X-53229Y-74475D01*
X-53403Y-74579D01*
X-53420Y-74596D01*
X-53472Y-74631D01*
X-53559Y-74700D01*
X-53646Y-74787D01*
X-53767Y-74909D01*
X-53889Y-75047D01*
X-54010Y-75203D01*
X-54114Y-75377D01*
X-54132Y-75394D01*
X-54166Y-75464D01*
X-54201Y-75568D01*
X-54270Y-75707D01*
X-54340Y-75863D01*
X-54409Y-76054D01*
X-54479Y-76279D01*
X-54531Y-76505D01*
Y-76539D01*
X-54548Y-76609D01*
X-54565Y-76730D01*
X-54583Y-76904D01*
X-54617Y-77094D01*
X-54635Y-77320D01*
X-54652Y-77563D01*
Y-77806D01*
Y-77840D01*
Y-77927D01*
Y-78066D01*
X-54635Y-78239D01*
Y-78465D01*
X-54600Y-78691D01*
X-54548Y-79194D01*
Y-79228D01*
X-54531Y-79315D01*
X-54496Y-79436D01*
X-54461Y-79593D01*
X-54409Y-79783D01*
X-54340Y-79992D01*
X-54166Y-80391D01*
X-54149Y-80408D01*
X-54114Y-80477D01*
X-54062Y-80564D01*
X-53975Y-80686D01*
X-53889Y-80807D01*
X-53767Y-80946D01*
X-53646Y-81067D01*
X-53490Y-81189D01*
X-53472Y-81206D01*
X-53403Y-81223D01*
X-53316Y-81275D01*
X-53195Y-81327D01*
X-53039Y-81379D01*
X-52848Y-81414D01*
X-52640Y-81449D01*
X-52414Y-81466D01*
X-52293D01*
X-52223Y-81449D01*
X-52032Y-81432D01*
X-51807Y-81379D01*
X-51790D01*
X-51755Y-81362D01*
X-51686Y-81345D01*
X-51616Y-81310D01*
X-51408Y-81223D01*
X-51165Y-81084D01*
X-51148Y-81067D01*
X-51113Y-81050D01*
X-51044Y-80998D01*
X-50957Y-80946D01*
X-50731Y-80772D01*
X-50471Y-80547D01*
X-50454Y-80529D01*
X-50402Y-80477D01*
X-50332Y-80408D01*
X-50246Y-80304D01*
X-50124Y-80182D01*
X-50003Y-80044D01*
X-49847Y-79887D01*
X-49708Y-79714D01*
Y-75984D01*
Y-75967D01*
X-49742Y-75950D01*
X-49829Y-75845D01*
X-49951Y-75707D01*
X-50124Y-75533D01*
X-50332Y-75325D01*
X-50540Y-75117D01*
X-50783Y-74926D01*
X-51026Y-74735D01*
X-51061Y-74718D01*
X-51130Y-74666D01*
X-51269Y-74596D01*
X-51425Y-74510D01*
X-51633Y-74423D01*
X-51859Y-74353D01*
X-52102Y-74301D01*
X-52345Y-74284D01*
D02*
G37*
G36*
X61633Y-78309D02*
X59967D01*
X59811Y-78326D01*
X59621Y-78344D01*
X59430Y-78361D01*
X59031Y-78430D01*
X59013D01*
X58944Y-78448D01*
X58857Y-78482D01*
X58736Y-78517D01*
X58476Y-78621D01*
X58337Y-78691D01*
X58215Y-78777D01*
X58198Y-78795D01*
X58163Y-78812D01*
X58111Y-78864D01*
X58042Y-78933D01*
X57886Y-79089D01*
X57747Y-79298D01*
Y-79315D01*
X57730Y-79350D01*
X57712Y-79419D01*
X57678Y-79489D01*
X57660Y-79593D01*
X57625Y-79714D01*
X57608Y-79992D01*
Y-80026D01*
Y-80113D01*
X57625Y-80234D01*
X57660Y-80391D01*
X57712Y-80564D01*
X57782Y-80738D01*
X57886Y-80928D01*
X58025Y-81084D01*
X58042Y-81102D01*
X58111Y-81137D01*
X58198Y-81206D01*
X58337Y-81275D01*
X58510Y-81345D01*
X58719Y-81414D01*
X58961Y-81449D01*
X59256Y-81466D01*
X59360D01*
X59482Y-81449D01*
X59638Y-81432D01*
X59811Y-81379D01*
X60020Y-81327D01*
X60228Y-81241D01*
X60436Y-81137D01*
X60471Y-81119D01*
X60540Y-81067D01*
X60644Y-80998D01*
X60800Y-80894D01*
X60974Y-80738D01*
X61182Y-80564D01*
X61407Y-80373D01*
X61633Y-80130D01*
Y-78309D01*
D02*
G37*
G36*
X-37269Y-71092D02*
X-38848D01*
Y-76192D01*
X-37200D01*
X-37061Y-76175D01*
X-36870D01*
X-36662Y-76140D01*
X-36454Y-76106D01*
X-36246Y-76071D01*
X-36037Y-76002D01*
X-36020Y-75984D01*
X-35951Y-75967D01*
X-35847Y-75915D01*
X-35725Y-75863D01*
X-35448Y-75707D01*
X-35170Y-75481D01*
X-35153Y-75464D01*
X-35118Y-75412D01*
X-35048Y-75342D01*
X-34962Y-75238D01*
X-34875Y-75117D01*
X-34788Y-74978D01*
X-34702Y-74822D01*
X-34615Y-74648D01*
X-34597Y-74631D01*
X-34580Y-74562D01*
X-34545Y-74458D01*
X-34511Y-74319D01*
X-34476Y-74163D01*
X-34459Y-73972D01*
X-34424Y-73764D01*
Y-73555D01*
Y-73538D01*
Y-73521D01*
Y-73434D01*
X-34441Y-73278D01*
X-34459Y-73104D01*
X-34493Y-72913D01*
X-34563Y-72688D01*
X-34632Y-72480D01*
X-34736Y-72272D01*
X-34754Y-72254D01*
X-34788Y-72185D01*
X-34858Y-72098D01*
X-34927Y-71977D01*
X-35031Y-71855D01*
X-35153Y-71734D01*
X-35291Y-71612D01*
X-35448Y-71508D01*
X-35465Y-71491D01*
X-35517Y-71474D01*
X-35604Y-71422D01*
X-35708Y-71370D01*
X-35847Y-71318D01*
X-36003Y-71266D01*
X-36176Y-71213D01*
X-36350Y-71179D01*
X-36367D01*
X-36436Y-71161D01*
X-36523Y-71144D01*
X-36645Y-71127D01*
X-36783D01*
X-36939Y-71109D01*
X-37269Y-71092D01*
D02*
G37*
G36*
X-133153D02*
X-134731D01*
Y-76192D01*
X-133083D01*
X-132944Y-76175D01*
X-132754D01*
X-132545Y-76140D01*
X-132337Y-76106D01*
X-132129Y-76071D01*
X-131921Y-76002D01*
X-131903Y-75984D01*
X-131834Y-75967D01*
X-131730Y-75915D01*
X-131609Y-75863D01*
X-131331Y-75707D01*
X-131053Y-75481D01*
X-131036Y-75464D01*
X-131001Y-75412D01*
X-130932Y-75342D01*
X-130845Y-75238D01*
X-130759Y-75117D01*
X-130672Y-74978D01*
X-130585Y-74822D01*
X-130498Y-74648D01*
X-130481Y-74631D01*
X-130464Y-74562D01*
X-130429Y-74458D01*
X-130394Y-74319D01*
X-130360Y-74163D01*
X-130342Y-73972D01*
X-130308Y-73764D01*
Y-73555D01*
Y-73538D01*
Y-73521D01*
Y-73434D01*
X-130325Y-73278D01*
X-130342Y-73104D01*
X-130377Y-72913D01*
X-130446Y-72688D01*
X-130516Y-72480D01*
X-130620Y-72272D01*
X-130637Y-72254D01*
X-130672Y-72185D01*
X-130741Y-72098D01*
X-130811Y-71977D01*
X-130915Y-71855D01*
X-131036Y-71734D01*
X-131175Y-71612D01*
X-131331Y-71508D01*
X-131348Y-71491D01*
X-131400Y-71474D01*
X-131487Y-71422D01*
X-131591Y-71370D01*
X-131730Y-71318D01*
X-131886Y-71266D01*
X-132060Y-71213D01*
X-132233Y-71179D01*
X-132250D01*
X-132320Y-71161D01*
X-132407Y-71144D01*
X-132528Y-71127D01*
X-132667D01*
X-132823Y-71109D01*
X-133153Y-71092D01*
D02*
G37*
G36*
X76483Y-74301D02*
X76362D01*
X76223Y-74319D01*
X76049Y-74336D01*
X75841Y-74371D01*
X75633Y-74423D01*
X75407Y-74492D01*
X75199Y-74579D01*
X75182Y-74596D01*
X75113Y-74631D01*
X75008Y-74683D01*
X74887Y-74770D01*
X74748Y-74874D01*
X74592Y-74995D01*
X74453Y-75134D01*
X74314Y-75308D01*
X74297Y-75325D01*
X74262Y-75394D01*
X74193Y-75481D01*
X74124Y-75620D01*
X74054Y-75776D01*
X73967Y-75967D01*
X73881Y-76192D01*
X73811Y-76418D01*
Y-76453D01*
X73794Y-76522D01*
X73759Y-76661D01*
X73742Y-76834D01*
X73707Y-77042D01*
X73673Y-77285D01*
X73655Y-77563D01*
Y-77840D01*
Y-77875D01*
Y-77962D01*
Y-78118D01*
X73673Y-78309D01*
X73690Y-78517D01*
X73707Y-78760D01*
X73794Y-79263D01*
Y-79298D01*
X73829Y-79367D01*
X73864Y-79489D01*
X73898Y-79645D01*
X73967Y-79836D01*
X74037Y-80026D01*
X74245Y-80408D01*
X74262Y-80425D01*
X74297Y-80495D01*
X74384Y-80581D01*
X74471Y-80686D01*
X74592Y-80807D01*
X74748Y-80928D01*
X74904Y-81050D01*
X75095Y-81171D01*
X75113Y-81189D01*
X75182Y-81206D01*
X75303Y-81258D01*
X75459Y-81293D01*
X75650Y-81345D01*
X75876Y-81397D01*
X76136Y-81414D01*
X76431Y-81432D01*
X76552D01*
X76691Y-81414D01*
X76865Y-81397D01*
X77073Y-81362D01*
X77281Y-81327D01*
X77507Y-81258D01*
X77715Y-81171D01*
X77732Y-81154D01*
X77801Y-81119D01*
X77906Y-81067D01*
X78027Y-80980D01*
X78166Y-80876D01*
X78305Y-80755D01*
X78443Y-80616D01*
X78582Y-80460D01*
X78600Y-80443D01*
X78634Y-80373D01*
X78704Y-80269D01*
X78773Y-80148D01*
X78860Y-79974D01*
X78946Y-79783D01*
X79033Y-79575D01*
X79103Y-79332D01*
Y-79298D01*
X79137Y-79211D01*
X79155Y-79089D01*
X79189Y-78899D01*
X79224Y-78691D01*
X79241Y-78448D01*
X79276Y-78170D01*
Y-77892D01*
Y-77858D01*
Y-77771D01*
Y-77632D01*
X79259Y-77441D01*
X79241Y-77233D01*
X79207Y-76990D01*
X79120Y-76505D01*
Y-76470D01*
X79103Y-76400D01*
X79068Y-76262D01*
X79016Y-76106D01*
X78946Y-75932D01*
X78877Y-75741D01*
X78669Y-75360D01*
X78652Y-75342D01*
X78617Y-75273D01*
X78548Y-75186D01*
X78443Y-75082D01*
X78322Y-74961D01*
X78183Y-74839D01*
X78010Y-74700D01*
X77819Y-74596D01*
X77801Y-74579D01*
X77715Y-74544D01*
X77611Y-74510D01*
X77455Y-74440D01*
X77264Y-74388D01*
X77021Y-74353D01*
X76778Y-74319D01*
X76483Y-74301D01*
D02*
G37*
G36*
X43539Y-74284D02*
X43209D01*
X43088Y-74301D01*
X42949Y-74319D01*
X42776Y-74336D01*
X42585Y-74388D01*
X42394Y-74440D01*
X42220Y-74527D01*
X42203Y-74544D01*
X42151Y-74562D01*
X42047Y-74614D01*
X41943Y-74683D01*
X41821Y-74770D01*
X41683Y-74874D01*
X41422Y-75134D01*
X41405Y-75151D01*
X41370Y-75203D01*
X41318Y-75290D01*
X41249Y-75394D01*
X41162Y-75516D01*
X41093Y-75672D01*
X41006Y-75845D01*
X40937Y-76036D01*
Y-76054D01*
X40902Y-76123D01*
X40884Y-76210D01*
X40850Y-76331D01*
X40780Y-76609D01*
X40746Y-76886D01*
X45742D01*
Y-76869D01*
Y-76834D01*
Y-76782D01*
Y-76695D01*
X45725Y-76609D01*
X45707Y-76487D01*
X45673Y-76227D01*
X45603Y-75932D01*
X45499Y-75620D01*
X45343Y-75325D01*
X45135Y-75030D01*
Y-75013D01*
X45100Y-74995D01*
X45013Y-74909D01*
X44875Y-74787D01*
X44666Y-74648D01*
X44424Y-74527D01*
X44111Y-74405D01*
X43730Y-74319D01*
X43539Y-74284D01*
D02*
G37*
G36*
X23155D02*
X22825D01*
X22704Y-74301D01*
X22565Y-74319D01*
X22391Y-74336D01*
X22201Y-74388D01*
X22010Y-74440D01*
X21836Y-74527D01*
X21819Y-74544D01*
X21767Y-74562D01*
X21663Y-74614D01*
X21559Y-74683D01*
X21437Y-74770D01*
X21298Y-74874D01*
X21038Y-75134D01*
X21021Y-75151D01*
X20986Y-75203D01*
X20934Y-75290D01*
X20865Y-75394D01*
X20778Y-75516D01*
X20709Y-75672D01*
X20622Y-75845D01*
X20552Y-76036D01*
Y-76054D01*
X20518Y-76123D01*
X20500Y-76210D01*
X20466Y-76331D01*
X20396Y-76609D01*
X20362Y-76886D01*
X25358D01*
Y-76869D01*
Y-76834D01*
Y-76782D01*
Y-76695D01*
X25340Y-76609D01*
X25323Y-76487D01*
X25289Y-76227D01*
X25219Y-75932D01*
X25115Y-75620D01*
X24959Y-75325D01*
X24751Y-75030D01*
Y-75013D01*
X24716Y-74995D01*
X24629Y-74909D01*
X24490Y-74787D01*
X24282Y-74648D01*
X24039Y-74527D01*
X23727Y-74405D01*
X23345Y-74319D01*
X23155Y-74284D01*
D02*
G37*
G36*
X-3961Y-74284D02*
X-4290D01*
X-4412Y-74301D01*
X-4550Y-74319D01*
X-4724Y-74336D01*
X-4915Y-74388D01*
X-5106Y-74440D01*
X-5279Y-74527D01*
X-5296Y-74544D01*
X-5348Y-74562D01*
X-5452Y-74614D01*
X-5557Y-74683D01*
X-5678Y-74770D01*
X-5817Y-74874D01*
X-6077Y-75134D01*
X-6094Y-75152D01*
X-6129Y-75203D01*
X-6181Y-75290D01*
X-6251Y-75394D01*
X-6337Y-75516D01*
X-6407Y-75672D01*
X-6493Y-75845D01*
X-6563Y-76036D01*
Y-76054D01*
X-6597Y-76123D01*
X-6615Y-76210D01*
X-6650Y-76331D01*
X-6719Y-76609D01*
X-6754Y-76886D01*
X-1757D01*
Y-76869D01*
Y-76834D01*
Y-76782D01*
Y-76695D01*
X-1775Y-76609D01*
X-1792Y-76487D01*
X-1827Y-76227D01*
X-1896Y-75932D01*
X-2000Y-75620D01*
X-2156Y-75325D01*
X-2365Y-75030D01*
Y-75013D01*
X-2399Y-74995D01*
X-2486Y-74909D01*
X-2625Y-74787D01*
X-2833Y-74648D01*
X-3076Y-74527D01*
X-3388Y-74405D01*
X-3770Y-74319D01*
X-3961Y-74284D01*
D02*
G37*
G36*
X-72781Y-74301D02*
X-72902D01*
X-73041Y-74319D01*
X-73215Y-74336D01*
X-73423Y-74371D01*
X-73631Y-74423D01*
X-73857Y-74492D01*
X-74065Y-74579D01*
X-74082Y-74596D01*
X-74151Y-74631D01*
X-74255Y-74683D01*
X-74377Y-74770D01*
X-74516Y-74874D01*
X-74672Y-74995D01*
X-74811Y-75134D01*
X-74949Y-75308D01*
X-74967Y-75325D01*
X-75002Y-75394D01*
X-75071Y-75481D01*
X-75140Y-75620D01*
X-75210Y-75776D01*
X-75296Y-75967D01*
X-75383Y-76192D01*
X-75452Y-76418D01*
Y-76453D01*
X-75470Y-76522D01*
X-75504Y-76661D01*
X-75522Y-76834D01*
X-75557Y-77042D01*
X-75591Y-77285D01*
X-75609Y-77563D01*
Y-77840D01*
Y-77875D01*
Y-77962D01*
Y-78118D01*
X-75591Y-78309D01*
X-75574Y-78517D01*
X-75557Y-78760D01*
X-75470Y-79263D01*
Y-79298D01*
X-75435Y-79367D01*
X-75401Y-79489D01*
X-75366Y-79645D01*
X-75296Y-79836D01*
X-75227Y-80026D01*
X-75019Y-80408D01*
X-75002Y-80425D01*
X-74967Y-80495D01*
X-74880Y-80581D01*
X-74793Y-80686D01*
X-74672Y-80807D01*
X-74516Y-80928D01*
X-74360Y-81050D01*
X-74169Y-81171D01*
X-74151Y-81189D01*
X-74082Y-81206D01*
X-73961Y-81258D01*
X-73804Y-81293D01*
X-73614Y-81345D01*
X-73388Y-81397D01*
X-73128Y-81414D01*
X-72833Y-81432D01*
X-72712D01*
X-72573Y-81414D01*
X-72399Y-81397D01*
X-72191Y-81362D01*
X-71983Y-81327D01*
X-71757Y-81258D01*
X-71549Y-81171D01*
X-71532Y-81154D01*
X-71462Y-81119D01*
X-71358Y-81067D01*
X-71237Y-80981D01*
X-71098Y-80876D01*
X-70959Y-80755D01*
X-70820Y-80616D01*
X-70682Y-80460D01*
X-70664Y-80443D01*
X-70630Y-80373D01*
X-70560Y-80269D01*
X-70491Y-80148D01*
X-70404Y-79974D01*
X-70317Y-79783D01*
X-70231Y-79575D01*
X-70161Y-79332D01*
Y-79298D01*
X-70127Y-79211D01*
X-70109Y-79089D01*
X-70075Y-78899D01*
X-70040Y-78691D01*
X-70023Y-78448D01*
X-69988Y-78170D01*
Y-77892D01*
Y-77858D01*
Y-77771D01*
Y-77632D01*
X-70005Y-77441D01*
X-70023Y-77233D01*
X-70057Y-76990D01*
X-70144Y-76505D01*
Y-76470D01*
X-70161Y-76400D01*
X-70196Y-76262D01*
X-70248Y-76106D01*
X-70317Y-75932D01*
X-70387Y-75741D01*
X-70595Y-75360D01*
X-70612Y-75342D01*
X-70647Y-75273D01*
X-70716Y-75186D01*
X-70820Y-75082D01*
X-70942Y-74961D01*
X-71081Y-74839D01*
X-71254Y-74700D01*
X-71445Y-74596D01*
X-71462Y-74579D01*
X-71549Y-74544D01*
X-71653Y-74510D01*
X-71809Y-74440D01*
X-72000Y-74388D01*
X-72243Y-74353D01*
X-72486Y-74319D01*
X-72781Y-74301D01*
D02*
G37*
G36*
X-91257Y-74284D02*
X-91586D01*
X-91708Y-74301D01*
X-91847Y-74319D01*
X-92020Y-74336D01*
X-92211Y-74388D01*
X-92402Y-74440D01*
X-92575Y-74527D01*
X-92592Y-74544D01*
X-92645Y-74562D01*
X-92749Y-74614D01*
X-92853Y-74683D01*
X-92974Y-74770D01*
X-93113Y-74874D01*
X-93373Y-75134D01*
X-93391Y-75152D01*
X-93425Y-75203D01*
X-93477Y-75290D01*
X-93547Y-75394D01*
X-93633Y-75516D01*
X-93703Y-75672D01*
X-93790Y-75845D01*
X-93859Y-76036D01*
Y-76054D01*
X-93894Y-76123D01*
X-93911Y-76210D01*
X-93946Y-76331D01*
X-94015Y-76609D01*
X-94050Y-76886D01*
X-89053D01*
Y-76869D01*
Y-76834D01*
Y-76782D01*
Y-76695D01*
X-89071Y-76609D01*
X-89088Y-76487D01*
X-89123Y-76227D01*
X-89192Y-75932D01*
X-89296Y-75620D01*
X-89452Y-75325D01*
X-89661Y-75030D01*
Y-75013D01*
X-89695Y-74995D01*
X-89782Y-74909D01*
X-89921Y-74787D01*
X-90129Y-74648D01*
X-90372Y-74527D01*
X-90684Y-74405D01*
X-91066Y-74319D01*
X-91257Y-74284D01*
D02*
G37*
G36*
X-109524Y-74301D02*
X-109646D01*
X-109785Y-74319D01*
X-109958Y-74336D01*
X-110166Y-74371D01*
X-110374Y-74423D01*
X-110600Y-74492D01*
X-110808Y-74579D01*
X-110826Y-74596D01*
X-110895Y-74631D01*
X-110999Y-74683D01*
X-111120Y-74770D01*
X-111259Y-74874D01*
X-111415Y-74995D01*
X-111554Y-75134D01*
X-111693Y-75308D01*
X-111710Y-75325D01*
X-111745Y-75394D01*
X-111814Y-75481D01*
X-111884Y-75620D01*
X-111953Y-75776D01*
X-112040Y-75967D01*
X-112127Y-76192D01*
X-112196Y-76418D01*
Y-76453D01*
X-112213Y-76522D01*
X-112248Y-76661D01*
X-112265Y-76834D01*
X-112300Y-77042D01*
X-112335Y-77285D01*
X-112352Y-77563D01*
Y-77840D01*
Y-77875D01*
Y-77962D01*
Y-78118D01*
X-112335Y-78309D01*
X-112317Y-78517D01*
X-112300Y-78760D01*
X-112213Y-79263D01*
Y-79298D01*
X-112179Y-79367D01*
X-112144Y-79489D01*
X-112109Y-79645D01*
X-112040Y-79836D01*
X-111971Y-80026D01*
X-111762Y-80408D01*
X-111745Y-80425D01*
X-111710Y-80495D01*
X-111623Y-80581D01*
X-111537Y-80686D01*
X-111415Y-80807D01*
X-111259Y-80928D01*
X-111103Y-81050D01*
X-110912Y-81171D01*
X-110895Y-81189D01*
X-110826Y-81206D01*
X-110704Y-81258D01*
X-110548Y-81293D01*
X-110357Y-81345D01*
X-110132Y-81397D01*
X-109871Y-81414D01*
X-109576Y-81432D01*
X-109455D01*
X-109316Y-81414D01*
X-109143Y-81397D01*
X-108934Y-81362D01*
X-108726Y-81327D01*
X-108501Y-81258D01*
X-108293Y-81171D01*
X-108275Y-81154D01*
X-108206Y-81119D01*
X-108102Y-81067D01*
X-107980Y-80981D01*
X-107842Y-80876D01*
X-107703Y-80755D01*
X-107564Y-80616D01*
X-107425Y-80460D01*
X-107408Y-80443D01*
X-107373Y-80373D01*
X-107304Y-80269D01*
X-107234Y-80148D01*
X-107148Y-79974D01*
X-107061Y-79783D01*
X-106974Y-79575D01*
X-106905Y-79332D01*
Y-79298D01*
X-106870Y-79211D01*
X-106853Y-79089D01*
X-106818Y-78899D01*
X-106783Y-78691D01*
X-106766Y-78448D01*
X-106731Y-78170D01*
Y-77892D01*
Y-77858D01*
Y-77771D01*
Y-77632D01*
X-106749Y-77441D01*
X-106766Y-77233D01*
X-106801Y-76990D01*
X-106887Y-76505D01*
Y-76470D01*
X-106905Y-76400D01*
X-106939Y-76262D01*
X-106992Y-76106D01*
X-107061Y-75932D01*
X-107130Y-75741D01*
X-107338Y-75360D01*
X-107356Y-75342D01*
X-107390Y-75273D01*
X-107460Y-75186D01*
X-107564Y-75082D01*
X-107685Y-74961D01*
X-107824Y-74839D01*
X-107998Y-74700D01*
X-108189Y-74596D01*
X-108206Y-74579D01*
X-108293Y-74544D01*
X-108397Y-74510D01*
X-108553Y-74440D01*
X-108744Y-74388D01*
X-108987Y-74353D01*
X-109229Y-74319D01*
X-109524Y-74301D01*
D02*
G37*
%LPD*%
D10*
X-95357Y38559D02*
G03*
X-96733Y37989I0J-1945D01*
G01*
D02*
G03*
X-100435Y29049I8940J-8940D01*
G01*
X-126288Y40139D02*
G03*
X-125794Y41331I-1192J1192D01*
G01*
X-129568Y38538D02*
G03*
X-126702Y39725I0J4053D01*
G01*
X-137317Y80253D02*
G03*
X-137440Y80551I-422J0D01*
G01*
X-137303Y80129D02*
G03*
X-135672Y76190I5570J0D01*
G01*
D02*
G03*
X-135830Y76255I-158J-158D01*
G01*
X-137167Y80551D02*
G03*
X-137290Y80253I299J-299D01*
G01*
X-138935Y76190D02*
G03*
X-137303Y80129I-3939J3939D01*
G01*
X-138777Y76255D02*
G03*
X-138935Y76190I0J-223D01*
G01*
X-137440Y44616D02*
G03*
X-137317Y44914I-299J299D01*
G01*
X-135672Y48977D02*
G03*
X-137303Y45038I3939J-3939D01*
G01*
X-135830Y48912D02*
G03*
X-135672Y48977I0J223D01*
G01*
X-138935Y49042D02*
G03*
X-138777Y48977I158J158D01*
G01*
X-137303Y45103D02*
G03*
X-138935Y49042I-5570J0D01*
G01*
X-137290Y44980D02*
G03*
X-137167Y44681I422J0D01*
G01*
X-102966Y83032D02*
G03*
X-103864Y85200I-3066J0D01*
G01*
X-117834Y86470D02*
G03*
X-115666Y85572I2168J2168D01*
G01*
X-119476Y88112D02*
G03*
X-120746Y91178I-4336J0D01*
G01*
X-121118Y91550D02*
G03*
X-122016Y89382I2168J-2168D01*
G01*
X-95357Y38559D02*
X-79357D01*
X-100435Y28542D02*
Y29049D01*
X-126702Y39725D02*
X-126288Y40139D01*
X-137303Y80129D02*
Y80824D01*
Y76255D02*
X-135830D01*
X-137303Y80129D02*
Y80824D01*
X-138777Y76255D02*
X-137303D01*
Y44343D02*
Y45038D01*
Y48912D02*
X-135830D01*
X-138777Y48977D02*
X-137303D01*
Y44409D02*
Y45103D01*
X-137290Y44980D02*
Y77968D01*
X-140607Y44146D02*
X-97173D01*
X-141126Y80690D02*
X-97693D01*
X-79650Y38564D02*
X-52541D01*
X-102966Y83032D02*
X-100426Y28422D01*
X-104236Y85572D02*
X-103864Y85200D01*
X-115666Y85572D02*
X-104236D01*
X-119476Y88112D02*
X-117834Y86470D01*
X-121118Y91550D02*
X-120746Y91178D01*
X-125826Y40686D02*
X-122016Y89382D01*
X-152030Y38565D02*
X-129635Y38538D01*
X-149728Y67665D02*
Y62000D01*
Y65237D02*
X-149323Y66451D01*
X-148514Y67261D01*
X-147704Y67665D01*
X-146490D01*
X-154764Y73998D02*
Y67119D01*
X-154359Y65905D01*
X-153550Y65500D01*
X-152740D01*
X-155978Y71165D02*
X-153145D01*
X-93572Y51025D02*
X-92763Y51430D01*
X-91549Y52644D01*
Y44146D01*
X-84912Y52644D02*
X-86126Y52239D01*
X-86935Y51025D01*
X-87340Y49002D01*
Y47788D01*
X-86935Y45764D01*
X-86126Y44550D01*
X-84912Y44146D01*
X-84103D01*
X-82889Y44550D01*
X-82079Y45764D01*
X-81675Y47788D01*
Y49002D01*
X-82079Y51025D01*
X-82889Y52239D01*
X-84103Y52644D01*
X-84912D01*
X-72488D02*
X-79773Y44146D01*
X-77749Y52644D02*
X-76940Y51835D01*
Y51025D01*
X-77345Y50216D01*
X-78154Y49811D01*
X-78963D01*
X-79773Y50620D01*
Y51430D01*
X-79368Y52239D01*
X-78559Y52644D01*
X-77749D01*
X-76940Y52239D01*
X-75726Y51835D01*
X-74512D01*
X-73298Y52239D01*
X-72488Y52644D01*
X-74107Y46978D02*
X-74917Y46574D01*
X-75321Y45764D01*
Y44955D01*
X-74512Y44146D01*
X-73703D01*
X-72893Y44550D01*
X-72488Y45360D01*
Y46169D01*
X-73298Y46978D01*
X-74107D01*
X-88983Y78957D02*
X-89388Y77743D01*
X-90197Y76934D01*
X-91411Y76529D01*
X-91816D01*
X-93030Y76934D01*
X-93839Y77743D01*
X-94244Y78957D01*
Y79362D01*
X-93839Y80576D01*
X-93030Y81385D01*
X-91816Y81790D01*
X-91411D01*
X-90197Y81385D01*
X-89388Y80576D01*
X-88983Y78957D01*
Y76934D01*
X-89388Y74910D01*
X-90197Y73696D01*
X-91411Y73292D01*
X-92220D01*
X-93435Y73696D01*
X-93839Y74506D01*
X-84248Y81790D02*
X-85463Y81385D01*
X-86272Y80171D01*
X-86677Y78148D01*
Y76934D01*
X-86272Y74910D01*
X-85463Y73696D01*
X-84248Y73292D01*
X-83439D01*
X-82225Y73696D01*
X-81416Y74910D01*
X-81011Y76934D01*
Y78148D01*
X-81416Y80171D01*
X-82225Y81385D01*
X-83439Y81790D01*
X-84248D01*
X-71825D02*
X-79109Y73292D01*
X-77086Y81790D02*
X-76276Y80980D01*
Y80171D01*
X-76681Y79362D01*
X-77490Y78957D01*
X-78300D01*
X-79109Y79766D01*
Y80576D01*
X-78704Y81385D01*
X-77895Y81790D01*
X-77086D01*
X-76276Y81385D01*
X-75062Y80980D01*
X-73848D01*
X-72634Y81385D01*
X-71825Y81790D01*
X-73444Y76124D02*
X-74253Y75720D01*
X-74658Y74910D01*
Y74101D01*
X-73848Y73292D01*
X-73039D01*
X-72230Y73696D01*
X-71825Y74506D01*
Y75315D01*
X-72634Y76124D01*
X-73444D01*
M02*
