G04*
G04 #@! TF.GenerationSoftware,Altium Limited,Altium Designer,25.8.1 (18)*
G04*
G04 Layer_Color=16711935*
%FSLAX44Y44*%
%MOMM*%
G71*
G04*
G04 #@! TF.SameCoordinates,327828DF-0DB9-4246-8E8B-F53C81CF52F2*
G04*
G04*
G04 #@! TF.FilePolarity,Negative*
G04*
G01*
G75*
%ADD11C,1.0000*%
%ADD12C,3.0000*%
%ADD13R,2.3845X8.2000*%
%ADD14C,8.2000*%
D11*
X-48083Y-7072D02*
G03*
X48081Y-7072I48082J15275D01*
G01*
Y23479D02*
G03*
X52604Y20609I4523J2130D01*
G01*
X-52606D02*
G03*
X-48083Y23479I0J5000D01*
G01*
X48081D02*
G03*
X-48083Y23479I-48082J-15275D01*
G01*
Y-7072D02*
G03*
X-52606Y-4203I-4523J-2130D01*
G01*
Y20609D02*
G03*
X-57606Y15609I0J-5000D01*
G01*
X52604Y-4203D02*
G03*
X57604Y797I0J5000D01*
G01*
X-57606D02*
G03*
X-52606Y-4203I5000J0D01*
G01*
X57604Y15609D02*
G03*
X52604Y20609I-5000J0D01*
G01*
Y-4203D02*
G03*
X48081Y-7072I0J-5000D01*
G01*
X57604Y797D02*
Y15609D01*
X-57606Y797D02*
Y15609D01*
D12*
X-173213Y111806D02*
G03*
X-209650Y75369I0J-36437D01*
G01*
X173087Y-111794D02*
G03*
X209587Y-75294I0J36500D01*
G01*
Y75369D02*
G03*
X173150Y111806I-36437J0D01*
G01*
X-209650Y-75294D02*
G03*
X-173151Y-111794I36500J0D01*
G01*
X-173213Y111806D02*
X173150D01*
X-209650Y-75294D02*
Y75369D01*
X-173151Y-111794D02*
X173087D01*
X209587Y-75294D02*
Y75369D01*
D13*
X189922Y-0D02*
D03*
X-189923Y-1D02*
D03*
D14*
X-178000Y-1D02*
D03*
X178000Y0D02*
D03*
M02*
