G04*
G04 #@! TF.GenerationSoftware,Altium Limited,Altium Designer,25.8.1 (18)*
G04*
G04 Layer_Color=32896*
%FSLAX44Y44*%
%MOMM*%
G71*
G04*
G04 #@! TF.SameCoordinates,327828DF-0DB9-4246-8E8B-F53C81CF52F2*
G04*
G04*
G04 #@! TF.FilePolarity,Positive*
G04*
G01*
G75*
%ADD10C,0.1500*%
G36*
X125762Y-69479D02*
X125918Y-69496D01*
X126057Y-69531D01*
X126161Y-69565D01*
X126231Y-69617D01*
X126283Y-69652D01*
X126317Y-69669D01*
X126335Y-69687D01*
X126404Y-69791D01*
X126456Y-69895D01*
X126508Y-70155D01*
X126526Y-70277D01*
X126543Y-70381D01*
Y-70450D01*
Y-70468D01*
X126526Y-70658D01*
X126508Y-70814D01*
X126474Y-70953D01*
X126439Y-71057D01*
X126404Y-71144D01*
X126369Y-71196D01*
X126335Y-71231D01*
Y-71248D01*
X126231Y-71318D01*
X126127Y-71370D01*
X125884Y-71422D01*
X125762Y-71439D01*
X125675Y-71456D01*
X125589D01*
X125415Y-71439D01*
X125259Y-71422D01*
X125120Y-71387D01*
X125016Y-71335D01*
X124947Y-71300D01*
X124878Y-71266D01*
X124860Y-71248D01*
X124843Y-71231D01*
X124756Y-71127D01*
X124704Y-71005D01*
X124635Y-70762D01*
X124617Y-70641D01*
X124600Y-70537D01*
Y-70468D01*
Y-70450D01*
X124617Y-70259D01*
X124635Y-70103D01*
X124669Y-69964D01*
X124704Y-69860D01*
X124756Y-69791D01*
X124791Y-69721D01*
X124808Y-69704D01*
X124825Y-69687D01*
X124930Y-69617D01*
X125034Y-69548D01*
X125276Y-69496D01*
X125398Y-69479D01*
X125485Y-69461D01*
X125571D01*
X125762Y-69479D01*
D02*
G37*
G36*
X-59360Y-72896D02*
X-59204Y-72914D01*
X-59048Y-72931D01*
X-58927Y-72948D01*
X-58823Y-72966D01*
X-58753Y-72983D01*
X-58736D01*
X-58389Y-73052D01*
X-58233Y-73105D01*
X-58094Y-73139D01*
X-57972Y-73174D01*
X-57886Y-73191D01*
X-57834Y-73226D01*
X-57816D01*
X-57521Y-73330D01*
X-57400Y-73382D01*
X-57279Y-73434D01*
X-57192Y-73486D01*
X-57122Y-73521D01*
X-57070Y-73538D01*
X-57053Y-73555D01*
X-56845Y-73677D01*
X-56689Y-73781D01*
X-56602Y-73850D01*
X-56567Y-73885D01*
X-56481Y-73989D01*
X-56428Y-74076D01*
X-56394Y-74145D01*
Y-74180D01*
X-56377Y-74302D01*
X-56359Y-74440D01*
Y-74544D01*
Y-74562D01*
Y-74579D01*
Y-74683D01*
X-56377Y-74770D01*
Y-74822D01*
Y-74839D01*
X-56394Y-74909D01*
X-56411Y-74978D01*
X-56446Y-75030D01*
Y-75047D01*
X-56498Y-75100D01*
X-56550Y-75134D01*
X-56585Y-75169D01*
X-56602D01*
X-56671Y-75186D01*
X-56741Y-75204D01*
X-56810D01*
X-56932Y-75186D01*
X-57070Y-75134D01*
X-57175Y-75082D01*
X-57192Y-75065D01*
X-57209D01*
X-57417Y-74943D01*
X-57608Y-74839D01*
X-57695Y-74805D01*
X-57764Y-74770D01*
X-57799Y-74735D01*
X-57816D01*
X-58094Y-74614D01*
X-58354Y-74510D01*
X-58458Y-74475D01*
X-58545Y-74440D01*
X-58597Y-74423D01*
X-58614D01*
X-58961Y-74336D01*
X-59135Y-74319D01*
X-59291Y-74302D01*
X-59430Y-74284D01*
X-59829D01*
X-60002Y-74302D01*
X-60158Y-74319D01*
X-60297Y-74353D01*
X-60401Y-74371D01*
X-60488Y-74406D01*
X-60540Y-74423D01*
X-60557D01*
X-60818Y-74544D01*
X-60922Y-74614D01*
X-61008Y-74666D01*
X-61078Y-74735D01*
X-61130Y-74770D01*
X-61147Y-74805D01*
X-61165Y-74822D01*
X-61321Y-75030D01*
X-61425Y-75238D01*
X-61459Y-75325D01*
X-61494Y-75394D01*
X-61512Y-75447D01*
Y-75464D01*
X-61581Y-75776D01*
X-61598Y-75932D01*
X-61616Y-76088D01*
X-61633Y-76210D01*
Y-76314D01*
Y-76383D01*
Y-76401D01*
Y-76956D01*
X-60054D01*
X-59725Y-76990D01*
X-59412Y-77008D01*
X-59152Y-77042D01*
X-58927Y-77077D01*
X-58753Y-77112D01*
X-58649Y-77129D01*
X-58632Y-77147D01*
X-58614D01*
X-58320Y-77233D01*
X-58042Y-77320D01*
X-57799Y-77424D01*
X-57591Y-77511D01*
X-57435Y-77598D01*
X-57296Y-77667D01*
X-57227Y-77719D01*
X-57192Y-77736D01*
X-56984Y-77893D01*
X-56793Y-78049D01*
X-56637Y-78205D01*
X-56515Y-78361D01*
X-56411Y-78500D01*
X-56342Y-78604D01*
X-56290Y-78673D01*
X-56272Y-78708D01*
X-56168Y-78933D01*
X-56099Y-79159D01*
X-56030Y-79384D01*
X-55995Y-79610D01*
X-55978Y-79801D01*
X-55960Y-79940D01*
Y-80044D01*
Y-80061D01*
Y-80078D01*
X-55978Y-80304D01*
X-55995Y-80529D01*
X-56030Y-80720D01*
X-56064Y-80894D01*
X-56099Y-81050D01*
X-56134Y-81154D01*
X-56168Y-81223D01*
Y-81241D01*
X-56255Y-81432D01*
X-56359Y-81605D01*
X-56463Y-81744D01*
X-56567Y-81883D01*
X-56671Y-81987D01*
X-56741Y-82056D01*
X-56793Y-82108D01*
X-56810Y-82126D01*
X-57140Y-82368D01*
X-57313Y-82455D01*
X-57469Y-82542D01*
X-57608Y-82594D01*
X-57712Y-82646D01*
X-57799Y-82663D01*
X-57816Y-82681D01*
X-58042Y-82750D01*
X-58267Y-82785D01*
X-58493Y-82819D01*
X-58701Y-82854D01*
X-58875D01*
X-59013Y-82872D01*
X-59135D01*
X-59447Y-82854D01*
X-59742Y-82819D01*
X-60002Y-82750D01*
X-60245Y-82681D01*
X-60436Y-82629D01*
X-60592Y-82559D01*
X-60679Y-82524D01*
X-60714Y-82507D01*
X-60974Y-82351D01*
X-61199Y-82195D01*
X-61373Y-82021D01*
X-61529Y-81865D01*
X-61633Y-81727D01*
X-61702Y-81622D01*
X-61737Y-81553D01*
X-61754Y-81518D01*
Y-82299D01*
X-61772Y-82420D01*
X-61824Y-82524D01*
X-61859Y-82577D01*
X-61876Y-82594D01*
X-61963Y-82663D01*
X-62049Y-82698D01*
X-62119Y-82715D01*
X-62136D01*
X-62257Y-82733D01*
X-62362Y-82750D01*
X-62622D01*
X-62743Y-82733D01*
X-62813Y-82715D01*
X-62830D01*
X-62934Y-82681D01*
X-63021Y-82646D01*
X-63073Y-82611D01*
X-63090Y-82594D01*
X-63160Y-82507D01*
X-63194Y-82403D01*
X-63212Y-82334D01*
Y-82299D01*
Y-76314D01*
Y-76036D01*
X-63177Y-75759D01*
X-63160Y-75516D01*
X-63125Y-75308D01*
X-63090Y-75134D01*
X-63056Y-74995D01*
X-63038Y-74926D01*
X-63021Y-74891D01*
X-62951Y-74666D01*
X-62847Y-74458D01*
X-62761Y-74267D01*
X-62656Y-74111D01*
X-62552Y-73989D01*
X-62483Y-73885D01*
X-62431Y-73833D01*
X-62414Y-73816D01*
X-62240Y-73660D01*
X-62067Y-73521D01*
X-61893Y-73399D01*
X-61720Y-73295D01*
X-61564Y-73226D01*
X-61442Y-73174D01*
X-61355Y-73139D01*
X-61321Y-73122D01*
X-61061Y-73035D01*
X-60800Y-72983D01*
X-60523Y-72931D01*
X-60280Y-72914D01*
X-60054Y-72896D01*
X-59881Y-72879D01*
X-59725D01*
X-59360Y-72896D01*
D02*
G37*
G36*
X-112151Y-68646D02*
X-112081Y-68663D01*
X-112047D01*
X-111943Y-68681D01*
X-111873Y-68698D01*
X-111804Y-68715D01*
X-111787Y-68733D01*
X-111717Y-68785D01*
X-111665Y-68837D01*
X-111648Y-68871D01*
X-111630Y-68889D01*
X-111596Y-69010D01*
Y-69062D01*
Y-69080D01*
Y-82299D01*
Y-82368D01*
X-111613Y-82438D01*
X-111630Y-82490D01*
Y-82507D01*
X-111683Y-82577D01*
X-111735Y-82629D01*
X-111787Y-82646D01*
X-111804Y-82663D01*
X-111891Y-82681D01*
X-111977Y-82698D01*
X-112029Y-82715D01*
X-112047D01*
X-112151Y-82733D01*
X-112255Y-82750D01*
X-112515D01*
X-112619Y-82733D01*
X-112689Y-82715D01*
X-112706D01*
X-112793Y-82698D01*
X-112862Y-82681D01*
X-112914Y-82663D01*
X-112932D01*
X-113001Y-82611D01*
X-113053Y-82559D01*
X-113088Y-82524D01*
X-113105Y-82507D01*
X-113140Y-82438D01*
X-113174Y-82368D01*
Y-82316D01*
Y-82299D01*
Y-77476D01*
X-116939Y-82403D01*
X-117008Y-82472D01*
X-117060Y-82542D01*
X-117095Y-82577D01*
X-117113Y-82594D01*
X-117182Y-82646D01*
X-117251Y-82663D01*
X-117303Y-82698D01*
X-117321D01*
X-117407Y-82715D01*
X-117494D01*
X-117564Y-82733D01*
X-117581D01*
X-117702Y-82750D01*
X-118101D01*
X-118205Y-82733D01*
X-118275Y-82715D01*
X-118292D01*
X-118396Y-82698D01*
X-118466Y-82681D01*
X-118518Y-82663D01*
X-118535D01*
X-118604Y-82611D01*
X-118657Y-82559D01*
X-118691Y-82524D01*
X-118709Y-82507D01*
X-118743Y-82420D01*
X-118778Y-82351D01*
Y-82299D01*
Y-82282D01*
X-118761Y-82178D01*
X-118743Y-82108D01*
X-118726Y-82056D01*
X-118709Y-82039D01*
X-118639Y-81952D01*
X-118570Y-81865D01*
X-118518Y-81796D01*
X-118483Y-81779D01*
X-114597Y-77216D01*
X-118153Y-73937D01*
X-118223Y-73850D01*
X-118292Y-73781D01*
X-118327Y-73729D01*
X-118344Y-73712D01*
X-118396Y-73608D01*
X-118414Y-73503D01*
X-118431Y-73434D01*
Y-73417D01*
X-118414Y-73330D01*
X-118396Y-73243D01*
X-118362Y-73208D01*
X-118344Y-73191D01*
X-118275Y-73139D01*
X-118205Y-73105D01*
X-118153Y-73070D01*
X-118136D01*
X-118049Y-73035D01*
X-117963Y-73018D01*
X-117910Y-73000D01*
X-117876D01*
X-117754Y-72983D01*
X-117442D01*
X-117355Y-73000D01*
X-117286Y-73018D01*
X-117251D01*
X-117147Y-73035D01*
X-117060Y-73052D01*
X-116991Y-73070D01*
X-116974D01*
X-116887Y-73105D01*
X-116818Y-73139D01*
X-116766Y-73156D01*
X-116748Y-73174D01*
X-116679Y-73226D01*
X-116627Y-73278D01*
X-116592Y-73313D01*
X-116575Y-73330D01*
X-113174Y-77042D01*
Y-69080D01*
X-113157Y-69010D01*
X-113140Y-68941D01*
X-113122Y-68906D01*
X-113105Y-68889D01*
X-113053Y-68819D01*
X-113001Y-68767D01*
X-112966Y-68750D01*
X-112949Y-68733D01*
X-112862Y-68698D01*
X-112775Y-68681D01*
X-112723Y-68663D01*
X-112689D01*
X-112585Y-68646D01*
X-112480Y-68629D01*
X-112255D01*
X-112151Y-68646D01*
D02*
G37*
G36*
X-95427Y-69652D02*
X-95254Y-69704D01*
X-95202Y-69739D01*
X-95150Y-69774D01*
X-95115Y-69791D01*
X-95098Y-69808D01*
X-95011Y-69878D01*
X-94959Y-69982D01*
X-94889Y-70190D01*
X-94872Y-70277D01*
X-94855Y-70363D01*
Y-70416D01*
Y-70433D01*
Y-82299D01*
Y-82368D01*
X-94872Y-82438D01*
X-94889Y-82490D01*
Y-82507D01*
X-94942Y-82577D01*
X-94994Y-82629D01*
X-95046Y-82646D01*
X-95063Y-82663D01*
X-95150Y-82681D01*
X-95236Y-82698D01*
X-95288Y-82715D01*
X-95306D01*
X-95410Y-82733D01*
X-95514Y-82750D01*
X-95774D01*
X-95878Y-82733D01*
X-95948Y-82715D01*
X-95965D01*
X-96052Y-82698D01*
X-96138Y-82681D01*
X-96191Y-82663D01*
X-96208D01*
X-96295Y-82629D01*
X-96347Y-82577D01*
X-96381Y-82542D01*
X-96399Y-82524D01*
X-96433Y-82438D01*
X-96468Y-82368D01*
Y-82316D01*
Y-82299D01*
Y-71916D01*
X-100805Y-82438D01*
X-100823Y-82490D01*
X-100857Y-82542D01*
X-100875Y-82577D01*
X-100892Y-82594D01*
X-101013Y-82663D01*
X-101048Y-82681D01*
X-101065D01*
X-101135Y-82698D01*
X-101204Y-82715D01*
X-101256Y-82733D01*
X-101274D01*
X-101360Y-82750D01*
X-101655D01*
X-101742Y-82733D01*
X-101811D01*
X-101881Y-82715D01*
X-101950D01*
X-101985Y-82698D01*
X-102002D01*
X-102072Y-82663D01*
X-102124Y-82646D01*
X-102158Y-82611D01*
X-102176D01*
X-102262Y-82507D01*
X-102297Y-82472D01*
Y-82455D01*
X-106912Y-71796D01*
Y-82299D01*
X-106929Y-82386D01*
X-106946Y-82455D01*
X-106964Y-82507D01*
Y-82524D01*
X-107085Y-82629D01*
X-107120Y-82646D01*
X-107137Y-82663D01*
X-107224Y-82681D01*
X-107311Y-82698D01*
X-107363Y-82715D01*
X-107380D01*
X-107484Y-82733D01*
X-107588Y-82750D01*
X-107831D01*
X-107935Y-82733D01*
X-108005Y-82715D01*
X-108022D01*
X-108109Y-82698D01*
X-108195Y-82681D01*
X-108248Y-82663D01*
X-108265D01*
X-108352Y-82629D01*
X-108404Y-82577D01*
X-108438Y-82542D01*
X-108456Y-82524D01*
X-108490Y-82438D01*
X-108525Y-82368D01*
Y-82316D01*
Y-82299D01*
Y-70433D01*
X-108508Y-70294D01*
X-108490Y-70173D01*
X-108473Y-70103D01*
X-108456Y-70068D01*
X-108404Y-69964D01*
X-108334Y-69878D01*
X-108282Y-69826D01*
X-108265Y-69808D01*
X-108178Y-69739D01*
X-108091Y-69704D01*
X-108022Y-69669D01*
X-108005D01*
X-107918Y-69635D01*
X-107831Y-69618D01*
X-106912D01*
X-106790Y-69635D01*
X-106704Y-69652D01*
X-106686Y-69669D01*
X-106669D01*
X-106547Y-69722D01*
X-106443Y-69774D01*
X-106374Y-69826D01*
X-106339Y-69843D01*
X-106235Y-69947D01*
X-106131Y-70051D01*
X-106062Y-70121D01*
X-106044Y-70138D01*
Y-70155D01*
X-105958Y-70294D01*
X-105888Y-70433D01*
X-105854Y-70537D01*
X-105836Y-70554D01*
Y-70572D01*
X-101639Y-80213D01*
X-97631Y-70814D01*
X-97596Y-70641D01*
X-97561Y-70502D01*
X-97526Y-70398D01*
X-97492Y-70311D01*
X-97457Y-70242D01*
X-97440Y-70207D01*
X-97422Y-70173D01*
X-97336Y-70051D01*
X-97249Y-69964D01*
X-97179Y-69895D01*
X-97145Y-69878D01*
X-97006Y-69791D01*
X-96884Y-69739D01*
X-96780Y-69704D01*
X-96763Y-69687D01*
X-96746D01*
X-96572Y-69652D01*
X-96416Y-69618D01*
X-95514D01*
X-95427Y-69652D01*
D02*
G37*
G36*
X-11861Y-69479D02*
X-11375Y-69531D01*
X-10941Y-69618D01*
X-10560Y-69704D01*
X-10386Y-69756D01*
X-10248Y-69808D01*
X-10109Y-69843D01*
X-10005Y-69878D01*
X-9918Y-69912D01*
X-9849Y-69947D01*
X-9814Y-69964D01*
X-9797D01*
X-9380Y-70173D01*
X-8999Y-70398D01*
X-8652Y-70624D01*
X-8357Y-70849D01*
X-8114Y-71057D01*
X-7940Y-71213D01*
X-7871Y-71283D01*
X-7819Y-71335D01*
X-7801Y-71352D01*
X-7784Y-71370D01*
X-7489Y-71717D01*
X-7229Y-72081D01*
X-7021Y-72428D01*
X-6830Y-72775D01*
X-6691Y-73052D01*
X-6639Y-73191D01*
X-6587Y-73295D01*
X-6552Y-73382D01*
X-6518Y-73451D01*
X-6500Y-73486D01*
Y-73503D01*
X-6344Y-73972D01*
X-6240Y-74458D01*
X-6153Y-74909D01*
X-6101Y-75342D01*
X-6084Y-75533D01*
X-6067Y-75707D01*
Y-75863D01*
X-6049Y-76002D01*
Y-76106D01*
Y-76192D01*
Y-76244D01*
Y-76262D01*
X-6067Y-76800D01*
X-6119Y-77285D01*
X-6188Y-77754D01*
X-6258Y-78135D01*
X-6292Y-78309D01*
X-6327Y-78465D01*
X-6362Y-78604D01*
X-6396Y-78725D01*
X-6431Y-78812D01*
X-6448Y-78881D01*
X-6466Y-78916D01*
Y-78933D01*
X-6639Y-79367D01*
X-6830Y-79766D01*
X-7038Y-80113D01*
X-7246Y-80425D01*
X-7420Y-80668D01*
X-7489Y-80772D01*
X-7559Y-80859D01*
X-7628Y-80928D01*
X-7663Y-80981D01*
X-7680Y-80998D01*
X-7697Y-81015D01*
X-8010Y-81327D01*
X-8357Y-81588D01*
X-8686Y-81831D01*
X-8999Y-82021D01*
X-9259Y-82160D01*
X-9380Y-82230D01*
X-9484Y-82282D01*
X-9571Y-82316D01*
X-9623Y-82351D01*
X-9658Y-82368D01*
X-9675D01*
X-10126Y-82524D01*
X-10577Y-82646D01*
X-11028Y-82715D01*
X-11445Y-82785D01*
X-11618Y-82802D01*
X-11792Y-82819D01*
X-11948D01*
X-12086Y-82837D01*
X-12329D01*
X-12676Y-82819D01*
X-12850D01*
X-12989Y-82802D01*
X-13110Y-82785D01*
X-13197D01*
X-13266Y-82767D01*
X-13283D01*
X-13648Y-82715D01*
X-13804Y-82681D01*
X-13960Y-82646D01*
X-14082Y-82611D01*
X-14168Y-82594D01*
X-14238Y-82577D01*
X-14255D01*
X-14619Y-82472D01*
X-14776Y-82438D01*
X-14914Y-82386D01*
X-15036Y-82351D01*
X-15122Y-82316D01*
X-15174Y-82282D01*
X-15192D01*
X-15348Y-82212D01*
X-15504Y-82143D01*
X-15625Y-82073D01*
X-15730Y-82021D01*
X-15816Y-81987D01*
X-15886Y-81952D01*
X-15920Y-81917D01*
X-15938D01*
X-16042Y-81848D01*
X-16129Y-81779D01*
X-16267Y-81657D01*
X-16337Y-81570D01*
X-16354Y-81553D01*
Y-81536D01*
X-16424Y-81362D01*
X-16441Y-81206D01*
X-16458Y-81137D01*
Y-81085D01*
Y-81050D01*
Y-81033D01*
Y-76314D01*
X-16441Y-76175D01*
X-16424Y-76054D01*
X-16406Y-75984D01*
X-16389Y-75950D01*
X-16337Y-75845D01*
X-16267Y-75759D01*
X-16215Y-75707D01*
X-16198Y-75689D01*
X-16111Y-75620D01*
X-16025Y-75585D01*
X-15955Y-75550D01*
X-15938D01*
X-15851Y-75516D01*
X-15764Y-75498D01*
X-11826D01*
X-11722Y-75516D01*
X-11636Y-75533D01*
X-11583Y-75550D01*
X-11566Y-75568D01*
X-11497Y-75620D01*
X-11445Y-75672D01*
X-11410Y-75724D01*
X-11393Y-75741D01*
X-11358Y-75811D01*
X-11341Y-75880D01*
X-11323Y-75950D01*
Y-75967D01*
X-11306Y-76054D01*
Y-76158D01*
Y-76210D01*
Y-76245D01*
X-11323Y-76453D01*
X-11358Y-76626D01*
X-11393Y-76730D01*
X-11410Y-76748D01*
Y-76765D01*
X-11462Y-76834D01*
X-11531Y-76886D01*
X-11670Y-76938D01*
X-11774Y-76973D01*
X-14845D01*
Y-80772D01*
X-14654Y-80859D01*
X-14463Y-80946D01*
X-14272Y-81015D01*
X-14082Y-81085D01*
X-13925Y-81119D01*
X-13804Y-81154D01*
X-13717Y-81189D01*
X-13683D01*
X-13197Y-81276D01*
X-12989Y-81310D01*
X-12780Y-81327D01*
X-12624D01*
X-12486Y-81345D01*
X-12381D01*
X-12017Y-81327D01*
X-11670Y-81293D01*
X-11358Y-81241D01*
X-11080Y-81171D01*
X-10855Y-81119D01*
X-10681Y-81067D01*
X-10612Y-81050D01*
X-10560Y-81033D01*
X-10543Y-81015D01*
X-10525D01*
X-10213Y-80876D01*
X-9935Y-80703D01*
X-9693Y-80547D01*
X-9484Y-80373D01*
X-9311Y-80235D01*
X-9172Y-80113D01*
X-9103Y-80044D01*
X-9068Y-80009D01*
X-8860Y-79749D01*
X-8669Y-79471D01*
X-8495Y-79211D01*
X-8357Y-78951D01*
X-8253Y-78725D01*
X-8183Y-78534D01*
X-8148Y-78465D01*
X-8131Y-78413D01*
X-8114Y-78396D01*
Y-78378D01*
X-7992Y-77997D01*
X-7906Y-77615D01*
X-7854Y-77251D01*
X-7819Y-76904D01*
X-7784Y-76609D01*
Y-76470D01*
X-7767Y-76366D01*
Y-76279D01*
Y-76210D01*
Y-76175D01*
Y-76158D01*
X-7784Y-75741D01*
X-7819Y-75360D01*
X-7854Y-74995D01*
X-7923Y-74700D01*
X-7975Y-74440D01*
X-7992Y-74336D01*
X-8010Y-74249D01*
X-8027Y-74163D01*
X-8044Y-74111D01*
X-8062Y-74093D01*
Y-74076D01*
X-8183Y-73729D01*
X-8339Y-73417D01*
X-8478Y-73139D01*
X-8617Y-72896D01*
X-8756Y-72705D01*
X-8860Y-72549D01*
X-8929Y-72463D01*
X-8946Y-72428D01*
X-9172Y-72185D01*
X-9415Y-71960D01*
X-9658Y-71769D01*
X-9883Y-71613D01*
X-10074Y-71491D01*
X-10230Y-71404D01*
X-10334Y-71352D01*
X-10352Y-71335D01*
X-10369D01*
X-10699Y-71196D01*
X-11011Y-71109D01*
X-11341Y-71040D01*
X-11636Y-70988D01*
X-11896Y-70953D01*
X-12000D01*
X-12104Y-70936D01*
X-12590D01*
X-12867Y-70971D01*
X-13110Y-71005D01*
X-13336Y-71040D01*
X-13509Y-71075D01*
X-13648Y-71109D01*
X-13717Y-71127D01*
X-13752Y-71144D01*
X-13978Y-71213D01*
X-14186Y-71283D01*
X-14359Y-71352D01*
X-14515Y-71422D01*
X-14637Y-71474D01*
X-14741Y-71526D01*
X-14793Y-71543D01*
X-14810Y-71561D01*
X-14966Y-71630D01*
X-15105Y-71717D01*
X-15227Y-71786D01*
X-15331Y-71838D01*
X-15417Y-71907D01*
X-15469Y-71942D01*
X-15504Y-71960D01*
X-15522Y-71977D01*
X-15625Y-72046D01*
X-15730Y-72098D01*
X-15868Y-72150D01*
X-15972Y-72185D01*
X-16007D01*
X-16094Y-72168D01*
X-16163Y-72150D01*
X-16215Y-72133D01*
X-16233Y-72116D01*
X-16302Y-72064D01*
X-16354Y-71994D01*
X-16372Y-71960D01*
X-16389Y-71942D01*
X-16424Y-71855D01*
X-16441Y-71769D01*
X-16458Y-71699D01*
Y-71682D01*
X-16476Y-71578D01*
X-16493Y-71491D01*
Y-71439D01*
Y-71422D01*
X-16476Y-71248D01*
X-16458Y-71127D01*
X-16441Y-71057D01*
X-16424Y-71023D01*
X-16372Y-70919D01*
X-16302Y-70814D01*
X-16233Y-70745D01*
X-16215Y-70728D01*
X-16146Y-70658D01*
X-16077Y-70606D01*
X-15920Y-70485D01*
X-15834Y-70433D01*
X-15764Y-70381D01*
X-15730Y-70363D01*
X-15712Y-70346D01*
X-15435Y-70190D01*
X-15157Y-70051D01*
X-15036Y-69999D01*
X-14932Y-69964D01*
X-14862Y-69930D01*
X-14845D01*
X-14446Y-69791D01*
X-14255Y-69739D01*
X-14082Y-69687D01*
X-13925Y-69652D01*
X-13804Y-69618D01*
X-13735Y-69600D01*
X-13700D01*
X-13232Y-69513D01*
X-13006Y-69496D01*
X-12798Y-69479D01*
X-12624Y-69461D01*
X-12364D01*
X-11861Y-69479D01*
D02*
G37*
G36*
X118702Y-72896D02*
X119014Y-72931D01*
X119291Y-72983D01*
X119534Y-73035D01*
X119725Y-73087D01*
X119881Y-73139D01*
X119985Y-73174D01*
X120003Y-73191D01*
X120020D01*
X120298Y-73313D01*
X120558Y-73451D01*
X120783Y-73608D01*
X120974Y-73764D01*
X121130Y-73902D01*
X121252Y-74007D01*
X121321Y-74076D01*
X121356Y-74111D01*
X121564Y-74353D01*
X121737Y-74614D01*
X121894Y-74874D01*
X122015Y-75117D01*
X122119Y-75342D01*
X122189Y-75516D01*
X122206Y-75585D01*
X122223Y-75637D01*
X122241Y-75655D01*
Y-75672D01*
X122345Y-76036D01*
X122414Y-76435D01*
X122484Y-76817D01*
X122518Y-77164D01*
X122535Y-77476D01*
Y-77615D01*
X122553Y-77719D01*
Y-77823D01*
Y-77892D01*
Y-77927D01*
Y-77945D01*
X122535Y-78378D01*
X122518Y-78777D01*
X122484Y-79124D01*
X122431Y-79436D01*
X122379Y-79697D01*
X122362Y-79801D01*
X122345Y-79888D01*
X122327Y-79957D01*
Y-80009D01*
X122310Y-80026D01*
Y-80044D01*
X122206Y-80373D01*
X122085Y-80668D01*
X121946Y-80928D01*
X121824Y-81154D01*
X121720Y-81345D01*
X121633Y-81466D01*
X121564Y-81553D01*
X121547Y-81588D01*
X121339Y-81813D01*
X121130Y-82004D01*
X120922Y-82177D01*
X120714Y-82316D01*
X120541Y-82420D01*
X120402Y-82490D01*
X120315Y-82542D01*
X120280Y-82559D01*
X119985Y-82663D01*
X119690Y-82733D01*
X119396Y-82802D01*
X119118Y-82837D01*
X118892Y-82854D01*
X118702Y-82872D01*
X118545D01*
X118198Y-82854D01*
X118042Y-82837D01*
X117903Y-82819D01*
X117782Y-82802D01*
X117695Y-82785D01*
X117643Y-82767D01*
X117626D01*
X117296Y-82698D01*
X117158Y-82663D01*
X117036Y-82629D01*
X116932Y-82594D01*
X116845Y-82559D01*
X116793Y-82542D01*
X116776D01*
X116498Y-82420D01*
X116377Y-82351D01*
X116273Y-82299D01*
X116186Y-82247D01*
X116117Y-82212D01*
X116082Y-82195D01*
X116065Y-82177D01*
X115857Y-82039D01*
X115718Y-81917D01*
X115631Y-81848D01*
X115614Y-81831D01*
X115527Y-81744D01*
X115457Y-81657D01*
X115440Y-81622D01*
X115423Y-81605D01*
X115371Y-81484D01*
X115353Y-81449D01*
Y-81432D01*
X115319Y-81293D01*
X115301Y-81241D01*
Y-81223D01*
X115284Y-81137D01*
Y-81067D01*
Y-81015D01*
Y-80998D01*
Y-80894D01*
Y-80807D01*
X115301Y-80755D01*
Y-80738D01*
X115319Y-80651D01*
X115336Y-80582D01*
X115353Y-80529D01*
X115371Y-80512D01*
X115405Y-80425D01*
X115457Y-80373D01*
X115492Y-80339D01*
X115510Y-80321D01*
X115579Y-80269D01*
X115648Y-80252D01*
X115718Y-80234D01*
X115735D01*
X115804Y-80252D01*
X115891Y-80269D01*
X116030Y-80339D01*
X116134Y-80425D01*
X116169Y-80443D01*
X116186Y-80460D01*
X116377Y-80616D01*
X116550Y-80738D01*
X116637Y-80807D01*
X116689Y-80842D01*
X116724Y-80859D01*
X116741Y-80876D01*
X116984Y-81015D01*
X117227Y-81137D01*
X117331Y-81189D01*
X117418Y-81223D01*
X117470Y-81258D01*
X117487D01*
X117817Y-81362D01*
X117973Y-81397D01*
X118112Y-81414D01*
X118251D01*
X118355Y-81432D01*
X118441D01*
X118650Y-81414D01*
X118858Y-81397D01*
X119031Y-81362D01*
X119187Y-81327D01*
X119309Y-81293D01*
X119396Y-81258D01*
X119465Y-81223D01*
X119482D01*
X119638Y-81137D01*
X119795Y-81033D01*
X119933Y-80928D01*
X120037Y-80824D01*
X120141Y-80738D01*
X120211Y-80668D01*
X120246Y-80616D01*
X120263Y-80599D01*
X120367Y-80425D01*
X120471Y-80252D01*
X120558Y-80061D01*
X120627Y-79888D01*
X120679Y-79731D01*
X120714Y-79610D01*
X120749Y-79541D01*
Y-79506D01*
X120801Y-79246D01*
X120853Y-78968D01*
X120887Y-78708D01*
X120905Y-78448D01*
Y-78239D01*
X120922Y-78066D01*
Y-77997D01*
Y-77945D01*
Y-77927D01*
Y-77910D01*
Y-77580D01*
X120887Y-77285D01*
X120870Y-76990D01*
X120818Y-76730D01*
X120783Y-76487D01*
X120731Y-76279D01*
X120662Y-76071D01*
X120610Y-75897D01*
X120558Y-75741D01*
X120488Y-75603D01*
X120436Y-75481D01*
X120402Y-75394D01*
X120350Y-75308D01*
X120332Y-75256D01*
X120298Y-75238D01*
Y-75221D01*
X120176Y-75065D01*
X120037Y-74909D01*
X119899Y-74787D01*
X119742Y-74683D01*
X119430Y-74527D01*
X119153Y-74423D01*
X118875Y-74353D01*
X118771Y-74336D01*
X118667Y-74319D01*
X118580Y-74302D01*
X118268D01*
X118077Y-74336D01*
X117903Y-74353D01*
X117765Y-74388D01*
X117643Y-74423D01*
X117557Y-74440D01*
X117505Y-74475D01*
X117487D01*
X117192Y-74614D01*
X117071Y-74666D01*
X116967Y-74735D01*
X116897Y-74787D01*
X116828Y-74822D01*
X116793Y-74839D01*
X116776Y-74857D01*
X116568Y-74995D01*
X116412Y-75117D01*
X116342Y-75169D01*
X116290Y-75204D01*
X116273Y-75221D01*
X116256Y-75238D01*
X116169Y-75308D01*
X116082Y-75342D01*
X115943Y-75412D01*
X115839Y-75429D01*
X115804D01*
X115666Y-75394D01*
X115562Y-75342D01*
X115492Y-75290D01*
X115475Y-75256D01*
X115388Y-75082D01*
X115353Y-74909D01*
X115336Y-74839D01*
Y-74770D01*
Y-74735D01*
Y-74718D01*
Y-74631D01*
Y-74544D01*
X115353Y-74492D01*
Y-74475D01*
Y-74388D01*
X115371Y-74319D01*
X115388Y-74284D01*
Y-74267D01*
X115423Y-74197D01*
X115457Y-74128D01*
X115475Y-74093D01*
X115492Y-74076D01*
X115544Y-74007D01*
X115614Y-73937D01*
X115666Y-73885D01*
X115683Y-73868D01*
X115804Y-73764D01*
X115926Y-73642D01*
X116030Y-73573D01*
X116065Y-73538D01*
X116082D01*
X116290Y-73399D01*
X116498Y-73295D01*
X116585Y-73261D01*
X116655Y-73226D01*
X116706Y-73208D01*
X116724D01*
X117001Y-73122D01*
X117262Y-73035D01*
X117366Y-73018D01*
X117452Y-73000D01*
X117505Y-72983D01*
X117522D01*
X117834Y-72914D01*
X117973Y-72896D01*
X118112D01*
X118216Y-72879D01*
X118389D01*
X118702Y-72896D01*
D02*
G37*
G36*
X81958D02*
X82270Y-72931D01*
X82548Y-72983D01*
X82791Y-73035D01*
X82982Y-73087D01*
X83138Y-73139D01*
X83242Y-73174D01*
X83259Y-73191D01*
X83277D01*
X83554Y-73313D01*
X83814Y-73451D01*
X84040Y-73608D01*
X84231Y-73764D01*
X84387Y-73902D01*
X84508Y-74007D01*
X84578Y-74076D01*
X84612Y-74111D01*
X84820Y-74353D01*
X84994Y-74614D01*
X85150Y-74874D01*
X85272Y-75117D01*
X85376Y-75342D01*
X85445Y-75516D01*
X85462Y-75585D01*
X85480Y-75637D01*
X85497Y-75655D01*
Y-75672D01*
X85601Y-76036D01*
X85671Y-76435D01*
X85740Y-76817D01*
X85775Y-77164D01*
X85792Y-77476D01*
Y-77615D01*
X85809Y-77719D01*
Y-77823D01*
Y-77892D01*
Y-77927D01*
Y-77945D01*
X85792Y-78378D01*
X85775Y-78777D01*
X85740Y-79124D01*
X85688Y-79436D01*
X85636Y-79697D01*
X85618Y-79801D01*
X85601Y-79888D01*
X85584Y-79957D01*
Y-80009D01*
X85567Y-80026D01*
Y-80044D01*
X85462Y-80373D01*
X85341Y-80668D01*
X85202Y-80928D01*
X85081Y-81154D01*
X84977Y-81345D01*
X84890Y-81466D01*
X84820Y-81553D01*
X84803Y-81588D01*
X84595Y-81813D01*
X84387Y-82004D01*
X84179Y-82177D01*
X83970Y-82316D01*
X83797Y-82420D01*
X83658Y-82490D01*
X83572Y-82542D01*
X83537Y-82559D01*
X83242Y-82663D01*
X82947Y-82733D01*
X82652Y-82802D01*
X82374Y-82837D01*
X82149Y-82854D01*
X81958Y-82872D01*
X81802D01*
X81455Y-82854D01*
X81299Y-82837D01*
X81160Y-82819D01*
X81039Y-82802D01*
X80952Y-82785D01*
X80900Y-82767D01*
X80883D01*
X80553Y-82698D01*
X80414Y-82663D01*
X80293Y-82629D01*
X80189Y-82594D01*
X80102Y-82559D01*
X80050Y-82542D01*
X80032D01*
X79755Y-82420D01*
X79633Y-82351D01*
X79529Y-82299D01*
X79443Y-82247D01*
X79373Y-82212D01*
X79338Y-82195D01*
X79321Y-82177D01*
X79113Y-82039D01*
X78974Y-81917D01*
X78887Y-81848D01*
X78870Y-81831D01*
X78783Y-81744D01*
X78714Y-81657D01*
X78697Y-81622D01*
X78679Y-81605D01*
X78627Y-81484D01*
X78610Y-81449D01*
Y-81432D01*
X78575Y-81293D01*
X78558Y-81241D01*
Y-81223D01*
X78541Y-81137D01*
Y-81067D01*
Y-81015D01*
Y-80998D01*
Y-80894D01*
Y-80807D01*
X78558Y-80755D01*
Y-80738D01*
X78575Y-80651D01*
X78593Y-80582D01*
X78610Y-80529D01*
X78627Y-80512D01*
X78662Y-80425D01*
X78714Y-80373D01*
X78749Y-80339D01*
X78766Y-80321D01*
X78835Y-80269D01*
X78905Y-80252D01*
X78974Y-80234D01*
X78991D01*
X79061Y-80252D01*
X79148Y-80269D01*
X79286Y-80339D01*
X79391Y-80425D01*
X79425Y-80443D01*
X79443Y-80460D01*
X79633Y-80616D01*
X79807Y-80738D01*
X79894Y-80807D01*
X79946Y-80842D01*
X79980Y-80859D01*
X79998Y-80876D01*
X80241Y-81015D01*
X80484Y-81137D01*
X80588Y-81189D01*
X80674Y-81223D01*
X80726Y-81258D01*
X80744D01*
X81073Y-81362D01*
X81229Y-81397D01*
X81368Y-81414D01*
X81507D01*
X81611Y-81432D01*
X81698D01*
X81906Y-81414D01*
X82114Y-81397D01*
X82288Y-81362D01*
X82444Y-81327D01*
X82565Y-81293D01*
X82652Y-81258D01*
X82721Y-81223D01*
X82739D01*
X82895Y-81137D01*
X83051Y-81033D01*
X83190Y-80928D01*
X83294Y-80824D01*
X83398Y-80738D01*
X83467Y-80668D01*
X83502Y-80616D01*
X83519Y-80599D01*
X83624Y-80425D01*
X83728Y-80252D01*
X83814Y-80061D01*
X83884Y-79888D01*
X83936Y-79731D01*
X83970Y-79610D01*
X84005Y-79541D01*
Y-79506D01*
X84057Y-79246D01*
X84109Y-78968D01*
X84144Y-78708D01*
X84161Y-78448D01*
Y-78239D01*
X84179Y-78066D01*
Y-77997D01*
Y-77945D01*
Y-77927D01*
Y-77910D01*
Y-77580D01*
X84144Y-77285D01*
X84127Y-76990D01*
X84075Y-76730D01*
X84040Y-76487D01*
X83988Y-76279D01*
X83918Y-76071D01*
X83866Y-75897D01*
X83814Y-75741D01*
X83745Y-75603D01*
X83693Y-75481D01*
X83658Y-75394D01*
X83606Y-75308D01*
X83589Y-75256D01*
X83554Y-75238D01*
Y-75221D01*
X83433Y-75065D01*
X83294Y-74909D01*
X83155Y-74787D01*
X82999Y-74683D01*
X82687Y-74527D01*
X82409Y-74423D01*
X82132Y-74353D01*
X82028Y-74336D01*
X81923Y-74319D01*
X81837Y-74302D01*
X81524D01*
X81334Y-74336D01*
X81160Y-74353D01*
X81021Y-74388D01*
X80900Y-74423D01*
X80813Y-74440D01*
X80761Y-74475D01*
X80744D01*
X80449Y-74614D01*
X80327Y-74666D01*
X80223Y-74735D01*
X80154Y-74787D01*
X80084Y-74822D01*
X80050Y-74839D01*
X80032Y-74857D01*
X79824Y-74995D01*
X79668Y-75117D01*
X79599Y-75169D01*
X79547Y-75204D01*
X79529Y-75221D01*
X79512Y-75238D01*
X79425Y-75308D01*
X79338Y-75342D01*
X79200Y-75412D01*
X79096Y-75429D01*
X79061D01*
X78922Y-75394D01*
X78818Y-75342D01*
X78749Y-75290D01*
X78731Y-75256D01*
X78645Y-75082D01*
X78610Y-74909D01*
X78593Y-74839D01*
Y-74770D01*
Y-74735D01*
Y-74718D01*
Y-74631D01*
Y-74544D01*
X78610Y-74492D01*
Y-74475D01*
Y-74388D01*
X78627Y-74319D01*
X78645Y-74284D01*
Y-74267D01*
X78679Y-74197D01*
X78714Y-74128D01*
X78731Y-74093D01*
X78749Y-74076D01*
X78801Y-74007D01*
X78870Y-73937D01*
X78922Y-73885D01*
X78939Y-73868D01*
X79061Y-73764D01*
X79182Y-73642D01*
X79286Y-73573D01*
X79321Y-73538D01*
X79338D01*
X79547Y-73399D01*
X79755Y-73295D01*
X79842Y-73261D01*
X79911Y-73226D01*
X79963Y-73208D01*
X79980D01*
X80258Y-73122D01*
X80518Y-73035D01*
X80622Y-73018D01*
X80709Y-73000D01*
X80761Y-72983D01*
X80778D01*
X81091Y-72914D01*
X81229Y-72896D01*
X81368D01*
X81472Y-72879D01*
X81646D01*
X81958Y-72896D01*
D02*
G37*
G36*
X-66959Y-70624D02*
X-66890Y-70641D01*
X-66855D01*
X-66751Y-70658D01*
X-66681Y-70676D01*
X-66612Y-70693D01*
X-66595Y-70710D01*
X-66525Y-70762D01*
X-66473Y-70814D01*
X-66456Y-70849D01*
X-66438Y-70866D01*
X-66404Y-70988D01*
Y-71040D01*
Y-71057D01*
Y-73035D01*
X-65276D01*
X-65189Y-73052D01*
X-65120Y-73070D01*
X-65068Y-73087D01*
X-65051Y-73105D01*
X-64981Y-73156D01*
X-64929Y-73208D01*
X-64894Y-73243D01*
X-64877Y-73261D01*
X-64825Y-73399D01*
X-64808Y-73451D01*
Y-73469D01*
X-64790Y-73555D01*
Y-73642D01*
Y-73712D01*
Y-73729D01*
X-64808Y-73937D01*
X-64860Y-74093D01*
X-64894Y-74197D01*
X-64912Y-74215D01*
Y-74232D01*
X-64964Y-74302D01*
X-65016Y-74336D01*
X-65137Y-74406D01*
X-65241Y-74423D01*
X-66404D01*
Y-79731D01*
Y-80009D01*
X-66421Y-80269D01*
X-66456Y-80495D01*
X-66473Y-80703D01*
X-66508Y-80859D01*
X-66525Y-80981D01*
X-66543Y-81050D01*
Y-81085D01*
X-66595Y-81293D01*
X-66664Y-81484D01*
X-66751Y-81640D01*
X-66820Y-81779D01*
X-66890Y-81900D01*
X-66941Y-81987D01*
X-66976Y-82039D01*
X-66994Y-82056D01*
X-67132Y-82195D01*
X-67271Y-82316D01*
X-67410Y-82420D01*
X-67531Y-82507D01*
X-67653Y-82559D01*
X-67740Y-82611D01*
X-67809Y-82629D01*
X-67826Y-82646D01*
X-68035Y-82715D01*
X-68243Y-82750D01*
X-68433Y-82785D01*
X-68624Y-82819D01*
X-68798D01*
X-68919Y-82837D01*
X-69197D01*
X-69336Y-82819D01*
X-69440Y-82802D01*
X-69474D01*
X-69630Y-82785D01*
X-69752Y-82767D01*
X-69839Y-82733D01*
X-69873D01*
X-70030Y-82698D01*
X-70151Y-82663D01*
X-70220Y-82646D01*
X-70255Y-82629D01*
X-70377Y-82559D01*
X-70463Y-82507D01*
X-70515Y-82455D01*
X-70533Y-82438D01*
X-70602Y-82351D01*
X-70654Y-82264D01*
X-70671Y-82195D01*
X-70689Y-82160D01*
X-70723Y-82021D01*
X-70741Y-81900D01*
Y-81796D01*
Y-81779D01*
Y-81761D01*
Y-81657D01*
X-70723Y-81588D01*
X-70706Y-81536D01*
Y-81518D01*
X-70689Y-81449D01*
X-70671Y-81379D01*
X-70654Y-81345D01*
X-70637Y-81327D01*
X-70602Y-81258D01*
X-70550Y-81206D01*
X-70515Y-81189D01*
X-70498Y-81171D01*
X-70429Y-81137D01*
X-70377Y-81119D01*
X-70324D01*
X-70220Y-81137D01*
X-70151Y-81154D01*
X-70082Y-81171D01*
X-70064Y-81189D01*
X-69977Y-81223D01*
X-69891Y-81258D01*
X-69821Y-81276D01*
X-69804Y-81293D01*
X-69700Y-81327D01*
X-69596Y-81362D01*
X-69526Y-81379D01*
X-69509Y-81397D01*
X-69492D01*
X-69353Y-81414D01*
X-69232Y-81432D01*
X-69110D01*
X-68885Y-81414D01*
X-68694Y-81362D01*
X-68555Y-81293D01*
X-68433Y-81206D01*
X-68329Y-81119D01*
X-68277Y-81050D01*
X-68243Y-80998D01*
X-68225Y-80981D01*
X-68138Y-80790D01*
X-68087Y-80564D01*
X-68035Y-80339D01*
X-68017Y-80113D01*
X-68000Y-79905D01*
X-67982Y-79731D01*
Y-79662D01*
Y-79610D01*
Y-79593D01*
Y-79575D01*
Y-74423D01*
X-70220D01*
X-70307Y-74406D01*
X-70377Y-74388D01*
X-70498Y-74319D01*
X-70585Y-74267D01*
X-70602Y-74232D01*
X-70689Y-74076D01*
X-70723Y-73903D01*
X-70741Y-73833D01*
Y-73781D01*
Y-73746D01*
Y-73729D01*
Y-73642D01*
X-70723Y-73555D01*
X-70706Y-73503D01*
Y-73486D01*
X-70689Y-73399D01*
X-70654Y-73313D01*
X-70637Y-73278D01*
X-70619Y-73261D01*
X-70567Y-73191D01*
X-70515Y-73139D01*
X-70463Y-73122D01*
X-70446Y-73105D01*
X-70377Y-73070D01*
X-70307Y-73035D01*
X-67982D01*
Y-71057D01*
X-67965Y-70988D01*
X-67948Y-70919D01*
X-67930Y-70884D01*
X-67913Y-70866D01*
X-67861Y-70797D01*
X-67809Y-70745D01*
X-67774Y-70728D01*
X-67757Y-70710D01*
X-67670Y-70676D01*
X-67583Y-70658D01*
X-67531Y-70641D01*
X-67497D01*
X-67393Y-70624D01*
X-67288Y-70606D01*
X-67063D01*
X-66959Y-70624D01*
D02*
G37*
G36*
X91760Y-72896D02*
X92107Y-72931D01*
X92402Y-73000D01*
X92662Y-73052D01*
X92887Y-73122D01*
X93061Y-73191D01*
X93165Y-73226D01*
X93182Y-73243D01*
X93200D01*
X93495Y-73382D01*
X93755Y-73538D01*
X93980Y-73712D01*
X94189Y-73868D01*
X94345Y-74024D01*
X94466Y-74145D01*
X94536Y-74215D01*
X94570Y-74249D01*
X94761Y-74492D01*
X94935Y-74770D01*
X95091Y-75030D01*
X95195Y-75273D01*
X95299Y-75481D01*
X95368Y-75655D01*
X95386Y-75724D01*
X95403Y-75776D01*
X95420Y-75793D01*
Y-75811D01*
X95524Y-76158D01*
X95594Y-76522D01*
X95646Y-76869D01*
X95681Y-77199D01*
X95698Y-77476D01*
Y-77598D01*
X95715Y-77702D01*
Y-77771D01*
Y-77840D01*
Y-77875D01*
Y-77892D01*
X95698Y-78326D01*
X95663Y-78743D01*
X95628Y-79107D01*
X95576Y-79419D01*
X95524Y-79679D01*
X95507Y-79784D01*
X95472Y-79870D01*
X95455Y-79940D01*
Y-79992D01*
X95438Y-80009D01*
Y-80026D01*
X95316Y-80356D01*
X95177Y-80651D01*
X95039Y-80928D01*
X94900Y-81154D01*
X94761Y-81327D01*
X94657Y-81466D01*
X94588Y-81553D01*
X94570Y-81588D01*
X94345Y-81813D01*
X94102Y-82004D01*
X93876Y-82177D01*
X93651Y-82316D01*
X93460Y-82420D01*
X93304Y-82490D01*
X93200Y-82542D01*
X93182Y-82559D01*
X93165D01*
X92835Y-82663D01*
X92523Y-82733D01*
X92193Y-82802D01*
X91899Y-82837D01*
X91638Y-82854D01*
X91534D01*
X91430Y-82872D01*
X91014D01*
X90788Y-82854D01*
X90597Y-82837D01*
X90407Y-82819D01*
X90251Y-82802D01*
X90146Y-82785D01*
X90060Y-82767D01*
X90042D01*
X89834Y-82733D01*
X89643Y-82698D01*
X89487Y-82663D01*
X89348Y-82629D01*
X89227Y-82594D01*
X89140Y-82577D01*
X89088Y-82559D01*
X89071D01*
X88793Y-82455D01*
X88672Y-82403D01*
X88568Y-82368D01*
X88481Y-82334D01*
X88429Y-82299D01*
X88394Y-82282D01*
X88377D01*
X88273Y-82230D01*
X88203Y-82195D01*
X88134Y-82160D01*
X88082Y-82126D01*
X88030Y-82108D01*
X88013Y-82091D01*
X87926Y-81987D01*
X87908Y-81969D01*
Y-81952D01*
X87857Y-81848D01*
X87839Y-81813D01*
Y-81796D01*
X87822Y-81692D01*
X87804Y-81657D01*
Y-81640D01*
X87787Y-81536D01*
Y-81501D01*
Y-81484D01*
Y-81379D01*
X87804Y-81293D01*
X87822Y-81223D01*
Y-81206D01*
X87839Y-81119D01*
X87857Y-81050D01*
X87874Y-81015D01*
X87891Y-80998D01*
X87926Y-80928D01*
X87978Y-80876D01*
X88013Y-80842D01*
X88030Y-80824D01*
X88117Y-80790D01*
X88186Y-80755D01*
X88256D01*
X88377Y-80772D01*
X88498Y-80807D01*
X88602Y-80859D01*
X88637Y-80876D01*
X88654D01*
X88845Y-80963D01*
X89053Y-81050D01*
X89140Y-81085D01*
X89192Y-81119D01*
X89244Y-81137D01*
X89262D01*
X89539Y-81223D01*
X89799Y-81293D01*
X89904Y-81327D01*
X89990Y-81345D01*
X90060Y-81362D01*
X90077D01*
X90424Y-81414D01*
X90597Y-81432D01*
X90771D01*
X90910Y-81449D01*
X91118D01*
X91430Y-81432D01*
X91690Y-81414D01*
X91933Y-81379D01*
X92142Y-81327D01*
X92298Y-81293D01*
X92419Y-81258D01*
X92488Y-81241D01*
X92523Y-81223D01*
X92714Y-81137D01*
X92887Y-81033D01*
X93044Y-80911D01*
X93165Y-80807D01*
X93269Y-80720D01*
X93338Y-80633D01*
X93391Y-80582D01*
X93408Y-80564D01*
X93529Y-80391D01*
X93633Y-80200D01*
X93720Y-80026D01*
X93790Y-79853D01*
X93842Y-79714D01*
X93876Y-79593D01*
X93911Y-79523D01*
Y-79489D01*
X93998Y-79020D01*
X94015Y-78812D01*
X94032Y-78621D01*
X94050Y-78465D01*
Y-78344D01*
Y-78274D01*
Y-78239D01*
X88203D01*
X88030Y-78205D01*
X87857Y-78153D01*
X87787Y-78118D01*
X87752Y-78101D01*
X87718Y-78066D01*
X87700D01*
X87614Y-77997D01*
X87544Y-77892D01*
X87509Y-77788D01*
X87475Y-77684D01*
X87458Y-77580D01*
X87440Y-77494D01*
Y-77442D01*
Y-77424D01*
Y-77181D01*
X87458Y-76869D01*
X87475Y-76574D01*
X87509Y-76297D01*
X87544Y-76054D01*
X87596Y-75863D01*
X87631Y-75707D01*
X87648Y-75603D01*
X87666Y-75568D01*
X87752Y-75290D01*
X87874Y-75030D01*
X87995Y-74787D01*
X88099Y-74596D01*
X88203Y-74423D01*
X88290Y-74302D01*
X88360Y-74232D01*
X88377Y-74197D01*
X88568Y-73989D01*
X88759Y-73798D01*
X88967Y-73625D01*
X89175Y-73486D01*
X89348Y-73382D01*
X89487Y-73313D01*
X89574Y-73261D01*
X89591Y-73243D01*
X89609D01*
X89904Y-73122D01*
X90198Y-73035D01*
X90511Y-72966D01*
X90788Y-72931D01*
X91031Y-72896D01*
X91239Y-72879D01*
X91413D01*
X91760Y-72896D01*
D02*
G37*
G36*
X4464D02*
X4811Y-72931D01*
X5106Y-73000D01*
X5366Y-73052D01*
X5591Y-73122D01*
X5765Y-73191D01*
X5869Y-73226D01*
X5886Y-73243D01*
X5904D01*
X6198Y-73382D01*
X6459Y-73538D01*
X6684Y-73712D01*
X6892Y-73868D01*
X7049Y-74024D01*
X7170Y-74145D01*
X7239Y-74215D01*
X7274Y-74249D01*
X7465Y-74492D01*
X7638Y-74770D01*
X7794Y-75030D01*
X7899Y-75273D01*
X8003Y-75481D01*
X8072Y-75655D01*
X8089Y-75724D01*
X8107Y-75776D01*
X8124Y-75793D01*
Y-75811D01*
X8228Y-76158D01*
X8298Y-76522D01*
X8350Y-76869D01*
X8384Y-77199D01*
X8402Y-77476D01*
Y-77598D01*
X8419Y-77702D01*
Y-77771D01*
Y-77840D01*
Y-77875D01*
Y-77892D01*
X8402Y-78326D01*
X8367Y-78743D01*
X8332Y-79107D01*
X8280Y-79419D01*
X8228Y-79679D01*
X8211Y-79784D01*
X8176Y-79870D01*
X8159Y-79940D01*
Y-79992D01*
X8141Y-80009D01*
Y-80026D01*
X8020Y-80356D01*
X7881Y-80651D01*
X7742Y-80928D01*
X7604Y-81154D01*
X7465Y-81327D01*
X7361Y-81466D01*
X7291Y-81553D01*
X7274Y-81588D01*
X7049Y-81813D01*
X6806Y-82004D01*
X6580Y-82177D01*
X6355Y-82316D01*
X6164Y-82420D01*
X6008Y-82490D01*
X5904Y-82542D01*
X5886Y-82559D01*
X5869D01*
X5539Y-82663D01*
X5227Y-82733D01*
X4897Y-82802D01*
X4602Y-82837D01*
X4342Y-82854D01*
X4238D01*
X4134Y-82872D01*
X3718D01*
X3492Y-82854D01*
X3301Y-82837D01*
X3110Y-82819D01*
X2954Y-82802D01*
X2850Y-82785D01*
X2763Y-82767D01*
X2746D01*
X2538Y-82733D01*
X2347Y-82698D01*
X2191Y-82663D01*
X2052Y-82629D01*
X1931Y-82594D01*
X1844Y-82577D01*
X1792Y-82559D01*
X1775D01*
X1497Y-82455D01*
X1376Y-82403D01*
X1272Y-82368D01*
X1185Y-82334D01*
X1133Y-82299D01*
X1098Y-82282D01*
X1081D01*
X977Y-82230D01*
X907Y-82195D01*
X838Y-82160D01*
X786Y-82126D01*
X734Y-82108D01*
X716Y-82091D01*
X630Y-81987D01*
X612Y-81969D01*
Y-81952D01*
X560Y-81848D01*
X543Y-81813D01*
Y-81796D01*
X526Y-81692D01*
X508Y-81657D01*
Y-81640D01*
X491Y-81536D01*
Y-81501D01*
Y-81484D01*
Y-81379D01*
X508Y-81293D01*
X526Y-81223D01*
Y-81206D01*
X543Y-81119D01*
X560Y-81050D01*
X578Y-81015D01*
X595Y-80998D01*
X630Y-80928D01*
X682Y-80876D01*
X716Y-80842D01*
X734Y-80824D01*
X821Y-80790D01*
X890Y-80755D01*
X959D01*
X1081Y-80772D01*
X1202Y-80807D01*
X1306Y-80859D01*
X1341Y-80876D01*
X1358D01*
X1549Y-80963D01*
X1757Y-81050D01*
X1844Y-81085D01*
X1896Y-81119D01*
X1948Y-81137D01*
X1965D01*
X2243Y-81223D01*
X2503Y-81293D01*
X2607Y-81327D01*
X2694Y-81345D01*
X2763Y-81362D01*
X2781D01*
X3128Y-81414D01*
X3301Y-81432D01*
X3475D01*
X3614Y-81449D01*
X3822D01*
X4134Y-81432D01*
X4394Y-81414D01*
X4637Y-81379D01*
X4845Y-81327D01*
X5002Y-81293D01*
X5123Y-81258D01*
X5192Y-81241D01*
X5227Y-81223D01*
X5418Y-81137D01*
X5591Y-81033D01*
X5747Y-80911D01*
X5869Y-80807D01*
X5973Y-80720D01*
X6042Y-80633D01*
X6094Y-80582D01*
X6112Y-80564D01*
X6233Y-80391D01*
X6337Y-80200D01*
X6424Y-80026D01*
X6493Y-79853D01*
X6546Y-79714D01*
X6580Y-79593D01*
X6615Y-79523D01*
Y-79489D01*
X6702Y-79020D01*
X6719Y-78812D01*
X6736Y-78621D01*
X6754Y-78465D01*
Y-78344D01*
Y-78274D01*
Y-78239D01*
X907D01*
X734Y-78205D01*
X560Y-78153D01*
X491Y-78118D01*
X456Y-78101D01*
X421Y-78066D01*
X404D01*
X317Y-77997D01*
X248Y-77892D01*
X213Y-77788D01*
X179Y-77684D01*
X161Y-77580D01*
X144Y-77494D01*
Y-77442D01*
Y-77424D01*
Y-77181D01*
X161Y-76869D01*
X179Y-76574D01*
X213Y-76297D01*
X248Y-76054D01*
X300Y-75863D01*
X335Y-75707D01*
X352Y-75603D01*
X369Y-75568D01*
X456Y-75290D01*
X578Y-75030D01*
X699Y-74787D01*
X803Y-74596D01*
X907Y-74423D01*
X994Y-74302D01*
X1063Y-74232D01*
X1081Y-74197D01*
X1272Y-73989D01*
X1462Y-73798D01*
X1671Y-73625D01*
X1879Y-73486D01*
X2052Y-73382D01*
X2191Y-73313D01*
X2278Y-73261D01*
X2295Y-73243D01*
X2313D01*
X2607Y-73122D01*
X2902Y-73035D01*
X3215Y-72966D01*
X3492Y-72931D01*
X3735Y-72896D01*
X3943Y-72879D01*
X4117D01*
X4464Y-72896D01*
D02*
G37*
G36*
X-22652Y-72896D02*
X-22305Y-72931D01*
X-22010Y-73000D01*
X-21749Y-73052D01*
X-21524Y-73122D01*
X-21351Y-73191D01*
X-21246Y-73226D01*
X-21229Y-73243D01*
X-21212D01*
X-20917Y-73382D01*
X-20656Y-73538D01*
X-20431Y-73712D01*
X-20223Y-73868D01*
X-20067Y-74024D01*
X-19945Y-74145D01*
X-19876Y-74215D01*
X-19841Y-74249D01*
X-19650Y-74492D01*
X-19477Y-74770D01*
X-19321Y-75030D01*
X-19217Y-75273D01*
X-19112Y-75481D01*
X-19043Y-75655D01*
X-19026Y-75724D01*
X-19008Y-75776D01*
X-18991Y-75793D01*
Y-75811D01*
X-18887Y-76158D01*
X-18818Y-76522D01*
X-18766Y-76869D01*
X-18731Y-77199D01*
X-18714Y-77476D01*
Y-77598D01*
X-18696Y-77702D01*
Y-77771D01*
Y-77840D01*
Y-77875D01*
Y-77893D01*
X-18714Y-78326D01*
X-18748Y-78743D01*
X-18783Y-79107D01*
X-18835Y-79419D01*
X-18887Y-79679D01*
X-18904Y-79784D01*
X-18939Y-79870D01*
X-18956Y-79940D01*
Y-79992D01*
X-18974Y-80009D01*
Y-80026D01*
X-19095Y-80356D01*
X-19234Y-80651D01*
X-19373Y-80928D01*
X-19511Y-81154D01*
X-19650Y-81327D01*
X-19754Y-81466D01*
X-19824Y-81553D01*
X-19841Y-81588D01*
X-20067Y-81813D01*
X-20310Y-82004D01*
X-20535Y-82178D01*
X-20761Y-82316D01*
X-20951Y-82420D01*
X-21108Y-82490D01*
X-21212Y-82542D01*
X-21229Y-82559D01*
X-21246D01*
X-21576Y-82663D01*
X-21888Y-82733D01*
X-22218Y-82802D01*
X-22513Y-82837D01*
X-22773Y-82854D01*
X-22877D01*
X-22981Y-82872D01*
X-23398D01*
X-23623Y-82854D01*
X-23814Y-82837D01*
X-24005Y-82819D01*
X-24161Y-82802D01*
X-24265Y-82785D01*
X-24352Y-82767D01*
X-24369D01*
X-24577Y-82733D01*
X-24768Y-82698D01*
X-24924Y-82663D01*
X-25063Y-82629D01*
X-25184Y-82594D01*
X-25271Y-82577D01*
X-25323Y-82559D01*
X-25340D01*
X-25618Y-82455D01*
X-25740Y-82403D01*
X-25844Y-82368D01*
X-25930Y-82334D01*
X-25982Y-82299D01*
X-26017Y-82282D01*
X-26035D01*
X-26139Y-82230D01*
X-26208Y-82195D01*
X-26277Y-82160D01*
X-26329Y-82126D01*
X-26381Y-82108D01*
X-26399Y-82091D01*
X-26486Y-81987D01*
X-26503Y-81969D01*
Y-81952D01*
X-26555Y-81848D01*
X-26572Y-81813D01*
Y-81796D01*
X-26590Y-81692D01*
X-26607Y-81657D01*
Y-81640D01*
X-26624Y-81536D01*
Y-81501D01*
Y-81484D01*
Y-81379D01*
X-26607Y-81293D01*
X-26590Y-81223D01*
Y-81206D01*
X-26572Y-81119D01*
X-26555Y-81050D01*
X-26538Y-81015D01*
X-26520Y-80998D01*
X-26486Y-80928D01*
X-26433Y-80876D01*
X-26399Y-80842D01*
X-26381Y-80824D01*
X-26295Y-80790D01*
X-26225Y-80755D01*
X-26156D01*
X-26035Y-80772D01*
X-25913Y-80807D01*
X-25809Y-80859D01*
X-25774Y-80876D01*
X-25757D01*
X-25566Y-80963D01*
X-25358Y-81050D01*
X-25271Y-81085D01*
X-25219Y-81119D01*
X-25167Y-81137D01*
X-25150D01*
X-24872Y-81223D01*
X-24612Y-81293D01*
X-24508Y-81327D01*
X-24421Y-81345D01*
X-24352Y-81362D01*
X-24334D01*
X-23987Y-81414D01*
X-23814Y-81432D01*
X-23640D01*
X-23502Y-81449D01*
X-23293D01*
X-22981Y-81432D01*
X-22721Y-81414D01*
X-22478Y-81379D01*
X-22270Y-81327D01*
X-22114Y-81293D01*
X-21992Y-81258D01*
X-21923Y-81241D01*
X-21888Y-81223D01*
X-21697Y-81137D01*
X-21524Y-81033D01*
X-21368Y-80911D01*
X-21246Y-80807D01*
X-21142Y-80720D01*
X-21073Y-80634D01*
X-21021Y-80582D01*
X-21003Y-80564D01*
X-20882Y-80391D01*
X-20778Y-80200D01*
X-20691Y-80026D01*
X-20622Y-79853D01*
X-20570Y-79714D01*
X-20535Y-79593D01*
X-20500Y-79523D01*
Y-79489D01*
X-20414Y-79020D01*
X-20396Y-78812D01*
X-20379Y-78621D01*
X-20362Y-78465D01*
Y-78344D01*
Y-78274D01*
Y-78239D01*
X-26208D01*
X-26381Y-78205D01*
X-26555Y-78153D01*
X-26624Y-78118D01*
X-26659Y-78101D01*
X-26694Y-78066D01*
X-26711D01*
X-26798Y-77997D01*
X-26867Y-77893D01*
X-26902Y-77789D01*
X-26937Y-77684D01*
X-26954Y-77580D01*
X-26971Y-77494D01*
Y-77442D01*
Y-77424D01*
Y-77181D01*
X-26954Y-76869D01*
X-26937Y-76574D01*
X-26902Y-76297D01*
X-26867Y-76054D01*
X-26815Y-75863D01*
X-26780Y-75707D01*
X-26763Y-75603D01*
X-26746Y-75568D01*
X-26659Y-75290D01*
X-26538Y-75030D01*
X-26416Y-74787D01*
X-26312Y-74596D01*
X-26208Y-74423D01*
X-26121Y-74302D01*
X-26052Y-74232D01*
X-26035Y-74197D01*
X-25844Y-73989D01*
X-25653Y-73798D01*
X-25445Y-73625D01*
X-25236Y-73486D01*
X-25063Y-73382D01*
X-24924Y-73313D01*
X-24837Y-73261D01*
X-24820Y-73243D01*
X-24803D01*
X-24508Y-73122D01*
X-24213Y-73035D01*
X-23901Y-72966D01*
X-23623Y-72931D01*
X-23380Y-72896D01*
X-23172Y-72879D01*
X-22998D01*
X-22652Y-72896D01*
D02*
G37*
G36*
X-43036D02*
X-42689Y-72931D01*
X-42394Y-73000D01*
X-42134Y-73052D01*
X-41908Y-73122D01*
X-41735Y-73191D01*
X-41631Y-73226D01*
X-41613Y-73243D01*
X-41596D01*
X-41301Y-73382D01*
X-41041Y-73538D01*
X-40815Y-73712D01*
X-40607Y-73868D01*
X-40451Y-74024D01*
X-40329Y-74145D01*
X-40260Y-74215D01*
X-40225Y-74249D01*
X-40034Y-74492D01*
X-39861Y-74770D01*
X-39705Y-75030D01*
X-39601Y-75273D01*
X-39497Y-75481D01*
X-39427Y-75655D01*
X-39410Y-75724D01*
X-39393Y-75776D01*
X-39375Y-75793D01*
Y-75811D01*
X-39271Y-76158D01*
X-39202Y-76522D01*
X-39150Y-76869D01*
X-39115Y-77199D01*
X-39098Y-77476D01*
Y-77598D01*
X-39080Y-77702D01*
Y-77771D01*
Y-77840D01*
Y-77875D01*
Y-77893D01*
X-39098Y-78326D01*
X-39132Y-78743D01*
X-39167Y-79107D01*
X-39219Y-79419D01*
X-39271Y-79679D01*
X-39288Y-79784D01*
X-39323Y-79870D01*
X-39341Y-79940D01*
Y-79992D01*
X-39358Y-80009D01*
Y-80026D01*
X-39479Y-80356D01*
X-39618Y-80651D01*
X-39757Y-80928D01*
X-39896Y-81154D01*
X-40034Y-81327D01*
X-40139Y-81466D01*
X-40208Y-81553D01*
X-40225Y-81588D01*
X-40451Y-81813D01*
X-40694Y-82004D01*
X-40919Y-82178D01*
X-41145Y-82316D01*
X-41336Y-82420D01*
X-41492Y-82490D01*
X-41596Y-82542D01*
X-41613Y-82559D01*
X-41631D01*
X-41960Y-82663D01*
X-42272Y-82733D01*
X-42602Y-82802D01*
X-42897Y-82837D01*
X-43157Y-82854D01*
X-43261D01*
X-43365Y-82872D01*
X-43782D01*
X-44007Y-82854D01*
X-44198Y-82837D01*
X-44389Y-82819D01*
X-44545Y-82802D01*
X-44649Y-82785D01*
X-44736Y-82767D01*
X-44753D01*
X-44961Y-82733D01*
X-45152Y-82698D01*
X-45308Y-82663D01*
X-45447Y-82629D01*
X-45568Y-82594D01*
X-45655Y-82577D01*
X-45707Y-82559D01*
X-45725D01*
X-46002Y-82455D01*
X-46124Y-82403D01*
X-46228Y-82368D01*
X-46315Y-82334D01*
X-46367Y-82299D01*
X-46401Y-82282D01*
X-46419D01*
X-46523Y-82230D01*
X-46592Y-82195D01*
X-46662Y-82160D01*
X-46714Y-82126D01*
X-46766Y-82108D01*
X-46783Y-82091D01*
X-46870Y-81987D01*
X-46887Y-81969D01*
Y-81952D01*
X-46939Y-81848D01*
X-46956Y-81813D01*
Y-81796D01*
X-46974Y-81692D01*
X-46991Y-81657D01*
Y-81640D01*
X-47008Y-81536D01*
Y-81501D01*
Y-81484D01*
Y-81379D01*
X-46991Y-81293D01*
X-46974Y-81223D01*
Y-81206D01*
X-46956Y-81119D01*
X-46939Y-81050D01*
X-46922Y-81015D01*
X-46904Y-80998D01*
X-46870Y-80928D01*
X-46818Y-80876D01*
X-46783Y-80842D01*
X-46766Y-80824D01*
X-46679Y-80790D01*
X-46609Y-80755D01*
X-46540D01*
X-46419Y-80772D01*
X-46297Y-80807D01*
X-46193Y-80859D01*
X-46158Y-80876D01*
X-46141D01*
X-45950Y-80963D01*
X-45742Y-81050D01*
X-45655Y-81085D01*
X-45603Y-81119D01*
X-45551Y-81137D01*
X-45534D01*
X-45256Y-81223D01*
X-44996Y-81293D01*
X-44892Y-81327D01*
X-44805Y-81345D01*
X-44736Y-81362D01*
X-44718D01*
X-44372Y-81414D01*
X-44198Y-81432D01*
X-44025D01*
X-43886Y-81449D01*
X-43678D01*
X-43365Y-81432D01*
X-43105Y-81414D01*
X-42862Y-81379D01*
X-42654Y-81327D01*
X-42498Y-81293D01*
X-42376Y-81258D01*
X-42307Y-81241D01*
X-42272Y-81223D01*
X-42082Y-81137D01*
X-41908Y-81033D01*
X-41752Y-80911D01*
X-41631Y-80807D01*
X-41526Y-80720D01*
X-41457Y-80634D01*
X-41405Y-80582D01*
X-41388Y-80564D01*
X-41266Y-80391D01*
X-41162Y-80200D01*
X-41075Y-80026D01*
X-41006Y-79853D01*
X-40954Y-79714D01*
X-40919Y-79593D01*
X-40884Y-79523D01*
Y-79489D01*
X-40798Y-79020D01*
X-40780Y-78812D01*
X-40763Y-78621D01*
X-40746Y-78465D01*
Y-78344D01*
Y-78274D01*
Y-78239D01*
X-46592D01*
X-46766Y-78205D01*
X-46939Y-78153D01*
X-47008Y-78118D01*
X-47043Y-78101D01*
X-47078Y-78066D01*
X-47095D01*
X-47182Y-77997D01*
X-47251Y-77893D01*
X-47286Y-77789D01*
X-47321Y-77684D01*
X-47338Y-77580D01*
X-47355Y-77494D01*
Y-77442D01*
Y-77424D01*
Y-77181D01*
X-47338Y-76869D01*
X-47321Y-76574D01*
X-47286Y-76297D01*
X-47251Y-76054D01*
X-47199Y-75863D01*
X-47165Y-75707D01*
X-47147Y-75603D01*
X-47130Y-75568D01*
X-47043Y-75290D01*
X-46922Y-75030D01*
X-46800Y-74787D01*
X-46696Y-74596D01*
X-46592Y-74423D01*
X-46505Y-74302D01*
X-46436Y-74232D01*
X-46419Y-74197D01*
X-46228Y-73989D01*
X-46037Y-73798D01*
X-45829Y-73625D01*
X-45621Y-73486D01*
X-45447Y-73382D01*
X-45308Y-73313D01*
X-45222Y-73261D01*
X-45204Y-73243D01*
X-45187D01*
X-44892Y-73122D01*
X-44597Y-73035D01*
X-44285Y-72966D01*
X-44007Y-72931D01*
X-43764Y-72896D01*
X-43556Y-72879D01*
X-43383D01*
X-43036Y-72896D01*
D02*
G37*
G36*
X29948Y-73000D02*
X30018Y-73018D01*
X30052D01*
X30156Y-73035D01*
X30226Y-73052D01*
X30295Y-73070D01*
X30312Y-73087D01*
X30382Y-73139D01*
X30434Y-73191D01*
X30451Y-73226D01*
X30469Y-73243D01*
X30503Y-73365D01*
Y-73417D01*
Y-73434D01*
Y-78795D01*
Y-79159D01*
X30486Y-79471D01*
X30451Y-79766D01*
X30417Y-80009D01*
X30399Y-80200D01*
X30364Y-80356D01*
X30347Y-80443D01*
Y-80477D01*
X30278Y-80720D01*
X30191Y-80963D01*
X30087Y-81171D01*
X30000Y-81345D01*
X29913Y-81501D01*
X29844Y-81605D01*
X29792Y-81692D01*
X29775Y-81709D01*
X29619Y-81900D01*
X29445Y-82073D01*
X29272Y-82212D01*
X29098Y-82334D01*
X28959Y-82438D01*
X28838Y-82507D01*
X28768Y-82542D01*
X28734Y-82559D01*
X28474Y-82663D01*
X28213Y-82733D01*
X27953Y-82802D01*
X27710Y-82837D01*
X27502Y-82854D01*
X27329Y-82872D01*
X27173D01*
X26878Y-82854D01*
X26600Y-82802D01*
X26340Y-82750D01*
X26114Y-82663D01*
X25906Y-82594D01*
X25767Y-82542D01*
X25663Y-82490D01*
X25628Y-82472D01*
X25351Y-82299D01*
X25108Y-82108D01*
X24900Y-81917D01*
X24744Y-81709D01*
X24605Y-81536D01*
X24501Y-81397D01*
X24449Y-81293D01*
X24431Y-81275D01*
Y-82299D01*
X24414Y-82368D01*
X24397Y-82438D01*
X24379Y-82490D01*
Y-82507D01*
X24327Y-82577D01*
X24275Y-82629D01*
X24241Y-82646D01*
X24223Y-82663D01*
X24137Y-82681D01*
X24067Y-82698D01*
X24015Y-82715D01*
X23998D01*
X23894Y-82733D01*
X23772Y-82750D01*
X23547D01*
X23460Y-82733D01*
X23391Y-82715D01*
X23373D01*
X23269Y-82698D01*
X23200Y-82681D01*
X23148Y-82663D01*
X23130D01*
X23044Y-82611D01*
X22991Y-82559D01*
X22974Y-82524D01*
X22957Y-82507D01*
X22922Y-82438D01*
X22887Y-82368D01*
Y-82316D01*
Y-82299D01*
Y-73434D01*
X22905Y-73365D01*
X22922Y-73295D01*
X22940Y-73261D01*
X22957Y-73243D01*
X23009Y-73174D01*
X23061Y-73122D01*
X23096Y-73104D01*
X23113Y-73087D01*
X23200Y-73052D01*
X23286Y-73035D01*
X23338Y-73018D01*
X23373D01*
X23477Y-73000D01*
X23581Y-72983D01*
X23807D01*
X23911Y-73000D01*
X23980Y-73018D01*
X24015D01*
X24119Y-73035D01*
X24189Y-73052D01*
X24258Y-73070D01*
X24275Y-73087D01*
X24345Y-73139D01*
X24397Y-73191D01*
X24414Y-73226D01*
X24431Y-73243D01*
X24466Y-73365D01*
Y-73417D01*
Y-73434D01*
Y-79731D01*
X24726Y-80026D01*
X24969Y-80287D01*
X25212Y-80512D01*
X25403Y-80703D01*
X25576Y-80842D01*
X25715Y-80946D01*
X25785Y-81015D01*
X25819Y-81033D01*
X26045Y-81189D01*
X26270Y-81293D01*
X26479Y-81379D01*
X26669Y-81432D01*
X26825Y-81466D01*
X26947Y-81484D01*
X27225D01*
X27381Y-81449D01*
X27519Y-81432D01*
X27641Y-81397D01*
X27745Y-81362D01*
X27814Y-81345D01*
X27866Y-81310D01*
X27884D01*
X28127Y-81154D01*
X28300Y-80998D01*
X28370Y-80928D01*
X28421Y-80859D01*
X28439Y-80824D01*
X28456Y-80807D01*
X28612Y-80547D01*
X28716Y-80269D01*
X28751Y-80165D01*
X28786Y-80078D01*
X28803Y-80009D01*
Y-79992D01*
X28838Y-79784D01*
X28873Y-79575D01*
X28890Y-79350D01*
X28907Y-79159D01*
X28925Y-78968D01*
Y-78829D01*
Y-78725D01*
Y-78691D01*
Y-73434D01*
X28942Y-73365D01*
X28959Y-73295D01*
X28977Y-73261D01*
X28994Y-73243D01*
X29046Y-73174D01*
X29098Y-73122D01*
X29133Y-73104D01*
X29150Y-73087D01*
X29237Y-73052D01*
X29324Y-73035D01*
X29376Y-73018D01*
X29410D01*
X29515Y-73000D01*
X29619Y-72983D01*
X29844D01*
X29948Y-73000D01*
D02*
G37*
G36*
X135772Y-69652D02*
X135946Y-69704D01*
X135998Y-69739D01*
X136050Y-69774D01*
X136084Y-69791D01*
X136102Y-69808D01*
X136189Y-69878D01*
X136241Y-69982D01*
X136310Y-70190D01*
X136327Y-70277D01*
X136345Y-70363D01*
Y-70416D01*
Y-70433D01*
Y-82299D01*
X136327Y-82386D01*
X136310Y-82455D01*
X136293Y-82507D01*
Y-82524D01*
X136171Y-82629D01*
X136137Y-82646D01*
X136119Y-82663D01*
X136032Y-82681D01*
X135946Y-82698D01*
X135894Y-82715D01*
X135876D01*
X135772Y-82733D01*
X135668Y-82750D01*
X135408D01*
X135304Y-82733D01*
X135234Y-82715D01*
X135217D01*
X135130Y-82698D01*
X135061Y-82681D01*
X135009Y-82663D01*
X134992D01*
X134905Y-82611D01*
X134853Y-82559D01*
X134818Y-82524D01*
X134801Y-82507D01*
X134766Y-82438D01*
X134731Y-82368D01*
Y-82316D01*
Y-82299D01*
Y-77650D01*
X133309D01*
X132875Y-77632D01*
X132493Y-77598D01*
X132146Y-77563D01*
X131852Y-77494D01*
X131626Y-77442D01*
X131453Y-77407D01*
X131383Y-77389D01*
X131331Y-77372D01*
X131314Y-77355D01*
X131296D01*
X130984Y-77233D01*
X130707Y-77094D01*
X130464Y-76938D01*
X130255Y-76800D01*
X130082Y-76678D01*
X129960Y-76574D01*
X129891Y-76505D01*
X129857Y-76487D01*
X129648Y-76262D01*
X129458Y-76036D01*
X129319Y-75828D01*
X129180Y-75603D01*
X129076Y-75429D01*
X129006Y-75273D01*
X128972Y-75186D01*
X128954Y-75152D01*
X128850Y-74857D01*
X128764Y-74562D01*
X128712Y-74267D01*
X128659Y-74007D01*
X128642Y-73781D01*
X128625Y-73608D01*
Y-73538D01*
Y-73486D01*
Y-73469D01*
Y-73451D01*
Y-73191D01*
X128659Y-72948D01*
X128694Y-72723D01*
X128729Y-72532D01*
X128764Y-72358D01*
X128798Y-72237D01*
X128816Y-72168D01*
X128833Y-72133D01*
X128920Y-71907D01*
X129006Y-71717D01*
X129110Y-71526D01*
X129197Y-71370D01*
X129284Y-71231D01*
X129353Y-71144D01*
X129405Y-71075D01*
X129423Y-71057D01*
X129562Y-70884D01*
X129718Y-70728D01*
X129874Y-70606D01*
X130013Y-70485D01*
X130134Y-70381D01*
X130238Y-70311D01*
X130308Y-70277D01*
X130325Y-70259D01*
X130516Y-70138D01*
X130707Y-70051D01*
X130897Y-69982D01*
X131053Y-69912D01*
X131175Y-69878D01*
X131279Y-69843D01*
X131348Y-69826D01*
X131366D01*
X131713Y-69756D01*
X131869Y-69721D01*
X132008Y-69704D01*
X132112Y-69687D01*
X132198Y-69669D01*
X132268D01*
X132545Y-69635D01*
X132667D01*
X132788Y-69617D01*
X135686D01*
X135772Y-69652D01*
D02*
G37*
G36*
X125797Y-73000D02*
X125866Y-73018D01*
X125901D01*
X126005Y-73035D01*
X126075Y-73052D01*
X126144Y-73070D01*
X126161Y-73087D01*
X126231Y-73139D01*
X126283Y-73191D01*
X126300Y-73226D01*
X126317Y-73243D01*
X126352Y-73365D01*
Y-73417D01*
Y-73434D01*
Y-82299D01*
Y-82368D01*
X126335Y-82438D01*
X126317Y-82490D01*
Y-82507D01*
X126265Y-82577D01*
X126213Y-82629D01*
X126161Y-82646D01*
X126144Y-82663D01*
X126057Y-82681D01*
X125970Y-82698D01*
X125918Y-82715D01*
X125901D01*
X125797Y-82733D01*
X125693Y-82750D01*
X125433D01*
X125329Y-82733D01*
X125259Y-82715D01*
X125242D01*
X125155Y-82698D01*
X125086Y-82681D01*
X125034Y-82663D01*
X125016D01*
X124947Y-82611D01*
X124895Y-82559D01*
X124860Y-82524D01*
X124843Y-82507D01*
X124808Y-82438D01*
X124773Y-82368D01*
Y-82316D01*
Y-82299D01*
Y-73434D01*
X124791Y-73365D01*
X124808Y-73295D01*
X124825Y-73261D01*
X124843Y-73243D01*
X124895Y-73174D01*
X124947Y-73122D01*
X124982Y-73104D01*
X124999Y-73087D01*
X125086Y-73052D01*
X125172Y-73035D01*
X125225Y-73018D01*
X125259D01*
X125363Y-73000D01*
X125467Y-72983D01*
X125693D01*
X125797Y-73000D01*
D02*
G37*
G36*
X62164Y-72896D02*
X62441Y-72948D01*
X62702Y-73018D01*
X62944Y-73087D01*
X63135Y-73156D01*
X63291Y-73226D01*
X63396Y-73278D01*
X63413Y-73295D01*
X63430D01*
X63708Y-73451D01*
X63951Y-73642D01*
X64159Y-73850D01*
X64315Y-74041D01*
X64454Y-74215D01*
X64558Y-74353D01*
X64610Y-74440D01*
X64627Y-74458D01*
Y-73434D01*
Y-73365D01*
X64645Y-73313D01*
X64662Y-73278D01*
X64679Y-73261D01*
X64714Y-73191D01*
X64766Y-73139D01*
X64801Y-73122D01*
X64818Y-73104D01*
X64905Y-73052D01*
X64991Y-73035D01*
X65044Y-73018D01*
X65078D01*
X65182Y-73000D01*
X65269Y-72983D01*
X65512D01*
X65616Y-73000D01*
X65686Y-73018D01*
X65703D01*
X65790Y-73035D01*
X65876Y-73052D01*
X65928Y-73070D01*
X65946Y-73087D01*
X66015Y-73139D01*
X66067Y-73191D01*
X66084Y-73226D01*
X66102Y-73243D01*
X66136Y-73365D01*
Y-73417D01*
Y-73434D01*
Y-82299D01*
Y-82368D01*
X66119Y-82438D01*
X66102Y-82490D01*
Y-82507D01*
X66050Y-82577D01*
X65998Y-82629D01*
X65946Y-82646D01*
X65928Y-82663D01*
X65842Y-82681D01*
X65755Y-82698D01*
X65703Y-82715D01*
X65686D01*
X65581Y-82733D01*
X65477Y-82750D01*
X65217D01*
X65113Y-82733D01*
X65044Y-82715D01*
X65026D01*
X64939Y-82698D01*
X64870Y-82681D01*
X64818Y-82663D01*
X64801D01*
X64731Y-82611D01*
X64679Y-82559D01*
X64645Y-82524D01*
X64627Y-82507D01*
X64592Y-82438D01*
X64558Y-82368D01*
Y-82316D01*
Y-82299D01*
Y-76019D01*
X64315Y-75724D01*
X64072Y-75464D01*
X63847Y-75238D01*
X63638Y-75047D01*
X63482Y-74909D01*
X63344Y-74805D01*
X63274Y-74735D01*
X63239Y-74718D01*
X62997Y-74562D01*
X62771Y-74440D01*
X62563Y-74371D01*
X62372Y-74302D01*
X62216Y-74267D01*
X62094Y-74249D01*
X61817D01*
X61661Y-74284D01*
X61522Y-74302D01*
X61400Y-74336D01*
X61314Y-74371D01*
X61244Y-74405D01*
X61192Y-74423D01*
X61175Y-74440D01*
X60932Y-74596D01*
X60741Y-74752D01*
X60672Y-74822D01*
X60620Y-74891D01*
X60602Y-74926D01*
X60585Y-74943D01*
X60429Y-75204D01*
X60325Y-75481D01*
X60290Y-75603D01*
X60255Y-75689D01*
X60238Y-75759D01*
Y-75776D01*
X60186Y-75967D01*
X60151Y-76175D01*
X60134Y-76383D01*
X60117Y-76591D01*
X60099Y-76765D01*
Y-76904D01*
Y-77008D01*
Y-77025D01*
Y-77042D01*
Y-82299D01*
X60082Y-82386D01*
X60065Y-82455D01*
X60047Y-82507D01*
Y-82524D01*
X59926Y-82629D01*
X59891Y-82646D01*
X59874Y-82663D01*
X59787Y-82681D01*
X59718Y-82698D01*
X59666Y-82715D01*
X59648D01*
X59544Y-82733D01*
X59440Y-82750D01*
X59180D01*
X59076Y-82733D01*
X59006Y-82715D01*
X58989D01*
X58902Y-82698D01*
X58833Y-82681D01*
X58781Y-82663D01*
X58763D01*
X58694Y-82611D01*
X58642Y-82559D01*
X58607Y-82524D01*
X58590Y-82507D01*
X58555Y-82438D01*
X58521Y-82368D01*
Y-82316D01*
Y-82299D01*
Y-76938D01*
Y-76591D01*
X58555Y-76279D01*
X58573Y-76002D01*
X58607Y-75759D01*
X58642Y-75568D01*
X58659Y-75412D01*
X58694Y-75325D01*
Y-75290D01*
X58763Y-75030D01*
X58850Y-74805D01*
X58954Y-74596D01*
X59041Y-74405D01*
X59128Y-74267D01*
X59197Y-74145D01*
X59249Y-74076D01*
X59267Y-74059D01*
X59423Y-73868D01*
X59596Y-73694D01*
X59770Y-73555D01*
X59943Y-73434D01*
X60082Y-73330D01*
X60203Y-73261D01*
X60273Y-73226D01*
X60307Y-73208D01*
X60550Y-73104D01*
X60828Y-73018D01*
X61088Y-72966D01*
X61331Y-72914D01*
X61539Y-72896D01*
X61713Y-72879D01*
X61869D01*
X62164Y-72896D01*
D02*
G37*
G36*
X39889Y-69652D02*
X40062Y-69704D01*
X40114Y-69739D01*
X40166Y-69774D01*
X40201Y-69791D01*
X40218Y-69808D01*
X40305Y-69878D01*
X40357Y-69982D01*
X40427Y-70190D01*
X40444Y-70277D01*
X40461Y-70363D01*
Y-70416D01*
Y-70433D01*
Y-82299D01*
X40444Y-82386D01*
X40427Y-82455D01*
X40409Y-82507D01*
Y-82524D01*
X40288Y-82629D01*
X40253Y-82646D01*
X40236Y-82663D01*
X40149Y-82681D01*
X40062Y-82698D01*
X40010Y-82715D01*
X39993D01*
X39889Y-82733D01*
X39785Y-82750D01*
X39524D01*
X39420Y-82733D01*
X39351Y-82715D01*
X39334D01*
X39247Y-82698D01*
X39177Y-82681D01*
X39125Y-82663D01*
X39108D01*
X39021Y-82611D01*
X38969Y-82559D01*
X38935Y-82524D01*
X38917Y-82507D01*
X38883Y-82438D01*
X38848Y-82368D01*
Y-82316D01*
Y-82299D01*
Y-77650D01*
X37425D01*
X36992Y-77632D01*
X36610Y-77598D01*
X36263Y-77563D01*
X35968Y-77494D01*
X35742Y-77442D01*
X35569Y-77407D01*
X35500Y-77389D01*
X35448Y-77372D01*
X35430Y-77355D01*
X35413D01*
X35101Y-77233D01*
X34823Y-77094D01*
X34580Y-76938D01*
X34372Y-76800D01*
X34199Y-76678D01*
X34077Y-76574D01*
X34008Y-76505D01*
X33973Y-76487D01*
X33765Y-76262D01*
X33574Y-76036D01*
X33435Y-75828D01*
X33296Y-75603D01*
X33192Y-75429D01*
X33123Y-75273D01*
X33088Y-75186D01*
X33071Y-75152D01*
X32967Y-74857D01*
X32880Y-74562D01*
X32828Y-74267D01*
X32776Y-74007D01*
X32759Y-73781D01*
X32741Y-73608D01*
Y-73538D01*
Y-73486D01*
Y-73469D01*
Y-73451D01*
Y-73191D01*
X32776Y-72948D01*
X32811Y-72723D01*
X32845Y-72532D01*
X32880Y-72358D01*
X32915Y-72237D01*
X32932Y-72168D01*
X32949Y-72133D01*
X33036Y-71907D01*
X33123Y-71717D01*
X33227Y-71526D01*
X33314Y-71370D01*
X33400Y-71231D01*
X33470Y-71144D01*
X33522Y-71075D01*
X33539Y-71057D01*
X33678Y-70884D01*
X33834Y-70728D01*
X33990Y-70606D01*
X34129Y-70485D01*
X34251Y-70381D01*
X34355Y-70311D01*
X34424Y-70277D01*
X34441Y-70259D01*
X34632Y-70138D01*
X34823Y-70051D01*
X35014Y-69982D01*
X35170Y-69912D01*
X35291Y-69878D01*
X35396Y-69843D01*
X35465Y-69826D01*
X35482D01*
X35829Y-69756D01*
X35985Y-69721D01*
X36124Y-69704D01*
X36228Y-69687D01*
X36315Y-69669D01*
X36384D01*
X36662Y-69635D01*
X36783D01*
X36905Y-69617D01*
X39802D01*
X39889Y-69652D01*
D02*
G37*
G36*
X19470Y-68646D02*
X19539Y-68663D01*
X19574D01*
X19678Y-68681D01*
X19747Y-68698D01*
X19817Y-68715D01*
X19834Y-68733D01*
X19904Y-68785D01*
X19956Y-68837D01*
X19973Y-68871D01*
X19990Y-68889D01*
X20025Y-69010D01*
Y-69062D01*
Y-69080D01*
Y-82299D01*
Y-82368D01*
X20008Y-82438D01*
X19990Y-82490D01*
Y-82507D01*
X19938Y-82577D01*
X19886Y-82629D01*
X19834Y-82646D01*
X19817Y-82663D01*
X19730Y-82681D01*
X19643Y-82698D01*
X19591Y-82715D01*
X19574D01*
X19470Y-82733D01*
X19366Y-82750D01*
X19105D01*
X19001Y-82733D01*
X18932Y-82715D01*
X18915D01*
X18828Y-82698D01*
X18759Y-82681D01*
X18707Y-82663D01*
X18689D01*
X18620Y-82611D01*
X18568Y-82559D01*
X18533Y-82524D01*
X18516Y-82507D01*
X18481Y-82438D01*
X18446Y-82368D01*
Y-82316D01*
Y-82299D01*
Y-69080D01*
X18464Y-69010D01*
X18481Y-68941D01*
X18498Y-68906D01*
X18516Y-68889D01*
X18568Y-68819D01*
X18620Y-68767D01*
X18655Y-68750D01*
X18672Y-68733D01*
X18759Y-68698D01*
X18845Y-68681D01*
X18897Y-68663D01*
X18932D01*
X19036Y-68646D01*
X19140Y-68629D01*
X19366D01*
X19470Y-68646D01*
D02*
G37*
G36*
X-33217Y-72896D02*
X-32939Y-72948D01*
X-32679Y-73018D01*
X-32436Y-73087D01*
X-32245Y-73156D01*
X-32089Y-73226D01*
X-31985Y-73278D01*
X-31968Y-73295D01*
X-31950D01*
X-31673Y-73451D01*
X-31430Y-73642D01*
X-31222Y-73850D01*
X-31065Y-74041D01*
X-30927Y-74215D01*
X-30823Y-74353D01*
X-30770Y-74440D01*
X-30753Y-74458D01*
Y-73434D01*
Y-73365D01*
X-30736Y-73313D01*
X-30719Y-73278D01*
X-30701Y-73261D01*
X-30666Y-73191D01*
X-30614Y-73139D01*
X-30580Y-73122D01*
X-30562Y-73105D01*
X-30476Y-73052D01*
X-30389Y-73035D01*
X-30337Y-73018D01*
X-30302D01*
X-30198Y-73000D01*
X-30111Y-72983D01*
X-29868D01*
X-29764Y-73000D01*
X-29695Y-73018D01*
X-29678D01*
X-29591Y-73035D01*
X-29504Y-73052D01*
X-29452Y-73070D01*
X-29435Y-73087D01*
X-29365Y-73139D01*
X-29313Y-73191D01*
X-29296Y-73226D01*
X-29279Y-73243D01*
X-29244Y-73365D01*
Y-73417D01*
Y-73434D01*
Y-82299D01*
Y-82368D01*
X-29261Y-82438D01*
X-29279Y-82490D01*
Y-82507D01*
X-29331Y-82577D01*
X-29383Y-82629D01*
X-29435Y-82646D01*
X-29452Y-82663D01*
X-29539Y-82681D01*
X-29625Y-82698D01*
X-29678Y-82715D01*
X-29695D01*
X-29799Y-82733D01*
X-29903Y-82750D01*
X-30163D01*
X-30267Y-82733D01*
X-30337Y-82715D01*
X-30354D01*
X-30441Y-82698D01*
X-30510Y-82681D01*
X-30562Y-82663D01*
X-30580D01*
X-30649Y-82611D01*
X-30701Y-82559D01*
X-30736Y-82524D01*
X-30753Y-82507D01*
X-30788Y-82438D01*
X-30823Y-82368D01*
Y-82316D01*
Y-82299D01*
Y-76019D01*
X-31065Y-75724D01*
X-31308Y-75464D01*
X-31534Y-75238D01*
X-31742Y-75047D01*
X-31898Y-74909D01*
X-32037Y-74805D01*
X-32106Y-74735D01*
X-32141Y-74718D01*
X-32384Y-74562D01*
X-32609Y-74440D01*
X-32818Y-74371D01*
X-33008Y-74302D01*
X-33165Y-74267D01*
X-33286Y-74249D01*
X-33564D01*
X-33720Y-74284D01*
X-33858Y-74302D01*
X-33980Y-74336D01*
X-34067Y-74371D01*
X-34136Y-74406D01*
X-34188Y-74423D01*
X-34206Y-74440D01*
X-34448Y-74596D01*
X-34639Y-74752D01*
X-34709Y-74822D01*
X-34761Y-74891D01*
X-34778Y-74926D01*
X-34795Y-74943D01*
X-34951Y-75204D01*
X-35055Y-75481D01*
X-35090Y-75603D01*
X-35125Y-75689D01*
X-35142Y-75759D01*
Y-75776D01*
X-35194Y-75967D01*
X-35229Y-76175D01*
X-35246Y-76383D01*
X-35264Y-76591D01*
X-35281Y-76765D01*
Y-76904D01*
Y-77008D01*
Y-77025D01*
Y-77042D01*
Y-82299D01*
X-35298Y-82386D01*
X-35316Y-82455D01*
X-35333Y-82507D01*
Y-82524D01*
X-35454Y-82629D01*
X-35489Y-82646D01*
X-35507Y-82663D01*
X-35593Y-82681D01*
X-35663Y-82698D01*
X-35715Y-82715D01*
X-35732D01*
X-35836Y-82733D01*
X-35940Y-82750D01*
X-36200D01*
X-36305Y-82733D01*
X-36374Y-82715D01*
X-36391D01*
X-36478Y-82698D01*
X-36548Y-82681D01*
X-36600Y-82663D01*
X-36617D01*
X-36686Y-82611D01*
X-36738Y-82559D01*
X-36773Y-82524D01*
X-36790Y-82507D01*
X-36825Y-82438D01*
X-36860Y-82368D01*
Y-82316D01*
Y-82299D01*
Y-76938D01*
Y-76591D01*
X-36825Y-76279D01*
X-36808Y-76002D01*
X-36773Y-75759D01*
X-36738Y-75568D01*
X-36721Y-75412D01*
X-36686Y-75325D01*
Y-75290D01*
X-36617Y-75030D01*
X-36530Y-74805D01*
X-36426Y-74596D01*
X-36339Y-74406D01*
X-36253Y-74267D01*
X-36183Y-74145D01*
X-36131Y-74076D01*
X-36114Y-74059D01*
X-35958Y-73868D01*
X-35784Y-73694D01*
X-35611Y-73555D01*
X-35437Y-73434D01*
X-35298Y-73330D01*
X-35177Y-73261D01*
X-35108Y-73226D01*
X-35073Y-73208D01*
X-34830Y-73105D01*
X-34552Y-73018D01*
X-34292Y-72966D01*
X-34049Y-72914D01*
X-33841Y-72896D01*
X-33668Y-72879D01*
X-33512D01*
X-33217Y-72896D01*
D02*
G37*
G36*
X-53167D02*
X-52959Y-72914D01*
X-52889Y-72931D01*
X-52820Y-72948D01*
X-52785Y-72966D01*
X-52768D01*
X-52543Y-73035D01*
X-52352Y-73139D01*
X-52265Y-73191D01*
X-52196Y-73226D01*
X-52161Y-73243D01*
X-52144Y-73261D01*
X-51901Y-73434D01*
X-51693Y-73608D01*
X-51606Y-73694D01*
X-51536Y-73764D01*
X-51502Y-73798D01*
X-51484Y-73816D01*
X-51380Y-73955D01*
X-51293Y-74093D01*
X-51224Y-74232D01*
X-51189Y-74353D01*
X-51155Y-74458D01*
X-51137Y-74544D01*
Y-73434D01*
Y-73365D01*
X-51120Y-73313D01*
X-51103Y-73278D01*
X-51085Y-73261D01*
X-51051Y-73191D01*
X-50999Y-73139D01*
X-50964Y-73122D01*
X-50946Y-73105D01*
X-50860Y-73052D01*
X-50773Y-73035D01*
X-50721Y-73018D01*
X-50686D01*
X-50582Y-73000D01*
X-50495Y-72983D01*
X-50253D01*
X-50149Y-73000D01*
X-50079Y-73018D01*
X-50062D01*
X-49975Y-73035D01*
X-49888Y-73052D01*
X-49836Y-73070D01*
X-49819Y-73087D01*
X-49749Y-73139D01*
X-49697Y-73191D01*
X-49680Y-73226D01*
X-49663Y-73243D01*
X-49628Y-73365D01*
Y-73417D01*
Y-73434D01*
Y-82299D01*
Y-82368D01*
X-49645Y-82438D01*
X-49663Y-82490D01*
Y-82507D01*
X-49715Y-82577D01*
X-49767Y-82629D01*
X-49819Y-82646D01*
X-49836Y-82663D01*
X-49923Y-82681D01*
X-50010Y-82698D01*
X-50062Y-82715D01*
X-50079D01*
X-50183Y-82733D01*
X-50287Y-82750D01*
X-50547D01*
X-50652Y-82733D01*
X-50721Y-82715D01*
X-50738D01*
X-50825Y-82698D01*
X-50894Y-82681D01*
X-50946Y-82663D01*
X-50964D01*
X-51033Y-82611D01*
X-51085Y-82559D01*
X-51120Y-82524D01*
X-51137Y-82507D01*
X-51172Y-82438D01*
X-51207Y-82368D01*
Y-82316D01*
Y-82299D01*
Y-76366D01*
X-51328Y-76175D01*
X-51450Y-75984D01*
X-51554Y-75828D01*
X-51640Y-75689D01*
X-51727Y-75585D01*
X-51779Y-75498D01*
X-51814Y-75447D01*
X-51831Y-75429D01*
X-51953Y-75290D01*
X-52057Y-75169D01*
X-52144Y-75047D01*
X-52230Y-74961D01*
X-52300Y-74891D01*
X-52352Y-74839D01*
X-52369Y-74822D01*
X-52386Y-74805D01*
X-52577Y-74666D01*
X-52733Y-74562D01*
X-52837Y-74492D01*
X-52855Y-74475D01*
X-52872D01*
X-53046Y-74406D01*
X-53184Y-74388D01*
X-53288Y-74371D01*
X-53462D01*
X-53566Y-74388D01*
X-53636Y-74406D01*
X-53670Y-74423D01*
X-53809Y-74458D01*
X-53913Y-74475D01*
X-54000Y-74492D01*
X-54035Y-74510D01*
X-54156Y-74544D01*
X-54260Y-74579D01*
X-54312Y-74596D01*
X-54329Y-74614D01*
X-54416Y-74631D01*
X-54486Y-74648D01*
X-54555D01*
X-54659Y-74631D01*
X-54728Y-74614D01*
X-54763Y-74596D01*
X-54780Y-74579D01*
X-54833Y-74510D01*
X-54867Y-74458D01*
X-54902Y-74423D01*
Y-74406D01*
X-54919Y-74319D01*
X-54937Y-74249D01*
X-54954Y-74180D01*
Y-74163D01*
X-54971Y-74059D01*
Y-73972D01*
Y-73920D01*
Y-73903D01*
Y-73816D01*
Y-73746D01*
X-54954Y-73694D01*
Y-73677D01*
Y-73590D01*
X-54937Y-73521D01*
X-54919Y-73486D01*
Y-73469D01*
X-54885Y-73365D01*
X-54867Y-73347D01*
Y-73330D01*
X-54833Y-73278D01*
X-54798Y-73226D01*
X-54763Y-73208D01*
X-54746Y-73191D01*
X-54676Y-73139D01*
X-54590Y-73105D01*
X-54520Y-73070D01*
X-54486D01*
X-54364Y-73018D01*
X-54243Y-72983D01*
X-54139Y-72966D01*
X-54104D01*
X-53948Y-72931D01*
X-53826Y-72914D01*
X-53740Y-72896D01*
X-53705D01*
X-53583Y-72879D01*
X-53410D01*
X-53167Y-72896D01*
D02*
G37*
G36*
X-86666D02*
X-86458Y-72914D01*
X-86389Y-72931D01*
X-86320Y-72948D01*
X-86285Y-72966D01*
X-86267D01*
X-86042Y-73035D01*
X-85851Y-73139D01*
X-85764Y-73191D01*
X-85695Y-73226D01*
X-85660Y-73243D01*
X-85643Y-73261D01*
X-85400Y-73434D01*
X-85192Y-73608D01*
X-85105Y-73694D01*
X-85036Y-73764D01*
X-85001Y-73798D01*
X-84984Y-73816D01*
X-84880Y-73955D01*
X-84793Y-74093D01*
X-84723Y-74232D01*
X-84689Y-74353D01*
X-84654Y-74458D01*
X-84637Y-74544D01*
Y-73434D01*
Y-73365D01*
X-84619Y-73313D01*
X-84602Y-73278D01*
X-84585Y-73261D01*
X-84550Y-73191D01*
X-84498Y-73139D01*
X-84463Y-73122D01*
X-84446Y-73105D01*
X-84359Y-73052D01*
X-84272Y-73035D01*
X-84220Y-73018D01*
X-84186D01*
X-84081Y-73000D01*
X-83995Y-72983D01*
X-83752D01*
X-83648Y-73000D01*
X-83578Y-73018D01*
X-83561D01*
X-83474Y-73035D01*
X-83388Y-73052D01*
X-83336Y-73070D01*
X-83318Y-73087D01*
X-83249Y-73139D01*
X-83197Y-73191D01*
X-83179Y-73226D01*
X-83162Y-73243D01*
X-83127Y-73365D01*
Y-73417D01*
Y-73434D01*
Y-82299D01*
Y-82368D01*
X-83145Y-82438D01*
X-83162Y-82490D01*
Y-82507D01*
X-83214Y-82577D01*
X-83266Y-82629D01*
X-83318Y-82646D01*
X-83336Y-82663D01*
X-83422Y-82681D01*
X-83509Y-82698D01*
X-83561Y-82715D01*
X-83578D01*
X-83682Y-82733D01*
X-83787Y-82750D01*
X-84047D01*
X-84151Y-82733D01*
X-84220Y-82715D01*
X-84238D01*
X-84324Y-82698D01*
X-84394Y-82681D01*
X-84446Y-82663D01*
X-84463D01*
X-84533Y-82611D01*
X-84585Y-82559D01*
X-84619Y-82524D01*
X-84637Y-82507D01*
X-84671Y-82438D01*
X-84706Y-82368D01*
Y-82316D01*
Y-82299D01*
Y-76366D01*
X-84827Y-76175D01*
X-84949Y-75984D01*
X-85053Y-75828D01*
X-85140Y-75689D01*
X-85226Y-75585D01*
X-85279Y-75498D01*
X-85313Y-75447D01*
X-85331Y-75429D01*
X-85452Y-75290D01*
X-85556Y-75169D01*
X-85643Y-75047D01*
X-85730Y-74961D01*
X-85799Y-74891D01*
X-85851Y-74839D01*
X-85868Y-74822D01*
X-85886Y-74805D01*
X-86077Y-74666D01*
X-86233Y-74562D01*
X-86337Y-74492D01*
X-86354Y-74475D01*
X-86371D01*
X-86545Y-74406D01*
X-86684Y-74388D01*
X-86788Y-74371D01*
X-86961D01*
X-87065Y-74388D01*
X-87135Y-74406D01*
X-87170Y-74423D01*
X-87308Y-74458D01*
X-87412Y-74475D01*
X-87499Y-74492D01*
X-87534Y-74510D01*
X-87655Y-74544D01*
X-87759Y-74579D01*
X-87811Y-74596D01*
X-87829Y-74614D01*
X-87915Y-74631D01*
X-87985Y-74648D01*
X-88054D01*
X-88158Y-74631D01*
X-88228Y-74614D01*
X-88263Y-74596D01*
X-88280Y-74579D01*
X-88332Y-74510D01*
X-88366Y-74458D01*
X-88401Y-74423D01*
Y-74406D01*
X-88419Y-74319D01*
X-88436Y-74249D01*
X-88453Y-74180D01*
Y-74163D01*
X-88471Y-74059D01*
Y-73972D01*
Y-73920D01*
Y-73903D01*
Y-73816D01*
Y-73746D01*
X-88453Y-73694D01*
Y-73677D01*
Y-73590D01*
X-88436Y-73521D01*
X-88419Y-73486D01*
Y-73469D01*
X-88384Y-73365D01*
X-88366Y-73347D01*
Y-73330D01*
X-88332Y-73278D01*
X-88297Y-73226D01*
X-88263Y-73208D01*
X-88245Y-73191D01*
X-88176Y-73139D01*
X-88089Y-73105D01*
X-88020Y-73070D01*
X-87985D01*
X-87864Y-73018D01*
X-87742Y-72983D01*
X-87638Y-72966D01*
X-87603D01*
X-87447Y-72931D01*
X-87326Y-72914D01*
X-87239Y-72896D01*
X-87204D01*
X-87083Y-72879D01*
X-86909D01*
X-86666Y-72896D01*
D02*
G37*
G36*
X-125821Y-69583D02*
X-125752Y-69600D01*
X-125735D01*
X-125648Y-69618D01*
X-125561Y-69635D01*
X-125509Y-69652D01*
X-125492Y-69669D01*
X-125405Y-69704D01*
X-125353Y-69756D01*
X-125318Y-69791D01*
X-125301Y-69808D01*
X-125266Y-69878D01*
X-125249Y-69947D01*
Y-69999D01*
Y-70016D01*
Y-82299D01*
X-125266Y-82386D01*
X-125283Y-82455D01*
X-125301Y-82507D01*
Y-82524D01*
X-125422Y-82629D01*
X-125457Y-82646D01*
X-125474Y-82663D01*
X-125561Y-82681D01*
X-125648Y-82698D01*
X-125700Y-82715D01*
X-125717D01*
X-125821Y-82733D01*
X-125925Y-82750D01*
X-126186D01*
X-126290Y-82733D01*
X-126359Y-82715D01*
X-126376D01*
X-126463Y-82698D01*
X-126533Y-82681D01*
X-126585Y-82663D01*
X-126602D01*
X-126689Y-82611D01*
X-126741Y-82559D01*
X-126776Y-82524D01*
X-126793Y-82507D01*
X-126827Y-82438D01*
X-126862Y-82368D01*
Y-82316D01*
Y-82299D01*
Y-70016D01*
X-126845Y-69947D01*
X-126827Y-69878D01*
X-126810Y-69843D01*
X-126793Y-69826D01*
X-126741Y-69756D01*
X-126689Y-69704D01*
X-126637Y-69687D01*
X-126619Y-69669D01*
X-126533Y-69635D01*
X-126446Y-69618D01*
X-126376Y-69600D01*
X-126359D01*
X-126255Y-69583D01*
X-126151Y-69565D01*
X-125925D01*
X-125821Y-69583D01*
D02*
G37*
G36*
X-130731D02*
X-130661Y-69600D01*
X-130644D01*
X-130557Y-69618D01*
X-130471Y-69635D01*
X-130419Y-69652D01*
X-130401Y-69669D01*
X-130315Y-69704D01*
X-130262Y-69756D01*
X-130228Y-69791D01*
X-130210Y-69808D01*
X-130176Y-69878D01*
X-130158Y-69947D01*
Y-69999D01*
Y-70016D01*
Y-82299D01*
X-130176Y-82386D01*
X-130193Y-82455D01*
X-130210Y-82507D01*
Y-82524D01*
X-130332Y-82629D01*
X-130366Y-82646D01*
X-130384Y-82663D01*
X-130471Y-82681D01*
X-130557Y-82698D01*
X-130609Y-82715D01*
X-130627D01*
X-130731Y-82733D01*
X-130835Y-82750D01*
X-131095D01*
X-131199Y-82733D01*
X-131269Y-82715D01*
X-131286D01*
X-131373Y-82698D01*
X-131442Y-82681D01*
X-131494Y-82663D01*
X-131511D01*
X-131598Y-82611D01*
X-131650Y-82559D01*
X-131685Y-82524D01*
X-131702Y-82507D01*
X-131737Y-82438D01*
X-131772Y-82368D01*
Y-82316D01*
Y-82299D01*
Y-70016D01*
X-131754Y-69947D01*
X-131737Y-69878D01*
X-131720Y-69843D01*
X-131702Y-69826D01*
X-131650Y-69756D01*
X-131598Y-69704D01*
X-131546Y-69687D01*
X-131529Y-69669D01*
X-131442Y-69635D01*
X-131355Y-69618D01*
X-131286Y-69600D01*
X-131269D01*
X-131165Y-69583D01*
X-131060Y-69565D01*
X-130835D01*
X-130731Y-69583D01*
D02*
G37*
G36*
X-135640D02*
X-135571Y-69600D01*
X-135554D01*
X-135467Y-69618D01*
X-135380Y-69635D01*
X-135328Y-69652D01*
X-135311Y-69669D01*
X-135224Y-69704D01*
X-135172Y-69756D01*
X-135137Y-69791D01*
X-135120Y-69808D01*
X-135085Y-69878D01*
X-135068Y-69947D01*
Y-69999D01*
Y-70016D01*
Y-82299D01*
X-135085Y-82386D01*
X-135103Y-82455D01*
X-135120Y-82507D01*
Y-82524D01*
X-135241Y-82629D01*
X-135276Y-82646D01*
X-135293Y-82663D01*
X-135380Y-82681D01*
X-135467Y-82698D01*
X-135519Y-82715D01*
X-135536D01*
X-135640Y-82733D01*
X-135744Y-82750D01*
X-136005D01*
X-136109Y-82733D01*
X-136178Y-82715D01*
X-136195D01*
X-136282Y-82698D01*
X-136352Y-82681D01*
X-136404Y-82663D01*
X-136421D01*
X-136508Y-82611D01*
X-136560Y-82559D01*
X-136594Y-82524D01*
X-136612Y-82507D01*
X-136647Y-82438D01*
X-136681Y-82368D01*
Y-82316D01*
Y-82299D01*
Y-70016D01*
X-136664Y-69947D01*
X-136647Y-69878D01*
X-136629Y-69843D01*
X-136612Y-69826D01*
X-136560Y-69756D01*
X-136508Y-69704D01*
X-136456Y-69687D01*
X-136438Y-69669D01*
X-136352Y-69635D01*
X-136265Y-69618D01*
X-136195Y-69600D01*
X-136178D01*
X-136074Y-69583D01*
X-135970Y-69565D01*
X-135744D01*
X-135640Y-69583D01*
D02*
G37*
G36*
X109871Y-72896D02*
X110253Y-72948D01*
X110600Y-73000D01*
X110895Y-73070D01*
X111138Y-73156D01*
X111311Y-73208D01*
X111381Y-73243D01*
X111433Y-73261D01*
X111450Y-73278D01*
X111467D01*
X111780Y-73434D01*
X112040Y-73608D01*
X112283Y-73781D01*
X112491Y-73955D01*
X112664Y-74111D01*
X112786Y-74232D01*
X112855Y-74319D01*
X112890Y-74353D01*
X113098Y-74614D01*
X113272Y-74891D01*
X113410Y-75152D01*
X113532Y-75412D01*
X113618Y-75620D01*
X113688Y-75793D01*
X113705Y-75863D01*
X113723Y-75915D01*
X113740Y-75932D01*
Y-75950D01*
X113827Y-76297D01*
X113896Y-76644D01*
X113931Y-76973D01*
X113966Y-77285D01*
X113983Y-77546D01*
X114000Y-77667D01*
Y-77754D01*
Y-77840D01*
Y-77892D01*
Y-77927D01*
Y-77945D01*
X113983Y-78361D01*
X113966Y-78743D01*
X113913Y-79090D01*
X113861Y-79402D01*
X113827Y-79645D01*
X113775Y-79836D01*
X113757Y-79905D01*
Y-79957D01*
X113740Y-79974D01*
Y-79992D01*
X113636Y-80321D01*
X113497Y-80616D01*
X113376Y-80876D01*
X113237Y-81102D01*
X113115Y-81293D01*
X113011Y-81432D01*
X112942Y-81518D01*
X112925Y-81553D01*
X112699Y-81778D01*
X112474Y-81969D01*
X112248Y-82143D01*
X112022Y-82282D01*
X111849Y-82403D01*
X111693Y-82472D01*
X111589Y-82524D01*
X111572Y-82542D01*
X111554D01*
X111224Y-82646D01*
X110912Y-82733D01*
X110583Y-82785D01*
X110288Y-82837D01*
X110028Y-82854D01*
X109923D01*
X109819Y-82872D01*
X109646D01*
X109229Y-82854D01*
X108865Y-82819D01*
X108518Y-82750D01*
X108241Y-82681D01*
X107998Y-82611D01*
X107824Y-82542D01*
X107755Y-82524D01*
X107703Y-82507D01*
X107685Y-82490D01*
X107668D01*
X107356Y-82334D01*
X107078Y-82160D01*
X106835Y-81987D01*
X106627Y-81813D01*
X106454Y-81657D01*
X106332Y-81536D01*
X106246Y-81449D01*
X106228Y-81414D01*
X106020Y-81137D01*
X105847Y-80876D01*
X105708Y-80599D01*
X105586Y-80339D01*
X105500Y-80130D01*
X105430Y-79957D01*
X105413Y-79888D01*
X105395Y-79836D01*
X105378Y-79818D01*
Y-79801D01*
X105274Y-79436D01*
X105205Y-79090D01*
X105153Y-78760D01*
X105118Y-78448D01*
X105101Y-78170D01*
X105083Y-78066D01*
Y-77962D01*
Y-77892D01*
Y-77840D01*
Y-77806D01*
Y-77788D01*
X105101Y-77389D01*
X105118Y-77008D01*
X105170Y-76661D01*
X105222Y-76366D01*
X105274Y-76123D01*
X105309Y-75932D01*
X105326Y-75863D01*
X105344Y-75811D01*
X105361Y-75793D01*
Y-75776D01*
X105482Y-75446D01*
X105604Y-75152D01*
X105743Y-74891D01*
X105881Y-74666D01*
X106003Y-74475D01*
X106107Y-74353D01*
X106176Y-74267D01*
X106194Y-74232D01*
X106402Y-74007D01*
X106627Y-73798D01*
X106870Y-73625D01*
X107078Y-73486D01*
X107269Y-73365D01*
X107425Y-73295D01*
X107529Y-73243D01*
X107547Y-73226D01*
X107564D01*
X107876Y-73104D01*
X108206Y-73018D01*
X108518Y-72966D01*
X108813Y-72914D01*
X109073Y-72896D01*
X109177D01*
X109282Y-72879D01*
X109455D01*
X109871Y-72896D01*
D02*
G37*
G36*
X100434D02*
X100711Y-72914D01*
X100954Y-72948D01*
X101163Y-73000D01*
X101336Y-73052D01*
X101475Y-73087D01*
X101544Y-73104D01*
X101579Y-73122D01*
X101804Y-73208D01*
X101995Y-73313D01*
X102169Y-73417D01*
X102325Y-73503D01*
X102446Y-73590D01*
X102533Y-73660D01*
X102585Y-73712D01*
X102602Y-73729D01*
X102741Y-73868D01*
X102863Y-74024D01*
X102967Y-74163D01*
X103054Y-74302D01*
X103105Y-74423D01*
X103158Y-74510D01*
X103175Y-74579D01*
X103192Y-74596D01*
X103296Y-74943D01*
X103331Y-75117D01*
X103348Y-75256D01*
Y-75377D01*
X103366Y-75481D01*
Y-75550D01*
Y-75568D01*
X103348Y-75793D01*
X103331Y-76002D01*
X103296Y-76175D01*
X103262Y-76331D01*
X103227Y-76470D01*
X103192Y-76557D01*
X103158Y-76626D01*
Y-76644D01*
X102984Y-76956D01*
X102897Y-77094D01*
X102793Y-77199D01*
X102724Y-77303D01*
X102654Y-77372D01*
X102620Y-77407D01*
X102602Y-77424D01*
X102342Y-77632D01*
X102082Y-77806D01*
X101995Y-77858D01*
X101909Y-77910D01*
X101856Y-77927D01*
X101839Y-77945D01*
X101527Y-78083D01*
X101388Y-78153D01*
X101249Y-78205D01*
X101145Y-78257D01*
X101058Y-78292D01*
X101006Y-78326D01*
X100989D01*
X100659Y-78448D01*
X100521Y-78500D01*
X100399Y-78552D01*
X100295Y-78604D01*
X100226Y-78621D01*
X100174Y-78656D01*
X100156D01*
X99879Y-78777D01*
X99757Y-78847D01*
X99653Y-78899D01*
X99584Y-78951D01*
X99515Y-78986D01*
X99480Y-79003D01*
X99462Y-79020D01*
X99272Y-79176D01*
X99115Y-79315D01*
X99029Y-79419D01*
X98994Y-79436D01*
Y-79454D01*
X98890Y-79645D01*
X98838Y-79836D01*
X98820Y-79922D01*
Y-79992D01*
Y-80026D01*
Y-80044D01*
X98838Y-80304D01*
X98890Y-80495D01*
X98907Y-80582D01*
X98942Y-80633D01*
X98959Y-80668D01*
Y-80686D01*
X99081Y-80859D01*
X99202Y-80998D01*
X99306Y-81085D01*
X99324Y-81119D01*
X99341D01*
X99532Y-81223D01*
X99723Y-81293D01*
X99792Y-81327D01*
X99861Y-81345D01*
X99896Y-81362D01*
X99914D01*
X100174Y-81414D01*
X100417Y-81432D01*
X100521Y-81449D01*
X100868D01*
X101041Y-81432D01*
X101215Y-81414D01*
X101353Y-81379D01*
X101458Y-81362D01*
X101544Y-81345D01*
X101596Y-81327D01*
X101614D01*
X101874Y-81241D01*
X101995Y-81189D01*
X102099Y-81137D01*
X102169Y-81102D01*
X102238Y-81067D01*
X102273Y-81050D01*
X102290D01*
X102498Y-80928D01*
X102672Y-80842D01*
X102741Y-80790D01*
X102793Y-80772D01*
X102811Y-80738D01*
X102828D01*
X102984Y-80651D01*
X103105Y-80599D01*
X103192Y-80582D01*
X103227D01*
X103314Y-80599D01*
X103383Y-80616D01*
X103435Y-80651D01*
X103453Y-80668D01*
X103522Y-80720D01*
X103574Y-80772D01*
X103591Y-80824D01*
X103609Y-80842D01*
X103626Y-80928D01*
X103643Y-80998D01*
X103661Y-81050D01*
Y-81067D01*
X103678Y-81154D01*
Y-81223D01*
Y-81293D01*
Y-81310D01*
X103661Y-81518D01*
X103643Y-81657D01*
X103626Y-81761D01*
Y-81778D01*
Y-81796D01*
X103557Y-81917D01*
X103487Y-82021D01*
X103435Y-82091D01*
X103418Y-82108D01*
X103296Y-82195D01*
X103175Y-82282D01*
X103071Y-82351D01*
X103054Y-82368D01*
X103036D01*
X102845Y-82455D01*
X102654Y-82542D01*
X102568Y-82559D01*
X102498Y-82594D01*
X102464Y-82611D01*
X102446D01*
X102169Y-82681D01*
X101926Y-82733D01*
X101822Y-82750D01*
X101735Y-82767D01*
X101683Y-82785D01*
X101666D01*
X101353Y-82837D01*
X101197Y-82854D01*
X101041D01*
X100920Y-82872D01*
X100746D01*
X100469Y-82854D01*
X100208Y-82837D01*
X99965Y-82802D01*
X99757Y-82767D01*
X99584Y-82733D01*
X99445Y-82715D01*
X99376Y-82681D01*
X99341D01*
X99115Y-82594D01*
X98890Y-82507D01*
X98699Y-82420D01*
X98543Y-82316D01*
X98404Y-82247D01*
X98317Y-82177D01*
X98248Y-82126D01*
X98231Y-82108D01*
X98057Y-81952D01*
X97918Y-81796D01*
X97797Y-81657D01*
X97693Y-81501D01*
X97606Y-81379D01*
X97554Y-81275D01*
X97519Y-81206D01*
X97502Y-81189D01*
X97415Y-80981D01*
X97346Y-80755D01*
X97311Y-80547D01*
X97276Y-80356D01*
X97259Y-80183D01*
X97242Y-80061D01*
Y-79974D01*
Y-79940D01*
X97259Y-79731D01*
X97276Y-79523D01*
X97311Y-79350D01*
X97346Y-79211D01*
X97398Y-79090D01*
X97433Y-78986D01*
X97450Y-78933D01*
X97467Y-78916D01*
X97641Y-78621D01*
X97728Y-78500D01*
X97814Y-78396D01*
X97901Y-78309D01*
X97971Y-78239D01*
X98005Y-78205D01*
X98022Y-78187D01*
X98283Y-77979D01*
X98543Y-77806D01*
X98647Y-77754D01*
X98734Y-77702D01*
X98786Y-77684D01*
X98803Y-77667D01*
X99098Y-77528D01*
X99237Y-77459D01*
X99358Y-77407D01*
X99462Y-77355D01*
X99549Y-77337D01*
X99601Y-77303D01*
X99619D01*
X99914Y-77181D01*
X100052Y-77129D01*
X100174Y-77077D01*
X100295Y-77042D01*
X100382Y-77008D01*
X100434Y-76973D01*
X100451D01*
X100607Y-76904D01*
X100764Y-76834D01*
X100885Y-76782D01*
X100989Y-76730D01*
X101076Y-76678D01*
X101145Y-76644D01*
X101180Y-76609D01*
X101197D01*
X101388Y-76453D01*
X101544Y-76297D01*
X101631Y-76192D01*
X101666Y-76175D01*
Y-76158D01*
X101752Y-75950D01*
X101804Y-75741D01*
Y-75655D01*
X101822Y-75585D01*
Y-75533D01*
Y-75516D01*
X101804Y-75325D01*
X101770Y-75152D01*
X101752Y-75047D01*
X101735Y-75030D01*
Y-75013D01*
X101648Y-74857D01*
X101561Y-74735D01*
X101492Y-74666D01*
X101458Y-74631D01*
X101284Y-74510D01*
X101110Y-74423D01*
X101041Y-74388D01*
X100989Y-74371D01*
X100954Y-74353D01*
X100937D01*
X100694Y-74284D01*
X100451Y-74267D01*
X100365Y-74249D01*
X100208D01*
X99914Y-74267D01*
X99775Y-74284D01*
X99671Y-74302D01*
X99566Y-74319D01*
X99497Y-74336D01*
X99462Y-74353D01*
X99445D01*
X99220Y-74440D01*
X99029Y-74510D01*
X98959Y-74527D01*
X98907Y-74562D01*
X98890Y-74579D01*
X98873D01*
X98699Y-74666D01*
X98578Y-74752D01*
X98491Y-74805D01*
X98456Y-74822D01*
X98335Y-74891D01*
X98231Y-74926D01*
X98161Y-74943D01*
X98127D01*
X98040Y-74926D01*
X97953Y-74909D01*
X97918Y-74891D01*
X97901Y-74874D01*
X97849Y-74822D01*
X97814Y-74752D01*
X97780Y-74718D01*
Y-74700D01*
X97745Y-74614D01*
X97728Y-74544D01*
X97710Y-74492D01*
Y-74475D01*
X97693Y-74388D01*
X97676Y-74302D01*
Y-74249D01*
Y-74232D01*
Y-74163D01*
Y-74093D01*
X97693Y-74041D01*
Y-74024D01*
X97710Y-73937D01*
Y-73885D01*
X97728Y-73850D01*
Y-73833D01*
X97762Y-73729D01*
X97780Y-73694D01*
X97797Y-73677D01*
X97849Y-73608D01*
X97901Y-73555D01*
X97953Y-73521D01*
X97971Y-73503D01*
X98075Y-73434D01*
X98196Y-73382D01*
X98283Y-73330D01*
X98300Y-73313D01*
X98317D01*
X98491Y-73226D01*
X98647Y-73156D01*
X98716Y-73139D01*
X98769Y-73122D01*
X98803Y-73104D01*
X98820D01*
X99046Y-73035D01*
X99254Y-72983D01*
X99341Y-72966D01*
X99410D01*
X99445Y-72948D01*
X99462D01*
X99705Y-72914D01*
X99931Y-72879D01*
X100139D01*
X100434Y-72896D01*
D02*
G37*
G36*
X73128D02*
X73509Y-72948D01*
X73857Y-73000D01*
X74151Y-73070D01*
X74394Y-73156D01*
X74568Y-73208D01*
X74637Y-73243D01*
X74689Y-73261D01*
X74707Y-73278D01*
X74724D01*
X75036Y-73434D01*
X75296Y-73608D01*
X75539Y-73781D01*
X75747Y-73955D01*
X75921Y-74111D01*
X76042Y-74232D01*
X76112Y-74319D01*
X76146Y-74353D01*
X76355Y-74614D01*
X76528Y-74891D01*
X76667Y-75152D01*
X76788Y-75412D01*
X76875Y-75620D01*
X76944Y-75793D01*
X76962Y-75863D01*
X76979Y-75915D01*
X76996Y-75932D01*
Y-75950D01*
X77083Y-76297D01*
X77153Y-76644D01*
X77187Y-76973D01*
X77222Y-77285D01*
X77239Y-77546D01*
X77257Y-77667D01*
Y-77754D01*
Y-77840D01*
Y-77892D01*
Y-77927D01*
Y-77945D01*
X77239Y-78361D01*
X77222Y-78743D01*
X77170Y-79090D01*
X77118Y-79402D01*
X77083Y-79645D01*
X77031Y-79836D01*
X77014Y-79905D01*
Y-79957D01*
X76996Y-79974D01*
Y-79992D01*
X76892Y-80321D01*
X76754Y-80616D01*
X76632Y-80876D01*
X76493Y-81102D01*
X76372Y-81293D01*
X76268Y-81432D01*
X76199Y-81518D01*
X76181Y-81553D01*
X75956Y-81778D01*
X75730Y-81969D01*
X75504Y-82143D01*
X75279Y-82282D01*
X75106Y-82403D01*
X74949Y-82472D01*
X74845Y-82524D01*
X74828Y-82542D01*
X74811D01*
X74481Y-82646D01*
X74169Y-82733D01*
X73839Y-82785D01*
X73544Y-82837D01*
X73284Y-82854D01*
X73180D01*
X73076Y-82872D01*
X72902D01*
X72486Y-82854D01*
X72122Y-82819D01*
X71775Y-82750D01*
X71497Y-82681D01*
X71254Y-82611D01*
X71081Y-82542D01*
X71011Y-82524D01*
X70959Y-82507D01*
X70942Y-82490D01*
X70925D01*
X70612Y-82334D01*
X70335Y-82160D01*
X70092Y-81987D01*
X69884Y-81813D01*
X69710Y-81657D01*
X69589Y-81536D01*
X69502Y-81449D01*
X69485Y-81414D01*
X69276Y-81137D01*
X69103Y-80876D01*
X68964Y-80599D01*
X68843Y-80339D01*
X68756Y-80130D01*
X68687Y-79957D01*
X68669Y-79888D01*
X68652Y-79836D01*
X68635Y-79818D01*
Y-79801D01*
X68531Y-79436D01*
X68461Y-79090D01*
X68409Y-78760D01*
X68374Y-78448D01*
X68357Y-78170D01*
X68340Y-78066D01*
Y-77962D01*
Y-77892D01*
Y-77840D01*
Y-77806D01*
Y-77788D01*
X68357Y-77389D01*
X68374Y-77008D01*
X68426Y-76661D01*
X68478Y-76366D01*
X68531Y-76123D01*
X68565Y-75932D01*
X68583Y-75863D01*
X68600Y-75811D01*
X68617Y-75793D01*
Y-75776D01*
X68739Y-75446D01*
X68860Y-75152D01*
X68999Y-74891D01*
X69138Y-74666D01*
X69259Y-74475D01*
X69363Y-74353D01*
X69433Y-74267D01*
X69450Y-74232D01*
X69658Y-74007D01*
X69884Y-73798D01*
X70127Y-73625D01*
X70335Y-73486D01*
X70526Y-73365D01*
X70682Y-73295D01*
X70786Y-73243D01*
X70803Y-73226D01*
X70820D01*
X71133Y-73104D01*
X71462Y-73018D01*
X71775Y-72966D01*
X72070Y-72914D01*
X72330Y-72896D01*
X72434D01*
X72538Y-72879D01*
X72712D01*
X73128Y-72896D01*
D02*
G37*
G36*
X49170Y-68698D02*
X49239Y-68715D01*
X49257D01*
X49344Y-68733D01*
X49430Y-68750D01*
X49482Y-68767D01*
X49500Y-68785D01*
X49569Y-68837D01*
X49638Y-68889D01*
X49656Y-68924D01*
X49673Y-68941D01*
X49708Y-69062D01*
Y-69114D01*
Y-69132D01*
Y-74284D01*
X49847Y-74059D01*
X50003Y-73850D01*
X50176Y-73677D01*
X50332Y-73538D01*
X50488Y-73417D01*
X50610Y-73330D01*
X50697Y-73278D01*
X50731Y-73261D01*
X51009Y-73139D01*
X51269Y-73035D01*
X51529Y-72966D01*
X51772Y-72931D01*
X51980Y-72896D01*
X52154Y-72879D01*
X52293D01*
X52640Y-72896D01*
X52969Y-72931D01*
X53264Y-73000D01*
X53524Y-73070D01*
X53733Y-73139D01*
X53889Y-73208D01*
X53993Y-73243D01*
X54010Y-73261D01*
X54028D01*
X54288Y-73417D01*
X54531Y-73573D01*
X54756Y-73746D01*
X54930Y-73920D01*
X55086Y-74076D01*
X55190Y-74197D01*
X55259Y-74267D01*
X55276Y-74302D01*
X55450Y-74562D01*
X55606Y-74822D01*
X55745Y-75100D01*
X55849Y-75342D01*
X55936Y-75568D01*
X55988Y-75741D01*
X56005Y-75811D01*
X56023Y-75863D01*
X56040Y-75880D01*
Y-75897D01*
X56127Y-76262D01*
X56179Y-76609D01*
X56231Y-76973D01*
X56248Y-77285D01*
X56265Y-77563D01*
X56283Y-77684D01*
Y-77788D01*
Y-77875D01*
Y-77927D01*
Y-77962D01*
Y-77979D01*
X56265Y-78344D01*
X56248Y-78691D01*
X56213Y-79003D01*
X56179Y-79280D01*
X56144Y-79523D01*
X56127Y-79697D01*
X56109Y-79766D01*
X56092Y-79818D01*
Y-79836D01*
Y-79853D01*
X56005Y-80165D01*
X55901Y-80477D01*
X55797Y-80738D01*
X55676Y-80963D01*
X55589Y-81154D01*
X55502Y-81293D01*
X55450Y-81379D01*
X55433Y-81414D01*
X55259Y-81657D01*
X55068Y-81865D01*
X54860Y-82056D01*
X54687Y-82212D01*
X54513Y-82334D01*
X54392Y-82420D01*
X54305Y-82472D01*
X54270Y-82490D01*
X53993Y-82611D01*
X53698Y-82715D01*
X53403Y-82785D01*
X53125Y-82819D01*
X52900Y-82854D01*
X52709Y-82872D01*
X52536D01*
X52189Y-82854D01*
X51859Y-82802D01*
X51564Y-82733D01*
X51304Y-82646D01*
X51096Y-82559D01*
X50939Y-82490D01*
X50835Y-82438D01*
X50801Y-82420D01*
X50523Y-82247D01*
X50280Y-82039D01*
X50072Y-81848D01*
X49916Y-81657D01*
X49777Y-81501D01*
X49690Y-81362D01*
X49638Y-81275D01*
X49621Y-81241D01*
Y-82299D01*
X49604Y-82403D01*
X49586Y-82472D01*
X49569Y-82524D01*
X49552Y-82542D01*
X49448Y-82646D01*
X49413Y-82663D01*
X49395Y-82681D01*
X49309Y-82698D01*
X49239Y-82715D01*
X49187Y-82733D01*
X49170D01*
X49066Y-82750D01*
X48736D01*
X48650Y-82733D01*
X48580D01*
X48493Y-82715D01*
X48424Y-82698D01*
X48372Y-82681D01*
X48355D01*
X48285Y-82629D01*
X48233Y-82577D01*
X48216Y-82542D01*
X48198Y-82524D01*
X48164Y-82438D01*
X48129Y-82368D01*
Y-82316D01*
Y-82299D01*
Y-69132D01*
X48146Y-69062D01*
X48164Y-68993D01*
X48181Y-68958D01*
X48198Y-68941D01*
X48250Y-68871D01*
X48303Y-68819D01*
X48355Y-68802D01*
X48372Y-68785D01*
X48459Y-68750D01*
X48528Y-68733D01*
X48597Y-68715D01*
X48615D01*
X48719Y-68698D01*
X48823Y-68681D01*
X49066D01*
X49170Y-68698D01*
D02*
G37*
G36*
X13138Y-72896D02*
X13415Y-72914D01*
X13658Y-72948D01*
X13866Y-73000D01*
X14040Y-73052D01*
X14179Y-73087D01*
X14248Y-73104D01*
X14283Y-73122D01*
X14508Y-73208D01*
X14699Y-73313D01*
X14873Y-73417D01*
X15029Y-73503D01*
X15150Y-73590D01*
X15237Y-73660D01*
X15289Y-73712D01*
X15306Y-73729D01*
X15445Y-73868D01*
X15567Y-74024D01*
X15671Y-74163D01*
X15757Y-74302D01*
X15809Y-74423D01*
X15861Y-74510D01*
X15879Y-74579D01*
X15896Y-74596D01*
X16000Y-74943D01*
X16035Y-75117D01*
X16052Y-75256D01*
Y-75377D01*
X16070Y-75481D01*
Y-75550D01*
Y-75568D01*
X16052Y-75793D01*
X16035Y-76002D01*
X16000Y-76175D01*
X15965Y-76331D01*
X15931Y-76470D01*
X15896Y-76557D01*
X15861Y-76626D01*
Y-76644D01*
X15688Y-76956D01*
X15601Y-77094D01*
X15497Y-77199D01*
X15428Y-77303D01*
X15358Y-77372D01*
X15324Y-77407D01*
X15306Y-77424D01*
X15046Y-77632D01*
X14786Y-77806D01*
X14699Y-77858D01*
X14612Y-77910D01*
X14560Y-77927D01*
X14543Y-77945D01*
X14231Y-78083D01*
X14092Y-78153D01*
X13953Y-78205D01*
X13849Y-78257D01*
X13762Y-78292D01*
X13710Y-78326D01*
X13693D01*
X13363Y-78448D01*
X13225Y-78500D01*
X13103Y-78552D01*
X12999Y-78604D01*
X12930Y-78621D01*
X12878Y-78656D01*
X12860D01*
X12583Y-78777D01*
X12461Y-78847D01*
X12357Y-78899D01*
X12288Y-78951D01*
X12218Y-78986D01*
X12184Y-79003D01*
X12166Y-79020D01*
X11975Y-79176D01*
X11819Y-79315D01*
X11733Y-79419D01*
X11698Y-79436D01*
Y-79454D01*
X11594Y-79645D01*
X11542Y-79836D01*
X11524Y-79922D01*
Y-79992D01*
Y-80026D01*
Y-80044D01*
X11542Y-80304D01*
X11594Y-80495D01*
X11611Y-80582D01*
X11646Y-80633D01*
X11663Y-80668D01*
Y-80686D01*
X11785Y-80859D01*
X11906Y-80998D01*
X12010Y-81085D01*
X12027Y-81119D01*
X12045D01*
X12236Y-81223D01*
X12427Y-81293D01*
X12496Y-81327D01*
X12565Y-81345D01*
X12600Y-81362D01*
X12617D01*
X12878Y-81414D01*
X13120Y-81432D01*
X13225Y-81449D01*
X13571D01*
X13745Y-81432D01*
X13918Y-81414D01*
X14057Y-81379D01*
X14161Y-81362D01*
X14248Y-81345D01*
X14300Y-81327D01*
X14317D01*
X14578Y-81241D01*
X14699Y-81189D01*
X14803Y-81137D01*
X14873Y-81102D01*
X14942Y-81067D01*
X14977Y-81050D01*
X14994D01*
X15202Y-80928D01*
X15376Y-80842D01*
X15445Y-80790D01*
X15497Y-80772D01*
X15515Y-80738D01*
X15532D01*
X15688Y-80651D01*
X15809Y-80599D01*
X15896Y-80582D01*
X15931D01*
X16018Y-80599D01*
X16087Y-80616D01*
X16139Y-80651D01*
X16156Y-80668D01*
X16226Y-80720D01*
X16278Y-80772D01*
X16295Y-80824D01*
X16313Y-80842D01*
X16330Y-80928D01*
X16347Y-80998D01*
X16365Y-81050D01*
Y-81067D01*
X16382Y-81154D01*
Y-81223D01*
Y-81293D01*
Y-81310D01*
X16365Y-81518D01*
X16347Y-81657D01*
X16330Y-81761D01*
Y-81778D01*
Y-81796D01*
X16260Y-81917D01*
X16191Y-82021D01*
X16139Y-82091D01*
X16122Y-82108D01*
X16000Y-82195D01*
X15879Y-82282D01*
X15775Y-82351D01*
X15757Y-82368D01*
X15740D01*
X15549Y-82455D01*
X15358Y-82542D01*
X15272Y-82559D01*
X15202Y-82594D01*
X15167Y-82611D01*
X15150D01*
X14873Y-82681D01*
X14630Y-82733D01*
X14526Y-82750D01*
X14439Y-82767D01*
X14387Y-82785D01*
X14369D01*
X14057Y-82837D01*
X13901Y-82854D01*
X13745D01*
X13623Y-82872D01*
X13450D01*
X13173Y-82854D01*
X12912Y-82837D01*
X12669Y-82802D01*
X12461Y-82767D01*
X12288Y-82733D01*
X12149Y-82715D01*
X12079Y-82681D01*
X12045D01*
X11819Y-82594D01*
X11594Y-82507D01*
X11403Y-82420D01*
X11247Y-82316D01*
X11108Y-82247D01*
X11021Y-82177D01*
X10952Y-82126D01*
X10934Y-82108D01*
X10761Y-81952D01*
X10622Y-81796D01*
X10501Y-81657D01*
X10397Y-81501D01*
X10310Y-81379D01*
X10258Y-81275D01*
X10223Y-81206D01*
X10206Y-81189D01*
X10119Y-80981D01*
X10050Y-80755D01*
X10015Y-80547D01*
X9980Y-80356D01*
X9963Y-80183D01*
X9946Y-80061D01*
Y-79974D01*
Y-79940D01*
X9963Y-79731D01*
X9980Y-79523D01*
X10015Y-79350D01*
X10050Y-79211D01*
X10102Y-79090D01*
X10136Y-78986D01*
X10154Y-78933D01*
X10171Y-78916D01*
X10345Y-78621D01*
X10431Y-78500D01*
X10518Y-78396D01*
X10605Y-78309D01*
X10674Y-78239D01*
X10709Y-78205D01*
X10726Y-78187D01*
X10987Y-77979D01*
X11247Y-77806D01*
X11351Y-77754D01*
X11438Y-77702D01*
X11490Y-77684D01*
X11507Y-77667D01*
X11802Y-77528D01*
X11941Y-77459D01*
X12062Y-77407D01*
X12166Y-77355D01*
X12253Y-77337D01*
X12305Y-77303D01*
X12322D01*
X12617Y-77181D01*
X12756Y-77129D01*
X12878Y-77077D01*
X12999Y-77042D01*
X13086Y-77008D01*
X13138Y-76973D01*
X13155D01*
X13311Y-76904D01*
X13467Y-76834D01*
X13589Y-76782D01*
X13693Y-76730D01*
X13780Y-76678D01*
X13849Y-76644D01*
X13884Y-76609D01*
X13901D01*
X14092Y-76453D01*
X14248Y-76297D01*
X14335Y-76192D01*
X14369Y-76175D01*
Y-76158D01*
X14456Y-75950D01*
X14508Y-75741D01*
Y-75655D01*
X14526Y-75585D01*
Y-75533D01*
Y-75516D01*
X14508Y-75325D01*
X14474Y-75152D01*
X14456Y-75047D01*
X14439Y-75030D01*
Y-75013D01*
X14352Y-74857D01*
X14265Y-74735D01*
X14196Y-74666D01*
X14161Y-74631D01*
X13988Y-74510D01*
X13814Y-74423D01*
X13745Y-74388D01*
X13693Y-74371D01*
X13658Y-74353D01*
X13641D01*
X13398Y-74284D01*
X13155Y-74267D01*
X13068Y-74249D01*
X12912D01*
X12617Y-74267D01*
X12478Y-74284D01*
X12374Y-74302D01*
X12270Y-74319D01*
X12201Y-74336D01*
X12166Y-74353D01*
X12149D01*
X11923Y-74440D01*
X11733Y-74510D01*
X11663Y-74527D01*
X11611Y-74562D01*
X11594Y-74579D01*
X11576D01*
X11403Y-74666D01*
X11281Y-74752D01*
X11195Y-74805D01*
X11160Y-74822D01*
X11039Y-74891D01*
X10934Y-74926D01*
X10865Y-74943D01*
X10831D01*
X10744Y-74926D01*
X10657Y-74909D01*
X10622Y-74891D01*
X10605Y-74874D01*
X10553Y-74822D01*
X10518Y-74752D01*
X10483Y-74718D01*
Y-74700D01*
X10449Y-74614D01*
X10431Y-74544D01*
X10414Y-74492D01*
Y-74475D01*
X10397Y-74388D01*
X10379Y-74302D01*
Y-74249D01*
Y-74232D01*
Y-74163D01*
Y-74093D01*
X10397Y-74041D01*
Y-74024D01*
X10414Y-73937D01*
Y-73885D01*
X10431Y-73850D01*
Y-73833D01*
X10466Y-73729D01*
X10483Y-73694D01*
X10501Y-73677D01*
X10553Y-73608D01*
X10605Y-73555D01*
X10657Y-73521D01*
X10674Y-73503D01*
X10778Y-73434D01*
X10900Y-73382D01*
X10987Y-73330D01*
X11004Y-73313D01*
X11021D01*
X11195Y-73226D01*
X11351Y-73156D01*
X11420Y-73139D01*
X11472Y-73122D01*
X11507Y-73104D01*
X11524D01*
X11750Y-73035D01*
X11958Y-72983D01*
X12045Y-72966D01*
X12114D01*
X12149Y-72948D01*
X12166D01*
X12409Y-72914D01*
X12635Y-72879D01*
X12843D01*
X13138Y-72896D01*
D02*
G37*
G36*
X-76136Y-72896D02*
X-75754Y-72948D01*
X-75407Y-73000D01*
X-75113Y-73070D01*
X-74870Y-73156D01*
X-74696Y-73208D01*
X-74627Y-73243D01*
X-74575Y-73261D01*
X-74557Y-73278D01*
X-74540D01*
X-74228Y-73434D01*
X-73967Y-73608D01*
X-73725Y-73781D01*
X-73517Y-73955D01*
X-73343Y-74111D01*
X-73222Y-74232D01*
X-73152Y-74319D01*
X-73117Y-74353D01*
X-72909Y-74614D01*
X-72736Y-74891D01*
X-72597Y-75152D01*
X-72476Y-75412D01*
X-72389Y-75620D01*
X-72319Y-75793D01*
X-72302Y-75863D01*
X-72285Y-75915D01*
X-72267Y-75932D01*
Y-75950D01*
X-72181Y-76297D01*
X-72111Y-76644D01*
X-72077Y-76973D01*
X-72042Y-77285D01*
X-72024Y-77546D01*
X-72007Y-77667D01*
Y-77754D01*
Y-77840D01*
Y-77893D01*
Y-77927D01*
Y-77945D01*
X-72024Y-78361D01*
X-72042Y-78743D01*
X-72094Y-79090D01*
X-72146Y-79402D01*
X-72181Y-79645D01*
X-72233Y-79836D01*
X-72250Y-79905D01*
Y-79957D01*
X-72267Y-79974D01*
Y-79992D01*
X-72372Y-80321D01*
X-72510Y-80616D01*
X-72632Y-80876D01*
X-72771Y-81102D01*
X-72892Y-81293D01*
X-72996Y-81432D01*
X-73065Y-81518D01*
X-73083Y-81553D01*
X-73308Y-81779D01*
X-73534Y-81969D01*
X-73759Y-82143D01*
X-73985Y-82282D01*
X-74158Y-82403D01*
X-74314Y-82472D01*
X-74419Y-82524D01*
X-74436Y-82542D01*
X-74453D01*
X-74783Y-82646D01*
X-75095Y-82733D01*
X-75425Y-82785D01*
X-75720Y-82837D01*
X-75980Y-82854D01*
X-76084D01*
X-76188Y-82872D01*
X-76362D01*
X-76778Y-82854D01*
X-77142Y-82819D01*
X-77489Y-82750D01*
X-77767Y-82681D01*
X-78010Y-82611D01*
X-78183Y-82542D01*
X-78253Y-82524D01*
X-78305Y-82507D01*
X-78322Y-82490D01*
X-78339D01*
X-78652Y-82334D01*
X-78929Y-82160D01*
X-79172Y-81987D01*
X-79380Y-81813D01*
X-79554Y-81657D01*
X-79675Y-81536D01*
X-79762Y-81449D01*
X-79779Y-81414D01*
X-79987Y-81137D01*
X-80161Y-80876D01*
X-80300Y-80599D01*
X-80421Y-80339D01*
X-80508Y-80131D01*
X-80577Y-79957D01*
X-80595Y-79888D01*
X-80612Y-79836D01*
X-80629Y-79818D01*
Y-79801D01*
X-80733Y-79436D01*
X-80803Y-79090D01*
X-80855Y-78760D01*
X-80890Y-78448D01*
X-80907Y-78170D01*
X-80924Y-78066D01*
Y-77962D01*
Y-77893D01*
Y-77840D01*
Y-77806D01*
Y-77789D01*
X-80907Y-77389D01*
X-80890Y-77008D01*
X-80837Y-76661D01*
X-80785Y-76366D01*
X-80733Y-76123D01*
X-80699Y-75932D01*
X-80681Y-75863D01*
X-80664Y-75811D01*
X-80647Y-75793D01*
Y-75776D01*
X-80525Y-75447D01*
X-80404Y-75152D01*
X-80265Y-74891D01*
X-80126Y-74666D01*
X-80005Y-74475D01*
X-79901Y-74353D01*
X-79831Y-74267D01*
X-79814Y-74232D01*
X-79606Y-74007D01*
X-79380Y-73798D01*
X-79137Y-73625D01*
X-78929Y-73486D01*
X-78738Y-73365D01*
X-78582Y-73295D01*
X-78478Y-73243D01*
X-78461Y-73226D01*
X-78443D01*
X-78131Y-73105D01*
X-77801Y-73018D01*
X-77489Y-72966D01*
X-77194Y-72914D01*
X-76934Y-72896D01*
X-76830D01*
X-76726Y-72879D01*
X-76552D01*
X-76136Y-72896D01*
D02*
G37*
%LPC*%
G36*
X-59967Y-78309D02*
X-61633D01*
Y-80131D01*
X-61407Y-80373D01*
X-61182Y-80564D01*
X-60974Y-80738D01*
X-60800Y-80894D01*
X-60644Y-80998D01*
X-60540Y-81067D01*
X-60471Y-81119D01*
X-60436Y-81137D01*
X-60228Y-81241D01*
X-60020Y-81327D01*
X-59811Y-81379D01*
X-59638Y-81432D01*
X-59482Y-81449D01*
X-59360Y-81466D01*
X-59256D01*
X-58961Y-81449D01*
X-58719Y-81414D01*
X-58510Y-81345D01*
X-58337Y-81276D01*
X-58198Y-81206D01*
X-58111Y-81137D01*
X-58042Y-81102D01*
X-58025Y-81085D01*
X-57886Y-80928D01*
X-57782Y-80738D01*
X-57712Y-80564D01*
X-57660Y-80391D01*
X-57625Y-80235D01*
X-57608Y-80113D01*
Y-80026D01*
Y-79992D01*
X-57625Y-79714D01*
X-57660Y-79593D01*
X-57678Y-79489D01*
X-57712Y-79419D01*
X-57730Y-79350D01*
X-57747Y-79315D01*
Y-79298D01*
X-57886Y-79090D01*
X-58042Y-78933D01*
X-58111Y-78864D01*
X-58163Y-78812D01*
X-58198Y-78795D01*
X-58215Y-78777D01*
X-58337Y-78691D01*
X-58476Y-78621D01*
X-58736Y-78517D01*
X-58857Y-78482D01*
X-58944Y-78448D01*
X-59013Y-78430D01*
X-59031D01*
X-59430Y-78361D01*
X-59621Y-78344D01*
X-59811Y-78326D01*
X-59967Y-78309D01*
D02*
G37*
G36*
X91586Y-74284D02*
X91257D01*
X91066Y-74319D01*
X90684Y-74405D01*
X90372Y-74527D01*
X90129Y-74648D01*
X89921Y-74787D01*
X89782Y-74909D01*
X89695Y-74995D01*
X89661Y-75013D01*
Y-75030D01*
X89452Y-75325D01*
X89296Y-75620D01*
X89192Y-75932D01*
X89123Y-76227D01*
X89088Y-76487D01*
X89071Y-76609D01*
X89053Y-76695D01*
Y-76782D01*
Y-76834D01*
Y-76869D01*
Y-76886D01*
X94050D01*
X94015Y-76609D01*
X93946Y-76331D01*
X93911Y-76210D01*
X93894Y-76123D01*
X93859Y-76054D01*
Y-76036D01*
X93790Y-75845D01*
X93703Y-75672D01*
X93633Y-75516D01*
X93547Y-75394D01*
X93477Y-75290D01*
X93425Y-75204D01*
X93391Y-75152D01*
X93373Y-75134D01*
X93113Y-74874D01*
X92974Y-74770D01*
X92853Y-74683D01*
X92749Y-74614D01*
X92645Y-74562D01*
X92592Y-74544D01*
X92575Y-74527D01*
X92402Y-74440D01*
X92211Y-74388D01*
X92020Y-74336D01*
X91847Y-74319D01*
X91708Y-74302D01*
X91586Y-74284D01*
D02*
G37*
G36*
X4290D02*
X3961D01*
X3770Y-74319D01*
X3388Y-74405D01*
X3076Y-74527D01*
X2833Y-74648D01*
X2625Y-74787D01*
X2486Y-74909D01*
X2399Y-74995D01*
X2365Y-75013D01*
Y-75030D01*
X2156Y-75325D01*
X2000Y-75620D01*
X1896Y-75932D01*
X1827Y-76227D01*
X1792Y-76487D01*
X1775Y-76609D01*
X1757Y-76695D01*
Y-76782D01*
Y-76834D01*
Y-76869D01*
Y-76886D01*
X6754D01*
X6719Y-76609D01*
X6650Y-76331D01*
X6615Y-76210D01*
X6597Y-76123D01*
X6563Y-76054D01*
Y-76036D01*
X6493Y-75845D01*
X6407Y-75672D01*
X6337Y-75516D01*
X6251Y-75394D01*
X6181Y-75290D01*
X6129Y-75204D01*
X6094Y-75152D01*
X6077Y-75134D01*
X5817Y-74874D01*
X5678Y-74770D01*
X5557Y-74683D01*
X5452Y-74614D01*
X5348Y-74562D01*
X5296Y-74544D01*
X5279Y-74527D01*
X5106Y-74440D01*
X4915Y-74388D01*
X4724Y-74336D01*
X4550Y-74319D01*
X4412Y-74302D01*
X4290Y-74284D01*
D02*
G37*
G36*
X-22825Y-74284D02*
X-23155D01*
X-23345Y-74319D01*
X-23727Y-74406D01*
X-24039Y-74527D01*
X-24282Y-74648D01*
X-24490Y-74787D01*
X-24629Y-74909D01*
X-24716Y-74995D01*
X-24751Y-75013D01*
Y-75030D01*
X-24959Y-75325D01*
X-25115Y-75620D01*
X-25219Y-75932D01*
X-25289Y-76227D01*
X-25323Y-76487D01*
X-25340Y-76609D01*
X-25358Y-76695D01*
Y-76782D01*
Y-76834D01*
Y-76869D01*
Y-76886D01*
X-20362D01*
X-20396Y-76609D01*
X-20466Y-76331D01*
X-20500Y-76210D01*
X-20518Y-76123D01*
X-20552Y-76054D01*
Y-76036D01*
X-20622Y-75845D01*
X-20709Y-75672D01*
X-20778Y-75516D01*
X-20865Y-75394D01*
X-20934Y-75290D01*
X-20986Y-75204D01*
X-21021Y-75152D01*
X-21038Y-75134D01*
X-21298Y-74874D01*
X-21437Y-74770D01*
X-21559Y-74683D01*
X-21663Y-74614D01*
X-21767Y-74562D01*
X-21819Y-74544D01*
X-21836Y-74527D01*
X-22010Y-74440D01*
X-22201Y-74388D01*
X-22391Y-74336D01*
X-22565Y-74319D01*
X-22704Y-74302D01*
X-22825Y-74284D01*
D02*
G37*
G36*
X-43209D02*
X-43539D01*
X-43730Y-74319D01*
X-44111Y-74406D01*
X-44424Y-74527D01*
X-44666Y-74648D01*
X-44875Y-74787D01*
X-45013Y-74909D01*
X-45100Y-74995D01*
X-45135Y-75013D01*
Y-75030D01*
X-45343Y-75325D01*
X-45499Y-75620D01*
X-45603Y-75932D01*
X-45673Y-76227D01*
X-45707Y-76487D01*
X-45725Y-76609D01*
X-45742Y-76695D01*
Y-76782D01*
Y-76834D01*
Y-76869D01*
Y-76886D01*
X-40746D01*
X-40780Y-76609D01*
X-40850Y-76331D01*
X-40884Y-76210D01*
X-40902Y-76123D01*
X-40937Y-76054D01*
Y-76036D01*
X-41006Y-75845D01*
X-41093Y-75672D01*
X-41162Y-75516D01*
X-41249Y-75394D01*
X-41318Y-75290D01*
X-41370Y-75204D01*
X-41405Y-75152D01*
X-41422Y-75134D01*
X-41683Y-74874D01*
X-41821Y-74770D01*
X-41943Y-74683D01*
X-42047Y-74614D01*
X-42151Y-74562D01*
X-42203Y-74544D01*
X-42220Y-74527D01*
X-42394Y-74440D01*
X-42585Y-74388D01*
X-42776Y-74336D01*
X-42949Y-74319D01*
X-43088Y-74302D01*
X-43209Y-74284D01*
D02*
G37*
G36*
X134731Y-71092D02*
X133153D01*
X132823Y-71109D01*
X132667Y-71127D01*
X132528D01*
X132407Y-71144D01*
X132320Y-71161D01*
X132250Y-71179D01*
X132233D01*
X132060Y-71213D01*
X131886Y-71266D01*
X131730Y-71318D01*
X131591Y-71370D01*
X131487Y-71422D01*
X131400Y-71474D01*
X131348Y-71491D01*
X131331Y-71508D01*
X131175Y-71613D01*
X131036Y-71734D01*
X130915Y-71855D01*
X130811Y-71977D01*
X130741Y-72098D01*
X130672Y-72185D01*
X130637Y-72254D01*
X130620Y-72272D01*
X130516Y-72480D01*
X130446Y-72688D01*
X130377Y-72914D01*
X130342Y-73104D01*
X130325Y-73278D01*
X130308Y-73434D01*
Y-73521D01*
Y-73538D01*
Y-73555D01*
Y-73764D01*
X130342Y-73972D01*
X130360Y-74163D01*
X130394Y-74319D01*
X130429Y-74458D01*
X130464Y-74562D01*
X130481Y-74631D01*
X130498Y-74648D01*
X130585Y-74822D01*
X130672Y-74978D01*
X130759Y-75117D01*
X130845Y-75238D01*
X130932Y-75342D01*
X131001Y-75412D01*
X131036Y-75464D01*
X131053Y-75481D01*
X131331Y-75707D01*
X131609Y-75863D01*
X131730Y-75915D01*
X131834Y-75967D01*
X131903Y-75984D01*
X131921Y-76002D01*
X132129Y-76071D01*
X132337Y-76106D01*
X132545Y-76140D01*
X132754Y-76175D01*
X132944D01*
X133083Y-76192D01*
X134731D01*
Y-71092D01*
D02*
G37*
G36*
X38848D02*
X37269D01*
X36939Y-71109D01*
X36783Y-71127D01*
X36645D01*
X36523Y-71144D01*
X36436Y-71161D01*
X36367Y-71179D01*
X36350D01*
X36176Y-71213D01*
X36003Y-71266D01*
X35847Y-71318D01*
X35708Y-71370D01*
X35604Y-71422D01*
X35517Y-71474D01*
X35465Y-71491D01*
X35448Y-71508D01*
X35291Y-71613D01*
X35153Y-71734D01*
X35031Y-71855D01*
X34927Y-71977D01*
X34858Y-72098D01*
X34788Y-72185D01*
X34754Y-72254D01*
X34736Y-72272D01*
X34632Y-72480D01*
X34563Y-72688D01*
X34493Y-72914D01*
X34459Y-73104D01*
X34441Y-73278D01*
X34424Y-73434D01*
Y-73521D01*
Y-73538D01*
Y-73555D01*
Y-73764D01*
X34459Y-73972D01*
X34476Y-74163D01*
X34511Y-74319D01*
X34545Y-74458D01*
X34580Y-74562D01*
X34597Y-74631D01*
X34615Y-74648D01*
X34702Y-74822D01*
X34788Y-74978D01*
X34875Y-75117D01*
X34962Y-75238D01*
X35048Y-75342D01*
X35118Y-75412D01*
X35153Y-75464D01*
X35170Y-75481D01*
X35448Y-75707D01*
X35725Y-75863D01*
X35847Y-75915D01*
X35951Y-75967D01*
X36020Y-75984D01*
X36037Y-76002D01*
X36246Y-76071D01*
X36454Y-76106D01*
X36662Y-76140D01*
X36870Y-76175D01*
X37061D01*
X37200Y-76192D01*
X38848D01*
Y-71092D01*
D02*
G37*
G36*
X109646Y-74302D02*
X109524D01*
X109229Y-74319D01*
X108987Y-74353D01*
X108744Y-74388D01*
X108553Y-74440D01*
X108397Y-74510D01*
X108293Y-74544D01*
X108206Y-74579D01*
X108189Y-74596D01*
X107998Y-74700D01*
X107824Y-74839D01*
X107685Y-74961D01*
X107564Y-75082D01*
X107460Y-75186D01*
X107390Y-75273D01*
X107356Y-75342D01*
X107338Y-75360D01*
X107130Y-75741D01*
X107061Y-75932D01*
X106992Y-76106D01*
X106939Y-76262D01*
X106905Y-76401D01*
X106887Y-76470D01*
Y-76505D01*
X106801Y-76990D01*
X106766Y-77233D01*
X106749Y-77442D01*
X106731Y-77632D01*
Y-77771D01*
Y-77858D01*
Y-77892D01*
Y-78170D01*
X106766Y-78448D01*
X106783Y-78691D01*
X106818Y-78899D01*
X106853Y-79090D01*
X106870Y-79211D01*
X106905Y-79298D01*
Y-79332D01*
X106974Y-79575D01*
X107061Y-79784D01*
X107148Y-79974D01*
X107234Y-80148D01*
X107304Y-80269D01*
X107373Y-80373D01*
X107408Y-80443D01*
X107425Y-80460D01*
X107564Y-80616D01*
X107703Y-80755D01*
X107842Y-80876D01*
X107980Y-80981D01*
X108102Y-81067D01*
X108206Y-81119D01*
X108275Y-81154D01*
X108293Y-81171D01*
X108501Y-81258D01*
X108726Y-81327D01*
X108934Y-81362D01*
X109143Y-81397D01*
X109316Y-81414D01*
X109455Y-81432D01*
X109576D01*
X109871Y-81414D01*
X110132Y-81397D01*
X110357Y-81345D01*
X110548Y-81293D01*
X110704Y-81258D01*
X110826Y-81206D01*
X110895Y-81189D01*
X110912Y-81171D01*
X111103Y-81050D01*
X111259Y-80928D01*
X111415Y-80807D01*
X111537Y-80686D01*
X111623Y-80582D01*
X111710Y-80495D01*
X111745Y-80425D01*
X111762Y-80408D01*
X111971Y-80026D01*
X112040Y-79836D01*
X112109Y-79645D01*
X112144Y-79489D01*
X112179Y-79367D01*
X112213Y-79298D01*
Y-79263D01*
X112300Y-78760D01*
X112317Y-78517D01*
X112335Y-78309D01*
X112352Y-78118D01*
Y-77962D01*
Y-77875D01*
Y-77840D01*
Y-77563D01*
X112335Y-77285D01*
X112300Y-77042D01*
X112265Y-76834D01*
X112248Y-76661D01*
X112213Y-76522D01*
X112196Y-76453D01*
Y-76418D01*
X112127Y-76192D01*
X112040Y-75967D01*
X111953Y-75776D01*
X111884Y-75620D01*
X111814Y-75481D01*
X111745Y-75394D01*
X111710Y-75325D01*
X111693Y-75308D01*
X111554Y-75134D01*
X111415Y-74995D01*
X111259Y-74874D01*
X111120Y-74770D01*
X110999Y-74683D01*
X110895Y-74631D01*
X110826Y-74596D01*
X110808Y-74579D01*
X110600Y-74492D01*
X110374Y-74423D01*
X110166Y-74371D01*
X109958Y-74336D01*
X109785Y-74319D01*
X109646Y-74302D01*
D02*
G37*
G36*
X72902D02*
X72781D01*
X72486Y-74319D01*
X72243Y-74353D01*
X72000Y-74388D01*
X71809Y-74440D01*
X71653Y-74510D01*
X71549Y-74544D01*
X71462Y-74579D01*
X71445Y-74596D01*
X71254Y-74700D01*
X71081Y-74839D01*
X70942Y-74961D01*
X70820Y-75082D01*
X70716Y-75186D01*
X70647Y-75273D01*
X70612Y-75342D01*
X70595Y-75360D01*
X70387Y-75741D01*
X70317Y-75932D01*
X70248Y-76106D01*
X70196Y-76262D01*
X70161Y-76401D01*
X70144Y-76470D01*
Y-76505D01*
X70057Y-76990D01*
X70023Y-77233D01*
X70005Y-77442D01*
X69988Y-77632D01*
Y-77771D01*
Y-77858D01*
Y-77892D01*
Y-78170D01*
X70023Y-78448D01*
X70040Y-78691D01*
X70075Y-78899D01*
X70109Y-79090D01*
X70127Y-79211D01*
X70161Y-79298D01*
Y-79332D01*
X70231Y-79575D01*
X70317Y-79784D01*
X70404Y-79974D01*
X70491Y-80148D01*
X70560Y-80269D01*
X70630Y-80373D01*
X70664Y-80443D01*
X70682Y-80460D01*
X70820Y-80616D01*
X70959Y-80755D01*
X71098Y-80876D01*
X71237Y-80981D01*
X71358Y-81067D01*
X71462Y-81119D01*
X71532Y-81154D01*
X71549Y-81171D01*
X71757Y-81258D01*
X71983Y-81327D01*
X72191Y-81362D01*
X72399Y-81397D01*
X72573Y-81414D01*
X72712Y-81432D01*
X72833D01*
X73128Y-81414D01*
X73388Y-81397D01*
X73614Y-81345D01*
X73804Y-81293D01*
X73961Y-81258D01*
X74082Y-81206D01*
X74151Y-81189D01*
X74169Y-81171D01*
X74360Y-81050D01*
X74516Y-80928D01*
X74672Y-80807D01*
X74793Y-80686D01*
X74880Y-80582D01*
X74967Y-80495D01*
X75002Y-80425D01*
X75019Y-80408D01*
X75227Y-80026D01*
X75296Y-79836D01*
X75366Y-79645D01*
X75401Y-79489D01*
X75435Y-79367D01*
X75470Y-79298D01*
Y-79263D01*
X75557Y-78760D01*
X75574Y-78517D01*
X75591Y-78309D01*
X75609Y-78118D01*
Y-77962D01*
Y-77875D01*
Y-77840D01*
Y-77563D01*
X75591Y-77285D01*
X75557Y-77042D01*
X75522Y-76834D01*
X75504Y-76661D01*
X75470Y-76522D01*
X75452Y-76453D01*
Y-76418D01*
X75383Y-76192D01*
X75296Y-75967D01*
X75210Y-75776D01*
X75140Y-75620D01*
X75071Y-75481D01*
X75002Y-75394D01*
X74967Y-75325D01*
X74949Y-75308D01*
X74811Y-75134D01*
X74672Y-74995D01*
X74516Y-74874D01*
X74377Y-74770D01*
X74255Y-74683D01*
X74151Y-74631D01*
X74082Y-74596D01*
X74065Y-74579D01*
X73857Y-74492D01*
X73631Y-74423D01*
X73423Y-74371D01*
X73215Y-74336D01*
X73041Y-74319D01*
X72902Y-74302D01*
D02*
G37*
G36*
X52449Y-74284D02*
X52345D01*
X52102Y-74302D01*
X51859Y-74353D01*
X51633Y-74423D01*
X51425Y-74510D01*
X51269Y-74596D01*
X51130Y-74666D01*
X51061Y-74718D01*
X51026Y-74735D01*
X50783Y-74926D01*
X50540Y-75117D01*
X50332Y-75325D01*
X50124Y-75533D01*
X49951Y-75707D01*
X49829Y-75845D01*
X49742Y-75950D01*
X49708Y-75967D01*
Y-75984D01*
Y-79714D01*
X49847Y-79888D01*
X50003Y-80044D01*
X50124Y-80183D01*
X50246Y-80304D01*
X50332Y-80408D01*
X50402Y-80477D01*
X50454Y-80529D01*
X50471Y-80547D01*
X50731Y-80772D01*
X50957Y-80946D01*
X51044Y-80998D01*
X51113Y-81050D01*
X51148Y-81067D01*
X51165Y-81085D01*
X51408Y-81223D01*
X51616Y-81310D01*
X51686Y-81345D01*
X51755Y-81362D01*
X51790Y-81379D01*
X51807D01*
X52032Y-81432D01*
X52223Y-81449D01*
X52293Y-81466D01*
X52414D01*
X52640Y-81449D01*
X52848Y-81414D01*
X53039Y-81379D01*
X53195Y-81327D01*
X53316Y-81275D01*
X53403Y-81223D01*
X53472Y-81206D01*
X53490Y-81189D01*
X53646Y-81067D01*
X53767Y-80946D01*
X53889Y-80807D01*
X53975Y-80686D01*
X54062Y-80564D01*
X54114Y-80477D01*
X54149Y-80408D01*
X54166Y-80391D01*
X54340Y-79992D01*
X54409Y-79784D01*
X54461Y-79593D01*
X54496Y-79436D01*
X54531Y-79315D01*
X54548Y-79228D01*
Y-79194D01*
X54600Y-78691D01*
X54635Y-78465D01*
Y-78239D01*
X54652Y-78066D01*
Y-77927D01*
Y-77840D01*
Y-77806D01*
Y-77563D01*
X54635Y-77320D01*
X54617Y-77094D01*
X54583Y-76904D01*
X54565Y-76730D01*
X54548Y-76609D01*
X54531Y-76539D01*
Y-76505D01*
X54479Y-76279D01*
X54409Y-76054D01*
X54340Y-75863D01*
X54270Y-75707D01*
X54201Y-75568D01*
X54166Y-75464D01*
X54132Y-75394D01*
X54114Y-75377D01*
X54010Y-75204D01*
X53889Y-75047D01*
X53767Y-74909D01*
X53646Y-74787D01*
X53559Y-74700D01*
X53472Y-74631D01*
X53420Y-74596D01*
X53403Y-74579D01*
X53229Y-74475D01*
X53056Y-74405D01*
X52882Y-74353D01*
X52709Y-74319D01*
X52570Y-74302D01*
X52449Y-74284D01*
D02*
G37*
G36*
X-76362Y-74302D02*
X-76483D01*
X-76778Y-74319D01*
X-77021Y-74353D01*
X-77264Y-74388D01*
X-77455Y-74440D01*
X-77611Y-74510D01*
X-77715Y-74544D01*
X-77801Y-74579D01*
X-77819Y-74596D01*
X-78010Y-74700D01*
X-78183Y-74839D01*
X-78322Y-74961D01*
X-78443Y-75082D01*
X-78548Y-75186D01*
X-78617Y-75273D01*
X-78652Y-75342D01*
X-78669Y-75360D01*
X-78877Y-75741D01*
X-78946Y-75932D01*
X-79016Y-76106D01*
X-79068Y-76262D01*
X-79103Y-76401D01*
X-79120Y-76470D01*
Y-76505D01*
X-79207Y-76990D01*
X-79241Y-77233D01*
X-79259Y-77442D01*
X-79276Y-77632D01*
Y-77771D01*
Y-77858D01*
Y-77893D01*
Y-78170D01*
X-79241Y-78448D01*
X-79224Y-78691D01*
X-79189Y-78899D01*
X-79155Y-79090D01*
X-79137Y-79211D01*
X-79103Y-79298D01*
Y-79332D01*
X-79033Y-79575D01*
X-78946Y-79784D01*
X-78860Y-79974D01*
X-78773Y-80148D01*
X-78704Y-80269D01*
X-78634Y-80373D01*
X-78600Y-80443D01*
X-78582Y-80460D01*
X-78443Y-80616D01*
X-78305Y-80755D01*
X-78166Y-80876D01*
X-78027Y-80981D01*
X-77906Y-81067D01*
X-77801Y-81119D01*
X-77732Y-81154D01*
X-77715Y-81171D01*
X-77507Y-81258D01*
X-77281Y-81327D01*
X-77073Y-81362D01*
X-76865Y-81397D01*
X-76691Y-81414D01*
X-76552Y-81432D01*
X-76431D01*
X-76136Y-81414D01*
X-75876Y-81397D01*
X-75650Y-81345D01*
X-75459Y-81293D01*
X-75303Y-81258D01*
X-75182Y-81206D01*
X-75113Y-81189D01*
X-75095Y-81171D01*
X-74904Y-81050D01*
X-74748Y-80928D01*
X-74592Y-80807D01*
X-74471Y-80686D01*
X-74384Y-80582D01*
X-74297Y-80495D01*
X-74262Y-80425D01*
X-74245Y-80408D01*
X-74037Y-80026D01*
X-73967Y-79836D01*
X-73898Y-79645D01*
X-73864Y-79489D01*
X-73829Y-79367D01*
X-73794Y-79298D01*
Y-79263D01*
X-73707Y-78760D01*
X-73690Y-78517D01*
X-73673Y-78309D01*
X-73655Y-78118D01*
Y-77962D01*
Y-77875D01*
Y-77840D01*
Y-77563D01*
X-73673Y-77285D01*
X-73707Y-77042D01*
X-73742Y-76834D01*
X-73759Y-76661D01*
X-73794Y-76522D01*
X-73811Y-76453D01*
Y-76418D01*
X-73881Y-76192D01*
X-73967Y-75967D01*
X-74054Y-75776D01*
X-74124Y-75620D01*
X-74193Y-75481D01*
X-74262Y-75394D01*
X-74297Y-75325D01*
X-74314Y-75308D01*
X-74453Y-75134D01*
X-74592Y-74995D01*
X-74748Y-74874D01*
X-74887Y-74770D01*
X-75008Y-74683D01*
X-75113Y-74631D01*
X-75182Y-74596D01*
X-75199Y-74579D01*
X-75407Y-74492D01*
X-75633Y-74423D01*
X-75841Y-74371D01*
X-76049Y-74336D01*
X-76223Y-74319D01*
X-76362Y-74302D01*
D02*
G37*
%LPD*%
D10*
X122014Y89382D02*
G03*
X121116Y91550I-3066J0D01*
G01*
X120744Y91178D02*
G03*
X119474Y88112I3066J-3066D01*
G01*
X115664Y85572D02*
G03*
X117832Y86470I0J3066D01*
G01*
X103862Y85200D02*
G03*
X102964Y83032I2168J-2168D01*
G01*
X137165Y44681D02*
G03*
X137289Y44980I-299J299D01*
G01*
X138933Y49042D02*
G03*
X137302Y45103I3939J-3939D01*
G01*
X138776Y48977D02*
G03*
X138933Y49042I0J223D01*
G01*
X135670Y48977D02*
G03*
X135828Y48912I158J158D01*
G01*
X137302Y45038D02*
G03*
X135670Y48977I-5570J0D01*
G01*
X137315Y44914D02*
G03*
X137438Y44616I422J0D01*
G01*
X138933Y76190D02*
G03*
X138776Y76255I-158J-158D01*
G01*
X137302Y80129D02*
G03*
X138933Y76190I5570J0D01*
G01*
X137289Y80253D02*
G03*
X137165Y80551I-422J0D01*
G01*
X135828Y76255D02*
G03*
X135670Y76190I0J-223D01*
G01*
D02*
G03*
X137302Y80129I-3939J3939D01*
G01*
X137438Y80551D02*
G03*
X137315Y80253I299J-299D01*
G01*
X126700Y39725D02*
G03*
X129566Y38538I2866J2866D01*
G01*
X125792Y41331D02*
G03*
X126286Y40139I1686J0D01*
G01*
X100434Y29049D02*
G03*
X96731Y37989I-12642J0D01*
G01*
D02*
G03*
X95355Y38559I-1375J-1375D01*
G01*
X129633Y38538D02*
X152029Y38565D01*
X122014Y89382D02*
X125824Y40686D01*
X120744Y91178D02*
X121116Y91550D01*
X117832Y86470D02*
X119474Y88112D01*
X104234Y85572D02*
X115664D01*
X103862Y85200D02*
X104234Y85572D01*
X100424Y28422D02*
X102964Y83032D01*
X52539Y38564D02*
X79649D01*
X97691Y80690D02*
X141125D01*
X97171Y44146D02*
X140605D01*
X137289Y44980D02*
Y77968D01*
X137302Y44409D02*
Y45103D01*
Y48977D02*
X138776D01*
X135828Y48912D02*
X137302D01*
Y44343D02*
Y45038D01*
Y76255D02*
X138776D01*
X137302Y80129D02*
Y80824D01*
X135828Y76255D02*
X137302D01*
Y80129D02*
Y80824D01*
X126286Y40139D02*
X126700Y39725D01*
X100434Y28542D02*
Y29049D01*
X79356Y38559D02*
X95355D01*
X88981Y78957D02*
X89386Y77743D01*
X90195Y76934D01*
X91409Y76529D01*
X91814D01*
X93028Y76934D01*
X93837Y77743D01*
X94242Y78957D01*
Y79362D01*
X93837Y80576D01*
X93028Y81385D01*
X91814Y81790D01*
X91409D01*
X90195Y81385D01*
X89386Y80576D01*
X88981Y78957D01*
Y76934D01*
X89386Y74910D01*
X90195Y73696D01*
X91409Y73292D01*
X92219D01*
X93433Y73696D01*
X93837Y74506D01*
X84247Y81790D02*
X85461Y81385D01*
X86270Y80171D01*
X86675Y78148D01*
Y76934D01*
X86270Y74910D01*
X85461Y73696D01*
X84247Y73292D01*
X83437D01*
X82223Y73696D01*
X81414Y74910D01*
X81009Y76934D01*
Y78148D01*
X81414Y80171D01*
X82223Y81385D01*
X83437Y81790D01*
X84247D01*
X71823D02*
X79107Y73292D01*
X77084Y81790D02*
X76274Y80980D01*
Y80171D01*
X76679Y79362D01*
X77488Y78957D01*
X78298D01*
X79107Y79766D01*
Y80576D01*
X78703Y81385D01*
X77893Y81790D01*
X77084D01*
X76274Y81385D01*
X75061Y80980D01*
X73847D01*
X72632Y81385D01*
X71823Y81790D01*
X73442Y76124D02*
X74251Y75720D01*
X74656Y74910D01*
Y74101D01*
X73847Y73292D01*
X73037D01*
X72228Y73696D01*
X71823Y74506D01*
Y75315D01*
X72632Y76124D01*
X73442D01*
X93570Y51025D02*
X92761Y51430D01*
X91547Y52644D01*
Y44146D01*
X84910Y52644D02*
X86124Y52239D01*
X86934Y51025D01*
X87338Y49002D01*
Y47788D01*
X86934Y45764D01*
X86124Y44550D01*
X84910Y44146D01*
X84101D01*
X82887Y44550D01*
X82078Y45764D01*
X81673Y47788D01*
Y49002D01*
X82078Y51025D01*
X82887Y52239D01*
X84101Y52644D01*
X84910D01*
X72487D02*
X79771Y44146D01*
X77748Y52644D02*
X76938Y51835D01*
Y51025D01*
X77343Y50216D01*
X78152Y49811D01*
X78962D01*
X79771Y50620D01*
Y51430D01*
X79366Y52239D01*
X78557Y52644D01*
X77748D01*
X76938Y52239D01*
X75724Y51835D01*
X74510D01*
X73296Y52239D01*
X72487Y52644D01*
X74105Y46978D02*
X74915Y46574D01*
X75319Y45764D01*
Y44955D01*
X74510Y44146D01*
X73701D01*
X72891Y44550D01*
X72487Y45360D01*
Y46169D01*
X73296Y46978D01*
X74105D01*
X154762Y73998D02*
Y67119D01*
X154357Y65905D01*
X153548Y65500D01*
X152739D01*
X155976Y71165D02*
X153143D01*
X149726Y67665D02*
Y62000D01*
Y65237D02*
X149321Y66451D01*
X148512Y67261D01*
X147703Y67665D01*
X146489D01*
M02*
