G04*
G04 #@! TF.GenerationSoftware,Altium Limited,Altium Designer,25.5.2 (35)*
G04*
G04 Layer_Color=16711935*
%FSLAX44Y44*%
%MOMM*%
G71*
G04*
G04 #@! TF.SameCoordinates,00F6E810-AA7A-4341-8B08-2EECE1974EB2*
G04*
G04*
G04 #@! TF.FilePolarity,Negative*
G04*
G01*
G75*
%ADD20C,3.0000*%
%ADD22R,79.6000X1.9750*%
G04:AMPARAMS|DCode=28|XSize=0.87mm|YSize=1.14mm|CornerRadius=0.165mm|HoleSize=0mm|Usage=FLASHONLY|Rotation=90.000|XOffset=0mm|YOffset=0mm|HoleType=Round|Shape=RoundedRectangle|*
%AMROUNDEDRECTD28*
21,1,0.8700,0.8100,0,0,90.0*
21,1,0.5400,1.1400,0,0,90.0*
1,1,0.3300,0.4050,0.2700*
1,1,0.3300,0.4050,-0.2700*
1,1,0.3300,-0.4050,-0.2700*
1,1,0.3300,-0.4050,0.2700*
%
%ADD28ROUNDEDRECTD28*%
G04:AMPARAMS|DCode=31|XSize=1.55mm|YSize=1.2mm|CornerRadius=0.2063mm|HoleSize=0mm|Usage=FLASHONLY|Rotation=90.000|XOffset=0mm|YOffset=0mm|HoleType=Round|Shape=RoundedRectangle|*
%AMROUNDEDRECTD31*
21,1,1.5500,0.7875,0,0,90.0*
21,1,1.1375,1.2000,0,0,90.0*
1,1,0.4125,0.3938,0.5688*
1,1,0.4125,0.3938,-0.5688*
1,1,0.4125,-0.3938,-0.5688*
1,1,0.4125,-0.3938,0.5688*
%
%ADD31ROUNDEDRECTD31*%
G04:AMPARAMS|DCode=32|XSize=0.87mm|YSize=1.14mm|CornerRadius=0.165mm|HoleSize=0mm|Usage=FLASHONLY|Rotation=0.000|XOffset=0mm|YOffset=0mm|HoleType=Round|Shape=RoundedRectangle|*
%AMROUNDEDRECTD32*
21,1,0.8700,0.8100,0,0,0.0*
21,1,0.5400,1.1400,0,0,0.0*
1,1,0.3300,0.2700,-0.4050*
1,1,0.3300,-0.2700,-0.4050*
1,1,0.3300,-0.2700,0.4050*
1,1,0.3300,0.2700,0.4050*
%
%ADD32ROUNDEDRECTD32*%
%ADD34C,2.8000*%
%ADD35C,1.7032*%
%ADD36C,6.3000*%
G04:AMPARAMS|DCode=37|XSize=0.9mm|YSize=1.7mm|CornerRadius=0.45mm|HoleSize=0mm|Usage=FLASHONLY|Rotation=270.000|XOffset=0mm|YOffset=0mm|HoleType=Round|Shape=RoundedRectangle|*
%AMROUNDEDRECTD37*
21,1,0.9000,0.8000,0,0,270.0*
21,1,0.0000,1.7000,0,0,270.0*
1,1,0.9000,-0.4000,0.0000*
1,1,0.9000,-0.4000,0.0000*
1,1,0.9000,0.4000,0.0000*
1,1,0.9000,0.4000,0.0000*
%
%ADD37ROUNDEDRECTD37*%
G04:AMPARAMS|DCode=38|XSize=0.9mm|YSize=2.4mm|CornerRadius=0.45mm|HoleSize=0mm|Usage=FLASHONLY|Rotation=270.000|XOffset=0mm|YOffset=0mm|HoleType=Round|Shape=RoundedRectangle|*
%AMROUNDEDRECTD38*
21,1,0.9000,1.5000,0,0,270.0*
21,1,0.0000,2.4000,0,0,270.0*
1,1,0.9000,-0.7500,0.0000*
1,1,0.9000,-0.7500,0.0000*
1,1,0.9000,0.7500,0.0000*
1,1,0.9000,0.7500,0.0000*
%
%ADD38ROUNDEDRECTD38*%
%ADD39C,0.6500*%
G04:AMPARAMS|DCode=53|XSize=1.3mm|YSize=2.8mm|CornerRadius=0.1mm|HoleSize=0mm|Usage=FLASHONLY|Rotation=270.000|XOffset=0mm|YOffset=0mm|HoleType=Round|Shape=RoundedRectangle|*
%AMROUNDEDRECTD53*
21,1,1.3000,2.6000,0,0,270.0*
21,1,1.1000,2.8000,0,0,270.0*
1,1,0.2000,-1.3000,-0.5500*
1,1,0.2000,-1.3000,0.5500*
1,1,0.2000,1.3000,0.5500*
1,1,0.2000,1.3000,-0.5500*
%
%ADD53ROUNDEDRECTD53*%
G04:AMPARAMS|DCode=54|XSize=2.85mm|YSize=1.25mm|CornerRadius=0.2125mm|HoleSize=0mm|Usage=FLASHONLY|Rotation=0.000|XOffset=0mm|YOffset=0mm|HoleType=Round|Shape=RoundedRectangle|*
%AMROUNDEDRECTD54*
21,1,2.8500,0.8250,0,0,0.0*
21,1,2.4250,1.2500,0,0,0.0*
1,1,0.4250,1.2125,-0.4125*
1,1,0.4250,-1.2125,-0.4125*
1,1,0.4250,-1.2125,0.4125*
1,1,0.4250,1.2125,0.4125*
%
%ADD54ROUNDEDRECTD54*%
G04:AMPARAMS|DCode=55|XSize=2.14mm|YSize=2.14mm|CornerRadius=0.27mm|HoleSize=0mm|Usage=FLASHONLY|Rotation=0.000|XOffset=0mm|YOffset=0mm|HoleType=Round|Shape=RoundedRectangle|*
%AMROUNDEDRECTD55*
21,1,2.1400,1.6000,0,0,0.0*
21,1,1.6000,2.1400,0,0,0.0*
1,1,0.5400,0.8000,-0.8000*
1,1,0.5400,-0.8000,-0.8000*
1,1,0.5400,-0.8000,0.8000*
1,1,0.5400,0.8000,0.8000*
%
%ADD55ROUNDEDRECTD55*%
G04:AMPARAMS|DCode=56|XSize=1.2mm|YSize=0.7mm|CornerRadius=0.1438mm|HoleSize=0mm|Usage=FLASHONLY|Rotation=90.000|XOffset=0mm|YOffset=0mm|HoleType=Round|Shape=RoundedRectangle|*
%AMROUNDEDRECTD56*
21,1,1.2000,0.4125,0,0,90.0*
21,1,0.9125,0.7000,0,0,90.0*
1,1,0.2875,0.2063,0.4563*
1,1,0.2875,0.2063,-0.4563*
1,1,0.2875,-0.2063,-0.4563*
1,1,0.2875,-0.2063,0.4563*
%
%ADD56ROUNDEDRECTD56*%
D20*
X233001Y1D02*
G03*
X233001Y1I-29000J0D01*
G01*
D22*
X-0Y-183125D02*
D03*
Y183125D02*
D03*
D28*
X-333250Y57600D02*
D03*
Y71400D02*
D03*
X-375742Y130964D02*
D03*
Y144764D02*
D03*
X-317750Y99650D02*
D03*
Y85850D02*
D03*
X-317750Y57600D02*
D03*
X-317750Y71400D02*
D03*
X-317778Y25449D02*
D03*
Y39249D02*
D03*
D31*
X-335750Y128299D02*
D03*
X-316750D02*
D03*
X-335750Y148349D02*
D03*
X-316750Y148349D02*
D03*
X-275278Y148349D02*
D03*
X-294278D02*
D03*
X-275335Y128299D02*
D03*
X-294335Y128299D02*
D03*
D32*
X-312350Y164500D02*
D03*
X-326250Y164500D02*
D03*
D34*
X365249Y-38001D02*
D03*
Y37999D02*
D03*
D35*
X-352000Y108700D02*
D03*
Y83300D02*
D03*
D36*
X204000Y0D02*
D03*
D37*
X-388350Y43250D02*
D03*
Y-43250D02*
D03*
D38*
X-354550Y43250D02*
D03*
Y-43250D02*
D03*
D39*
X-344750Y29750D02*
D03*
Y21250D02*
D03*
Y12750D02*
D03*
Y4250D02*
D03*
Y-4250D02*
D03*
Y-12750D02*
D03*
Y-21250D02*
D03*
Y-29750D02*
D03*
X-358250D02*
D03*
Y-21250D02*
D03*
Y-12750D02*
D03*
Y-4250D02*
D03*
Y4250D02*
D03*
Y12750D02*
D03*
Y21250D02*
D03*
Y29750D02*
D03*
D53*
X-246000Y108250D02*
D03*
Y86250D02*
D03*
D54*
X-291778Y52349D02*
D03*
X-291778Y22349D02*
D03*
X-187778Y5349D02*
D03*
Y35349D02*
D03*
X-291778Y-28651D02*
D03*
Y1349D02*
D03*
X-187778Y-62651D02*
D03*
Y-32651D02*
D03*
X-291778Y-96651D02*
D03*
Y-66651D02*
D03*
D55*
X-262278Y-30651D02*
D03*
X-217278Y-30651D02*
D03*
X-262278Y37437D02*
D03*
X-217278Y37437D02*
D03*
X-217278Y3349D02*
D03*
X-262278Y3349D02*
D03*
X-217278Y-64651D02*
D03*
X-262278Y-64651D02*
D03*
X-262278Y-98651D02*
D03*
X-217278Y-98651D02*
D03*
D56*
X-275278Y109707D02*
D03*
X-294278D02*
D03*
X-294278Y84707D02*
D03*
X-284778Y84707D02*
D03*
X-275278Y84707D02*
D03*
M02*
