G04*
G04 #@! TF.GenerationSoftware,Altium Limited,Altium Designer,25.5.2 (35)*
G04*
G04 Layer_Physical_Order=1*
G04 Layer_Color=255*
%FSLAX44Y44*%
%MOMM*%
G71*
G04*
G04 #@! TF.SameCoordinates,00F6E810-AA7A-4341-8B08-2EECE1974EB2*
G04*
G04*
G04 #@! TF.FilePolarity,Positive*
G04*
G01*
G75*
G04:AMPARAMS|DCode=12|XSize=1.2mm|YSize=1.2mm|CornerRadius=0.05mm|HoleSize=0mm|Usage=FLASHONLY|Rotation=90.000|XOffset=0mm|YOffset=0mm|HoleType=Round|Shape=RoundedRectangle|*
%AMROUNDEDRECTD12*
21,1,1.2000,1.1000,0,0,90.0*
21,1,1.1000,1.2000,0,0,90.0*
1,1,0.1000,0.5500,0.5500*
1,1,0.1000,0.5500,-0.5500*
1,1,0.1000,-0.5500,-0.5500*
1,1,0.1000,-0.5500,0.5500*
%
%ADD12ROUNDEDRECTD12*%
G04:AMPARAMS|DCode=13|XSize=1.6mm|YSize=1.5mm|CornerRadius=0.05mm|HoleSize=0mm|Usage=FLASHONLY|Rotation=0.000|XOffset=0mm|YOffset=0mm|HoleType=Round|Shape=RoundedRectangle|*
%AMROUNDEDRECTD13*
21,1,1.6000,1.4000,0,0,0.0*
21,1,1.5000,1.5000,0,0,0.0*
1,1,0.1000,0.7500,-0.7000*
1,1,0.1000,-0.7500,-0.7000*
1,1,0.1000,-0.7500,0.7000*
1,1,0.1000,0.7500,0.7000*
%
%ADD13ROUNDEDRECTD13*%
G04:AMPARAMS|DCode=14|XSize=0.72mm|YSize=0.99mm|CornerRadius=0.09mm|HoleSize=0mm|Usage=FLASHONLY|Rotation=90.000|XOffset=0mm|YOffset=0mm|HoleType=Round|Shape=RoundedRectangle|*
%AMROUNDEDRECTD14*
21,1,0.7200,0.8100,0,0,90.0*
21,1,0.5400,0.9900,0,0,90.0*
1,1,0.1800,0.4050,0.2700*
1,1,0.1800,0.4050,-0.2700*
1,1,0.1800,-0.4050,-0.2700*
1,1,0.1800,-0.4050,0.2700*
%
%ADD14ROUNDEDRECTD14*%
G04:AMPARAMS|DCode=15|XSize=2.54mm|YSize=1.524mm|CornerRadius=0.1905mm|HoleSize=0mm|Usage=FLASHONLY|Rotation=270.000|XOffset=0mm|YOffset=0mm|HoleType=Round|Shape=RoundedRectangle|*
%AMROUNDEDRECTD15*
21,1,2.5400,1.1430,0,0,270.0*
21,1,2.1590,1.5240,0,0,270.0*
1,1,0.3810,-0.5715,-1.0795*
1,1,0.3810,-0.5715,1.0795*
1,1,0.3810,0.5715,1.0795*
1,1,0.3810,0.5715,-1.0795*
%
%ADD15ROUNDEDRECTD15*%
G04:AMPARAMS|DCode=16|XSize=1.524mm|YSize=1.524mm|CornerRadius=0.1905mm|HoleSize=0mm|Usage=FLASHONLY|Rotation=180.000|XOffset=0mm|YOffset=0mm|HoleType=Round|Shape=RoundedRectangle|*
%AMROUNDEDRECTD16*
21,1,1.5240,1.1430,0,0,180.0*
21,1,1.1430,1.5240,0,0,180.0*
1,1,0.3810,-0.5715,0.5715*
1,1,0.3810,0.5715,0.5715*
1,1,0.3810,0.5715,-0.5715*
1,1,0.3810,-0.5715,-0.5715*
%
%ADD16ROUNDEDRECTD16*%
G04:AMPARAMS|DCode=17|XSize=1.4mm|YSize=1.05mm|CornerRadius=0.1313mm|HoleSize=0mm|Usage=FLASHONLY|Rotation=90.000|XOffset=0mm|YOffset=0mm|HoleType=Round|Shape=RoundedRectangle|*
%AMROUNDEDRECTD17*
21,1,1.4000,0.7875,0,0,90.0*
21,1,1.1375,1.0500,0,0,90.0*
1,1,0.2625,0.3938,0.5688*
1,1,0.2625,0.3938,-0.5688*
1,1,0.2625,-0.3938,-0.5688*
1,1,0.2625,-0.3938,0.5688*
%
%ADD17ROUNDEDRECTD17*%
G04:AMPARAMS|DCode=18|XSize=0.72mm|YSize=0.99mm|CornerRadius=0.09mm|HoleSize=0mm|Usage=FLASHONLY|Rotation=0.000|XOffset=0mm|YOffset=0mm|HoleType=Round|Shape=RoundedRectangle|*
%AMROUNDEDRECTD18*
21,1,0.7200,0.8100,0,0,0.0*
21,1,0.5400,0.9900,0,0,0.0*
1,1,0.1800,0.2700,-0.4050*
1,1,0.1800,-0.2700,-0.4050*
1,1,0.1800,-0.2700,0.4050*
1,1,0.1800,0.2700,0.4050*
%
%ADD18ROUNDEDRECTD18*%
G04:AMPARAMS|DCode=37|XSize=0.9mm|YSize=1.7mm|CornerRadius=0.45mm|HoleSize=0mm|Usage=FLASHONLY|Rotation=270.000|XOffset=0mm|YOffset=0mm|HoleType=Round|Shape=RoundedRectangle|*
%AMROUNDEDRECTD37*
21,1,0.9000,0.8000,0,0,270.0*
21,1,0.0000,1.7000,0,0,270.0*
1,1,0.9000,-0.4000,0.0000*
1,1,0.9000,-0.4000,0.0000*
1,1,0.9000,0.4000,0.0000*
1,1,0.9000,0.4000,0.0000*
%
%ADD37ROUNDEDRECTD37*%
G04:AMPARAMS|DCode=38|XSize=0.9mm|YSize=2.4mm|CornerRadius=0.45mm|HoleSize=0mm|Usage=FLASHONLY|Rotation=270.000|XOffset=0mm|YOffset=0mm|HoleType=Round|Shape=RoundedRectangle|*
%AMROUNDEDRECTD38*
21,1,0.9000,1.5000,0,0,270.0*
21,1,0.0000,2.4000,0,0,270.0*
1,1,0.9000,-0.7500,0.0000*
1,1,0.9000,-0.7500,0.0000*
1,1,0.9000,0.7500,0.0000*
1,1,0.9000,0.7500,0.0000*
%
%ADD38ROUNDEDRECTD38*%
%ADD39C,0.6500*%
%ADD40C,0.3600*%
%ADD41C,2.5000*%
%ADD42C,0.3261*%
%ADD43C,0.2540*%
%ADD44C,0.6350*%
%ADD45C,1.5000*%
%ADD46C,6.0000*%
%ADD47C,0.4500*%
%ADD48C,0.8890*%
G36*
X395956Y113250D02*
X396131Y112373D01*
X396628Y111628D01*
X397372Y111131D01*
X398250Y110956D01*
X409956D01*
Y-110956D01*
X398250D01*
X397372Y-111131D01*
X396628Y-111628D01*
X396131Y-112372D01*
X395956Y-113250D01*
Y-190956D01*
X-395956D01*
Y-113250D01*
X-396131Y-112372D01*
X-396628Y-111628D01*
X-397372Y-111131D01*
X-398250Y-110956D01*
X-409956D01*
Y110956D01*
X-398250D01*
X-397372Y111131D01*
X-396628Y111628D01*
X-396131Y112373D01*
X-395956Y113250D01*
Y190956D01*
X395956D01*
Y113250D01*
D02*
G37*
%LPC*%
G36*
X-350749Y118200D02*
X-353251D01*
X-355667Y117552D01*
X-357833Y116302D01*
X-359602Y114533D01*
X-360853Y112367D01*
X-361500Y109951D01*
Y107449D01*
X-360853Y105033D01*
X-359602Y102867D01*
X-357833Y101098D01*
X-355667Y99847D01*
X-353251Y99200D01*
X-350749D01*
X-348333Y99847D01*
X-346167Y101098D01*
X-344398Y102867D01*
X-343147Y105033D01*
X-342500Y107449D01*
Y109951D01*
X-343147Y112367D01*
X-344398Y114533D01*
X-346167Y116302D01*
X-348333Y117552D01*
X-350749Y118200D01*
D02*
G37*
G36*
X-310012Y87256D02*
X-321012D01*
X-321988Y87062D01*
X-322815Y86509D01*
X-323367Y85682D01*
X-323561Y84707D01*
Y83059D01*
X-330574D01*
X-330843Y83328D01*
X-332405Y83975D01*
X-334095D01*
X-335657Y83328D01*
X-336853Y82132D01*
X-337500Y80570D01*
Y78880D01*
X-336853Y77318D01*
X-335657Y76122D01*
X-334095Y75475D01*
X-332405D01*
X-330843Y76122D01*
X-330574Y76391D01*
X-323561D01*
Y73707D01*
X-323367Y72731D01*
X-322815Y71905D01*
X-321988Y71352D01*
X-321012Y71158D01*
X-310012D01*
X-309037Y71352D01*
X-308210Y71905D01*
X-307658Y72731D01*
X-307463Y73707D01*
Y84707D01*
X-307658Y85682D01*
X-308210Y86509D01*
X-309037Y87062D01*
X-310012Y87256D01*
D02*
G37*
G36*
X-298012Y121256D02*
X-313012D01*
X-313988Y121062D01*
X-314815Y120509D01*
X-315367Y119682D01*
X-315561Y118707D01*
Y104707D01*
X-315367Y103731D01*
X-314815Y102905D01*
X-313988Y102352D01*
X-313012Y102158D01*
X-308846D01*
Y100691D01*
X-308593Y99416D01*
X-307870Y98334D01*
X-299332Y89796D01*
X-300019Y87256D01*
X-301012D01*
X-301988Y87062D01*
X-302815Y86509D01*
X-303367Y85682D01*
X-303561Y84707D01*
Y73707D01*
X-303367Y72732D01*
X-303594Y70951D01*
X-304368Y70005D01*
X-304815Y69557D01*
X-305462Y67995D01*
Y66305D01*
X-304815Y64743D01*
X-303619Y63547D01*
X-302057Y62900D01*
X-300366D01*
X-298804Y63547D01*
X-298160Y64191D01*
X-297000D01*
X-295724Y64445D01*
X-294643Y65167D01*
X-293155Y66655D01*
X-292432Y67737D01*
X-292178Y69013D01*
Y71158D01*
X-290012D01*
X-289037Y71352D01*
X-288210Y71905D01*
X-287658Y72732D01*
X-287463Y73707D01*
Y84707D01*
X-287658Y85682D01*
X-288210Y86509D01*
X-289037Y87062D01*
X-290012Y87256D01*
X-292178D01*
Y90691D01*
X-292432Y91967D01*
X-293155Y93049D01*
X-299724Y99618D01*
X-298672Y102158D01*
X-298012D01*
X-297037Y102352D01*
X-296210Y102905D01*
X-295658Y103731D01*
X-295463Y104707D01*
Y118707D01*
X-295658Y119682D01*
X-296210Y120509D01*
X-297037Y121062D01*
X-298012Y121256D01*
D02*
G37*
G36*
X-340400Y67007D02*
X-345800D01*
X-346931Y66782D01*
X-347891Y66141D01*
X-348532Y65181D01*
X-348757Y64050D01*
Y55950D01*
X-348532Y54819D01*
X-347891Y53859D01*
X-346931Y53218D01*
X-345800Y52993D01*
X-342158D01*
X-336584Y47419D01*
Y21511D01*
X-336960Y21287D01*
X-338913Y22062D01*
X-339646Y22646D01*
X-340299Y24224D01*
X-341776Y25701D01*
X-343706Y26500D01*
X-345794D01*
X-347724Y25701D01*
X-349201Y24224D01*
X-350000Y22294D01*
Y20206D01*
X-349201Y18276D01*
X-347925Y17000D01*
X-349201Y15724D01*
X-350000Y13794D01*
Y11706D01*
X-349201Y9776D01*
X-347925Y8500D01*
X-349201Y7224D01*
X-350000Y5294D01*
Y3206D01*
X-349201Y1276D01*
X-347925Y0D01*
X-349201Y-1276D01*
X-350000Y-3206D01*
Y-5294D01*
X-349201Y-7224D01*
X-347925Y-8500D01*
X-349201Y-9776D01*
X-350000Y-11706D01*
Y-13794D01*
X-349201Y-15724D01*
X-347925Y-17000D01*
X-349201Y-18276D01*
X-350000Y-20206D01*
Y-22294D01*
X-349201Y-24224D01*
X-347724Y-25701D01*
X-345794Y-26500D01*
X-343706D01*
X-341776Y-25701D01*
X-340299Y-24224D01*
X-339500Y-22294D01*
Y-20206D01*
X-340299Y-18276D01*
X-341575Y-17000D01*
X-340299Y-15724D01*
X-339500Y-13794D01*
Y-11706D01*
X-340299Y-9776D01*
X-341575Y-8500D01*
X-340299Y-7224D01*
X-339500Y-5294D01*
Y-3206D01*
X-340299Y-1276D01*
X-341575Y0D01*
X-340299Y1276D01*
X-339500Y3206D01*
Y5294D01*
X-340155Y6876D01*
X-339593Y8330D01*
X-338899Y9416D01*
X-338776D01*
X-337500Y9670D01*
X-336419Y10393D01*
X-330892Y15919D01*
X-330170Y17000D01*
X-329916Y18276D01*
Y48800D01*
X-330170Y50076D01*
X-330892Y51158D01*
X-337443Y57708D01*
Y64050D01*
X-337668Y65181D01*
X-338309Y66141D01*
X-339268Y66782D01*
X-340400Y67007D01*
D02*
G37*
G36*
X-357206Y26500D02*
X-359294D01*
X-361224Y25701D01*
X-362701Y24224D01*
X-363500Y22294D01*
Y20206D01*
X-362701Y18276D01*
X-361425Y17000D01*
X-362701Y15724D01*
X-363500Y13794D01*
Y11706D01*
X-362701Y9776D01*
X-361425Y8500D01*
X-362701Y7224D01*
X-363500Y5294D01*
Y3206D01*
X-362701Y1276D01*
X-361425Y0D01*
X-362701Y-1276D01*
X-363500Y-3206D01*
Y-5294D01*
X-362747Y-7112D01*
X-362730Y-7326D01*
X-363480Y-9959D01*
X-364128Y-10393D01*
X-374178Y-20442D01*
X-374900Y-21523D01*
X-375154Y-22799D01*
Y-52490D01*
X-374900Y-53766D01*
X-374178Y-54848D01*
X-366668Y-62358D01*
X-365586Y-63080D01*
X-364310Y-63334D01*
X-362557D01*
Y-64050D01*
X-362332Y-65181D01*
X-361691Y-66141D01*
X-360732Y-66782D01*
X-359600Y-67007D01*
X-354200D01*
X-353069Y-66782D01*
X-352109Y-66141D01*
X-351468Y-65181D01*
X-351243Y-64050D01*
Y-55950D01*
X-351468Y-54819D01*
X-352109Y-53859D01*
X-353069Y-53218D01*
X-354200Y-52993D01*
X-359600D01*
X-360732Y-53218D01*
X-361691Y-53859D01*
X-361872Y-54131D01*
X-364216Y-54730D01*
X-364897Y-54697D01*
X-368486Y-51109D01*
Y-24180D01*
X-366040Y-21734D01*
X-364782Y-22012D01*
X-363356Y-22642D01*
X-362701Y-24224D01*
X-361224Y-25701D01*
X-359294Y-26500D01*
X-357206D01*
X-355276Y-25701D01*
X-353799Y-24224D01*
X-353000Y-22294D01*
Y-20206D01*
X-353799Y-18276D01*
X-355075Y-17000D01*
X-353799Y-15724D01*
X-353000Y-13794D01*
Y-11706D01*
X-353799Y-9776D01*
X-355075Y-8500D01*
X-353799Y-7224D01*
X-353000Y-5294D01*
Y-3206D01*
X-353799Y-1276D01*
X-355075Y0D01*
X-353799Y1276D01*
X-353000Y3206D01*
Y5294D01*
X-353799Y7224D01*
X-355075Y8500D01*
X-353799Y9776D01*
X-353000Y11706D01*
Y13794D01*
X-353799Y15724D01*
X-355075Y17000D01*
X-353799Y18276D01*
X-353000Y20206D01*
Y22294D01*
X-353799Y24224D01*
X-355276Y25701D01*
X-357206Y26500D01*
D02*
G37*
G36*
X122921Y154221D02*
X119219Y153734D01*
X115769Y152305D01*
X112807Y150032D01*
X110533Y147069D01*
X109104Y143619D01*
X108617Y139917D01*
X108626D01*
Y-139920D01*
X108638Y-139981D01*
X108470Y-140826D01*
X107927Y-141638D01*
X107115Y-142181D01*
X106244Y-142354D01*
X106157Y-142336D01*
X106070Y-142354D01*
X105199Y-142181D01*
X104387Y-141638D01*
X103845Y-140826D01*
X103677Y-139981D01*
X103689Y-139920D01*
Y139917D01*
X103698D01*
X103210Y143619D01*
X101781Y147069D01*
X99508Y150032D01*
X96545Y152305D01*
X93095Y153734D01*
X89393Y154221D01*
X85691Y153734D01*
X82241Y152305D01*
X79278Y150032D01*
X77005Y147069D01*
X75576Y143619D01*
X75089Y139917D01*
X75098D01*
Y-139920D01*
X75110Y-139981D01*
X74942Y-140826D01*
X74399Y-141638D01*
X73587Y-142181D01*
X72716Y-142354D01*
X72629Y-142336D01*
X72542Y-142354D01*
X71671Y-142181D01*
X70859Y-141638D01*
X70317Y-140826D01*
X70149Y-139981D01*
X70161Y-139920D01*
Y139917D01*
X70170D01*
X69682Y143619D01*
X68253Y147069D01*
X65980Y150032D01*
X63017Y152305D01*
X59567Y153734D01*
X55865Y154221D01*
X52163Y153734D01*
X48713Y152305D01*
X45750Y150032D01*
X43477Y147069D01*
X42048Y143619D01*
X41561Y139917D01*
X41570D01*
Y-139920D01*
X41582Y-139981D01*
X41414Y-140826D01*
X40871Y-141638D01*
X40059Y-142181D01*
X39188Y-142354D01*
X39101Y-142336D01*
X39014Y-142354D01*
X38143Y-142181D01*
X37331Y-141638D01*
X36789Y-140826D01*
X36621Y-139981D01*
X36633Y-139920D01*
Y139917D01*
X36642D01*
X36154Y143619D01*
X34725Y147069D01*
X32452Y150032D01*
X29489Y152305D01*
X26039Y153734D01*
X22337Y154221D01*
X18635Y153734D01*
X15185Y152305D01*
X12222Y150032D01*
X9949Y147069D01*
X8520Y143619D01*
X8033Y139917D01*
X8042D01*
Y-139920D01*
X8054Y-139981D01*
X7886Y-140826D01*
X7343Y-141638D01*
X6531Y-142181D01*
X5660Y-142354D01*
X5573Y-142336D01*
X5486Y-142354D01*
X4615Y-142181D01*
X3803Y-141638D01*
X3261Y-140826D01*
X3093Y-139981D01*
X3105Y-139920D01*
Y139917D01*
X3114D01*
X2626Y143619D01*
X1197Y147069D01*
X-1076Y150032D01*
X-4039Y152305D01*
X-7489Y153734D01*
X-11191Y154221D01*
X-14893Y153734D01*
X-18343Y152305D01*
X-21305Y150032D01*
X-23579Y147069D01*
X-25008Y143619D01*
X-25495Y139917D01*
X-25486D01*
Y-139920D01*
X-25474Y-139981D01*
X-25642Y-140826D01*
X-26185Y-141638D01*
X-26997Y-142181D01*
X-27868Y-142354D01*
X-27955Y-142336D01*
X-28042Y-142354D01*
X-28913Y-142181D01*
X-29725Y-141638D01*
X-30267Y-140826D01*
X-30435Y-139981D01*
X-30423Y-139920D01*
Y139917D01*
X-30414D01*
X-30902Y143619D01*
X-32331Y147069D01*
X-34604Y150032D01*
X-37567Y152305D01*
X-41017Y153734D01*
X-44719Y154221D01*
X-48421Y153734D01*
X-51871Y152305D01*
X-54833Y150032D01*
X-57107Y147069D01*
X-58536Y143619D01*
X-59023Y139917D01*
X-59014D01*
Y-139920D01*
X-59002Y-139981D01*
X-59170Y-140826D01*
X-59713Y-141638D01*
X-60525Y-142181D01*
X-61396Y-142354D01*
X-61483Y-142336D01*
X-61570Y-142354D01*
X-62441Y-142181D01*
X-63253Y-141638D01*
X-63795Y-140826D01*
X-63963Y-139981D01*
X-63951Y-139920D01*
Y139917D01*
X-63942D01*
X-64430Y143619D01*
X-65859Y147069D01*
X-68132Y150032D01*
X-71095Y152305D01*
X-74545Y153734D01*
X-78247Y154221D01*
X-81949Y153734D01*
X-85399Y152305D01*
X-88362Y150032D01*
X-90635Y147069D01*
X-92064Y143619D01*
X-92551Y139917D01*
X-92542D01*
Y-139920D01*
X-92530Y-139981D01*
X-92698Y-140826D01*
X-93241Y-141638D01*
X-94053Y-142181D01*
X-94923Y-142354D01*
X-95011Y-142336D01*
X-95098Y-142354D01*
X-95969Y-142181D01*
X-96781Y-141638D01*
X-97323Y-140826D01*
X-97491Y-139981D01*
X-97479Y-139920D01*
Y139917D01*
X-97470D01*
X-97958Y143619D01*
X-99387Y147069D01*
X-101660Y150032D01*
X-104623Y152305D01*
X-108073Y153734D01*
X-111775Y154221D01*
X-115477Y153734D01*
X-118927Y152305D01*
X-121889Y150032D01*
X-124163Y147069D01*
X-125592Y143619D01*
X-126079Y139917D01*
X-126070D01*
Y-139920D01*
X-126058Y-139981D01*
X-126226Y-140826D01*
X-126769Y-141638D01*
X-127581Y-142181D01*
X-128451Y-142354D01*
X-128539Y-142336D01*
X-128626Y-142354D01*
X-129497Y-142181D01*
X-130309Y-141638D01*
X-130851Y-140826D01*
X-131019Y-139981D01*
X-131007Y-139920D01*
Y139917D01*
X-130998D01*
X-131486Y143619D01*
X-132915Y147069D01*
X-135188Y150032D01*
X-138151Y152305D01*
X-141601Y153734D01*
X-145303Y154221D01*
X-149005Y153734D01*
X-152455Y152305D01*
X-155417Y150032D01*
X-157691Y147069D01*
X-159120Y143619D01*
X-159607Y139917D01*
X-159598D01*
Y-139920D01*
X-159586Y-139981D01*
X-159754Y-140826D01*
X-160297Y-141638D01*
X-161109Y-142181D01*
X-161980Y-142354D01*
X-162067Y-142336D01*
X-162154Y-142354D01*
X-163025Y-142181D01*
X-163837Y-141638D01*
X-164379Y-140826D01*
X-164547Y-139981D01*
X-164535Y-139920D01*
Y139917D01*
X-164526D01*
X-165014Y143619D01*
X-166443Y147069D01*
X-168716Y150032D01*
X-171679Y152305D01*
X-175129Y153734D01*
X-178831Y154221D01*
X-182533Y153734D01*
X-185983Y152305D01*
X-188946Y150032D01*
X-191219Y147069D01*
X-192648Y143619D01*
X-193135Y139917D01*
X-193126D01*
Y-139920D01*
X-193114Y-139981D01*
X-193282Y-140826D01*
X-193825Y-141638D01*
X-194637Y-142181D01*
X-195508Y-142354D01*
X-195595Y-142336D01*
X-195682Y-142354D01*
X-196553Y-142181D01*
X-197365Y-141638D01*
X-197907Y-140826D01*
X-198075Y-139981D01*
X-198063Y-139920D01*
Y139917D01*
X-198054D01*
X-198542Y143619D01*
X-199971Y147069D01*
X-202244Y150032D01*
X-205207Y152305D01*
X-208657Y153734D01*
X-212359Y154221D01*
X-216061Y153734D01*
X-219511Y152305D01*
X-222474Y150032D01*
X-224747Y147069D01*
X-226176Y143619D01*
X-226663Y139917D01*
X-226654D01*
Y-139920D01*
X-226642Y-139981D01*
X-226810Y-140826D01*
X-227353Y-141638D01*
X-228165Y-142181D01*
X-229035Y-142354D01*
X-229123Y-142336D01*
X-229210Y-142354D01*
X-230081Y-142181D01*
X-230893Y-141638D01*
X-231435Y-140826D01*
X-231603Y-139981D01*
X-231591Y-139920D01*
Y139917D01*
X-231582D01*
X-232070Y143619D01*
X-233499Y147069D01*
X-235772Y150032D01*
X-238735Y152305D01*
X-242185Y153734D01*
X-245887Y154221D01*
X-249589Y153734D01*
X-253039Y152305D01*
X-256001Y150032D01*
X-258275Y147069D01*
X-259704Y143619D01*
X-260191Y139917D01*
X-260182D01*
Y-122618D01*
X-260165Y-122705D01*
X-260227Y-123019D01*
X-262134Y-124212D01*
X-264436Y-123240D01*
X-265610Y-121482D01*
X-267368Y-120308D01*
X-269440Y-119896D01*
X-277316D01*
X-279388Y-120308D01*
X-281146Y-121482D01*
X-283535Y-120742D01*
X-284841Y-119430D01*
Y-119026D01*
X-283909Y-117411D01*
X-283333Y-115263D01*
Y-113039D01*
X-283909Y-110891D01*
X-285020Y-108966D01*
X-286593Y-107393D01*
X-288518Y-106281D01*
X-290666Y-105706D01*
X-292890D01*
X-295038Y-106281D01*
X-296963Y-107393D01*
X-298536Y-108966D01*
X-299648Y-110891D01*
X-300223Y-113039D01*
Y-115263D01*
X-299648Y-117411D01*
X-299315Y-117987D01*
Y-120927D01*
X-300145Y-121482D01*
X-301320Y-123240D01*
X-301732Y-125312D01*
Y-125627D01*
X-306129D01*
X-307141Y-123184D01*
X-308947Y-120482D01*
X-311245Y-118184D01*
X-313948Y-116378D01*
X-316950Y-115134D01*
X-320138Y-114500D01*
X-323388D01*
X-326576Y-115134D01*
X-329579Y-116378D01*
X-332281Y-118184D01*
X-334580Y-120482D01*
X-336385Y-123184D01*
X-337629Y-126187D01*
X-338263Y-129375D01*
Y-132625D01*
X-337629Y-135813D01*
X-336385Y-138816D01*
X-334580Y-141518D01*
X-332281Y-143816D01*
X-329579Y-145622D01*
X-326576Y-146866D01*
X-323388Y-147500D01*
X-320138D01*
X-316950Y-146866D01*
X-313948Y-145622D01*
X-311245Y-143816D01*
X-308947Y-141518D01*
X-307141Y-138816D01*
X-306129Y-136373D01*
X-301732D01*
Y-136687D01*
X-301320Y-138760D01*
X-300145Y-140518D01*
X-298388Y-141692D01*
X-296315Y-142104D01*
X-288440D01*
X-286368Y-141692D01*
X-284610Y-140518D01*
X-284405Y-140211D01*
X-281350D01*
X-281146Y-140518D01*
X-279388Y-141692D01*
X-277316Y-142104D01*
X-269440D01*
X-267368Y-141692D01*
X-265610Y-140518D01*
X-264436Y-138760D01*
X-264429Y-138726D01*
X-262651Y-136922D01*
X-258949Y-136435D01*
X-255499Y-135006D01*
X-252536Y-132733D01*
X-250263Y-129770D01*
X-248834Y-126320D01*
X-248346Y-122618D01*
X-248355D01*
Y139917D01*
X-248373Y140004D01*
X-248199Y140875D01*
X-247657Y141687D01*
X-246845Y142230D01*
X-245974Y142403D01*
X-245887Y142385D01*
X-245800Y142403D01*
X-244929Y142230D01*
X-244117Y141687D01*
X-243574Y140875D01*
X-243401Y140006D01*
X-243418Y139920D01*
Y-139868D01*
X-243427D01*
X-242940Y-143570D01*
X-241511Y-147020D01*
X-239237Y-149983D01*
X-236275Y-152256D01*
X-232825Y-153685D01*
X-229123Y-154172D01*
X-225421Y-153685D01*
X-221971Y-152256D01*
X-219008Y-149983D01*
X-216735Y-147020D01*
X-215306Y-143570D01*
X-214818Y-139868D01*
X-214827D01*
Y139920D01*
X-214844Y140006D01*
X-214671Y140875D01*
X-214129Y141687D01*
X-213317Y142230D01*
X-212446Y142403D01*
X-212359Y142385D01*
X-212271Y142403D01*
X-211401Y142230D01*
X-210589Y141687D01*
X-210046Y140875D01*
X-209873Y140006D01*
X-209890Y139920D01*
Y-139868D01*
X-209899D01*
X-209412Y-143570D01*
X-207983Y-147020D01*
X-205709Y-149983D01*
X-202747Y-152256D01*
X-199297Y-153685D01*
X-195595Y-154172D01*
X-191893Y-153685D01*
X-188443Y-152256D01*
X-185480Y-149983D01*
X-183207Y-147020D01*
X-181778Y-143570D01*
X-181290Y-139868D01*
X-181299D01*
Y139920D01*
X-181316Y140006D01*
X-181143Y140875D01*
X-180601Y141687D01*
X-179789Y142230D01*
X-178918Y142403D01*
X-178831Y142385D01*
X-178743Y142403D01*
X-177873Y142230D01*
X-177061Y141687D01*
X-176518Y140875D01*
X-176345Y140006D01*
X-176362Y139920D01*
Y-139868D01*
X-176371D01*
X-175884Y-143570D01*
X-174455Y-147020D01*
X-172181Y-149983D01*
X-169219Y-152256D01*
X-165769Y-153685D01*
X-162067Y-154172D01*
X-158365Y-153685D01*
X-154915Y-152256D01*
X-151952Y-149983D01*
X-149679Y-147020D01*
X-148250Y-143570D01*
X-147762Y-139868D01*
X-147771D01*
Y139920D01*
X-147788Y140006D01*
X-147615Y140875D01*
X-147073Y141687D01*
X-146261Y142230D01*
X-145390Y142403D01*
X-145303Y142385D01*
X-145216Y142403D01*
X-144345Y142230D01*
X-143533Y141687D01*
X-142990Y140875D01*
X-142817Y140006D01*
X-142834Y139920D01*
Y-139868D01*
X-142843D01*
X-142356Y-143570D01*
X-140927Y-147020D01*
X-138653Y-149983D01*
X-135691Y-152256D01*
X-132241Y-153685D01*
X-128539Y-154172D01*
X-124837Y-153685D01*
X-121387Y-152256D01*
X-118424Y-149983D01*
X-116151Y-147020D01*
X-114722Y-143570D01*
X-114234Y-139868D01*
X-114243D01*
Y139920D01*
X-114260Y140006D01*
X-114087Y140875D01*
X-113545Y141687D01*
X-112733Y142230D01*
X-111862Y142403D01*
X-111775Y142385D01*
X-111687Y142403D01*
X-110817Y142230D01*
X-110005Y141687D01*
X-109462Y140875D01*
X-109289Y140006D01*
X-109306Y139920D01*
Y-139868D01*
X-109315D01*
X-108828Y-143570D01*
X-107399Y-147020D01*
X-105126Y-149983D01*
X-102163Y-152256D01*
X-98713Y-153685D01*
X-95011Y-154172D01*
X-91309Y-153685D01*
X-87859Y-152256D01*
X-84896Y-149983D01*
X-82623Y-147020D01*
X-81194Y-143570D01*
X-80706Y-139868D01*
X-80715D01*
Y139920D01*
X-80732Y140006D01*
X-80559Y140875D01*
X-80017Y141687D01*
X-79205Y142230D01*
X-78334Y142403D01*
X-78247Y142385D01*
X-78159Y142403D01*
X-77289Y142230D01*
X-76477Y141687D01*
X-75934Y140875D01*
X-75761Y140006D01*
X-75778Y139920D01*
Y-139868D01*
X-75787D01*
X-75300Y-143570D01*
X-73871Y-147020D01*
X-71597Y-149983D01*
X-68635Y-152256D01*
X-65185Y-153685D01*
X-61483Y-154172D01*
X-57781Y-153685D01*
X-54331Y-152256D01*
X-51368Y-149983D01*
X-49095Y-147020D01*
X-47666Y-143570D01*
X-47178Y-139868D01*
X-47187D01*
Y139920D01*
X-47204Y140006D01*
X-47031Y140875D01*
X-46489Y141687D01*
X-45677Y142230D01*
X-44806Y142403D01*
X-44719Y142385D01*
X-44632Y142403D01*
X-43761Y142230D01*
X-42949Y141687D01*
X-42406Y140875D01*
X-42233Y140006D01*
X-42250Y139920D01*
Y-139868D01*
X-42259D01*
X-41772Y-143570D01*
X-40343Y-147020D01*
X-38070Y-149983D01*
X-35107Y-152256D01*
X-31657Y-153685D01*
X-27955Y-154172D01*
X-24253Y-153685D01*
X-20803Y-152256D01*
X-17840Y-149983D01*
X-15567Y-147020D01*
X-14138Y-143570D01*
X-13650Y-139868D01*
X-13659D01*
Y139920D01*
X-13676Y140006D01*
X-13503Y140875D01*
X-12961Y141687D01*
X-12149Y142230D01*
X-11278Y142403D01*
X-11191Y142385D01*
X-11104Y142403D01*
X-10233Y142230D01*
X-9421Y141687D01*
X-8878Y140875D01*
X-8705Y140006D01*
X-8722Y139920D01*
Y-139868D01*
X-8731D01*
X-8244Y-143570D01*
X-6815Y-147020D01*
X-4541Y-149983D01*
X-1579Y-152256D01*
X1871Y-153685D01*
X5573Y-154172D01*
X9275Y-153685D01*
X12725Y-152256D01*
X15688Y-149983D01*
X17961Y-147020D01*
X19390Y-143570D01*
X19878Y-139868D01*
X19869D01*
Y139920D01*
X19852Y140006D01*
X20025Y140875D01*
X20567Y141687D01*
X21379Y142230D01*
X22250Y142403D01*
X22337Y142385D01*
X22424Y142403D01*
X23295Y142230D01*
X24107Y141687D01*
X24650Y140875D01*
X24823Y140006D01*
X24806Y139920D01*
Y-139868D01*
X24797D01*
X25284Y-143570D01*
X26713Y-147020D01*
X28986Y-149983D01*
X31949Y-152256D01*
X35399Y-153685D01*
X39101Y-154172D01*
X42803Y-153685D01*
X46253Y-152256D01*
X49216Y-149983D01*
X51489Y-147020D01*
X52918Y-143570D01*
X53406Y-139868D01*
X53397D01*
Y139920D01*
X53380Y140006D01*
X53553Y140875D01*
X54095Y141687D01*
X54907Y142230D01*
X55778Y142403D01*
X55865Y142385D01*
X55953Y142403D01*
X56823Y142230D01*
X57635Y141687D01*
X58178Y140875D01*
X58351Y140006D01*
X58334Y139920D01*
Y-139868D01*
X58325D01*
X58812Y-143570D01*
X60241Y-147020D01*
X62515Y-149983D01*
X65477Y-152256D01*
X68927Y-153685D01*
X72629Y-154172D01*
X76331Y-153685D01*
X79781Y-152256D01*
X82744Y-149983D01*
X85017Y-147020D01*
X86446Y-143570D01*
X86934Y-139868D01*
X86925D01*
Y139920D01*
X86908Y140006D01*
X87081Y140875D01*
X87623Y141687D01*
X88435Y142230D01*
X89306Y142403D01*
X89393Y142385D01*
X89480Y142403D01*
X90351Y142230D01*
X91163Y141687D01*
X91706Y140875D01*
X91879Y140006D01*
X91862Y139920D01*
Y-139868D01*
X91853D01*
X92340Y-143570D01*
X93769Y-147020D01*
X96042Y-149983D01*
X99005Y-152256D01*
X102455Y-153685D01*
X106157Y-154172D01*
X109859Y-153685D01*
X113309Y-152256D01*
X116272Y-149983D01*
X118545Y-147020D01*
X119974Y-143570D01*
X120462Y-139868D01*
X120453D01*
Y139920D01*
X120436Y140006D01*
X120609Y140875D01*
X121151Y141687D01*
X121963Y142230D01*
X122834Y142403D01*
X122921Y142385D01*
X123008Y142403D01*
X123879Y142230D01*
X124691Y141687D01*
X125234Y140875D01*
X125407Y140006D01*
X125390Y139920D01*
Y-139868D01*
X125381D01*
X125868Y-143570D01*
X127297Y-147020D01*
X129571Y-149983D01*
X132533Y-152256D01*
X135983Y-153685D01*
X139685Y-154172D01*
X143387Y-153685D01*
X146837Y-152256D01*
X149800Y-149983D01*
X152073Y-147020D01*
X153502Y-143570D01*
X153990Y-139868D01*
X153981D01*
Y-8979D01*
X155598Y-7712D01*
X156288Y-7466D01*
X158200Y-7846D01*
X162687D01*
X163296Y-10906D01*
X165068Y-16126D01*
X167506Y-21070D01*
X170568Y-25653D01*
X174203Y-29798D01*
X178347Y-33432D01*
X182930Y-36495D01*
X187874Y-38933D01*
X192659Y-40557D01*
X192264Y-42545D01*
Y-53975D01*
X192722Y-56279D01*
X194028Y-58232D01*
X195226Y-59033D01*
X194954Y-60400D01*
Y-65800D01*
X195334Y-67712D01*
X196417Y-69333D01*
X198038Y-70416D01*
X199950Y-70796D01*
X208050D01*
X209962Y-70416D01*
X211583Y-69333D01*
X212666Y-67712D01*
X213046Y-65800D01*
Y-60400D01*
X212774Y-59033D01*
X213972Y-58232D01*
X215277Y-56279D01*
X215735Y-53975D01*
Y-42545D01*
X215340Y-40558D01*
X220047Y-38960D01*
X221621Y-40879D01*
X223952Y-42792D01*
X226612Y-44214D01*
X229498Y-45089D01*
X232499Y-45385D01*
X235500Y-45089D01*
X238386Y-44214D01*
X241046Y-42792D01*
X243377Y-40879D01*
X245290Y-38547D01*
X246712Y-35888D01*
X247587Y-33002D01*
X247883Y-30001D01*
X247587Y-26999D01*
X246712Y-24114D01*
X245290Y-21454D01*
X243377Y-19123D01*
X242010Y-18000D01*
X242934Y-16126D01*
X244706Y-10906D01*
X245781Y-5500D01*
X246142Y1D01*
X245781Y5501D01*
X244706Y10908D01*
X242934Y16127D01*
X242011Y18000D01*
X243377Y19121D01*
X245290Y21453D01*
X246712Y24112D01*
X247587Y26998D01*
X247883Y29999D01*
X247587Y33001D01*
X246712Y35886D01*
X245290Y38546D01*
X243377Y40877D01*
X241046Y42791D01*
X238386Y44212D01*
X235500Y45088D01*
X232499Y45383D01*
X229498Y45088D01*
X226612Y44212D01*
X223952Y42791D01*
X221621Y40877D01*
X220048Y38961D01*
X214908Y40706D01*
X209501Y41781D01*
X204001Y42142D01*
X198500Y41781D01*
X193094Y40706D01*
X187874Y38934D01*
X182930Y36496D01*
X178347Y33433D01*
X174203Y29799D01*
X170704Y25809D01*
X170002Y25826D01*
X168164Y26384D01*
Y42194D01*
X169756Y42511D01*
X171244Y43506D01*
X172239Y44994D01*
X172588Y46750D01*
Y57750D01*
X172239Y59506D01*
X171244Y60994D01*
X169756Y61989D01*
X168000Y62338D01*
X157000D01*
X155244Y61989D01*
X153756Y60994D01*
X152761Y59506D01*
X152412Y57750D01*
Y46750D01*
X152761Y44994D01*
X153756Y43506D01*
X155244Y42511D01*
X156336Y42294D01*
Y20975D01*
X156288Y20966D01*
X154667Y19883D01*
X153584Y18262D01*
X153204Y16350D01*
Y10950D01*
X153584Y9038D01*
X153873Y8607D01*
X154104Y7871D01*
X153412Y5835D01*
X153135Y5486D01*
X152747Y5435D01*
X149297Y4006D01*
X146334Y1733D01*
X144061Y-1230D01*
X142632Y-4680D01*
X142145Y-8382D01*
X142154D01*
Y-139920D01*
X142166Y-139981D01*
X141998Y-140826D01*
X141455Y-141638D01*
X140643Y-142181D01*
X139773Y-142354D01*
X139685Y-142336D01*
X139598Y-142354D01*
X138727Y-142181D01*
X137915Y-141638D01*
X137373Y-140826D01*
X137205Y-139981D01*
X137217Y-139920D01*
Y139917D01*
X137226D01*
X136738Y143619D01*
X135309Y147069D01*
X133036Y150032D01*
X130073Y152305D01*
X126623Y153734D01*
X122921Y154221D01*
D02*
G37*
%LPD*%
D12*
X162500Y52250D02*
D03*
X182500D02*
D03*
X-295512Y79207D02*
D03*
X-315512Y79207D02*
D03*
D13*
X172500Y84750D02*
D03*
X-305512Y111707D02*
D03*
D14*
X162250Y13650D02*
D03*
Y-150D02*
D03*
X204000Y-76900D02*
D03*
Y-63100D02*
D03*
D15*
X251244Y0D02*
D03*
D16*
X204000Y-48260D02*
D03*
D17*
X-273378Y-131000D02*
D03*
X-292378D02*
D03*
X232500Y30000D02*
D03*
X251500D02*
D03*
X232500Y-30000D02*
D03*
X251500D02*
D03*
D18*
X-343100Y-60000D02*
D03*
X-356900D02*
D03*
X-343100Y60000D02*
D03*
X-356900D02*
D03*
D37*
X-388350Y43250D02*
D03*
Y-43250D02*
D03*
D38*
X-354550Y43250D02*
D03*
Y-43250D02*
D03*
D39*
X-344750Y29750D02*
D03*
Y21250D02*
D03*
Y12750D02*
D03*
Y4250D02*
D03*
Y-4250D02*
D03*
Y-12750D02*
D03*
Y-21250D02*
D03*
Y-29750D02*
D03*
X-358250D02*
D03*
Y-21250D02*
D03*
Y-12750D02*
D03*
Y-4250D02*
D03*
Y4250D02*
D03*
Y12750D02*
D03*
Y21250D02*
D03*
Y29750D02*
D03*
D40*
X156449Y0D02*
G03*
X148067Y-8382I0J-8382D01*
G01*
X-237505Y139917D02*
G03*
X-245887Y148299I-8382J0D01*
G01*
D02*
G03*
X-254269Y139917I0J-8382D01*
G01*
X-203977D02*
G03*
X-212359Y148299I-8382J0D01*
G01*
D02*
G03*
X-220741Y139917I0J-8382D01*
G01*
X-262651Y-131000D02*
G03*
X-254269Y-122618I0J8382D01*
G01*
X-237505Y-139868D02*
G03*
X-229123Y-148250I8382J0D01*
G01*
X89393Y148299D02*
G03*
X81011Y139917I0J-8382D01*
G01*
X97775D02*
G03*
X89393Y148299I-8382J0D01*
G01*
X106157Y-148250D02*
G03*
X114539Y-139868I0J8382D01*
G01*
X97775D02*
G03*
X106157Y-148250I8382J0D01*
G01*
X131303Y139917D02*
G03*
X122921Y148299I-8382J0D01*
G01*
D02*
G03*
X114539Y139917I0J-8382D01*
G01*
X139685Y-148250D02*
G03*
X148067Y-139868I0J8382D01*
G01*
X131303D02*
G03*
X139685Y-148250I8382J0D01*
G01*
X-2809Y-139868D02*
G03*
X5573Y-148250I8382J0D01*
G01*
D02*
G03*
X13955Y-139868I0J8382D01*
G01*
X30719Y139917D02*
G03*
X22337Y148299I-8382J0D01*
G01*
D02*
G03*
X13955Y139917I0J-8382D01*
G01*
X39101Y-148250D02*
G03*
X47483Y-139868I0J8382D01*
G01*
X30719D02*
G03*
X39101Y-148250I8382J0D01*
G01*
X64247Y139917D02*
G03*
X55865Y148299I-8382J0D01*
G01*
D02*
G03*
X47483Y139917I0J-8382D01*
G01*
X72629Y-148250D02*
G03*
X81011Y-139868I0J8382D01*
G01*
X64247D02*
G03*
X72629Y-148250I8382J0D01*
G01*
X-78247Y148299D02*
G03*
X-86629Y139917I0J-8382D01*
G01*
X-69865D02*
G03*
X-78247Y148299I-8382J0D01*
G01*
X-61483Y-148250D02*
G03*
X-53101Y-139868I0J8382D01*
G01*
X-69865D02*
G03*
X-61483Y-148250I8382J0D01*
G01*
X-36337Y139917D02*
G03*
X-44719Y148299I-8382J0D01*
G01*
D02*
G03*
X-53101Y139917I0J-8382D01*
G01*
X-27955Y-148250D02*
G03*
X-19573Y-139868I0J8382D01*
G01*
X-36337D02*
G03*
X-27955Y-148250I8382J0D01*
G01*
X-2809Y139917D02*
G03*
X-11191Y148299I-8382J0D01*
G01*
D02*
G03*
X-19573Y139917I0J-8382D01*
G01*
X-170449Y-139868D02*
G03*
X-162067Y-148250I8382J0D01*
G01*
D02*
G03*
X-153685Y-139868I0J8382D01*
G01*
X-136921Y139917D02*
G03*
X-145303Y148299I-8382J0D01*
G01*
D02*
G03*
X-153685Y139917I0J-8382D01*
G01*
X-128539Y-148250D02*
G03*
X-120157Y-139868I0J8382D01*
G01*
X-136921D02*
G03*
X-128539Y-148250I8382J0D01*
G01*
X-103393Y139917D02*
G03*
X-111775Y148299I-8382J0D01*
G01*
D02*
G03*
X-120157Y139917I0J-8382D01*
G01*
X-95011Y-148250D02*
G03*
X-86629Y-139868I0J8382D01*
G01*
X-103393D02*
G03*
X-95011Y-148250I8382J0D01*
G01*
X-178831Y148299D02*
G03*
X-187213Y139917I0J-8382D01*
G01*
X-170449D02*
G03*
X-178831Y148299I-8382J0D01*
G01*
X-203977Y-139868D02*
G03*
X-195595Y-148250I8382J0D01*
G01*
D02*
G03*
X-187213Y-139868I0J8382D01*
G01*
X-229123Y-148250D02*
G03*
X-220741Y-139868I0J8382D01*
G01*
X162250Y13650D02*
Y52000D01*
X156449Y0D02*
X204000D01*
X148067Y-139920D02*
Y-8382D01*
X-203977Y-139920D02*
Y139920D01*
X-220741Y-139920D02*
Y139920D01*
X-237505Y-139920D02*
Y139920D01*
Y-139920D02*
Y-139868D01*
X-254269Y-122618D02*
Y139917D01*
X-273378Y-131000D02*
X-262651D01*
X204000Y0D02*
X228881Y-24631D01*
X232500Y-30000D01*
X204000Y0D02*
X228881Y24631D01*
X232500Y30000D01*
X97775Y-139920D02*
Y139920D01*
X114539Y-139920D02*
Y139920D01*
X131303Y-139920D02*
Y139920D01*
X13955Y-139920D02*
Y139920D01*
X30719Y-139920D02*
Y139920D01*
X47483Y-139920D02*
Y139920D01*
X64247Y-139920D02*
Y139920D01*
X81011Y-139920D02*
Y139920D01*
X-69865Y-139920D02*
Y139920D01*
X-53101Y-139920D02*
Y139920D01*
X-36337Y-139920D02*
Y139920D01*
X-19573Y-139920D02*
Y139920D01*
X-2809Y-139920D02*
Y139920D01*
X-153685Y-139920D02*
Y139920D01*
X-136921Y-139920D02*
Y139920D01*
X-120157Y-139920D02*
Y139920D01*
X-103393Y-139920D02*
Y139920D01*
X-86629Y-139920D02*
Y139920D01*
X-170449Y-139920D02*
Y139920D01*
X-187213Y-139920D02*
Y139920D01*
D41*
X-357206Y-131000D02*
D03*
X-321763D02*
D03*
X365249Y-38001D02*
D03*
Y37999D02*
D03*
D42*
X162250Y52000D02*
X162500Y52250D01*
D43*
X-295512Y69013D02*
Y79207D01*
X-297000Y67525D02*
X-295512Y69013D01*
X-300837Y67525D02*
X-297000D01*
X-301212Y67150D02*
X-300837Y67525D01*
X-333250Y79725D02*
X-316031D01*
X-315512Y79207D01*
X-295512Y79207D02*
Y90691D01*
X-305512Y100691D02*
X-295512Y90691D01*
X-305512Y100691D02*
Y111707D01*
X-321763Y-131000D02*
X-292378D01*
X-361771Y-12750D02*
X-358250D01*
X-371820Y-52490D02*
X-364310Y-60000D01*
X-356900D01*
X-371820Y-22799D02*
X-361771Y-12750D01*
X-371820Y-52490D02*
Y-22799D01*
X-343100Y58650D02*
Y60000D01*
Y58650D02*
X-333250Y48800D01*
Y18276D02*
Y48800D01*
X-338776Y12750D02*
X-333250Y18276D01*
X-344750Y12750D02*
X-338776D01*
X204000Y-60770D02*
X204000Y-63100D01*
X204000Y-60770D02*
Y-53975D01*
X204000Y-48260D02*
X204000Y-53975D01*
D44*
X-292378Y-131000D02*
X-292078Y-130700D01*
Y-114451D01*
X-291778Y-114151D01*
D45*
X-352000Y108700D02*
D03*
Y83300D02*
D03*
D46*
X204000Y0D02*
D03*
D47*
X-10000Y-180000D02*
D03*
X-30000D02*
D03*
X-50000D02*
D03*
X-70000D02*
D03*
X-90000D02*
D03*
X-110000D02*
D03*
X-130000D02*
D03*
X-150000D02*
D03*
X-170000D02*
D03*
X-190000D02*
D03*
X-210000D02*
D03*
X-230000D02*
D03*
X-250000D02*
D03*
X-270000D02*
D03*
X-290000D02*
D03*
X-310000D02*
D03*
X-330000D02*
D03*
X-350000D02*
D03*
X-370000D02*
D03*
X-390000D02*
D03*
X370000D02*
D03*
X350000D02*
D03*
X330000D02*
D03*
X310000D02*
D03*
X290000D02*
D03*
X270000D02*
D03*
X250000D02*
D03*
X230000D02*
D03*
X210000D02*
D03*
X190000D02*
D03*
X170000D02*
D03*
X150000D02*
D03*
X130000D02*
D03*
X110000D02*
D03*
X90000D02*
D03*
X70000D02*
D03*
X50000D02*
D03*
X30000D02*
D03*
X10000D02*
D03*
X390000D02*
D03*
Y180000D02*
D03*
X10000D02*
D03*
X30000D02*
D03*
X50000D02*
D03*
X70000D02*
D03*
X90000D02*
D03*
X110000D02*
D03*
X130000D02*
D03*
X150000D02*
D03*
X170000D02*
D03*
X190000D02*
D03*
X210000D02*
D03*
X230000D02*
D03*
X250000D02*
D03*
X270000D02*
D03*
X290000D02*
D03*
X310000D02*
D03*
X330000D02*
D03*
X350000D02*
D03*
X370000D02*
D03*
X-390000D02*
D03*
X-370000D02*
D03*
X-350000D02*
D03*
X-330000D02*
D03*
X-310000D02*
D03*
X-290000D02*
D03*
X-270000D02*
D03*
X-250000D02*
D03*
X-230000D02*
D03*
X-210000D02*
D03*
X-190000D02*
D03*
X-170000D02*
D03*
X-150000D02*
D03*
X-130000D02*
D03*
X-110000D02*
D03*
X-90000D02*
D03*
X-70000D02*
D03*
X-50000D02*
D03*
X-30000D02*
D03*
X-10000D02*
D03*
X-324000Y110250D02*
D03*
X-301212Y67150D02*
D03*
X-333250Y79725D02*
D03*
X-305512Y148349D02*
D03*
Y128299D02*
D03*
X-304097Y33747D02*
D03*
X-287478Y94907D02*
D03*
X-246000Y-83750D02*
D03*
X-246000Y-117250D02*
D03*
X140000Y-16750D02*
D03*
X140000Y-33500D02*
D03*
X140000Y-50250D02*
D03*
X140000Y-67000D02*
D03*
X140000Y-83750D02*
D03*
X140000Y-100500D02*
D03*
X5750Y-16750D02*
D03*
X22500D02*
D03*
X39250D02*
D03*
X56000D02*
D03*
X72750D02*
D03*
X89500D02*
D03*
X123000D02*
D03*
X106250D02*
D03*
X-246000D02*
D03*
X-128750D02*
D03*
X-145500D02*
D03*
X-162250D02*
D03*
X-111750D02*
D03*
X-95000D02*
D03*
X-78250D02*
D03*
X-61500D02*
D03*
X-44750D02*
D03*
X-28000D02*
D03*
X-11000D02*
D03*
X5750Y-33500D02*
D03*
X22500D02*
D03*
X39250D02*
D03*
X56000D02*
D03*
X72750D02*
D03*
X89500D02*
D03*
X123000D02*
D03*
X106250D02*
D03*
X-128750D02*
D03*
X-145500D02*
D03*
X-162250D02*
D03*
X-111750D02*
D03*
X-95000D02*
D03*
X-78250D02*
D03*
X-61500D02*
D03*
X-44750D02*
D03*
X-28000D02*
D03*
X-11000D02*
D03*
X5750Y-50250D02*
D03*
X22500D02*
D03*
X39250D02*
D03*
X56000D02*
D03*
X72750D02*
D03*
X89500D02*
D03*
X123000D02*
D03*
X106250D02*
D03*
X-246000D02*
D03*
X-128750D02*
D03*
X-145500D02*
D03*
X-162250D02*
D03*
X-111750D02*
D03*
X-95000D02*
D03*
X-78250D02*
D03*
X-61500D02*
D03*
X-44750D02*
D03*
X-28000D02*
D03*
X-11000D02*
D03*
X5750Y-67000D02*
D03*
X22500D02*
D03*
X39250D02*
D03*
X56000D02*
D03*
X72750D02*
D03*
X89500D02*
D03*
X123000D02*
D03*
X106250D02*
D03*
X-128750D02*
D03*
X-145500D02*
D03*
X-162250D02*
D03*
X-111750D02*
D03*
X-95000D02*
D03*
X-78250D02*
D03*
X-61500D02*
D03*
X-44750D02*
D03*
X-28000D02*
D03*
X-11000D02*
D03*
X5750Y-83750D02*
D03*
X22500D02*
D03*
X39250D02*
D03*
X56000D02*
D03*
X72750D02*
D03*
X89500D02*
D03*
X123000D02*
D03*
X106250D02*
D03*
X-128750D02*
D03*
X-145500D02*
D03*
X-162250D02*
D03*
X-111750D02*
D03*
X-95000D02*
D03*
X-78250D02*
D03*
X-61500D02*
D03*
X-44750D02*
D03*
X-28000D02*
D03*
X-11000D02*
D03*
X5750Y-100500D02*
D03*
X22500D02*
D03*
X39250D02*
D03*
X56000D02*
D03*
X72750D02*
D03*
X89500D02*
D03*
X123000D02*
D03*
X106250D02*
D03*
X-128750D02*
D03*
X-145500D02*
D03*
X-162250D02*
D03*
X-111750D02*
D03*
X-95000D02*
D03*
X-78250D02*
D03*
X-61500D02*
D03*
X-44750D02*
D03*
X-28000D02*
D03*
X-11000D02*
D03*
X140000Y-117250D02*
D03*
X140000Y-134000D02*
D03*
X-11000Y-117250D02*
D03*
X-28000D02*
D03*
X-44750D02*
D03*
X-61500D02*
D03*
X-78250D02*
D03*
X-95000D02*
D03*
X-111750D02*
D03*
X-162250D02*
D03*
X-145500D02*
D03*
X-128750D02*
D03*
X106250D02*
D03*
X123000D02*
D03*
X89500D02*
D03*
X72750D02*
D03*
X56000D02*
D03*
X39250D02*
D03*
X22500D02*
D03*
X5750D02*
D03*
X-11000Y-134000D02*
D03*
X-28000D02*
D03*
X-44750D02*
D03*
X-61500D02*
D03*
X-78250D02*
D03*
X-95000D02*
D03*
X-111750D02*
D03*
X-162250D02*
D03*
X-145500D02*
D03*
X-128750D02*
D03*
X-246000D02*
D03*
X106250D02*
D03*
X123000D02*
D03*
X89500D02*
D03*
X72750D02*
D03*
X56000D02*
D03*
X39250D02*
D03*
X22500D02*
D03*
X5750D02*
D03*
X-179000D02*
D03*
X-179000Y-117250D02*
D03*
X-179000Y-100500D02*
D03*
X-179000Y-83750D02*
D03*
X-179000Y-50250D02*
D03*
X-179000Y-16750D02*
D03*
X-195750Y-134000D02*
D03*
X-195750Y-117250D02*
D03*
X-195750Y-100500D02*
D03*
X-195750Y-83750D02*
D03*
X-195750Y-50250D02*
D03*
X-195750Y-16750D02*
D03*
X-212500Y-134000D02*
D03*
X-212500Y-117250D02*
D03*
X-229250Y-134000D02*
D03*
X-229250Y-117250D02*
D03*
X-229250Y134000D02*
D03*
X-212500Y67000D02*
D03*
X-212500Y83750D02*
D03*
X-212500Y100500D02*
D03*
X-212500Y117250D02*
D03*
X-212500Y134000D02*
D03*
X-195750Y50250D02*
D03*
X-195750Y67000D02*
D03*
X-195750Y83750D02*
D03*
X-195750Y100500D02*
D03*
X-195750Y117250D02*
D03*
X-195750Y134000D02*
D03*
X-179000Y50250D02*
D03*
X-179000Y67000D02*
D03*
X-179000Y83750D02*
D03*
X-179000Y100500D02*
D03*
X-179000Y117250D02*
D03*
X-179000Y134000D02*
D03*
X5750D02*
D03*
X22500D02*
D03*
X39250D02*
D03*
X56000D02*
D03*
X72750D02*
D03*
X89500D02*
D03*
X123000D02*
D03*
X106250D02*
D03*
X-246000D02*
D03*
X-128750D02*
D03*
X-145500D02*
D03*
X-162250D02*
D03*
X-111750D02*
D03*
X-95000D02*
D03*
X-78250D02*
D03*
X-61500D02*
D03*
X-44750D02*
D03*
X-28000D02*
D03*
X-11000D02*
D03*
X5750Y117250D02*
D03*
X22500D02*
D03*
X39250D02*
D03*
X56000D02*
D03*
X72750D02*
D03*
X89500D02*
D03*
X123000D02*
D03*
X106250D02*
D03*
X-128750D02*
D03*
X-145500D02*
D03*
X-162250D02*
D03*
X-111750D02*
D03*
X-95000D02*
D03*
X-78250D02*
D03*
X-61500D02*
D03*
X-44750D02*
D03*
X-28000D02*
D03*
X-11000D02*
D03*
X140000Y134000D02*
D03*
X140000Y117250D02*
D03*
X-11000Y100500D02*
D03*
X-28000D02*
D03*
X-44750D02*
D03*
X-61500D02*
D03*
X-78250D02*
D03*
X-95000D02*
D03*
X-111750D02*
D03*
X-162250D02*
D03*
X-145500D02*
D03*
X-128750D02*
D03*
X106250D02*
D03*
X123000D02*
D03*
X89500D02*
D03*
X72750D02*
D03*
X56000D02*
D03*
X39250D02*
D03*
X22500D02*
D03*
X5750D02*
D03*
X-11000Y83750D02*
D03*
X-28000D02*
D03*
X-44750D02*
D03*
X-61500D02*
D03*
X-78250D02*
D03*
X-95000D02*
D03*
X-111750D02*
D03*
X-162250D02*
D03*
X-145500D02*
D03*
X-128750D02*
D03*
X106250D02*
D03*
X123000D02*
D03*
X89500D02*
D03*
X72750D02*
D03*
X56000D02*
D03*
X39250D02*
D03*
X22500D02*
D03*
X5750D02*
D03*
X-11000Y67000D02*
D03*
X-28000D02*
D03*
X-44750D02*
D03*
X-61500D02*
D03*
X-78250D02*
D03*
X-95000D02*
D03*
X-111750D02*
D03*
X-162250D02*
D03*
X-145500D02*
D03*
X-128750D02*
D03*
X106250D02*
D03*
X123000D02*
D03*
X89500D02*
D03*
X72750D02*
D03*
X56000D02*
D03*
X39250D02*
D03*
X22500D02*
D03*
X5750D02*
D03*
X-11000Y50250D02*
D03*
X-28000D02*
D03*
X-44750D02*
D03*
X-61500D02*
D03*
X-78250D02*
D03*
X-95000D02*
D03*
X-111750D02*
D03*
X-162250D02*
D03*
X-145500D02*
D03*
X-128750D02*
D03*
X-246000D02*
D03*
X106250D02*
D03*
X123000D02*
D03*
X89500D02*
D03*
X72750D02*
D03*
X56000D02*
D03*
X39250D02*
D03*
X22500D02*
D03*
X5750D02*
D03*
X-11000Y33500D02*
D03*
X-28000D02*
D03*
X-44750D02*
D03*
X-61500D02*
D03*
X-78250D02*
D03*
X-95000D02*
D03*
X-111750D02*
D03*
X-162250D02*
D03*
X-145500D02*
D03*
X-128750D02*
D03*
X106250D02*
D03*
X123000D02*
D03*
X89500D02*
D03*
X72750D02*
D03*
X56000D02*
D03*
X39250D02*
D03*
X22500D02*
D03*
X5750D02*
D03*
X-11000Y16750D02*
D03*
X-28000D02*
D03*
X-44750D02*
D03*
X-61500D02*
D03*
X-78250D02*
D03*
X-95000D02*
D03*
X-111750D02*
D03*
X-162250D02*
D03*
X-145500D02*
D03*
X-128750D02*
D03*
X-246000D02*
D03*
X106250D02*
D03*
X123000D02*
D03*
X89500D02*
D03*
X72750D02*
D03*
X56000D02*
D03*
X39250D02*
D03*
X22500D02*
D03*
X5750D02*
D03*
X140000Y100500D02*
D03*
X140000Y83750D02*
D03*
X140000Y67000D02*
D03*
X140000Y50250D02*
D03*
X140000Y33500D02*
D03*
X140000Y16750D02*
D03*
X5750Y0D02*
D03*
X22500D02*
D03*
X39250D02*
D03*
X56000D02*
D03*
X72750D02*
D03*
X89500D02*
D03*
X140000D02*
D03*
X123000D02*
D03*
X106250D02*
D03*
X-128750D02*
D03*
X-145500D02*
D03*
X-162250D02*
D03*
X-111750D02*
D03*
X-95000D02*
D03*
X-78250D02*
D03*
X-61500D02*
D03*
X-44750D02*
D03*
X-28000D02*
D03*
X-11000D02*
D03*
D48*
X-291778Y-114151D02*
D03*
M02*
