G04*
G04 #@! TF.GenerationSoftware,Altium Limited,Altium Designer,25.5.2 (35)*
G04*
G04 Layer_Color=255*
%FSLAX44Y44*%
%MOMM*%
G71*
G04*
G04 #@! TF.SameCoordinates,00F6E810-AA7A-4341-8B08-2EECE1974EB2*
G04*
G04*
G04 #@! TF.FilePolarity,Positive*
G04*
G01*
G75*
G04:AMPARAMS|DCode=14|XSize=0.72mm|YSize=0.99mm|CornerRadius=0.09mm|HoleSize=0mm|Usage=FLASHONLY|Rotation=90.000|XOffset=0mm|YOffset=0mm|HoleType=Round|Shape=RoundedRectangle|*
%AMROUNDEDRECTD14*
21,1,0.7200,0.8100,0,0,90.0*
21,1,0.5400,0.9900,0,0,90.0*
1,1,0.1800,0.4050,0.2700*
1,1,0.1800,0.4050,-0.2700*
1,1,0.1800,-0.4050,-0.2700*
1,1,0.1800,-0.4050,0.2700*
%
%ADD14ROUNDEDRECTD14*%
G04:AMPARAMS|DCode=17|XSize=1.4mm|YSize=1.05mm|CornerRadius=0.1313mm|HoleSize=0mm|Usage=FLASHONLY|Rotation=90.000|XOffset=0mm|YOffset=0mm|HoleType=Round|Shape=RoundedRectangle|*
%AMROUNDEDRECTD17*
21,1,1.4000,0.7875,0,0,90.0*
21,1,1.1375,1.0500,0,0,90.0*
1,1,0.2625,0.3938,0.5688*
1,1,0.2625,0.3938,-0.5688*
1,1,0.2625,-0.3938,-0.5688*
1,1,0.2625,-0.3938,0.5688*
%
%ADD17ROUNDEDRECTD17*%
G04:AMPARAMS|DCode=18|XSize=0.72mm|YSize=0.99mm|CornerRadius=0.09mm|HoleSize=0mm|Usage=FLASHONLY|Rotation=0.000|XOffset=0mm|YOffset=0mm|HoleType=Round|Shape=RoundedRectangle|*
%AMROUNDEDRECTD18*
21,1,0.7200,0.8100,0,0,0.0*
21,1,0.5400,0.9900,0,0,0.0*
1,1,0.1800,0.2700,-0.4050*
1,1,0.1800,-0.2700,-0.4050*
1,1,0.1800,-0.2700,0.4050*
1,1,0.1800,0.2700,0.4050*
%
%ADD18ROUNDEDRECTD18*%
G04:AMPARAMS|DCode=37|XSize=0.9mm|YSize=1.7mm|CornerRadius=0.45mm|HoleSize=0mm|Usage=FLASHONLY|Rotation=270.000|XOffset=0mm|YOffset=0mm|HoleType=Round|Shape=RoundedRectangle|*
%AMROUNDEDRECTD37*
21,1,0.9000,0.8000,0,0,270.0*
21,1,0.0000,1.7000,0,0,270.0*
1,1,0.9000,-0.4000,0.0000*
1,1,0.9000,-0.4000,0.0000*
1,1,0.9000,0.4000,0.0000*
1,1,0.9000,0.4000,0.0000*
%
%ADD37ROUNDEDRECTD37*%
G04:AMPARAMS|DCode=38|XSize=0.9mm|YSize=2.4mm|CornerRadius=0.45mm|HoleSize=0mm|Usage=FLASHONLY|Rotation=270.000|XOffset=0mm|YOffset=0mm|HoleType=Round|Shape=RoundedRectangle|*
%AMROUNDEDRECTD38*
21,1,0.9000,1.5000,0,0,270.0*
21,1,0.0000,2.4000,0,0,270.0*
1,1,0.9000,-0.7500,0.0000*
1,1,0.9000,-0.7500,0.0000*
1,1,0.9000,0.7500,0.0000*
1,1,0.9000,0.7500,0.0000*
%
%ADD38ROUNDEDRECTD38*%
%ADD39C,0.6500*%
%ADD41C,2.5000*%
%ADD45C,1.5000*%
%ADD46C,6.0000*%
G04:AMPARAMS|DCode=49|XSize=1.2mm|YSize=2.7mm|CornerRadius=0.05mm|HoleSize=0mm|Usage=FLASHONLY|Rotation=270.000|XOffset=0mm|YOffset=0mm|HoleType=Round|Shape=RoundedRectangle|*
%AMROUNDEDRECTD49*
21,1,1.2000,2.6000,0,0,270.0*
21,1,1.1000,2.7000,0,0,270.0*
1,1,0.1000,-1.3000,-0.5500*
1,1,0.1000,-1.3000,0.5500*
1,1,0.1000,1.3000,0.5500*
1,1,0.1000,1.3000,-0.5500*
%
%ADD49ROUNDEDRECTD49*%
G04:AMPARAMS|DCode=50|XSize=2.7mm|YSize=1.1mm|CornerRadius=0.1375mm|HoleSize=0mm|Usage=FLASHONLY|Rotation=0.000|XOffset=0mm|YOffset=0mm|HoleType=Round|Shape=RoundedRectangle|*
%AMROUNDEDRECTD50*
21,1,2.7000,0.8250,0,0,0.0*
21,1,2.4250,1.1000,0,0,0.0*
1,1,0.2750,1.2125,-0.4125*
1,1,0.2750,-1.2125,-0.4125*
1,1,0.2750,-1.2125,0.4125*
1,1,0.2750,1.2125,0.4125*
%
%ADD50ROUNDEDRECTD50*%
G04:AMPARAMS|DCode=51|XSize=2mm|YSize=2mm|CornerRadius=0.2mm|HoleSize=0mm|Usage=FLASHONLY|Rotation=0.000|XOffset=0mm|YOffset=0mm|HoleType=Round|Shape=RoundedRectangle|*
%AMROUNDEDRECTD51*
21,1,2.0000,1.6000,0,0,0.0*
21,1,1.6000,2.0000,0,0,0.0*
1,1,0.4000,0.8000,-0.8000*
1,1,0.4000,-0.8000,-0.8000*
1,1,0.4000,-0.8000,0.8000*
1,1,0.4000,0.8000,0.8000*
%
%ADD51ROUNDEDRECTD51*%
G04:AMPARAMS|DCode=52|XSize=1.05mm|YSize=0.55mm|CornerRadius=0.0688mm|HoleSize=0mm|Usage=FLASHONLY|Rotation=90.000|XOffset=0mm|YOffset=0mm|HoleType=Round|Shape=RoundedRectangle|*
%AMROUNDEDRECTD52*
21,1,1.0500,0.4125,0,0,90.0*
21,1,0.9125,0.5500,0,0,90.0*
1,1,0.1375,0.2063,0.4563*
1,1,0.1375,0.2063,-0.4563*
1,1,0.1375,-0.2063,-0.4563*
1,1,0.1375,-0.2063,0.4563*
%
%ADD52ROUNDEDRECTD52*%
D14*
X-333250Y57600D02*
D03*
Y71400D02*
D03*
X-375742Y130964D02*
D03*
Y144764D02*
D03*
X-317750Y99650D02*
D03*
Y85850D02*
D03*
X-317750Y57600D02*
D03*
X-317750Y71400D02*
D03*
X-317778Y25449D02*
D03*
Y39249D02*
D03*
D17*
X-335750Y128299D02*
D03*
X-316750D02*
D03*
X-335750Y148349D02*
D03*
X-316750Y148349D02*
D03*
X-275278Y148349D02*
D03*
X-294278D02*
D03*
X-275335Y128299D02*
D03*
X-294335Y128299D02*
D03*
D18*
X-312350Y164500D02*
D03*
X-326250Y164500D02*
D03*
D37*
X-388350Y43250D02*
D03*
Y-43250D02*
D03*
D38*
X-354550Y43250D02*
D03*
Y-43250D02*
D03*
D39*
X-344750Y29750D02*
D03*
Y21250D02*
D03*
Y12750D02*
D03*
Y4250D02*
D03*
Y-4250D02*
D03*
Y-12750D02*
D03*
Y-21250D02*
D03*
Y-29750D02*
D03*
X-358250D02*
D03*
Y-21250D02*
D03*
Y-12750D02*
D03*
Y-4250D02*
D03*
Y4250D02*
D03*
Y12750D02*
D03*
Y21250D02*
D03*
Y29750D02*
D03*
D41*
X365249Y-38001D02*
D03*
Y37999D02*
D03*
D45*
X-352000Y108700D02*
D03*
Y83300D02*
D03*
D46*
X204000Y0D02*
D03*
D49*
X-246000Y108250D02*
D03*
Y86250D02*
D03*
D50*
X-291778Y52349D02*
D03*
X-291778Y22349D02*
D03*
X-187778Y5349D02*
D03*
Y35349D02*
D03*
X-291778Y-28651D02*
D03*
Y1349D02*
D03*
X-187778Y-62651D02*
D03*
Y-32651D02*
D03*
X-291778Y-96651D02*
D03*
Y-66651D02*
D03*
D51*
X-262278Y-30651D02*
D03*
X-217278Y-30651D02*
D03*
X-262278Y37437D02*
D03*
X-217278Y37437D02*
D03*
X-217278Y3349D02*
D03*
X-262278Y3349D02*
D03*
X-217278Y-64651D02*
D03*
X-262278Y-64651D02*
D03*
X-262278Y-98651D02*
D03*
X-217278Y-98651D02*
D03*
D52*
X-275278Y109707D02*
D03*
X-294278D02*
D03*
X-294278Y84707D02*
D03*
X-284778Y84707D02*
D03*
X-275278Y84707D02*
D03*
M02*
