M48
;Layer_Color=9474304
;FILE_FORMAT=4:4
METRIC,LZ
;TYPE=PLATED
T01F00S00C0.3000
T02F00S00C0.3556
T03F00S00C0.4000
T04F00S00C0.5000
T06F00S00C1.0000
T07F00S00C5.0000
;TYPE=NON_PLATED
T08F00S00C1.8000
%
T01
X00123Y-00134
X0014
X0014Y-00067
X00123
X00123Y0
X0014
X0010625
X000895
X0007275
X00056
X0003925
X000225
X0000575
X-00011
X-00028
X-0004475
X-000615
X-0007825
X-00095
X-0011175
X-0012875
X-001455
X-0016225
X-0016225Y-00067
X-001455
X-0012875
X-0011175
X-00095
X-0007825
X-000615
X-0004475
X-00028
X-00011
X0000575
X000225
X0003925
X00056
X0007275
X000895
X0010625
X0010625Y-00134
X000895
X0007275
X00056
X0003925
X000225
X0000575
X-00011
X-00028
X-0004475
X-000615
X-0007825
X-00095
X-0011175
X-0012875
X-001455
X-0016225
X-00179
X-0019575
X-002125
X-0022925
X-00246
X-00246Y0
X-00304097Y00033747
X-00301212Y0006715
X-0033325Y00079725
X-00324Y0011025
X-00305512Y00128299
Y00148349
X-00287478Y00094907
X-00246Y00067
X-002125
X-0019575
X-00179
X-0016225
X-001455
X-0012875
X-0011175
X-00095
X-0007825
X-000615
X-0004475
X-00028
X-00011
X0000575
X000225
X0003925
X00056
X0007275
X000895
X0010625
X0010625Y00134
X000895
X0007275
X00056
X0003925
X000225
X0000575
X-00011
X-00028
X-0004475
X-000615
X-0007825
X-00095
X-0011175
X-0012875
X-001455
X-0016225
X-00179
X-0019575
X-002125
X-0022925
X-00246
X00123
X0014
X0014Y00067
X00123
T02
X-00291778Y-00114151
T03
X-0035825Y-0002975
Y-0002125
Y-0001275
Y-0000425
Y0000425
X-0034475
Y-0000425
Y-0001275
Y-0002125
Y-0002975
Y0001275
Y0002125
Y0002975
X-0035825
Y0002125
Y0001275
T04
X0015Y-0018
X0021
X0027
X0033
X0039
X0009
X0003
X-0003
X-0009
X-0015
X-0021
X-0027
X-0033
X-0039
Y0018
X-0033
X-0027
X-0021
X-0015
X-0009
X-0003
X0003
X0009
X0015
X0021
X0027
X0033
X0039
T06
X-00352Y000833
Y001087
T07
X00204Y0
T08
X00365249Y-00038001
Y00037999
M30
