G04*
G04 #@! TF.GenerationSoftware,Altium Limited,Altium Designer,25.5.2 (35)*
G04*
G04 Layer_Color=65535*
%FSLAX44Y44*%
%MOMM*%
G71*
G04*
G04 #@! TF.SameCoordinates,66BBEA7A-A7EC-4E5F-A3F4-4FDE4E21C8D0*
G04*
G04*
G04 #@! TF.FilePolarity,Positive*
G04*
G01*
G75*
%ADD10C,0.1500*%
G36*
X107617Y-74550D02*
X108286D01*
X109523Y-75063D01*
X110470Y-76010D01*
X110983Y-77247D01*
Y-77916D01*
Y-78586D01*
X110470Y-79823D01*
X109523Y-80770D01*
X108286Y-81282D01*
X107617D01*
X107617Y-81282D01*
X100885Y-81282D01*
X100216D01*
X98979Y-80770D01*
X98032Y-79823D01*
X97519Y-78586D01*
Y-77916D01*
Y-77247D01*
X98032Y-76010D01*
X98979Y-75063D01*
X100216Y-74550D01*
X100885D01*
X100885Y-74550D01*
X107617Y-74550D01*
D02*
G37*
G36*
Y-65575D02*
X108286D01*
X109523Y-66087D01*
X110470Y-67034D01*
X110983Y-68271D01*
Y-68941D01*
Y-69610D01*
X110470Y-70847D01*
X109523Y-71794D01*
X108286Y-72306D01*
X107617D01*
X107617D01*
X100885Y-72306D01*
X100216D01*
X98979Y-71794D01*
X98032Y-70847D01*
X97519Y-69610D01*
Y-68941D01*
Y-68271D01*
X98032Y-67034D01*
X98979Y-66087D01*
X100216Y-65575D01*
X100885D01*
Y-65575D01*
X107617Y-65575D01*
D02*
G37*
G36*
X107617Y-56599D02*
X108286D01*
X109523Y-57112D01*
X110470Y-58058D01*
X110983Y-59296D01*
Y-59965D01*
Y-60634D01*
X110470Y-61872D01*
X109523Y-62818D01*
X108286Y-63331D01*
X107617D01*
X107617Y-63331D01*
X100885Y-63331D01*
X100216D01*
X98979Y-62818D01*
X98032Y-61872D01*
X97519Y-60634D01*
Y-59965D01*
Y-59296D01*
X98032Y-58059D01*
X98979Y-57112D01*
X100216Y-56599D01*
X100885D01*
X100885Y-56599D01*
X107617Y-56599D01*
D02*
G37*
G36*
X107617Y-47624D02*
X108286D01*
X109523Y-48136D01*
X110470Y-49083D01*
X110983Y-50320D01*
Y-50989D01*
Y-51659D01*
X110470Y-52896D01*
X109523Y-53843D01*
X108286Y-54355D01*
X107617D01*
X107617Y-54355D01*
X100885Y-54356D01*
X100215D01*
X98978Y-53843D01*
X98032Y-52896D01*
X97519Y-51659D01*
Y-50990D01*
Y-50320D01*
X98032Y-49083D01*
X98978Y-48136D01*
X100215Y-47624D01*
X100885D01*
X100885Y-47624D01*
X107617Y-47624D01*
D02*
G37*
G36*
X89806Y-3244D02*
X90014Y-3265D01*
X90243Y-3286D01*
X90743Y-3369D01*
X90785D01*
X90868Y-3390D01*
X90993Y-3432D01*
X91159Y-3474D01*
X91347Y-3515D01*
X91555Y-3578D01*
X91972Y-3724D01*
X91993D01*
X92076Y-3765D01*
X92180Y-3807D01*
X92305Y-3848D01*
X92472Y-3932D01*
X92638Y-3994D01*
X92992Y-4202D01*
X93013Y-4223D01*
X93076Y-4244D01*
X93138Y-4307D01*
X93242Y-4369D01*
X93450Y-4515D01*
X93534Y-4577D01*
X93617Y-4661D01*
X93638Y-4682D01*
X93721Y-4765D01*
X93784Y-4848D01*
X93846Y-4931D01*
X93867Y-4952D01*
X93888Y-4994D01*
X93909Y-5056D01*
X93930Y-5140D01*
Y-5161D01*
X93950Y-5202D01*
X93971Y-5286D01*
X93992Y-5390D01*
Y-5411D01*
X94013Y-5473D01*
Y-5556D01*
Y-5640D01*
Y-5660D01*
Y-5744D01*
X93992Y-5869D01*
X93971Y-5994D01*
Y-6015D01*
X93950Y-6077D01*
X93930Y-6181D01*
X93888Y-6285D01*
Y-6306D01*
X93846Y-6348D01*
X93805Y-6431D01*
X93721Y-6494D01*
X93701Y-6514D01*
X93638Y-6535D01*
X93555Y-6556D01*
X93430Y-6577D01*
X93388D01*
X93263Y-6535D01*
X93076Y-6473D01*
X92971Y-6410D01*
X92846Y-6327D01*
X92826Y-6306D01*
X92784Y-6285D01*
X92722Y-6223D01*
X92638Y-6160D01*
X92513Y-6077D01*
X92388Y-5994D01*
X92055Y-5785D01*
X92034Y-5765D01*
X91972Y-5744D01*
X91868Y-5681D01*
X91722Y-5619D01*
X91555Y-5536D01*
X91368Y-5452D01*
X91139Y-5348D01*
X90889Y-5265D01*
X90868Y-5244D01*
X90764Y-5223D01*
X90639Y-5181D01*
X90451Y-5140D01*
X90201Y-5098D01*
X89931Y-5056D01*
X89639Y-5015D01*
X89139D01*
X88931Y-5036D01*
X88681Y-5056D01*
X88410Y-5119D01*
X88077Y-5181D01*
X87765Y-5286D01*
X87431Y-5431D01*
X87390Y-5452D01*
X87285Y-5515D01*
X87140Y-5598D01*
X86931Y-5723D01*
X86723Y-5890D01*
X86473Y-6098D01*
X86223Y-6348D01*
X85994Y-6619D01*
X85973Y-6660D01*
X85890Y-6764D01*
X85786Y-6931D01*
X85640Y-7160D01*
X85494Y-7452D01*
X85328Y-7785D01*
X85182Y-8181D01*
X85036Y-8597D01*
Y-8618D01*
X85015Y-8660D01*
Y-8722D01*
X84994Y-8806D01*
X84953Y-8910D01*
X84932Y-9056D01*
X84869Y-9389D01*
X84807Y-9784D01*
X84765Y-10243D01*
X84724Y-10763D01*
X84703Y-11326D01*
Y-11346D01*
Y-11388D01*
Y-11472D01*
Y-11576D01*
Y-11701D01*
X84724Y-11867D01*
X84744Y-12221D01*
X84786Y-12638D01*
X84828Y-13075D01*
X84911Y-13534D01*
X85015Y-13971D01*
Y-13992D01*
X85036Y-14013D01*
X85057Y-14075D01*
X85078Y-14158D01*
X85140Y-14367D01*
X85244Y-14637D01*
X85369Y-14929D01*
X85536Y-15241D01*
X85702Y-15554D01*
X85911Y-15866D01*
X85932Y-15908D01*
X86015Y-15991D01*
X86140Y-16116D01*
X86327Y-16283D01*
X86536Y-16470D01*
X86786Y-16658D01*
X87056Y-16845D01*
X87369Y-17012D01*
X87410Y-17033D01*
X87515Y-17074D01*
X87702Y-17137D01*
X87952Y-17199D01*
X88244Y-17283D01*
X88577Y-17345D01*
X88952Y-17387D01*
X89347Y-17407D01*
X89493D01*
X89681Y-17387D01*
X89889D01*
X90139Y-17366D01*
X90410Y-17324D01*
X90680Y-17262D01*
X90930Y-17199D01*
X90951Y-17178D01*
X91034Y-17157D01*
X91159Y-17116D01*
X91326Y-17053D01*
X91514Y-16970D01*
X91701Y-16887D01*
X92076Y-16679D01*
X92097Y-16658D01*
X92159Y-16637D01*
X92263Y-16574D01*
X92367Y-16491D01*
X92638Y-16324D01*
X92930Y-16116D01*
X92951Y-16095D01*
X92992Y-16075D01*
X93055Y-16033D01*
X93138Y-15970D01*
X93346Y-15887D01*
X93450Y-15866D01*
X93555Y-15845D01*
X93638D01*
X93721Y-15887D01*
X93805Y-15929D01*
X93825Y-15949D01*
X93867Y-15970D01*
X93930Y-16033D01*
X93971Y-16137D01*
X93992Y-16158D01*
X94013Y-16220D01*
X94034Y-16304D01*
X94054Y-16408D01*
Y-16429D01*
X94075Y-16512D01*
Y-16616D01*
Y-16741D01*
Y-16762D01*
Y-16824D01*
Y-16908D01*
X94054Y-17012D01*
Y-17033D01*
X94034Y-17095D01*
X94013Y-17178D01*
X93992Y-17262D01*
Y-17283D01*
X93971Y-17324D01*
X93909Y-17470D01*
Y-17491D01*
X93867Y-17533D01*
X93805Y-17595D01*
X93721Y-17699D01*
X93701Y-17720D01*
X93617Y-17803D01*
X93534Y-17845D01*
X93450Y-17928D01*
X93346Y-17991D01*
X93201Y-18095D01*
X93180Y-18116D01*
X93138Y-18137D01*
X93034Y-18178D01*
X92930Y-18261D01*
X92784Y-18324D01*
X92617Y-18428D01*
X92409Y-18511D01*
X92201Y-18615D01*
X92180Y-18636D01*
X92097Y-18657D01*
X91972Y-18699D01*
X91805Y-18761D01*
X91618Y-18824D01*
X91389Y-18907D01*
X91118Y-18970D01*
X90847Y-19053D01*
X90805D01*
X90722Y-19074D01*
X90555Y-19095D01*
X90347Y-19136D01*
X90097Y-19157D01*
X89826Y-19199D01*
X89493Y-19219D01*
X88910D01*
X88785Y-19199D01*
X88618D01*
X88264Y-19157D01*
X87848Y-19095D01*
X87390Y-19011D01*
X86931Y-18886D01*
X86452Y-18720D01*
X86432D01*
X86390Y-18699D01*
X86327Y-18657D01*
X86244Y-18615D01*
X86036Y-18511D01*
X85744Y-18324D01*
X85411Y-18116D01*
X85078Y-17866D01*
X84724Y-17553D01*
X84390Y-17199D01*
Y-17178D01*
X84349Y-17157D01*
X84307Y-17095D01*
X84245Y-17012D01*
X84099Y-16803D01*
X83911Y-16512D01*
X83703Y-16158D01*
X83474Y-15741D01*
X83266Y-15262D01*
X83078Y-14741D01*
Y-14721D01*
X83057Y-14679D01*
X83036Y-14596D01*
X83016Y-14492D01*
X82974Y-14346D01*
X82932Y-14179D01*
X82891Y-13992D01*
X82870Y-13783D01*
X82828Y-13554D01*
X82787Y-13283D01*
X82703Y-12721D01*
X82662Y-12096D01*
X82641Y-11430D01*
Y-11409D01*
Y-11346D01*
Y-11242D01*
Y-11117D01*
X82662Y-10951D01*
Y-10742D01*
X82683Y-10534D01*
X82703Y-10284D01*
X82766Y-9764D01*
X82849Y-9201D01*
X82953Y-8618D01*
X83120Y-8035D01*
Y-8014D01*
X83141Y-7972D01*
X83161Y-7889D01*
X83203Y-7785D01*
X83266Y-7639D01*
X83328Y-7493D01*
X83474Y-7139D01*
X83661Y-6744D01*
X83890Y-6306D01*
X84161Y-5869D01*
X84474Y-5452D01*
X84494Y-5431D01*
X84515Y-5411D01*
X84640Y-5265D01*
X84828Y-5077D01*
X85078Y-4848D01*
X85390Y-4577D01*
X85765Y-4307D01*
X86161Y-4036D01*
X86619Y-3807D01*
X86640D01*
X86681Y-3786D01*
X86744Y-3744D01*
X86848Y-3724D01*
X86952Y-3661D01*
X87098Y-3619D01*
X87431Y-3515D01*
X87848Y-3411D01*
X88306Y-3307D01*
X88827Y-3244D01*
X89368Y-3224D01*
X89618D01*
X89806Y-3244D01*
D02*
G37*
G36*
X124734Y-3328D02*
X124901Y-3349D01*
X124943D01*
X125026Y-3369D01*
X125130Y-3411D01*
X125234Y-3494D01*
X125255Y-3515D01*
X125296Y-3578D01*
X125359Y-3682D01*
Y-3807D01*
Y-3828D01*
Y-3911D01*
X125338Y-4036D01*
X125296Y-4161D01*
X120069Y-18657D01*
X120048Y-18678D01*
X120027Y-18741D01*
X119902Y-18907D01*
X119881Y-18928D01*
X119840Y-18970D01*
X119756Y-19011D01*
X119652Y-19053D01*
X119631D01*
X119548Y-19074D01*
X119444Y-19095D01*
X119319Y-19115D01*
X119215D01*
X119090Y-19136D01*
X118757D01*
X118652Y-19115D01*
X118486D01*
X118403Y-19095D01*
X118382D01*
X118340Y-19074D01*
X118194Y-19053D01*
X118173D01*
X118132Y-19032D01*
X118007Y-18970D01*
X117986Y-18949D01*
X117965Y-18928D01*
X117861Y-18845D01*
Y-18824D01*
X117819Y-18803D01*
X117778Y-18699D01*
X112550Y-4161D01*
Y-4119D01*
X112529Y-4036D01*
X112508Y-3932D01*
X112487Y-3786D01*
Y-3744D01*
X112508Y-3661D01*
X112550Y-3557D01*
X112633Y-3474D01*
X112654Y-3453D01*
X112737Y-3411D01*
X112862Y-3369D01*
X113008Y-3349D01*
X113050D01*
X113154Y-3328D01*
X113320Y-3307D01*
X113654D01*
X113779Y-3328D01*
X113904Y-3349D01*
X113945D01*
X114008Y-3369D01*
X114112Y-3390D01*
X114195Y-3432D01*
X114216D01*
X114258Y-3474D01*
X114320Y-3515D01*
X114383Y-3578D01*
X114403Y-3598D01*
X114424Y-3640D01*
X114487Y-3703D01*
X114529Y-3807D01*
X118994Y-16501D01*
X123339Y-3786D01*
Y-3765D01*
X123359Y-3724D01*
X123443Y-3598D01*
X123464Y-3578D01*
X123484Y-3536D01*
X123568Y-3474D01*
X123651Y-3432D01*
X123672Y-3411D01*
X123755Y-3390D01*
X123859Y-3369D01*
X123984Y-3349D01*
X124026D01*
X124109Y-3328D01*
X124255Y-3307D01*
X124588D01*
X124734Y-3328D01*
D02*
G37*
G36*
X109446Y-3411D02*
X109551Y-3453D01*
X109571Y-3474D01*
X109634Y-3494D01*
X109717Y-3557D01*
X109780Y-3640D01*
X109801Y-3661D01*
X109842Y-3724D01*
X109884Y-3807D01*
X109925Y-3932D01*
Y-3953D01*
X109946Y-4015D01*
X109967Y-4119D01*
Y-4244D01*
Y-4265D01*
Y-4307D01*
Y-4369D01*
X109946Y-4453D01*
X109905Y-4661D01*
X109801Y-4869D01*
Y-4890D01*
X109780Y-4911D01*
X109676Y-4994D01*
X109509Y-5098D01*
X109405Y-5119D01*
X109280Y-5140D01*
X103719D01*
Y-9472D01*
X103781D01*
X103844Y-9451D01*
X104031D01*
X104177Y-9430D01*
X104531D01*
X104677Y-9409D01*
X105718D01*
X105864Y-9430D01*
X106176Y-9451D01*
X106551Y-9493D01*
X106968Y-9555D01*
X107385Y-9639D01*
X107780Y-9764D01*
X107801D01*
X107822Y-9784D01*
X107947Y-9826D01*
X108155Y-9909D01*
X108384Y-10014D01*
X108655Y-10138D01*
X108947Y-10305D01*
X109238Y-10493D01*
X109509Y-10722D01*
X109551Y-10742D01*
X109634Y-10826D01*
X109759Y-10951D01*
X109905Y-11138D01*
X110071Y-11346D01*
X110238Y-11596D01*
X110405Y-11867D01*
X110550Y-12180D01*
X110571Y-12221D01*
X110613Y-12326D01*
X110654Y-12492D01*
X110738Y-12721D01*
X110800Y-12992D01*
X110842Y-13304D01*
X110884Y-13638D01*
X110904Y-13992D01*
Y-14013D01*
Y-14054D01*
Y-14117D01*
Y-14200D01*
X110884Y-14429D01*
X110842Y-14741D01*
X110800Y-15096D01*
X110717Y-15470D01*
X110613Y-15866D01*
X110467Y-16241D01*
Y-16262D01*
X110446Y-16283D01*
X110384Y-16408D01*
X110300Y-16595D01*
X110155Y-16824D01*
X109988Y-17074D01*
X109801Y-17366D01*
X109551Y-17637D01*
X109280Y-17907D01*
X109238Y-17928D01*
X109134Y-18011D01*
X108988Y-18137D01*
X108759Y-18303D01*
X108488Y-18470D01*
X108176Y-18636D01*
X107822Y-18803D01*
X107447Y-18949D01*
X107426D01*
X107405Y-18970D01*
X107343D01*
X107260Y-18990D01*
X107051Y-19053D01*
X106760Y-19115D01*
X106426Y-19178D01*
X106031Y-19219D01*
X105593Y-19261D01*
X105135Y-19282D01*
X104864D01*
X104677Y-19261D01*
X104468D01*
X104239Y-19240D01*
X103740Y-19178D01*
X103719D01*
X103635Y-19157D01*
X103511Y-19136D01*
X103365Y-19115D01*
X103177Y-19074D01*
X102990Y-19032D01*
X102594Y-18928D01*
X102573D01*
X102511Y-18907D01*
X102427Y-18865D01*
X102302Y-18824D01*
X102032Y-18720D01*
X101740Y-18595D01*
X101719D01*
X101678Y-18574D01*
X101553Y-18491D01*
X101407Y-18407D01*
X101282Y-18324D01*
X101261Y-18303D01*
X101219Y-18261D01*
X101178Y-18199D01*
X101136Y-18137D01*
Y-18116D01*
X101115Y-18074D01*
X101053Y-17970D01*
Y-17949D01*
X101032Y-17907D01*
Y-17824D01*
X101011Y-17741D01*
Y-17720D01*
Y-17657D01*
Y-17553D01*
Y-17428D01*
Y-17407D01*
Y-17324D01*
Y-17241D01*
Y-17137D01*
Y-17116D01*
X101032Y-17053D01*
X101053Y-16970D01*
X101094Y-16866D01*
X101115Y-16845D01*
X101136Y-16783D01*
X101199Y-16720D01*
X101282Y-16658D01*
X101303Y-16637D01*
X101365Y-16616D01*
X101448Y-16595D01*
X101553Y-16574D01*
X101594D01*
X101678Y-16595D01*
X101823Y-16637D01*
X102011Y-16741D01*
X102032D01*
X102052Y-16762D01*
X102115Y-16803D01*
X102198Y-16845D01*
X102407Y-16970D01*
X102698Y-17095D01*
X102719D01*
X102781Y-17116D01*
X102865Y-17157D01*
X102990Y-17199D01*
X103136Y-17241D01*
X103323Y-17303D01*
X103531Y-17345D01*
X103740Y-17407D01*
X103760D01*
X103844Y-17428D01*
X103989Y-17449D01*
X104156Y-17470D01*
X104385Y-17512D01*
X104635Y-17533D01*
X104906Y-17553D01*
X105343D01*
X105510Y-17533D01*
X105697D01*
X105927Y-17512D01*
X106176Y-17470D01*
X106676Y-17366D01*
X106697D01*
X106801Y-17324D01*
X106926Y-17283D01*
X107072Y-17220D01*
X107260Y-17137D01*
X107468Y-17033D01*
X107843Y-16783D01*
X107864Y-16762D01*
X107926Y-16699D01*
X108009Y-16616D01*
X108134Y-16491D01*
X108259Y-16345D01*
X108384Y-16158D01*
X108509Y-15949D01*
X108613Y-15720D01*
X108634Y-15700D01*
X108655Y-15595D01*
X108697Y-15470D01*
X108759Y-15283D01*
X108822Y-15054D01*
X108863Y-14783D01*
X108884Y-14471D01*
X108905Y-14138D01*
Y-14096D01*
Y-14013D01*
X108884Y-13867D01*
Y-13679D01*
X108842Y-13471D01*
X108801Y-13242D01*
X108738Y-13013D01*
X108655Y-12804D01*
Y-12784D01*
X108613Y-12700D01*
X108551Y-12596D01*
X108488Y-12471D01*
X108384Y-12326D01*
X108259Y-12180D01*
X108113Y-12013D01*
X107947Y-11867D01*
X107926Y-11846D01*
X107864Y-11805D01*
X107759Y-11742D01*
X107614Y-11659D01*
X107426Y-11555D01*
X107218Y-11472D01*
X106968Y-11388D01*
X106676Y-11305D01*
X106635D01*
X106531Y-11263D01*
X106385Y-11242D01*
X106156Y-11201D01*
X105906Y-11159D01*
X105593Y-11138D01*
X105260Y-11097D01*
X104468D01*
X104281Y-11117D01*
X104073Y-11138D01*
X103677Y-11180D01*
X103656D01*
X103594Y-11201D01*
X103490D01*
X103365Y-11222D01*
X103219Y-11242D01*
X103073D01*
X102719Y-11263D01*
X102656D01*
X102573Y-11242D01*
X102490D01*
X102282Y-11180D01*
X102094Y-11055D01*
Y-11034D01*
X102052Y-11013D01*
X102032Y-10951D01*
X101990Y-10868D01*
X101948Y-10763D01*
X101927Y-10638D01*
X101886Y-10472D01*
Y-10284D01*
Y-4307D01*
Y-4286D01*
Y-4244D01*
X101907Y-4161D01*
X101927Y-4057D01*
X101990Y-3848D01*
X102052Y-3744D01*
X102136Y-3640D01*
X102157Y-3619D01*
X102177Y-3598D01*
X102240Y-3557D01*
X102323Y-3494D01*
X102531Y-3411D01*
X102656Y-3390D01*
X102802Y-3369D01*
X109363D01*
X109446Y-3411D01*
D02*
G37*
G36*
X73581Y-3390D02*
X73789D01*
X73997Y-3411D01*
X74247Y-3432D01*
X74768Y-3515D01*
X75330Y-3598D01*
X75893Y-3744D01*
X76434Y-3932D01*
X76455D01*
X76497Y-3953D01*
X76580Y-3994D01*
X76663Y-4036D01*
X76788Y-4078D01*
X76934Y-4161D01*
X77246Y-4327D01*
X77621Y-4557D01*
X78017Y-4827D01*
X78392Y-5140D01*
X78767Y-5494D01*
X78788Y-5515D01*
X78808Y-5536D01*
X78850Y-5598D01*
X78913Y-5681D01*
X79079Y-5890D01*
X79288Y-6160D01*
X79517Y-6514D01*
X79767Y-6931D01*
X79996Y-7389D01*
X80183Y-7910D01*
Y-7931D01*
X80204Y-7972D01*
X80225Y-8056D01*
X80266Y-8160D01*
X80287Y-8285D01*
X80329Y-8431D01*
X80371Y-8618D01*
X80433Y-8826D01*
X80516Y-9285D01*
X80579Y-9805D01*
X80641Y-10368D01*
X80662Y-10992D01*
Y-11013D01*
Y-11076D01*
Y-11180D01*
Y-11326D01*
X80641Y-11492D01*
Y-11701D01*
X80620Y-11909D01*
X80600Y-12159D01*
X80537Y-12700D01*
X80454Y-13283D01*
X80329Y-13888D01*
X80162Y-14471D01*
Y-14492D01*
X80141Y-14533D01*
X80121Y-14617D01*
X80079Y-14721D01*
X80016Y-14846D01*
X79954Y-15012D01*
X79787Y-15366D01*
X79579Y-15762D01*
X79329Y-16179D01*
X79017Y-16616D01*
X78663Y-17012D01*
X78642Y-17033D01*
X78621Y-17053D01*
X78559Y-17116D01*
X78496Y-17178D01*
X78288Y-17366D01*
X77996Y-17595D01*
X77642Y-17845D01*
X77246Y-18095D01*
X76767Y-18345D01*
X76267Y-18553D01*
X76247D01*
X76205Y-18574D01*
X76122Y-18595D01*
X76017Y-18636D01*
X75872Y-18678D01*
X75726Y-18720D01*
X75518Y-18761D01*
X75309Y-18803D01*
X75080Y-18865D01*
X74809Y-18907D01*
X74247Y-18990D01*
X73581Y-19053D01*
X72873Y-19074D01*
X69832D01*
X69769Y-19053D01*
X69686D01*
X69498Y-18990D01*
X69269Y-18865D01*
X69248Y-18845D01*
X69228Y-18824D01*
X69186Y-18761D01*
X69123Y-18699D01*
X69061Y-18595D01*
X69019Y-18449D01*
X68998Y-18282D01*
X68978Y-18095D01*
Y-4348D01*
Y-4327D01*
Y-4265D01*
X68998Y-4161D01*
X69019Y-4057D01*
X69103Y-3807D01*
X69165Y-3682D01*
X69269Y-3598D01*
X69290Y-3578D01*
X69332Y-3557D01*
X69394Y-3515D01*
X69457Y-3474D01*
X69665Y-3411D01*
X69769Y-3369D01*
X73414D01*
X73581Y-3390D01*
D02*
G37*
G36*
X-170824Y70780D02*
X-170659Y70757D01*
X-170329Y70686D01*
X-170187Y70591D01*
X-170045Y70497D01*
X-170022Y70473D01*
X-169998Y70450D01*
X-169951Y70355D01*
X-169880Y70261D01*
X-169833Y70120D01*
X-169786Y69931D01*
X-169762Y69718D01*
X-169739Y69459D01*
Y69435D01*
Y69341D01*
X-169762Y69199D01*
X-169786Y69034D01*
X-169880Y68704D01*
X-169951Y68538D01*
X-170069Y68397D01*
X-170093Y68373D01*
X-170116Y68350D01*
X-170210Y68302D01*
X-170305Y68255D01*
X-170446Y68184D01*
X-170635Y68137D01*
X-170848Y68114D01*
X-171084Y68090D01*
X-171202D01*
X-171320Y68114D01*
X-171485Y68137D01*
X-171815Y68208D01*
X-171957Y68279D01*
X-172098Y68373D01*
Y68397D01*
X-172146Y68444D01*
X-172193Y68515D01*
X-172240Y68633D01*
X-172287Y68774D01*
X-172334Y68963D01*
X-172358Y69176D01*
X-172381Y69435D01*
Y69459D01*
Y69553D01*
X-172358Y69695D01*
X-172334Y69860D01*
X-172263Y70214D01*
X-172193Y70355D01*
X-172098Y70497D01*
X-172075Y70521D01*
X-172027Y70544D01*
X-171957Y70591D01*
X-171862Y70662D01*
X-171721Y70709D01*
X-171532Y70757D01*
X-171320Y70780D01*
X-171060Y70804D01*
X-170942D01*
X-170824Y70780D01*
D02*
G37*
G36*
X17147Y70780D02*
X17430Y70757D01*
X17736Y70733D01*
X18374Y70615D01*
X18421D01*
X18515Y70592D01*
X18680Y70544D01*
X18893Y70497D01*
X19129Y70426D01*
X19388Y70356D01*
X19931Y70167D01*
X19955D01*
X20049Y70120D01*
X20190Y70072D01*
X20356Y70002D01*
X20733Y69813D01*
X21111Y69600D01*
X21134Y69577D01*
X21181Y69553D01*
X21276Y69482D01*
X21394Y69412D01*
X21606Y69246D01*
X21701Y69176D01*
X21795Y69081D01*
X21819Y69058D01*
X21913Y68963D01*
X22007Y68822D01*
X22078Y68680D01*
X22102Y68633D01*
X22125Y68538D01*
X22149Y68373D01*
X22173Y68137D01*
Y68114D01*
Y68043D01*
X22149Y67925D01*
X22125Y67783D01*
Y67760D01*
X22102Y67666D01*
X22078Y67547D01*
X22031Y67429D01*
X22007Y67406D01*
X21984Y67359D01*
X21913Y67264D01*
X21819Y67193D01*
X21795Y67170D01*
X21724Y67146D01*
X21630Y67123D01*
X21512Y67099D01*
X21465D01*
X21323Y67146D01*
X21134Y67217D01*
X20993Y67288D01*
X20851Y67382D01*
X20828Y67406D01*
X20780Y67429D01*
X20710Y67477D01*
X20592Y67571D01*
X20450Y67642D01*
X20285Y67736D01*
X20096Y67854D01*
X19884Y67949D01*
X19860Y67972D01*
X19789Y67996D01*
X19648Y68067D01*
X19483Y68137D01*
X19270Y68232D01*
X19034Y68326D01*
X18751Y68421D01*
X18444Y68515D01*
X18397Y68538D01*
X18303Y68562D01*
X18114Y68609D01*
X17878Y68657D01*
X17571Y68704D01*
X17241Y68751D01*
X16863Y68798D01*
X16203D01*
X16061Y68774D01*
X15919D01*
X15566Y68727D01*
X15164Y68657D01*
X14716Y68562D01*
X14291Y68444D01*
X13843Y68255D01*
X13819D01*
X13796Y68232D01*
X13654Y68161D01*
X13442Y68043D01*
X13182Y67878D01*
X12875Y67666D01*
X12545Y67406D01*
X12215Y67099D01*
X11908Y66769D01*
X11884Y66722D01*
X11790Y66604D01*
X11648Y66391D01*
X11460Y66132D01*
X11271Y65801D01*
X11082Y65424D01*
X10870Y64999D01*
X10705Y64527D01*
Y64503D01*
X10681Y64480D01*
X10657Y64409D01*
X10634Y64291D01*
X10610Y64173D01*
X10587Y64032D01*
X10516Y63678D01*
X10421Y63277D01*
X10374Y62781D01*
X10327Y62262D01*
X10303Y61695D01*
Y61672D01*
Y61625D01*
Y61530D01*
Y61412D01*
X10327Y61271D01*
Y61082D01*
X10374Y60681D01*
X10421Y60209D01*
X10492Y59713D01*
X10610Y59194D01*
X10775Y58675D01*
Y58652D01*
X10799Y58628D01*
X10823Y58557D01*
X10870Y58463D01*
X10964Y58203D01*
X11106Y57896D01*
X11294Y57543D01*
X11530Y57189D01*
X11790Y56811D01*
X12073Y56457D01*
X12120Y56410D01*
X12215Y56315D01*
X12404Y56150D01*
X12639Y55962D01*
X12923Y55726D01*
X13253Y55513D01*
X13631Y55277D01*
X14055Y55089D01*
X14079D01*
X14102Y55065D01*
X14173Y55041D01*
X14268Y55018D01*
X14504Y54947D01*
X14810Y54876D01*
X15188Y54782D01*
X15613Y54711D01*
X16085Y54664D01*
X16580Y54640D01*
X16722D01*
X16911Y54664D01*
X17123D01*
X17406Y54687D01*
X17689Y54735D01*
X18350Y54852D01*
X18397D01*
X18515Y54900D01*
X18680Y54947D01*
X18893Y54994D01*
X19152Y55089D01*
X19412Y55183D01*
X19671Y55301D01*
X19931Y55419D01*
Y60587D01*
X15754D01*
X15613Y60634D01*
X15424Y60704D01*
X15330Y60775D01*
X15259Y60870D01*
Y60893D01*
X15235Y60917D01*
X15188Y61058D01*
X15141Y61294D01*
X15117Y61578D01*
Y61625D01*
Y61695D01*
Y61837D01*
X15141Y61955D01*
Y61979D01*
X15164Y62073D01*
X15188Y62168D01*
X15235Y62262D01*
X15259Y62285D01*
X15306Y62356D01*
X15377Y62427D01*
X15471Y62498D01*
X15495Y62521D01*
X15566Y62545D01*
X15683Y62569D01*
X15825Y62592D01*
X21181D01*
X21300Y62569D01*
X21418Y62521D01*
X21441D01*
X21535Y62474D01*
X21653Y62427D01*
X21771Y62333D01*
X21795Y62309D01*
X21866Y62238D01*
X21960Y62120D01*
X22031Y61979D01*
X22055Y61932D01*
X22078Y61837D01*
X22102Y61672D01*
X22125Y61483D01*
Y55065D01*
Y55041D01*
Y54994D01*
Y54923D01*
X22102Y54829D01*
X22078Y54617D01*
X21984Y54381D01*
Y54357D01*
X21960Y54333D01*
X21866Y54215D01*
X21677Y54050D01*
X21559Y53956D01*
X21418Y53861D01*
X21394D01*
X21347Y53814D01*
X21252Y53767D01*
X21134Y53720D01*
X20993Y53649D01*
X20828Y53555D01*
X20615Y53460D01*
X20403Y53366D01*
X20379D01*
X20308Y53319D01*
X20190Y53271D01*
X20025Y53224D01*
X19836Y53154D01*
X19624Y53106D01*
X19129Y52965D01*
X19105D01*
X19011Y52941D01*
X18893Y52918D01*
X18727Y52870D01*
X18515Y52823D01*
X18303Y52776D01*
X17807Y52705D01*
X17784D01*
X17689Y52682D01*
X17571D01*
X17406Y52658D01*
X17217Y52634D01*
X16981D01*
X16509Y52611D01*
X16179D01*
X15990Y52634D01*
X15778D01*
X15542Y52658D01*
X15306Y52682D01*
X14740Y52776D01*
X14126Y52870D01*
X13513Y53036D01*
X12899Y53248D01*
X12875D01*
X12828Y53271D01*
X12758Y53319D01*
X12639Y53366D01*
X12498Y53437D01*
X12333Y53531D01*
X11979Y53720D01*
X11554Y53979D01*
X11106Y54310D01*
X10634Y54664D01*
X10209Y55089D01*
X10186Y55112D01*
X10162Y55136D01*
X10115Y55206D01*
X10020Y55301D01*
X9926Y55419D01*
X9832Y55560D01*
X9596Y55891D01*
X9312Y56315D01*
X9029Y56787D01*
X8770Y57330D01*
X8534Y57920D01*
Y57944D01*
X8510Y57991D01*
X8486Y58085D01*
X8439Y58203D01*
X8392Y58368D01*
X8345Y58557D01*
X8298Y58770D01*
X8251Y59005D01*
X8156Y59525D01*
X8062Y60162D01*
X7991Y60822D01*
X7967Y61554D01*
Y61578D01*
Y61648D01*
Y61766D01*
Y61908D01*
X7991Y62097D01*
Y62309D01*
X8015Y62545D01*
X8038Y62804D01*
X8109Y63394D01*
X8227Y64008D01*
X8368Y64669D01*
X8581Y65306D01*
Y65329D01*
X8605Y65377D01*
X8652Y65471D01*
X8699Y65589D01*
X8770Y65731D01*
X8841Y65919D01*
X9029Y66297D01*
X9289Y66769D01*
X9572Y67241D01*
X9926Y67736D01*
X10327Y68208D01*
X10351Y68232D01*
X10374Y68255D01*
X10445Y68326D01*
X10539Y68421D01*
X10775Y68633D01*
X11106Y68916D01*
X11507Y69223D01*
X11979Y69530D01*
X12498Y69836D01*
X13064Y70120D01*
X13088D01*
X13135Y70143D01*
X13229Y70190D01*
X13347Y70237D01*
X13489Y70285D01*
X13678Y70332D01*
X13866Y70403D01*
X14102Y70473D01*
X14622Y70592D01*
X15212Y70709D01*
X15872Y70780D01*
X16557Y70804D01*
X16911D01*
X17147Y70780D01*
D02*
G37*
G36*
X-66527Y71842D02*
X-66385Y71818D01*
X-66362D01*
X-66267Y71795D01*
X-66173Y71771D01*
X-66055Y71724D01*
X-66031Y71701D01*
X-65961Y71677D01*
X-65890Y71606D01*
X-65819Y71512D01*
X-65796Y71488D01*
X-65772Y71441D01*
X-65748Y71347D01*
X-65725Y71252D01*
Y53342D01*
Y53319D01*
Y53248D01*
X-65772Y53154D01*
X-65819Y53036D01*
X-65843Y53012D01*
X-65866Y52965D01*
X-65937Y52894D01*
X-66031Y52823D01*
X-66055D01*
X-66126Y52800D01*
X-66220Y52776D01*
X-66338Y52752D01*
X-66433D01*
X-66551Y52729D01*
X-66999D01*
X-67141Y52752D01*
X-67164D01*
X-67235Y52776D01*
X-67329Y52800D01*
X-67447Y52823D01*
X-67471Y52847D01*
X-67518Y52870D01*
X-67660Y53012D01*
X-67683Y53036D01*
X-67707Y53106D01*
X-67730Y53201D01*
X-67754Y53342D01*
Y54782D01*
X-67778Y54735D01*
X-67849Y54616D01*
X-67966Y54428D01*
X-68155Y54215D01*
X-68368Y53956D01*
X-68651Y53696D01*
X-68981Y53413D01*
X-69359Y53177D01*
X-69406Y53154D01*
X-69547Y53083D01*
X-69760Y52988D01*
X-70043Y52870D01*
X-70397Y52752D01*
X-70798Y52658D01*
X-71246Y52587D01*
X-71718Y52564D01*
X-71954D01*
X-72214Y52587D01*
X-72521Y52634D01*
X-72898Y52682D01*
X-73299Y52776D01*
X-73700Y52918D01*
X-74078Y53083D01*
X-74125Y53106D01*
X-74243Y53177D01*
X-74408Y53295D01*
X-74644Y53460D01*
X-74880Y53673D01*
X-75163Y53932D01*
X-75423Y54215D01*
X-75659Y54546D01*
X-75683Y54593D01*
X-75753Y54711D01*
X-75871Y54900D01*
X-75989Y55159D01*
X-76154Y55466D01*
X-76296Y55820D01*
X-76438Y56245D01*
X-76556Y56669D01*
Y56693D01*
Y56717D01*
X-76579Y56787D01*
X-76603Y56882D01*
X-76626Y57118D01*
X-76674Y57448D01*
X-76721Y57826D01*
X-76768Y58250D01*
X-76792Y58722D01*
X-76815Y59218D01*
Y59241D01*
Y59289D01*
Y59359D01*
Y59477D01*
Y59619D01*
X-76792Y59784D01*
X-76768Y60162D01*
X-76744Y60587D01*
X-76674Y61082D01*
X-76603Y61554D01*
X-76485Y62049D01*
Y62073D01*
X-76461Y62097D01*
X-76438Y62167D01*
X-76414Y62262D01*
X-76343Y62498D01*
X-76225Y62804D01*
X-76084Y63135D01*
X-75895Y63512D01*
X-75683Y63866D01*
X-75447Y64220D01*
X-75423Y64268D01*
X-75329Y64362D01*
X-75187Y64527D01*
X-74975Y64739D01*
X-74739Y64975D01*
X-74432Y65211D01*
X-74102Y65424D01*
X-73748Y65636D01*
X-73724D01*
X-73700Y65660D01*
X-73559Y65707D01*
X-73347Y65801D01*
X-73063Y65896D01*
X-72709Y65990D01*
X-72308Y66084D01*
X-71860Y66132D01*
X-71388Y66155D01*
X-71199D01*
X-70963Y66132D01*
X-70680Y66084D01*
X-70350Y66037D01*
X-69996Y65943D01*
X-69642Y65801D01*
X-69264Y65636D01*
X-69217Y65613D01*
X-69099Y65542D01*
X-68934Y65424D01*
X-68722Y65259D01*
X-68509Y65070D01*
X-68273Y64834D01*
X-68061Y64551D01*
X-67872Y64244D01*
Y71252D01*
Y71276D01*
Y71347D01*
X-67825Y71512D01*
X-67801Y71535D01*
X-67778Y71582D01*
X-67683Y71653D01*
X-67589Y71724D01*
X-67565Y71748D01*
X-67495Y71771D01*
X-67376Y71795D01*
X-67259Y71818D01*
X-67235D01*
X-67141Y71842D01*
X-66999Y71866D01*
X-66669D01*
X-66527Y71842D01*
D02*
G37*
G36*
X45769Y66132D02*
X46052Y66108D01*
X46383Y66037D01*
X46737Y65967D01*
X47114Y65848D01*
X47445Y65707D01*
X47492Y65683D01*
X47586Y65636D01*
X47751Y65542D01*
X47940Y65400D01*
X48176Y65235D01*
X48412Y65046D01*
X48648Y64810D01*
X48860Y64551D01*
X48884Y64527D01*
X48955Y64433D01*
X49049Y64268D01*
X49167Y64079D01*
X49285Y63819D01*
X49427Y63536D01*
X49545Y63229D01*
X49639Y62875D01*
Y62828D01*
X49686Y62710D01*
X49710Y62498D01*
X49757Y62238D01*
X49804Y61908D01*
X49828Y61530D01*
X49875Y61106D01*
Y60634D01*
Y53342D01*
Y53319D01*
Y53248D01*
X49828Y53154D01*
X49781Y53059D01*
X49757Y53036D01*
X49710Y52988D01*
X49639Y52918D01*
X49545Y52847D01*
X49521D01*
X49450Y52823D01*
X49356Y52800D01*
X49238Y52776D01*
X49214D01*
X49120Y52752D01*
X48978Y52729D01*
X48624D01*
X48483Y52752D01*
X48341Y52776D01*
X48318D01*
X48247Y52800D01*
X48152Y52823D01*
X48034Y52847D01*
X48011Y52870D01*
X47964Y52894D01*
X47799Y53036D01*
Y53059D01*
X47775Y53130D01*
X47751Y53224D01*
X47728Y53342D01*
Y60492D01*
Y60516D01*
Y60539D01*
Y60681D01*
Y60870D01*
X47704Y61106D01*
X47681Y61389D01*
X47657Y61672D01*
X47610Y61955D01*
X47539Y62215D01*
Y62238D01*
X47515Y62333D01*
X47468Y62451D01*
X47421Y62616D01*
X47279Y62993D01*
X47067Y63347D01*
X47043Y63371D01*
X47020Y63418D01*
X46949Y63513D01*
X46855Y63607D01*
X46595Y63819D01*
X46265Y64032D01*
X46241Y64055D01*
X46170Y64079D01*
X46076Y64126D01*
X45958Y64173D01*
X45793Y64220D01*
X45604Y64244D01*
X45392Y64291D01*
X45014D01*
X44849Y64268D01*
X44637Y64220D01*
X44377Y64126D01*
X44094Y64032D01*
X43787Y63866D01*
X43457Y63654D01*
X43410Y63630D01*
X43315Y63536D01*
X43126Y63394D01*
X42914Y63206D01*
X42631Y62946D01*
X42324Y62639D01*
X41994Y62285D01*
X41663Y61884D01*
Y53342D01*
Y53319D01*
Y53248D01*
X41616Y53154D01*
X41569Y53059D01*
X41545Y53036D01*
X41498Y52988D01*
X41427Y52918D01*
X41333Y52847D01*
X41309D01*
X41239Y52823D01*
X41144Y52800D01*
X41026Y52776D01*
X41003D01*
X40908Y52752D01*
X40767Y52729D01*
X40413D01*
X40271Y52752D01*
X40130Y52776D01*
X40106D01*
X40035Y52800D01*
X39917Y52823D01*
X39799Y52847D01*
X39776Y52870D01*
X39705Y52894D01*
X39634Y52965D01*
X39563Y53059D01*
Y53083D01*
X39540Y53154D01*
X39516Y53248D01*
Y53342D01*
Y65400D01*
Y65424D01*
Y65495D01*
X39563Y65660D01*
X39587Y65683D01*
X39610Y65731D01*
X39681Y65801D01*
X39776Y65872D01*
X39799Y65896D01*
X39870Y65919D01*
X39988Y65943D01*
X40106Y65967D01*
X40130D01*
X40224Y65990D01*
X40366Y66014D01*
X40696D01*
X40814Y65990D01*
X40955Y65967D01*
X41003D01*
X41073Y65943D01*
X41191Y65919D01*
X41309Y65848D01*
X41333Y65825D01*
X41380Y65801D01*
X41451Y65731D01*
X41498Y65636D01*
X41522Y65613D01*
X41545Y65565D01*
X41569Y65495D01*
Y65400D01*
Y64008D01*
X41593Y64032D01*
X41663Y64150D01*
X41805Y64338D01*
X41994Y64574D01*
X42206Y64834D01*
X42489Y65117D01*
X42820Y65377D01*
X43197Y65589D01*
X43221D01*
X43244Y65613D01*
X43386Y65683D01*
X43598Y65778D01*
X43858Y65872D01*
X44188Y65967D01*
X44542Y66061D01*
X44920Y66132D01*
X45321Y66155D01*
X45533D01*
X45769Y66132D01*
D02*
G37*
G36*
X-83965Y66132D02*
X-83682Y66108D01*
X-83351Y66037D01*
X-82998Y65967D01*
X-82620Y65848D01*
X-82290Y65707D01*
X-82242Y65683D01*
X-82148Y65636D01*
X-81983Y65542D01*
X-81794Y65400D01*
X-81558Y65235D01*
X-81322Y65046D01*
X-81086Y64810D01*
X-80874Y64551D01*
X-80850Y64527D01*
X-80779Y64433D01*
X-80685Y64268D01*
X-80567Y64079D01*
X-80449Y63819D01*
X-80308Y63536D01*
X-80190Y63229D01*
X-80095Y62875D01*
Y62828D01*
X-80048Y62710D01*
X-80024Y62498D01*
X-79977Y62238D01*
X-79930Y61908D01*
X-79906Y61530D01*
X-79859Y61106D01*
Y60634D01*
Y53342D01*
Y53319D01*
Y53248D01*
X-79906Y53154D01*
X-79953Y53059D01*
X-79977Y53036D01*
X-80024Y52988D01*
X-80095Y52918D01*
X-80190Y52847D01*
X-80213D01*
X-80284Y52823D01*
X-80378Y52800D01*
X-80496Y52776D01*
X-80520D01*
X-80614Y52752D01*
X-80756Y52729D01*
X-81110D01*
X-81251Y52752D01*
X-81393Y52776D01*
X-81417D01*
X-81487Y52800D01*
X-81582Y52823D01*
X-81700Y52847D01*
X-81723Y52870D01*
X-81770Y52894D01*
X-81936Y53036D01*
Y53059D01*
X-81959Y53130D01*
X-81983Y53224D01*
X-82006Y53342D01*
Y60492D01*
Y60516D01*
Y60539D01*
Y60681D01*
Y60870D01*
X-82030Y61106D01*
X-82054Y61389D01*
X-82077Y61672D01*
X-82124Y61955D01*
X-82195Y62215D01*
Y62238D01*
X-82219Y62333D01*
X-82266Y62451D01*
X-82313Y62616D01*
X-82455Y62993D01*
X-82667Y63347D01*
X-82691Y63371D01*
X-82714Y63418D01*
X-82785Y63512D01*
X-82879Y63607D01*
X-83139Y63819D01*
X-83469Y64032D01*
X-83493Y64055D01*
X-83564Y64079D01*
X-83658Y64126D01*
X-83776Y64173D01*
X-83941Y64220D01*
X-84130Y64244D01*
X-84342Y64291D01*
X-84720D01*
X-84885Y64268D01*
X-85098Y64220D01*
X-85357Y64126D01*
X-85640Y64032D01*
X-85947Y63866D01*
X-86277Y63654D01*
X-86325Y63630D01*
X-86419Y63536D01*
X-86608Y63394D01*
X-86820Y63206D01*
X-87103Y62946D01*
X-87410Y62639D01*
X-87740Y62285D01*
X-88071Y61884D01*
Y53342D01*
Y53319D01*
Y53248D01*
X-88118Y53154D01*
X-88165Y53059D01*
X-88189Y53036D01*
X-88236Y52988D01*
X-88307Y52918D01*
X-88401Y52847D01*
X-88425D01*
X-88496Y52823D01*
X-88590Y52800D01*
X-88708Y52776D01*
X-88731D01*
X-88826Y52752D01*
X-88967Y52729D01*
X-89321D01*
X-89463Y52752D01*
X-89605Y52776D01*
X-89628D01*
X-89699Y52800D01*
X-89817Y52823D01*
X-89935Y52847D01*
X-89958Y52870D01*
X-90029Y52894D01*
X-90100Y52965D01*
X-90171Y53059D01*
Y53083D01*
X-90195Y53154D01*
X-90218Y53248D01*
Y53342D01*
Y65400D01*
Y65424D01*
Y65495D01*
X-90171Y65660D01*
X-90147Y65683D01*
X-90124Y65731D01*
X-90053Y65801D01*
X-89958Y65872D01*
X-89935Y65896D01*
X-89864Y65919D01*
X-89746Y65943D01*
X-89628Y65967D01*
X-89605D01*
X-89510Y65990D01*
X-89369Y66014D01*
X-89038D01*
X-88920Y65990D01*
X-88779Y65967D01*
X-88731D01*
X-88661Y65943D01*
X-88543Y65919D01*
X-88425Y65848D01*
X-88401Y65825D01*
X-88354Y65801D01*
X-88283Y65731D01*
X-88236Y65636D01*
X-88212Y65613D01*
X-88189Y65565D01*
X-88165Y65495D01*
Y65400D01*
Y64008D01*
X-88142Y64032D01*
X-88071Y64150D01*
X-87929Y64338D01*
X-87740Y64574D01*
X-87528Y64834D01*
X-87245Y65117D01*
X-86915Y65377D01*
X-86537Y65589D01*
X-86513D01*
X-86490Y65613D01*
X-86348Y65683D01*
X-86136Y65778D01*
X-85876Y65872D01*
X-85546Y65967D01*
X-85192Y66061D01*
X-84814Y66132D01*
X-84413Y66155D01*
X-84201D01*
X-83965Y66132D01*
D02*
G37*
G36*
X118352Y66132D02*
X118399D01*
X118518Y66108D01*
X118683Y66084D01*
X118895Y66037D01*
X118942D01*
X119084Y66014D01*
X119249Y65967D01*
X119414Y65896D01*
X119461D01*
X119556Y65848D01*
X119674Y65801D01*
X119768Y65731D01*
X119792Y65707D01*
X119839Y65683D01*
X119886Y65613D01*
X119933Y65542D01*
Y65518D01*
X119957Y65495D01*
X120004Y65353D01*
Y65329D01*
X120028Y65282D01*
X120051Y65188D01*
Y65070D01*
Y65046D01*
X120075Y64976D01*
Y64881D01*
Y64763D01*
Y64739D01*
Y64669D01*
Y64551D01*
X120051Y64409D01*
Y64385D01*
X120028Y64291D01*
X120004Y64197D01*
X119980Y64079D01*
Y64055D01*
X119933Y64008D01*
X119886Y63937D01*
X119815Y63843D01*
X119792Y63819D01*
X119745Y63796D01*
X119650Y63772D01*
X119508Y63748D01*
X119414D01*
X119320Y63772D01*
X119202Y63796D01*
X119178Y63819D01*
X119107Y63843D01*
X118966Y63890D01*
X118801Y63937D01*
X118753Y63961D01*
X118635Y63984D01*
X118494Y64008D01*
X118305Y64055D01*
X118258Y64079D01*
X118163Y64102D01*
X118022Y64126D01*
X117786D01*
X117644Y64102D01*
X117456Y64079D01*
X117220Y63984D01*
X117196D01*
X117172Y63961D01*
X117031Y63866D01*
X116819Y63725D01*
X116559Y63536D01*
X116535Y63513D01*
X116512Y63489D01*
X116441Y63418D01*
X116347Y63324D01*
X116229Y63206D01*
X116111Y63040D01*
X115969Y62875D01*
X115804Y62687D01*
X115780Y62663D01*
X115733Y62592D01*
X115662Y62474D01*
X115544Y62333D01*
X115426Y62144D01*
X115285Y61932D01*
X115120Y61672D01*
X114954Y61412D01*
Y53342D01*
Y53319D01*
Y53248D01*
X114907Y53154D01*
X114860Y53059D01*
X114836Y53036D01*
X114789Y52988D01*
X114718Y52918D01*
X114624Y52847D01*
X114600D01*
X114530Y52823D01*
X114435Y52800D01*
X114317Y52776D01*
X114294D01*
X114199Y52752D01*
X114058Y52729D01*
X113704D01*
X113562Y52752D01*
X113421Y52776D01*
X113397D01*
X113326Y52800D01*
X113208Y52823D01*
X113090Y52847D01*
X113067Y52870D01*
X112996Y52894D01*
X112925Y52965D01*
X112854Y53059D01*
Y53083D01*
X112831Y53154D01*
X112807Y53248D01*
Y53342D01*
Y65400D01*
Y65424D01*
Y65495D01*
X112854Y65660D01*
X112878Y65683D01*
X112901Y65731D01*
X112972Y65801D01*
X113067Y65872D01*
X113090Y65896D01*
X113161Y65919D01*
X113279Y65943D01*
X113397Y65967D01*
X113421D01*
X113515Y65990D01*
X113657Y66014D01*
X113987D01*
X114105Y65990D01*
X114247Y65967D01*
X114294D01*
X114365Y65943D01*
X114482Y65919D01*
X114600Y65848D01*
X114624Y65825D01*
X114671Y65801D01*
X114742Y65731D01*
X114789Y65636D01*
X114813Y65613D01*
X114836Y65565D01*
X114860Y65495D01*
Y65400D01*
Y63890D01*
X114884Y64008D01*
X114931Y64150D01*
X114978Y64315D01*
X115072Y64503D01*
X115190Y64692D01*
X115332Y64881D01*
X115356Y64905D01*
X115403Y64952D01*
X115497Y65046D01*
X115615Y65164D01*
X115898Y65400D01*
X116229Y65636D01*
X116252Y65660D01*
X116299Y65683D01*
X116394Y65731D01*
X116512Y65801D01*
X116771Y65943D01*
X117078Y66037D01*
X117102D01*
X117149Y66061D01*
X117243Y66084D01*
X117338Y66108D01*
X117621Y66132D01*
X117951Y66155D01*
X118187D01*
X118352Y66132D01*
D02*
G37*
G36*
X72787D02*
X72834D01*
X72952Y66108D01*
X73118Y66084D01*
X73330Y66037D01*
X73377D01*
X73519Y66014D01*
X73684Y65967D01*
X73849Y65896D01*
X73896D01*
X73991Y65848D01*
X74109Y65801D01*
X74203Y65731D01*
X74227Y65707D01*
X74274Y65683D01*
X74321Y65613D01*
X74368Y65542D01*
Y65518D01*
X74392Y65495D01*
X74439Y65353D01*
Y65329D01*
X74463Y65282D01*
X74486Y65188D01*
Y65070D01*
Y65046D01*
X74510Y64976D01*
Y64881D01*
Y64763D01*
Y64739D01*
Y64669D01*
Y64551D01*
X74486Y64409D01*
Y64385D01*
X74463Y64291D01*
X74439Y64197D01*
X74415Y64079D01*
Y64055D01*
X74368Y64008D01*
X74321Y63937D01*
X74250Y63843D01*
X74227Y63819D01*
X74180Y63796D01*
X74085Y63772D01*
X73944Y63748D01*
X73849D01*
X73755Y63772D01*
X73637Y63796D01*
X73613Y63819D01*
X73542Y63843D01*
X73401Y63890D01*
X73236Y63937D01*
X73188Y63961D01*
X73070Y63984D01*
X72929Y64008D01*
X72740Y64055D01*
X72693Y64079D01*
X72599Y64102D01*
X72457Y64126D01*
X72221D01*
X72079Y64102D01*
X71891Y64079D01*
X71655Y63984D01*
X71631D01*
X71607Y63961D01*
X71466Y63866D01*
X71253Y63725D01*
X70994Y63536D01*
X70970Y63513D01*
X70947Y63489D01*
X70876Y63418D01*
X70781Y63324D01*
X70664Y63206D01*
X70546Y63040D01*
X70404Y62875D01*
X70239Y62687D01*
X70215Y62663D01*
X70168Y62592D01*
X70097Y62474D01*
X69979Y62333D01*
X69861Y62144D01*
X69720Y61932D01*
X69555Y61672D01*
X69389Y61412D01*
Y53342D01*
Y53319D01*
Y53248D01*
X69342Y53154D01*
X69295Y53059D01*
X69271Y53036D01*
X69224Y52988D01*
X69153Y52918D01*
X69059Y52847D01*
X69035D01*
X68965Y52823D01*
X68870Y52800D01*
X68752Y52776D01*
X68729D01*
X68634Y52752D01*
X68493Y52729D01*
X68139D01*
X67997Y52752D01*
X67856Y52776D01*
X67832D01*
X67761Y52800D01*
X67643Y52823D01*
X67525Y52847D01*
X67502Y52870D01*
X67431Y52894D01*
X67360Y52965D01*
X67289Y53059D01*
Y53083D01*
X67266Y53154D01*
X67242Y53248D01*
Y53342D01*
Y65400D01*
Y65424D01*
Y65495D01*
X67289Y65660D01*
X67313Y65683D01*
X67336Y65731D01*
X67407Y65801D01*
X67502Y65872D01*
X67525Y65896D01*
X67596Y65919D01*
X67714Y65943D01*
X67832Y65967D01*
X67856D01*
X67950Y65990D01*
X68092Y66014D01*
X68422D01*
X68540Y65990D01*
X68681Y65967D01*
X68729D01*
X68799Y65943D01*
X68917Y65919D01*
X69035Y65848D01*
X69059Y65825D01*
X69106Y65801D01*
X69177Y65731D01*
X69224Y65636D01*
X69248Y65613D01*
X69271Y65565D01*
X69295Y65495D01*
Y65400D01*
Y63890D01*
X69319Y64008D01*
X69366Y64150D01*
X69413Y64315D01*
X69507Y64503D01*
X69625Y64692D01*
X69767Y64881D01*
X69791Y64905D01*
X69838Y64952D01*
X69932Y65046D01*
X70050Y65164D01*
X70333Y65400D01*
X70664Y65636D01*
X70687Y65660D01*
X70734Y65683D01*
X70829Y65731D01*
X70947Y65801D01*
X71206Y65943D01*
X71513Y66037D01*
X71537D01*
X71584Y66061D01*
X71678Y66084D01*
X71773Y66108D01*
X72056Y66132D01*
X72386Y66155D01*
X72622D01*
X72787Y66132D01*
D02*
G37*
G36*
X-17139Y66108D02*
X-16809Y66061D01*
X-16785D01*
X-16738Y66037D01*
X-16644D01*
X-16526Y66014D01*
X-16243Y65943D01*
X-15936Y65848D01*
X-15912D01*
X-15865Y65825D01*
X-15794Y65801D01*
X-15700Y65778D01*
X-15488Y65683D01*
X-15252Y65565D01*
X-15228D01*
X-15204Y65542D01*
X-15086Y65471D01*
X-14921Y65400D01*
X-14780Y65306D01*
X-14756Y65282D01*
X-14685Y65235D01*
X-14615Y65164D01*
X-14544Y65070D01*
X-14520Y65046D01*
X-14497Y64999D01*
X-14449Y64858D01*
Y64834D01*
X-14426Y64787D01*
Y64716D01*
X-14402Y64598D01*
Y64574D01*
X-14379Y64503D01*
Y64409D01*
Y64315D01*
Y64291D01*
Y64220D01*
X-14402Y64102D01*
X-14426Y63984D01*
Y63961D01*
X-14449Y63890D01*
X-14473Y63796D01*
X-14520Y63678D01*
Y63654D01*
X-14567Y63607D01*
X-14615Y63512D01*
X-14685Y63442D01*
X-14709Y63418D01*
X-14756Y63394D01*
X-14874Y63371D01*
X-14992Y63347D01*
X-15039D01*
X-15134Y63371D01*
X-15275Y63418D01*
X-15440Y63512D01*
X-15488Y63536D01*
X-15606Y63607D01*
X-15771Y63725D01*
X-16007Y63843D01*
X-16030D01*
X-16054Y63866D01*
X-16125Y63914D01*
X-16219Y63937D01*
X-16479Y64032D01*
X-16785Y64150D01*
X-16809D01*
X-16856Y64173D01*
X-16951Y64197D01*
X-17092Y64220D01*
X-17234Y64244D01*
X-17422Y64268D01*
X-17824Y64291D01*
X-18036D01*
X-18154Y64268D01*
X-18484Y64244D01*
X-18815Y64150D01*
X-18838D01*
X-18886Y64126D01*
X-18956Y64102D01*
X-19051Y64055D01*
X-19287Y63937D01*
X-19523Y63772D01*
X-19570Y63725D01*
X-19664Y63630D01*
X-19782Y63465D01*
X-19900Y63253D01*
Y63229D01*
X-19924Y63206D01*
X-19947Y63064D01*
X-19995Y62828D01*
X-20018Y62569D01*
Y62545D01*
Y62474D01*
X-19995Y62380D01*
Y62262D01*
X-19924Y61979D01*
X-19806Y61695D01*
Y61672D01*
X-19759Y61648D01*
X-19641Y61507D01*
X-19428Y61294D01*
X-19169Y61082D01*
X-19145D01*
X-19098Y61035D01*
X-19003Y60988D01*
X-18886Y60917D01*
X-18744Y60846D01*
X-18579Y60775D01*
X-18366Y60681D01*
X-18154Y60587D01*
X-18130D01*
X-18060Y60539D01*
X-17942Y60492D01*
X-17776Y60445D01*
X-17611Y60374D01*
X-17422Y60303D01*
X-17021Y60138D01*
X-16998D01*
X-16927Y60091D01*
X-16809Y60067D01*
X-16667Y59997D01*
X-16502Y59926D01*
X-16314Y59831D01*
X-15912Y59643D01*
X-15889Y59619D01*
X-15818Y59595D01*
X-15700Y59525D01*
X-15558Y59454D01*
X-15204Y59218D01*
X-14850Y58935D01*
X-14827Y58911D01*
X-14780Y58864D01*
X-14685Y58769D01*
X-14567Y58651D01*
X-14449Y58510D01*
X-14331Y58345D01*
X-14095Y57944D01*
X-14072Y57920D01*
X-14048Y57849D01*
X-14001Y57708D01*
X-13930Y57543D01*
X-13883Y57354D01*
X-13836Y57118D01*
X-13812Y56835D01*
X-13789Y56551D01*
Y56504D01*
Y56386D01*
X-13812Y56221D01*
X-13836Y55985D01*
X-13883Y55726D01*
X-13930Y55442D01*
X-14025Y55136D01*
X-14143Y54852D01*
X-14166Y54829D01*
X-14213Y54735D01*
X-14284Y54593D01*
X-14402Y54428D01*
X-14544Y54215D01*
X-14709Y54027D01*
X-14898Y53814D01*
X-15134Y53602D01*
X-15157Y53578D01*
X-15252Y53507D01*
X-15370Y53413D01*
X-15558Y53319D01*
X-15771Y53177D01*
X-16030Y53059D01*
X-16337Y52941D01*
X-16644Y52823D01*
X-16691D01*
X-16785Y52776D01*
X-16974Y52752D01*
X-17210Y52705D01*
X-17493Y52658D01*
X-17824Y52611D01*
X-18178Y52587D01*
X-18555Y52564D01*
X-18791D01*
X-18956Y52587D01*
X-19169D01*
X-19381Y52611D01*
X-19806Y52682D01*
X-19829D01*
X-19900Y52705D01*
X-20018Y52729D01*
X-20160Y52752D01*
X-20490Y52823D01*
X-20868Y52918D01*
X-20891D01*
X-20938Y52941D01*
X-21033Y52988D01*
X-21151Y53012D01*
X-21410Y53130D01*
X-21670Y53248D01*
X-21693D01*
X-21717Y53271D01*
X-21859Y53366D01*
X-22024Y53484D01*
X-22189Y53602D01*
X-22213Y53625D01*
X-22283Y53720D01*
X-22378Y53861D01*
X-22472Y54027D01*
Y54050D01*
Y54074D01*
X-22496Y54215D01*
X-22519Y54404D01*
X-22543Y54687D01*
Y54711D01*
Y54805D01*
Y54900D01*
X-22519Y55018D01*
Y55041D01*
X-22496Y55112D01*
X-22472Y55206D01*
X-22449Y55324D01*
X-22425Y55348D01*
X-22401Y55419D01*
X-22331Y55490D01*
X-22236Y55560D01*
X-22213Y55584D01*
X-22142Y55631D01*
X-22048Y55655D01*
X-21930Y55678D01*
X-21882D01*
X-21764Y55655D01*
X-21599Y55584D01*
X-21387Y55466D01*
X-21363D01*
X-21340Y55419D01*
X-21269Y55395D01*
X-21174Y55324D01*
X-20938Y55206D01*
X-20655Y55041D01*
X-20632D01*
X-20584Y55018D01*
X-20490Y54970D01*
X-20396Y54923D01*
X-20254Y54852D01*
X-20089Y54782D01*
X-19735Y54664D01*
X-19711D01*
X-19641Y54640D01*
X-19523Y54616D01*
X-19381Y54593D01*
X-19192Y54546D01*
X-18956Y54522D01*
X-18720Y54499D01*
X-18248D01*
X-18107Y54522D01*
X-17776Y54546D01*
X-17422Y54616D01*
X-17399D01*
X-17352Y54640D01*
X-17257Y54664D01*
X-17163Y54711D01*
X-16903Y54805D01*
X-16644Y54947D01*
X-16620D01*
X-16597Y54994D01*
X-16455Y55112D01*
X-16290Y55301D01*
X-16125Y55537D01*
Y55560D01*
X-16101Y55608D01*
X-16054Y55678D01*
X-16030Y55796D01*
X-15960Y56056D01*
X-15936Y56410D01*
Y56434D01*
Y56481D01*
Y56575D01*
X-15960Y56693D01*
X-16030Y56953D01*
X-16172Y57212D01*
Y57236D01*
X-16219Y57259D01*
X-16337Y57401D01*
X-16550Y57590D01*
X-16809Y57802D01*
X-16833Y57826D01*
X-16880Y57849D01*
X-16974Y57896D01*
X-17069Y57967D01*
X-17210Y58038D01*
X-17375Y58132D01*
X-17753Y58298D01*
X-17776D01*
X-17847Y58345D01*
X-17942Y58368D01*
X-18083Y58439D01*
X-18248Y58510D01*
X-18437Y58581D01*
X-18886Y58746D01*
X-18909D01*
X-18980Y58793D01*
X-19098Y58840D01*
X-19239Y58911D01*
X-19428Y58982D01*
X-19617Y59076D01*
X-20042Y59265D01*
X-20065Y59289D01*
X-20136Y59312D01*
X-20254Y59383D01*
X-20372Y59454D01*
X-20726Y59690D01*
X-21080Y59973D01*
X-21104Y59997D01*
X-21151Y60044D01*
X-21245Y60138D01*
X-21340Y60280D01*
X-21481Y60421D01*
X-21599Y60610D01*
X-21835Y61035D01*
Y61058D01*
X-21882Y61153D01*
X-21930Y61271D01*
X-21977Y61459D01*
X-22024Y61672D01*
X-22071Y61908D01*
X-22095Y62191D01*
X-22118Y62498D01*
Y62521D01*
Y62616D01*
X-22095Y62757D01*
Y62923D01*
X-22071Y63111D01*
X-22024Y63347D01*
X-21882Y63819D01*
X-21859Y63843D01*
X-21835Y63937D01*
X-21764Y64055D01*
X-21693Y64220D01*
X-21576Y64409D01*
X-21434Y64598D01*
X-21269Y64810D01*
X-21080Y64999D01*
X-21056Y65023D01*
X-20986Y65093D01*
X-20868Y65188D01*
X-20703Y65306D01*
X-20490Y65424D01*
X-20254Y65565D01*
X-19995Y65707D01*
X-19688Y65825D01*
X-19641Y65848D01*
X-19546Y65872D01*
X-19358Y65919D01*
X-19122Y65990D01*
X-18838Y66061D01*
X-18508Y66108D01*
X-18130Y66132D01*
X-17729Y66155D01*
X-17446D01*
X-17139Y66108D01*
D02*
G37*
G36*
X-135878D02*
X-135547Y66061D01*
X-135524D01*
X-135476Y66037D01*
X-135382D01*
X-135264Y66014D01*
X-134981Y65943D01*
X-134674Y65848D01*
X-134650D01*
X-134603Y65825D01*
X-134532Y65801D01*
X-134438Y65778D01*
X-134226Y65683D01*
X-133990Y65565D01*
X-133966D01*
X-133943Y65542D01*
X-133825Y65471D01*
X-133659Y65400D01*
X-133518Y65306D01*
X-133494Y65282D01*
X-133423Y65235D01*
X-133353Y65164D01*
X-133282Y65070D01*
X-133258Y65046D01*
X-133235Y64999D01*
X-133188Y64858D01*
Y64834D01*
X-133164Y64787D01*
Y64716D01*
X-133140Y64598D01*
Y64574D01*
X-133117Y64503D01*
Y64409D01*
Y64315D01*
Y64291D01*
Y64220D01*
X-133140Y64102D01*
X-133164Y63984D01*
Y63961D01*
X-133188Y63890D01*
X-133211Y63796D01*
X-133258Y63678D01*
Y63654D01*
X-133305Y63607D01*
X-133353Y63512D01*
X-133423Y63442D01*
X-133447Y63418D01*
X-133494Y63394D01*
X-133612Y63371D01*
X-133730Y63347D01*
X-133777D01*
X-133872Y63371D01*
X-134013Y63418D01*
X-134178Y63512D01*
X-134226Y63536D01*
X-134344Y63607D01*
X-134509Y63725D01*
X-134745Y63843D01*
X-134768D01*
X-134792Y63866D01*
X-134863Y63914D01*
X-134957Y63937D01*
X-135217Y64032D01*
X-135524Y64150D01*
X-135547D01*
X-135594Y64173D01*
X-135689Y64197D01*
X-135830Y64220D01*
X-135972Y64244D01*
X-136161Y64268D01*
X-136562Y64291D01*
X-136774D01*
X-136892Y64268D01*
X-137222Y64244D01*
X-137553Y64149D01*
X-137576D01*
X-137624Y64126D01*
X-137694Y64102D01*
X-137789Y64055D01*
X-138025Y63937D01*
X-138261Y63772D01*
X-138308Y63725D01*
X-138402Y63630D01*
X-138520Y63465D01*
X-138638Y63253D01*
Y63229D01*
X-138662Y63206D01*
X-138686Y63064D01*
X-138733Y62828D01*
X-138756Y62569D01*
Y62545D01*
Y62474D01*
X-138733Y62380D01*
Y62262D01*
X-138662Y61979D01*
X-138544Y61695D01*
Y61672D01*
X-138497Y61648D01*
X-138379Y61507D01*
X-138166Y61294D01*
X-137907Y61082D01*
X-137883D01*
X-137836Y61035D01*
X-137742Y60988D01*
X-137624Y60917D01*
X-137482Y60846D01*
X-137317Y60775D01*
X-137105Y60681D01*
X-136892Y60587D01*
X-136868D01*
X-136798Y60539D01*
X-136680Y60492D01*
X-136515Y60445D01*
X-136349Y60374D01*
X-136161Y60303D01*
X-135759Y60138D01*
X-135736D01*
X-135665Y60091D01*
X-135547Y60067D01*
X-135406Y59997D01*
X-135240Y59926D01*
X-135052Y59831D01*
X-134650Y59643D01*
X-134627Y59619D01*
X-134556Y59595D01*
X-134438Y59525D01*
X-134297Y59454D01*
X-133943Y59218D01*
X-133589Y58935D01*
X-133565Y58911D01*
X-133518Y58864D01*
X-133423Y58769D01*
X-133305Y58651D01*
X-133188Y58510D01*
X-133069Y58345D01*
X-132833Y57944D01*
X-132810Y57920D01*
X-132786Y57849D01*
X-132739Y57708D01*
X-132668Y57543D01*
X-132621Y57354D01*
X-132574Y57118D01*
X-132550Y56835D01*
X-132527Y56551D01*
Y56504D01*
Y56386D01*
X-132550Y56221D01*
X-132574Y55985D01*
X-132621Y55726D01*
X-132668Y55442D01*
X-132763Y55136D01*
X-132881Y54852D01*
X-132904Y54829D01*
X-132951Y54735D01*
X-133022Y54593D01*
X-133140Y54428D01*
X-133282Y54215D01*
X-133447Y54027D01*
X-133636Y53814D01*
X-133872Y53602D01*
X-133895Y53578D01*
X-133990Y53507D01*
X-134108Y53413D01*
X-134297Y53319D01*
X-134509Y53177D01*
X-134768Y53059D01*
X-135075Y52941D01*
X-135382Y52823D01*
X-135429D01*
X-135524Y52776D01*
X-135712Y52752D01*
X-135948Y52705D01*
X-136231Y52658D01*
X-136562Y52611D01*
X-136916Y52587D01*
X-137293Y52564D01*
X-137529D01*
X-137694Y52587D01*
X-137907D01*
X-138119Y52611D01*
X-138544Y52682D01*
X-138567D01*
X-138638Y52705D01*
X-138756Y52729D01*
X-138898Y52752D01*
X-139228Y52823D01*
X-139606Y52917D01*
X-139629D01*
X-139677Y52941D01*
X-139771Y52988D01*
X-139889Y53012D01*
X-140148Y53130D01*
X-140408Y53248D01*
X-140432D01*
X-140455Y53271D01*
X-140597Y53366D01*
X-140762Y53484D01*
X-140927Y53602D01*
X-140951Y53625D01*
X-141021Y53720D01*
X-141116Y53861D01*
X-141210Y54027D01*
Y54050D01*
Y54074D01*
X-141234Y54215D01*
X-141257Y54404D01*
X-141281Y54687D01*
Y54711D01*
Y54805D01*
Y54900D01*
X-141257Y55018D01*
Y55041D01*
X-141234Y55112D01*
X-141210Y55206D01*
X-141187Y55324D01*
X-141163Y55348D01*
X-141139Y55419D01*
X-141069Y55490D01*
X-140974Y55560D01*
X-140951Y55584D01*
X-140880Y55631D01*
X-140786Y55655D01*
X-140668Y55678D01*
X-140620D01*
X-140502Y55655D01*
X-140337Y55584D01*
X-140125Y55466D01*
X-140101D01*
X-140078Y55419D01*
X-140007Y55395D01*
X-139913Y55324D01*
X-139677Y55206D01*
X-139393Y55041D01*
X-139370D01*
X-139323Y55018D01*
X-139228Y54970D01*
X-139134Y54923D01*
X-138992Y54852D01*
X-138827Y54782D01*
X-138473Y54664D01*
X-138449D01*
X-138379Y54640D01*
X-138261Y54616D01*
X-138119Y54593D01*
X-137930Y54546D01*
X-137694Y54522D01*
X-137458Y54499D01*
X-136987Y54499D01*
X-136845Y54522D01*
X-136515Y54546D01*
X-136161Y54616D01*
X-136137D01*
X-136090Y54640D01*
X-135996Y54664D01*
X-135901Y54711D01*
X-135641Y54805D01*
X-135382Y54947D01*
X-135358D01*
X-135335Y54994D01*
X-135193Y55112D01*
X-135028Y55301D01*
X-134863Y55537D01*
Y55560D01*
X-134839Y55608D01*
X-134792Y55678D01*
X-134768Y55796D01*
X-134698Y56056D01*
X-134674Y56410D01*
Y56434D01*
Y56481D01*
Y56575D01*
X-134698Y56693D01*
X-134768Y56953D01*
X-134910Y57212D01*
Y57236D01*
X-134957Y57259D01*
X-135075Y57401D01*
X-135288Y57590D01*
X-135547Y57802D01*
X-135571Y57826D01*
X-135618Y57849D01*
X-135712Y57896D01*
X-135807Y57967D01*
X-135948Y58038D01*
X-136113Y58132D01*
X-136491Y58298D01*
X-136515D01*
X-136585Y58345D01*
X-136680Y58368D01*
X-136821Y58439D01*
X-136987Y58510D01*
X-137175Y58581D01*
X-137624Y58746D01*
X-137647D01*
X-137718Y58793D01*
X-137836Y58840D01*
X-137978Y58911D01*
X-138166Y58982D01*
X-138355Y59076D01*
X-138780Y59265D01*
X-138804Y59289D01*
X-138874Y59312D01*
X-138992Y59383D01*
X-139110Y59454D01*
X-139464Y59690D01*
X-139818Y59973D01*
X-139842Y59997D01*
X-139889Y60044D01*
X-139983Y60138D01*
X-140078Y60280D01*
X-140219Y60421D01*
X-140337Y60610D01*
X-140573Y61035D01*
Y61058D01*
X-140620Y61153D01*
X-140668Y61271D01*
X-140715Y61459D01*
X-140762Y61672D01*
X-140809Y61908D01*
X-140833Y62191D01*
X-140856Y62498D01*
Y62521D01*
Y62616D01*
X-140833Y62757D01*
Y62923D01*
X-140809Y63111D01*
X-140762Y63347D01*
X-140620Y63819D01*
X-140597Y63843D01*
X-140573Y63937D01*
X-140502Y64055D01*
X-140432Y64220D01*
X-140314Y64409D01*
X-140172Y64598D01*
X-140007Y64810D01*
X-139818Y64999D01*
X-139795Y65023D01*
X-139724Y65093D01*
X-139606Y65188D01*
X-139441Y65306D01*
X-139228Y65424D01*
X-138992Y65565D01*
X-138733Y65707D01*
X-138426Y65825D01*
X-138379Y65848D01*
X-138284Y65872D01*
X-138096Y65919D01*
X-137860Y65990D01*
X-137576Y66061D01*
X-137246Y66108D01*
X-136868Y66132D01*
X-136467Y66155D01*
X-136184D01*
X-135878Y66108D01*
D02*
G37*
G36*
X-110936Y66132D02*
X-110747D01*
X-110558Y66108D01*
X-110134Y66014D01*
X-110110D01*
X-110039Y65990D01*
X-109921Y65967D01*
X-109780Y65943D01*
X-109426Y65825D01*
X-109048Y65707D01*
X-109024D01*
X-108954Y65683D01*
X-108859Y65636D01*
X-108741Y65589D01*
X-108458Y65447D01*
X-108175Y65259D01*
X-108152D01*
X-108104Y65211D01*
X-107963Y65117D01*
X-107797Y64952D01*
X-107632Y64810D01*
X-107609Y64787D01*
X-107538Y64716D01*
X-107444Y64622D01*
X-107373Y64527D01*
X-107349Y64503D01*
X-107326Y64456D01*
X-107278Y64362D01*
X-107231Y64268D01*
Y64244D01*
X-107208Y64197D01*
X-107184Y64102D01*
Y63984D01*
Y63961D01*
X-107160Y63890D01*
Y63772D01*
Y63654D01*
Y63630D01*
Y63583D01*
Y63489D01*
X-107184Y63394D01*
X-107231Y63158D01*
X-107349Y62923D01*
X-107373Y62875D01*
X-107467Y62804D01*
X-107609Y62734D01*
X-107797Y62687D01*
X-107845D01*
X-107986Y62710D01*
X-108175Y62804D01*
X-108293Y62852D01*
X-108411Y62946D01*
X-108435Y62970D01*
X-108458Y62993D01*
X-108529Y63040D01*
X-108623Y63111D01*
X-108836Y63277D01*
X-109119Y63465D01*
X-109143Y63489D01*
X-109190Y63512D01*
X-109284Y63560D01*
X-109378Y63630D01*
X-109520Y63725D01*
X-109685Y63796D01*
X-110086Y63984D01*
X-110110D01*
X-110181Y64032D01*
X-110299Y64055D01*
X-110464Y64102D01*
X-110653Y64150D01*
X-110889Y64173D01*
X-111148Y64220D01*
X-111573D01*
X-111691Y64197D01*
X-111833Y64173D01*
X-111974Y64150D01*
X-112352Y64055D01*
X-112729Y63914D01*
X-113154Y63701D01*
X-113366Y63560D01*
X-113555Y63394D01*
X-113744Y63182D01*
X-113909Y62970D01*
Y62946D01*
X-113956Y62923D01*
X-113980Y62852D01*
X-114051Y62734D01*
X-114098Y62616D01*
X-114169Y62451D01*
X-114263Y62262D01*
X-114334Y62049D01*
X-114405Y61814D01*
X-114499Y61530D01*
X-114570Y61247D01*
X-114617Y60917D01*
X-114688Y60563D01*
X-114711Y60162D01*
X-114759Y59761D01*
Y59312D01*
Y59289D01*
Y59265D01*
Y59194D01*
Y59100D01*
X-114735Y58864D01*
Y58581D01*
X-114711Y58227D01*
X-114664Y57873D01*
X-114593Y57495D01*
X-114523Y57141D01*
Y57094D01*
X-114475Y57000D01*
X-114428Y56835D01*
X-114357Y56622D01*
X-114263Y56386D01*
X-114145Y56127D01*
X-114003Y55891D01*
X-113862Y55655D01*
X-113838Y55631D01*
X-113791Y55560D01*
X-113697Y55466D01*
X-113555Y55348D01*
X-113413Y55206D01*
X-113225Y55065D01*
X-113012Y54923D01*
X-112800Y54805D01*
X-112776D01*
X-112682Y54758D01*
X-112564Y54711D01*
X-112399Y54664D01*
X-112186Y54616D01*
X-111951Y54569D01*
X-111667Y54546D01*
X-111384Y54522D01*
X-111266D01*
X-111125Y54546D01*
X-110936D01*
X-110747Y54569D01*
X-110535Y54616D01*
X-110086Y54758D01*
X-110063D01*
X-109992Y54805D01*
X-109874Y54852D01*
X-109732Y54923D01*
X-109402Y55089D01*
X-109072Y55277D01*
X-109048Y55301D01*
X-109001Y55324D01*
X-108930Y55372D01*
X-108812Y55466D01*
X-108576Y55631D01*
X-108317Y55844D01*
X-108293Y55867D01*
X-108246Y55891D01*
X-108104Y56009D01*
X-107915Y56103D01*
X-107797Y56127D01*
X-107703Y56150D01*
X-107680D01*
X-107585Y56127D01*
X-107491Y56103D01*
X-107396Y56032D01*
X-107373Y56009D01*
X-107326Y55961D01*
X-107255Y55891D01*
X-107208Y55773D01*
X-107184Y55749D01*
X-107160Y55678D01*
X-107137Y55584D01*
X-107113Y55466D01*
Y55442D01*
X-107090Y55372D01*
Y55254D01*
Y55112D01*
Y55089D01*
Y55018D01*
Y54923D01*
X-107113Y54805D01*
Y54782D01*
X-107137Y54711D01*
X-107184Y54522D01*
Y54499D01*
X-107208Y54451D01*
X-107278Y54286D01*
X-107302Y54263D01*
X-107326Y54215D01*
X-107420Y54097D01*
X-107538Y53979D01*
X-107562Y53956D01*
X-107680Y53861D01*
X-107868Y53696D01*
X-108152Y53507D01*
X-108175Y53484D01*
X-108222Y53460D01*
X-108317Y53413D01*
X-108435Y53342D01*
X-108576Y53271D01*
X-108741Y53177D01*
X-109119Y53012D01*
X-109143D01*
X-109213Y52988D01*
X-109331Y52941D01*
X-109473Y52894D01*
X-109638Y52847D01*
X-109827Y52800D01*
X-110275Y52705D01*
X-110299D01*
X-110370Y52682D01*
X-110487Y52658D01*
X-110653Y52634D01*
X-110842Y52611D01*
X-111054Y52587D01*
X-111526Y52564D01*
X-111738D01*
X-111998Y52587D01*
X-112304Y52611D01*
X-112682Y52658D01*
X-113083Y52752D01*
X-113484Y52847D01*
X-113885Y52988D01*
X-113933Y53012D01*
X-114051Y53083D01*
X-114239Y53177D01*
X-114475Y53319D01*
X-114759Y53507D01*
X-115042Y53744D01*
X-115325Y54003D01*
X-115608Y54310D01*
X-115632Y54357D01*
X-115726Y54475D01*
X-115844Y54640D01*
X-115985Y54900D01*
X-116151Y55206D01*
X-116340Y55560D01*
X-116505Y55961D01*
X-116646Y56410D01*
Y56434D01*
X-116670Y56457D01*
Y56528D01*
X-116693Y56622D01*
X-116717Y56740D01*
X-116741Y56882D01*
X-116811Y57236D01*
X-116882Y57660D01*
X-116929Y58132D01*
X-116953Y58675D01*
X-116977Y59265D01*
Y59289D01*
Y59336D01*
Y59430D01*
Y59572D01*
X-116953Y59713D01*
Y59902D01*
X-116929Y60327D01*
X-116882Y60799D01*
X-116788Y61318D01*
X-116693Y61861D01*
X-116552Y62356D01*
Y62380D01*
X-116528Y62403D01*
X-116505Y62474D01*
X-116481Y62569D01*
X-116387Y62804D01*
X-116245Y63111D01*
X-116080Y63442D01*
X-115868Y63796D01*
X-115632Y64150D01*
X-115348Y64480D01*
X-115301Y64527D01*
X-115207Y64622D01*
X-115042Y64763D01*
X-114829Y64952D01*
X-114570Y65164D01*
X-114263Y65377D01*
X-113909Y65565D01*
X-113532Y65731D01*
X-113508D01*
X-113484Y65754D01*
X-113343Y65801D01*
X-113130Y65872D01*
X-112871Y65943D01*
X-112540Y66014D01*
X-112163Y66084D01*
X-111738Y66132D01*
X-111313Y66155D01*
X-111077D01*
X-110936Y66132D01*
D02*
G37*
G36*
X-160914Y66132D02*
X-160725D01*
X-160536Y66108D01*
X-160111Y66014D01*
X-160088D01*
X-160017Y65990D01*
X-159899Y65967D01*
X-159757Y65943D01*
X-159403Y65825D01*
X-159026Y65707D01*
X-159002D01*
X-158931Y65683D01*
X-158837Y65636D01*
X-158719Y65589D01*
X-158436Y65447D01*
X-158153Y65259D01*
X-158129D01*
X-158082Y65211D01*
X-157940Y65117D01*
X-157775Y64952D01*
X-157610Y64810D01*
X-157586Y64787D01*
X-157516Y64716D01*
X-157421Y64622D01*
X-157350Y64527D01*
X-157327Y64503D01*
X-157303Y64456D01*
X-157256Y64362D01*
X-157209Y64268D01*
Y64244D01*
X-157185Y64197D01*
X-157162Y64102D01*
Y63984D01*
Y63961D01*
X-157138Y63890D01*
Y63772D01*
Y63654D01*
Y63630D01*
Y63583D01*
Y63489D01*
X-157162Y63394D01*
X-157209Y63158D01*
X-157327Y62923D01*
X-157350Y62875D01*
X-157445Y62804D01*
X-157586Y62734D01*
X-157775Y62687D01*
X-157822D01*
X-157964Y62710D01*
X-158153Y62804D01*
X-158271Y62852D01*
X-158389Y62946D01*
X-158412Y62970D01*
X-158436Y62993D01*
X-158507Y63040D01*
X-158601Y63111D01*
X-158813Y63277D01*
X-159096Y63465D01*
X-159120Y63489D01*
X-159167Y63512D01*
X-159262Y63560D01*
X-159356Y63630D01*
X-159498Y63725D01*
X-159663Y63796D01*
X-160064Y63984D01*
X-160088D01*
X-160158Y64032D01*
X-160276Y64055D01*
X-160441Y64102D01*
X-160630Y64149D01*
X-160866Y64173D01*
X-161126Y64220D01*
X-161551D01*
X-161669Y64197D01*
X-161810Y64173D01*
X-161952Y64149D01*
X-162329Y64055D01*
X-162707Y63914D01*
X-163132Y63701D01*
X-163344Y63560D01*
X-163533Y63394D01*
X-163722Y63182D01*
X-163887Y62970D01*
Y62946D01*
X-163934Y62923D01*
X-163957Y62852D01*
X-164028Y62734D01*
X-164075Y62616D01*
X-164146Y62451D01*
X-164241Y62262D01*
X-164311Y62049D01*
X-164382Y61814D01*
X-164477Y61530D01*
X-164547Y61247D01*
X-164594Y60917D01*
X-164665Y60563D01*
X-164689Y60162D01*
X-164736Y59761D01*
Y59312D01*
Y59289D01*
Y59265D01*
Y59194D01*
Y59100D01*
X-164713Y58864D01*
Y58581D01*
X-164689Y58227D01*
X-164642Y57873D01*
X-164571Y57495D01*
X-164500Y57141D01*
Y57094D01*
X-164453Y57000D01*
X-164406Y56835D01*
X-164335Y56622D01*
X-164241Y56386D01*
X-164123Y56127D01*
X-163981Y55891D01*
X-163839Y55655D01*
X-163816Y55631D01*
X-163769Y55560D01*
X-163674Y55466D01*
X-163533Y55348D01*
X-163391Y55206D01*
X-163202Y55065D01*
X-162990Y54923D01*
X-162778Y54805D01*
X-162754D01*
X-162660Y54758D01*
X-162542Y54711D01*
X-162376Y54664D01*
X-162164Y54616D01*
X-161928Y54569D01*
X-161645Y54546D01*
X-161362Y54522D01*
X-161244D01*
X-161102Y54546D01*
X-160914D01*
X-160725Y54569D01*
X-160512Y54616D01*
X-160064Y54758D01*
X-160040D01*
X-159970Y54805D01*
X-159852Y54852D01*
X-159710Y54923D01*
X-159380Y55088D01*
X-159049Y55277D01*
X-159026Y55301D01*
X-158979Y55324D01*
X-158908Y55372D01*
X-158790Y55466D01*
X-158554Y55631D01*
X-158294Y55844D01*
X-158271Y55867D01*
X-158223Y55891D01*
X-158082Y56009D01*
X-157893Y56103D01*
X-157775Y56127D01*
X-157681Y56150D01*
X-157657D01*
X-157563Y56127D01*
X-157468Y56103D01*
X-157374Y56032D01*
X-157350Y56009D01*
X-157303Y55961D01*
X-157232Y55891D01*
X-157185Y55773D01*
X-157162Y55749D01*
X-157138Y55678D01*
X-157114Y55584D01*
X-157091Y55466D01*
Y55442D01*
X-157067Y55372D01*
Y55254D01*
Y55112D01*
Y55088D01*
Y55018D01*
Y54923D01*
X-157091Y54805D01*
Y54782D01*
X-157114Y54711D01*
X-157162Y54522D01*
Y54499D01*
X-157185Y54451D01*
X-157256Y54286D01*
X-157280Y54263D01*
X-157303Y54215D01*
X-157398Y54097D01*
X-157516Y53979D01*
X-157539Y53956D01*
X-157657Y53861D01*
X-157846Y53696D01*
X-158129Y53507D01*
X-158153Y53484D01*
X-158200Y53460D01*
X-158294Y53413D01*
X-158412Y53342D01*
X-158554Y53271D01*
X-158719Y53177D01*
X-159096Y53012D01*
X-159120D01*
X-159191Y52988D01*
X-159309Y52941D01*
X-159451Y52894D01*
X-159616Y52847D01*
X-159804Y52800D01*
X-160253Y52705D01*
X-160276D01*
X-160347Y52682D01*
X-160465Y52658D01*
X-160630Y52634D01*
X-160819Y52611D01*
X-161031Y52587D01*
X-161503Y52564D01*
X-161716D01*
X-161975Y52587D01*
X-162282Y52611D01*
X-162660Y52658D01*
X-163061Y52752D01*
X-163462Y52847D01*
X-163863Y52988D01*
X-163910Y53012D01*
X-164028Y53083D01*
X-164217Y53177D01*
X-164453Y53319D01*
X-164736Y53507D01*
X-165019Y53743D01*
X-165302Y54003D01*
X-165586Y54310D01*
X-165609Y54357D01*
X-165704Y54475D01*
X-165822Y54640D01*
X-165963Y54900D01*
X-166128Y55206D01*
X-166317Y55560D01*
X-166482Y55961D01*
X-166624Y56410D01*
Y56433D01*
X-166647Y56457D01*
Y56528D01*
X-166671Y56622D01*
X-166695Y56740D01*
X-166718Y56882D01*
X-166789Y57236D01*
X-166860Y57660D01*
X-166907Y58132D01*
X-166931Y58675D01*
X-166954Y59265D01*
Y59289D01*
Y59336D01*
Y59430D01*
Y59572D01*
X-166931Y59713D01*
Y59902D01*
X-166907Y60327D01*
X-166860Y60799D01*
X-166765Y61318D01*
X-166671Y61861D01*
X-166530Y62356D01*
Y62380D01*
X-166506Y62403D01*
X-166482Y62474D01*
X-166459Y62569D01*
X-166364Y62804D01*
X-166223Y63111D01*
X-166057Y63442D01*
X-165845Y63796D01*
X-165609Y64149D01*
X-165326Y64480D01*
X-165279Y64527D01*
X-165184Y64622D01*
X-165019Y64763D01*
X-164807Y64952D01*
X-164547Y65164D01*
X-164241Y65377D01*
X-163887Y65565D01*
X-163509Y65731D01*
X-163486D01*
X-163462Y65754D01*
X-163320Y65801D01*
X-163108Y65872D01*
X-162848Y65943D01*
X-162518Y66014D01*
X-162141Y66084D01*
X-161716Y66132D01*
X-161291Y66155D01*
X-161055D01*
X-160914Y66132D01*
D02*
G37*
G36*
X146527Y70568D02*
X146645Y70521D01*
X146668D01*
X146763Y70473D01*
X146881Y70426D01*
X146999Y70332D01*
X147022Y70308D01*
X147093Y70237D01*
X147187Y70120D01*
X147258Y69978D01*
X147282Y69931D01*
X147305Y69836D01*
X147329Y69671D01*
X147353Y69482D01*
Y53342D01*
Y53319D01*
Y53248D01*
X147305Y53154D01*
X147258Y53036D01*
X147234Y53012D01*
X147187Y52965D01*
X147116Y52894D01*
X146999Y52847D01*
X146975D01*
X146904Y52823D01*
X146786Y52800D01*
X146668Y52776D01*
X146645D01*
X146550Y52752D01*
X146409Y52729D01*
X146078D01*
X145937Y52752D01*
X145795Y52776D01*
X145772D01*
X145701Y52800D01*
X145583Y52823D01*
X145465Y52847D01*
X145441Y52870D01*
X145394Y52894D01*
X145229Y53036D01*
Y53059D01*
X145205Y53130D01*
X145182Y53224D01*
X145158Y53342D01*
Y67628D01*
X138881Y53130D01*
Y53106D01*
X138834Y53059D01*
X138716Y52918D01*
X138693D01*
X138645Y52870D01*
X138575Y52847D01*
X138480Y52800D01*
X138457D01*
X138409Y52776D01*
X138315D01*
X138221Y52752D01*
X138126D01*
X138008Y52729D01*
X137607D01*
X137489Y52752D01*
X137465D01*
X137395Y52776D01*
X137300Y52800D01*
X137206Y52823D01*
X137182D01*
X137135Y52847D01*
X136970Y52941D01*
X136946Y52965D01*
X136923Y53012D01*
X136876Y53083D01*
X136852Y53154D01*
X130953Y67464D01*
Y53342D01*
Y53319D01*
Y53248D01*
X130906Y53154D01*
X130858Y53036D01*
X130835Y53012D01*
X130788Y52965D01*
X130717Y52894D01*
X130599Y52847D01*
X130575D01*
X130505Y52823D01*
X130387Y52800D01*
X130269Y52776D01*
X130245D01*
X130151Y52752D01*
X130009Y52729D01*
X129655D01*
X129514Y52752D01*
X129372Y52776D01*
X129348D01*
X129277Y52800D01*
X129159Y52823D01*
X129042Y52847D01*
X129018Y52870D01*
X128947Y52894D01*
X128876Y52965D01*
X128806Y53059D01*
Y53083D01*
X128782Y53154D01*
X128758Y53248D01*
Y53342D01*
Y69482D01*
Y69506D01*
Y69577D01*
X128782Y69695D01*
X128806Y69813D01*
X128900Y70096D01*
X128971Y70237D01*
X129089Y70332D01*
X129112Y70356D01*
X129159Y70379D01*
X129230Y70426D01*
X129301Y70473D01*
X129537Y70544D01*
X129655Y70592D01*
X130882D01*
X131095Y70544D01*
X131330Y70497D01*
X131354D01*
X131378Y70473D01*
X131519Y70426D01*
X131684Y70356D01*
X131873Y70237D01*
X131920Y70214D01*
X132015Y70120D01*
X132133Y70002D01*
X132251Y69836D01*
X132274Y69789D01*
X132298Y69742D01*
X132345Y69648D01*
X132392Y69530D01*
X132439Y69388D01*
X132487Y69199D01*
X132534Y68963D01*
X137986Y56180D01*
X143695Y69294D01*
Y69317D01*
X143719Y69341D01*
X143766Y69482D01*
X143860Y69671D01*
X143978Y69860D01*
Y69884D01*
X144002Y69907D01*
X144096Y70002D01*
X144238Y70143D01*
X144379Y70285D01*
X144426Y70308D01*
X144521Y70379D01*
X144663Y70450D01*
X144828Y70521D01*
X144851D01*
X144875Y70544D01*
X144993Y70568D01*
X145158Y70592D01*
X146409D01*
X146527Y70568D01*
D02*
G37*
G36*
X-32194Y65990D02*
X-32052Y65967D01*
X-32005D01*
X-31934Y65943D01*
X-31816Y65919D01*
X-31699Y65872D01*
X-31675Y65848D01*
X-31628Y65825D01*
X-31557Y65754D01*
X-31486Y65660D01*
X-31463Y65636D01*
X-31439Y65589D01*
X-31415Y65495D01*
X-31392Y65400D01*
Y53342D01*
Y53319D01*
Y53248D01*
X-31439Y53154D01*
X-31486Y53059D01*
X-31510Y53036D01*
X-31533Y52988D01*
X-31604Y52918D01*
X-31722Y52847D01*
X-31746D01*
X-31816Y52823D01*
X-31911Y52800D01*
X-32052Y52776D01*
X-32076D01*
X-32170Y52752D01*
X-32288Y52729D01*
X-32595D01*
X-32760Y52752D01*
X-32902Y52776D01*
X-32926D01*
X-32996Y52800D01*
X-33091Y52823D01*
X-33209Y52847D01*
X-33232Y52870D01*
X-33280Y52894D01*
X-33350Y52965D01*
X-33421Y53059D01*
Y53083D01*
X-33445Y53154D01*
X-33468Y53248D01*
X-33492Y53342D01*
Y54735D01*
X-33515Y54711D01*
X-33586Y54569D01*
X-33728Y54381D01*
X-33917Y54145D01*
X-34129Y53861D01*
X-34412Y53602D01*
X-34743Y53342D01*
X-35120Y53106D01*
X-35167Y53083D01*
X-35309Y53012D01*
X-35498Y52941D01*
X-35781Y52847D01*
X-36088Y52729D01*
X-36441Y52658D01*
X-36819Y52587D01*
X-37220Y52564D01*
X-37432D01*
X-37668Y52587D01*
X-37952Y52611D01*
X-38282Y52658D01*
X-38636Y52752D01*
X-38990Y52847D01*
X-39344Y52988D01*
X-39391Y53012D01*
X-39485Y53059D01*
X-39650Y53154D01*
X-39839Y53295D01*
X-40075Y53460D01*
X-40311Y53649D01*
X-40547Y53885D01*
X-40760Y54145D01*
X-40783Y54168D01*
X-40854Y54286D01*
X-40948Y54428D01*
X-41066Y54640D01*
X-41184Y54876D01*
X-41326Y55159D01*
X-41444Y55490D01*
X-41538Y55820D01*
Y55867D01*
X-41562Y55985D01*
X-41609Y56198D01*
X-41633Y56457D01*
X-41680Y56787D01*
X-41727Y57189D01*
X-41751Y57613D01*
Y58109D01*
Y65400D01*
Y65424D01*
Y65495D01*
X-41703Y65660D01*
X-41680Y65683D01*
X-41656Y65731D01*
X-41585Y65801D01*
X-41491Y65872D01*
X-41467Y65896D01*
X-41373Y65919D01*
X-41279Y65943D01*
X-41137Y65967D01*
X-41090D01*
X-40995Y65990D01*
X-40854Y66014D01*
X-40547D01*
X-40406Y65990D01*
X-40264Y65967D01*
X-40217D01*
X-40146Y65943D01*
X-40028Y65919D01*
X-39910Y65872D01*
X-39887Y65848D01*
X-39839Y65825D01*
X-39769Y65754D01*
X-39698Y65660D01*
X-39674Y65636D01*
X-39650Y65589D01*
X-39627Y65495D01*
X-39603Y65400D01*
Y58250D01*
Y58203D01*
Y58062D01*
Y57873D01*
X-39580Y57613D01*
X-39556Y57354D01*
X-39533Y57047D01*
X-39485Y56764D01*
X-39438Y56481D01*
Y56457D01*
X-39415Y56363D01*
X-39367Y56245D01*
X-39320Y56103D01*
X-39179Y55726D01*
X-38966Y55372D01*
X-38943Y55348D01*
X-38919Y55301D01*
X-38848Y55206D01*
X-38754Y55112D01*
X-38518Y54900D01*
X-38188Y54687D01*
X-38164D01*
X-38093Y54640D01*
X-37999Y54616D01*
X-37857Y54569D01*
X-37692Y54522D01*
X-37503Y54499D01*
X-37291Y54451D01*
X-36913D01*
X-36748Y54475D01*
X-36536Y54522D01*
X-36276Y54593D01*
X-35993Y54711D01*
X-35686Y54852D01*
X-35380Y55065D01*
X-35332Y55089D01*
X-35238Y55183D01*
X-35049Y55324D01*
X-34813Y55513D01*
X-34554Y55773D01*
X-34223Y56080D01*
X-33893Y56434D01*
X-33539Y56835D01*
Y65400D01*
Y65424D01*
Y65495D01*
X-33492Y65660D01*
X-33468Y65683D01*
X-33445Y65731D01*
X-33374Y65801D01*
X-33280Y65872D01*
X-33256Y65896D01*
X-33161Y65919D01*
X-33067Y65943D01*
X-32926Y65967D01*
X-32878D01*
X-32784Y65990D01*
X-32642Y66014D01*
X-32336D01*
X-32194Y65990D01*
D02*
G37*
G36*
X184824Y70639D02*
X184965Y70615D01*
X184989D01*
X185084Y70592D01*
X185201Y70568D01*
X185319Y70521D01*
X185343Y70497D01*
X185414Y70473D01*
X185485Y70403D01*
X185555Y70308D01*
X185579Y70285D01*
X185603Y70237D01*
X185626Y70143D01*
X185650Y70049D01*
Y53342D01*
Y53319D01*
Y53248D01*
X185603Y53154D01*
X185555Y53059D01*
X185532Y53036D01*
X185485Y52988D01*
X185414Y52918D01*
X185296Y52847D01*
X185272D01*
X185201Y52823D01*
X185107Y52800D01*
X184989Y52776D01*
X184965D01*
X184871Y52752D01*
X184729Y52729D01*
X184376D01*
X184234Y52752D01*
X184092Y52776D01*
X184069D01*
X183998Y52800D01*
X183880Y52823D01*
X183762Y52847D01*
X183738Y52870D01*
X183691Y52894D01*
X183526Y53036D01*
Y53059D01*
X183503Y53130D01*
X183479Y53224D01*
X183455Y53342D01*
Y70049D01*
Y70072D01*
Y70143D01*
X183479Y70237D01*
X183526Y70332D01*
X183550Y70356D01*
X183597Y70403D01*
X183668Y70473D01*
X183786Y70521D01*
X183809Y70544D01*
X183880Y70568D01*
X183998Y70592D01*
X184116Y70615D01*
X184140D01*
X184234Y70639D01*
X184376Y70662D01*
X184682D01*
X184824Y70639D01*
D02*
G37*
G36*
X178146D02*
X178288Y70615D01*
X178311D01*
X178406Y70592D01*
X178524Y70568D01*
X178642Y70521D01*
X178665Y70497D01*
X178736Y70473D01*
X178807Y70403D01*
X178878Y70308D01*
X178901Y70285D01*
X178925Y70237D01*
X178948Y70143D01*
X178972Y70049D01*
Y53342D01*
Y53319D01*
Y53248D01*
X178925Y53154D01*
X178878Y53059D01*
X178854Y53036D01*
X178807Y52988D01*
X178736Y52918D01*
X178618Y52847D01*
X178594D01*
X178524Y52823D01*
X178429Y52800D01*
X178311Y52776D01*
X178288D01*
X178193Y52752D01*
X178052Y52729D01*
X177698D01*
X177556Y52752D01*
X177415Y52776D01*
X177391D01*
X177320Y52800D01*
X177202Y52823D01*
X177084Y52847D01*
X177061Y52870D01*
X177013Y52894D01*
X176848Y53036D01*
Y53059D01*
X176825Y53130D01*
X176801Y53224D01*
X176777Y53342D01*
Y70049D01*
Y70072D01*
Y70143D01*
X176801Y70237D01*
X176848Y70332D01*
X176872Y70356D01*
X176919Y70403D01*
X176990Y70473D01*
X177108Y70521D01*
X177131Y70544D01*
X177202Y70568D01*
X177320Y70592D01*
X177438Y70615D01*
X177462D01*
X177556Y70639D01*
X177698Y70662D01*
X178004D01*
X178146Y70639D01*
D02*
G37*
G36*
X171468D02*
X171610Y70615D01*
X171633D01*
X171728Y70592D01*
X171846Y70568D01*
X171964Y70521D01*
X171987Y70497D01*
X172058Y70473D01*
X172129Y70403D01*
X172200Y70308D01*
X172223Y70285D01*
X172247Y70237D01*
X172271Y70143D01*
X172294Y70049D01*
Y53342D01*
Y53319D01*
Y53248D01*
X172247Y53154D01*
X172200Y53059D01*
X172176Y53036D01*
X172129Y52988D01*
X172058Y52918D01*
X171940Y52847D01*
X171917D01*
X171846Y52823D01*
X171751Y52800D01*
X171633Y52776D01*
X171610D01*
X171515Y52752D01*
X171374Y52729D01*
X171020D01*
X170878Y52752D01*
X170737Y52776D01*
X170713D01*
X170642Y52800D01*
X170524Y52823D01*
X170406Y52847D01*
X170383Y52870D01*
X170336Y52894D01*
X170170Y53036D01*
Y53059D01*
X170147Y53130D01*
X170123Y53224D01*
X170100Y53342D01*
Y70049D01*
Y70072D01*
Y70143D01*
X170123Y70237D01*
X170170Y70332D01*
X170194Y70356D01*
X170241Y70403D01*
X170312Y70473D01*
X170430Y70521D01*
X170454Y70544D01*
X170524Y70568D01*
X170642Y70592D01*
X170760Y70615D01*
X170784D01*
X170878Y70639D01*
X171020Y70662D01*
X171327D01*
X171468Y70639D01*
D02*
G37*
G36*
X152874Y71913D02*
X153016Y71889D01*
X153063D01*
X153134Y71866D01*
X153252Y71842D01*
X153370Y71795D01*
X153393Y71771D01*
X153440Y71748D01*
X153511Y71677D01*
X153582Y71582D01*
X153606Y71559D01*
X153629Y71512D01*
X153653Y71417D01*
X153676Y71323D01*
Y60492D01*
X158301Y65542D01*
X158325Y65565D01*
X158372Y65613D01*
X158443Y65683D01*
X158537Y65754D01*
X158561Y65778D01*
X158632Y65801D01*
X158726Y65849D01*
X158844Y65896D01*
X158868D01*
X158962Y65919D01*
X159080Y65943D01*
X159222Y65967D01*
X159269D01*
X159363Y65990D01*
X159481Y66014D01*
X159906D01*
X160071Y65990D01*
X160118D01*
X160189Y65967D01*
X160307Y65943D01*
X160425Y65896D01*
X160449D01*
X160519Y65849D01*
X160614Y65801D01*
X160708Y65731D01*
X160732Y65707D01*
X160779Y65660D01*
X160803Y65542D01*
X160826Y65424D01*
Y65400D01*
X160803Y65306D01*
X160779Y65164D01*
X160708Y65023D01*
X160685Y64999D01*
X160637Y64928D01*
X160543Y64834D01*
X160449Y64716D01*
X155611Y60256D01*
X160897Y54050D01*
X160944Y54027D01*
X161015Y53932D01*
X161109Y53814D01*
X161204Y53696D01*
X161227Y53673D01*
X161251Y53602D01*
X161275Y53507D01*
X161298Y53366D01*
Y53342D01*
Y53272D01*
X161251Y53177D01*
X161204Y53059D01*
X161180Y53036D01*
X161133Y52988D01*
X161062Y52918D01*
X160968Y52847D01*
X160944D01*
X160873Y52823D01*
X160779Y52800D01*
X160637Y52776D01*
X160614D01*
X160519Y52752D01*
X160378Y52729D01*
X159835D01*
X159670Y52752D01*
X159646D01*
X159552Y52776D01*
X159434D01*
X159316Y52800D01*
X159292D01*
X159222Y52847D01*
X159127Y52870D01*
X159033Y52941D01*
X159009Y52965D01*
X158962Y53012D01*
X158891Y53106D01*
X158797Y53201D01*
X153676Y59902D01*
Y53342D01*
Y53319D01*
Y53248D01*
X153629Y53154D01*
X153582Y53059D01*
X153558Y53036D01*
X153511Y52988D01*
X153440Y52918D01*
X153346Y52847D01*
X153322D01*
X153252Y52823D01*
X153157Y52800D01*
X153039Y52776D01*
X153016D01*
X152921Y52752D01*
X152780Y52729D01*
X152426D01*
X152284Y52752D01*
X152143Y52776D01*
X152119D01*
X152048Y52800D01*
X151930Y52823D01*
X151812Y52847D01*
X151789Y52870D01*
X151718Y52894D01*
X151647Y52965D01*
X151576Y53059D01*
Y53083D01*
X151553Y53154D01*
X151529Y53248D01*
Y53342D01*
Y71323D01*
Y71347D01*
Y71417D01*
X151576Y71582D01*
X151600Y71606D01*
X151623Y71653D01*
X151694Y71724D01*
X151789Y71795D01*
X151812Y71818D01*
X151907Y71842D01*
X152001Y71866D01*
X152143Y71889D01*
X152190D01*
X152284Y71913D01*
X152426Y71936D01*
X152732D01*
X152874Y71913D01*
D02*
G37*
G36*
X81424Y66132D02*
X81730Y66108D01*
X82061Y66084D01*
X82438Y66014D01*
X82792Y65943D01*
X83146Y65825D01*
X83193Y65801D01*
X83311Y65754D01*
X83476Y65683D01*
X83689Y65589D01*
X83925Y65447D01*
X84161Y65282D01*
X84397Y65093D01*
X84633Y64881D01*
X84656Y64858D01*
X84727Y64787D01*
X84822Y64645D01*
X84963Y64480D01*
X85105Y64268D01*
X85223Y64008D01*
X85364Y63725D01*
X85459Y63418D01*
X85482Y63371D01*
X85506Y63277D01*
X85553Y63088D01*
X85600Y62852D01*
X85647Y62569D01*
X85671Y62238D01*
X85718Y61861D01*
Y61483D01*
Y53342D01*
Y53295D01*
X85695Y53201D01*
X85647Y53059D01*
X85553Y52941D01*
X85529Y52918D01*
X85459Y52870D01*
X85341Y52823D01*
X85199Y52776D01*
X85176D01*
X85081Y52752D01*
X84916Y52729D01*
X84562D01*
X84420Y52752D01*
X84255Y52776D01*
X84232D01*
X84137Y52800D01*
X84019Y52847D01*
X83901Y52941D01*
X83878Y52965D01*
X83830Y53036D01*
X83760Y53177D01*
X83736Y53342D01*
Y54404D01*
X83713Y54357D01*
X83665Y54263D01*
X83571Y54121D01*
X83429Y53932D01*
X83217Y53720D01*
X82981Y53484D01*
X82674Y53271D01*
X82320Y53059D01*
X82273Y53036D01*
X82155Y52988D01*
X81943Y52894D01*
X81683Y52823D01*
X81353Y52729D01*
X80999Y52634D01*
X80598Y52587D01*
X80173Y52564D01*
X80008D01*
X79819Y52587D01*
X79583D01*
X79300Y52634D01*
X78993Y52682D01*
X78686Y52729D01*
X78380Y52823D01*
X78356Y52847D01*
X78238Y52870D01*
X78096Y52941D01*
X77908Y53012D01*
X77695Y53130D01*
X77459Y53248D01*
X77011Y53578D01*
X76988Y53602D01*
X76917Y53673D01*
X76822Y53767D01*
X76681Y53909D01*
X76539Y54097D01*
X76398Y54286D01*
X76256Y54522D01*
X76138Y54782D01*
Y54805D01*
X76091Y54900D01*
X76044Y55041D01*
X75996Y55254D01*
X75949Y55490D01*
X75902Y55749D01*
X75878Y56056D01*
X75855Y56363D01*
Y56386D01*
Y56410D01*
Y56551D01*
X75878Y56740D01*
X75902Y57000D01*
X75949Y57307D01*
X76044Y57613D01*
X76138Y57920D01*
X76280Y58227D01*
X76303Y58274D01*
X76374Y58368D01*
X76468Y58510D01*
X76610Y58699D01*
X76775Y58911D01*
X76988Y59124D01*
X77247Y59336D01*
X77530Y59548D01*
X77577Y59572D01*
X77672Y59643D01*
X77860Y59737D01*
X78073Y59855D01*
X78356Y59973D01*
X78686Y60115D01*
X79064Y60233D01*
X79465Y60350D01*
X79489D01*
X79512Y60374D01*
X79654Y60398D01*
X79890Y60445D01*
X80197Y60492D01*
X80550Y60539D01*
X80975Y60563D01*
X81424Y60610D01*
X83571D01*
Y61365D01*
Y61389D01*
Y61483D01*
Y61625D01*
X83547Y61790D01*
X83524Y62002D01*
X83500Y62215D01*
X83406Y62639D01*
Y62663D01*
X83382Y62734D01*
X83335Y62828D01*
X83288Y62946D01*
X83146Y63229D01*
X82934Y63513D01*
X82910Y63536D01*
X82887Y63583D01*
X82816Y63630D01*
X82721Y63725D01*
X82603Y63796D01*
X82462Y63890D01*
X82108Y64055D01*
X82084D01*
X82014Y64079D01*
X81896Y64126D01*
X81754Y64150D01*
X81565Y64197D01*
X81353Y64220D01*
X81117Y64244D01*
X80574D01*
X80385Y64220D01*
X80173Y64197D01*
X79937Y64173D01*
X79465Y64055D01*
X79441D01*
X79371Y64032D01*
X79253Y63984D01*
X79111Y63937D01*
X78757Y63796D01*
X78380Y63630D01*
X78356D01*
X78309Y63583D01*
X78215Y63536D01*
X78096Y63489D01*
X77837Y63347D01*
X77554Y63182D01*
X77530D01*
X77507Y63158D01*
X77365Y63088D01*
X77176Y63017D01*
X77011Y62993D01*
X76917D01*
X76822Y63017D01*
X76728Y63040D01*
X76704D01*
X76657Y63088D01*
X76586Y63135D01*
X76515Y63206D01*
Y63229D01*
X76468Y63300D01*
X76445Y63394D01*
X76421Y63489D01*
Y63513D01*
Y63583D01*
X76398Y63701D01*
Y63843D01*
Y63866D01*
Y63890D01*
Y64032D01*
X76421Y64220D01*
X76445Y64385D01*
Y64433D01*
X76492Y64527D01*
X76563Y64645D01*
X76681Y64787D01*
X76728Y64834D01*
X76846Y64928D01*
X77058Y65070D01*
X77341Y65235D01*
X77365Y65259D01*
X77436Y65282D01*
X77530Y65329D01*
X77648Y65400D01*
X77813Y65471D01*
X77979Y65542D01*
X78380Y65683D01*
X78403D01*
X78474Y65731D01*
X78592Y65754D01*
X78757Y65801D01*
X78946Y65848D01*
X79158Y65919D01*
X79630Y66014D01*
X79654D01*
X79748Y66037D01*
X79890Y66061D01*
X80055Y66084D01*
X80267Y66108D01*
X80480Y66132D01*
X80975Y66155D01*
X81188D01*
X81424Y66132D01*
D02*
G37*
G36*
X-26153Y71913D02*
X-26012Y71889D01*
X-25965D01*
X-25894Y71866D01*
X-25776Y71842D01*
X-25658Y71795D01*
X-25634Y71771D01*
X-25587Y71748D01*
X-25516Y71677D01*
X-25445Y71582D01*
X-25422Y71559D01*
X-25398Y71512D01*
X-25375Y71417D01*
X-25351Y71323D01*
Y53342D01*
Y53319D01*
Y53248D01*
X-25398Y53154D01*
X-25445Y53059D01*
X-25469Y53036D01*
X-25516Y52988D01*
X-25587Y52918D01*
X-25681Y52847D01*
X-25705D01*
X-25776Y52823D01*
X-25870Y52800D01*
X-25988Y52776D01*
X-26012D01*
X-26106Y52752D01*
X-26248Y52729D01*
X-26602D01*
X-26743Y52752D01*
X-26885Y52776D01*
X-26908D01*
X-26979Y52800D01*
X-27097Y52823D01*
X-27215Y52847D01*
X-27239Y52870D01*
X-27310Y52894D01*
X-27380Y52965D01*
X-27451Y53059D01*
Y53083D01*
X-27475Y53154D01*
X-27498Y53248D01*
Y53342D01*
Y71323D01*
Y71347D01*
Y71417D01*
X-27451Y71582D01*
X-27427Y71606D01*
X-27404Y71653D01*
X-27333Y71724D01*
X-27239Y71795D01*
X-27215Y71818D01*
X-27121Y71842D01*
X-27026Y71866D01*
X-26885Y71889D01*
X-26838D01*
X-26743Y71913D01*
X-26602Y71936D01*
X-26295D01*
X-26153Y71913D01*
D02*
G37*
G36*
X-50293Y70568D02*
X-50127D01*
X-49750Y70521D01*
X-49655D01*
X-49538Y70497D01*
X-49396Y70473D01*
X-49207Y70450D01*
X-48995Y70403D01*
X-48523Y70308D01*
X-48499D01*
X-48405Y70285D01*
X-48263Y70237D01*
X-48098Y70190D01*
X-47886Y70096D01*
X-47626Y70002D01*
X-47367Y69883D01*
X-47107Y69718D01*
X-47084Y69695D01*
X-46989Y69648D01*
X-46848Y69553D01*
X-46682Y69412D01*
X-46494Y69246D01*
X-46281Y69081D01*
X-46069Y68869D01*
X-45880Y68633D01*
X-45856Y68609D01*
X-45786Y68515D01*
X-45691Y68397D01*
X-45573Y68208D01*
X-45455Y67996D01*
X-45314Y67736D01*
X-45196Y67477D01*
X-45078Y67170D01*
X-45054Y67123D01*
X-45031Y67028D01*
X-44983Y66863D01*
X-44936Y66627D01*
X-44889Y66368D01*
X-44842Y66061D01*
X-44795Y65731D01*
Y65377D01*
Y65353D01*
Y65329D01*
Y65259D01*
Y65164D01*
X-44818Y64928D01*
X-44842Y64622D01*
X-44913Y64268D01*
X-44983Y63866D01*
X-45101Y63465D01*
X-45243Y63064D01*
X-45266Y63017D01*
X-45314Y62899D01*
X-45408Y62687D01*
X-45550Y62451D01*
X-45739Y62144D01*
X-45927Y61861D01*
X-46187Y61554D01*
X-46470Y61247D01*
X-46517Y61224D01*
X-46611Y61129D01*
X-46777Y60988D01*
X-47013Y60822D01*
X-47296Y60634D01*
X-47626Y60421D01*
X-48004Y60233D01*
X-48429Y60067D01*
X-48452D01*
X-48476Y60044D01*
X-48547Y60020D01*
X-48641Y59997D01*
X-48877Y59949D01*
X-49184Y59879D01*
X-49585Y59784D01*
X-50057Y59737D01*
X-50576Y59690D01*
X-51166Y59666D01*
X-53101D01*
Y53342D01*
Y53319D01*
Y53248D01*
X-53148Y53154D01*
X-53195Y53059D01*
X-53219Y53036D01*
X-53266Y52988D01*
X-53337Y52918D01*
X-53455Y52847D01*
X-53478D01*
X-53549Y52823D01*
X-53643Y52800D01*
X-53761Y52776D01*
X-53785D01*
X-53879Y52752D01*
X-54021Y52729D01*
X-54375D01*
X-54516Y52752D01*
X-54658Y52776D01*
X-54682D01*
X-54752Y52800D01*
X-54870Y52823D01*
X-54988Y52847D01*
X-55012Y52870D01*
X-55059Y52894D01*
X-55224Y53036D01*
Y53059D01*
X-55248Y53130D01*
X-55272Y53224D01*
X-55295Y53342D01*
Y69482D01*
Y69506D01*
Y69577D01*
X-55272Y69695D01*
X-55248Y69813D01*
X-55153Y70096D01*
X-55083Y70237D01*
X-54965Y70332D01*
X-54941Y70356D01*
X-54894Y70379D01*
X-54823Y70426D01*
X-54752Y70473D01*
X-54516Y70544D01*
X-54398Y70591D01*
X-50458D01*
X-50293Y70568D01*
D02*
G37*
G36*
X-170777Y65990D02*
X-170635Y65967D01*
X-170588D01*
X-170517Y65943D01*
X-170399Y65919D01*
X-170281Y65872D01*
X-170258Y65848D01*
X-170210Y65825D01*
X-170140Y65754D01*
X-170069Y65660D01*
X-170045Y65636D01*
X-170022Y65589D01*
X-169998Y65494D01*
X-169975Y65400D01*
Y53342D01*
Y53319D01*
Y53248D01*
X-170022Y53154D01*
X-170069Y53059D01*
X-170093Y53035D01*
X-170140Y52988D01*
X-170210Y52917D01*
X-170305Y52847D01*
X-170329D01*
X-170399Y52823D01*
X-170494Y52800D01*
X-170612Y52776D01*
X-170635D01*
X-170730Y52752D01*
X-170871Y52729D01*
X-171225D01*
X-171367Y52752D01*
X-171508Y52776D01*
X-171532D01*
X-171603Y52800D01*
X-171721Y52823D01*
X-171839Y52847D01*
X-171862Y52870D01*
X-171933Y52894D01*
X-172004Y52965D01*
X-172075Y53059D01*
Y53083D01*
X-172098Y53154D01*
X-172122Y53248D01*
Y53342D01*
Y65400D01*
Y65424D01*
Y65494D01*
X-172075Y65660D01*
X-172051Y65683D01*
X-172027Y65731D01*
X-171957Y65801D01*
X-171862Y65872D01*
X-171839Y65896D01*
X-171744Y65919D01*
X-171650Y65943D01*
X-171508Y65967D01*
X-171461D01*
X-171367Y65990D01*
X-171225Y66014D01*
X-170918D01*
X-170777Y65990D01*
D02*
G37*
G36*
X-180711Y70568D02*
X-180546D01*
X-180168Y70521D01*
X-180074D01*
X-179956Y70497D01*
X-179814Y70473D01*
X-179626Y70450D01*
X-179413Y70403D01*
X-178941Y70308D01*
X-178918D01*
X-178823Y70285D01*
X-178682Y70237D01*
X-178517Y70190D01*
X-178304Y70096D01*
X-178045Y70002D01*
X-177785Y69883D01*
X-177526Y69718D01*
X-177502Y69695D01*
X-177407Y69647D01*
X-177266Y69553D01*
X-177101Y69412D01*
X-176912Y69246D01*
X-176700Y69081D01*
X-176487Y68869D01*
X-176299Y68633D01*
X-176275Y68609D01*
X-176204Y68515D01*
X-176110Y68397D01*
X-175992Y68208D01*
X-175874Y67996D01*
X-175732Y67736D01*
X-175614Y67477D01*
X-175496Y67170D01*
X-175473Y67123D01*
X-175449Y67028D01*
X-175402Y66863D01*
X-175355Y66627D01*
X-175307Y66368D01*
X-175260Y66061D01*
X-175213Y65731D01*
Y65377D01*
Y65353D01*
Y65329D01*
Y65259D01*
Y65164D01*
X-175237Y64928D01*
X-175260Y64622D01*
X-175331Y64268D01*
X-175402Y63866D01*
X-175520Y63465D01*
X-175661Y63064D01*
X-175685Y63017D01*
X-175732Y62899D01*
X-175826Y62687D01*
X-175968Y62451D01*
X-176157Y62144D01*
X-176346Y61861D01*
X-176605Y61554D01*
X-176888Y61247D01*
X-176936Y61224D01*
X-177030Y61129D01*
X-177195Y60988D01*
X-177431Y60822D01*
X-177714Y60634D01*
X-178045Y60421D01*
X-178422Y60233D01*
X-178847Y60067D01*
X-178871D01*
X-178894Y60044D01*
X-178965Y60020D01*
X-179059Y59997D01*
X-179295Y59949D01*
X-179602Y59879D01*
X-180003Y59784D01*
X-180475Y59737D01*
X-180994Y59690D01*
X-181584Y59666D01*
X-183519D01*
Y53342D01*
Y53319D01*
Y53248D01*
X-183566Y53154D01*
X-183613Y53059D01*
X-183637Y53035D01*
X-183684Y52988D01*
X-183755Y52917D01*
X-183873Y52847D01*
X-183897D01*
X-183967Y52823D01*
X-184062Y52800D01*
X-184180Y52776D01*
X-184203D01*
X-184298Y52752D01*
X-184439Y52729D01*
X-184793D01*
X-184935Y52752D01*
X-185076Y52776D01*
X-185100D01*
X-185171Y52800D01*
X-185289Y52823D01*
X-185407Y52847D01*
X-185430Y52870D01*
X-185478Y52894D01*
X-185643Y53035D01*
Y53059D01*
X-185666Y53130D01*
X-185690Y53224D01*
X-185714Y53342D01*
Y69482D01*
Y69506D01*
Y69577D01*
X-185690Y69695D01*
X-185666Y69813D01*
X-185572Y70096D01*
X-185501Y70237D01*
X-185383Y70332D01*
X-185359Y70355D01*
X-185312Y70379D01*
X-185242Y70426D01*
X-185171Y70473D01*
X-184935Y70544D01*
X-184817Y70591D01*
X-180876D01*
X-180711Y70568D01*
D02*
G37*
G36*
X91405Y69223D02*
X91547Y69199D01*
X91594D01*
X91664Y69176D01*
X91783Y69152D01*
X91901Y69105D01*
X91924Y69081D01*
X91971Y69058D01*
X92042Y68987D01*
X92113Y68892D01*
X92136Y68869D01*
X92160Y68822D01*
X92184Y68727D01*
X92207Y68633D01*
Y65943D01*
X95369D01*
X95464Y65896D01*
X95558Y65848D01*
X95582Y65825D01*
X95652Y65801D01*
X95723Y65731D01*
X95794Y65636D01*
X95817Y65613D01*
X95841Y65565D01*
X95888Y65447D01*
X95912Y65329D01*
Y65306D01*
X95935Y65235D01*
X95959Y65117D01*
Y64999D01*
Y64976D01*
Y64928D01*
Y64858D01*
X95935Y64763D01*
X95888Y64527D01*
X95770Y64315D01*
X95747Y64268D01*
X95629Y64197D01*
X95464Y64102D01*
X95369Y64079D01*
X95251Y64055D01*
X92207D01*
Y57047D01*
Y57023D01*
Y57000D01*
Y56929D01*
Y56835D01*
X92231Y56599D01*
X92254Y56315D01*
X92278Y56009D01*
X92349Y55702D01*
X92420Y55395D01*
X92538Y55136D01*
X92561Y55112D01*
X92608Y55041D01*
X92679Y54947D01*
X92821Y54829D01*
X92986Y54711D01*
X93175Y54617D01*
X93434Y54546D01*
X93741Y54522D01*
X93906D01*
X94071Y54546D01*
X94260Y54569D01*
X94284D01*
X94307Y54593D01*
X94402Y54617D01*
X94543Y54664D01*
X94685Y54711D01*
X94708Y54735D01*
X94803Y54758D01*
X94921Y54805D01*
X95039Y54852D01*
X95062Y54876D01*
X95157Y54900D01*
X95251Y54923D01*
X95393Y54947D01*
X95464D01*
X95534Y54923D01*
X95629Y54876D01*
X95652Y54852D01*
X95700Y54829D01*
X95770Y54758D01*
X95817Y54664D01*
X95841Y54640D01*
X95865Y54593D01*
X95888Y54499D01*
X95912Y54404D01*
Y54381D01*
X95935Y54310D01*
X95959Y54215D01*
Y54074D01*
Y54050D01*
Y54027D01*
Y53885D01*
X95935Y53720D01*
X95888Y53531D01*
X95865Y53484D01*
X95841Y53390D01*
X95770Y53271D01*
X95676Y53154D01*
X95652Y53130D01*
X95582Y53059D01*
X95464Y52988D01*
X95298Y52894D01*
X95251Y52870D01*
X95157Y52847D01*
X94992Y52800D01*
X94779Y52752D01*
X94732D01*
X94614Y52705D01*
X94449Y52682D01*
X94237Y52658D01*
X94189D01*
X94048Y52634D01*
X93859Y52611D01*
X93482D01*
X93316Y52634D01*
X93080D01*
X92821Y52682D01*
X92561Y52729D01*
X92278Y52776D01*
X91995Y52870D01*
X91971Y52894D01*
X91877Y52918D01*
X91759Y52988D01*
X91594Y53059D01*
X91429Y53177D01*
X91240Y53319D01*
X91051Y53484D01*
X90862Y53673D01*
X90839Y53696D01*
X90792Y53767D01*
X90721Y53885D01*
X90626Y54050D01*
X90532Y54239D01*
X90414Y54451D01*
X90319Y54711D01*
X90249Y54994D01*
Y55041D01*
X90225Y55136D01*
X90202Y55301D01*
X90154Y55513D01*
X90131Y55796D01*
X90084Y56103D01*
X90060Y56457D01*
Y56835D01*
Y64055D01*
X88479D01*
X88337Y64079D01*
X88172Y64173D01*
X88101Y64220D01*
X88031Y64315D01*
Y64338D01*
X88007Y64362D01*
X87960Y64503D01*
X87889Y64716D01*
X87865Y64999D01*
Y65023D01*
Y65117D01*
Y65235D01*
X87889Y65353D01*
Y65377D01*
X87913Y65447D01*
X87984Y65636D01*
X88007Y65660D01*
X88054Y65707D01*
X88125Y65778D01*
X88219Y65848D01*
X88243Y65872D01*
X88314Y65896D01*
X88408Y65919D01*
X88526Y65943D01*
X90060D01*
Y68633D01*
Y68657D01*
Y68727D01*
X90107Y68892D01*
X90131Y68916D01*
X90154Y68963D01*
X90225Y69034D01*
X90319Y69105D01*
X90343Y69128D01*
X90437Y69152D01*
X90532Y69176D01*
X90674Y69199D01*
X90721D01*
X90815Y69223D01*
X90957Y69246D01*
X91263D01*
X91405Y69223D01*
D02*
G37*
G36*
X104242Y66132D02*
X104383D01*
X104737Y66108D01*
X105138Y66037D01*
X105563Y65967D01*
X106011Y65848D01*
X106436Y65683D01*
X106460D01*
X106483Y65660D01*
X106625Y65589D01*
X106837Y65495D01*
X107097Y65329D01*
X107380Y65141D01*
X107710Y64905D01*
X108017Y64622D01*
X108300Y64315D01*
X108324Y64268D01*
X108418Y64150D01*
X108560Y63984D01*
X108725Y63725D01*
X108914Y63418D01*
X109102Y63064D01*
X109268Y62663D01*
X109433Y62215D01*
Y62191D01*
X109456Y62168D01*
X109480Y62097D01*
X109504Y62002D01*
X109551Y61743D01*
X109621Y61412D01*
X109692Y61011D01*
X109763Y60539D01*
X109787Y60020D01*
X109810Y59478D01*
Y59454D01*
Y59407D01*
Y59336D01*
Y59241D01*
Y59100D01*
X109787Y58958D01*
X109763Y58581D01*
X109716Y58156D01*
X109645Y57708D01*
X109551Y57236D01*
X109409Y56740D01*
Y56717D01*
X109386Y56693D01*
X109362Y56622D01*
X109338Y56528D01*
X109244Y56292D01*
X109126Y56009D01*
X108961Y55655D01*
X108772Y55277D01*
X108536Y54923D01*
X108253Y54546D01*
X108229Y54499D01*
X108111Y54381D01*
X107946Y54215D01*
X107710Y54003D01*
X107427Y53767D01*
X107097Y53531D01*
X106719Y53295D01*
X106294Y53083D01*
X106271D01*
X106247Y53059D01*
X106176Y53036D01*
X106082Y53012D01*
X105846Y52918D01*
X105516Y52823D01*
X105138Y52729D01*
X104666Y52634D01*
X104171Y52587D01*
X103604Y52564D01*
X103368D01*
X103227Y52587D01*
X103085D01*
X102731Y52611D01*
X102330Y52682D01*
X101882Y52752D01*
X101457Y52870D01*
X101009Y53012D01*
X100985D01*
X100962Y53036D01*
X100820Y53106D01*
X100608Y53201D01*
X100372Y53366D01*
X100065Y53555D01*
X99758Y53791D01*
X99451Y54050D01*
X99145Y54357D01*
X99121Y54404D01*
X99027Y54522D01*
X98885Y54711D01*
X98720Y54970D01*
X98531Y55277D01*
X98366Y55631D01*
X98177Y56032D01*
X98036Y56481D01*
Y56504D01*
X98012Y56528D01*
Y56599D01*
X97988Y56693D01*
X97918Y56953D01*
X97870Y57283D01*
X97800Y57708D01*
X97729Y58180D01*
X97705Y58699D01*
X97682Y59265D01*
Y59289D01*
Y59336D01*
Y59407D01*
Y59525D01*
Y59643D01*
X97705Y59808D01*
X97729Y60162D01*
X97776Y60587D01*
X97823Y61035D01*
X97918Y61507D01*
X98036Y61979D01*
Y62002D01*
X98059Y62026D01*
X98083Y62097D01*
X98106Y62191D01*
X98201Y62427D01*
X98319Y62710D01*
X98484Y63064D01*
X98673Y63418D01*
X98909Y63796D01*
X99192Y64150D01*
X99239Y64197D01*
X99333Y64315D01*
X99499Y64480D01*
X99735Y64692D01*
X100018Y64928D01*
X100348Y65164D01*
X100702Y65400D01*
X101127Y65613D01*
X101150D01*
X101174Y65636D01*
X101245Y65660D01*
X101339Y65707D01*
X101575Y65778D01*
X101905Y65896D01*
X102307Y65990D01*
X102779Y66061D01*
X103298Y66132D01*
X103864Y66155D01*
X104100D01*
X104242Y66132D01*
D02*
G37*
G36*
X59266D02*
X59597Y66084D01*
X59974Y66037D01*
X60399Y65943D01*
X60800Y65825D01*
X61201Y65660D01*
X61225D01*
X61248Y65636D01*
X61367Y65565D01*
X61555Y65471D01*
X61791Y65329D01*
X62074Y65141D01*
X62358Y64905D01*
X62617Y64645D01*
X62877Y64362D01*
X62900Y64315D01*
X62995Y64220D01*
X63113Y64055D01*
X63254Y63819D01*
X63396Y63560D01*
X63561Y63229D01*
X63726Y62875D01*
X63844Y62498D01*
X63868Y62451D01*
X63891Y62309D01*
X63938Y62097D01*
X64009Y61837D01*
X64057Y61507D01*
X64104Y61129D01*
X64127Y60728D01*
X64151Y60303D01*
Y59973D01*
Y59949D01*
Y59879D01*
X64127Y59761D01*
X64104Y59619D01*
X64057Y59478D01*
X64009Y59336D01*
X63915Y59194D01*
X63797Y59100D01*
X63773D01*
X63726Y59053D01*
X63679Y59029D01*
X63585Y58982D01*
X63349Y58911D01*
X63113Y58864D01*
X55161D01*
Y58817D01*
Y58722D01*
Y58557D01*
X55184Y58345D01*
X55208Y58085D01*
X55231Y57802D01*
X55349Y57165D01*
Y57118D01*
X55397Y57023D01*
X55444Y56858D01*
X55514Y56670D01*
X55609Y56434D01*
X55727Y56198D01*
X55869Y55938D01*
X56034Y55702D01*
X56057Y55678D01*
X56128Y55608D01*
X56222Y55490D01*
X56364Y55372D01*
X56529Y55230D01*
X56742Y55065D01*
X56978Y54923D01*
X57237Y54805D01*
X57284Y54782D01*
X57379Y54758D01*
X57544Y54711D01*
X57756Y54664D01*
X58039Y54593D01*
X58370Y54546D01*
X58724Y54522D01*
X59148Y54499D01*
X59432D01*
X59620Y54522D01*
X59856D01*
X60092Y54546D01*
X60564Y54617D01*
X60588D01*
X60682Y54640D01*
X60800Y54664D01*
X60942Y54711D01*
X61296Y54805D01*
X61673Y54923D01*
X61697D01*
X61768Y54947D01*
X61838Y54994D01*
X61956Y55041D01*
X62240Y55159D01*
X62499Y55277D01*
X62523D01*
X62570Y55301D01*
X62712Y55372D01*
X62877Y55419D01*
X63042Y55442D01*
X63136D01*
X63231Y55395D01*
X63349Y55348D01*
X63372Y55325D01*
X63419Y55277D01*
X63490Y55206D01*
X63537Y55112D01*
X63561Y55089D01*
X63585Y55041D01*
X63608Y54947D01*
X63632Y54829D01*
Y54805D01*
X63655Y54711D01*
X63679Y54593D01*
Y54451D01*
Y54428D01*
Y54381D01*
X63655Y54239D01*
Y54215D01*
X63632Y54168D01*
X63608Y54027D01*
Y54003D01*
X63585Y53956D01*
X63514Y53814D01*
Y53791D01*
X63490Y53767D01*
X63372Y53625D01*
X63349Y53602D01*
X63278Y53578D01*
X63207Y53531D01*
X63113Y53484D01*
X63018Y53437D01*
X62877Y53366D01*
X62853D01*
X62806Y53342D01*
X62735Y53295D01*
X62617Y53248D01*
X62476Y53201D01*
X62310Y53130D01*
X61933Y52988D01*
X61909D01*
X61838Y52965D01*
X61720Y52941D01*
X61555Y52894D01*
X61367Y52847D01*
X61154Y52800D01*
X60895Y52752D01*
X60611Y52705D01*
X60588D01*
X60470Y52682D01*
X60328Y52658D01*
X60116Y52634D01*
X59856Y52611D01*
X59597Y52587D01*
X59290Y52564D01*
X58724D01*
X58582Y52587D01*
X58440D01*
X58087Y52611D01*
X57685Y52658D01*
X57237Y52752D01*
X56812Y52847D01*
X56364Y52988D01*
X56340D01*
X56317Y53012D01*
X56175Y53083D01*
X55963Y53177D01*
X55703Y53319D01*
X55397Y53507D01*
X55090Y53744D01*
X54759Y54003D01*
X54453Y54310D01*
X54429Y54357D01*
X54335Y54475D01*
X54193Y54664D01*
X54004Y54900D01*
X53816Y55206D01*
X53627Y55584D01*
X53438Y55985D01*
X53273Y56434D01*
Y56457D01*
X53249Y56481D01*
Y56551D01*
X53226Y56646D01*
X53179Y56764D01*
X53155Y56905D01*
X53084Y57259D01*
X53013Y57684D01*
X52966Y58180D01*
X52919Y58746D01*
X52895Y59336D01*
Y59359D01*
Y59407D01*
Y59501D01*
Y59595D01*
X52919Y59737D01*
Y59902D01*
X52943Y60280D01*
X52990Y60728D01*
X53060Y61200D01*
X53155Y61695D01*
X53296Y62168D01*
Y62191D01*
X53320Y62215D01*
X53344Y62285D01*
X53367Y62380D01*
X53462Y62616D01*
X53603Y62899D01*
X53745Y63229D01*
X53957Y63583D01*
X54193Y63961D01*
X54453Y64291D01*
X54500Y64338D01*
X54594Y64433D01*
X54759Y64598D01*
X54972Y64810D01*
X55255Y65023D01*
X55562Y65259D01*
X55916Y65471D01*
X56317Y65660D01*
X56340D01*
X56364Y65683D01*
X56506Y65731D01*
X56742Y65825D01*
X57048Y65919D01*
X57402Y65990D01*
X57803Y66084D01*
X58275Y66132D01*
X58747Y66155D01*
X58983D01*
X59266Y66132D01*
D02*
G37*
G36*
X31540D02*
X31871Y66084D01*
X32248Y66037D01*
X32673Y65943D01*
X33074Y65825D01*
X33475Y65660D01*
X33499D01*
X33523Y65636D01*
X33640Y65565D01*
X33829Y65471D01*
X34065Y65329D01*
X34348Y65141D01*
X34632Y64905D01*
X34891Y64645D01*
X35151Y64362D01*
X35174Y64315D01*
X35269Y64220D01*
X35387Y64055D01*
X35528Y63819D01*
X35670Y63560D01*
X35835Y63229D01*
X36000Y62875D01*
X36118Y62498D01*
X36142Y62451D01*
X36165Y62309D01*
X36212Y62097D01*
X36283Y61837D01*
X36330Y61507D01*
X36378Y61129D01*
X36401Y60728D01*
X36425Y60303D01*
Y59973D01*
Y59949D01*
Y59879D01*
X36401Y59761D01*
X36378Y59619D01*
X36330Y59478D01*
X36283Y59336D01*
X36189Y59194D01*
X36071Y59100D01*
X36047D01*
X36000Y59053D01*
X35953Y59029D01*
X35859Y58982D01*
X35623Y58911D01*
X35387Y58864D01*
X27435D01*
Y58817D01*
Y58722D01*
Y58557D01*
X27458Y58345D01*
X27482Y58085D01*
X27505Y57802D01*
X27623Y57165D01*
Y57118D01*
X27671Y57023D01*
X27718Y56858D01*
X27789Y56670D01*
X27883Y56434D01*
X28001Y56198D01*
X28142Y55938D01*
X28308Y55702D01*
X28331Y55678D01*
X28402Y55608D01*
X28496Y55490D01*
X28638Y55372D01*
X28803Y55230D01*
X29016Y55065D01*
X29251Y54923D01*
X29511Y54805D01*
X29558Y54782D01*
X29653Y54758D01*
X29818Y54711D01*
X30030Y54664D01*
X30313Y54593D01*
X30644Y54546D01*
X30998Y54522D01*
X31422Y54499D01*
X31706D01*
X31894Y54522D01*
X32130D01*
X32366Y54546D01*
X32838Y54617D01*
X32862D01*
X32956Y54640D01*
X33074Y54664D01*
X33216Y54711D01*
X33570Y54805D01*
X33947Y54923D01*
X33971D01*
X34042Y54947D01*
X34112Y54994D01*
X34230Y55041D01*
X34514Y55159D01*
X34773Y55277D01*
X34797D01*
X34844Y55301D01*
X34985Y55372D01*
X35151Y55419D01*
X35316Y55442D01*
X35410D01*
X35505Y55395D01*
X35623Y55348D01*
X35646Y55325D01*
X35693Y55277D01*
X35764Y55206D01*
X35811Y55112D01*
X35835Y55089D01*
X35859Y55041D01*
X35882Y54947D01*
X35906Y54829D01*
Y54805D01*
X35929Y54711D01*
X35953Y54593D01*
Y54451D01*
Y54428D01*
Y54381D01*
X35929Y54239D01*
Y54215D01*
X35906Y54168D01*
X35882Y54027D01*
Y54003D01*
X35859Y53956D01*
X35788Y53814D01*
Y53791D01*
X35764Y53767D01*
X35646Y53625D01*
X35623Y53602D01*
X35552Y53578D01*
X35481Y53531D01*
X35387Y53484D01*
X35292Y53437D01*
X35151Y53366D01*
X35127D01*
X35080Y53342D01*
X35009Y53295D01*
X34891Y53248D01*
X34750Y53201D01*
X34584Y53130D01*
X34207Y52988D01*
X34183D01*
X34112Y52965D01*
X33994Y52941D01*
X33829Y52894D01*
X33640Y52847D01*
X33428Y52800D01*
X33169Y52752D01*
X32885Y52705D01*
X32862D01*
X32744Y52682D01*
X32602Y52658D01*
X32390Y52634D01*
X32130Y52611D01*
X31871Y52587D01*
X31564Y52564D01*
X30998D01*
X30856Y52587D01*
X30714D01*
X30361Y52611D01*
X29959Y52658D01*
X29511Y52752D01*
X29086Y52847D01*
X28638Y52988D01*
X28614D01*
X28591Y53012D01*
X28449Y53083D01*
X28237Y53177D01*
X27977Y53319D01*
X27671Y53507D01*
X27364Y53744D01*
X27033Y54003D01*
X26727Y54310D01*
X26703Y54357D01*
X26609Y54475D01*
X26467Y54664D01*
X26278Y54900D01*
X26090Y55206D01*
X25901Y55584D01*
X25712Y55985D01*
X25547Y56434D01*
Y56457D01*
X25523Y56481D01*
Y56551D01*
X25500Y56646D01*
X25452Y56764D01*
X25429Y56905D01*
X25358Y57259D01*
X25287Y57684D01*
X25240Y58180D01*
X25193Y58746D01*
X25169Y59336D01*
Y59359D01*
Y59407D01*
Y59501D01*
Y59595D01*
X25193Y59737D01*
Y59902D01*
X25217Y60280D01*
X25264Y60728D01*
X25334Y61200D01*
X25429Y61695D01*
X25570Y62168D01*
Y62191D01*
X25594Y62215D01*
X25618Y62285D01*
X25641Y62380D01*
X25736Y62616D01*
X25877Y62899D01*
X26019Y63229D01*
X26231Y63583D01*
X26467Y63961D01*
X26727Y64291D01*
X26774Y64338D01*
X26868Y64433D01*
X27033Y64598D01*
X27246Y64810D01*
X27529Y65023D01*
X27836Y65259D01*
X28190Y65471D01*
X28591Y65660D01*
X28614D01*
X28638Y65683D01*
X28780Y65731D01*
X29016Y65825D01*
X29322Y65919D01*
X29676Y65990D01*
X30077Y66084D01*
X30549Y66132D01*
X31021Y66155D01*
X31257D01*
X31540Y66132D01*
D02*
G37*
G36*
X-5341Y66132D02*
X-5011Y66084D01*
X-4633Y66037D01*
X-4208Y65943D01*
X-3807Y65825D01*
X-3406Y65660D01*
X-3383D01*
X-3359Y65636D01*
X-3241Y65565D01*
X-3052Y65471D01*
X-2816Y65329D01*
X-2533Y65141D01*
X-2250Y64905D01*
X-1990Y64645D01*
X-1731Y64362D01*
X-1707Y64315D01*
X-1613Y64220D01*
X-1495Y64055D01*
X-1353Y63819D01*
X-1212Y63560D01*
X-1046Y63229D01*
X-881Y62875D01*
X-763Y62498D01*
X-740Y62451D01*
X-716Y62309D01*
X-669Y62097D01*
X-598Y61837D01*
X-551Y61507D01*
X-504Y61129D01*
X-480Y60728D01*
X-457Y60303D01*
Y59973D01*
Y59949D01*
Y59879D01*
X-480Y59761D01*
X-504Y59619D01*
X-551Y59477D01*
X-598Y59336D01*
X-693Y59194D01*
X-811Y59100D01*
X-834D01*
X-881Y59053D01*
X-928Y59029D01*
X-1023Y58982D01*
X-1259Y58911D01*
X-1495Y58864D01*
X-9447D01*
Y58817D01*
Y58722D01*
Y58557D01*
X-9423Y58345D01*
X-9400Y58085D01*
X-9376Y57802D01*
X-9258Y57165D01*
Y57118D01*
X-9211Y57023D01*
X-9164Y56858D01*
X-9093Y56669D01*
X-8999Y56434D01*
X-8881Y56198D01*
X-8739Y55938D01*
X-8574Y55702D01*
X-8550Y55678D01*
X-8479Y55608D01*
X-8385Y55490D01*
X-8243Y55372D01*
X-8078Y55230D01*
X-7866Y55065D01*
X-7630Y54923D01*
X-7370Y54805D01*
X-7323Y54782D01*
X-7229Y54758D01*
X-7064Y54711D01*
X-6851Y54664D01*
X-6568Y54593D01*
X-6238Y54546D01*
X-5884Y54522D01*
X-5459Y54499D01*
X-5176D01*
X-4987Y54522D01*
X-4751D01*
X-4515Y54546D01*
X-4043Y54616D01*
X-4020D01*
X-3925Y54640D01*
X-3807Y54664D01*
X-3666Y54711D01*
X-3312Y54805D01*
X-2934Y54923D01*
X-2911D01*
X-2840Y54947D01*
X-2769Y54994D01*
X-2651Y55041D01*
X-2368Y55159D01*
X-2108Y55277D01*
X-2085D01*
X-2038Y55301D01*
X-1896Y55372D01*
X-1731Y55419D01*
X-1566Y55442D01*
X-1471D01*
X-1377Y55395D01*
X-1259Y55348D01*
X-1235Y55324D01*
X-1188Y55277D01*
X-1117Y55206D01*
X-1070Y55112D01*
X-1046Y55089D01*
X-1023Y55041D01*
X-999Y54947D01*
X-976Y54829D01*
Y54805D01*
X-952Y54711D01*
X-928Y54593D01*
Y54451D01*
Y54428D01*
Y54381D01*
X-952Y54239D01*
Y54215D01*
X-976Y54168D01*
X-999Y54027D01*
Y54003D01*
X-1023Y53956D01*
X-1094Y53814D01*
Y53791D01*
X-1117Y53767D01*
X-1235Y53625D01*
X-1259Y53602D01*
X-1330Y53578D01*
X-1400Y53531D01*
X-1495Y53484D01*
X-1589Y53437D01*
X-1731Y53366D01*
X-1754D01*
X-1802Y53342D01*
X-1872Y53295D01*
X-1990Y53248D01*
X-2132Y53201D01*
X-2297Y53130D01*
X-2675Y52988D01*
X-2698D01*
X-2769Y52965D01*
X-2887Y52941D01*
X-3052Y52894D01*
X-3241Y52847D01*
X-3453Y52800D01*
X-3713Y52752D01*
X-3996Y52705D01*
X-4020D01*
X-4138Y52682D01*
X-4279Y52658D01*
X-4492Y52634D01*
X-4751Y52611D01*
X-5011Y52587D01*
X-5318Y52564D01*
X-5884D01*
X-6025Y52587D01*
X-6167D01*
X-6521Y52611D01*
X-6922Y52658D01*
X-7370Y52752D01*
X-7795Y52847D01*
X-8243Y52988D01*
X-8267D01*
X-8291Y53012D01*
X-8432Y53083D01*
X-8645Y53177D01*
X-8904Y53319D01*
X-9211Y53507D01*
X-9518Y53744D01*
X-9848Y54003D01*
X-10155Y54310D01*
X-10178Y54357D01*
X-10273Y54475D01*
X-10414Y54664D01*
X-10603Y54900D01*
X-10792Y55206D01*
X-10981Y55584D01*
X-11169Y55985D01*
X-11335Y56434D01*
Y56457D01*
X-11358Y56481D01*
Y56551D01*
X-11382Y56646D01*
X-11429Y56764D01*
X-11453Y56905D01*
X-11523Y57259D01*
X-11594Y57684D01*
X-11641Y58180D01*
X-11689Y58746D01*
X-11712Y59336D01*
Y59359D01*
Y59407D01*
Y59501D01*
Y59595D01*
X-11689Y59737D01*
Y59902D01*
X-11665Y60280D01*
X-11618Y60728D01*
X-11547Y61200D01*
X-11453Y61695D01*
X-11311Y62167D01*
Y62191D01*
X-11287Y62215D01*
X-11264Y62285D01*
X-11240Y62380D01*
X-11146Y62616D01*
X-11004Y62899D01*
X-10863Y63229D01*
X-10650Y63583D01*
X-10414Y63961D01*
X-10155Y64291D01*
X-10108Y64338D01*
X-10013Y64433D01*
X-9848Y64598D01*
X-9636Y64810D01*
X-9352Y65023D01*
X-9046Y65259D01*
X-8692Y65471D01*
X-8291Y65660D01*
X-8267D01*
X-8243Y65683D01*
X-8102Y65731D01*
X-7866Y65825D01*
X-7559Y65919D01*
X-7205Y65990D01*
X-6804Y66084D01*
X-6332Y66132D01*
X-5860Y66155D01*
X-5624D01*
X-5341Y66132D01*
D02*
G37*
G36*
X-98784D02*
X-98642D01*
X-98288Y66108D01*
X-97887Y66037D01*
X-97462Y65967D01*
X-97014Y65848D01*
X-96589Y65683D01*
X-96566D01*
X-96542Y65660D01*
X-96400Y65589D01*
X-96188Y65495D01*
X-95928Y65329D01*
X-95645Y65141D01*
X-95315Y64905D01*
X-95008Y64622D01*
X-94725Y64315D01*
X-94701Y64268D01*
X-94607Y64150D01*
X-94465Y63984D01*
X-94300Y63725D01*
X-94111Y63418D01*
X-93923Y63064D01*
X-93757Y62663D01*
X-93592Y62215D01*
Y62191D01*
X-93569Y62167D01*
X-93545Y62097D01*
X-93522Y62002D01*
X-93474Y61743D01*
X-93404Y61412D01*
X-93333Y61011D01*
X-93262Y60539D01*
X-93238Y60020D01*
X-93215Y59477D01*
Y59454D01*
Y59407D01*
Y59336D01*
Y59241D01*
Y59100D01*
X-93238Y58958D01*
X-93262Y58581D01*
X-93309Y58156D01*
X-93380Y57708D01*
X-93474Y57236D01*
X-93616Y56740D01*
Y56717D01*
X-93640Y56693D01*
X-93663Y56622D01*
X-93687Y56528D01*
X-93781Y56292D01*
X-93899Y56009D01*
X-94064Y55655D01*
X-94253Y55277D01*
X-94489Y54923D01*
X-94772Y54546D01*
X-94796Y54499D01*
X-94914Y54381D01*
X-95079Y54215D01*
X-95315Y54003D01*
X-95598Y53767D01*
X-95928Y53531D01*
X-96306Y53295D01*
X-96731Y53083D01*
X-96754D01*
X-96778Y53059D01*
X-96849Y53036D01*
X-96943Y53012D01*
X-97179Y52918D01*
X-97509Y52823D01*
X-97887Y52729D01*
X-98359Y52634D01*
X-98854Y52587D01*
X-99421Y52564D01*
X-99657D01*
X-99798Y52587D01*
X-99940D01*
X-100294Y52611D01*
X-100695Y52682D01*
X-101143Y52752D01*
X-101568Y52870D01*
X-102016Y53012D01*
X-102040D01*
X-102064Y53036D01*
X-102205Y53106D01*
X-102417Y53201D01*
X-102654Y53366D01*
X-102960Y53555D01*
X-103267Y53791D01*
X-103574Y54050D01*
X-103881Y54357D01*
X-103904Y54404D01*
X-103998Y54522D01*
X-104140Y54711D01*
X-104305Y54970D01*
X-104494Y55277D01*
X-104659Y55631D01*
X-104848Y56032D01*
X-104990Y56481D01*
Y56504D01*
X-105013Y56528D01*
Y56599D01*
X-105037Y56693D01*
X-105107Y56953D01*
X-105155Y57283D01*
X-105225Y57708D01*
X-105296Y58180D01*
X-105320Y58699D01*
X-105344Y59265D01*
Y59289D01*
Y59336D01*
Y59407D01*
Y59525D01*
Y59643D01*
X-105320Y59808D01*
X-105296Y60162D01*
X-105249Y60587D01*
X-105202Y61035D01*
X-105107Y61507D01*
X-104990Y61979D01*
Y62002D01*
X-104966Y62026D01*
X-104942Y62097D01*
X-104919Y62191D01*
X-104824Y62427D01*
X-104706Y62710D01*
X-104541Y63064D01*
X-104352Y63418D01*
X-104116Y63796D01*
X-103833Y64150D01*
X-103786Y64197D01*
X-103692Y64315D01*
X-103526Y64480D01*
X-103291Y64692D01*
X-103007Y64928D01*
X-102677Y65164D01*
X-102323Y65400D01*
X-101898Y65613D01*
X-101875D01*
X-101851Y65636D01*
X-101780Y65660D01*
X-101686Y65707D01*
X-101450Y65778D01*
X-101120Y65896D01*
X-100718Y65990D01*
X-100247Y66061D01*
X-99727Y66132D01*
X-99161Y66155D01*
X-98925D01*
X-98784Y66132D01*
D02*
G37*
G36*
X-124079D02*
X-123749Y66084D01*
X-123371Y66037D01*
X-122947Y65943D01*
X-122545Y65825D01*
X-122144Y65660D01*
X-122121D01*
X-122097Y65636D01*
X-121979Y65565D01*
X-121790Y65471D01*
X-121554Y65329D01*
X-121271Y65141D01*
X-120988Y64905D01*
X-120729Y64645D01*
X-120469Y64362D01*
X-120445Y64315D01*
X-120351Y64220D01*
X-120233Y64055D01*
X-120091Y63819D01*
X-119950Y63560D01*
X-119785Y63229D01*
X-119619Y62875D01*
X-119501Y62498D01*
X-119478Y62451D01*
X-119454Y62309D01*
X-119407Y62097D01*
X-119336Y61837D01*
X-119289Y61507D01*
X-119242Y61129D01*
X-119218Y60728D01*
X-119195Y60303D01*
Y59973D01*
Y59949D01*
Y59879D01*
X-119218Y59761D01*
X-119242Y59619D01*
X-119289Y59477D01*
X-119336Y59336D01*
X-119431Y59194D01*
X-119549Y59100D01*
X-119572D01*
X-119619Y59053D01*
X-119667Y59029D01*
X-119761Y58982D01*
X-119997Y58911D01*
X-120233Y58864D01*
X-128185D01*
Y58817D01*
Y58722D01*
Y58557D01*
X-128161Y58345D01*
X-128138Y58085D01*
X-128114Y57802D01*
X-127996Y57165D01*
Y57118D01*
X-127949Y57023D01*
X-127902Y56858D01*
X-127831Y56669D01*
X-127737Y56434D01*
X-127619Y56198D01*
X-127477Y55938D01*
X-127312Y55702D01*
X-127288Y55678D01*
X-127218Y55608D01*
X-127123Y55490D01*
X-126982Y55372D01*
X-126816Y55230D01*
X-126604Y55065D01*
X-126368Y54923D01*
X-126109Y54805D01*
X-126061Y54782D01*
X-125967Y54758D01*
X-125802Y54711D01*
X-125589Y54664D01*
X-125306Y54593D01*
X-124976Y54546D01*
X-124622Y54522D01*
X-124197Y54499D01*
X-123914D01*
X-123725Y54522D01*
X-123489D01*
X-123253Y54546D01*
X-122781Y54616D01*
X-122758D01*
X-122663Y54640D01*
X-122545Y54664D01*
X-122404Y54711D01*
X-122050Y54805D01*
X-121672Y54923D01*
X-121649D01*
X-121578Y54947D01*
X-121507Y54994D01*
X-121389Y55041D01*
X-121106Y55159D01*
X-120846Y55277D01*
X-120823D01*
X-120776Y55301D01*
X-120634Y55372D01*
X-120469Y55419D01*
X-120304Y55442D01*
X-120209D01*
X-120115Y55395D01*
X-119997Y55348D01*
X-119973Y55324D01*
X-119926Y55277D01*
X-119855Y55206D01*
X-119808Y55112D01*
X-119785Y55089D01*
X-119761Y55041D01*
X-119737Y54947D01*
X-119714Y54829D01*
Y54805D01*
X-119690Y54711D01*
X-119667Y54593D01*
Y54451D01*
Y54428D01*
Y54381D01*
X-119690Y54239D01*
Y54215D01*
X-119714Y54168D01*
X-119737Y54027D01*
Y54003D01*
X-119761Y53956D01*
X-119832Y53814D01*
Y53791D01*
X-119855Y53767D01*
X-119973Y53625D01*
X-119997Y53602D01*
X-120068Y53578D01*
X-120139Y53531D01*
X-120233Y53484D01*
X-120327Y53437D01*
X-120469Y53366D01*
X-120492D01*
X-120540Y53342D01*
X-120611Y53295D01*
X-120729Y53248D01*
X-120870Y53201D01*
X-121035Y53130D01*
X-121413Y52988D01*
X-121436D01*
X-121507Y52965D01*
X-121625Y52941D01*
X-121790Y52894D01*
X-121979Y52847D01*
X-122191Y52800D01*
X-122451Y52752D01*
X-122734Y52705D01*
X-122758D01*
X-122876Y52682D01*
X-123017Y52658D01*
X-123230Y52634D01*
X-123489Y52611D01*
X-123749Y52587D01*
X-124056Y52564D01*
X-124622D01*
X-124763Y52587D01*
X-124905D01*
X-125259Y52611D01*
X-125660Y52658D01*
X-126109Y52752D01*
X-126533Y52847D01*
X-126982Y52988D01*
X-127005D01*
X-127029Y53012D01*
X-127170Y53083D01*
X-127383Y53177D01*
X-127642Y53319D01*
X-127949Y53507D01*
X-128256Y53744D01*
X-128586Y54003D01*
X-128893Y54310D01*
X-128917Y54357D01*
X-129011Y54475D01*
X-129152Y54664D01*
X-129341Y54900D01*
X-129530Y55206D01*
X-129719Y55584D01*
X-129908Y55985D01*
X-130073Y56434D01*
Y56457D01*
X-130096Y56481D01*
Y56551D01*
X-130120Y56646D01*
X-130167Y56764D01*
X-130191Y56905D01*
X-130261Y57259D01*
X-130332Y57684D01*
X-130379Y58180D01*
X-130427Y58746D01*
X-130450Y59336D01*
Y59359D01*
Y59407D01*
Y59501D01*
Y59595D01*
X-130427Y59737D01*
Y59902D01*
X-130403Y60280D01*
X-130356Y60728D01*
X-130285Y61200D01*
X-130191Y61695D01*
X-130049Y62167D01*
Y62191D01*
X-130026Y62215D01*
X-130002Y62285D01*
X-129978Y62380D01*
X-129884Y62616D01*
X-129742Y62899D01*
X-129601Y63229D01*
X-129388Y63583D01*
X-129152Y63961D01*
X-128893Y64291D01*
X-128846Y64338D01*
X-128751Y64433D01*
X-128586Y64598D01*
X-128374Y64810D01*
X-128091Y65023D01*
X-127784Y65259D01*
X-127430Y65471D01*
X-127029Y65660D01*
X-127005D01*
X-126982Y65683D01*
X-126840Y65731D01*
X-126604Y65825D01*
X-126297Y65919D01*
X-125943Y65990D01*
X-125542Y66084D01*
X-125070Y66132D01*
X-124598Y66155D01*
X-124362D01*
X-124079Y66132D01*
D02*
G37*
G36*
X-148761Y66132D02*
X-148620D01*
X-148266Y66108D01*
X-147865Y66037D01*
X-147440Y65967D01*
X-146992Y65848D01*
X-146567Y65683D01*
X-146543D01*
X-146519Y65660D01*
X-146378Y65589D01*
X-146166Y65494D01*
X-145906Y65329D01*
X-145623Y65141D01*
X-145293Y64905D01*
X-144986Y64622D01*
X-144703Y64315D01*
X-144679Y64268D01*
X-144585Y64149D01*
X-144443Y63984D01*
X-144278Y63725D01*
X-144089Y63418D01*
X-143900Y63064D01*
X-143735Y62663D01*
X-143570Y62215D01*
Y62191D01*
X-143546Y62167D01*
X-143523Y62097D01*
X-143499Y62002D01*
X-143452Y61743D01*
X-143381Y61412D01*
X-143310Y61011D01*
X-143240Y60539D01*
X-143216Y60020D01*
X-143192Y59477D01*
Y59454D01*
Y59407D01*
Y59336D01*
Y59241D01*
Y59100D01*
X-143216Y58958D01*
X-143240Y58581D01*
X-143287Y58156D01*
X-143358Y57708D01*
X-143452Y57236D01*
X-143594Y56740D01*
Y56717D01*
X-143617Y56693D01*
X-143641Y56622D01*
X-143664Y56528D01*
X-143759Y56292D01*
X-143877Y56009D01*
X-144042Y55655D01*
X-144231Y55277D01*
X-144467Y54923D01*
X-144750Y54546D01*
X-144773Y54499D01*
X-144891Y54380D01*
X-145057Y54215D01*
X-145293Y54003D01*
X-145576Y53767D01*
X-145906Y53531D01*
X-146284Y53295D01*
X-146708Y53083D01*
X-146732D01*
X-146756Y53059D01*
X-146826Y53035D01*
X-146921Y53012D01*
X-147157Y52917D01*
X-147487Y52823D01*
X-147865Y52729D01*
X-148336Y52634D01*
X-148832Y52587D01*
X-149398Y52564D01*
X-149634D01*
X-149776Y52587D01*
X-149917D01*
X-150271Y52611D01*
X-150673Y52682D01*
X-151121Y52752D01*
X-151546Y52870D01*
X-151994Y53012D01*
X-152018D01*
X-152041Y53035D01*
X-152183Y53106D01*
X-152395Y53201D01*
X-152631Y53366D01*
X-152938Y53555D01*
X-153245Y53791D01*
X-153551Y54050D01*
X-153858Y54357D01*
X-153882Y54404D01*
X-153976Y54522D01*
X-154118Y54711D01*
X-154283Y54970D01*
X-154472Y55277D01*
X-154637Y55631D01*
X-154825Y56032D01*
X-154967Y56481D01*
Y56504D01*
X-154991Y56528D01*
Y56599D01*
X-155014Y56693D01*
X-155085Y56953D01*
X-155132Y57283D01*
X-155203Y57708D01*
X-155274Y58180D01*
X-155297Y58699D01*
X-155321Y59265D01*
Y59289D01*
Y59336D01*
Y59407D01*
Y59525D01*
Y59643D01*
X-155297Y59808D01*
X-155274Y60162D01*
X-155227Y60586D01*
X-155180Y61035D01*
X-155085Y61507D01*
X-154967Y61979D01*
Y62002D01*
X-154944Y62026D01*
X-154920Y62097D01*
X-154896Y62191D01*
X-154802Y62427D01*
X-154684Y62710D01*
X-154519Y63064D01*
X-154330Y63418D01*
X-154094Y63796D01*
X-153811Y64149D01*
X-153764Y64197D01*
X-153669Y64315D01*
X-153504Y64480D01*
X-153268Y64692D01*
X-152985Y64928D01*
X-152655Y65164D01*
X-152301Y65400D01*
X-151876Y65613D01*
X-151852D01*
X-151829Y65636D01*
X-151758Y65660D01*
X-151664Y65707D01*
X-151428Y65778D01*
X-151097Y65896D01*
X-150696Y65990D01*
X-150224Y66061D01*
X-149705Y66132D01*
X-149139Y66155D01*
X-148903D01*
X-148761Y66132D01*
D02*
G37*
G36*
X-73779Y-86938D02*
X-73682D01*
X-73557Y-86952D01*
X-73307Y-86994D01*
X-73293D01*
X-73252Y-87008D01*
X-73182Y-87022D01*
X-73085Y-87036D01*
X-72988Y-87049D01*
X-72877Y-87077D01*
X-72642Y-87146D01*
X-72628D01*
X-72586Y-87160D01*
X-72531Y-87188D01*
X-72461Y-87216D01*
X-72281Y-87285D01*
X-72101Y-87368D01*
X-72087D01*
X-72059Y-87382D01*
X-71962Y-87438D01*
X-71865Y-87507D01*
X-71810Y-87535D01*
X-71782Y-87563D01*
X-71768Y-87576D01*
X-71740Y-87604D01*
X-71698Y-87646D01*
X-71685Y-87687D01*
Y-87701D01*
X-71671Y-87715D01*
X-71643Y-87798D01*
Y-87812D01*
X-71629Y-87840D01*
Y-87895D01*
X-71615Y-87965D01*
Y-87978D01*
X-71601Y-88034D01*
Y-88117D01*
Y-88214D01*
Y-88242D01*
Y-88298D01*
Y-88381D01*
X-71615Y-88464D01*
Y-88478D01*
X-71629Y-88533D01*
X-71643Y-88589D01*
X-71657Y-88658D01*
Y-88672D01*
X-71671Y-88700D01*
X-71726Y-88769D01*
X-71754Y-88783D01*
X-71823Y-88797D01*
X-71837D01*
X-71893Y-88783D01*
X-71976Y-88755D01*
X-72101Y-88686D01*
X-72115D01*
X-72128Y-88672D01*
X-72170Y-88644D01*
X-72225Y-88617D01*
X-72378Y-88533D01*
X-72572Y-88436D01*
X-72586D01*
X-72614Y-88408D01*
X-72669Y-88381D01*
X-72752Y-88353D01*
X-72850Y-88311D01*
X-72947Y-88270D01*
X-73071Y-88228D01*
X-73210Y-88187D01*
X-73224D01*
X-73280Y-88173D01*
X-73349Y-88145D01*
X-73460Y-88117D01*
X-73571Y-88103D01*
X-73723Y-88076D01*
X-73876Y-88062D01*
X-74195D01*
X-74292Y-88076D01*
X-74417Y-88090D01*
X-74542Y-88117D01*
X-74791Y-88187D01*
X-74805D01*
X-74847Y-88200D01*
X-74902Y-88228D01*
X-74971Y-88270D01*
X-75152Y-88367D01*
X-75318Y-88492D01*
X-75332Y-88505D01*
X-75346Y-88519D01*
X-75388Y-88561D01*
X-75429Y-88617D01*
X-75540Y-88769D01*
X-75637Y-88949D01*
Y-88963D01*
X-75651Y-88991D01*
X-75665Y-89046D01*
X-75679Y-89116D01*
X-75707Y-89199D01*
X-75720Y-89296D01*
X-75734Y-89518D01*
Y-89532D01*
Y-89587D01*
X-75720Y-89670D01*
X-75707Y-89768D01*
X-75693Y-89892D01*
X-75651Y-90017D01*
X-75609Y-90142D01*
X-75540Y-90267D01*
X-75526Y-90281D01*
X-75498Y-90322D01*
X-75457Y-90378D01*
X-75401Y-90447D01*
X-75332Y-90530D01*
X-75235Y-90627D01*
X-75124Y-90711D01*
X-75013Y-90808D01*
X-74999Y-90822D01*
X-74958Y-90849D01*
X-74888Y-90891D01*
X-74791Y-90946D01*
X-74680Y-91016D01*
X-74555Y-91099D01*
X-74264Y-91251D01*
X-74250Y-91265D01*
X-74195Y-91279D01*
X-74098Y-91321D01*
X-73987Y-91376D01*
X-73862Y-91432D01*
X-73709Y-91501D01*
X-73390Y-91654D01*
X-73377Y-91667D01*
X-73307Y-91695D01*
X-73224Y-91737D01*
X-73113Y-91792D01*
X-72988Y-91862D01*
X-72836Y-91931D01*
X-72531Y-92111D01*
X-72517Y-92125D01*
X-72461Y-92153D01*
X-72378Y-92208D01*
X-72267Y-92264D01*
X-72156Y-92347D01*
X-72031Y-92444D01*
X-71768Y-92680D01*
X-71754Y-92694D01*
X-71712Y-92735D01*
X-71657Y-92805D01*
X-71574Y-92902D01*
X-71491Y-93013D01*
X-71393Y-93151D01*
X-71310Y-93304D01*
X-71227Y-93470D01*
X-71213Y-93484D01*
X-71199Y-93554D01*
X-71158Y-93637D01*
X-71116Y-93762D01*
X-71088Y-93928D01*
X-71047Y-94108D01*
X-71033Y-94303D01*
X-71019Y-94524D01*
Y-94538D01*
Y-94552D01*
Y-94594D01*
Y-94649D01*
X-71033Y-94788D01*
X-71047Y-94968D01*
X-71088Y-95162D01*
X-71130Y-95384D01*
X-71199Y-95606D01*
X-71296Y-95828D01*
X-71310Y-95856D01*
X-71338Y-95925D01*
X-71407Y-96022D01*
X-71491Y-96161D01*
X-71601Y-96313D01*
X-71726Y-96480D01*
X-71879Y-96646D01*
X-72045Y-96799D01*
X-72073Y-96813D01*
X-72128Y-96868D01*
X-72225Y-96938D01*
X-72364Y-97021D01*
X-72531Y-97118D01*
X-72711Y-97201D01*
X-72933Y-97298D01*
X-73169Y-97381D01*
X-73196Y-97395D01*
X-73280Y-97409D01*
X-73404Y-97437D01*
X-73585Y-97478D01*
X-73779Y-97520D01*
X-74015Y-97548D01*
X-74264Y-97562D01*
X-74542Y-97575D01*
X-74736D01*
X-74861Y-97562D01*
X-75013D01*
X-75180Y-97534D01*
X-75512Y-97492D01*
X-75526D01*
X-75582Y-97478D01*
X-75665Y-97465D01*
X-75776Y-97437D01*
X-75901Y-97409D01*
X-76039Y-97367D01*
X-76303Y-97284D01*
X-76317D01*
X-76358Y-97256D01*
X-76428Y-97229D01*
X-76511Y-97201D01*
X-76691Y-97104D01*
X-76885Y-97007D01*
X-76899D01*
X-76927Y-96979D01*
X-77010Y-96924D01*
X-77121Y-96854D01*
X-77218Y-96771D01*
X-77232Y-96757D01*
X-77260Y-96702D01*
X-77301Y-96632D01*
X-77343Y-96535D01*
Y-96521D01*
Y-96508D01*
X-77357Y-96424D01*
X-77371Y-96300D01*
X-77385Y-96133D01*
Y-96119D01*
Y-96105D01*
Y-96036D01*
Y-95939D01*
X-77371Y-95856D01*
Y-95828D01*
X-77357Y-95786D01*
X-77343Y-95717D01*
X-77329Y-95662D01*
Y-95648D01*
X-77315Y-95620D01*
X-77288Y-95592D01*
X-77260Y-95564D01*
X-77246Y-95551D01*
X-77218Y-95537D01*
X-77176Y-95523D01*
X-77107D01*
X-77052Y-95537D01*
X-76955Y-95578D01*
X-76830Y-95662D01*
X-76816D01*
X-76788Y-95689D01*
X-76747Y-95717D01*
X-76691Y-95745D01*
X-76608Y-95800D01*
X-76525Y-95842D01*
X-76303Y-95967D01*
X-76289D01*
X-76247Y-95994D01*
X-76178Y-96022D01*
X-76081Y-96064D01*
X-75970Y-96105D01*
X-75831Y-96147D01*
X-75693Y-96202D01*
X-75526Y-96258D01*
X-75498D01*
X-75443Y-96286D01*
X-75346Y-96300D01*
X-75221Y-96327D01*
X-75068Y-96355D01*
X-74888Y-96369D01*
X-74694Y-96397D01*
X-74320D01*
X-74209Y-96383D01*
X-74084Y-96369D01*
X-73945Y-96355D01*
X-73668Y-96286D01*
X-73654D01*
X-73598Y-96258D01*
X-73529Y-96230D01*
X-73446Y-96202D01*
X-73238Y-96091D01*
X-73030Y-95953D01*
X-73016Y-95939D01*
X-72988Y-95911D01*
X-72933Y-95870D01*
X-72877Y-95800D01*
X-72808Y-95717D01*
X-72739Y-95634D01*
X-72614Y-95412D01*
X-72600Y-95398D01*
X-72586Y-95357D01*
X-72558Y-95287D01*
X-72531Y-95204D01*
X-72503Y-95093D01*
X-72489Y-94968D01*
X-72461Y-94830D01*
Y-94677D01*
Y-94663D01*
Y-94608D01*
X-72475Y-94524D01*
X-72489Y-94413D01*
X-72517Y-94303D01*
X-72544Y-94178D01*
X-72600Y-94053D01*
X-72669Y-93928D01*
X-72683Y-93914D01*
X-72711Y-93873D01*
X-72752Y-93817D01*
X-72808Y-93748D01*
X-72877Y-93665D01*
X-72974Y-93567D01*
X-73071Y-93484D01*
X-73196Y-93387D01*
X-73210Y-93373D01*
X-73252Y-93346D01*
X-73321Y-93304D01*
X-73418Y-93235D01*
X-73529Y-93165D01*
X-73654Y-93096D01*
X-73945Y-92943D01*
X-73959Y-92929D01*
X-74015Y-92916D01*
X-74098Y-92874D01*
X-74209Y-92819D01*
X-74334Y-92763D01*
X-74486Y-92694D01*
X-74805Y-92555D01*
X-74819Y-92541D01*
X-74874Y-92514D01*
X-74971Y-92472D01*
X-75082Y-92416D01*
X-75207Y-92347D01*
X-75360Y-92278D01*
X-75665Y-92097D01*
X-75679Y-92084D01*
X-75734Y-92056D01*
X-75817Y-92000D01*
X-75915Y-91931D01*
X-76026Y-91848D01*
X-76150Y-91751D01*
X-76414Y-91515D01*
X-76428Y-91501D01*
X-76469Y-91460D01*
X-76525Y-91390D01*
X-76594Y-91293D01*
X-76677Y-91182D01*
X-76774Y-91043D01*
X-76858Y-90905D01*
X-76941Y-90738D01*
X-76955Y-90711D01*
X-76968Y-90655D01*
X-76996Y-90558D01*
X-77038Y-90433D01*
X-77079Y-90267D01*
X-77107Y-90086D01*
X-77121Y-89879D01*
X-77135Y-89643D01*
Y-89629D01*
Y-89615D01*
Y-89532D01*
X-77121Y-89407D01*
X-77107Y-89254D01*
X-77079Y-89074D01*
X-77038Y-88880D01*
X-76982Y-88686D01*
X-76899Y-88492D01*
X-76885Y-88464D01*
X-76858Y-88408D01*
X-76802Y-88311D01*
X-76733Y-88187D01*
X-76636Y-88062D01*
X-76525Y-87909D01*
X-76400Y-87771D01*
X-76247Y-87632D01*
X-76234Y-87618D01*
X-76178Y-87576D01*
X-76081Y-87507D01*
X-75970Y-87438D01*
X-75817Y-87354D01*
X-75651Y-87257D01*
X-75457Y-87174D01*
X-75249Y-87105D01*
X-75221Y-87091D01*
X-75152Y-87077D01*
X-75027Y-87049D01*
X-74874Y-87008D01*
X-74694Y-86980D01*
X-74472Y-86952D01*
X-74250Y-86938D01*
X-74001Y-86924D01*
X-73876D01*
X-73779Y-86938D01*
D02*
G37*
G36*
X67651Y-86952D02*
X67818Y-86966D01*
X68012Y-86980D01*
X68400Y-87049D01*
X68428D01*
X68483Y-87063D01*
X68594Y-87091D01*
X68719Y-87119D01*
X68858Y-87160D01*
X69010Y-87202D01*
X69329Y-87299D01*
X69343D01*
X69399Y-87327D01*
X69468Y-87354D01*
X69565Y-87382D01*
X69787Y-87479D01*
X70009Y-87604D01*
X70023D01*
X70050Y-87632D01*
X70106Y-87660D01*
X70161Y-87687D01*
X70286Y-87784D01*
X70342Y-87826D01*
X70383Y-87867D01*
X70397Y-87881D01*
X70439Y-87937D01*
X70494Y-88006D01*
X70536Y-88103D01*
X70550Y-88131D01*
X70564Y-88200D01*
X70577Y-88325D01*
Y-88492D01*
Y-88519D01*
Y-88589D01*
X70564Y-88672D01*
X70550Y-88769D01*
Y-88783D01*
X70536Y-88838D01*
X70522Y-88894D01*
X70508Y-88963D01*
Y-88977D01*
X70494Y-89005D01*
X70466Y-89032D01*
X70425Y-89060D01*
X70397Y-89074D01*
X70328Y-89088D01*
X70314D01*
X70245Y-89074D01*
X70148Y-89032D01*
X69995Y-88949D01*
X69981Y-88935D01*
X69953Y-88921D01*
X69912Y-88894D01*
X69842Y-88852D01*
X69759Y-88797D01*
X69648Y-88741D01*
X69537Y-88686D01*
X69399Y-88616D01*
X69385Y-88603D01*
X69329Y-88589D01*
X69246Y-88547D01*
X69149Y-88505D01*
X69010Y-88450D01*
X68858Y-88394D01*
X68691Y-88325D01*
X68497Y-88270D01*
X68469Y-88256D01*
X68400Y-88242D01*
X68303Y-88214D01*
X68150Y-88187D01*
X67970Y-88159D01*
X67762Y-88145D01*
X67526Y-88117D01*
X67124D01*
X67041Y-88131D01*
X66958D01*
X66750Y-88159D01*
X66514Y-88200D01*
X66251Y-88256D01*
X65987Y-88325D01*
X65724Y-88436D01*
X65710D01*
X65696Y-88450D01*
X65613Y-88492D01*
X65488Y-88561D01*
X65321Y-88658D01*
X65141Y-88783D01*
X64947Y-88921D01*
X64753Y-89102D01*
X64572Y-89296D01*
X64559Y-89324D01*
X64489Y-89393D01*
X64406Y-89518D01*
X64309Y-89670D01*
X64184Y-89865D01*
X64073Y-90086D01*
X63948Y-90336D01*
X63851Y-90613D01*
Y-90627D01*
X63837Y-90641D01*
X63823Y-90683D01*
X63810Y-90738D01*
X63796Y-90808D01*
X63768Y-90891D01*
X63726Y-91099D01*
X63685Y-91348D01*
X63643Y-91626D01*
X63615Y-91931D01*
X63602Y-92250D01*
Y-92264D01*
Y-92292D01*
Y-92347D01*
Y-92416D01*
X63615Y-92500D01*
Y-92611D01*
X63629Y-92846D01*
X63671Y-93124D01*
X63713Y-93415D01*
X63782Y-93720D01*
X63865Y-94011D01*
Y-94025D01*
X63879Y-94039D01*
X63893Y-94081D01*
X63921Y-94136D01*
X63976Y-94275D01*
X64059Y-94455D01*
X64170Y-94663D01*
X64309Y-94871D01*
X64461Y-95093D01*
X64628Y-95301D01*
X64656Y-95329D01*
X64711Y-95384D01*
X64822Y-95481D01*
X64961Y-95592D01*
X65127Y-95731D01*
X65335Y-95856D01*
X65557Y-95994D01*
X65793Y-96105D01*
X65807D01*
X65820Y-96119D01*
X65862Y-96133D01*
X65918Y-96147D01*
X66056Y-96189D01*
X66237Y-96230D01*
X66459Y-96286D01*
X66708Y-96327D01*
X66986Y-96355D01*
X67277Y-96369D01*
X67457D01*
X67582Y-96355D01*
X67734Y-96341D01*
X67887Y-96327D01*
X68247Y-96258D01*
X68275D01*
X68331Y-96230D01*
X68428Y-96216D01*
X68553Y-96175D01*
X68691Y-96119D01*
X68844Y-96064D01*
X69177Y-95911D01*
Y-92888D01*
X66736D01*
X66680Y-92874D01*
X66611Y-92832D01*
X66556Y-92763D01*
X66542Y-92735D01*
X66528Y-92652D01*
X66514Y-92597D01*
Y-92527D01*
X66500Y-92430D01*
Y-92333D01*
Y-92319D01*
Y-92305D01*
Y-92250D01*
Y-92167D01*
X66514Y-92084D01*
Y-92070D01*
X66528Y-92014D01*
X66542Y-91959D01*
X66556Y-91903D01*
X66569Y-91889D01*
X66583Y-91862D01*
X66611Y-91834D01*
X66639Y-91806D01*
X66653Y-91792D01*
X66680Y-91778D01*
X66722Y-91765D01*
X70106D01*
X70161Y-91778D01*
X70231Y-91806D01*
X70245D01*
X70286Y-91834D01*
X70328Y-91862D01*
X70383Y-91903D01*
X70397Y-91917D01*
X70425Y-91945D01*
X70466Y-92000D01*
X70508Y-92070D01*
X70522Y-92084D01*
X70536Y-92139D01*
X70550Y-92222D01*
Y-92333D01*
Y-96272D01*
Y-96286D01*
Y-96299D01*
X70536Y-96397D01*
X70522Y-96508D01*
X70466Y-96632D01*
X70453Y-96660D01*
X70397Y-96716D01*
X70314Y-96799D01*
X70245Y-96854D01*
X70161Y-96896D01*
X70148D01*
X70120Y-96910D01*
X70078Y-96938D01*
X70009Y-96965D01*
X69926Y-97007D01*
X69815Y-97048D01*
X69704Y-97090D01*
X69565Y-97146D01*
X69551D01*
X69510Y-97173D01*
X69426Y-97201D01*
X69329Y-97229D01*
X69218Y-97270D01*
X69093Y-97298D01*
X68802Y-97381D01*
X68788D01*
X68733Y-97395D01*
X68664Y-97409D01*
X68553Y-97423D01*
X68442Y-97451D01*
X68303Y-97465D01*
X68012Y-97506D01*
X67998D01*
X67942Y-97520D01*
X67873D01*
X67762Y-97534D01*
X67651Y-97548D01*
X67512D01*
X67221Y-97562D01*
X67027D01*
X66916Y-97548D01*
X66791D01*
X66653Y-97534D01*
X66514Y-97520D01*
X66181Y-97478D01*
X65820Y-97409D01*
X65446Y-97326D01*
X65086Y-97201D01*
X65072D01*
X65044Y-97187D01*
X64988Y-97159D01*
X64933Y-97132D01*
X64850Y-97090D01*
X64753Y-97048D01*
X64531Y-96924D01*
X64281Y-96785D01*
X64018Y-96605D01*
X63740Y-96383D01*
X63491Y-96147D01*
X63477Y-96133D01*
X63463Y-96119D01*
X63435Y-96078D01*
X63380Y-96022D01*
X63269Y-95884D01*
X63116Y-95675D01*
X62964Y-95440D01*
X62797Y-95162D01*
X62631Y-94843D01*
X62492Y-94497D01*
Y-94483D01*
X62478Y-94455D01*
X62464Y-94400D01*
X62437Y-94330D01*
X62409Y-94233D01*
X62381Y-94136D01*
X62353Y-94011D01*
X62326Y-93873D01*
X62298Y-93720D01*
X62270Y-93554D01*
X62215Y-93179D01*
X62173Y-92777D01*
X62159Y-92347D01*
Y-92333D01*
Y-92292D01*
Y-92222D01*
Y-92139D01*
X62173Y-92028D01*
Y-91903D01*
X62187Y-91765D01*
X62201Y-91612D01*
X62242Y-91265D01*
X62312Y-90891D01*
X62395Y-90516D01*
X62520Y-90128D01*
Y-90114D01*
X62534Y-90086D01*
X62561Y-90031D01*
X62589Y-89962D01*
X62631Y-89879D01*
X62672Y-89768D01*
X62797Y-89546D01*
X62936Y-89268D01*
X63116Y-88991D01*
X63338Y-88700D01*
X63574Y-88422D01*
X63588Y-88408D01*
X63602Y-88394D01*
X63643Y-88353D01*
X63699Y-88311D01*
X63837Y-88173D01*
X64032Y-88020D01*
X64267Y-87840D01*
X64545Y-87660D01*
X64850Y-87479D01*
X65196Y-87327D01*
X65210D01*
X65238Y-87313D01*
X65293Y-87285D01*
X65363Y-87271D01*
X65446Y-87230D01*
X65557Y-87202D01*
X65682Y-87174D01*
X65807Y-87133D01*
X66126Y-87063D01*
X66472Y-86994D01*
X66874Y-86952D01*
X67291Y-86938D01*
X67512D01*
X67651Y-86952D01*
D02*
G37*
G36*
X29499D02*
X29666Y-86966D01*
X29860Y-86980D01*
X30248Y-87049D01*
X30276D01*
X30331Y-87063D01*
X30442Y-87091D01*
X30567Y-87119D01*
X30706Y-87160D01*
X30858Y-87202D01*
X31177Y-87299D01*
X31191D01*
X31247Y-87327D01*
X31316Y-87354D01*
X31413Y-87382D01*
X31635Y-87479D01*
X31857Y-87604D01*
X31871D01*
X31898Y-87632D01*
X31954Y-87660D01*
X32009Y-87687D01*
X32134Y-87784D01*
X32190Y-87826D01*
X32231Y-87867D01*
X32245Y-87881D01*
X32287Y-87937D01*
X32342Y-88006D01*
X32384Y-88103D01*
X32398Y-88131D01*
X32412Y-88200D01*
X32425Y-88325D01*
Y-88492D01*
Y-88519D01*
Y-88589D01*
X32412Y-88672D01*
X32398Y-88769D01*
Y-88783D01*
X32384Y-88838D01*
X32370Y-88894D01*
X32356Y-88963D01*
Y-88977D01*
X32342Y-89005D01*
X32315Y-89032D01*
X32273Y-89060D01*
X32245Y-89074D01*
X32176Y-89088D01*
X32162D01*
X32093Y-89074D01*
X31995Y-89032D01*
X31843Y-88949D01*
X31829Y-88935D01*
X31801Y-88921D01*
X31760Y-88894D01*
X31690Y-88852D01*
X31607Y-88797D01*
X31496Y-88741D01*
X31385Y-88686D01*
X31247Y-88616D01*
X31233Y-88603D01*
X31177Y-88589D01*
X31094Y-88547D01*
X30997Y-88505D01*
X30858Y-88450D01*
X30706Y-88394D01*
X30539Y-88325D01*
X30345Y-88270D01*
X30317Y-88256D01*
X30248Y-88242D01*
X30151Y-88214D01*
X29999Y-88187D01*
X29818Y-88159D01*
X29610Y-88145D01*
X29374Y-88117D01*
X28972D01*
X28889Y-88131D01*
X28806D01*
X28598Y-88159D01*
X28362Y-88200D01*
X28098Y-88256D01*
X27835Y-88325D01*
X27571Y-88436D01*
X27558D01*
X27544Y-88450D01*
X27460Y-88492D01*
X27336Y-88561D01*
X27169Y-88658D01*
X26989Y-88783D01*
X26795Y-88921D01*
X26601Y-89102D01*
X26420Y-89296D01*
X26407Y-89324D01*
X26337Y-89393D01*
X26254Y-89518D01*
X26157Y-89670D01*
X26032Y-89865D01*
X25921Y-90086D01*
X25796Y-90336D01*
X25699Y-90613D01*
Y-90627D01*
X25685Y-90641D01*
X25672Y-90683D01*
X25658Y-90738D01*
X25644Y-90808D01*
X25616Y-90891D01*
X25574Y-91099D01*
X25533Y-91348D01*
X25491Y-91626D01*
X25464Y-91931D01*
X25450Y-92250D01*
Y-92264D01*
Y-92292D01*
Y-92347D01*
Y-92416D01*
X25464Y-92500D01*
Y-92611D01*
X25477Y-92846D01*
X25519Y-93124D01*
X25561Y-93415D01*
X25630Y-93720D01*
X25713Y-94011D01*
Y-94025D01*
X25727Y-94039D01*
X25741Y-94081D01*
X25769Y-94136D01*
X25824Y-94275D01*
X25907Y-94455D01*
X26018Y-94663D01*
X26157Y-94871D01*
X26309Y-95093D01*
X26476Y-95301D01*
X26504Y-95329D01*
X26559Y-95384D01*
X26670Y-95481D01*
X26809Y-95592D01*
X26975Y-95731D01*
X27183Y-95856D01*
X27405Y-95994D01*
X27641Y-96105D01*
X27655D01*
X27669Y-96119D01*
X27710Y-96133D01*
X27766Y-96147D01*
X27904Y-96189D01*
X28085Y-96230D01*
X28307Y-96286D01*
X28556Y-96327D01*
X28833Y-96355D01*
X29125Y-96369D01*
X29305D01*
X29430Y-96355D01*
X29582Y-96341D01*
X29735Y-96327D01*
X30096Y-96258D01*
X30123D01*
X30179Y-96230D01*
X30276Y-96216D01*
X30401Y-96175D01*
X30539Y-96119D01*
X30692Y-96064D01*
X31025Y-95911D01*
Y-92888D01*
X28584D01*
X28528Y-92874D01*
X28459Y-92832D01*
X28404Y-92763D01*
X28390Y-92735D01*
X28376Y-92652D01*
X28362Y-92597D01*
Y-92527D01*
X28348Y-92430D01*
Y-92333D01*
Y-92319D01*
Y-92305D01*
Y-92250D01*
Y-92167D01*
X28362Y-92084D01*
Y-92070D01*
X28376Y-92014D01*
X28390Y-91959D01*
X28404Y-91903D01*
X28417Y-91889D01*
X28431Y-91862D01*
X28459Y-91834D01*
X28487Y-91806D01*
X28501Y-91792D01*
X28528Y-91778D01*
X28570Y-91765D01*
X31954D01*
X32009Y-91778D01*
X32079Y-91806D01*
X32093D01*
X32134Y-91834D01*
X32176Y-91862D01*
X32231Y-91903D01*
X32245Y-91917D01*
X32273Y-91945D01*
X32315Y-92000D01*
X32356Y-92070D01*
X32370Y-92084D01*
X32384Y-92139D01*
X32398Y-92222D01*
Y-92333D01*
Y-96272D01*
Y-96286D01*
Y-96299D01*
X32384Y-96397D01*
X32370Y-96508D01*
X32315Y-96632D01*
X32301Y-96660D01*
X32245Y-96716D01*
X32162Y-96799D01*
X32093Y-96854D01*
X32009Y-96896D01*
X31995D01*
X31968Y-96910D01*
X31926Y-96938D01*
X31857Y-96965D01*
X31774Y-97007D01*
X31663Y-97048D01*
X31552Y-97090D01*
X31413Y-97146D01*
X31399D01*
X31358Y-97173D01*
X31274Y-97201D01*
X31177Y-97229D01*
X31066Y-97270D01*
X30942Y-97298D01*
X30650Y-97381D01*
X30636D01*
X30581Y-97395D01*
X30512Y-97409D01*
X30401Y-97423D01*
X30290Y-97451D01*
X30151Y-97465D01*
X29860Y-97506D01*
X29846D01*
X29790Y-97520D01*
X29721D01*
X29610Y-97534D01*
X29499Y-97548D01*
X29360D01*
X29069Y-97562D01*
X28875D01*
X28764Y-97548D01*
X28639D01*
X28501Y-97534D01*
X28362Y-97520D01*
X28029Y-97478D01*
X27669Y-97409D01*
X27294Y-97326D01*
X26934Y-97201D01*
X26920D01*
X26892Y-97187D01*
X26837Y-97159D01*
X26781Y-97132D01*
X26698Y-97090D01*
X26601Y-97048D01*
X26379Y-96924D01*
X26129Y-96785D01*
X25866Y-96605D01*
X25588Y-96383D01*
X25339Y-96147D01*
X25325Y-96133D01*
X25311Y-96119D01*
X25283Y-96078D01*
X25228Y-96022D01*
X25117Y-95884D01*
X24964Y-95675D01*
X24812Y-95440D01*
X24645Y-95162D01*
X24479Y-94843D01*
X24340Y-94497D01*
Y-94483D01*
X24326Y-94455D01*
X24312Y-94400D01*
X24285Y-94330D01*
X24257Y-94233D01*
X24229Y-94136D01*
X24202Y-94011D01*
X24174Y-93873D01*
X24146Y-93720D01*
X24118Y-93554D01*
X24063Y-93179D01*
X24021Y-92777D01*
X24007Y-92347D01*
Y-92333D01*
Y-92292D01*
Y-92222D01*
Y-92139D01*
X24021Y-92028D01*
Y-91903D01*
X24035Y-91765D01*
X24049Y-91612D01*
X24090Y-91265D01*
X24160Y-90891D01*
X24243Y-90516D01*
X24368Y-90128D01*
Y-90114D01*
X24382Y-90086D01*
X24409Y-90031D01*
X24437Y-89962D01*
X24479Y-89879D01*
X24520Y-89768D01*
X24645Y-89546D01*
X24784Y-89268D01*
X24964Y-88991D01*
X25186Y-88700D01*
X25422Y-88422D01*
X25436Y-88408D01*
X25450Y-88394D01*
X25491Y-88353D01*
X25547Y-88311D01*
X25685Y-88173D01*
X25880Y-88020D01*
X26115Y-87840D01*
X26393Y-87660D01*
X26698Y-87479D01*
X27044Y-87327D01*
X27058D01*
X27086Y-87313D01*
X27142Y-87285D01*
X27211Y-87271D01*
X27294Y-87230D01*
X27405Y-87202D01*
X27530Y-87174D01*
X27655Y-87133D01*
X27974Y-87063D01*
X28320Y-86994D01*
X28723Y-86952D01*
X29139Y-86938D01*
X29360D01*
X29499Y-86952D01*
D02*
G37*
G36*
X-49731Y-86966D02*
X-49592Y-86980D01*
X-49440Y-86994D01*
X-49135Y-87049D01*
X-49121D01*
X-49065Y-87063D01*
X-48982Y-87077D01*
X-48871Y-87105D01*
X-48760Y-87133D01*
X-48622Y-87174D01*
X-48358Y-87257D01*
X-48344D01*
X-48302Y-87285D01*
X-48233Y-87299D01*
X-48136Y-87341D01*
X-47942Y-87438D01*
X-47720Y-87549D01*
X-47706D01*
X-47678Y-87576D01*
X-47623Y-87604D01*
X-47568Y-87646D01*
X-47429Y-87729D01*
X-47373Y-87784D01*
X-47332Y-87826D01*
X-47318Y-87840D01*
X-47276Y-87881D01*
X-47221Y-87937D01*
X-47193Y-87992D01*
X-47179Y-88006D01*
X-47165Y-88034D01*
X-47138Y-88117D01*
Y-88131D01*
X-47124Y-88159D01*
X-47110Y-88228D01*
X-47096Y-88298D01*
Y-88311D01*
X-47082Y-88367D01*
Y-88450D01*
Y-88547D01*
Y-88575D01*
Y-88630D01*
X-47096Y-88727D01*
X-47110Y-88811D01*
Y-88825D01*
X-47124Y-88880D01*
X-47138Y-88935D01*
X-47151Y-89005D01*
Y-89019D01*
X-47165Y-89046D01*
X-47235Y-89116D01*
X-47262Y-89130D01*
X-47332Y-89143D01*
X-47359D01*
X-47415Y-89130D01*
X-47512Y-89074D01*
X-47581Y-89046D01*
X-47651Y-88991D01*
X-47665Y-88977D01*
X-47692Y-88963D01*
X-47734Y-88935D01*
X-47789Y-88894D01*
X-47859Y-88838D01*
X-47942Y-88783D01*
X-48164Y-88658D01*
X-48178Y-88644D01*
X-48219Y-88630D01*
X-48289Y-88589D01*
X-48386Y-88547D01*
X-48497Y-88492D01*
X-48622Y-88436D01*
X-48774Y-88367D01*
X-48941Y-88311D01*
X-48954Y-88298D01*
X-49024Y-88284D01*
X-49121Y-88256D01*
X-49246Y-88228D01*
X-49412Y-88200D01*
X-49592Y-88173D01*
X-49800Y-88145D01*
X-50133D01*
X-50272Y-88159D01*
X-50438Y-88173D01*
X-50632Y-88214D01*
X-50840Y-88256D01*
X-51062Y-88325D01*
X-51284Y-88422D01*
X-51312Y-88436D01*
X-51381Y-88478D01*
X-51478Y-88533D01*
X-51617Y-88630D01*
X-51770Y-88741D01*
X-51936Y-88880D01*
X-52102Y-89046D01*
X-52255Y-89241D01*
X-52269Y-89268D01*
X-52324Y-89338D01*
X-52394Y-89449D01*
X-52477Y-89601D01*
X-52588Y-89795D01*
X-52685Y-90017D01*
X-52782Y-90267D01*
X-52879Y-90544D01*
Y-90558D01*
X-52893Y-90586D01*
Y-90627D01*
X-52907Y-90683D01*
X-52921Y-90752D01*
X-52948Y-90835D01*
X-52976Y-91057D01*
X-53018Y-91321D01*
X-53059Y-91612D01*
X-53073Y-91945D01*
X-53087Y-92305D01*
Y-92319D01*
Y-92347D01*
Y-92402D01*
Y-92472D01*
Y-92555D01*
X-53073Y-92652D01*
X-53059Y-92888D01*
X-53032Y-93165D01*
X-53004Y-93456D01*
X-52948Y-93762D01*
X-52879Y-94053D01*
Y-94067D01*
X-52865Y-94081D01*
X-52851Y-94122D01*
X-52838Y-94178D01*
X-52796Y-94316D01*
X-52726Y-94497D01*
X-52643Y-94691D01*
X-52532Y-94899D01*
X-52408Y-95107D01*
X-52269Y-95315D01*
X-52255Y-95343D01*
X-52200Y-95398D01*
X-52116Y-95481D01*
X-51992Y-95592D01*
X-51853Y-95717D01*
X-51686Y-95842D01*
X-51506Y-95967D01*
X-51298Y-96078D01*
X-51270Y-96091D01*
X-51201Y-96119D01*
X-51076Y-96161D01*
X-50910Y-96202D01*
X-50716Y-96244D01*
X-50494Y-96286D01*
X-50244Y-96313D01*
X-49981Y-96327D01*
X-49883D01*
X-49759Y-96313D01*
X-49620D01*
X-49454Y-96300D01*
X-49273Y-96272D01*
X-49093Y-96230D01*
X-48913Y-96189D01*
X-48885Y-96175D01*
X-48829Y-96161D01*
X-48746Y-96133D01*
X-48635Y-96091D01*
X-48510Y-96036D01*
X-48386Y-95981D01*
X-48247Y-95911D01*
X-48122Y-95842D01*
X-48108Y-95828D01*
X-48067Y-95814D01*
X-48011Y-95773D01*
X-47928Y-95731D01*
X-47748Y-95620D01*
X-47581Y-95495D01*
X-47568Y-95481D01*
X-47540Y-95467D01*
X-47456Y-95412D01*
X-47359Y-95370D01*
X-47304Y-95343D01*
X-47221D01*
X-47193Y-95357D01*
X-47165Y-95370D01*
X-47151D01*
X-47138Y-95398D01*
X-47124Y-95426D01*
X-47096Y-95467D01*
Y-95481D01*
X-47082Y-95523D01*
X-47068Y-95578D01*
X-47054Y-95662D01*
Y-95675D01*
X-47041Y-95745D01*
Y-95828D01*
Y-95953D01*
Y-95967D01*
Y-96022D01*
Y-96105D01*
X-47054Y-96175D01*
Y-96189D01*
X-47068Y-96230D01*
X-47096Y-96341D01*
Y-96355D01*
X-47110Y-96383D01*
X-47138Y-96466D01*
Y-96480D01*
X-47165Y-96508D01*
X-47193Y-96549D01*
X-47249Y-96605D01*
X-47262Y-96618D01*
X-47318Y-96660D01*
X-47373Y-96702D01*
X-47429Y-96743D01*
X-47498Y-96799D01*
X-47595Y-96854D01*
X-47609Y-96868D01*
X-47637Y-96882D01*
X-47692Y-96910D01*
X-47762Y-96951D01*
X-47859Y-97007D01*
X-47970Y-97062D01*
X-48081Y-97118D01*
X-48219Y-97187D01*
X-48233D01*
X-48289Y-97215D01*
X-48358Y-97243D01*
X-48469Y-97270D01*
X-48594Y-97312D01*
X-48746Y-97354D01*
X-48913Y-97395D01*
X-49093Y-97437D01*
X-49121D01*
X-49176Y-97451D01*
X-49273Y-97465D01*
X-49412Y-97492D01*
X-49564Y-97506D01*
X-49745Y-97534D01*
X-49953Y-97548D01*
X-50327D01*
X-50424Y-97534D01*
X-50521D01*
X-50771Y-97506D01*
X-51048Y-97465D01*
X-51354Y-97409D01*
X-51673Y-97326D01*
X-51992Y-97215D01*
X-52005D01*
X-52033Y-97201D01*
X-52075Y-97173D01*
X-52130Y-97146D01*
X-52269Y-97076D01*
X-52463Y-96965D01*
X-52685Y-96827D01*
X-52907Y-96660D01*
X-53143Y-96466D01*
X-53365Y-96230D01*
Y-96216D01*
X-53392Y-96202D01*
X-53420Y-96161D01*
X-53462Y-96119D01*
X-53559Y-95967D01*
X-53684Y-95786D01*
X-53822Y-95551D01*
X-53975Y-95273D01*
X-54113Y-94968D01*
X-54238Y-94621D01*
Y-94608D01*
X-54252Y-94580D01*
X-54266Y-94524D01*
X-54280Y-94455D01*
X-54307Y-94358D01*
X-54335Y-94247D01*
X-54363Y-94122D01*
X-54391Y-93983D01*
X-54419Y-93817D01*
X-54446Y-93651D01*
X-54502Y-93276D01*
X-54529Y-92846D01*
X-54543Y-92389D01*
Y-92375D01*
Y-92333D01*
Y-92264D01*
Y-92167D01*
X-54529Y-92056D01*
Y-91931D01*
X-54516Y-91778D01*
X-54502Y-91626D01*
X-54460Y-91265D01*
X-54405Y-90891D01*
X-54335Y-90489D01*
X-54224Y-90100D01*
Y-90086D01*
X-54211Y-90059D01*
X-54183Y-90003D01*
X-54169Y-89934D01*
X-54127Y-89851D01*
X-54086Y-89740D01*
X-53989Y-89504D01*
X-53850Y-89241D01*
X-53697Y-88949D01*
X-53503Y-88672D01*
X-53295Y-88395D01*
X-53281Y-88381D01*
X-53267Y-88367D01*
X-53184Y-88284D01*
X-53059Y-88145D01*
X-52879Y-87992D01*
X-52671Y-87826D01*
X-52435Y-87646D01*
X-52158Y-87479D01*
X-51853Y-87327D01*
X-51839D01*
X-51811Y-87313D01*
X-51770Y-87285D01*
X-51700Y-87271D01*
X-51631Y-87243D01*
X-51534Y-87202D01*
X-51312Y-87133D01*
X-51035Y-87077D01*
X-50729Y-87008D01*
X-50383Y-86966D01*
X-50008Y-86952D01*
X-49842D01*
X-49731Y-86966D01*
D02*
G37*
G36*
X22579Y-87049D02*
X22718Y-87063D01*
X22745D01*
X22815Y-87077D01*
X22884Y-87091D01*
X22953Y-87133D01*
X22967Y-87146D01*
X22981Y-87174D01*
X22995Y-87230D01*
Y-87299D01*
Y-87313D01*
X22981Y-87368D01*
X22940Y-87451D01*
X22884Y-87576D01*
X19972Y-93401D01*
Y-97215D01*
Y-97229D01*
Y-97256D01*
X19958Y-97298D01*
X19930Y-97340D01*
X19902Y-97367D01*
X19875Y-97381D01*
X19819Y-97409D01*
X19805D01*
X19764Y-97423D01*
X19694D01*
X19597Y-97437D01*
X19569D01*
X19514Y-97451D01*
X19417Y-97465D01*
X19167D01*
X19056Y-97451D01*
X18945Y-97437D01*
X18931D01*
X18876Y-97423D01*
X18807D01*
X18737Y-97409D01*
X18723D01*
X18696Y-97395D01*
X18654Y-97367D01*
X18626Y-97340D01*
Y-97326D01*
X18613Y-97298D01*
X18599Y-97215D01*
Y-93401D01*
X15672Y-87576D01*
Y-87562D01*
X15659Y-87549D01*
X15617Y-87479D01*
X15575Y-87382D01*
X15548Y-87299D01*
Y-87285D01*
Y-87230D01*
X15561Y-87188D01*
X15589Y-87133D01*
X15603Y-87119D01*
X15645Y-87105D01*
X15714Y-87077D01*
X15811Y-87063D01*
X15839D01*
X15880Y-87049D01*
X15922D01*
X16061Y-87035D01*
X16380D01*
X16504Y-87049D01*
X16616Y-87063D01*
X16643D01*
X16699Y-87077D01*
X16782Y-87091D01*
X16851Y-87105D01*
X16865D01*
X16907Y-87119D01*
X16948Y-87146D01*
X16990Y-87188D01*
X17004Y-87202D01*
X17018Y-87216D01*
X17045Y-87257D01*
X17073Y-87313D01*
X18502Y-90281D01*
X18515Y-90295D01*
X18543Y-90350D01*
X18585Y-90447D01*
X18626Y-90558D01*
X18696Y-90683D01*
X18765Y-90835D01*
X18904Y-91182D01*
X18918Y-91196D01*
X18931Y-91265D01*
X18973Y-91348D01*
X19029Y-91473D01*
X19084Y-91612D01*
X19153Y-91765D01*
X19306Y-92111D01*
X19320D01*
X19334Y-92084D01*
X19347Y-92028D01*
X19389Y-91945D01*
X19431Y-91820D01*
X19486Y-91695D01*
X19556Y-91543D01*
X19694Y-91210D01*
X19708Y-91182D01*
X19722Y-91127D01*
X19764Y-91043D01*
X19819Y-90919D01*
X19875Y-90794D01*
X19944Y-90641D01*
X20096Y-90308D01*
X21525Y-87327D01*
Y-87313D01*
X21539Y-87271D01*
X21594Y-87188D01*
X21608Y-87174D01*
X21636Y-87160D01*
X21719Y-87105D01*
X21733D01*
X21774Y-87091D01*
X21830Y-87077D01*
X21927Y-87063D01*
X21955D01*
X22024Y-87049D01*
X22135Y-87035D01*
X22440D01*
X22579Y-87049D01*
D02*
G37*
G36*
X-27042Y-87077D02*
X-26931Y-87091D01*
X-26904D01*
X-26848Y-87105D01*
X-26779Y-87119D01*
X-26723Y-87146D01*
X-26709D01*
X-26682Y-87160D01*
X-26640Y-87188D01*
X-26612Y-87230D01*
X-26598D01*
X-26585Y-87257D01*
X-26571Y-87285D01*
Y-87327D01*
Y-96868D01*
Y-96896D01*
Y-96965D01*
X-26598Y-97048D01*
X-26626Y-97146D01*
X-26640Y-97159D01*
X-26668Y-97215D01*
X-26709Y-97270D01*
X-26779Y-97326D01*
X-26793Y-97340D01*
X-26834Y-97367D01*
X-26890Y-97395D01*
X-26973Y-97423D01*
X-26987D01*
X-27028Y-97437D01*
X-27098Y-97451D01*
X-27763D01*
X-27888Y-97437D01*
X-28013Y-97409D01*
X-28041Y-97395D01*
X-28110Y-97367D01*
X-28207Y-97326D01*
X-28318Y-97256D01*
X-28346Y-97229D01*
X-28401Y-97173D01*
X-28498Y-97062D01*
X-28609Y-96938D01*
Y-96924D01*
X-28637Y-96896D01*
X-28665Y-96854D01*
X-28693Y-96799D01*
X-28748Y-96716D01*
X-28790Y-96632D01*
X-28914Y-96411D01*
X-32076Y-90530D01*
X-32090Y-90516D01*
X-32118Y-90447D01*
X-32174Y-90364D01*
X-32229Y-90239D01*
X-32312Y-90100D01*
X-32396Y-89948D01*
X-32479Y-89768D01*
X-32576Y-89587D01*
X-32590Y-89559D01*
X-32617Y-89504D01*
X-32659Y-89407D01*
X-32728Y-89282D01*
X-32798Y-89130D01*
X-32867Y-88963D01*
X-33033Y-88617D01*
X-33061D01*
Y-88644D01*
Y-88714D01*
X-33047Y-88825D01*
Y-88977D01*
Y-89143D01*
X-33033Y-89352D01*
Y-89559D01*
Y-89781D01*
Y-89809D01*
Y-89879D01*
Y-90003D01*
X-33019Y-90156D01*
Y-90336D01*
Y-90530D01*
Y-90752D01*
Y-90974D01*
Y-97215D01*
Y-97229D01*
Y-97243D01*
X-33033Y-97284D01*
X-33061Y-97326D01*
Y-97340D01*
X-33089Y-97354D01*
X-33117Y-97381D01*
X-33172Y-97409D01*
X-33186D01*
X-33228Y-97423D01*
X-33297D01*
X-33394Y-97437D01*
X-33422D01*
X-33477Y-97451D01*
X-33574Y-97465D01*
X-33838D01*
X-33949Y-97451D01*
X-34060Y-97437D01*
X-34074D01*
X-34129Y-97423D01*
X-34198D01*
X-34268Y-97409D01*
X-34282D01*
X-34309Y-97381D01*
X-34337Y-97367D01*
X-34365Y-97326D01*
Y-97312D01*
X-34379Y-97284D01*
X-34392Y-97215D01*
Y-87673D01*
Y-87660D01*
Y-87618D01*
X-34379Y-87563D01*
X-34365Y-87493D01*
X-34309Y-87341D01*
X-34268Y-87271D01*
X-34212Y-87216D01*
X-34198D01*
X-34185Y-87188D01*
X-34101Y-87146D01*
X-33977Y-87105D01*
X-33824Y-87077D01*
X-33006D01*
X-32881Y-87091D01*
X-32756Y-87119D01*
X-32742D01*
X-32728Y-87133D01*
X-32659Y-87146D01*
X-32562Y-87188D01*
X-32465Y-87257D01*
X-32437Y-87271D01*
X-32382Y-87327D01*
X-32298Y-87410D01*
X-32215Y-87521D01*
X-32187Y-87549D01*
X-32132Y-87632D01*
X-32049Y-87757D01*
X-31952Y-87923D01*
X-29525Y-92458D01*
X-29511Y-92472D01*
X-29483Y-92527D01*
X-29441Y-92611D01*
X-29386Y-92722D01*
X-29317Y-92846D01*
X-29247Y-92985D01*
X-29095Y-93276D01*
X-29081Y-93290D01*
X-29053Y-93346D01*
X-29012Y-93415D01*
X-28970Y-93512D01*
X-28901Y-93637D01*
X-28831Y-93762D01*
X-28693Y-94053D01*
X-28679Y-94067D01*
X-28665Y-94122D01*
X-28623Y-94192D01*
X-28568Y-94289D01*
X-28512Y-94413D01*
X-28457Y-94538D01*
X-28318Y-94816D01*
X-28304Y-94830D01*
X-28290Y-94871D01*
X-28249Y-94954D01*
X-28193Y-95037D01*
X-28138Y-95148D01*
X-28068Y-95273D01*
X-27930Y-95551D01*
Y-95537D01*
Y-95523D01*
Y-95440D01*
Y-95315D01*
Y-95148D01*
X-27944Y-94954D01*
Y-94732D01*
Y-94497D01*
Y-94247D01*
Y-94233D01*
Y-94219D01*
Y-94178D01*
Y-94122D01*
Y-93997D01*
Y-93817D01*
Y-93623D01*
Y-93401D01*
Y-92929D01*
Y-87327D01*
Y-87313D01*
Y-87299D01*
X-27916Y-87230D01*
Y-87216D01*
X-27888Y-87202D01*
X-27861Y-87174D01*
X-27805Y-87146D01*
X-27791Y-87133D01*
X-27750Y-87119D01*
X-27680Y-87105D01*
X-27597Y-87091D01*
X-27569D01*
X-27500Y-87077D01*
X-27389Y-87063D01*
X-27139D01*
X-27042Y-87077D01*
D02*
G37*
G36*
X-16572Y-87049D02*
X-16447Y-87063D01*
X-16419D01*
X-16364Y-87077D01*
X-16294Y-87091D01*
X-16253Y-87133D01*
X-16239Y-87146D01*
X-16225Y-87174D01*
X-16211Y-87230D01*
Y-87299D01*
Y-87313D01*
X-16225Y-87382D01*
X-16239Y-87465D01*
X-16280Y-87590D01*
X-19650Y-97187D01*
Y-97201D01*
X-19664Y-97229D01*
X-19734Y-97326D01*
X-19748Y-97340D01*
X-19775Y-97354D01*
X-19831Y-97381D01*
X-19900Y-97409D01*
X-19914D01*
X-19969Y-97423D01*
X-20053Y-97437D01*
X-20150Y-97451D01*
X-20247D01*
X-20372Y-97465D01*
X-20732D01*
X-20843Y-97451D01*
X-20996D01*
X-21065Y-97437D01*
X-21079D01*
X-21121Y-97423D01*
X-21231Y-97409D01*
X-21245D01*
X-21273Y-97395D01*
X-21356Y-97367D01*
Y-97354D01*
X-21384Y-97340D01*
X-21426Y-97284D01*
Y-97270D01*
X-21439Y-97256D01*
X-21467Y-97173D01*
X-24851Y-87576D01*
Y-87563D01*
X-24865Y-87549D01*
X-24879Y-87479D01*
X-24906Y-87382D01*
X-24920Y-87299D01*
Y-87285D01*
X-24906Y-87230D01*
X-24893Y-87188D01*
X-24851Y-87133D01*
X-24837Y-87119D01*
X-24796Y-87105D01*
X-24726Y-87077D01*
X-24629Y-87063D01*
X-24601D01*
X-24560Y-87049D01*
X-24504D01*
X-24366Y-87036D01*
X-23950D01*
X-23839Y-87049D01*
X-23811D01*
X-23756Y-87063D01*
X-23686Y-87077D01*
X-23631Y-87105D01*
X-23617D01*
X-23589Y-87119D01*
X-23561Y-87146D01*
X-23534Y-87188D01*
X-23520Y-87202D01*
X-23506Y-87216D01*
X-23478Y-87257D01*
X-23450Y-87313D01*
X-20482Y-96008D01*
X-17598Y-87327D01*
Y-87313D01*
X-17584Y-87271D01*
X-17556Y-87188D01*
X-17542Y-87174D01*
X-17529Y-87160D01*
X-17445Y-87105D01*
X-17431Y-87091D01*
X-17390Y-87077D01*
X-17320Y-87063D01*
X-17223Y-87049D01*
X-17196D01*
X-17112Y-87036D01*
X-16696D01*
X-16572Y-87049D01*
D02*
G37*
G36*
X78621Y-87091D02*
X78649Y-87119D01*
X78663D01*
X78677Y-87146D01*
X78704Y-87174D01*
X78732Y-87216D01*
X78746Y-87230D01*
X78760Y-87257D01*
X78774Y-87327D01*
X78787Y-87396D01*
Y-87410D01*
X78801Y-87465D01*
X78815Y-87549D01*
Y-87660D01*
Y-87687D01*
Y-87743D01*
X78801Y-87840D01*
X78787Y-87923D01*
Y-87937D01*
X78774Y-87978D01*
X78732Y-88089D01*
Y-88103D01*
X78718Y-88131D01*
X78690Y-88159D01*
X78649Y-88187D01*
X78635D01*
X78621Y-88200D01*
X78538Y-88214D01*
X74502D01*
Y-91473D01*
X78011D01*
X78053Y-91487D01*
X78080Y-91515D01*
X78094Y-91529D01*
X78108Y-91543D01*
X78163Y-91626D01*
X78177Y-91640D01*
X78191Y-91667D01*
X78205Y-91723D01*
X78219Y-91792D01*
Y-91806D01*
X78233Y-91862D01*
X78247Y-91945D01*
Y-92056D01*
Y-92084D01*
Y-92139D01*
X78233Y-92222D01*
X78219Y-92305D01*
Y-92319D01*
X78205Y-92361D01*
X78163Y-92472D01*
Y-92486D01*
X78150Y-92500D01*
X78080Y-92555D01*
X78066D01*
X78053Y-92569D01*
X77969Y-92583D01*
X74502D01*
Y-96286D01*
X78635D01*
X78677Y-96299D01*
X78704Y-96327D01*
X78718D01*
X78732Y-96355D01*
X78774Y-96383D01*
X78801Y-96424D01*
X78815Y-96438D01*
X78829Y-96466D01*
X78843Y-96535D01*
X78857Y-96605D01*
Y-96618D01*
X78871Y-96674D01*
X78885Y-96757D01*
Y-96868D01*
Y-96896D01*
Y-96951D01*
X78871Y-97035D01*
X78857Y-97118D01*
Y-97132D01*
X78843Y-97187D01*
X78829Y-97243D01*
X78801Y-97298D01*
Y-97312D01*
X78774Y-97340D01*
X78746Y-97367D01*
X78704Y-97395D01*
X78690D01*
X78677Y-97409D01*
X78593Y-97423D01*
X73601D01*
X73517Y-97409D01*
X73407Y-97381D01*
X73282Y-97312D01*
X73254Y-97284D01*
X73240Y-97256D01*
X73212Y-97215D01*
X73185Y-97146D01*
X73157Y-97076D01*
X73143Y-96979D01*
X73129Y-96868D01*
Y-87646D01*
Y-87632D01*
Y-87590D01*
X73143Y-87535D01*
Y-87465D01*
X73198Y-87327D01*
X73226Y-87257D01*
X73282Y-87202D01*
X73296D01*
X73309Y-87188D01*
X73393Y-87133D01*
X73504Y-87091D01*
X73629Y-87077D01*
X78580D01*
X78621Y-87091D01*
D02*
G37*
G36*
X14188D02*
X14216Y-87119D01*
X14230D01*
X14244Y-87146D01*
X14272Y-87174D01*
X14299Y-87216D01*
X14313Y-87230D01*
X14327Y-87257D01*
X14341Y-87327D01*
X14355Y-87396D01*
Y-87410D01*
X14369Y-87465D01*
X14383Y-87549D01*
Y-87660D01*
Y-87687D01*
Y-87743D01*
X14369Y-87840D01*
X14355Y-87923D01*
Y-87937D01*
X14341Y-87978D01*
X14299Y-88089D01*
Y-88103D01*
X14286Y-88131D01*
X14258Y-88159D01*
X14216Y-88187D01*
X14202D01*
X14188Y-88200D01*
X14105Y-88214D01*
X10070D01*
Y-91473D01*
X13578D01*
X13620Y-91487D01*
X13648Y-91515D01*
X13662Y-91529D01*
X13675Y-91543D01*
X13731Y-91626D01*
X13745Y-91640D01*
X13759Y-91667D01*
X13772Y-91723D01*
X13786Y-91792D01*
Y-91806D01*
X13800Y-91862D01*
X13814Y-91945D01*
Y-92056D01*
Y-92084D01*
Y-92139D01*
X13800Y-92222D01*
X13786Y-92305D01*
Y-92319D01*
X13772Y-92361D01*
X13731Y-92472D01*
Y-92486D01*
X13717Y-92500D01*
X13648Y-92555D01*
X13634D01*
X13620Y-92569D01*
X13537Y-92583D01*
X10070D01*
Y-96286D01*
X14202D01*
X14244Y-96299D01*
X14272Y-96327D01*
X14286D01*
X14299Y-96355D01*
X14341Y-96383D01*
X14369Y-96424D01*
X14383Y-96438D01*
X14397Y-96466D01*
X14410Y-96535D01*
X14424Y-96605D01*
Y-96618D01*
X14438Y-96674D01*
X14452Y-96757D01*
Y-96868D01*
Y-96896D01*
Y-96951D01*
X14438Y-97035D01*
X14424Y-97118D01*
Y-97132D01*
X14410Y-97187D01*
X14397Y-97243D01*
X14369Y-97298D01*
Y-97312D01*
X14341Y-97340D01*
X14313Y-97367D01*
X14272Y-97395D01*
X14258D01*
X14244Y-97409D01*
X14161Y-97423D01*
X9168D01*
X9085Y-97409D01*
X8974Y-97381D01*
X8849Y-97312D01*
X8821Y-97284D01*
X8808Y-97256D01*
X8780Y-97215D01*
X8752Y-97146D01*
X8724Y-97076D01*
X8711Y-96979D01*
X8697Y-96868D01*
Y-87646D01*
Y-87632D01*
Y-87590D01*
X8711Y-87535D01*
Y-87465D01*
X8766Y-87327D01*
X8794Y-87257D01*
X8849Y-87202D01*
X8863D01*
X8877Y-87188D01*
X8960Y-87133D01*
X9071Y-87091D01*
X9196Y-87077D01*
X14147D01*
X14188Y-87091D01*
D02*
G37*
G36*
X2719Y-87049D02*
X2816Y-87063D01*
X2844D01*
X2900Y-87077D01*
X2969Y-87091D01*
X3038Y-87105D01*
X3052D01*
X3080Y-87119D01*
X3122Y-87146D01*
X3149Y-87188D01*
X3163Y-87202D01*
X3177Y-87216D01*
X3191Y-87257D01*
Y-87299D01*
Y-96230D01*
X6935D01*
X6977Y-96244D01*
X7018Y-96272D01*
X7032Y-96286D01*
X7046Y-96300D01*
X7102Y-96383D01*
X7116Y-96397D01*
X7129Y-96424D01*
X7143Y-96480D01*
X7157Y-96563D01*
Y-96577D01*
X7171Y-96632D01*
X7185Y-96716D01*
Y-96827D01*
Y-96854D01*
Y-96924D01*
X7171Y-97007D01*
X7157Y-97104D01*
Y-97118D01*
X7143Y-97159D01*
X7129Y-97215D01*
X7102Y-97284D01*
Y-97298D01*
X7088Y-97326D01*
X7018Y-97395D01*
X7005D01*
X6991Y-97409D01*
X6949Y-97423D01*
X2289D01*
X2206Y-97409D01*
X2095Y-97381D01*
X1970Y-97312D01*
X1943Y-97284D01*
X1929Y-97256D01*
X1901Y-97215D01*
X1873Y-97146D01*
X1846Y-97076D01*
X1832Y-96979D01*
X1818Y-96868D01*
Y-87299D01*
Y-87285D01*
Y-87257D01*
X1846Y-87188D01*
Y-87174D01*
X1873Y-87160D01*
X1901Y-87133D01*
X1957Y-87105D01*
X1970D01*
X2012Y-87091D01*
X2081Y-87077D01*
X2165Y-87063D01*
X2192D01*
X2262Y-87049D01*
X2359Y-87036D01*
X2608D01*
X2719Y-87049D01*
D02*
G37*
G36*
X-4159D02*
X-4062Y-87063D01*
X-4035D01*
X-3979Y-87077D01*
X-3910Y-87091D01*
X-3840Y-87105D01*
X-3827D01*
X-3799Y-87119D01*
X-3757Y-87146D01*
X-3729Y-87188D01*
X-3716Y-87202D01*
X-3702Y-87216D01*
X-3688Y-87257D01*
Y-87299D01*
Y-96230D01*
X57D01*
X98Y-96244D01*
X140Y-96272D01*
X154Y-96286D01*
X168Y-96300D01*
X223Y-96383D01*
X237Y-96397D01*
X251Y-96424D01*
X265Y-96480D01*
X279Y-96563D01*
Y-96577D01*
X292Y-96632D01*
X306Y-96716D01*
Y-96827D01*
Y-96854D01*
Y-96924D01*
X292Y-97007D01*
X279Y-97104D01*
Y-97118D01*
X265Y-97159D01*
X251Y-97215D01*
X223Y-97284D01*
Y-97298D01*
X209Y-97326D01*
X140Y-97395D01*
X126D01*
X112Y-97409D01*
X71Y-97423D01*
X-4589D01*
X-4672Y-97409D01*
X-4784Y-97381D01*
X-4908Y-97312D01*
X-4936Y-97284D01*
X-4950Y-97256D01*
X-4978Y-97215D01*
X-5005Y-97146D01*
X-5033Y-97076D01*
X-5047Y-96979D01*
X-5061Y-96868D01*
Y-87299D01*
Y-87285D01*
Y-87257D01*
X-5033Y-87188D01*
Y-87174D01*
X-5005Y-87160D01*
X-4978Y-87133D01*
X-4922Y-87105D01*
X-4908D01*
X-4867Y-87091D01*
X-4797Y-87077D01*
X-4714Y-87063D01*
X-4686D01*
X-4617Y-87049D01*
X-4520Y-87036D01*
X-4270D01*
X-4159Y-87049D01*
D02*
G37*
G36*
X-64043D02*
X-63946Y-87063D01*
X-63918D01*
X-63863Y-87077D01*
X-63794Y-87091D01*
X-63724Y-87105D01*
X-63710D01*
X-63683Y-87119D01*
X-63641Y-87146D01*
X-63613Y-87188D01*
X-63599Y-87202D01*
X-63586Y-87216D01*
X-63572Y-87257D01*
Y-87299D01*
Y-96230D01*
X-59827D01*
X-59786Y-96244D01*
X-59744Y-96272D01*
X-59730Y-96286D01*
X-59716Y-96300D01*
X-59661Y-96383D01*
X-59647Y-96397D01*
X-59633Y-96424D01*
X-59619Y-96480D01*
X-59605Y-96563D01*
Y-96577D01*
X-59591Y-96632D01*
X-59577Y-96716D01*
Y-96827D01*
Y-96854D01*
Y-96924D01*
X-59591Y-97007D01*
X-59605Y-97104D01*
Y-97118D01*
X-59619Y-97159D01*
X-59633Y-97215D01*
X-59661Y-97284D01*
Y-97298D01*
X-59675Y-97326D01*
X-59744Y-97395D01*
X-59758D01*
X-59772Y-97409D01*
X-59813Y-97423D01*
X-64473D01*
X-64556Y-97409D01*
X-64667Y-97381D01*
X-64792Y-97312D01*
X-64820Y-97284D01*
X-64834Y-97256D01*
X-64861Y-97215D01*
X-64889Y-97146D01*
X-64917Y-97076D01*
X-64931Y-96979D01*
X-64945Y-96868D01*
Y-87299D01*
Y-87285D01*
Y-87257D01*
X-64917Y-87188D01*
Y-87174D01*
X-64889Y-87160D01*
X-64861Y-87133D01*
X-64806Y-87105D01*
X-64792D01*
X-64750Y-87091D01*
X-64681Y-87077D01*
X-64598Y-87063D01*
X-64570D01*
X-64501Y-87049D01*
X-64404Y-87036D01*
X-64154D01*
X-64043Y-87049D01*
D02*
G37*
G36*
X57084Y-87049D02*
X57111D01*
X57181Y-87063D01*
X57278Y-87077D01*
X57361Y-87105D01*
X57375D01*
X57416Y-87119D01*
X57472Y-87146D01*
X57513Y-87188D01*
X57527Y-87202D01*
X57555Y-87230D01*
X57583Y-87271D01*
X57611Y-87340D01*
X61078Y-96938D01*
Y-96951D01*
X61091Y-96965D01*
X61119Y-97035D01*
X61133Y-97132D01*
X61147Y-97229D01*
Y-97243D01*
X61133Y-97284D01*
X61119Y-97340D01*
X61078Y-97381D01*
X61064D01*
X61036Y-97409D01*
X60967Y-97423D01*
X60869Y-97437D01*
X60842D01*
X60772Y-97451D01*
X60648Y-97465D01*
X60204D01*
X60079Y-97451D01*
X60051D01*
X59996Y-97437D01*
X59927D01*
X59857Y-97423D01*
X59843D01*
X59816Y-97409D01*
X59746Y-97353D01*
Y-97340D01*
X59718Y-97312D01*
X59677Y-97229D01*
X58789Y-94705D01*
X54490D01*
X53644Y-97187D01*
Y-97201D01*
X53630Y-97229D01*
X53575Y-97326D01*
X53547Y-97353D01*
X53519Y-97367D01*
X53464Y-97395D01*
X53450D01*
X53408Y-97409D01*
X53339Y-97423D01*
X53242Y-97437D01*
X53214D01*
X53145Y-97451D01*
X53034Y-97465D01*
X52757D01*
X52632Y-97451D01*
X52507Y-97437D01*
X52479D01*
X52424Y-97423D01*
X52354Y-97409D01*
X52299Y-97381D01*
X52285Y-97367D01*
X52271Y-97340D01*
X52257Y-97284D01*
X52243Y-97215D01*
Y-97201D01*
X52257Y-97132D01*
X52271Y-97048D01*
X52313Y-96924D01*
X55780Y-87327D01*
Y-87313D01*
X55808Y-87271D01*
X55863Y-87188D01*
X55877Y-87174D01*
X55905Y-87160D01*
X55946Y-87133D01*
X56016Y-87105D01*
X56030Y-87091D01*
X56085Y-87077D01*
X56168Y-87063D01*
X56265Y-87049D01*
X56293D01*
X56376Y-87035D01*
X56945D01*
X57084Y-87049D01*
D02*
G37*
G36*
X47597Y-87091D02*
X47806Y-87105D01*
X47903D01*
X47958Y-87119D01*
X48111Y-87133D01*
X48277Y-87146D01*
X48305D01*
X48374Y-87160D01*
X48485Y-87188D01*
X48638Y-87230D01*
X48790Y-87271D01*
X48970Y-87327D01*
X49331Y-87479D01*
X49345Y-87493D01*
X49414Y-87521D01*
X49497Y-87562D01*
X49594Y-87632D01*
X49719Y-87715D01*
X49844Y-87812D01*
X49969Y-87923D01*
X50094Y-88048D01*
X50108Y-88062D01*
X50149Y-88103D01*
X50205Y-88173D01*
X50274Y-88270D01*
X50343Y-88381D01*
X50427Y-88519D01*
X50496Y-88658D01*
X50565Y-88825D01*
X50579Y-88838D01*
X50593Y-88908D01*
X50621Y-88991D01*
X50648Y-89116D01*
X50676Y-89254D01*
X50704Y-89421D01*
X50732Y-89615D01*
Y-89809D01*
Y-89837D01*
Y-89892D01*
X50718Y-89989D01*
Y-90114D01*
X50690Y-90267D01*
X50662Y-90419D01*
X50635Y-90572D01*
X50579Y-90738D01*
Y-90752D01*
X50551Y-90808D01*
X50524Y-90891D01*
X50482Y-90988D01*
X50427Y-91099D01*
X50357Y-91224D01*
X50177Y-91473D01*
X50163Y-91487D01*
X50135Y-91529D01*
X50080Y-91584D01*
X49997Y-91654D01*
X49900Y-91737D01*
X49802Y-91834D01*
X49678Y-91917D01*
X49539Y-92014D01*
X49525Y-92028D01*
X49470Y-92056D01*
X49400Y-92097D01*
X49303Y-92153D01*
X49179Y-92208D01*
X49040Y-92278D01*
X48887Y-92347D01*
X48721Y-92402D01*
X48735D01*
X48762Y-92416D01*
X48818Y-92444D01*
X48873Y-92486D01*
X49026Y-92569D01*
X49192Y-92694D01*
X49206Y-92708D01*
X49234Y-92722D01*
X49262Y-92763D01*
X49317Y-92805D01*
X49442Y-92943D01*
X49581Y-93110D01*
X49594Y-93124D01*
X49608Y-93151D01*
X49650Y-93207D01*
X49692Y-93262D01*
X49747Y-93346D01*
X49802Y-93443D01*
X49914Y-93665D01*
X49927Y-93678D01*
X49941Y-93720D01*
X49969Y-93776D01*
X50011Y-93859D01*
X50066Y-93970D01*
X50121Y-94081D01*
X50233Y-94358D01*
X51162Y-96632D01*
Y-96646D01*
X51175Y-96674D01*
X51203Y-96729D01*
X51217Y-96785D01*
X51273Y-96924D01*
X51287Y-96979D01*
X51300Y-97035D01*
X51314Y-97048D01*
X51328Y-97104D01*
X51342Y-97159D01*
Y-97215D01*
Y-97229D01*
Y-97256D01*
X51314Y-97340D01*
X51287Y-97367D01*
X51259Y-97381D01*
X51203Y-97409D01*
X51189D01*
X51148Y-97423D01*
X51078D01*
X50981Y-97437D01*
X50954D01*
X50884Y-97451D01*
X50760Y-97465D01*
X50482D01*
X50371Y-97451D01*
X50260Y-97437D01*
X50246D01*
X50191Y-97423D01*
X50121Y-97409D01*
X50052Y-97395D01*
X50038D01*
X50011Y-97367D01*
X49969Y-97353D01*
X49927Y-97312D01*
Y-97298D01*
X49900Y-97270D01*
X49886Y-97215D01*
X49858Y-97146D01*
X48901Y-94705D01*
X48887Y-94691D01*
X48873Y-94635D01*
X48846Y-94552D01*
X48790Y-94455D01*
X48748Y-94330D01*
X48679Y-94205D01*
X48554Y-93942D01*
X48541Y-93928D01*
X48527Y-93886D01*
X48485Y-93817D01*
X48430Y-93734D01*
X48291Y-93540D01*
X48124Y-93346D01*
X48111Y-93332D01*
X48083Y-93304D01*
X48027Y-93262D01*
X47958Y-93207D01*
X47875Y-93138D01*
X47778Y-93082D01*
X47542Y-92957D01*
X47528Y-92943D01*
X47487Y-92929D01*
X47417Y-92902D01*
X47320Y-92874D01*
X47195Y-92846D01*
X47057Y-92832D01*
X46904Y-92805D01*
X45822D01*
Y-97215D01*
Y-97229D01*
Y-97256D01*
X45808Y-97298D01*
X45781Y-97340D01*
X45767D01*
X45753Y-97367D01*
X45711Y-97381D01*
X45656Y-97409D01*
X45642D01*
X45600Y-97423D01*
X45545D01*
X45448Y-97437D01*
X45420D01*
X45365Y-97451D01*
X45268Y-97465D01*
X45018D01*
X44907Y-97451D01*
X44796Y-97437D01*
X44782D01*
X44727Y-97423D01*
X44657D01*
X44588Y-97409D01*
X44574D01*
X44546Y-97395D01*
X44505Y-97367D01*
X44477Y-97340D01*
Y-97326D01*
X44463Y-97298D01*
X44449Y-97215D01*
Y-87646D01*
Y-87632D01*
Y-87590D01*
X44463Y-87535D01*
Y-87465D01*
X44519Y-87327D01*
X44546Y-87257D01*
X44602Y-87202D01*
X44616D01*
X44630Y-87188D01*
X44713Y-87133D01*
X44824Y-87091D01*
X44949Y-87077D01*
X47376D01*
X47597Y-87091D01*
D02*
G37*
G36*
X38722Y-87049D02*
X38749D01*
X38819Y-87063D01*
X38916Y-87077D01*
X38999Y-87105D01*
X39013D01*
X39055Y-87119D01*
X39110Y-87146D01*
X39152Y-87188D01*
X39165Y-87202D01*
X39193Y-87230D01*
X39221Y-87271D01*
X39249Y-87340D01*
X42716Y-96938D01*
Y-96951D01*
X42730Y-96965D01*
X42757Y-97035D01*
X42771Y-97132D01*
X42785Y-97229D01*
Y-97243D01*
X42771Y-97284D01*
X42757Y-97340D01*
X42716Y-97381D01*
X42702D01*
X42674Y-97409D01*
X42605Y-97423D01*
X42508Y-97437D01*
X42480D01*
X42411Y-97451D01*
X42286Y-97465D01*
X41842D01*
X41717Y-97451D01*
X41690D01*
X41634Y-97437D01*
X41565D01*
X41495Y-97423D01*
X41481D01*
X41454Y-97409D01*
X41384Y-97353D01*
Y-97340D01*
X41357Y-97312D01*
X41315Y-97229D01*
X40427Y-94705D01*
X36128D01*
X35282Y-97187D01*
Y-97201D01*
X35268Y-97229D01*
X35213Y-97326D01*
X35185Y-97353D01*
X35157Y-97367D01*
X35102Y-97395D01*
X35088D01*
X35047Y-97409D01*
X34977Y-97423D01*
X34880Y-97437D01*
X34852D01*
X34783Y-97451D01*
X34672Y-97465D01*
X34395D01*
X34270Y-97451D01*
X34145Y-97437D01*
X34117D01*
X34062Y-97423D01*
X33993Y-97409D01*
X33937Y-97381D01*
X33923Y-97367D01*
X33909Y-97340D01*
X33895Y-97284D01*
X33882Y-97215D01*
Y-97201D01*
X33895Y-97132D01*
X33909Y-97048D01*
X33951Y-96924D01*
X37418Y-87327D01*
Y-87313D01*
X37446Y-87271D01*
X37501Y-87188D01*
X37515Y-87174D01*
X37543Y-87160D01*
X37585Y-87133D01*
X37654Y-87105D01*
X37668Y-87091D01*
X37723Y-87077D01*
X37806Y-87063D01*
X37903Y-87049D01*
X37931D01*
X38014Y-87035D01*
X38583D01*
X38722Y-87049D01*
D02*
G37*
G36*
X-10789Y-87049D02*
X-10761D01*
X-10691Y-87063D01*
X-10594Y-87077D01*
X-10511Y-87105D01*
X-10497D01*
X-10456Y-87119D01*
X-10400Y-87146D01*
X-10359Y-87188D01*
X-10345Y-87202D01*
X-10317Y-87230D01*
X-10289Y-87271D01*
X-10261Y-87341D01*
X-6794Y-96938D01*
Y-96951D01*
X-6780Y-96965D01*
X-6753Y-97035D01*
X-6739Y-97132D01*
X-6725Y-97229D01*
Y-97243D01*
X-6739Y-97284D01*
X-6753Y-97340D01*
X-6794Y-97381D01*
X-6808D01*
X-6836Y-97409D01*
X-6905Y-97423D01*
X-7002Y-97437D01*
X-7030D01*
X-7099Y-97451D01*
X-7224Y-97465D01*
X-7668D01*
X-7793Y-97451D01*
X-7821D01*
X-7876Y-97437D01*
X-7946D01*
X-8015Y-97423D01*
X-8029D01*
X-8056Y-97409D01*
X-8126Y-97354D01*
Y-97340D01*
X-8153Y-97312D01*
X-8195Y-97229D01*
X-9083Y-94705D01*
X-13382D01*
X-14228Y-97187D01*
Y-97201D01*
X-14242Y-97229D01*
X-14297Y-97326D01*
X-14325Y-97354D01*
X-14353Y-97367D01*
X-14408Y-97395D01*
X-14422D01*
X-14464Y-97409D01*
X-14533Y-97423D01*
X-14630Y-97437D01*
X-14658D01*
X-14727Y-97451D01*
X-14838Y-97465D01*
X-15115D01*
X-15240Y-97451D01*
X-15365Y-97437D01*
X-15393D01*
X-15448Y-97423D01*
X-15518Y-97409D01*
X-15573Y-97381D01*
X-15587Y-97367D01*
X-15601Y-97340D01*
X-15615Y-97284D01*
X-15629Y-97215D01*
Y-97201D01*
X-15615Y-97132D01*
X-15601Y-97048D01*
X-15559Y-96924D01*
X-12092Y-87327D01*
Y-87313D01*
X-12064Y-87271D01*
X-12009Y-87188D01*
X-11995Y-87174D01*
X-11967Y-87160D01*
X-11926Y-87133D01*
X-11856Y-87105D01*
X-11842Y-87091D01*
X-11787Y-87077D01*
X-11704Y-87063D01*
X-11607Y-87049D01*
X-11579D01*
X-11496Y-87036D01*
X-10927D01*
X-10789Y-87049D01*
D02*
G37*
G36*
X-57164D02*
X-57067Y-87063D01*
X-57040D01*
X-56984Y-87077D01*
X-56915Y-87091D01*
X-56845Y-87105D01*
X-56832D01*
X-56804Y-87119D01*
X-56762Y-87146D01*
X-56734Y-87188D01*
X-56721Y-87202D01*
X-56707Y-87216D01*
X-56693Y-87257D01*
Y-87299D01*
Y-97215D01*
Y-97229D01*
Y-97256D01*
X-56707Y-97298D01*
X-56734Y-97340D01*
X-56762Y-97367D01*
X-56790Y-97381D01*
X-56845Y-97409D01*
X-56859D01*
X-56901Y-97423D01*
X-56970D01*
X-57067Y-97437D01*
X-57095D01*
X-57151Y-97451D01*
X-57248Y-97465D01*
X-57497D01*
X-57608Y-97451D01*
X-57719Y-97437D01*
X-57733D01*
X-57789Y-97423D01*
X-57858D01*
X-57927Y-97409D01*
X-57941D01*
X-57969Y-97395D01*
X-58010Y-97367D01*
X-58038Y-97340D01*
Y-97326D01*
X-58052Y-97298D01*
X-58066Y-97215D01*
Y-87299D01*
Y-87285D01*
Y-87257D01*
X-58038Y-87188D01*
X-58024Y-87174D01*
X-58010Y-87160D01*
X-57969Y-87133D01*
X-57913Y-87105D01*
X-57899D01*
X-57858Y-87091D01*
X-57789Y-87077D01*
X-57705Y-87063D01*
X-57678D01*
X-57608Y-87049D01*
X-57511Y-87036D01*
X-57275D01*
X-57164Y-87049D01*
D02*
G37*
G36*
X-68162D02*
X-68065Y-87063D01*
X-68037D01*
X-67982Y-87077D01*
X-67912Y-87091D01*
X-67843Y-87105D01*
X-67829D01*
X-67801Y-87119D01*
X-67760Y-87146D01*
X-67732Y-87188D01*
X-67718Y-87202D01*
X-67704Y-87216D01*
X-67691Y-87257D01*
Y-87299D01*
Y-97215D01*
Y-97229D01*
Y-97256D01*
X-67704Y-97298D01*
X-67732Y-97340D01*
X-67760Y-97367D01*
X-67788Y-97381D01*
X-67843Y-97409D01*
X-67857D01*
X-67899Y-97423D01*
X-67968D01*
X-68065Y-97437D01*
X-68093D01*
X-68148Y-97451D01*
X-68245Y-97465D01*
X-68495D01*
X-68606Y-97451D01*
X-68717Y-97437D01*
X-68731D01*
X-68786Y-97423D01*
X-68856D01*
X-68925Y-97409D01*
X-68939D01*
X-68966Y-97395D01*
X-69008Y-97367D01*
X-69036Y-97340D01*
Y-97326D01*
X-69050Y-97298D01*
X-69064Y-97215D01*
Y-87299D01*
Y-87285D01*
Y-87257D01*
X-69036Y-87188D01*
X-69022Y-87174D01*
X-69008Y-87160D01*
X-68966Y-87133D01*
X-68911Y-87105D01*
X-68897D01*
X-68856Y-87091D01*
X-68786Y-87077D01*
X-68703Y-87063D01*
X-68675D01*
X-68606Y-87049D01*
X-68509Y-87036D01*
X-68273D01*
X-68162Y-87049D01*
D02*
G37*
G36*
X-40786Y-86938D02*
X-40675D01*
X-40550Y-86952D01*
X-40398Y-86966D01*
X-40092Y-87008D01*
X-39760Y-87077D01*
X-39427Y-87160D01*
X-39094Y-87271D01*
X-39080D01*
X-39052Y-87285D01*
X-39011Y-87313D01*
X-38955Y-87341D01*
X-38803Y-87410D01*
X-38595Y-87521D01*
X-38373Y-87673D01*
X-38137Y-87840D01*
X-37901Y-88048D01*
X-37679Y-88284D01*
Y-88298D01*
X-37652Y-88311D01*
X-37624Y-88353D01*
X-37582Y-88395D01*
X-37485Y-88547D01*
X-37360Y-88727D01*
X-37222Y-88963D01*
X-37083Y-89241D01*
X-36944Y-89559D01*
X-36833Y-89906D01*
Y-89920D01*
X-36820Y-89948D01*
X-36806Y-90003D01*
X-36792Y-90073D01*
X-36764Y-90170D01*
X-36750Y-90281D01*
X-36722Y-90406D01*
X-36695Y-90544D01*
X-36667Y-90711D01*
X-36639Y-90877D01*
X-36598Y-91251D01*
X-36570Y-91681D01*
X-36556Y-92139D01*
Y-92153D01*
Y-92194D01*
Y-92264D01*
Y-92347D01*
X-36570Y-92458D01*
Y-92583D01*
X-36584Y-92735D01*
X-36598Y-92888D01*
X-36625Y-93235D01*
X-36681Y-93623D01*
X-36764Y-94011D01*
X-36861Y-94400D01*
Y-94413D01*
X-36875Y-94441D01*
X-36889Y-94497D01*
X-36917Y-94566D01*
X-36944Y-94649D01*
X-36986Y-94760D01*
X-37083Y-94996D01*
X-37208Y-95259D01*
X-37360Y-95551D01*
X-37541Y-95842D01*
X-37749Y-96119D01*
Y-96133D01*
X-37776Y-96147D01*
X-37860Y-96230D01*
X-37984Y-96369D01*
X-38151Y-96521D01*
X-38359Y-96688D01*
X-38609Y-96868D01*
X-38900Y-97048D01*
X-39219Y-97201D01*
X-39233D01*
X-39260Y-97215D01*
X-39302Y-97229D01*
X-39371Y-97256D01*
X-39455Y-97284D01*
X-39565Y-97326D01*
X-39676Y-97354D01*
X-39815Y-97381D01*
X-40106Y-97451D01*
X-40467Y-97520D01*
X-40855Y-97562D01*
X-41285Y-97575D01*
X-41479D01*
X-41576Y-97562D01*
X-41701D01*
X-41826Y-97548D01*
X-41979Y-97534D01*
X-42298Y-97492D01*
X-42630Y-97423D01*
X-42977Y-97340D01*
X-43310Y-97229D01*
X-43324D01*
X-43351Y-97215D01*
X-43393Y-97187D01*
X-43449Y-97159D01*
X-43601Y-97090D01*
X-43795Y-96979D01*
X-44017Y-96827D01*
X-44253Y-96660D01*
X-44489Y-96466D01*
X-44711Y-96230D01*
Y-96216D01*
X-44738Y-96202D01*
X-44766Y-96161D01*
X-44808Y-96105D01*
X-44905Y-95967D01*
X-45016Y-95773D01*
X-45154Y-95537D01*
X-45293Y-95259D01*
X-45432Y-94927D01*
X-45543Y-94580D01*
Y-94566D01*
X-45557Y-94538D01*
X-45570Y-94483D01*
X-45584Y-94400D01*
X-45598Y-94316D01*
X-45626Y-94205D01*
X-45654Y-94067D01*
X-45668Y-93928D01*
X-45695Y-93762D01*
X-45723Y-93595D01*
X-45765Y-93207D01*
X-45792Y-92777D01*
X-45806Y-92319D01*
Y-92305D01*
Y-92264D01*
Y-92194D01*
Y-92111D01*
X-45792Y-92000D01*
Y-91875D01*
X-45778Y-91737D01*
X-45765Y-91570D01*
X-45737Y-91238D01*
X-45681Y-90849D01*
X-45612Y-90475D01*
X-45515Y-90086D01*
Y-90073D01*
X-45501Y-90045D01*
X-45487Y-89989D01*
X-45459Y-89920D01*
X-45432Y-89837D01*
X-45390Y-89740D01*
X-45293Y-89504D01*
X-45168Y-89241D01*
X-45030Y-88949D01*
X-44849Y-88672D01*
X-44641Y-88395D01*
X-44627Y-88381D01*
X-44613Y-88367D01*
X-44530Y-88284D01*
X-44405Y-88145D01*
X-44225Y-87992D01*
X-44017Y-87826D01*
X-43768Y-87646D01*
X-43476Y-87465D01*
X-43157Y-87313D01*
X-43144D01*
X-43116Y-87299D01*
X-43060Y-87271D01*
X-43005Y-87257D01*
X-42922Y-87216D01*
X-42811Y-87188D01*
X-42700Y-87160D01*
X-42561Y-87119D01*
X-42422Y-87077D01*
X-42256Y-87049D01*
X-41909Y-86980D01*
X-41507Y-86938D01*
X-41077Y-86924D01*
X-40883D01*
X-40786Y-86938D01*
D02*
G37*
%LPC*%
G36*
X72997Y-5140D02*
X70915D01*
Y-17303D01*
X73247D01*
X73372Y-17283D01*
X73539D01*
X73893Y-17262D01*
X74289Y-17220D01*
X74705Y-17157D01*
X75143Y-17074D01*
X75539Y-16949D01*
X75559D01*
X75580Y-16928D01*
X75705Y-16887D01*
X75893Y-16803D01*
X76143Y-16679D01*
X76392Y-16533D01*
X76684Y-16324D01*
X76955Y-16116D01*
X77225Y-15845D01*
X77246Y-15804D01*
X77330Y-15700D01*
X77455Y-15533D01*
X77621Y-15304D01*
X77788Y-15033D01*
X77955Y-14700D01*
X78121Y-14325D01*
X78267Y-13908D01*
Y-13888D01*
X78288Y-13846D01*
X78309Y-13783D01*
X78329Y-13700D01*
X78350Y-13575D01*
X78371Y-13450D01*
X78413Y-13283D01*
X78454Y-13117D01*
X78517Y-12700D01*
X78559Y-12221D01*
X78600Y-11659D01*
X78621Y-11076D01*
Y-11055D01*
Y-11013D01*
Y-10951D01*
Y-10847D01*
Y-10742D01*
X78600Y-10618D01*
X78579Y-10284D01*
X78538Y-9930D01*
X78475Y-9535D01*
X78392Y-9118D01*
X78288Y-8701D01*
Y-8681D01*
X78267Y-8660D01*
X78246Y-8597D01*
X78225Y-8514D01*
X78142Y-8306D01*
X78038Y-8056D01*
X77892Y-7764D01*
X77725Y-7452D01*
X77517Y-7118D01*
X77288Y-6827D01*
X77267Y-6785D01*
X77163Y-6702D01*
X77038Y-6556D01*
X76830Y-6369D01*
X76601Y-6181D01*
X76309Y-5973D01*
X75997Y-5785D01*
X75622Y-5598D01*
X75601D01*
X75580Y-5577D01*
X75518Y-5556D01*
X75434Y-5536D01*
X75330Y-5494D01*
X75205Y-5452D01*
X74914Y-5369D01*
X74539Y-5286D01*
X74081Y-5202D01*
X73581Y-5161D01*
X72997Y-5140D01*
D02*
G37*
G36*
X-71459Y64244D02*
X-71600D01*
X-71765Y64220D01*
X-71954Y64197D01*
X-72190Y64150D01*
X-72426Y64079D01*
X-72662Y63984D01*
X-72898Y63843D01*
X-72922Y63819D01*
X-72993Y63772D01*
X-73110Y63678D01*
X-73229Y63560D01*
X-73394Y63394D01*
X-73559Y63206D01*
X-73724Y62993D01*
X-73866Y62757D01*
X-73889Y62734D01*
X-73936Y62639D01*
X-73984Y62498D01*
X-74078Y62309D01*
X-74172Y62097D01*
X-74267Y61837D01*
X-74361Y61530D01*
X-74432Y61224D01*
Y61176D01*
X-74455Y61082D01*
X-74479Y60917D01*
X-74503Y60681D01*
X-74550Y60421D01*
X-74573Y60114D01*
X-74597Y59784D01*
Y59454D01*
Y59407D01*
Y59289D01*
Y59100D01*
X-74573Y58864D01*
Y58557D01*
X-74526Y58250D01*
X-74455Y57566D01*
Y57519D01*
X-74432Y57401D01*
X-74385Y57236D01*
X-74338Y57023D01*
X-74267Y56764D01*
X-74172Y56481D01*
X-73936Y55938D01*
X-73913Y55914D01*
X-73866Y55820D01*
X-73795Y55702D01*
X-73677Y55537D01*
X-73559Y55372D01*
X-73394Y55183D01*
X-73229Y55018D01*
X-73016Y54852D01*
X-72993Y54829D01*
X-72898Y54805D01*
X-72780Y54735D01*
X-72615Y54664D01*
X-72403Y54593D01*
X-72143Y54546D01*
X-71860Y54499D01*
X-71553Y54475D01*
X-71388D01*
X-71294Y54499D01*
X-71034Y54522D01*
X-70727Y54593D01*
X-70704D01*
X-70656Y54616D01*
X-70562Y54640D01*
X-70468Y54687D01*
X-70184Y54805D01*
X-69854Y54994D01*
X-69831Y55018D01*
X-69783Y55041D01*
X-69689Y55112D01*
X-69571Y55183D01*
X-69264Y55419D01*
X-68910Y55726D01*
X-68887Y55749D01*
X-68816Y55820D01*
X-68722Y55914D01*
X-68604Y56056D01*
X-68438Y56221D01*
X-68273Y56410D01*
X-68061Y56622D01*
X-67872Y56858D01*
Y61932D01*
Y61955D01*
X-67919Y61979D01*
X-68037Y62120D01*
X-68202Y62309D01*
X-68438Y62545D01*
X-68722Y62828D01*
X-69005Y63111D01*
X-69335Y63371D01*
X-69665Y63630D01*
X-69713Y63654D01*
X-69807Y63725D01*
X-69996Y63819D01*
X-70208Y63937D01*
X-70491Y64055D01*
X-70798Y64150D01*
X-71128Y64220D01*
X-71459Y64244D01*
D02*
G37*
G36*
X83571Y58770D02*
X81306D01*
X81093Y58746D01*
X80834Y58722D01*
X80574Y58699D01*
X80031Y58604D01*
X80008D01*
X79913Y58581D01*
X79795Y58534D01*
X79630Y58486D01*
X79276Y58345D01*
X79088Y58250D01*
X78922Y58132D01*
X78899Y58109D01*
X78852Y58085D01*
X78781Y58014D01*
X78686Y57920D01*
X78474Y57708D01*
X78285Y57425D01*
Y57401D01*
X78262Y57354D01*
X78238Y57259D01*
X78191Y57165D01*
X78167Y57023D01*
X78120Y56858D01*
X78096Y56481D01*
Y56434D01*
Y56315D01*
X78120Y56150D01*
X78167Y55938D01*
X78238Y55702D01*
X78333Y55466D01*
X78474Y55206D01*
X78663Y54994D01*
X78686Y54970D01*
X78781Y54923D01*
X78899Y54829D01*
X79088Y54735D01*
X79324Y54640D01*
X79607Y54546D01*
X79937Y54499D01*
X80338Y54475D01*
X80480D01*
X80645Y54499D01*
X80857Y54522D01*
X81093Y54593D01*
X81376Y54664D01*
X81660Y54782D01*
X81943Y54923D01*
X81990Y54947D01*
X82084Y55018D01*
X82226Y55112D01*
X82438Y55254D01*
X82674Y55466D01*
X82957Y55702D01*
X83264Y55962D01*
X83571Y56292D01*
Y58770D01*
D02*
G37*
G36*
X-50953Y68586D02*
X-53101D01*
Y61648D01*
X-50859D01*
X-50670Y61672D01*
X-50411D01*
X-50127Y61719D01*
X-49844Y61766D01*
X-49561Y61814D01*
X-49278Y61908D01*
X-49254Y61932D01*
X-49160Y61955D01*
X-49018Y62026D01*
X-48853Y62097D01*
X-48476Y62309D01*
X-48098Y62616D01*
X-48074Y62639D01*
X-48027Y62710D01*
X-47933Y62804D01*
X-47815Y62946D01*
X-47697Y63111D01*
X-47579Y63300D01*
X-47461Y63512D01*
X-47343Y63748D01*
X-47319Y63772D01*
X-47296Y63866D01*
X-47249Y64008D01*
X-47201Y64197D01*
X-47154Y64409D01*
X-47131Y64669D01*
X-47084Y64952D01*
Y65235D01*
Y65259D01*
Y65282D01*
Y65400D01*
X-47107Y65613D01*
X-47131Y65848D01*
X-47178Y66108D01*
X-47272Y66415D01*
X-47367Y66698D01*
X-47508Y66981D01*
X-47532Y67005D01*
X-47579Y67099D01*
X-47673Y67217D01*
X-47768Y67382D01*
X-47909Y67547D01*
X-48074Y67713D01*
X-48263Y67878D01*
X-48476Y68019D01*
X-48499Y68043D01*
X-48570Y68067D01*
X-48688Y68137D01*
X-48830Y68208D01*
X-49018Y68279D01*
X-49231Y68350D01*
X-49467Y68421D01*
X-49703Y68468D01*
X-49726D01*
X-49821Y68491D01*
X-49939Y68515D01*
X-50104Y68538D01*
X-50293D01*
X-50505Y68562D01*
X-50953Y68586D01*
D02*
G37*
G36*
X-181372Y68586D02*
X-183519D01*
Y61648D01*
X-181277D01*
X-181089Y61672D01*
X-180829D01*
X-180546Y61719D01*
X-180263Y61766D01*
X-179979Y61814D01*
X-179696Y61908D01*
X-179673Y61931D01*
X-179578Y61955D01*
X-179437Y62026D01*
X-179272Y62097D01*
X-178894Y62309D01*
X-178517Y62616D01*
X-178493Y62639D01*
X-178446Y62710D01*
X-178351Y62804D01*
X-178233Y62946D01*
X-178115Y63111D01*
X-177997Y63300D01*
X-177879Y63512D01*
X-177761Y63748D01*
X-177738Y63772D01*
X-177714Y63866D01*
X-177667Y64008D01*
X-177620Y64197D01*
X-177573Y64409D01*
X-177549Y64669D01*
X-177502Y64952D01*
Y65235D01*
Y65259D01*
Y65282D01*
Y65400D01*
X-177526Y65613D01*
X-177549Y65848D01*
X-177596Y66108D01*
X-177691Y66415D01*
X-177785Y66698D01*
X-177927Y66981D01*
X-177950Y67005D01*
X-177997Y67099D01*
X-178092Y67217D01*
X-178186Y67382D01*
X-178328Y67547D01*
X-178493Y67713D01*
X-178682Y67878D01*
X-178894Y68019D01*
X-178918Y68043D01*
X-178988Y68067D01*
X-179106Y68137D01*
X-179248Y68208D01*
X-179437Y68279D01*
X-179649Y68350D01*
X-179885Y68421D01*
X-180121Y68468D01*
X-180145D01*
X-180239Y68491D01*
X-180357Y68515D01*
X-180522Y68538D01*
X-180711D01*
X-180923Y68562D01*
X-181372Y68586D01*
D02*
G37*
G36*
X103770Y64220D02*
X103604D01*
X103416Y64197D01*
X103180Y64173D01*
X102896Y64126D01*
X102613Y64055D01*
X102307Y63961D01*
X102023Y63843D01*
X102000Y63819D01*
X101905Y63772D01*
X101764Y63701D01*
X101599Y63583D01*
X101410Y63442D01*
X101198Y63277D01*
X101009Y63088D01*
X100820Y62852D01*
X100796Y62828D01*
X100749Y62734D01*
X100655Y62616D01*
X100561Y62427D01*
X100466Y62215D01*
X100348Y61955D01*
X100230Y61648D01*
X100136Y61342D01*
Y61294D01*
X100112Y61200D01*
X100065Y61011D01*
X100041Y60775D01*
X99994Y60492D01*
X99947Y60162D01*
X99923Y59784D01*
Y59407D01*
Y59359D01*
Y59241D01*
Y59029D01*
X99947Y58770D01*
X99971Y58486D01*
X99994Y58156D01*
X100112Y57472D01*
Y57425D01*
X100159Y57330D01*
X100206Y57165D01*
X100254Y56953D01*
X100348Y56693D01*
X100442Y56434D01*
X100726Y55914D01*
X100749Y55891D01*
X100796Y55796D01*
X100914Y55678D01*
X101032Y55537D01*
X101198Y55372D01*
X101410Y55206D01*
X101622Y55041D01*
X101882Y54876D01*
X101905Y54852D01*
X102000Y54829D01*
X102165Y54758D01*
X102377Y54711D01*
X102637Y54640D01*
X102944Y54569D01*
X103298Y54546D01*
X103699Y54522D01*
X103864D01*
X104053Y54546D01*
X104289Y54569D01*
X104572Y54617D01*
X104855Y54664D01*
X105162Y54758D01*
X105445Y54876D01*
X105469Y54900D01*
X105563Y54947D01*
X105704Y55018D01*
X105870Y55136D01*
X106059Y55277D01*
X106247Y55442D01*
X106436Y55631D01*
X106625Y55844D01*
X106648Y55867D01*
X106696Y55962D01*
X106790Y56103D01*
X106884Y56268D01*
X107002Y56504D01*
X107120Y56764D01*
X107238Y57047D01*
X107333Y57377D01*
Y57425D01*
X107380Y57543D01*
X107403Y57708D01*
X107451Y57967D01*
X107498Y58250D01*
X107521Y58581D01*
X107569Y58958D01*
Y59336D01*
Y59383D01*
Y59501D01*
Y59690D01*
X107545Y59949D01*
X107521Y60233D01*
X107474Y60563D01*
X107356Y61224D01*
Y61271D01*
X107333Y61365D01*
X107285Y61554D01*
X107215Y61766D01*
X107120Y62002D01*
X107026Y62262D01*
X106743Y62781D01*
X106719Y62805D01*
X106672Y62899D01*
X106578Y63017D01*
X106436Y63158D01*
X106271Y63324D01*
X106082Y63489D01*
X105846Y63678D01*
X105587Y63819D01*
X105563Y63843D01*
X105445Y63890D01*
X105303Y63937D01*
X105091Y64032D01*
X104831Y64102D01*
X104501Y64150D01*
X104171Y64197D01*
X103770Y64220D01*
D02*
G37*
G36*
X58960Y64244D02*
X58511D01*
X58346Y64220D01*
X58157Y64197D01*
X57921Y64173D01*
X57662Y64102D01*
X57402Y64032D01*
X57166Y63914D01*
X57143Y63890D01*
X57072Y63866D01*
X56930Y63796D01*
X56789Y63701D01*
X56624Y63583D01*
X56435Y63442D01*
X56081Y63088D01*
X56057Y63064D01*
X56010Y62993D01*
X55939Y62875D01*
X55845Y62734D01*
X55727Y62569D01*
X55633Y62356D01*
X55514Y62120D01*
X55420Y61861D01*
Y61837D01*
X55373Y61743D01*
X55349Y61625D01*
X55302Y61460D01*
X55208Y61082D01*
X55161Y60704D01*
X61956D01*
Y60728D01*
Y60775D01*
Y60846D01*
Y60964D01*
X61933Y61082D01*
X61909Y61247D01*
X61862Y61601D01*
X61768Y62002D01*
X61626Y62427D01*
X61414Y62828D01*
X61130Y63229D01*
Y63253D01*
X61083Y63277D01*
X60965Y63394D01*
X60777Y63560D01*
X60493Y63748D01*
X60163Y63914D01*
X59738Y64079D01*
X59219Y64197D01*
X58960Y64244D01*
D02*
G37*
G36*
X31234D02*
X30785D01*
X30620Y64220D01*
X30431Y64197D01*
X30195Y64173D01*
X29936Y64102D01*
X29676Y64032D01*
X29440Y63914D01*
X29417Y63890D01*
X29346Y63866D01*
X29204Y63796D01*
X29063Y63701D01*
X28898Y63583D01*
X28709Y63442D01*
X28355Y63088D01*
X28331Y63064D01*
X28284Y62993D01*
X28213Y62875D01*
X28119Y62734D01*
X28001Y62569D01*
X27906Y62356D01*
X27789Y62120D01*
X27694Y61861D01*
Y61837D01*
X27647Y61743D01*
X27623Y61625D01*
X27576Y61460D01*
X27482Y61082D01*
X27435Y60704D01*
X34230D01*
Y60728D01*
Y60775D01*
Y60846D01*
Y60964D01*
X34207Y61082D01*
X34183Y61247D01*
X34136Y61601D01*
X34042Y62002D01*
X33900Y62427D01*
X33688Y62828D01*
X33405Y63229D01*
Y63253D01*
X33357Y63277D01*
X33239Y63394D01*
X33051Y63560D01*
X32767Y63748D01*
X32437Y63914D01*
X32012Y64079D01*
X31493Y64197D01*
X31234Y64244D01*
D02*
G37*
G36*
X-5648Y64244D02*
X-6096D01*
X-6261Y64220D01*
X-6450Y64197D01*
X-6686Y64173D01*
X-6946Y64102D01*
X-7205Y64032D01*
X-7441Y63914D01*
X-7465Y63890D01*
X-7536Y63866D01*
X-7677Y63796D01*
X-7819Y63701D01*
X-7984Y63583D01*
X-8173Y63442D01*
X-8527Y63088D01*
X-8550Y63064D01*
X-8597Y62993D01*
X-8668Y62875D01*
X-8763Y62734D01*
X-8881Y62569D01*
X-8975Y62356D01*
X-9093Y62120D01*
X-9187Y61861D01*
Y61837D01*
X-9234Y61743D01*
X-9258Y61625D01*
X-9305Y61459D01*
X-9400Y61082D01*
X-9447Y60704D01*
X-2651D01*
Y60728D01*
Y60775D01*
Y60846D01*
Y60964D01*
X-2675Y61082D01*
X-2698Y61247D01*
X-2745Y61601D01*
X-2840Y62002D01*
X-2981Y62427D01*
X-3194Y62828D01*
X-3477Y63229D01*
Y63253D01*
X-3524Y63277D01*
X-3642Y63394D01*
X-3831Y63560D01*
X-4114Y63748D01*
X-4444Y63914D01*
X-4869Y64079D01*
X-5388Y64197D01*
X-5648Y64244D01*
D02*
G37*
G36*
X-99256Y64220D02*
X-99421D01*
X-99609Y64197D01*
X-99846Y64173D01*
X-100129Y64126D01*
X-100412Y64055D01*
X-100718Y63961D01*
X-101002Y63843D01*
X-101025Y63819D01*
X-101120Y63772D01*
X-101261Y63701D01*
X-101426Y63583D01*
X-101615Y63442D01*
X-101828Y63277D01*
X-102016Y63088D01*
X-102205Y62852D01*
X-102229Y62828D01*
X-102276Y62734D01*
X-102370Y62616D01*
X-102465Y62427D01*
X-102559Y62215D01*
X-102677Y61955D01*
X-102795Y61648D01*
X-102889Y61342D01*
Y61294D01*
X-102913Y61200D01*
X-102960Y61011D01*
X-102984Y60775D01*
X-103031Y60492D01*
X-103078Y60162D01*
X-103102Y59784D01*
Y59407D01*
Y59359D01*
Y59241D01*
Y59029D01*
X-103078Y58769D01*
X-103055Y58486D01*
X-103031Y58156D01*
X-102913Y57472D01*
Y57425D01*
X-102866Y57330D01*
X-102819Y57165D01*
X-102771Y56953D01*
X-102677Y56693D01*
X-102583Y56434D01*
X-102299Y55914D01*
X-102276Y55891D01*
X-102229Y55796D01*
X-102111Y55678D01*
X-101993Y55537D01*
X-101828Y55372D01*
X-101615Y55206D01*
X-101403Y55041D01*
X-101143Y54876D01*
X-101120Y54852D01*
X-101025Y54829D01*
X-100860Y54758D01*
X-100648Y54711D01*
X-100388Y54640D01*
X-100081Y54569D01*
X-99727Y54546D01*
X-99326Y54522D01*
X-99161D01*
X-98972Y54546D01*
X-98736Y54569D01*
X-98453Y54616D01*
X-98170Y54664D01*
X-97863Y54758D01*
X-97580Y54876D01*
X-97557Y54900D01*
X-97462Y54947D01*
X-97321Y55018D01*
X-97156Y55136D01*
X-96967Y55277D01*
X-96778Y55442D01*
X-96589Y55631D01*
X-96400Y55844D01*
X-96377Y55867D01*
X-96330Y55961D01*
X-96235Y56103D01*
X-96141Y56268D01*
X-96023Y56504D01*
X-95905Y56764D01*
X-95787Y57047D01*
X-95693Y57377D01*
Y57425D01*
X-95645Y57543D01*
X-95622Y57708D01*
X-95575Y57967D01*
X-95527Y58250D01*
X-95504Y58581D01*
X-95456Y58958D01*
Y59336D01*
Y59383D01*
Y59501D01*
Y59690D01*
X-95480Y59949D01*
X-95504Y60233D01*
X-95551Y60563D01*
X-95669Y61224D01*
Y61271D01*
X-95693Y61365D01*
X-95740Y61554D01*
X-95810Y61766D01*
X-95905Y62002D01*
X-95999Y62262D01*
X-96282Y62781D01*
X-96306Y62804D01*
X-96353Y62899D01*
X-96448Y63017D01*
X-96589Y63158D01*
X-96754Y63324D01*
X-96943Y63489D01*
X-97179Y63678D01*
X-97439Y63819D01*
X-97462Y63843D01*
X-97580Y63890D01*
X-97722Y63937D01*
X-97934Y64032D01*
X-98194Y64102D01*
X-98524Y64150D01*
X-98854Y64197D01*
X-99256Y64220D01*
D02*
G37*
G36*
X-124386Y64244D02*
X-124834D01*
X-124999Y64220D01*
X-125188Y64197D01*
X-125424Y64173D01*
X-125684Y64102D01*
X-125943Y64032D01*
X-126179Y63914D01*
X-126203Y63890D01*
X-126274Y63866D01*
X-126415Y63796D01*
X-126557Y63701D01*
X-126722Y63583D01*
X-126911Y63442D01*
X-127265Y63088D01*
X-127288Y63064D01*
X-127336Y62993D01*
X-127406Y62875D01*
X-127501Y62734D01*
X-127619Y62569D01*
X-127713Y62356D01*
X-127831Y62120D01*
X-127925Y61861D01*
Y61837D01*
X-127973Y61743D01*
X-127996Y61625D01*
X-128043Y61459D01*
X-128138Y61082D01*
X-128185Y60704D01*
X-121389D01*
Y60728D01*
Y60775D01*
Y60846D01*
Y60964D01*
X-121413Y61082D01*
X-121436Y61247D01*
X-121484Y61601D01*
X-121578Y62002D01*
X-121720Y62427D01*
X-121932Y62828D01*
X-122215Y63229D01*
Y63253D01*
X-122262Y63277D01*
X-122380Y63394D01*
X-122569Y63560D01*
X-122852Y63748D01*
X-123182Y63914D01*
X-123607Y64079D01*
X-124126Y64197D01*
X-124386Y64244D01*
D02*
G37*
G36*
X-149233Y64220D02*
X-149398D01*
X-149587Y64197D01*
X-149823Y64173D01*
X-150106Y64126D01*
X-150389Y64055D01*
X-150696Y63961D01*
X-150979Y63843D01*
X-151003Y63819D01*
X-151097Y63772D01*
X-151239Y63701D01*
X-151404Y63583D01*
X-151593Y63442D01*
X-151805Y63277D01*
X-151994Y63088D01*
X-152183Y62852D01*
X-152206Y62828D01*
X-152254Y62734D01*
X-152348Y62616D01*
X-152442Y62427D01*
X-152537Y62215D01*
X-152655Y61955D01*
X-152773Y61648D01*
X-152867Y61342D01*
Y61294D01*
X-152891Y61200D01*
X-152938Y61011D01*
X-152961Y60775D01*
X-153009Y60492D01*
X-153056Y60162D01*
X-153079Y59784D01*
Y59407D01*
Y59359D01*
Y59241D01*
Y59029D01*
X-153056Y58769D01*
X-153032Y58486D01*
X-153009Y58156D01*
X-152891Y57472D01*
Y57425D01*
X-152843Y57330D01*
X-152796Y57165D01*
X-152749Y56953D01*
X-152655Y56693D01*
X-152560Y56433D01*
X-152277Y55914D01*
X-152254Y55891D01*
X-152206Y55796D01*
X-152088Y55678D01*
X-151970Y55537D01*
X-151805Y55372D01*
X-151593Y55206D01*
X-151380Y55041D01*
X-151121Y54876D01*
X-151097Y54852D01*
X-151003Y54829D01*
X-150838Y54758D01*
X-150625Y54711D01*
X-150366Y54640D01*
X-150059Y54569D01*
X-149705Y54546D01*
X-149304Y54522D01*
X-149139D01*
X-148950Y54546D01*
X-148714Y54569D01*
X-148431Y54616D01*
X-148148Y54664D01*
X-147841Y54758D01*
X-147558Y54876D01*
X-147534Y54900D01*
X-147440Y54947D01*
X-147298Y55018D01*
X-147133Y55136D01*
X-146944Y55277D01*
X-146756Y55442D01*
X-146567Y55631D01*
X-146378Y55844D01*
X-146354Y55867D01*
X-146307Y55961D01*
X-146213Y56103D01*
X-146118Y56268D01*
X-146000Y56504D01*
X-145882Y56764D01*
X-145765Y57047D01*
X-145670Y57377D01*
Y57425D01*
X-145623Y57543D01*
X-145599Y57708D01*
X-145552Y57967D01*
X-145505Y58250D01*
X-145481Y58581D01*
X-145434Y58958D01*
Y59336D01*
Y59383D01*
Y59501D01*
Y59690D01*
X-145458Y59949D01*
X-145481Y60233D01*
X-145528Y60563D01*
X-145646Y61224D01*
Y61271D01*
X-145670Y61365D01*
X-145717Y61554D01*
X-145788Y61766D01*
X-145882Y62002D01*
X-145977Y62262D01*
X-146260Y62781D01*
X-146284Y62804D01*
X-146331Y62899D01*
X-146425Y63017D01*
X-146567Y63158D01*
X-146732Y63324D01*
X-146921Y63489D01*
X-147157Y63678D01*
X-147416Y63819D01*
X-147440Y63843D01*
X-147558Y63890D01*
X-147699Y63937D01*
X-147912Y64032D01*
X-148171Y64102D01*
X-148502Y64149D01*
X-148832Y64197D01*
X-149233Y64220D01*
D02*
G37*
G36*
X56626Y-88450D02*
X56612D01*
X54837Y-93609D01*
X58429D01*
X56626Y-88450D01*
D02*
G37*
G36*
X47251Y-88214D02*
X45822D01*
Y-91695D01*
X47251D01*
X47348Y-91681D01*
X47487D01*
X47625Y-91667D01*
X47792Y-91640D01*
X47944Y-91612D01*
X48097Y-91570D01*
X48111D01*
X48166Y-91543D01*
X48235Y-91515D01*
X48333Y-91473D01*
X48554Y-91362D01*
X48762Y-91210D01*
X48776Y-91196D01*
X48804Y-91168D01*
X48860Y-91113D01*
X48915Y-91057D01*
X48970Y-90974D01*
X49040Y-90877D01*
X49151Y-90655D01*
Y-90641D01*
X49165Y-90600D01*
X49192Y-90530D01*
X49220Y-90447D01*
X49234Y-90336D01*
X49262Y-90211D01*
X49275Y-89948D01*
Y-89934D01*
Y-89920D01*
Y-89851D01*
X49262Y-89740D01*
X49248Y-89601D01*
X49206Y-89435D01*
X49165Y-89268D01*
X49095Y-89102D01*
X48998Y-88935D01*
X48984Y-88921D01*
X48943Y-88866D01*
X48873Y-88783D01*
X48776Y-88700D01*
X48651Y-88603D01*
X48499Y-88492D01*
X48305Y-88408D01*
X48083Y-88325D01*
X48069D01*
X48055Y-88311D01*
X48014D01*
X47958Y-88298D01*
X47806Y-88270D01*
X47625Y-88242D01*
X47584D01*
X47528Y-88228D01*
X47362D01*
X47251Y-88214D01*
D02*
G37*
G36*
X38264Y-88450D02*
X38250D01*
X36475Y-93609D01*
X40067D01*
X38264Y-88450D01*
D02*
G37*
G36*
X-11246Y-88450D02*
X-11260D01*
X-13035Y-93609D01*
X-9443D01*
X-11246Y-88450D01*
D02*
G37*
G36*
X-41160Y-88103D02*
X-41313D01*
X-41382Y-88117D01*
X-41479D01*
X-41687Y-88145D01*
X-41923Y-88187D01*
X-42173Y-88256D01*
X-42436Y-88339D01*
X-42672Y-88450D01*
X-42700Y-88464D01*
X-42769Y-88505D01*
X-42880Y-88589D01*
X-43019Y-88686D01*
X-43171Y-88811D01*
X-43338Y-88977D01*
X-43504Y-89143D01*
X-43657Y-89352D01*
X-43671Y-89379D01*
X-43712Y-89449D01*
X-43781Y-89559D01*
X-43865Y-89726D01*
X-43948Y-89906D01*
X-44045Y-90128D01*
X-44128Y-90378D01*
X-44198Y-90655D01*
Y-90669D01*
Y-90683D01*
X-44211Y-90724D01*
X-44225Y-90780D01*
X-44239Y-90933D01*
X-44267Y-91127D01*
X-44295Y-91362D01*
X-44322Y-91626D01*
X-44336Y-91917D01*
X-44350Y-92222D01*
Y-92236D01*
Y-92264D01*
Y-92305D01*
Y-92375D01*
Y-92458D01*
X-44336Y-92541D01*
Y-92763D01*
X-44322Y-93027D01*
X-44295Y-93304D01*
X-44211Y-93900D01*
Y-93914D01*
X-44198Y-93928D01*
Y-93970D01*
X-44184Y-94025D01*
X-44142Y-94164D01*
X-44086Y-94344D01*
X-44017Y-94552D01*
X-43934Y-94774D01*
X-43823Y-94996D01*
X-43698Y-95218D01*
X-43684Y-95246D01*
X-43629Y-95315D01*
X-43546Y-95412D01*
X-43449Y-95537D01*
X-43310Y-95675D01*
X-43144Y-95814D01*
X-42949Y-95953D01*
X-42741Y-96078D01*
X-42727D01*
X-42714Y-96091D01*
X-42630Y-96119D01*
X-42505Y-96175D01*
X-42325Y-96230D01*
X-42103Y-96286D01*
X-41840Y-96341D01*
X-41549Y-96369D01*
X-41216Y-96383D01*
X-41063D01*
X-40994Y-96369D01*
X-40897D01*
X-40689Y-96341D01*
X-40453Y-96300D01*
X-40203Y-96244D01*
X-39940Y-96161D01*
X-39704Y-96050D01*
X-39690D01*
X-39676Y-96036D01*
X-39607Y-95994D01*
X-39496Y-95911D01*
X-39357Y-95814D01*
X-39191Y-95689D01*
X-39025Y-95523D01*
X-38872Y-95357D01*
X-38719Y-95148D01*
X-38706Y-95121D01*
X-38664Y-95051D01*
X-38595Y-94927D01*
X-38511Y-94774D01*
X-38428Y-94580D01*
X-38331Y-94358D01*
X-38248Y-94108D01*
X-38179Y-93831D01*
Y-93817D01*
X-38165Y-93789D01*
Y-93748D01*
X-38151Y-93692D01*
X-38123Y-93540D01*
X-38095Y-93346D01*
X-38068Y-93110D01*
X-38040Y-92832D01*
X-38012Y-92541D01*
Y-92236D01*
Y-92222D01*
Y-92194D01*
Y-92153D01*
Y-92084D01*
Y-92000D01*
X-38026Y-91917D01*
Y-91695D01*
X-38054Y-91446D01*
X-38082Y-91168D01*
X-38123Y-90891D01*
X-38179Y-90600D01*
Y-90586D01*
Y-90572D01*
X-38193Y-90530D01*
X-38206Y-90475D01*
X-38248Y-90336D01*
X-38303Y-90156D01*
X-38373Y-89948D01*
X-38456Y-89740D01*
X-38567Y-89504D01*
X-38692Y-89296D01*
X-38706Y-89268D01*
X-38761Y-89199D01*
X-38844Y-89102D01*
X-38941Y-88977D01*
X-39080Y-88838D01*
X-39246Y-88686D01*
X-39441Y-88547D01*
X-39662Y-88422D01*
X-39690Y-88408D01*
X-39773Y-88367D01*
X-39898Y-88325D01*
X-40079Y-88256D01*
X-40300Y-88200D01*
X-40550Y-88159D01*
X-40841Y-88117D01*
X-41160Y-88103D01*
D02*
G37*
%LPD*%
D10*
X87197Y-50989D02*
G03*
X87197Y-50989I-2693J0D01*
G01*
X74856Y-72306D02*
G03*
X74856Y-72306I-2693J0D01*
G01*
X83832Y-72306D02*
G03*
X83832Y-72306I-2693J0D01*
G01*
X58078Y-64453D02*
G03*
X58078Y-64453I-2693J0D01*
G01*
X83832Y-62209D02*
G03*
X83832Y-62209I-2693J0D01*
G01*
X-92868Y418050D02*
G03*
X-93766Y415882I2168J-2168D01*
G01*
X-91226Y414612D02*
G03*
X-92496Y417678I-4336J0D01*
G01*
X-89584Y412970D02*
G03*
X-87416Y412072I2168J2168D01*
G01*
X-74716Y409532D02*
G03*
X-75614Y411700I-3066J0D01*
G01*
X-109040Y371480D02*
G03*
X-108917Y371181I422J0D01*
G01*
X-109053Y371603D02*
G03*
X-110685Y375542I-5570J0D01*
G01*
D02*
G03*
X-110527Y375477I158J158D01*
G01*
X-107580Y375412D02*
G03*
X-107422Y375477I0J223D01*
G01*
D02*
G03*
X-109053Y371538I3939J-3939D01*
G01*
X-109190Y371116D02*
G03*
X-109067Y371414I-299J299D01*
G01*
X-110527Y402755D02*
G03*
X-110685Y402690I0J-223D01*
G01*
D02*
G03*
X-109053Y406629I-3939J3939D01*
G01*
X-108917Y407051D02*
G03*
X-109040Y406753I299J-299D01*
G01*
X-107422Y402690D02*
G03*
X-107580Y402755I-158J-158D01*
G01*
X-109053Y406629D02*
G03*
X-107422Y402690I5570J0D01*
G01*
X-109067Y406753D02*
G03*
X-109190Y407051I-422J0D01*
G01*
X-101318Y365038D02*
G03*
X-98452Y366225I0J4053D01*
G01*
X-98038Y366639D02*
G03*
X-97544Y367831I-1192J1192D01*
G01*
X-68483Y364489D02*
G03*
X-72186Y355549I8940J-8940D01*
G01*
X-67107Y365059D02*
G03*
X-68483Y364489I0J-1945D01*
G01*
X63861Y-77916D02*
X99763Y-77916D01*
X36934Y-74550D02*
X52641Y-64453D01*
X60495Y-50989D02*
X81812Y-50989D01*
X60495Y-57721D02*
X72836Y-57721D01*
X60495Y-57721D02*
X77324Y-57721D01*
X79568Y-59965D01*
X87422Y-50989D02*
X99763Y-50989D01*
X-33748Y-64453D02*
X-29260Y-68941D01*
X8886Y-64453D02*
X16739Y-64453D01*
X8886Y-64453D02*
X16739Y-64453D01*
X8886Y-71185D02*
X8886Y-64453D01*
X16739Y-74550D02*
Y-64453D01*
X26837Y-54355D01*
X16739Y-64453D02*
X16739Y-54355D01*
X22349Y-72306D02*
X24593Y-70062D01*
X22349Y-72306D02*
X26837Y-74550D01*
X24593Y-70062D02*
X26837Y-74550D01*
X16739Y-64453D02*
X26837Y-74550D01*
X26837Y-54355D02*
Y-49868D01*
X8885Y-57721D02*
X8886Y-64453D01*
X-6822D02*
X4398Y-64453D01*
X-24773Y-64453D02*
X-20285Y-59965D01*
X-15797Y-64453D01*
X-11309Y-68941D01*
X-6822Y-64453D01*
X4398Y-71185D02*
X4398Y-57721D01*
X26837Y-80160D02*
X26837Y-74550D01*
X-29260Y-68941D02*
X-24773Y-64453D01*
X-86480Y-80160D02*
X-84236Y-79038D01*
X-88724Y-79038D02*
X-86480Y-80160D01*
X-55065Y-49868D02*
X-55065Y-80160D01*
X-64041Y-80160D02*
X-55065Y-80160D01*
X-94333Y-64453D02*
X-90968Y-75672D01*
X-49456Y-49868D02*
X-49456Y-64453D01*
X-84236Y-79038D02*
X-83114Y-76794D01*
X-81992Y-72306D01*
X-80870Y-62209D01*
X-67407Y-80160D02*
X-67407Y-49868D01*
X-64041Y-49868D02*
X-64041Y-80160D01*
X-70773Y-49868D02*
X-70773Y-80160D01*
X-67407Y-80160D01*
X-90968Y-75672D02*
X-88724Y-79038D01*
X93031Y-68941D02*
X103129Y-68941D01*
X61617Y-75672D02*
X63861Y-77916D01*
X58251Y-75672D02*
X61617Y-75672D01*
X36934Y-74550D02*
X36934Y-55477D01*
X84056Y-72306D02*
X89666Y-72306D01*
X58251Y-64453D02*
X73958Y-64453D01*
X79568Y-70062D01*
X63861Y-70062D02*
X66105Y-72306D01*
X89666D02*
X93031Y-68941D01*
X58251Y-70062D02*
X63861Y-70062D01*
X66105Y-72306D02*
X69471Y-72306D01*
X32446Y-64453D02*
X36934Y-64453D01*
X32446Y-64453D02*
X32446Y-74550D01*
X84056Y-62209D02*
X88544Y-62209D01*
X91910Y-58843D01*
X100885Y-58843D01*
X26837Y-74550D02*
X32446Y-74550D01*
X-38236Y-59965D02*
X-33748Y-64453D01*
X-42724Y-64453D02*
X-38236Y-59965D01*
X-49456Y-64453D02*
X-42724Y-64453D01*
X36934Y-55477D02*
X52641Y-64453D01*
X-79748Y-49868D02*
X-70773D01*
X-67407Y-49868D02*
X-64041Y-49868D01*
X-55065Y-49868D02*
X-49456Y-49868D01*
X-108919Y-55477D02*
X-106675Y-52111D01*
X-97699Y-55477D02*
X-94333Y-64453D01*
X-112285Y-64453D02*
X-108919Y-55477D01*
X-99943Y-52111D02*
X-97699Y-55477D01*
X-80870Y-62209D02*
X-79748Y-49868D01*
X-106675Y-52111D02*
X-103309Y-49868D01*
X-99943Y-52111D01*
X-123780Y365065D02*
X-101385Y365038D01*
X-97576Y367186D02*
X-93766Y415882D01*
X-92868Y418050D02*
X-92496Y417678D01*
X-91226Y414612D02*
X-89584Y412970D01*
X-87416Y412072D02*
X-75986D01*
X-75614Y411700D01*
X-74716Y409532D02*
X-72176Y354922D01*
X-51400Y365064D02*
X-24291D01*
X-112876Y407190D02*
X-69443D01*
X-112357Y370646D02*
X-68923D01*
X-109040Y371480D02*
Y404468D01*
X-109053Y370909D02*
Y371603D01*
X-110527Y375477D02*
X-109053D01*
Y375412D02*
X-107580D01*
X-109053Y370843D02*
Y371538D01*
X-110527Y402755D02*
X-109053D01*
Y406629D02*
Y407324D01*
Y402755D02*
X-107580D01*
X-109053Y406629D02*
Y407324D01*
X-98452Y366225D02*
X-98038Y366639D01*
X-72186Y355042D02*
Y355549D01*
X-67107Y365059D02*
X-51107D01*
X-60733Y405457D02*
X-61138Y404243D01*
X-61947Y403434D01*
X-63161Y403029D01*
X-63566D01*
X-64780Y403434D01*
X-65589Y404243D01*
X-65994Y405457D01*
Y405862D01*
X-65589Y407076D01*
X-64780Y407885D01*
X-63566Y408290D01*
X-63161D01*
X-61947Y407885D01*
X-61138Y407076D01*
X-60733Y405457D01*
Y403434D01*
X-61138Y401410D01*
X-61947Y400196D01*
X-63161Y399791D01*
X-63970D01*
X-65185Y400196D01*
X-65589Y401006D01*
X-55998Y408290D02*
X-57213Y407885D01*
X-58022Y406671D01*
X-58426Y404648D01*
Y403434D01*
X-58022Y401410D01*
X-57213Y400196D01*
X-55998Y399791D01*
X-55189D01*
X-53975Y400196D01*
X-53166Y401410D01*
X-52761Y403434D01*
Y404648D01*
X-53166Y406671D01*
X-53975Y407885D01*
X-55189Y408290D01*
X-55998D01*
X-43575D02*
X-50859Y399791D01*
X-48836Y408290D02*
X-48026Y407480D01*
Y406671D01*
X-48431Y405862D01*
X-49240Y405457D01*
X-50050D01*
X-50859Y406266D01*
Y407076D01*
X-50454Y407885D01*
X-49645Y408290D01*
X-48836D01*
X-48026Y407885D01*
X-46812Y407480D01*
X-45598D01*
X-44384Y407885D01*
X-43575Y408290D01*
X-45194Y402624D02*
X-46003Y402220D01*
X-46408Y401410D01*
Y400601D01*
X-45598Y399791D01*
X-44789D01*
X-43980Y400196D01*
X-43575Y401006D01*
Y401815D01*
X-44384Y402624D01*
X-45194D01*
X-65322Y377525D02*
X-64513Y377930D01*
X-63299Y379144D01*
Y370646D01*
X-56662Y379144D02*
X-57876Y378739D01*
X-58685Y377525D01*
X-59090Y375502D01*
Y374288D01*
X-58685Y372264D01*
X-57876Y371050D01*
X-56662Y370646D01*
X-55853D01*
X-54639Y371050D01*
X-53829Y372264D01*
X-53425Y374288D01*
Y375502D01*
X-53829Y377525D01*
X-54639Y378739D01*
X-55853Y379144D01*
X-56662D01*
X-44239D02*
X-51523Y370646D01*
X-49499Y379144D02*
X-48690Y378335D01*
Y377525D01*
X-49095Y376716D01*
X-49904Y376311D01*
X-50713D01*
X-51523Y377121D01*
Y377930D01*
X-51118Y378739D01*
X-50309Y379144D01*
X-49499D01*
X-48690Y378739D01*
X-47476Y378335D01*
X-46262D01*
X-45048Y378739D01*
X-44239Y379144D01*
X-45857Y373479D02*
X-46667Y373074D01*
X-47071Y372264D01*
Y371455D01*
X-46262Y370646D01*
X-45453D01*
X-44643Y371050D01*
X-44239Y371860D01*
Y372669D01*
X-45048Y373479D01*
X-45857D01*
X-126514Y400498D02*
Y393619D01*
X-126109Y392405D01*
X-125300Y392000D01*
X-124490D01*
X-127728Y397665D02*
X-124895D01*
X-121478Y394165D02*
Y388500D01*
Y391737D02*
X-121073Y392951D01*
X-120264Y393761D01*
X-119454Y394165D01*
X-118240D01*
M02*
