G04*
G04 #@! TF.GenerationSoftware,Altium Limited,Altium Designer,25.5.2 (35)*
G04*
G04 Layer_Physical_Order=2*
G04 Layer_Color=16711680*
%FSLAX44Y44*%
%MOMM*%
G71*
G04*
G04 #@! TF.SameCoordinates,66BBEA7A-A7EC-4E5F-A3F4-4FDE4E21C8D0*
G04*
G04*
G04 #@! TF.FilePolarity,Positive*
G04*
G01*
G75*
%ADD16C,5.0000*%
G36*
X178459Y108814D02*
X183638Y107571D01*
X188558Y105533D01*
X193099Y102751D01*
X197148Y99292D01*
X200607Y95243D01*
X203389Y90702D01*
X205427Y85782D01*
X206670Y80604D01*
X207079Y75411D01*
X207056Y75294D01*
Y-75369D01*
X207079Y-75484D01*
X206671Y-80668D01*
X205430Y-85836D01*
X203396Y-90747D01*
X200618Y-95280D01*
X197166Y-99322D01*
X193124Y-102774D01*
X188592Y-105551D01*
X183681Y-107585D01*
X178512Y-108826D01*
X173329Y-109234D01*
X173213Y-109211D01*
X-173150D01*
X-173265Y-109234D01*
X-178449Y-108826D01*
X-183617Y-107585D01*
X-188528Y-105551D01*
X-193061Y-102774D01*
X-197103Y-99322D01*
X-200555Y-95280D01*
X-203332Y-90747D01*
X-205366Y-85836D01*
X-206607Y-80668D01*
X-207015Y-75484D01*
X-206992Y-75369D01*
Y75294D01*
X-207015Y75411D01*
X-206607Y80604D01*
X-205364Y85782D01*
X-203326Y90702D01*
X-200543Y95243D01*
X-197085Y99292D01*
X-193035Y102751D01*
X-188494Y105533D01*
X-183574Y107571D01*
X-178396Y108814D01*
X-173203Y109223D01*
X-173087Y109200D01*
X173151D01*
X173267Y109223D01*
X178459Y108814D01*
D02*
G37*
%LPC*%
G36*
X31451Y9723D02*
Y9689D01*
X-31430D01*
X-31449Y9708D01*
X-31449Y9723D01*
X-33005Y9684D01*
X-33185Y9648D01*
X-33511Y9634D01*
X-33932Y9550D01*
X-34651Y9407D01*
X-35045Y9369D01*
X-35422Y9254D01*
X-36563Y9027D01*
X-36799Y8929D01*
X-37049Y8880D01*
X-38124Y8435D01*
X-38502Y8320D01*
X-38850Y8134D01*
X-39924Y7689D01*
X-40137Y7547D01*
X-40372Y7449D01*
X-41339Y6803D01*
X-41688Y6617D01*
X-41993Y6366D01*
X-42960Y5720D01*
X-43140Y5540D01*
X-43352Y5398D01*
X-44175Y4576D01*
X-44480Y4325D01*
X-44731Y4020D01*
X-45553Y3197D01*
X-45695Y2985D01*
X-45875Y2805D01*
X-46521Y1838D01*
X-46772Y1532D01*
X-46958Y1184D01*
X-47604Y217D01*
X-47702Y-19D01*
X-47844Y-231D01*
X-48289Y-1305D01*
X-48475Y-1654D01*
X-48590Y-2032D01*
X-49035Y-3106D01*
X-49085Y-3356D01*
X-49182Y-3592D01*
X-49409Y-4733D01*
X-49524Y-5111D01*
X-49562Y-5504D01*
X-49706Y-6223D01*
X-49789Y-6644D01*
X-49803Y-6970D01*
X-49839Y-7150D01*
X-49878Y-8706D01*
X-49844D01*
Y-13706D01*
X-49878Y-13706D01*
X-49839Y-15262D01*
X-49803Y-15441D01*
X-49789Y-15767D01*
X-49706Y-16189D01*
X-49562Y-16908D01*
X-49524Y-17301D01*
X-49409Y-17679D01*
X-49182Y-18820D01*
X-49085Y-19055D01*
X-49035Y-19306D01*
X-48590Y-20380D01*
X-48475Y-20758D01*
X-48289Y-21106D01*
X-47844Y-22181D01*
X-47702Y-22393D01*
X-47604Y-22629D01*
X-46958Y-23596D01*
X-46772Y-23944D01*
X-46521Y-24249D01*
X-45875Y-25217D01*
X-45695Y-25397D01*
X-45553Y-25609D01*
X-44731Y-26432D01*
X-44480Y-26737D01*
X-44175Y-26987D01*
X-43352Y-27810D01*
X-43140Y-27952D01*
X-42960Y-28132D01*
X-41993Y-28778D01*
X-41688Y-29029D01*
X-41339Y-29215D01*
X-40372Y-29861D01*
X-40136Y-29959D01*
X-39924Y-30100D01*
X-38850Y-30545D01*
X-38502Y-30731D01*
X-38124Y-30846D01*
X-37049Y-31291D01*
X-36799Y-31341D01*
X-36563Y-31439D01*
X-35422Y-31666D01*
X-35045Y-31780D01*
X-34651Y-31819D01*
X-33932Y-31962D01*
X-33511Y-32046D01*
X-33185Y-32060D01*
X-33005Y-32096D01*
X-31449Y-32134D01*
Y-32100D01*
X31451D01*
X31451Y-32134D01*
X33007Y-32096D01*
X33187Y-32060D01*
X33512Y-32046D01*
X33933Y-31962D01*
X34654Y-31819D01*
X35046Y-31780D01*
X35423Y-31666D01*
X36565Y-31439D01*
X36800Y-31341D01*
X37050Y-31291D01*
X38126Y-30846D01*
X38503Y-30731D01*
X38851Y-30546D01*
X39926Y-30100D01*
X40138Y-29959D01*
X40374Y-29861D01*
X41341Y-29214D01*
X41689Y-29029D01*
X41994Y-28779D01*
X42962Y-28132D01*
X43142Y-27952D01*
X43354Y-27810D01*
X44177Y-26987D01*
X44482Y-26737D01*
X44732Y-26432D01*
X45555Y-25609D01*
X45696Y-25397D01*
X45877Y-25217D01*
X46523Y-24249D01*
X46774Y-23944D01*
X46959Y-23596D01*
X47606Y-22629D01*
X47703Y-22393D01*
X47845Y-22181D01*
X48291Y-21106D01*
X48476Y-20758D01*
X48591Y-20381D01*
X49036Y-19306D01*
X49086Y-19056D01*
X49184Y-18820D01*
X49411Y-17679D01*
X49525Y-17301D01*
X49564Y-16909D01*
X49707Y-16189D01*
X49791Y-15767D01*
X49805Y-15442D01*
X49841Y-15262D01*
X49879Y-13706D01*
X49845D01*
Y-8706D01*
X49879Y-8706D01*
X49841Y-7150D01*
X49805Y-6970D01*
X49791Y-6644D01*
X49707Y-6223D01*
X49564Y-5504D01*
X49525Y-5111D01*
X49411Y-4733D01*
X49184Y-3592D01*
X49086Y-3356D01*
X49036Y-3106D01*
X48591Y-2031D01*
X48476Y-1654D01*
X48290Y-1305D01*
X47845Y-231D01*
X47703Y-19D01*
X47606Y217D01*
X46960Y1184D01*
X46774Y1532D01*
X46523Y1838D01*
X45877Y2805D01*
X45696Y2985D01*
X45555Y3197D01*
X44732Y4020D01*
X44482Y4325D01*
X44177Y4575D01*
X43354Y5398D01*
X43142Y5540D01*
X42961Y5720D01*
X41994Y6367D01*
X41689Y6617D01*
X41341Y6803D01*
X40374Y7449D01*
X40138Y7547D01*
X39926Y7689D01*
X38851Y8134D01*
X38503Y8320D01*
X38126Y8434D01*
X37050Y8880D01*
X36800Y8929D01*
X36565Y9027D01*
X35423Y9254D01*
X35046Y9369D01*
X34653Y9407D01*
X33933Y9550D01*
X33512Y9634D01*
X33187Y9648D01*
X33007Y9684D01*
X31451Y9723D01*
D02*
G37*
G36*
X-94385Y18040D02*
X-97939D01*
X-101424Y17347D01*
X-104707Y15987D01*
X-107662Y14013D01*
X-110175Y11500D01*
X-112149Y8545D01*
X-113509Y5262D01*
X-114202Y1777D01*
Y-1777D01*
X-113509Y-5262D01*
X-112149Y-8545D01*
X-110175Y-11500D01*
X-107662Y-14013D01*
X-104707Y-15987D01*
X-101424Y-17347D01*
X-97939Y-18040D01*
X-94385D01*
X-90900Y-17347D01*
X-87617Y-15987D01*
X-84662Y-14013D01*
X-82150Y-11500D01*
X-80175Y-8545D01*
X-78815Y-5262D01*
X-78122Y-1777D01*
Y1777D01*
X-78815Y5262D01*
X-80175Y8545D01*
X-82150Y11500D01*
X-84662Y14013D01*
X-87617Y15987D01*
X-90900Y17347D01*
X-94385Y18040D01*
D02*
G37*
%LPD*%
D16*
X-178000Y0D02*
D03*
X178000Y1D02*
D03*
M02*
