G04*
G04 #@! TF.GenerationSoftware,Altium Limited,Altium Designer,25.8.1 (18)*
G04*
G04 Layer_Color=65535*
%FSLAX44Y44*%
%MOMM*%
G71*
G04*
G04 #@! TF.SameCoordinates,CBDA9013-9A08-43B3-8155-AE18D80FC854*
G04*
G04*
G04 #@! TF.FilePolarity,Positive*
G04*
G01*
G75*
%ADD10C,0.4000*%
%ADD11C,0.2000*%
G36*
X88758Y-77750D02*
X89306D01*
X90320Y-78170D01*
X91096Y-78946D01*
X91516Y-79959D01*
Y-80508D01*
Y-81056D01*
X91096Y-82070D01*
X90320Y-82846D01*
X89306Y-83266D01*
X88758D01*
X88758Y-83266D01*
X83242Y-83266D01*
X82694D01*
X81680Y-82846D01*
X80904Y-82070D01*
X80484Y-81056D01*
Y-80508D01*
Y-79959D01*
X80904Y-78946D01*
X81680Y-78170D01*
X82694Y-77750D01*
X83242D01*
X83242Y-77750D01*
X88758Y-77750D01*
D02*
G37*
G36*
Y-70250D02*
X89306D01*
X90320Y-70670D01*
X91096Y-71446D01*
X91516Y-72459D01*
Y-73008D01*
Y-73556D01*
X91096Y-74570D01*
X90320Y-75346D01*
X89306Y-75766D01*
X88758D01*
X88758Y-75766D01*
X83242Y-75766D01*
X82694D01*
X81680Y-75346D01*
X80904Y-74570D01*
X80484Y-73556D01*
Y-73008D01*
Y-72459D01*
X80904Y-71446D01*
X81680Y-70670D01*
X82694Y-70250D01*
X83242D01*
X83242Y-70250D01*
X88758Y-70250D01*
D02*
G37*
G36*
X88758Y-62234D02*
X89306D01*
X90320Y-62654D01*
X91096Y-63430D01*
X91516Y-64444D01*
Y-64992D01*
Y-65541D01*
X91096Y-66554D01*
X90320Y-67330D01*
X89306Y-67750D01*
X88758D01*
X88758Y-67750D01*
X83242Y-67750D01*
X82694D01*
X81680Y-67330D01*
X80904Y-66554D01*
X80484Y-65541D01*
Y-64992D01*
Y-64444D01*
X80904Y-63430D01*
X81680Y-62654D01*
X82694Y-62234D01*
X83242D01*
X83242Y-62234D01*
X88758Y-62234D01*
D02*
G37*
G36*
X88500Y-54735D02*
X89049D01*
X90062Y-55154D01*
X90838Y-55930D01*
X91258Y-56944D01*
Y-57492D01*
Y-58041D01*
X90838Y-59054D01*
X90062Y-59830D01*
X89049Y-60250D01*
X88500D01*
X88500Y-60250D01*
X82984Y-60250D01*
X82436D01*
X81422Y-59830D01*
X80646Y-59055D01*
X80226Y-58041D01*
Y-57492D01*
Y-56944D01*
X80646Y-55930D01*
X81422Y-55154D01*
X82436Y-54735D01*
X82984D01*
X82984Y-54734D01*
X88500Y-54735D01*
D02*
G37*
G36*
X89806Y-3244D02*
X90014Y-3265D01*
X90243Y-3286D01*
X90743Y-3369D01*
X90785D01*
X90868Y-3390D01*
X90993Y-3432D01*
X91159Y-3474D01*
X91347Y-3515D01*
X91555Y-3578D01*
X91972Y-3724D01*
X91993D01*
X92076Y-3765D01*
X92180Y-3807D01*
X92305Y-3848D01*
X92472Y-3932D01*
X92638Y-3994D01*
X92992Y-4202D01*
X93013Y-4223D01*
X93076Y-4244D01*
X93138Y-4307D01*
X93242Y-4369D01*
X93450Y-4515D01*
X93534Y-4577D01*
X93617Y-4661D01*
X93638Y-4682D01*
X93721Y-4765D01*
X93784Y-4848D01*
X93846Y-4931D01*
X93867Y-4952D01*
X93888Y-4994D01*
X93909Y-5056D01*
X93930Y-5140D01*
Y-5161D01*
X93950Y-5202D01*
X93971Y-5286D01*
X93992Y-5390D01*
Y-5411D01*
X94013Y-5473D01*
Y-5556D01*
Y-5640D01*
Y-5660D01*
Y-5744D01*
X93992Y-5869D01*
X93971Y-5994D01*
Y-6015D01*
X93950Y-6077D01*
X93930Y-6181D01*
X93888Y-6285D01*
Y-6306D01*
X93846Y-6348D01*
X93805Y-6431D01*
X93721Y-6494D01*
X93701Y-6514D01*
X93638Y-6535D01*
X93555Y-6556D01*
X93430Y-6577D01*
X93388D01*
X93263Y-6535D01*
X93076Y-6473D01*
X92971Y-6410D01*
X92846Y-6327D01*
X92826Y-6306D01*
X92784Y-6285D01*
X92722Y-6223D01*
X92638Y-6160D01*
X92513Y-6077D01*
X92388Y-5994D01*
X92055Y-5785D01*
X92034Y-5765D01*
X91972Y-5744D01*
X91868Y-5681D01*
X91722Y-5619D01*
X91555Y-5536D01*
X91368Y-5452D01*
X91139Y-5348D01*
X90889Y-5265D01*
X90868Y-5244D01*
X90764Y-5223D01*
X90639Y-5181D01*
X90451Y-5140D01*
X90201Y-5098D01*
X89931Y-5056D01*
X89639Y-5015D01*
X89139D01*
X88931Y-5036D01*
X88681Y-5056D01*
X88410Y-5119D01*
X88077Y-5181D01*
X87765Y-5286D01*
X87431Y-5431D01*
X87390Y-5452D01*
X87285Y-5515D01*
X87140Y-5598D01*
X86931Y-5723D01*
X86723Y-5890D01*
X86473Y-6098D01*
X86223Y-6348D01*
X85994Y-6619D01*
X85973Y-6660D01*
X85890Y-6764D01*
X85786Y-6931D01*
X85640Y-7160D01*
X85494Y-7452D01*
X85328Y-7785D01*
X85182Y-8181D01*
X85036Y-8597D01*
Y-8618D01*
X85015Y-8660D01*
Y-8722D01*
X84994Y-8806D01*
X84953Y-8910D01*
X84932Y-9056D01*
X84869Y-9389D01*
X84807Y-9784D01*
X84765Y-10243D01*
X84724Y-10763D01*
X84703Y-11326D01*
Y-11346D01*
Y-11388D01*
Y-11472D01*
Y-11576D01*
Y-11701D01*
X84724Y-11867D01*
X84744Y-12221D01*
X84786Y-12638D01*
X84828Y-13075D01*
X84911Y-13534D01*
X85015Y-13971D01*
Y-13992D01*
X85036Y-14013D01*
X85057Y-14075D01*
X85078Y-14158D01*
X85140Y-14367D01*
X85244Y-14637D01*
X85369Y-14929D01*
X85536Y-15241D01*
X85702Y-15554D01*
X85911Y-15866D01*
X85932Y-15908D01*
X86015Y-15991D01*
X86140Y-16116D01*
X86327Y-16283D01*
X86536Y-16470D01*
X86786Y-16658D01*
X87056Y-16845D01*
X87369Y-17012D01*
X87410Y-17033D01*
X87515Y-17074D01*
X87702Y-17137D01*
X87952Y-17199D01*
X88244Y-17283D01*
X88577Y-17345D01*
X88952Y-17387D01*
X89347Y-17407D01*
X89493D01*
X89681Y-17387D01*
X89889D01*
X90139Y-17366D01*
X90410Y-17324D01*
X90680Y-17262D01*
X90930Y-17199D01*
X90951Y-17178D01*
X91034Y-17157D01*
X91159Y-17116D01*
X91326Y-17053D01*
X91514Y-16970D01*
X91701Y-16887D01*
X92076Y-16679D01*
X92097Y-16658D01*
X92159Y-16637D01*
X92263Y-16574D01*
X92367Y-16491D01*
X92638Y-16324D01*
X92930Y-16116D01*
X92951Y-16095D01*
X92992Y-16075D01*
X93055Y-16033D01*
X93138Y-15970D01*
X93346Y-15887D01*
X93450Y-15866D01*
X93555Y-15845D01*
X93638D01*
X93721Y-15887D01*
X93805Y-15929D01*
X93825Y-15949D01*
X93867Y-15970D01*
X93930Y-16033D01*
X93971Y-16137D01*
X93992Y-16158D01*
X94013Y-16220D01*
X94034Y-16304D01*
X94054Y-16408D01*
Y-16429D01*
X94075Y-16512D01*
Y-16616D01*
Y-16741D01*
Y-16762D01*
Y-16824D01*
Y-16908D01*
X94054Y-17012D01*
Y-17033D01*
X94034Y-17095D01*
X94013Y-17178D01*
X93992Y-17262D01*
Y-17283D01*
X93971Y-17324D01*
X93909Y-17470D01*
Y-17491D01*
X93867Y-17533D01*
X93805Y-17595D01*
X93721Y-17699D01*
X93701Y-17720D01*
X93617Y-17803D01*
X93534Y-17845D01*
X93450Y-17928D01*
X93346Y-17991D01*
X93201Y-18095D01*
X93180Y-18116D01*
X93138Y-18137D01*
X93034Y-18178D01*
X92930Y-18261D01*
X92784Y-18324D01*
X92617Y-18428D01*
X92409Y-18511D01*
X92201Y-18615D01*
X92180Y-18636D01*
X92097Y-18657D01*
X91972Y-18699D01*
X91805Y-18761D01*
X91618Y-18824D01*
X91389Y-18907D01*
X91118Y-18970D01*
X90847Y-19053D01*
X90805D01*
X90722Y-19074D01*
X90555Y-19095D01*
X90347Y-19136D01*
X90097Y-19157D01*
X89826Y-19199D01*
X89493Y-19219D01*
X88910D01*
X88785Y-19199D01*
X88618D01*
X88264Y-19157D01*
X87848Y-19095D01*
X87390Y-19011D01*
X86931Y-18886D01*
X86452Y-18720D01*
X86432D01*
X86390Y-18699D01*
X86327Y-18657D01*
X86244Y-18615D01*
X86036Y-18511D01*
X85744Y-18324D01*
X85411Y-18116D01*
X85078Y-17866D01*
X84724Y-17553D01*
X84390Y-17199D01*
Y-17178D01*
X84349Y-17157D01*
X84307Y-17095D01*
X84245Y-17012D01*
X84099Y-16803D01*
X83911Y-16512D01*
X83703Y-16158D01*
X83474Y-15741D01*
X83266Y-15262D01*
X83078Y-14741D01*
Y-14721D01*
X83057Y-14679D01*
X83036Y-14596D01*
X83016Y-14492D01*
X82974Y-14346D01*
X82932Y-14179D01*
X82891Y-13992D01*
X82870Y-13783D01*
X82828Y-13554D01*
X82787Y-13283D01*
X82703Y-12721D01*
X82662Y-12096D01*
X82641Y-11430D01*
Y-11409D01*
Y-11346D01*
Y-11242D01*
Y-11117D01*
X82662Y-10951D01*
Y-10742D01*
X82683Y-10534D01*
X82703Y-10284D01*
X82766Y-9764D01*
X82849Y-9201D01*
X82953Y-8618D01*
X83120Y-8035D01*
Y-8014D01*
X83141Y-7972D01*
X83161Y-7889D01*
X83203Y-7785D01*
X83266Y-7639D01*
X83328Y-7493D01*
X83474Y-7139D01*
X83661Y-6744D01*
X83890Y-6306D01*
X84161Y-5869D01*
X84474Y-5452D01*
X84494Y-5431D01*
X84515Y-5411D01*
X84640Y-5265D01*
X84828Y-5077D01*
X85078Y-4848D01*
X85390Y-4577D01*
X85765Y-4307D01*
X86161Y-4036D01*
X86619Y-3807D01*
X86640D01*
X86681Y-3786D01*
X86744Y-3744D01*
X86848Y-3724D01*
X86952Y-3661D01*
X87098Y-3619D01*
X87431Y-3515D01*
X87848Y-3411D01*
X88306Y-3307D01*
X88827Y-3244D01*
X89368Y-3224D01*
X89618D01*
X89806Y-3244D01*
D02*
G37*
G36*
X124734Y-3328D02*
X124901Y-3349D01*
X124943D01*
X125026Y-3369D01*
X125130Y-3411D01*
X125234Y-3494D01*
X125255Y-3515D01*
X125296Y-3578D01*
X125359Y-3682D01*
Y-3807D01*
Y-3828D01*
Y-3911D01*
X125338Y-4036D01*
X125296Y-4161D01*
X120069Y-18657D01*
X120048Y-18678D01*
X120027Y-18741D01*
X119902Y-18907D01*
X119881Y-18928D01*
X119840Y-18970D01*
X119756Y-19011D01*
X119652Y-19053D01*
X119631D01*
X119548Y-19074D01*
X119444Y-19095D01*
X119319Y-19115D01*
X119215D01*
X119090Y-19136D01*
X118757D01*
X118652Y-19115D01*
X118486D01*
X118403Y-19095D01*
X118382D01*
X118340Y-19074D01*
X118194Y-19053D01*
X118173D01*
X118132Y-19032D01*
X118007Y-18970D01*
X117986Y-18949D01*
X117965Y-18928D01*
X117861Y-18845D01*
Y-18824D01*
X117819Y-18803D01*
X117778Y-18699D01*
X112550Y-4161D01*
Y-4119D01*
X112529Y-4036D01*
X112508Y-3932D01*
X112487Y-3786D01*
Y-3744D01*
X112508Y-3661D01*
X112550Y-3557D01*
X112633Y-3474D01*
X112654Y-3453D01*
X112737Y-3411D01*
X112862Y-3369D01*
X113008Y-3349D01*
X113050D01*
X113154Y-3328D01*
X113320Y-3307D01*
X113654D01*
X113779Y-3328D01*
X113904Y-3349D01*
X113945D01*
X114008Y-3369D01*
X114112Y-3390D01*
X114195Y-3432D01*
X114216D01*
X114258Y-3474D01*
X114320Y-3515D01*
X114383Y-3578D01*
X114403Y-3598D01*
X114424Y-3640D01*
X114487Y-3703D01*
X114529Y-3807D01*
X118994Y-16501D01*
X123339Y-3786D01*
Y-3765D01*
X123359Y-3724D01*
X123443Y-3598D01*
X123464Y-3578D01*
X123484Y-3536D01*
X123568Y-3474D01*
X123651Y-3432D01*
X123672Y-3411D01*
X123755Y-3390D01*
X123859Y-3369D01*
X123984Y-3349D01*
X124026D01*
X124109Y-3328D01*
X124255Y-3307D01*
X124588D01*
X124734Y-3328D01*
D02*
G37*
G36*
X109446Y-3411D02*
X109551Y-3453D01*
X109571Y-3474D01*
X109634Y-3494D01*
X109717Y-3557D01*
X109780Y-3640D01*
X109801Y-3661D01*
X109842Y-3724D01*
X109884Y-3807D01*
X109925Y-3932D01*
Y-3953D01*
X109946Y-4015D01*
X109967Y-4119D01*
Y-4244D01*
Y-4265D01*
Y-4307D01*
Y-4369D01*
X109946Y-4453D01*
X109905Y-4661D01*
X109801Y-4869D01*
Y-4890D01*
X109780Y-4911D01*
X109676Y-4994D01*
X109509Y-5098D01*
X109405Y-5119D01*
X109280Y-5140D01*
X103719D01*
Y-9472D01*
X103781D01*
X103844Y-9451D01*
X104031D01*
X104177Y-9430D01*
X104531D01*
X104677Y-9409D01*
X105718D01*
X105864Y-9430D01*
X106176Y-9451D01*
X106551Y-9493D01*
X106968Y-9555D01*
X107385Y-9639D01*
X107780Y-9764D01*
X107801D01*
X107822Y-9784D01*
X107947Y-9826D01*
X108155Y-9909D01*
X108384Y-10014D01*
X108655Y-10138D01*
X108947Y-10305D01*
X109238Y-10493D01*
X109509Y-10722D01*
X109551Y-10742D01*
X109634Y-10826D01*
X109759Y-10951D01*
X109905Y-11138D01*
X110071Y-11346D01*
X110238Y-11596D01*
X110405Y-11867D01*
X110550Y-12180D01*
X110571Y-12221D01*
X110613Y-12326D01*
X110654Y-12492D01*
X110738Y-12721D01*
X110800Y-12992D01*
X110842Y-13304D01*
X110884Y-13638D01*
X110904Y-13992D01*
Y-14013D01*
Y-14054D01*
Y-14117D01*
Y-14200D01*
X110884Y-14429D01*
X110842Y-14741D01*
X110800Y-15096D01*
X110717Y-15470D01*
X110613Y-15866D01*
X110467Y-16241D01*
Y-16262D01*
X110446Y-16283D01*
X110384Y-16408D01*
X110300Y-16595D01*
X110155Y-16824D01*
X109988Y-17074D01*
X109801Y-17366D01*
X109551Y-17637D01*
X109280Y-17907D01*
X109238Y-17928D01*
X109134Y-18011D01*
X108988Y-18137D01*
X108759Y-18303D01*
X108488Y-18470D01*
X108176Y-18636D01*
X107822Y-18803D01*
X107447Y-18949D01*
X107426D01*
X107405Y-18970D01*
X107343D01*
X107260Y-18990D01*
X107051Y-19053D01*
X106760Y-19115D01*
X106426Y-19178D01*
X106031Y-19219D01*
X105593Y-19261D01*
X105135Y-19282D01*
X104864D01*
X104677Y-19261D01*
X104468D01*
X104239Y-19240D01*
X103740Y-19178D01*
X103719D01*
X103635Y-19157D01*
X103511Y-19136D01*
X103365Y-19115D01*
X103177Y-19074D01*
X102990Y-19032D01*
X102594Y-18928D01*
X102573D01*
X102511Y-18907D01*
X102427Y-18865D01*
X102302Y-18824D01*
X102032Y-18720D01*
X101740Y-18595D01*
X101719D01*
X101678Y-18574D01*
X101553Y-18491D01*
X101407Y-18407D01*
X101282Y-18324D01*
X101261Y-18303D01*
X101219Y-18261D01*
X101178Y-18199D01*
X101136Y-18137D01*
Y-18116D01*
X101115Y-18074D01*
X101053Y-17970D01*
Y-17949D01*
X101032Y-17907D01*
Y-17824D01*
X101011Y-17741D01*
Y-17720D01*
Y-17657D01*
Y-17553D01*
Y-17428D01*
Y-17407D01*
Y-17324D01*
Y-17241D01*
Y-17137D01*
Y-17116D01*
X101032Y-17053D01*
X101053Y-16970D01*
X101094Y-16866D01*
X101115Y-16845D01*
X101136Y-16783D01*
X101199Y-16720D01*
X101282Y-16658D01*
X101303Y-16637D01*
X101365Y-16616D01*
X101448Y-16595D01*
X101553Y-16574D01*
X101594D01*
X101678Y-16595D01*
X101823Y-16637D01*
X102011Y-16741D01*
X102032D01*
X102052Y-16762D01*
X102115Y-16803D01*
X102198Y-16845D01*
X102407Y-16970D01*
X102698Y-17095D01*
X102719D01*
X102781Y-17116D01*
X102865Y-17157D01*
X102990Y-17199D01*
X103136Y-17241D01*
X103323Y-17303D01*
X103531Y-17345D01*
X103740Y-17407D01*
X103760D01*
X103844Y-17428D01*
X103989Y-17449D01*
X104156Y-17470D01*
X104385Y-17512D01*
X104635Y-17533D01*
X104906Y-17553D01*
X105343D01*
X105510Y-17533D01*
X105697D01*
X105927Y-17512D01*
X106176Y-17470D01*
X106676Y-17366D01*
X106697D01*
X106801Y-17324D01*
X106926Y-17283D01*
X107072Y-17220D01*
X107260Y-17137D01*
X107468Y-17033D01*
X107843Y-16783D01*
X107864Y-16762D01*
X107926Y-16699D01*
X108009Y-16616D01*
X108134Y-16491D01*
X108259Y-16345D01*
X108384Y-16158D01*
X108509Y-15949D01*
X108613Y-15720D01*
X108634Y-15700D01*
X108655Y-15595D01*
X108697Y-15470D01*
X108759Y-15283D01*
X108822Y-15054D01*
X108863Y-14783D01*
X108884Y-14471D01*
X108905Y-14138D01*
Y-14096D01*
Y-14013D01*
X108884Y-13867D01*
Y-13679D01*
X108842Y-13471D01*
X108801Y-13242D01*
X108738Y-13013D01*
X108655Y-12804D01*
Y-12784D01*
X108613Y-12700D01*
X108551Y-12596D01*
X108488Y-12471D01*
X108384Y-12326D01*
X108259Y-12180D01*
X108113Y-12013D01*
X107947Y-11867D01*
X107926Y-11846D01*
X107864Y-11805D01*
X107759Y-11742D01*
X107614Y-11659D01*
X107426Y-11555D01*
X107218Y-11472D01*
X106968Y-11388D01*
X106676Y-11305D01*
X106635D01*
X106531Y-11263D01*
X106385Y-11242D01*
X106156Y-11201D01*
X105906Y-11159D01*
X105593Y-11138D01*
X105260Y-11097D01*
X104468D01*
X104281Y-11117D01*
X104073Y-11138D01*
X103677Y-11180D01*
X103656D01*
X103594Y-11201D01*
X103490D01*
X103365Y-11222D01*
X103219Y-11242D01*
X103073D01*
X102719Y-11263D01*
X102656D01*
X102573Y-11242D01*
X102490D01*
X102282Y-11180D01*
X102094Y-11055D01*
Y-11034D01*
X102052Y-11013D01*
X102032Y-10951D01*
X101990Y-10868D01*
X101948Y-10763D01*
X101927Y-10638D01*
X101886Y-10472D01*
Y-10284D01*
Y-4307D01*
Y-4286D01*
Y-4244D01*
X101907Y-4161D01*
X101927Y-4057D01*
X101990Y-3848D01*
X102052Y-3744D01*
X102136Y-3640D01*
X102157Y-3619D01*
X102177Y-3598D01*
X102240Y-3557D01*
X102323Y-3494D01*
X102531Y-3411D01*
X102656Y-3390D01*
X102802Y-3369D01*
X109363D01*
X109446Y-3411D01*
D02*
G37*
G36*
X73581Y-3390D02*
X73789D01*
X73997Y-3411D01*
X74247Y-3432D01*
X74768Y-3515D01*
X75330Y-3598D01*
X75893Y-3744D01*
X76434Y-3932D01*
X76455D01*
X76497Y-3953D01*
X76580Y-3994D01*
X76663Y-4036D01*
X76788Y-4078D01*
X76934Y-4161D01*
X77246Y-4327D01*
X77621Y-4557D01*
X78017Y-4827D01*
X78392Y-5140D01*
X78767Y-5494D01*
X78788Y-5515D01*
X78808Y-5536D01*
X78850Y-5598D01*
X78913Y-5681D01*
X79079Y-5890D01*
X79288Y-6160D01*
X79517Y-6514D01*
X79767Y-6931D01*
X79996Y-7389D01*
X80183Y-7910D01*
Y-7931D01*
X80204Y-7972D01*
X80225Y-8056D01*
X80266Y-8160D01*
X80287Y-8285D01*
X80329Y-8431D01*
X80371Y-8618D01*
X80433Y-8826D01*
X80516Y-9285D01*
X80579Y-9805D01*
X80641Y-10368D01*
X80662Y-10992D01*
Y-11013D01*
Y-11076D01*
Y-11180D01*
Y-11326D01*
X80641Y-11492D01*
Y-11701D01*
X80620Y-11909D01*
X80600Y-12159D01*
X80537Y-12700D01*
X80454Y-13283D01*
X80329Y-13888D01*
X80162Y-14471D01*
Y-14492D01*
X80141Y-14533D01*
X80121Y-14617D01*
X80079Y-14721D01*
X80016Y-14846D01*
X79954Y-15012D01*
X79787Y-15366D01*
X79579Y-15762D01*
X79329Y-16179D01*
X79017Y-16616D01*
X78663Y-17012D01*
X78642Y-17033D01*
X78621Y-17053D01*
X78559Y-17116D01*
X78496Y-17178D01*
X78288Y-17366D01*
X77996Y-17595D01*
X77642Y-17845D01*
X77246Y-18095D01*
X76767Y-18345D01*
X76267Y-18553D01*
X76247D01*
X76205Y-18574D01*
X76122Y-18595D01*
X76017Y-18636D01*
X75872Y-18678D01*
X75726Y-18720D01*
X75518Y-18761D01*
X75309Y-18803D01*
X75080Y-18865D01*
X74809Y-18907D01*
X74247Y-18990D01*
X73581Y-19053D01*
X72873Y-19074D01*
X69832D01*
X69769Y-19053D01*
X69686D01*
X69498Y-18990D01*
X69269Y-18865D01*
X69248Y-18845D01*
X69228Y-18824D01*
X69186Y-18761D01*
X69123Y-18699D01*
X69061Y-18595D01*
X69019Y-18449D01*
X68998Y-18282D01*
X68978Y-18095D01*
Y-4348D01*
Y-4327D01*
Y-4265D01*
X68998Y-4161D01*
X69019Y-4057D01*
X69103Y-3807D01*
X69165Y-3682D01*
X69269Y-3598D01*
X69290Y-3578D01*
X69332Y-3557D01*
X69394Y-3515D01*
X69457Y-3474D01*
X69665Y-3411D01*
X69769Y-3369D01*
X73414D01*
X73581Y-3390D01*
D02*
G37*
G36*
X-82222Y-39141D02*
X-82110D01*
X-81966Y-39157D01*
X-81679Y-39204D01*
X-81663D01*
X-81616Y-39220D01*
X-81536Y-39236D01*
X-81424Y-39252D01*
X-81313Y-39268D01*
X-81185Y-39300D01*
X-80914Y-39380D01*
X-80898D01*
X-80850Y-39396D01*
X-80786Y-39428D01*
X-80706Y-39460D01*
X-80499Y-39539D01*
X-80292Y-39635D01*
X-80276D01*
X-80244Y-39651D01*
X-80132Y-39715D01*
X-80021Y-39795D01*
X-79957Y-39827D01*
X-79925Y-39859D01*
X-79909Y-39874D01*
X-79877Y-39906D01*
X-79829Y-39954D01*
X-79813Y-40002D01*
Y-40018D01*
X-79797Y-40034D01*
X-79765Y-40130D01*
Y-40146D01*
X-79749Y-40177D01*
Y-40241D01*
X-79733Y-40321D01*
Y-40337D01*
X-79717Y-40401D01*
Y-40497D01*
Y-40608D01*
Y-40640D01*
Y-40704D01*
Y-40800D01*
X-79733Y-40895D01*
Y-40911D01*
X-79749Y-40975D01*
X-79765Y-41039D01*
X-79781Y-41119D01*
Y-41135D01*
X-79797Y-41167D01*
X-79861Y-41246D01*
X-79893Y-41262D01*
X-79973Y-41278D01*
X-79989D01*
X-80052Y-41262D01*
X-80148Y-41230D01*
X-80292Y-41150D01*
X-80308D01*
X-80323Y-41135D01*
X-80371Y-41103D01*
X-80435Y-41071D01*
X-80611Y-40975D01*
X-80834Y-40863D01*
X-80850D01*
X-80882Y-40831D01*
X-80946Y-40800D01*
X-81041Y-40768D01*
X-81153Y-40720D01*
X-81265Y-40672D01*
X-81408Y-40624D01*
X-81568Y-40576D01*
X-81584D01*
X-81648Y-40560D01*
X-81727Y-40528D01*
X-81855Y-40497D01*
X-81982Y-40481D01*
X-82158Y-40449D01*
X-82333Y-40433D01*
X-82700D01*
X-82812Y-40449D01*
X-82956Y-40465D01*
X-83099Y-40497D01*
X-83386Y-40576D01*
X-83402D01*
X-83450Y-40592D01*
X-83514Y-40624D01*
X-83594Y-40672D01*
X-83801Y-40784D01*
X-83992Y-40927D01*
X-84008Y-40943D01*
X-84024Y-40959D01*
X-84072Y-41007D01*
X-84120Y-41071D01*
X-84248Y-41246D01*
X-84359Y-41454D01*
Y-41470D01*
X-84375Y-41501D01*
X-84391Y-41565D01*
X-84407Y-41645D01*
X-84439Y-41741D01*
X-84455Y-41852D01*
X-84471Y-42108D01*
Y-42124D01*
Y-42187D01*
X-84455Y-42283D01*
X-84439Y-42395D01*
X-84423Y-42538D01*
X-84375Y-42682D01*
X-84327Y-42825D01*
X-84248Y-42969D01*
X-84232Y-42985D01*
X-84200Y-43033D01*
X-84152Y-43097D01*
X-84088Y-43176D01*
X-84008Y-43272D01*
X-83897Y-43384D01*
X-83769Y-43479D01*
X-83641Y-43591D01*
X-83625Y-43607D01*
X-83578Y-43639D01*
X-83498Y-43687D01*
X-83386Y-43751D01*
X-83259Y-43830D01*
X-83115Y-43926D01*
X-82780Y-44102D01*
X-82764Y-44117D01*
X-82700Y-44133D01*
X-82589Y-44181D01*
X-82461Y-44245D01*
X-82317Y-44309D01*
X-82142Y-44389D01*
X-81775Y-44564D01*
X-81759Y-44580D01*
X-81679Y-44612D01*
X-81584Y-44660D01*
X-81456Y-44724D01*
X-81313Y-44803D01*
X-81137Y-44883D01*
X-80786Y-45090D01*
X-80770Y-45106D01*
X-80706Y-45138D01*
X-80611Y-45202D01*
X-80483Y-45266D01*
X-80355Y-45362D01*
X-80212Y-45473D01*
X-79909Y-45745D01*
X-79893Y-45760D01*
X-79845Y-45808D01*
X-79781Y-45888D01*
X-79686Y-46000D01*
X-79590Y-46127D01*
X-79478Y-46287D01*
X-79382Y-46462D01*
X-79287Y-46654D01*
X-79271Y-46670D01*
X-79255Y-46749D01*
X-79207Y-46845D01*
X-79159Y-46989D01*
X-79127Y-47180D01*
X-79079Y-47387D01*
X-79063Y-47611D01*
X-79047Y-47866D01*
Y-47882D01*
Y-47898D01*
Y-47946D01*
Y-48010D01*
X-79063Y-48169D01*
X-79079Y-48376D01*
X-79127Y-48600D01*
X-79175Y-48855D01*
X-79255Y-49110D01*
X-79366Y-49365D01*
X-79382Y-49397D01*
X-79414Y-49477D01*
X-79494Y-49589D01*
X-79590Y-49748D01*
X-79717Y-49924D01*
X-79861Y-50115D01*
X-80036Y-50307D01*
X-80228Y-50482D01*
X-80260Y-50498D01*
X-80323Y-50562D01*
X-80435Y-50641D01*
X-80595Y-50737D01*
X-80786Y-50849D01*
X-80993Y-50945D01*
X-81249Y-51056D01*
X-81520Y-51152D01*
X-81552Y-51168D01*
X-81648Y-51184D01*
X-81791Y-51216D01*
X-81998Y-51264D01*
X-82222Y-51311D01*
X-82493Y-51343D01*
X-82780Y-51359D01*
X-83099Y-51375D01*
X-83322D01*
X-83466Y-51359D01*
X-83641D01*
X-83833Y-51327D01*
X-84216Y-51280D01*
X-84232D01*
X-84295Y-51264D01*
X-84391Y-51248D01*
X-84519Y-51216D01*
X-84662Y-51184D01*
X-84822Y-51136D01*
X-85125Y-51040D01*
X-85141D01*
X-85189Y-51008D01*
X-85268Y-50977D01*
X-85364Y-50945D01*
X-85571Y-50833D01*
X-85795Y-50721D01*
X-85811D01*
X-85843Y-50689D01*
X-85938Y-50626D01*
X-86066Y-50546D01*
X-86178Y-50450D01*
X-86194Y-50434D01*
X-86226Y-50370D01*
X-86273Y-50291D01*
X-86321Y-50179D01*
Y-50163D01*
Y-50147D01*
X-86337Y-50051D01*
X-86353Y-49908D01*
X-86369Y-49716D01*
Y-49700D01*
Y-49684D01*
Y-49605D01*
Y-49493D01*
X-86353Y-49397D01*
Y-49365D01*
X-86337Y-49318D01*
X-86321Y-49238D01*
X-86305Y-49174D01*
Y-49158D01*
X-86289Y-49126D01*
X-86257Y-49094D01*
X-86226Y-49062D01*
X-86209Y-49046D01*
X-86178Y-49030D01*
X-86130Y-49015D01*
X-86050D01*
X-85986Y-49030D01*
X-85875Y-49078D01*
X-85731Y-49174D01*
X-85715D01*
X-85683Y-49206D01*
X-85635Y-49238D01*
X-85571Y-49270D01*
X-85476Y-49334D01*
X-85380Y-49381D01*
X-85125Y-49525D01*
X-85109D01*
X-85061Y-49557D01*
X-84981Y-49589D01*
X-84870Y-49637D01*
X-84742Y-49684D01*
X-84583Y-49732D01*
X-84423Y-49796D01*
X-84232Y-49860D01*
X-84200D01*
X-84136Y-49892D01*
X-84024Y-49908D01*
X-83881Y-49940D01*
X-83705Y-49972D01*
X-83498Y-49988D01*
X-83274Y-50019D01*
X-82844D01*
X-82716Y-50003D01*
X-82573Y-49988D01*
X-82413Y-49972D01*
X-82094Y-49892D01*
X-82078D01*
X-82014Y-49860D01*
X-81935Y-49828D01*
X-81839Y-49796D01*
X-81600Y-49668D01*
X-81360Y-49509D01*
X-81344Y-49493D01*
X-81313Y-49461D01*
X-81249Y-49413D01*
X-81185Y-49334D01*
X-81105Y-49238D01*
X-81025Y-49142D01*
X-80882Y-48887D01*
X-80866Y-48871D01*
X-80850Y-48823D01*
X-80818Y-48743D01*
X-80786Y-48648D01*
X-80754Y-48520D01*
X-80738Y-48376D01*
X-80706Y-48217D01*
Y-48042D01*
Y-48025D01*
Y-47962D01*
X-80722Y-47866D01*
X-80738Y-47738D01*
X-80770Y-47611D01*
X-80802Y-47467D01*
X-80866Y-47324D01*
X-80946Y-47180D01*
X-80962Y-47164D01*
X-80993Y-47116D01*
X-81041Y-47052D01*
X-81105Y-46973D01*
X-81185Y-46877D01*
X-81297Y-46765D01*
X-81408Y-46670D01*
X-81552Y-46558D01*
X-81568Y-46542D01*
X-81616Y-46510D01*
X-81695Y-46462D01*
X-81807Y-46382D01*
X-81935Y-46303D01*
X-82078Y-46223D01*
X-82413Y-46048D01*
X-82429Y-46032D01*
X-82493Y-46016D01*
X-82589Y-45968D01*
X-82716Y-45904D01*
X-82860Y-45840D01*
X-83035Y-45760D01*
X-83402Y-45601D01*
X-83418Y-45585D01*
X-83482Y-45553D01*
X-83594Y-45505D01*
X-83721Y-45441D01*
X-83865Y-45362D01*
X-84040Y-45282D01*
X-84391Y-45075D01*
X-84407Y-45059D01*
X-84471Y-45027D01*
X-84567Y-44963D01*
X-84678Y-44883D01*
X-84806Y-44787D01*
X-84949Y-44676D01*
X-85253Y-44405D01*
X-85268Y-44389D01*
X-85316Y-44341D01*
X-85380Y-44261D01*
X-85460Y-44149D01*
X-85555Y-44022D01*
X-85667Y-43862D01*
X-85763Y-43703D01*
X-85859Y-43511D01*
X-85875Y-43479D01*
X-85891Y-43416D01*
X-85922Y-43304D01*
X-85970Y-43160D01*
X-86018Y-42969D01*
X-86050Y-42762D01*
X-86066Y-42522D01*
X-86082Y-42251D01*
Y-42235D01*
Y-42219D01*
Y-42124D01*
X-86066Y-41980D01*
X-86050Y-41804D01*
X-86018Y-41597D01*
X-85970Y-41374D01*
X-85906Y-41150D01*
X-85811Y-40927D01*
X-85795Y-40895D01*
X-85763Y-40831D01*
X-85699Y-40720D01*
X-85619Y-40576D01*
X-85508Y-40433D01*
X-85380Y-40257D01*
X-85237Y-40098D01*
X-85061Y-39938D01*
X-85045Y-39922D01*
X-84981Y-39874D01*
X-84870Y-39795D01*
X-84742Y-39715D01*
X-84567Y-39619D01*
X-84375Y-39508D01*
X-84152Y-39412D01*
X-83913Y-39332D01*
X-83881Y-39316D01*
X-83801Y-39300D01*
X-83657Y-39268D01*
X-83482Y-39220D01*
X-83274Y-39188D01*
X-83019Y-39157D01*
X-82764Y-39141D01*
X-82477Y-39125D01*
X-82333D01*
X-82222Y-39141D01*
D02*
G37*
G36*
X80449Y-39157D02*
X80640Y-39173D01*
X80863Y-39188D01*
X81310Y-39268D01*
X81342D01*
X81406Y-39284D01*
X81533Y-39316D01*
X81677Y-39348D01*
X81836Y-39396D01*
X82012Y-39444D01*
X82379Y-39555D01*
X82395D01*
X82458Y-39587D01*
X82538Y-39619D01*
X82650Y-39651D01*
X82905Y-39763D01*
X83160Y-39906D01*
X83176D01*
X83208Y-39938D01*
X83272Y-39970D01*
X83336Y-40002D01*
X83479Y-40114D01*
X83543Y-40161D01*
X83591Y-40209D01*
X83607Y-40225D01*
X83655Y-40289D01*
X83719Y-40369D01*
X83766Y-40481D01*
X83782Y-40512D01*
X83798Y-40592D01*
X83814Y-40736D01*
Y-40927D01*
Y-40959D01*
Y-41039D01*
X83798Y-41135D01*
X83782Y-41246D01*
Y-41262D01*
X83766Y-41326D01*
X83750Y-41390D01*
X83735Y-41469D01*
Y-41486D01*
X83719Y-41517D01*
X83687Y-41549D01*
X83639Y-41581D01*
X83607Y-41597D01*
X83527Y-41613D01*
X83511D01*
X83432Y-41597D01*
X83320Y-41549D01*
X83144Y-41454D01*
X83128Y-41438D01*
X83097Y-41422D01*
X83049Y-41390D01*
X82969Y-41342D01*
X82873Y-41278D01*
X82746Y-41214D01*
X82618Y-41150D01*
X82458Y-41071D01*
X82443Y-41055D01*
X82379Y-41039D01*
X82283Y-40991D01*
X82171Y-40943D01*
X82012Y-40879D01*
X81836Y-40816D01*
X81645Y-40736D01*
X81422Y-40672D01*
X81390Y-40656D01*
X81310Y-40640D01*
X81198Y-40608D01*
X81023Y-40576D01*
X80815Y-40544D01*
X80576Y-40528D01*
X80305Y-40497D01*
X79843D01*
X79747Y-40512D01*
X79651D01*
X79412Y-40544D01*
X79141Y-40592D01*
X78837Y-40656D01*
X78534Y-40736D01*
X78231Y-40863D01*
X78215D01*
X78200Y-40879D01*
X78104Y-40927D01*
X77960Y-41007D01*
X77769Y-41119D01*
X77561Y-41262D01*
X77338Y-41422D01*
X77115Y-41629D01*
X76907Y-41852D01*
X76891Y-41884D01*
X76812Y-41964D01*
X76716Y-42108D01*
X76604Y-42283D01*
X76461Y-42506D01*
X76333Y-42762D01*
X76190Y-43049D01*
X76078Y-43368D01*
Y-43384D01*
X76062Y-43400D01*
X76046Y-43447D01*
X76030Y-43511D01*
X76014Y-43591D01*
X75982Y-43687D01*
X75934Y-43926D01*
X75887Y-44213D01*
X75839Y-44532D01*
X75807Y-44883D01*
X75791Y-45250D01*
Y-45266D01*
Y-45298D01*
Y-45362D01*
Y-45441D01*
X75807Y-45537D01*
Y-45665D01*
X75823Y-45936D01*
X75871Y-46255D01*
X75918Y-46590D01*
X75998Y-46941D01*
X76094Y-47276D01*
Y-47292D01*
X76110Y-47308D01*
X76126Y-47355D01*
X76158Y-47419D01*
X76221Y-47579D01*
X76317Y-47786D01*
X76445Y-48025D01*
X76604Y-48265D01*
X76780Y-48520D01*
X76971Y-48759D01*
X77003Y-48791D01*
X77067Y-48855D01*
X77195Y-48967D01*
X77354Y-49094D01*
X77545Y-49254D01*
X77785Y-49397D01*
X78040Y-49557D01*
X78311Y-49684D01*
X78327D01*
X78343Y-49700D01*
X78391Y-49716D01*
X78455Y-49732D01*
X78614Y-49780D01*
X78822Y-49828D01*
X79077Y-49892D01*
X79364Y-49940D01*
X79683Y-49971D01*
X80018Y-49988D01*
X80225D01*
X80369Y-49971D01*
X80544Y-49956D01*
X80720Y-49940D01*
X81135Y-49860D01*
X81166D01*
X81230Y-49828D01*
X81342Y-49812D01*
X81485Y-49764D01*
X81645Y-49700D01*
X81820Y-49637D01*
X82203Y-49461D01*
Y-45984D01*
X79396D01*
X79332Y-45968D01*
X79252Y-45920D01*
X79188Y-45840D01*
X79173Y-45808D01*
X79157Y-45713D01*
X79141Y-45649D01*
Y-45569D01*
X79125Y-45457D01*
Y-45346D01*
Y-45330D01*
Y-45314D01*
Y-45250D01*
Y-45154D01*
X79141Y-45059D01*
Y-45043D01*
X79157Y-44979D01*
X79173Y-44915D01*
X79188Y-44851D01*
X79204Y-44835D01*
X79220Y-44803D01*
X79252Y-44771D01*
X79284Y-44739D01*
X79300Y-44724D01*
X79332Y-44708D01*
X79380Y-44692D01*
X83272D01*
X83336Y-44708D01*
X83415Y-44739D01*
X83432D01*
X83479Y-44771D01*
X83527Y-44803D01*
X83591Y-44851D01*
X83607Y-44867D01*
X83639Y-44899D01*
X83687Y-44963D01*
X83735Y-45043D01*
X83750Y-45059D01*
X83766Y-45122D01*
X83782Y-45218D01*
Y-45346D01*
Y-49876D01*
Y-49892D01*
Y-49908D01*
X83766Y-50019D01*
X83750Y-50147D01*
X83687Y-50291D01*
X83671Y-50322D01*
X83607Y-50386D01*
X83511Y-50482D01*
X83432Y-50546D01*
X83336Y-50594D01*
X83320D01*
X83288Y-50610D01*
X83240Y-50641D01*
X83160Y-50673D01*
X83065Y-50721D01*
X82937Y-50769D01*
X82809Y-50817D01*
X82650Y-50881D01*
X82634D01*
X82586Y-50913D01*
X82490Y-50945D01*
X82379Y-50977D01*
X82251Y-51024D01*
X82107Y-51056D01*
X81773Y-51152D01*
X81757D01*
X81693Y-51168D01*
X81613Y-51184D01*
X81485Y-51200D01*
X81358Y-51232D01*
X81198Y-51248D01*
X80863Y-51295D01*
X80847D01*
X80784Y-51311D01*
X80704D01*
X80576Y-51327D01*
X80449Y-51343D01*
X80289D01*
X79954Y-51359D01*
X79731D01*
X79603Y-51343D01*
X79460D01*
X79300Y-51327D01*
X79141Y-51311D01*
X78758Y-51264D01*
X78343Y-51184D01*
X77912Y-51088D01*
X77498Y-50945D01*
X77482D01*
X77450Y-50929D01*
X77386Y-50897D01*
X77322Y-50865D01*
X77227Y-50817D01*
X77115Y-50769D01*
X76860Y-50626D01*
X76572Y-50466D01*
X76269Y-50259D01*
X75950Y-50003D01*
X75663Y-49732D01*
X75647Y-49716D01*
X75631Y-49700D01*
X75599Y-49653D01*
X75536Y-49589D01*
X75408Y-49429D01*
X75233Y-49190D01*
X75057Y-48919D01*
X74866Y-48600D01*
X74674Y-48233D01*
X74515Y-47834D01*
Y-47818D01*
X74499Y-47786D01*
X74483Y-47722D01*
X74451Y-47643D01*
X74419Y-47531D01*
X74387Y-47419D01*
X74355Y-47276D01*
X74323Y-47116D01*
X74291Y-46941D01*
X74260Y-46749D01*
X74196Y-46319D01*
X74148Y-45856D01*
X74132Y-45362D01*
Y-45346D01*
Y-45298D01*
Y-45218D01*
Y-45122D01*
X74148Y-44995D01*
Y-44851D01*
X74164Y-44692D01*
X74180Y-44516D01*
X74228Y-44117D01*
X74307Y-43687D01*
X74403Y-43256D01*
X74547Y-42809D01*
Y-42793D01*
X74563Y-42762D01*
X74594Y-42698D01*
X74626Y-42618D01*
X74674Y-42522D01*
X74722Y-42395D01*
X74866Y-42140D01*
X75025Y-41821D01*
X75233Y-41501D01*
X75488Y-41167D01*
X75759Y-40847D01*
X75775Y-40831D01*
X75791Y-40816D01*
X75839Y-40768D01*
X75903Y-40720D01*
X76062Y-40560D01*
X76285Y-40385D01*
X76557Y-40177D01*
X76876Y-39970D01*
X77227Y-39763D01*
X77625Y-39587D01*
X77641D01*
X77673Y-39571D01*
X77737Y-39539D01*
X77817Y-39523D01*
X77912Y-39476D01*
X78040Y-39444D01*
X78183Y-39412D01*
X78327Y-39364D01*
X78694Y-39284D01*
X79093Y-39204D01*
X79555Y-39157D01*
X80034Y-39141D01*
X80289D01*
X80449Y-39157D01*
D02*
G37*
G36*
X36567D02*
X36758Y-39173D01*
X36982Y-39188D01*
X37428Y-39268D01*
X37460D01*
X37524Y-39284D01*
X37652Y-39316D01*
X37795Y-39348D01*
X37955Y-39396D01*
X38130Y-39444D01*
X38497Y-39555D01*
X38513D01*
X38577Y-39587D01*
X38656Y-39619D01*
X38768Y-39651D01*
X39023Y-39763D01*
X39279Y-39906D01*
X39295D01*
X39326Y-39938D01*
X39390Y-39970D01*
X39454Y-40002D01*
X39598Y-40114D01*
X39661Y-40161D01*
X39709Y-40209D01*
X39725Y-40225D01*
X39773Y-40289D01*
X39837Y-40369D01*
X39885Y-40481D01*
X39901Y-40512D01*
X39917Y-40592D01*
X39933Y-40736D01*
Y-40927D01*
Y-40959D01*
Y-41039D01*
X39917Y-41135D01*
X39901Y-41246D01*
Y-41262D01*
X39885Y-41326D01*
X39869Y-41390D01*
X39853Y-41469D01*
Y-41486D01*
X39837Y-41517D01*
X39805Y-41549D01*
X39757Y-41581D01*
X39725Y-41597D01*
X39645Y-41613D01*
X39629D01*
X39550Y-41597D01*
X39438Y-41549D01*
X39263Y-41454D01*
X39247Y-41438D01*
X39215Y-41422D01*
X39167Y-41390D01*
X39087Y-41342D01*
X38991Y-41278D01*
X38864Y-41214D01*
X38736Y-41150D01*
X38577Y-41071D01*
X38561Y-41055D01*
X38497Y-41039D01*
X38401Y-40991D01*
X38290Y-40943D01*
X38130Y-40879D01*
X37955Y-40816D01*
X37763Y-40736D01*
X37540Y-40672D01*
X37508Y-40656D01*
X37428Y-40640D01*
X37317Y-40608D01*
X37141Y-40576D01*
X36934Y-40544D01*
X36695Y-40528D01*
X36423Y-40497D01*
X35961D01*
X35865Y-40512D01*
X35769D01*
X35530Y-40544D01*
X35259Y-40592D01*
X34956Y-40656D01*
X34653Y-40736D01*
X34350Y-40863D01*
X34334D01*
X34318Y-40879D01*
X34222Y-40927D01*
X34079Y-41007D01*
X33887Y-41119D01*
X33680Y-41262D01*
X33456Y-41422D01*
X33233Y-41629D01*
X33026Y-41852D01*
X33010Y-41884D01*
X32930Y-41964D01*
X32834Y-42108D01*
X32723Y-42283D01*
X32579Y-42506D01*
X32451Y-42762D01*
X32308Y-43049D01*
X32196Y-43368D01*
Y-43384D01*
X32180Y-43400D01*
X32164Y-43447D01*
X32148Y-43511D01*
X32132Y-43591D01*
X32101Y-43687D01*
X32053Y-43926D01*
X32005Y-44213D01*
X31957Y-44532D01*
X31925Y-44883D01*
X31909Y-45250D01*
Y-45266D01*
Y-45298D01*
Y-45362D01*
Y-45441D01*
X31925Y-45537D01*
Y-45665D01*
X31941Y-45936D01*
X31989Y-46255D01*
X32037Y-46590D01*
X32116Y-46941D01*
X32212Y-47276D01*
Y-47292D01*
X32228Y-47308D01*
X32244Y-47355D01*
X32276Y-47419D01*
X32340Y-47579D01*
X32436Y-47786D01*
X32563Y-48025D01*
X32723Y-48265D01*
X32898Y-48520D01*
X33089Y-48759D01*
X33121Y-48791D01*
X33185Y-48855D01*
X33313Y-48967D01*
X33472Y-49094D01*
X33664Y-49254D01*
X33903Y-49397D01*
X34158Y-49557D01*
X34429Y-49684D01*
X34445D01*
X34461Y-49700D01*
X34509Y-49716D01*
X34573Y-49732D01*
X34732Y-49780D01*
X34940Y-49828D01*
X35195Y-49892D01*
X35482Y-49940D01*
X35801Y-49971D01*
X36136Y-49988D01*
X36344D01*
X36487Y-49971D01*
X36663Y-49956D01*
X36838Y-49940D01*
X37253Y-49860D01*
X37285D01*
X37348Y-49828D01*
X37460Y-49812D01*
X37604Y-49764D01*
X37763Y-49700D01*
X37939Y-49637D01*
X38321Y-49461D01*
Y-45984D01*
X35514D01*
X35450Y-45968D01*
X35371Y-45920D01*
X35307Y-45840D01*
X35291Y-45808D01*
X35275Y-45713D01*
X35259Y-45649D01*
Y-45569D01*
X35243Y-45457D01*
Y-45346D01*
Y-45330D01*
Y-45314D01*
Y-45250D01*
Y-45154D01*
X35259Y-45059D01*
Y-45043D01*
X35275Y-44979D01*
X35291Y-44915D01*
X35307Y-44851D01*
X35323Y-44835D01*
X35339Y-44803D01*
X35371Y-44771D01*
X35402Y-44739D01*
X35418Y-44724D01*
X35450Y-44708D01*
X35498Y-44692D01*
X39390D01*
X39454Y-44708D01*
X39534Y-44739D01*
X39550D01*
X39598Y-44771D01*
X39645Y-44803D01*
X39709Y-44851D01*
X39725Y-44867D01*
X39757Y-44899D01*
X39805Y-44963D01*
X39853Y-45043D01*
X39869Y-45059D01*
X39885Y-45122D01*
X39901Y-45218D01*
Y-45346D01*
Y-49876D01*
Y-49892D01*
Y-49908D01*
X39885Y-50019D01*
X39869Y-50147D01*
X39805Y-50291D01*
X39789Y-50322D01*
X39725Y-50386D01*
X39629Y-50482D01*
X39550Y-50546D01*
X39454Y-50594D01*
X39438D01*
X39406Y-50610D01*
X39358Y-50641D01*
X39279Y-50673D01*
X39183Y-50721D01*
X39055Y-50769D01*
X38928Y-50817D01*
X38768Y-50881D01*
X38752D01*
X38704Y-50913D01*
X38609Y-50945D01*
X38497Y-50977D01*
X38369Y-51024D01*
X38226Y-51056D01*
X37891Y-51152D01*
X37875D01*
X37811Y-51168D01*
X37731Y-51184D01*
X37604Y-51200D01*
X37476Y-51232D01*
X37317Y-51248D01*
X36982Y-51295D01*
X36966D01*
X36902Y-51311D01*
X36822D01*
X36695Y-51327D01*
X36567Y-51343D01*
X36407D01*
X36072Y-51359D01*
X35849D01*
X35721Y-51343D01*
X35578D01*
X35418Y-51327D01*
X35259Y-51311D01*
X34876Y-51264D01*
X34461Y-51184D01*
X34031Y-51088D01*
X33616Y-50945D01*
X33600D01*
X33568Y-50929D01*
X33504Y-50897D01*
X33440Y-50865D01*
X33345Y-50817D01*
X33233Y-50769D01*
X32978Y-50626D01*
X32691Y-50466D01*
X32388Y-50259D01*
X32069Y-50003D01*
X31781Y-49732D01*
X31765Y-49716D01*
X31750Y-49700D01*
X31718Y-49653D01*
X31654Y-49589D01*
X31526Y-49429D01*
X31351Y-49190D01*
X31175Y-48919D01*
X30984Y-48600D01*
X30793Y-48233D01*
X30633Y-47834D01*
Y-47818D01*
X30617Y-47786D01*
X30601Y-47722D01*
X30569Y-47643D01*
X30537Y-47531D01*
X30505Y-47419D01*
X30473Y-47276D01*
X30442Y-47116D01*
X30410Y-46941D01*
X30378Y-46749D01*
X30314Y-46319D01*
X30266Y-45856D01*
X30250Y-45362D01*
Y-45346D01*
Y-45298D01*
Y-45218D01*
Y-45122D01*
X30266Y-44995D01*
Y-44851D01*
X30282Y-44692D01*
X30298Y-44516D01*
X30346Y-44117D01*
X30426Y-43687D01*
X30521Y-43256D01*
X30665Y-42809D01*
Y-42793D01*
X30681Y-42762D01*
X30713Y-42698D01*
X30745Y-42618D01*
X30793Y-42522D01*
X30840Y-42395D01*
X30984Y-42140D01*
X31143Y-41821D01*
X31351Y-41501D01*
X31606Y-41167D01*
X31877Y-40847D01*
X31893Y-40831D01*
X31909Y-40816D01*
X31957Y-40768D01*
X32021Y-40720D01*
X32180Y-40560D01*
X32404Y-40385D01*
X32675Y-40177D01*
X32994Y-39970D01*
X33345Y-39763D01*
X33744Y-39587D01*
X33759D01*
X33791Y-39571D01*
X33855Y-39539D01*
X33935Y-39523D01*
X34031Y-39476D01*
X34158Y-39444D01*
X34302Y-39412D01*
X34445Y-39364D01*
X34812Y-39284D01*
X35211Y-39204D01*
X35674Y-39157D01*
X36152Y-39141D01*
X36407D01*
X36567Y-39157D01*
D02*
G37*
G36*
X-54562Y-39173D02*
X-54403Y-39188D01*
X-54227Y-39204D01*
X-53876Y-39268D01*
X-53861D01*
X-53797Y-39284D01*
X-53701Y-39300D01*
X-53573Y-39332D01*
X-53446Y-39364D01*
X-53286Y-39412D01*
X-52983Y-39508D01*
X-52967D01*
X-52919Y-39539D01*
X-52840Y-39555D01*
X-52728Y-39603D01*
X-52505Y-39715D01*
X-52249Y-39843D01*
X-52234D01*
X-52202Y-39874D01*
X-52138Y-39906D01*
X-52074Y-39954D01*
X-51915Y-40050D01*
X-51851Y-40114D01*
X-51803Y-40162D01*
X-51787Y-40177D01*
X-51739Y-40225D01*
X-51675Y-40289D01*
X-51643Y-40353D01*
X-51627Y-40369D01*
X-51611Y-40401D01*
X-51579Y-40497D01*
Y-40512D01*
X-51564Y-40544D01*
X-51548Y-40624D01*
X-51532Y-40704D01*
Y-40720D01*
X-51516Y-40784D01*
Y-40879D01*
Y-40991D01*
Y-41023D01*
Y-41087D01*
X-51532Y-41198D01*
X-51548Y-41294D01*
Y-41310D01*
X-51564Y-41374D01*
X-51579Y-41438D01*
X-51595Y-41517D01*
Y-41533D01*
X-51611Y-41565D01*
X-51691Y-41645D01*
X-51723Y-41661D01*
X-51803Y-41677D01*
X-51835D01*
X-51898Y-41661D01*
X-52010Y-41597D01*
X-52090Y-41565D01*
X-52170Y-41501D01*
X-52186Y-41486D01*
X-52217Y-41470D01*
X-52265Y-41438D01*
X-52329Y-41390D01*
X-52409Y-41326D01*
X-52505Y-41262D01*
X-52760Y-41119D01*
X-52776Y-41103D01*
X-52824Y-41087D01*
X-52903Y-41039D01*
X-53015Y-40991D01*
X-53143Y-40927D01*
X-53286Y-40863D01*
X-53462Y-40784D01*
X-53653Y-40720D01*
X-53669Y-40704D01*
X-53749Y-40688D01*
X-53861Y-40656D01*
X-54004Y-40624D01*
X-54195Y-40592D01*
X-54403Y-40560D01*
X-54642Y-40528D01*
X-55025D01*
X-55184Y-40544D01*
X-55376Y-40560D01*
X-55599Y-40608D01*
X-55838Y-40656D01*
X-56094Y-40736D01*
X-56349Y-40848D01*
X-56381Y-40863D01*
X-56460Y-40911D01*
X-56572Y-40975D01*
X-56732Y-41087D01*
X-56907Y-41214D01*
X-57099Y-41374D01*
X-57290Y-41565D01*
X-57466Y-41789D01*
X-57481Y-41821D01*
X-57545Y-41900D01*
X-57625Y-42028D01*
X-57721Y-42203D01*
X-57848Y-42427D01*
X-57960Y-42682D01*
X-58072Y-42969D01*
X-58183Y-43288D01*
Y-43304D01*
X-58199Y-43336D01*
Y-43384D01*
X-58215Y-43447D01*
X-58231Y-43527D01*
X-58263Y-43623D01*
X-58295Y-43878D01*
X-58343Y-44181D01*
X-58391Y-44516D01*
X-58407Y-44899D01*
X-58422Y-45314D01*
Y-45330D01*
Y-45362D01*
Y-45426D01*
Y-45505D01*
Y-45601D01*
X-58407Y-45713D01*
X-58391Y-45984D01*
X-58359Y-46303D01*
X-58327Y-46638D01*
X-58263Y-46989D01*
X-58183Y-47324D01*
Y-47340D01*
X-58167Y-47356D01*
X-58151Y-47403D01*
X-58135Y-47467D01*
X-58088Y-47627D01*
X-58008Y-47834D01*
X-57912Y-48057D01*
X-57785Y-48297D01*
X-57641Y-48536D01*
X-57481Y-48775D01*
X-57466Y-48807D01*
X-57402Y-48871D01*
X-57306Y-48967D01*
X-57162Y-49094D01*
X-57003Y-49238D01*
X-56811Y-49381D01*
X-56604Y-49525D01*
X-56365Y-49653D01*
X-56333Y-49668D01*
X-56253Y-49700D01*
X-56110Y-49748D01*
X-55918Y-49796D01*
X-55695Y-49844D01*
X-55440Y-49892D01*
X-55153Y-49924D01*
X-54850Y-49940D01*
X-54738D01*
X-54594Y-49924D01*
X-54435D01*
X-54243Y-49908D01*
X-54036Y-49876D01*
X-53829Y-49828D01*
X-53621Y-49780D01*
X-53589Y-49764D01*
X-53526Y-49748D01*
X-53430Y-49716D01*
X-53302Y-49668D01*
X-53159Y-49605D01*
X-53015Y-49541D01*
X-52856Y-49461D01*
X-52712Y-49381D01*
X-52696Y-49365D01*
X-52648Y-49349D01*
X-52584Y-49302D01*
X-52489Y-49254D01*
X-52281Y-49126D01*
X-52090Y-48983D01*
X-52074Y-48967D01*
X-52042Y-48951D01*
X-51946Y-48887D01*
X-51835Y-48839D01*
X-51771Y-48807D01*
X-51675D01*
X-51643Y-48823D01*
X-51611Y-48839D01*
X-51595D01*
X-51579Y-48871D01*
X-51564Y-48903D01*
X-51532Y-48951D01*
Y-48967D01*
X-51516Y-49015D01*
X-51500Y-49078D01*
X-51484Y-49174D01*
Y-49190D01*
X-51468Y-49270D01*
Y-49365D01*
Y-49509D01*
Y-49525D01*
Y-49589D01*
Y-49684D01*
X-51484Y-49764D01*
Y-49780D01*
X-51500Y-49828D01*
X-51532Y-49956D01*
Y-49972D01*
X-51548Y-50003D01*
X-51579Y-50099D01*
Y-50115D01*
X-51611Y-50147D01*
X-51643Y-50195D01*
X-51707Y-50259D01*
X-51723Y-50275D01*
X-51787Y-50322D01*
X-51851Y-50370D01*
X-51915Y-50418D01*
X-51994Y-50482D01*
X-52106Y-50546D01*
X-52122Y-50562D01*
X-52154Y-50578D01*
X-52217Y-50610D01*
X-52297Y-50658D01*
X-52409Y-50721D01*
X-52537Y-50785D01*
X-52664Y-50849D01*
X-52824Y-50929D01*
X-52840D01*
X-52903Y-50960D01*
X-52983Y-50992D01*
X-53111Y-51024D01*
X-53254Y-51072D01*
X-53430Y-51120D01*
X-53621Y-51168D01*
X-53829Y-51216D01*
X-53861D01*
X-53924Y-51232D01*
X-54036Y-51248D01*
X-54195Y-51280D01*
X-54371Y-51295D01*
X-54578Y-51327D01*
X-54818Y-51343D01*
X-55248D01*
X-55360Y-51327D01*
X-55472D01*
X-55759Y-51295D01*
X-56078Y-51248D01*
X-56429Y-51184D01*
X-56796Y-51088D01*
X-57162Y-50960D01*
X-57178D01*
X-57210Y-50945D01*
X-57258Y-50913D01*
X-57322Y-50881D01*
X-57481Y-50801D01*
X-57705Y-50673D01*
X-57960Y-50514D01*
X-58215Y-50322D01*
X-58486Y-50099D01*
X-58742Y-49828D01*
Y-49812D01*
X-58773Y-49796D01*
X-58805Y-49748D01*
X-58853Y-49700D01*
X-58965Y-49525D01*
X-59108Y-49318D01*
X-59268Y-49046D01*
X-59443Y-48727D01*
X-59603Y-48376D01*
X-59746Y-47978D01*
Y-47962D01*
X-59762Y-47930D01*
X-59778Y-47866D01*
X-59794Y-47786D01*
X-59826Y-47675D01*
X-59858Y-47547D01*
X-59890Y-47403D01*
X-59922Y-47244D01*
X-59954Y-47052D01*
X-59986Y-46861D01*
X-60050Y-46430D01*
X-60082Y-45936D01*
X-60097Y-45409D01*
Y-45394D01*
Y-45346D01*
Y-45266D01*
Y-45154D01*
X-60082Y-45027D01*
Y-44883D01*
X-60065Y-44708D01*
X-60050Y-44532D01*
X-60002Y-44117D01*
X-59938Y-43687D01*
X-59858Y-43224D01*
X-59731Y-42778D01*
Y-42762D01*
X-59715Y-42730D01*
X-59683Y-42666D01*
X-59667Y-42586D01*
X-59619Y-42490D01*
X-59571Y-42363D01*
X-59459Y-42092D01*
X-59300Y-41789D01*
X-59124Y-41454D01*
X-58901Y-41135D01*
X-58662Y-40816D01*
X-58646Y-40800D01*
X-58630Y-40784D01*
X-58534Y-40688D01*
X-58391Y-40528D01*
X-58183Y-40353D01*
X-57944Y-40162D01*
X-57673Y-39954D01*
X-57354Y-39763D01*
X-57003Y-39587D01*
X-56987D01*
X-56955Y-39571D01*
X-56907Y-39539D01*
X-56827Y-39523D01*
X-56748Y-39492D01*
X-56636Y-39444D01*
X-56381Y-39364D01*
X-56062Y-39300D01*
X-55711Y-39220D01*
X-55312Y-39173D01*
X-54881Y-39157D01*
X-54690D01*
X-54562Y-39173D01*
D02*
G37*
G36*
X28607Y-39268D02*
X28767Y-39284D01*
X28799D01*
X28878Y-39300D01*
X28958Y-39316D01*
X29038Y-39364D01*
X29054Y-39380D01*
X29070Y-39412D01*
X29086Y-39476D01*
Y-39555D01*
Y-39571D01*
X29070Y-39635D01*
X29022Y-39731D01*
X28958Y-39874D01*
X25608Y-46574D01*
Y-50960D01*
Y-50977D01*
Y-51008D01*
X25592Y-51056D01*
X25561Y-51104D01*
X25529Y-51136D01*
X25497Y-51152D01*
X25433Y-51184D01*
X25417D01*
X25369Y-51200D01*
X25289D01*
X25178Y-51216D01*
X25146D01*
X25082Y-51232D01*
X24970Y-51248D01*
X24683D01*
X24556Y-51232D01*
X24428Y-51216D01*
X24412D01*
X24348Y-51200D01*
X24269D01*
X24189Y-51184D01*
X24173D01*
X24141Y-51168D01*
X24093Y-51136D01*
X24061Y-51104D01*
Y-51088D01*
X24045Y-51056D01*
X24029Y-50960D01*
Y-46574D01*
X20663Y-39874D01*
Y-39859D01*
X20648Y-39843D01*
X20600Y-39763D01*
X20552Y-39651D01*
X20520Y-39555D01*
Y-39539D01*
Y-39476D01*
X20536Y-39428D01*
X20568Y-39364D01*
X20584Y-39348D01*
X20632Y-39332D01*
X20711Y-39300D01*
X20823Y-39284D01*
X20855D01*
X20903Y-39268D01*
X20951D01*
X21110Y-39252D01*
X21477D01*
X21621Y-39268D01*
X21748Y-39284D01*
X21780D01*
X21844Y-39300D01*
X21940Y-39316D01*
X22019Y-39332D01*
X22035D01*
X22083Y-39348D01*
X22131Y-39380D01*
X22179Y-39428D01*
X22195Y-39444D01*
X22211Y-39460D01*
X22243Y-39508D01*
X22275Y-39571D01*
X23918Y-42985D01*
X23933Y-43001D01*
X23965Y-43065D01*
X24013Y-43176D01*
X24061Y-43304D01*
X24141Y-43447D01*
X24221Y-43623D01*
X24380Y-44022D01*
X24396Y-44038D01*
X24412Y-44117D01*
X24460Y-44213D01*
X24524Y-44357D01*
X24588Y-44516D01*
X24667Y-44692D01*
X24843Y-45090D01*
X24859D01*
X24875Y-45059D01*
X24891Y-44995D01*
X24938Y-44899D01*
X24986Y-44756D01*
X25050Y-44612D01*
X25130Y-44436D01*
X25289Y-44054D01*
X25305Y-44022D01*
X25321Y-43958D01*
X25369Y-43862D01*
X25433Y-43719D01*
X25497Y-43575D01*
X25577Y-43400D01*
X25752Y-43017D01*
X27395Y-39587D01*
Y-39571D01*
X27411Y-39523D01*
X27475Y-39428D01*
X27491Y-39412D01*
X27522Y-39396D01*
X27618Y-39332D01*
X27634D01*
X27682Y-39316D01*
X27746Y-39300D01*
X27857Y-39284D01*
X27889D01*
X27969Y-39268D01*
X28097Y-39252D01*
X28448D01*
X28607Y-39268D01*
D02*
G37*
G36*
X-28466Y-39300D02*
X-28339Y-39316D01*
X-28307D01*
X-28243Y-39332D01*
X-28163Y-39348D01*
X-28099Y-39380D01*
X-28083D01*
X-28052Y-39396D01*
X-28004Y-39428D01*
X-27972Y-39476D01*
X-27956D01*
X-27940Y-39508D01*
X-27924Y-39539D01*
Y-39587D01*
Y-50562D01*
Y-50594D01*
Y-50673D01*
X-27956Y-50769D01*
X-27988Y-50881D01*
X-28004Y-50897D01*
X-28036Y-50960D01*
X-28083Y-51024D01*
X-28163Y-51088D01*
X-28179Y-51104D01*
X-28227Y-51136D01*
X-28291Y-51168D01*
X-28386Y-51200D01*
X-28402D01*
X-28450Y-51216D01*
X-28530Y-51232D01*
X-29296D01*
X-29439Y-51216D01*
X-29583Y-51184D01*
X-29615Y-51168D01*
X-29694Y-51136D01*
X-29806Y-51088D01*
X-29934Y-51008D01*
X-29966Y-50977D01*
X-30029Y-50913D01*
X-30141Y-50785D01*
X-30269Y-50641D01*
Y-50626D01*
X-30301Y-50594D01*
X-30333Y-50546D01*
X-30364Y-50482D01*
X-30428Y-50386D01*
X-30476Y-50291D01*
X-30620Y-50035D01*
X-34256Y-43272D01*
X-34272Y-43256D01*
X-34304Y-43176D01*
X-34368Y-43081D01*
X-34432Y-42937D01*
X-34528Y-42778D01*
X-34623Y-42602D01*
X-34719Y-42395D01*
X-34831Y-42187D01*
X-34847Y-42155D01*
X-34879Y-42092D01*
X-34926Y-41980D01*
X-35006Y-41836D01*
X-35086Y-41661D01*
X-35166Y-41470D01*
X-35357Y-41071D01*
X-35389D01*
Y-41103D01*
Y-41182D01*
X-35373Y-41310D01*
Y-41486D01*
Y-41677D01*
X-35357Y-41916D01*
Y-42155D01*
Y-42411D01*
Y-42443D01*
Y-42522D01*
Y-42666D01*
X-35341Y-42841D01*
Y-43049D01*
Y-43272D01*
Y-43527D01*
Y-43783D01*
Y-50960D01*
Y-50977D01*
Y-50992D01*
X-35357Y-51040D01*
X-35389Y-51088D01*
Y-51104D01*
X-35421Y-51120D01*
X-35453Y-51152D01*
X-35517Y-51184D01*
X-35533D01*
X-35580Y-51200D01*
X-35660D01*
X-35772Y-51216D01*
X-35804D01*
X-35868Y-51232D01*
X-35979Y-51248D01*
X-36282D01*
X-36410Y-51232D01*
X-36537Y-51216D01*
X-36553D01*
X-36617Y-51200D01*
X-36697D01*
X-36777Y-51184D01*
X-36793D01*
X-36825Y-51152D01*
X-36857Y-51136D01*
X-36888Y-51088D01*
Y-51072D01*
X-36904Y-51040D01*
X-36920Y-50960D01*
Y-39986D01*
Y-39970D01*
Y-39922D01*
X-36904Y-39859D01*
X-36888Y-39779D01*
X-36825Y-39603D01*
X-36777Y-39523D01*
X-36713Y-39460D01*
X-36697D01*
X-36681Y-39428D01*
X-36585Y-39380D01*
X-36442Y-39332D01*
X-36266Y-39300D01*
X-35325D01*
X-35182Y-39316D01*
X-35038Y-39348D01*
X-35022D01*
X-35006Y-39364D01*
X-34926Y-39380D01*
X-34815Y-39428D01*
X-34703Y-39508D01*
X-34671Y-39523D01*
X-34607Y-39587D01*
X-34512Y-39683D01*
X-34416Y-39811D01*
X-34384Y-39843D01*
X-34320Y-39938D01*
X-34225Y-40082D01*
X-34113Y-40273D01*
X-31321Y-45489D01*
X-31305Y-45505D01*
X-31274Y-45569D01*
X-31226Y-45665D01*
X-31162Y-45792D01*
X-31082Y-45936D01*
X-31002Y-46095D01*
X-30827Y-46430D01*
X-30811Y-46446D01*
X-30779Y-46510D01*
X-30731Y-46590D01*
X-30683Y-46702D01*
X-30604Y-46845D01*
X-30524Y-46989D01*
X-30364Y-47324D01*
X-30348Y-47340D01*
X-30333Y-47403D01*
X-30285Y-47483D01*
X-30221Y-47595D01*
X-30157Y-47738D01*
X-30093Y-47882D01*
X-29934Y-48201D01*
X-29918Y-48217D01*
X-29902Y-48265D01*
X-29854Y-48361D01*
X-29790Y-48456D01*
X-29726Y-48584D01*
X-29647Y-48727D01*
X-29487Y-49046D01*
Y-49030D01*
Y-49015D01*
Y-48919D01*
Y-48775D01*
Y-48584D01*
X-29503Y-48361D01*
Y-48105D01*
Y-47834D01*
Y-47547D01*
Y-47531D01*
Y-47515D01*
Y-47467D01*
Y-47403D01*
Y-47260D01*
Y-47052D01*
Y-46829D01*
Y-46574D01*
Y-46032D01*
Y-39587D01*
Y-39571D01*
Y-39555D01*
X-29471Y-39476D01*
Y-39460D01*
X-29439Y-39444D01*
X-29407Y-39412D01*
X-29344Y-39380D01*
X-29328Y-39364D01*
X-29280Y-39348D01*
X-29200Y-39332D01*
X-29104Y-39316D01*
X-29072D01*
X-28993Y-39300D01*
X-28865Y-39284D01*
X-28578D01*
X-28466Y-39300D01*
D02*
G37*
G36*
X-16423Y-39268D02*
X-16279Y-39284D01*
X-16248D01*
X-16184Y-39300D01*
X-16104Y-39316D01*
X-16056Y-39364D01*
X-16040Y-39380D01*
X-16024Y-39412D01*
X-16008Y-39476D01*
Y-39555D01*
Y-39571D01*
X-16024Y-39651D01*
X-16040Y-39747D01*
X-16088Y-39890D01*
X-19964Y-50929D01*
Y-50945D01*
X-19980Y-50977D01*
X-20060Y-51088D01*
X-20076Y-51104D01*
X-20108Y-51120D01*
X-20172Y-51152D01*
X-20251Y-51184D01*
X-20267D01*
X-20331Y-51200D01*
X-20427Y-51216D01*
X-20538Y-51232D01*
X-20650D01*
X-20794Y-51248D01*
X-21208D01*
X-21336Y-51232D01*
X-21511D01*
X-21591Y-51216D01*
X-21607D01*
X-21655Y-51200D01*
X-21783Y-51184D01*
X-21799D01*
X-21830Y-51168D01*
X-21926Y-51136D01*
Y-51120D01*
X-21958Y-51104D01*
X-22006Y-51040D01*
Y-51024D01*
X-22022Y-51008D01*
X-22054Y-50913D01*
X-25946Y-39874D01*
Y-39859D01*
X-25962Y-39843D01*
X-25978Y-39763D01*
X-26010Y-39651D01*
X-26026Y-39555D01*
Y-39539D01*
X-26010Y-39476D01*
X-25994Y-39428D01*
X-25946Y-39364D01*
X-25930Y-39348D01*
X-25882Y-39332D01*
X-25802Y-39300D01*
X-25691Y-39284D01*
X-25659D01*
X-25611Y-39268D01*
X-25547D01*
X-25388Y-39252D01*
X-24909D01*
X-24781Y-39268D01*
X-24750D01*
X-24686Y-39284D01*
X-24606Y-39300D01*
X-24542Y-39332D01*
X-24526D01*
X-24494Y-39348D01*
X-24462Y-39380D01*
X-24430Y-39428D01*
X-24415Y-39444D01*
X-24399Y-39460D01*
X-24367Y-39508D01*
X-24335Y-39571D01*
X-20921Y-49573D01*
X-17603Y-39587D01*
Y-39571D01*
X-17587Y-39523D01*
X-17556Y-39428D01*
X-17540Y-39412D01*
X-17524Y-39396D01*
X-17428Y-39332D01*
X-17412Y-39316D01*
X-17364Y-39300D01*
X-17284Y-39284D01*
X-17173Y-39268D01*
X-17141D01*
X-17045Y-39252D01*
X-16567D01*
X-16423Y-39268D01*
D02*
G37*
G36*
X93066Y-39316D02*
X93098Y-39348D01*
X93114D01*
X93130Y-39380D01*
X93162Y-39412D01*
X93194Y-39460D01*
X93210Y-39476D01*
X93225Y-39508D01*
X93242Y-39587D01*
X93257Y-39667D01*
Y-39683D01*
X93273Y-39747D01*
X93289Y-39843D01*
Y-39970D01*
Y-40002D01*
Y-40066D01*
X93273Y-40177D01*
X93257Y-40273D01*
Y-40289D01*
X93242Y-40337D01*
X93194Y-40465D01*
Y-40481D01*
X93178Y-40512D01*
X93146Y-40544D01*
X93098Y-40576D01*
X93082D01*
X93066Y-40592D01*
X92970Y-40608D01*
X88329D01*
Y-44357D01*
X92364D01*
X92412Y-44373D01*
X92444Y-44405D01*
X92460Y-44420D01*
X92476Y-44436D01*
X92540Y-44532D01*
X92556Y-44548D01*
X92571Y-44580D01*
X92587Y-44644D01*
X92603Y-44724D01*
Y-44739D01*
X92619Y-44803D01*
X92635Y-44899D01*
Y-45027D01*
Y-45059D01*
Y-45122D01*
X92619Y-45218D01*
X92603Y-45314D01*
Y-45330D01*
X92587Y-45378D01*
X92540Y-45505D01*
Y-45521D01*
X92524Y-45537D01*
X92444Y-45601D01*
X92428D01*
X92412Y-45617D01*
X92316Y-45633D01*
X88329D01*
Y-49892D01*
X93082D01*
X93130Y-49908D01*
X93162Y-49940D01*
X93178D01*
X93194Y-49971D01*
X93242Y-50003D01*
X93273Y-50051D01*
X93289Y-50067D01*
X93305Y-50099D01*
X93321Y-50179D01*
X93337Y-50259D01*
Y-50275D01*
X93353Y-50338D01*
X93369Y-50434D01*
Y-50562D01*
Y-50594D01*
Y-50657D01*
X93353Y-50753D01*
X93337Y-50849D01*
Y-50865D01*
X93321Y-50929D01*
X93305Y-50992D01*
X93273Y-51056D01*
Y-51072D01*
X93242Y-51104D01*
X93210Y-51136D01*
X93162Y-51168D01*
X93146D01*
X93130Y-51184D01*
X93034Y-51200D01*
X87292D01*
X87196Y-51184D01*
X87068Y-51152D01*
X86925Y-51072D01*
X86893Y-51040D01*
X86877Y-51008D01*
X86845Y-50960D01*
X86813Y-50881D01*
X86781Y-50801D01*
X86765Y-50689D01*
X86749Y-50562D01*
Y-39954D01*
Y-39938D01*
Y-39890D01*
X86765Y-39827D01*
Y-39747D01*
X86829Y-39587D01*
X86861Y-39508D01*
X86925Y-39444D01*
X86941D01*
X86957Y-39428D01*
X87052Y-39364D01*
X87180Y-39316D01*
X87324Y-39300D01*
X93018D01*
X93066Y-39316D01*
D02*
G37*
G36*
X18957D02*
X18989Y-39348D01*
X19005D01*
X19021Y-39380D01*
X19052Y-39412D01*
X19084Y-39460D01*
X19100Y-39476D01*
X19116Y-39508D01*
X19132Y-39587D01*
X19148Y-39667D01*
Y-39683D01*
X19164Y-39747D01*
X19180Y-39843D01*
Y-39970D01*
Y-40002D01*
Y-40066D01*
X19164Y-40177D01*
X19148Y-40273D01*
Y-40289D01*
X19132Y-40337D01*
X19084Y-40465D01*
Y-40481D01*
X19068Y-40512D01*
X19037Y-40544D01*
X18989Y-40576D01*
X18973D01*
X18957Y-40592D01*
X18861Y-40608D01*
X14219D01*
Y-44357D01*
X18255D01*
X18303Y-44373D01*
X18335Y-44405D01*
X18351Y-44420D01*
X18367Y-44436D01*
X18430Y-44532D01*
X18446Y-44548D01*
X18462Y-44580D01*
X18478Y-44644D01*
X18494Y-44724D01*
Y-44739D01*
X18510Y-44803D01*
X18526Y-44899D01*
Y-45027D01*
Y-45059D01*
Y-45122D01*
X18510Y-45218D01*
X18494Y-45314D01*
Y-45330D01*
X18478Y-45378D01*
X18430Y-45505D01*
Y-45521D01*
X18414Y-45537D01*
X18335Y-45601D01*
X18319D01*
X18303Y-45617D01*
X18207Y-45633D01*
X14219D01*
Y-49892D01*
X18973D01*
X19021Y-49908D01*
X19052Y-49940D01*
X19068D01*
X19084Y-49971D01*
X19132Y-50003D01*
X19164Y-50051D01*
X19180Y-50067D01*
X19196Y-50099D01*
X19212Y-50179D01*
X19228Y-50259D01*
Y-50275D01*
X19244Y-50338D01*
X19260Y-50434D01*
Y-50562D01*
Y-50594D01*
Y-50657D01*
X19244Y-50753D01*
X19228Y-50849D01*
Y-50865D01*
X19212Y-50929D01*
X19196Y-50992D01*
X19164Y-51056D01*
Y-51072D01*
X19132Y-51104D01*
X19100Y-51136D01*
X19052Y-51168D01*
X19037D01*
X19021Y-51184D01*
X18925Y-51200D01*
X13182D01*
X13087Y-51184D01*
X12959Y-51152D01*
X12816Y-51072D01*
X12784Y-51040D01*
X12768Y-51008D01*
X12736Y-50960D01*
X12704Y-50881D01*
X12672Y-50801D01*
X12656Y-50689D01*
X12640Y-50562D01*
Y-39954D01*
Y-39938D01*
Y-39890D01*
X12656Y-39827D01*
Y-39747D01*
X12720Y-39587D01*
X12752Y-39508D01*
X12816Y-39444D01*
X12831D01*
X12847Y-39428D01*
X12943Y-39364D01*
X13071Y-39316D01*
X13214Y-39300D01*
X18909D01*
X18957Y-39316D01*
D02*
G37*
G36*
X5765Y-39268D02*
X5877Y-39284D01*
X5909D01*
X5972Y-39300D01*
X6052Y-39316D01*
X6132Y-39332D01*
X6148D01*
X6180Y-39348D01*
X6228Y-39380D01*
X6260Y-39428D01*
X6276Y-39444D01*
X6291Y-39460D01*
X6307Y-39508D01*
Y-39555D01*
Y-49828D01*
X10614D01*
X10662Y-49844D01*
X10710Y-49876D01*
X10726Y-49892D01*
X10742Y-49908D01*
X10806Y-50003D01*
X10822Y-50019D01*
X10838Y-50051D01*
X10854Y-50115D01*
X10869Y-50211D01*
Y-50227D01*
X10885Y-50291D01*
X10901Y-50386D01*
Y-50514D01*
Y-50546D01*
Y-50626D01*
X10885Y-50721D01*
X10869Y-50833D01*
Y-50849D01*
X10854Y-50897D01*
X10838Y-50960D01*
X10806Y-51040D01*
Y-51056D01*
X10790Y-51088D01*
X10710Y-51168D01*
X10694D01*
X10678Y-51184D01*
X10630Y-51200D01*
X5271D01*
X5175Y-51184D01*
X5047Y-51152D01*
X4904Y-51072D01*
X4872Y-51040D01*
X4856Y-51008D01*
X4824Y-50960D01*
X4792Y-50881D01*
X4760Y-50801D01*
X4744Y-50689D01*
X4728Y-50562D01*
Y-39555D01*
Y-39539D01*
Y-39508D01*
X4760Y-39428D01*
Y-39412D01*
X4792Y-39396D01*
X4824Y-39364D01*
X4888Y-39332D01*
X4904D01*
X4952Y-39316D01*
X5031Y-39300D01*
X5127Y-39284D01*
X5159D01*
X5239Y-39268D01*
X5350Y-39252D01*
X5638D01*
X5765Y-39268D01*
D02*
G37*
G36*
X-2147D02*
X-2035Y-39284D01*
X-2003D01*
X-1939Y-39300D01*
X-1860Y-39316D01*
X-1780Y-39332D01*
X-1764D01*
X-1732Y-39348D01*
X-1684Y-39380D01*
X-1652Y-39428D01*
X-1636Y-39444D01*
X-1620Y-39460D01*
X-1604Y-39508D01*
Y-39555D01*
Y-49828D01*
X2702D01*
X2750Y-49844D01*
X2798Y-49876D01*
X2814Y-49892D01*
X2830Y-49908D01*
X2894Y-50003D01*
X2910Y-50019D01*
X2926Y-50051D01*
X2942Y-50115D01*
X2958Y-50211D01*
Y-50227D01*
X2974Y-50291D01*
X2990Y-50386D01*
Y-50514D01*
Y-50546D01*
Y-50626D01*
X2974Y-50721D01*
X2958Y-50833D01*
Y-50849D01*
X2942Y-50897D01*
X2926Y-50960D01*
X2894Y-51040D01*
Y-51056D01*
X2878Y-51088D01*
X2798Y-51168D01*
X2782D01*
X2766Y-51184D01*
X2718Y-51200D01*
X-2641D01*
X-2737Y-51184D01*
X-2864Y-51152D01*
X-3008Y-51072D01*
X-3040Y-51040D01*
X-3056Y-51008D01*
X-3088Y-50960D01*
X-3120Y-50881D01*
X-3152Y-50801D01*
X-3168Y-50689D01*
X-3183Y-50562D01*
Y-39555D01*
Y-39539D01*
Y-39508D01*
X-3152Y-39428D01*
Y-39412D01*
X-3120Y-39396D01*
X-3088Y-39364D01*
X-3024Y-39332D01*
X-3008D01*
X-2960Y-39316D01*
X-2880Y-39300D01*
X-2785Y-39284D01*
X-2753D01*
X-2673Y-39268D01*
X-2561Y-39252D01*
X-2274D01*
X-2147Y-39268D01*
D02*
G37*
G36*
X-71024Y-39268D02*
X-70912Y-39284D01*
X-70880D01*
X-70817Y-39300D01*
X-70737Y-39316D01*
X-70657Y-39332D01*
X-70641D01*
X-70609Y-39348D01*
X-70561Y-39380D01*
X-70529Y-39428D01*
X-70514Y-39444D01*
X-70498Y-39460D01*
X-70482Y-39508D01*
Y-39555D01*
Y-49828D01*
X-66175D01*
X-66127Y-49844D01*
X-66079Y-49876D01*
X-66063Y-49892D01*
X-66047Y-49908D01*
X-65983Y-50003D01*
X-65967Y-50019D01*
X-65951Y-50051D01*
X-65936Y-50115D01*
X-65920Y-50211D01*
Y-50227D01*
X-65904Y-50291D01*
X-65888Y-50386D01*
Y-50514D01*
Y-50546D01*
Y-50626D01*
X-65904Y-50721D01*
X-65920Y-50833D01*
Y-50849D01*
X-65936Y-50897D01*
X-65951Y-50960D01*
X-65983Y-51040D01*
Y-51056D01*
X-65999Y-51088D01*
X-66079Y-51168D01*
X-66095D01*
X-66111Y-51184D01*
X-66159Y-51200D01*
X-71519D01*
X-71614Y-51184D01*
X-71742Y-51152D01*
X-71885Y-51072D01*
X-71917Y-51040D01*
X-71933Y-51008D01*
X-71965Y-50960D01*
X-71997Y-50881D01*
X-72029Y-50801D01*
X-72045Y-50689D01*
X-72061Y-50562D01*
Y-39555D01*
Y-39539D01*
Y-39508D01*
X-72029Y-39428D01*
Y-39412D01*
X-71997Y-39396D01*
X-71965Y-39364D01*
X-71901Y-39332D01*
X-71885D01*
X-71838Y-39316D01*
X-71758Y-39300D01*
X-71662Y-39284D01*
X-71630D01*
X-71550Y-39268D01*
X-71439Y-39252D01*
X-71152D01*
X-71024Y-39268D01*
D02*
G37*
G36*
X68294Y-39268D02*
X68326D01*
X68405Y-39284D01*
X68517Y-39300D01*
X68613Y-39332D01*
X68629D01*
X68677Y-39348D01*
X68740Y-39380D01*
X68788Y-39428D01*
X68804Y-39444D01*
X68836Y-39476D01*
X68868Y-39523D01*
X68900Y-39603D01*
X72888Y-50641D01*
Y-50657D01*
X72904Y-50673D01*
X72936Y-50753D01*
X72951Y-50865D01*
X72968Y-50977D01*
Y-50992D01*
X72951Y-51040D01*
X72936Y-51104D01*
X72888Y-51152D01*
X72872D01*
X72840Y-51184D01*
X72760Y-51200D01*
X72649Y-51216D01*
X72617D01*
X72537Y-51232D01*
X72393Y-51248D01*
X71883D01*
X71739Y-51232D01*
X71707D01*
X71644Y-51216D01*
X71564D01*
X71484Y-51200D01*
X71468D01*
X71436Y-51184D01*
X71356Y-51120D01*
Y-51104D01*
X71325Y-51072D01*
X71277Y-50977D01*
X70256Y-48073D01*
X65311D01*
X64338Y-50929D01*
Y-50945D01*
X64322Y-50977D01*
X64258Y-51088D01*
X64226Y-51120D01*
X64194Y-51136D01*
X64131Y-51168D01*
X64115D01*
X64067Y-51184D01*
X63987Y-51200D01*
X63875Y-51216D01*
X63843D01*
X63764Y-51232D01*
X63636Y-51248D01*
X63317D01*
X63173Y-51232D01*
X63030Y-51216D01*
X62998D01*
X62934Y-51200D01*
X62854Y-51184D01*
X62791Y-51152D01*
X62775Y-51136D01*
X62759Y-51104D01*
X62743Y-51040D01*
X62727Y-50960D01*
Y-50945D01*
X62743Y-50865D01*
X62759Y-50769D01*
X62807Y-50626D01*
X66794Y-39587D01*
Y-39571D01*
X66826Y-39523D01*
X66890Y-39428D01*
X66906Y-39412D01*
X66938Y-39396D01*
X66986Y-39364D01*
X67066Y-39332D01*
X67081Y-39316D01*
X67145Y-39300D01*
X67241Y-39284D01*
X67353Y-39268D01*
X67385D01*
X67480Y-39252D01*
X68134D01*
X68294Y-39268D01*
D02*
G37*
G36*
X57383Y-39316D02*
X57622Y-39332D01*
X57734D01*
X57798Y-39348D01*
X57973Y-39364D01*
X58165Y-39380D01*
X58197D01*
X58276Y-39396D01*
X58404Y-39428D01*
X58580Y-39476D01*
X58755Y-39523D01*
X58962Y-39587D01*
X59377Y-39763D01*
X59393Y-39779D01*
X59473Y-39811D01*
X59569Y-39859D01*
X59680Y-39938D01*
X59824Y-40034D01*
X59967Y-40146D01*
X60111Y-40273D01*
X60254Y-40417D01*
X60270Y-40433D01*
X60318Y-40481D01*
X60382Y-40560D01*
X60462Y-40672D01*
X60542Y-40800D01*
X60637Y-40959D01*
X60717Y-41119D01*
X60797Y-41310D01*
X60813Y-41326D01*
X60829Y-41406D01*
X60861Y-41501D01*
X60892Y-41645D01*
X60924Y-41804D01*
X60956Y-41996D01*
X60988Y-42219D01*
Y-42443D01*
Y-42474D01*
Y-42538D01*
X60972Y-42650D01*
Y-42793D01*
X60940Y-42969D01*
X60908Y-43144D01*
X60876Y-43320D01*
X60813Y-43511D01*
Y-43527D01*
X60781Y-43591D01*
X60749Y-43687D01*
X60701Y-43798D01*
X60637Y-43926D01*
X60557Y-44070D01*
X60350Y-44357D01*
X60334Y-44373D01*
X60302Y-44420D01*
X60238Y-44484D01*
X60143Y-44564D01*
X60031Y-44660D01*
X59919Y-44771D01*
X59776Y-44867D01*
X59616Y-44979D01*
X59600Y-44995D01*
X59537Y-45027D01*
X59457Y-45075D01*
X59345Y-45138D01*
X59202Y-45202D01*
X59042Y-45282D01*
X58867Y-45362D01*
X58675Y-45425D01*
X58691D01*
X58723Y-45441D01*
X58787Y-45473D01*
X58851Y-45521D01*
X59026Y-45617D01*
X59218Y-45760D01*
X59233Y-45776D01*
X59265Y-45792D01*
X59297Y-45840D01*
X59361Y-45888D01*
X59505Y-46048D01*
X59664Y-46239D01*
X59680Y-46255D01*
X59696Y-46287D01*
X59744Y-46351D01*
X59792Y-46414D01*
X59856Y-46510D01*
X59919Y-46622D01*
X60047Y-46877D01*
X60063Y-46893D01*
X60079Y-46941D01*
X60111Y-47005D01*
X60159Y-47100D01*
X60223Y-47228D01*
X60286Y-47355D01*
X60414Y-47675D01*
X61483Y-50291D01*
Y-50307D01*
X61499Y-50338D01*
X61530Y-50402D01*
X61546Y-50466D01*
X61610Y-50626D01*
X61626Y-50689D01*
X61642Y-50753D01*
X61658Y-50769D01*
X61674Y-50833D01*
X61690Y-50897D01*
Y-50960D01*
Y-50977D01*
Y-51008D01*
X61658Y-51104D01*
X61626Y-51136D01*
X61594Y-51152D01*
X61530Y-51184D01*
X61515D01*
X61467Y-51200D01*
X61387D01*
X61275Y-51216D01*
X61243D01*
X61164Y-51232D01*
X61020Y-51248D01*
X60701D01*
X60573Y-51232D01*
X60446Y-51216D01*
X60430D01*
X60366Y-51200D01*
X60286Y-51184D01*
X60206Y-51168D01*
X60191D01*
X60159Y-51136D01*
X60111Y-51120D01*
X60063Y-51072D01*
Y-51056D01*
X60031Y-51024D01*
X60015Y-50960D01*
X59983Y-50881D01*
X58883Y-48073D01*
X58867Y-48057D01*
X58851Y-47994D01*
X58819Y-47898D01*
X58755Y-47786D01*
X58707Y-47643D01*
X58627Y-47499D01*
X58484Y-47196D01*
X58468Y-47180D01*
X58452Y-47132D01*
X58404Y-47052D01*
X58340Y-46957D01*
X58181Y-46733D01*
X57989Y-46510D01*
X57973Y-46494D01*
X57941Y-46462D01*
X57878Y-46414D01*
X57798Y-46351D01*
X57702Y-46271D01*
X57590Y-46207D01*
X57319Y-46063D01*
X57303Y-46048D01*
X57256Y-46032D01*
X57176Y-46000D01*
X57064Y-45968D01*
X56921Y-45936D01*
X56761Y-45920D01*
X56586Y-45888D01*
X55341D01*
Y-50960D01*
Y-50977D01*
Y-51008D01*
X55325Y-51056D01*
X55294Y-51104D01*
X55278D01*
X55262Y-51136D01*
X55214Y-51152D01*
X55150Y-51184D01*
X55134D01*
X55086Y-51200D01*
X55022D01*
X54911Y-51216D01*
X54879D01*
X54815Y-51232D01*
X54703Y-51248D01*
X54416D01*
X54289Y-51232D01*
X54161Y-51216D01*
X54145D01*
X54081Y-51200D01*
X54001D01*
X53922Y-51184D01*
X53906D01*
X53874Y-51168D01*
X53826Y-51136D01*
X53794Y-51104D01*
Y-51088D01*
X53778Y-51056D01*
X53762Y-50960D01*
Y-39954D01*
Y-39938D01*
Y-39890D01*
X53778Y-39827D01*
Y-39747D01*
X53842Y-39587D01*
X53874Y-39508D01*
X53938Y-39444D01*
X53954D01*
X53970Y-39428D01*
X54065Y-39364D01*
X54193Y-39316D01*
X54337Y-39300D01*
X57128D01*
X57383Y-39316D01*
D02*
G37*
G36*
X47174Y-39268D02*
X47206D01*
X47286Y-39284D01*
X47398Y-39300D01*
X47493Y-39332D01*
X47509D01*
X47557Y-39348D01*
X47621Y-39380D01*
X47669Y-39428D01*
X47685Y-39444D01*
X47717Y-39476D01*
X47749Y-39523D01*
X47780Y-39603D01*
X51768Y-50641D01*
Y-50657D01*
X51784Y-50673D01*
X51816Y-50753D01*
X51832Y-50865D01*
X51848Y-50977D01*
Y-50992D01*
X51832Y-51040D01*
X51816Y-51104D01*
X51768Y-51152D01*
X51752D01*
X51720Y-51184D01*
X51641Y-51200D01*
X51529Y-51216D01*
X51497D01*
X51417Y-51232D01*
X51274Y-51248D01*
X50763D01*
X50620Y-51232D01*
X50588D01*
X50524Y-51216D01*
X50444D01*
X50365Y-51200D01*
X50349D01*
X50317Y-51184D01*
X50237Y-51120D01*
Y-51104D01*
X50205Y-51072D01*
X50157Y-50977D01*
X49136Y-48073D01*
X44191D01*
X43218Y-50929D01*
Y-50945D01*
X43203Y-50977D01*
X43139Y-51088D01*
X43107Y-51120D01*
X43075Y-51136D01*
X43011Y-51168D01*
X42995D01*
X42947Y-51184D01*
X42868Y-51200D01*
X42756Y-51216D01*
X42724D01*
X42644Y-51232D01*
X42517Y-51248D01*
X42198D01*
X42054Y-51232D01*
X41911Y-51216D01*
X41879D01*
X41815Y-51200D01*
X41735Y-51184D01*
X41671Y-51152D01*
X41655Y-51136D01*
X41639Y-51104D01*
X41623Y-51040D01*
X41607Y-50960D01*
Y-50945D01*
X41623Y-50865D01*
X41639Y-50769D01*
X41687Y-50626D01*
X45675Y-39587D01*
Y-39571D01*
X45707Y-39523D01*
X45771Y-39428D01*
X45787Y-39412D01*
X45819Y-39396D01*
X45866Y-39364D01*
X45946Y-39332D01*
X45962Y-39316D01*
X46026Y-39300D01*
X46122Y-39284D01*
X46233Y-39268D01*
X46265D01*
X46361Y-39252D01*
X47015D01*
X47174Y-39268D01*
D02*
G37*
G36*
X-9771D02*
X-9740D01*
X-9660Y-39284D01*
X-9548Y-39300D01*
X-9452Y-39332D01*
X-9436D01*
X-9389Y-39348D01*
X-9325Y-39380D01*
X-9277Y-39428D01*
X-9261Y-39444D01*
X-9229Y-39476D01*
X-9197Y-39523D01*
X-9165Y-39603D01*
X-5177Y-50641D01*
Y-50657D01*
X-5161Y-50673D01*
X-5130Y-50753D01*
X-5114Y-50865D01*
X-5098Y-50977D01*
Y-50992D01*
X-5114Y-51040D01*
X-5130Y-51104D01*
X-5177Y-51152D01*
X-5193D01*
X-5225Y-51184D01*
X-5305Y-51200D01*
X-5417Y-51216D01*
X-5449D01*
X-5528Y-51232D01*
X-5672Y-51248D01*
X-6182D01*
X-6326Y-51232D01*
X-6358D01*
X-6422Y-51216D01*
X-6501D01*
X-6581Y-51200D01*
X-6597D01*
X-6629Y-51184D01*
X-6709Y-51120D01*
Y-51104D01*
X-6741Y-51072D01*
X-6788Y-50977D01*
X-7809Y-48073D01*
X-12754D01*
X-13727Y-50929D01*
Y-50945D01*
X-13743Y-50977D01*
X-13807Y-51088D01*
X-13839Y-51120D01*
X-13871Y-51136D01*
X-13935Y-51168D01*
X-13951D01*
X-13998Y-51184D01*
X-14078Y-51200D01*
X-14190Y-51216D01*
X-14222D01*
X-14302Y-51232D01*
X-14429Y-51248D01*
X-14748D01*
X-14892Y-51232D01*
X-15035Y-51216D01*
X-15067D01*
X-15131Y-51200D01*
X-15211Y-51184D01*
X-15274Y-51152D01*
X-15290Y-51136D01*
X-15306Y-51104D01*
X-15322Y-51040D01*
X-15338Y-50960D01*
Y-50945D01*
X-15322Y-50865D01*
X-15306Y-50769D01*
X-15259Y-50626D01*
X-11271Y-39587D01*
Y-39571D01*
X-11239Y-39523D01*
X-11175Y-39428D01*
X-11159Y-39412D01*
X-11127Y-39396D01*
X-11079Y-39364D01*
X-11000Y-39332D01*
X-10984Y-39316D01*
X-10920Y-39300D01*
X-10824Y-39284D01*
X-10712Y-39268D01*
X-10681D01*
X-10585Y-39252D01*
X-9931D01*
X-9771Y-39268D01*
D02*
G37*
G36*
X-63112Y-39268D02*
X-63000Y-39284D01*
X-62969D01*
X-62905Y-39300D01*
X-62825Y-39316D01*
X-62745Y-39332D01*
X-62729D01*
X-62698Y-39348D01*
X-62650Y-39380D01*
X-62618Y-39428D01*
X-62602Y-39444D01*
X-62586Y-39460D01*
X-62570Y-39508D01*
Y-39555D01*
Y-50960D01*
Y-50977D01*
Y-51008D01*
X-62586Y-51056D01*
X-62618Y-51104D01*
X-62650Y-51136D01*
X-62681Y-51152D01*
X-62745Y-51184D01*
X-62761D01*
X-62809Y-51200D01*
X-62889D01*
X-63000Y-51216D01*
X-63032D01*
X-63096Y-51232D01*
X-63208Y-51248D01*
X-63495D01*
X-63623Y-51232D01*
X-63750Y-51216D01*
X-63766D01*
X-63830Y-51200D01*
X-63910D01*
X-63990Y-51184D01*
X-64005D01*
X-64037Y-51168D01*
X-64085Y-51136D01*
X-64117Y-51104D01*
Y-51088D01*
X-64133Y-51056D01*
X-64149Y-50960D01*
Y-39555D01*
Y-39539D01*
Y-39508D01*
X-64117Y-39428D01*
X-64101Y-39412D01*
X-64085Y-39396D01*
X-64037Y-39364D01*
X-63974Y-39332D01*
X-63958D01*
X-63910Y-39316D01*
X-63830Y-39300D01*
X-63734Y-39284D01*
X-63702D01*
X-63623Y-39268D01*
X-63511Y-39252D01*
X-63240D01*
X-63112Y-39268D01*
D02*
G37*
G36*
X-75761D02*
X-75650Y-39284D01*
X-75618D01*
X-75554Y-39300D01*
X-75474Y-39316D01*
X-75395Y-39332D01*
X-75379D01*
X-75347Y-39348D01*
X-75299Y-39380D01*
X-75267Y-39428D01*
X-75251Y-39444D01*
X-75235Y-39460D01*
X-75219Y-39508D01*
Y-39555D01*
Y-50960D01*
Y-50977D01*
Y-51008D01*
X-75235Y-51056D01*
X-75267Y-51104D01*
X-75299Y-51136D01*
X-75331Y-51152D01*
X-75395Y-51184D01*
X-75411D01*
X-75458Y-51200D01*
X-75538D01*
X-75650Y-51216D01*
X-75682D01*
X-75746Y-51232D01*
X-75857Y-51248D01*
X-76144D01*
X-76272Y-51232D01*
X-76399Y-51216D01*
X-76416D01*
X-76479Y-51200D01*
X-76559D01*
X-76639Y-51184D01*
X-76655D01*
X-76687Y-51168D01*
X-76734Y-51136D01*
X-76766Y-51104D01*
Y-51088D01*
X-76782Y-51056D01*
X-76798Y-50960D01*
Y-39555D01*
Y-39539D01*
Y-39508D01*
X-76766Y-39428D01*
X-76750Y-39412D01*
X-76734Y-39396D01*
X-76687Y-39364D01*
X-76623Y-39332D01*
X-76607D01*
X-76559Y-39316D01*
X-76479Y-39300D01*
X-76384Y-39284D01*
X-76352D01*
X-76272Y-39268D01*
X-76160Y-39252D01*
X-75889D01*
X-75761Y-39268D01*
D02*
G37*
G36*
X-44274Y-39141D02*
X-44146D01*
X-44003Y-39157D01*
X-43827Y-39173D01*
X-43476Y-39220D01*
X-43093Y-39300D01*
X-42711Y-39396D01*
X-42328Y-39523D01*
X-42312D01*
X-42280Y-39539D01*
X-42232Y-39571D01*
X-42168Y-39603D01*
X-41993Y-39683D01*
X-41754Y-39811D01*
X-41498Y-39986D01*
X-41227Y-40177D01*
X-40956Y-40417D01*
X-40701Y-40688D01*
Y-40704D01*
X-40669Y-40720D01*
X-40637Y-40768D01*
X-40589Y-40816D01*
X-40477Y-40991D01*
X-40334Y-41198D01*
X-40174Y-41470D01*
X-40015Y-41789D01*
X-39855Y-42155D01*
X-39728Y-42554D01*
Y-42570D01*
X-39712Y-42602D01*
X-39696Y-42666D01*
X-39680Y-42746D01*
X-39648Y-42857D01*
X-39632Y-42985D01*
X-39600Y-43128D01*
X-39568Y-43288D01*
X-39536Y-43479D01*
X-39504Y-43671D01*
X-39457Y-44102D01*
X-39425Y-44596D01*
X-39409Y-45122D01*
Y-45138D01*
Y-45186D01*
Y-45266D01*
Y-45362D01*
X-39425Y-45489D01*
Y-45633D01*
X-39441Y-45808D01*
X-39457Y-45984D01*
X-39488Y-46382D01*
X-39552Y-46829D01*
X-39648Y-47276D01*
X-39760Y-47722D01*
Y-47738D01*
X-39776Y-47770D01*
X-39792Y-47834D01*
X-39823Y-47914D01*
X-39855Y-48010D01*
X-39903Y-48137D01*
X-40015Y-48408D01*
X-40158Y-48711D01*
X-40334Y-49046D01*
X-40541Y-49381D01*
X-40781Y-49700D01*
Y-49716D01*
X-40812Y-49732D01*
X-40908Y-49828D01*
X-41052Y-49988D01*
X-41243Y-50163D01*
X-41482Y-50354D01*
X-41769Y-50562D01*
X-42105Y-50769D01*
X-42471Y-50945D01*
X-42487D01*
X-42519Y-50960D01*
X-42567Y-50977D01*
X-42647Y-51008D01*
X-42743Y-51040D01*
X-42870Y-51088D01*
X-42998Y-51120D01*
X-43157Y-51152D01*
X-43492Y-51232D01*
X-43907Y-51311D01*
X-44354Y-51359D01*
X-44848Y-51375D01*
X-45071D01*
X-45183Y-51359D01*
X-45327D01*
X-45470Y-51343D01*
X-45646Y-51327D01*
X-46013Y-51280D01*
X-46395Y-51200D01*
X-46794Y-51104D01*
X-47177Y-50977D01*
X-47193D01*
X-47225Y-50960D01*
X-47273Y-50929D01*
X-47337Y-50897D01*
X-47512Y-50817D01*
X-47735Y-50689D01*
X-47990Y-50514D01*
X-48262Y-50322D01*
X-48533Y-50099D01*
X-48788Y-49828D01*
Y-49812D01*
X-48820Y-49796D01*
X-48852Y-49748D01*
X-48900Y-49684D01*
X-49011Y-49525D01*
X-49139Y-49302D01*
X-49299Y-49030D01*
X-49458Y-48711D01*
X-49618Y-48329D01*
X-49745Y-47930D01*
Y-47914D01*
X-49761Y-47882D01*
X-49777Y-47818D01*
X-49793Y-47722D01*
X-49809Y-47627D01*
X-49841Y-47499D01*
X-49873Y-47340D01*
X-49889Y-47180D01*
X-49921Y-46989D01*
X-49953Y-46797D01*
X-50000Y-46351D01*
X-50032Y-45856D01*
X-50048Y-45330D01*
Y-45314D01*
Y-45266D01*
Y-45186D01*
Y-45090D01*
X-50032Y-44963D01*
Y-44819D01*
X-50016Y-44660D01*
X-50000Y-44468D01*
X-49968Y-44086D01*
X-49905Y-43639D01*
X-49825Y-43208D01*
X-49713Y-42762D01*
Y-42746D01*
X-49697Y-42714D01*
X-49681Y-42650D01*
X-49649Y-42570D01*
X-49618Y-42474D01*
X-49570Y-42363D01*
X-49458Y-42092D01*
X-49314Y-41789D01*
X-49155Y-41454D01*
X-48948Y-41135D01*
X-48708Y-40816D01*
X-48692Y-40800D01*
X-48676Y-40784D01*
X-48581Y-40688D01*
X-48437Y-40528D01*
X-48230Y-40353D01*
X-47990Y-40162D01*
X-47703Y-39954D01*
X-47368Y-39747D01*
X-47002Y-39571D01*
X-46986D01*
X-46954Y-39555D01*
X-46890Y-39523D01*
X-46826Y-39508D01*
X-46730Y-39460D01*
X-46603Y-39428D01*
X-46475Y-39396D01*
X-46316Y-39348D01*
X-46156Y-39300D01*
X-45965Y-39268D01*
X-45566Y-39188D01*
X-45103Y-39141D01*
X-44609Y-39125D01*
X-44385D01*
X-44274Y-39141D01*
D02*
G37*
G36*
X11568Y81812D02*
X12151Y81763D01*
X12832Y81714D01*
X14192Y81471D01*
X14289D01*
X14484Y81423D01*
X14872Y81326D01*
X15310Y81228D01*
X15796Y81083D01*
X16330Y80937D01*
X17448Y80597D01*
X17496D01*
X17691Y80500D01*
X17934Y80402D01*
X18274Y80305D01*
X19051Y79965D01*
X19829Y79528D01*
X19877D01*
X19974Y79431D01*
X20169Y79333D01*
X20363Y79236D01*
X20800Y78896D01*
X20995Y78750D01*
X21141Y78604D01*
X21189Y78556D01*
X21335Y78362D01*
X21529Y78119D01*
X21675Y77779D01*
X21724Y77681D01*
X21772Y77438D01*
X21821Y77001D01*
Y76418D01*
Y76321D01*
Y76078D01*
X21772Y75786D01*
X21724Y75446D01*
Y75398D01*
X21675Y75203D01*
X21627Y75009D01*
X21578Y74766D01*
Y74717D01*
X21529Y74620D01*
X21432Y74523D01*
X21286Y74426D01*
X21189Y74377D01*
X20946Y74329D01*
X20898D01*
X20655Y74377D01*
X20315Y74523D01*
X19780Y74815D01*
X19732Y74863D01*
X19634Y74912D01*
X19489Y75009D01*
X19246Y75155D01*
X18954Y75349D01*
X18565Y75543D01*
X18177Y75738D01*
X17691Y75981D01*
X17642Y76029D01*
X17448Y76078D01*
X17156Y76224D01*
X16816Y76369D01*
X16330Y76564D01*
X15796Y76758D01*
X15213Y77001D01*
X14532Y77195D01*
X14435Y77244D01*
X14192Y77293D01*
X13852Y77390D01*
X13318Y77487D01*
X12686Y77584D01*
X11957Y77633D01*
X11131Y77730D01*
X9722D01*
X9430Y77681D01*
X9139D01*
X8410Y77584D01*
X7584Y77438D01*
X6661Y77244D01*
X5738Y77001D01*
X4814Y76612D01*
X4766D01*
X4717Y76564D01*
X4426Y76418D01*
X3988Y76175D01*
X3405Y75835D01*
X2774Y75398D01*
X2093Y74912D01*
X1413Y74280D01*
X781Y73600D01*
X733Y73502D01*
X490Y73260D01*
X198Y72822D01*
X-142Y72288D01*
X-579Y71607D01*
X-968Y70830D01*
X-1405Y69956D01*
X-1745Y68984D01*
Y68935D01*
X-1794Y68886D01*
X-1843Y68741D01*
X-1891Y68546D01*
X-1940Y68303D01*
X-2037Y68012D01*
X-2183Y67283D01*
X-2329Y66408D01*
X-2474Y65437D01*
X-2571Y64368D01*
X-2620Y63250D01*
Y63201D01*
Y63104D01*
Y62910D01*
Y62667D01*
X-2571Y62375D01*
Y61987D01*
X-2523Y61161D01*
X-2377Y60189D01*
X-2231Y59168D01*
X-1988Y58099D01*
X-1697Y57079D01*
Y57031D01*
X-1648Y56982D01*
X-1600Y56836D01*
X-1503Y56642D01*
X-1308Y56156D01*
X-1017Y55524D01*
X-628Y54795D01*
X-142Y54067D01*
X393Y53289D01*
X976Y52560D01*
X1073Y52463D01*
X1267Y52269D01*
X1656Y51929D01*
X2142Y51540D01*
X2725Y51054D01*
X3454Y50617D01*
X4231Y50131D01*
X5057Y49742D01*
X5106D01*
X5154Y49693D01*
X5300Y49645D01*
X5494Y49596D01*
X5980Y49450D01*
X6612Y49305D01*
X7390Y49110D01*
X8264Y48965D01*
X9236Y48867D01*
X10256Y48819D01*
X10888D01*
X11325Y48867D01*
X11860Y48916D01*
X12394Y48965D01*
X13658Y49208D01*
X13755D01*
X13949Y49305D01*
X14289Y49353D01*
X14727Y49499D01*
X15213Y49693D01*
X15747Y49888D01*
X16913Y50422D01*
Y61015D01*
X8361D01*
X8167Y61063D01*
X7924Y61209D01*
X7730Y61452D01*
X7681Y61549D01*
X7632Y61841D01*
X7584Y62035D01*
Y62278D01*
X7535Y62618D01*
Y62958D01*
Y63007D01*
Y63056D01*
Y63250D01*
Y63542D01*
X7584Y63833D01*
Y63882D01*
X7632Y64076D01*
X7681Y64270D01*
X7730Y64465D01*
X7778Y64513D01*
X7827Y64611D01*
X7924Y64708D01*
X8021Y64805D01*
X8070Y64854D01*
X8167Y64902D01*
X8313Y64951D01*
X20169D01*
X20363Y64902D01*
X20606Y64805D01*
X20655D01*
X20800Y64708D01*
X20946Y64611D01*
X21141Y64465D01*
X21189Y64416D01*
X21286Y64319D01*
X21432Y64125D01*
X21578Y63882D01*
X21627Y63833D01*
X21675Y63639D01*
X21724Y63347D01*
Y62958D01*
Y49159D01*
Y49110D01*
Y49062D01*
X21675Y48722D01*
X21627Y48333D01*
X21432Y47895D01*
X21384Y47798D01*
X21189Y47604D01*
X20898Y47312D01*
X20655Y47118D01*
X20363Y46972D01*
X20315D01*
X20217Y46924D01*
X20072Y46827D01*
X19829Y46729D01*
X19537Y46584D01*
X19148Y46438D01*
X18760Y46292D01*
X18274Y46098D01*
X18225D01*
X18079Y46000D01*
X17788Y45903D01*
X17448Y45806D01*
X17059Y45660D01*
X16622Y45563D01*
X15601Y45272D01*
X15553D01*
X15358Y45223D01*
X15115Y45174D01*
X14727Y45126D01*
X14338Y45029D01*
X13852Y44980D01*
X12832Y44834D01*
X12783D01*
X12589Y44786D01*
X12346D01*
X11957Y44737D01*
X11568Y44689D01*
X11082D01*
X10062Y44640D01*
X9382D01*
X8993Y44689D01*
X8556D01*
X8070Y44737D01*
X7584Y44786D01*
X6418Y44932D01*
X5154Y45174D01*
X3842Y45466D01*
X2579Y45903D01*
X2530D01*
X2433Y45952D01*
X2239Y46049D01*
X2045Y46146D01*
X1753Y46292D01*
X1413Y46438D01*
X636Y46875D01*
X-239Y47361D01*
X-1162Y47993D01*
X-2134Y48770D01*
X-3009Y49596D01*
X-3057Y49645D01*
X-3106Y49693D01*
X-3203Y49839D01*
X-3397Y50033D01*
X-3786Y50519D01*
X-4321Y51248D01*
X-4855Y52074D01*
X-5438Y53046D01*
X-6021Y54164D01*
X-6507Y55378D01*
Y55427D01*
X-6556Y55524D01*
X-6604Y55718D01*
X-6702Y55961D01*
X-6799Y56302D01*
X-6896Y56642D01*
X-6993Y57079D01*
X-7090Y57565D01*
X-7188Y58099D01*
X-7285Y58682D01*
X-7479Y59995D01*
X-7625Y61404D01*
X-7673Y62910D01*
Y62958D01*
Y63104D01*
Y63347D01*
Y63639D01*
X-7625Y64028D01*
Y64465D01*
X-7576Y64951D01*
X-7528Y65485D01*
X-7382Y66700D01*
X-7139Y68012D01*
X-6847Y69324D01*
X-6410Y70684D01*
Y70733D01*
X-6362Y70830D01*
X-6264Y71024D01*
X-6167Y71267D01*
X-6021Y71559D01*
X-5876Y71948D01*
X-5438Y72725D01*
X-4952Y73697D01*
X-4321Y74669D01*
X-3543Y75689D01*
X-2717Y76661D01*
X-2669Y76709D01*
X-2620Y76758D01*
X-2474Y76904D01*
X-2280Y77050D01*
X-1794Y77536D01*
X-1114Y78070D01*
X-288Y78702D01*
X684Y79333D01*
X1753Y79965D01*
X2968Y80499D01*
X3016D01*
X3114Y80548D01*
X3308Y80645D01*
X3551Y80694D01*
X3842Y80840D01*
X4231Y80937D01*
X4669Y81034D01*
X5106Y81180D01*
X6223Y81423D01*
X7438Y81666D01*
X8847Y81812D01*
X10305Y81860D01*
X11082D01*
X11568Y81812D01*
D02*
G37*
G36*
X53550Y81860D02*
X54133Y81812D01*
X54814Y81763D01*
X55542Y81617D01*
X56320Y81471D01*
X57049Y81228D01*
X57146Y81180D01*
X57389Y81131D01*
X57729Y80985D01*
X58166Y80743D01*
X58652Y80500D01*
X59187Y80208D01*
X59721Y79819D01*
X60207Y79382D01*
X60256Y79333D01*
X60402Y79188D01*
X60644Y78945D01*
X60936Y78604D01*
X61276Y78167D01*
X61568Y77681D01*
X61908Y77147D01*
X62151Y76564D01*
X62199Y76515D01*
X62248Y76272D01*
X62345Y75932D01*
X62491Y75495D01*
X62588Y74960D01*
X62685Y74377D01*
X62734Y73697D01*
X62782Y72968D01*
Y72871D01*
Y72677D01*
Y72336D01*
X62734Y71948D01*
X62685Y71462D01*
X62588Y70879D01*
X62297Y69761D01*
Y69713D01*
X62199Y69518D01*
X62102Y69227D01*
X61956Y68886D01*
X61762Y68498D01*
X61568Y68060D01*
X60985Y67137D01*
X60936Y67089D01*
X60839Y66943D01*
X60644Y66748D01*
X60402Y66506D01*
X60061Y66165D01*
X59721Y65874D01*
X58847Y65242D01*
X58798Y65194D01*
X58652Y65097D01*
X58361Y64999D01*
X58021Y64805D01*
X57632Y64611D01*
X57146Y64465D01*
X56563Y64270D01*
X55980Y64125D01*
Y64076D01*
X56077D01*
X56271Y64028D01*
X56660Y63979D01*
X57097Y63882D01*
X57632Y63784D01*
X58215Y63590D01*
X58798Y63396D01*
X59381Y63153D01*
X59430Y63104D01*
X59624Y63007D01*
X59916Y62861D01*
X60304Y62667D01*
X60742Y62375D01*
X61179Y62035D01*
X62053Y61258D01*
X62102Y61209D01*
X62248Y61063D01*
X62442Y60820D01*
X62734Y60529D01*
X63025Y60140D01*
X63317Y59703D01*
X63608Y59169D01*
X63851Y58634D01*
X63900Y58585D01*
X63948Y58391D01*
X64046Y58099D01*
X64191Y57711D01*
X64289Y57225D01*
X64386Y56690D01*
X64434Y56107D01*
X64483Y55476D01*
Y55427D01*
Y55378D01*
Y55233D01*
Y55038D01*
X64434Y54552D01*
X64386Y53969D01*
X64289Y53240D01*
X64094Y52512D01*
X63900Y51734D01*
X63608Y50957D01*
X63560Y50859D01*
X63463Y50617D01*
X63268Y50228D01*
X62977Y49791D01*
X62588Y49256D01*
X62199Y48673D01*
X61665Y48090D01*
X61082Y47507D01*
X61033Y47458D01*
X60790Y47264D01*
X60450Y47021D01*
X59964Y46729D01*
X59430Y46341D01*
X58749Y46000D01*
X57972Y45660D01*
X57097Y45320D01*
X57049D01*
X57000Y45272D01*
X56854D01*
X56660Y45223D01*
X56174Y45077D01*
X55542Y44980D01*
X54765Y44834D01*
X53842Y44689D01*
X52821Y44640D01*
X51752Y44591D01*
X51072D01*
X50635Y44640D01*
X50100D01*
X49517Y44737D01*
X48302Y44883D01*
X48254D01*
X48060Y44932D01*
X47768Y44980D01*
X47379Y45077D01*
X46942Y45174D01*
X46456Y45272D01*
X45484Y45563D01*
X45436D01*
X45290Y45612D01*
X45047Y45709D01*
X44755Y45806D01*
X44124Y46098D01*
X43443Y46389D01*
X43395D01*
X43298Y46486D01*
X43006Y46632D01*
X42666Y46827D01*
X42520Y46924D01*
X42423Y47021D01*
X42375Y47070D01*
X42326Y47167D01*
X42132Y47410D01*
Y47458D01*
X42083Y47555D01*
X42034Y47701D01*
X41937Y47895D01*
Y47944D01*
X41889Y48090D01*
X41840Y48284D01*
X41791Y48576D01*
Y48673D01*
Y48867D01*
Y49208D01*
Y49596D01*
Y49645D01*
Y49742D01*
Y49936D01*
X41840Y50131D01*
X41889Y50568D01*
X41937Y50811D01*
X41986Y50957D01*
X42034Y51005D01*
X42132Y51200D01*
X42277Y51345D01*
X42520Y51394D01*
X42569D01*
X42763Y51345D01*
X43055Y51200D01*
X43541Y50908D01*
X43589D01*
X43686Y50811D01*
X43832Y50762D01*
X44075Y50617D01*
X44367Y50471D01*
X44707Y50325D01*
X45484Y49936D01*
X45533D01*
X45679Y49839D01*
X45970Y49742D01*
X46310Y49645D01*
X46699Y49499D01*
X47185Y49353D01*
X47719Y49159D01*
X48302Y49013D01*
X48400D01*
X48594Y48965D01*
X48934Y48867D01*
X49372Y48819D01*
X49857Y48722D01*
X50489Y48624D01*
X51121Y48576D01*
X52190D01*
X52530Y48624D01*
X52967D01*
X53502Y48673D01*
X54036Y48770D01*
X55154Y49013D01*
X55202D01*
X55397Y49110D01*
X55688Y49208D01*
X56028Y49353D01*
X56806Y49791D01*
X57583Y50374D01*
X57632Y50422D01*
X57729Y50519D01*
X57923Y50714D01*
X58118Y50957D01*
X58361Y51248D01*
X58604Y51588D01*
X59041Y52414D01*
X59089Y52463D01*
X59138Y52609D01*
X59235Y52852D01*
X59332Y53192D01*
X59430Y53581D01*
X59478Y54018D01*
X59575Y54504D01*
Y55038D01*
Y55087D01*
Y55281D01*
X59527Y55573D01*
X59478Y55961D01*
X59430Y56350D01*
X59332Y56836D01*
X59138Y57273D01*
X58944Y57759D01*
X58895Y57808D01*
X58847Y57954D01*
X58701Y58197D01*
X58458Y58488D01*
X58215Y58828D01*
X57923Y59217D01*
X57535Y59557D01*
X57097Y59897D01*
X57049Y59946D01*
X56903Y60043D01*
X56611Y60237D01*
X56271Y60432D01*
X55834Y60626D01*
X55348Y60869D01*
X54765Y61112D01*
X54133Y61306D01*
X54036D01*
X53842Y61404D01*
X53453Y61452D01*
X52967Y61549D01*
X52384Y61647D01*
X51704Y61695D01*
X50975Y61792D01*
X46456D01*
X46116Y61890D01*
X46067D01*
X46019Y61987D01*
X45776Y62181D01*
Y62230D01*
X45679Y62327D01*
X45630Y62521D01*
X45533Y62764D01*
Y62813D01*
X45484Y63056D01*
X45436Y63347D01*
Y63736D01*
Y63784D01*
Y63833D01*
Y64028D01*
Y64319D01*
X45484Y64611D01*
Y64659D01*
X45533Y64805D01*
X45630Y64999D01*
X45727Y65145D01*
X45776Y65194D01*
X45824Y65242D01*
X46067Y65437D01*
X46116Y65485D01*
X46213Y65534D01*
X46359Y65582D01*
X50003D01*
X50392Y65631D01*
X50829D01*
X51315Y65679D01*
X51898Y65777D01*
X53016Y66020D01*
X53064D01*
X53259Y66117D01*
X53550Y66214D01*
X53890Y66360D01*
X54668Y66797D01*
X55494Y67380D01*
X55542Y67429D01*
X55640Y67526D01*
X55834Y67720D01*
X56077Y68012D01*
X56320Y68303D01*
X56563Y68692D01*
X57049Y69518D01*
X57097Y69567D01*
X57146Y69761D01*
X57243Y70004D01*
X57340Y70344D01*
X57438Y70781D01*
X57535Y71219D01*
X57632Y71753D01*
Y72336D01*
Y72385D01*
Y72531D01*
Y72725D01*
X57583Y73017D01*
X57486Y73697D01*
X57243Y74474D01*
Y74523D01*
X57194Y74669D01*
X57097Y74863D01*
X57000Y75106D01*
X56660Y75689D01*
X56174Y76272D01*
X56125Y76321D01*
X56028Y76418D01*
X55883Y76564D01*
X55688Y76709D01*
X55397Y76904D01*
X55057Y77098D01*
X54279Y77487D01*
X54230D01*
X54085Y77536D01*
X53842Y77633D01*
X53550Y77730D01*
X53162Y77779D01*
X52724Y77876D01*
X52238Y77924D01*
X51412D01*
X51121Y77876D01*
X50732D01*
X50246Y77779D01*
X49760Y77681D01*
X49226Y77584D01*
X48691Y77390D01*
X48643D01*
X48448Y77293D01*
X48205Y77195D01*
X47914Y77098D01*
X47525Y76953D01*
X47136Y76758D01*
X46310Y76369D01*
X46262D01*
X46116Y76272D01*
X45922Y76175D01*
X45679Y76029D01*
X45096Y75738D01*
X44513Y75349D01*
X44464D01*
X44415Y75252D01*
X44124Y75106D01*
X43832Y74960D01*
X43589Y74863D01*
X43492D01*
X43200Y74912D01*
X43103Y74960D01*
X43055Y75058D01*
X42958Y75155D01*
Y75203D01*
X42909Y75349D01*
X42860Y75543D01*
X42812Y75786D01*
Y75835D01*
Y76078D01*
Y76369D01*
Y76758D01*
Y76855D01*
Y77001D01*
Y77244D01*
Y77487D01*
Y77536D01*
X42860Y77681D01*
X42909Y78070D01*
Y78119D01*
X42958Y78216D01*
X43103Y78507D01*
X43152Y78556D01*
X43200Y78653D01*
X43492Y78945D01*
X43541Y78993D01*
X43735Y79139D01*
X44075Y79382D01*
X44561Y79722D01*
X44610Y79771D01*
X44707Y79819D01*
X44901Y79917D01*
X45144Y80062D01*
X45436Y80208D01*
X45776Y80402D01*
X46553Y80743D01*
X46602D01*
X46748Y80840D01*
X47039Y80937D01*
X47379Y81034D01*
X47768Y81180D01*
X48254Y81277D01*
X48740Y81423D01*
X49323Y81568D01*
X49372D01*
X49614Y81617D01*
X49906Y81666D01*
X50343Y81763D01*
X50829Y81812D01*
X51364Y81860D01*
X51995Y81909D01*
X53064D01*
X53550Y81860D01*
D02*
G37*
G36*
X-24340Y81326D02*
X-23951D01*
X-23174Y81228D01*
X-22979D01*
X-22736Y81180D01*
X-22445Y81131D01*
X-22056Y81083D01*
X-21619Y80985D01*
X-21133Y80888D01*
X-20598Y80791D01*
X-20550D01*
X-20356Y80743D01*
X-20064Y80645D01*
X-19675Y80548D01*
X-19238Y80402D01*
X-18752Y80159D01*
X-18169Y79917D01*
X-17634Y79625D01*
X-17586Y79576D01*
X-17392Y79479D01*
X-17100Y79285D01*
X-16711Y79042D01*
X-16322Y78702D01*
X-15885Y78313D01*
X-15448Y77924D01*
X-15010Y77438D01*
X-14962Y77390D01*
X-14816Y77195D01*
X-14622Y76952D01*
X-14379Y76612D01*
X-14136Y76175D01*
X-13844Y75641D01*
X-13601Y75106D01*
X-13359Y74474D01*
X-13310Y74377D01*
X-13261Y74183D01*
X-13164Y73843D01*
X-13067Y73357D01*
X-12970Y72822D01*
X-12873Y72191D01*
X-12775Y71462D01*
Y70733D01*
Y70684D01*
Y70636D01*
Y70490D01*
Y70296D01*
X-12824Y69761D01*
X-12873Y69081D01*
X-13018Y68352D01*
X-13164Y67526D01*
X-13407Y66651D01*
X-13699Y65825D01*
X-13747Y65728D01*
X-13844Y65485D01*
X-14087Y65048D01*
X-14330Y64562D01*
X-14719Y63930D01*
X-15156Y63347D01*
X-15691Y62716D01*
X-16274Y62084D01*
X-16371Y62035D01*
X-16565Y61841D01*
X-16906Y61549D01*
X-17392Y61209D01*
X-17974Y60869D01*
X-18703Y60480D01*
X-19481Y60092D01*
X-20356Y59752D01*
X-20404D01*
X-20453Y59703D01*
X-20598Y59654D01*
X-20793Y59606D01*
X-21279Y59509D01*
X-22008Y59363D01*
X-22834Y59168D01*
X-23805Y59071D01*
X-24923Y58974D01*
X-26138Y58925D01*
X-30219D01*
Y45855D01*
Y45806D01*
Y45709D01*
X-30268Y45563D01*
X-30365Y45417D01*
X-30414D01*
X-30462Y45320D01*
X-30608Y45272D01*
X-30802Y45174D01*
X-30851D01*
X-30997Y45126D01*
X-31191D01*
X-31531Y45077D01*
X-31628D01*
X-31823Y45029D01*
X-32163Y44980D01*
X-33038D01*
X-33426Y45029D01*
X-33815Y45077D01*
X-33863D01*
X-34058Y45126D01*
X-34301D01*
X-34544Y45174D01*
X-34592D01*
X-34690Y45223D01*
X-34835Y45320D01*
X-34932Y45417D01*
Y45466D01*
X-34981Y45563D01*
X-35030Y45855D01*
Y79285D01*
Y79333D01*
Y79479D01*
X-34981Y79674D01*
X-34932Y79917D01*
X-34787Y80451D01*
X-34641Y80694D01*
X-34447Y80888D01*
X-34398D01*
X-34349Y80985D01*
X-34058Y81131D01*
X-33669Y81277D01*
X-33135Y81374D01*
X-24680D01*
X-24340Y81326D01*
D02*
G37*
G36*
X-53980D02*
X-53591D01*
X-52814Y81228D01*
X-52619D01*
X-52376Y81180D01*
X-52085Y81131D01*
X-51696Y81083D01*
X-51259Y80985D01*
X-50773Y80888D01*
X-50238Y80791D01*
X-50190D01*
X-49995Y80743D01*
X-49704Y80645D01*
X-49315Y80548D01*
X-48878Y80402D01*
X-48392Y80159D01*
X-47809Y79917D01*
X-47274Y79625D01*
X-47226Y79576D01*
X-47031Y79479D01*
X-46740Y79285D01*
X-46351Y79042D01*
X-45963Y78702D01*
X-45525Y78313D01*
X-45088Y77924D01*
X-44651Y77438D01*
X-44602Y77390D01*
X-44456Y77195D01*
X-44262Y76952D01*
X-44019Y76612D01*
X-43776Y76175D01*
X-43484Y75641D01*
X-43241Y75106D01*
X-42998Y74474D01*
X-42950Y74377D01*
X-42901Y74183D01*
X-42804Y73843D01*
X-42707Y73357D01*
X-42610Y72822D01*
X-42513Y72191D01*
X-42415Y71462D01*
Y70733D01*
Y70684D01*
Y70636D01*
Y70490D01*
Y70296D01*
X-42464Y69761D01*
X-42513Y69081D01*
X-42658Y68352D01*
X-42804Y67526D01*
X-43047Y66651D01*
X-43339Y65825D01*
X-43387Y65728D01*
X-43484Y65485D01*
X-43727Y65048D01*
X-43970Y64562D01*
X-44359Y63930D01*
X-44796Y63347D01*
X-45331Y62716D01*
X-45914Y62084D01*
X-46011Y62035D01*
X-46205Y61841D01*
X-46546Y61549D01*
X-47031Y61209D01*
X-47615Y60869D01*
X-48343Y60480D01*
X-49121Y60092D01*
X-49995Y59752D01*
X-50044D01*
X-50093Y59703D01*
X-50238Y59654D01*
X-50433Y59606D01*
X-50919Y59509D01*
X-51648Y59363D01*
X-52474Y59168D01*
X-53445Y59071D01*
X-54563Y58974D01*
X-55778Y58925D01*
X-59859D01*
Y45855D01*
Y45806D01*
Y45709D01*
X-59908Y45563D01*
X-60005Y45417D01*
X-60054D01*
X-60102Y45320D01*
X-60248Y45272D01*
X-60442Y45174D01*
X-60491D01*
X-60637Y45126D01*
X-60831D01*
X-61171Y45077D01*
X-61268D01*
X-61463Y45029D01*
X-61803Y44980D01*
X-62677D01*
X-63066Y45029D01*
X-63455Y45077D01*
X-63504D01*
X-63698Y45126D01*
X-63941D01*
X-64184Y45174D01*
X-64232D01*
X-64330Y45223D01*
X-64475Y45320D01*
X-64573Y45417D01*
Y45466D01*
X-64621Y45563D01*
X-64670Y45855D01*
Y79285D01*
Y79333D01*
Y79479D01*
X-64621Y79674D01*
X-64573Y79917D01*
X-64427Y80451D01*
X-64281Y80694D01*
X-64087Y80888D01*
X-64038D01*
X-63990Y80985D01*
X-63698Y81131D01*
X-63309Y81277D01*
X-62775Y81374D01*
X-54320D01*
X-53980Y81326D01*
D02*
G37*
G36*
X55333Y-85551D02*
X55445D01*
X55589Y-85567D01*
X55876Y-85615D01*
X55892D01*
X55940Y-85631D01*
X56019Y-85647D01*
X56131Y-85663D01*
X56243Y-85679D01*
X56370Y-85711D01*
X56641Y-85791D01*
X56657D01*
X56705Y-85807D01*
X56769Y-85838D01*
X56849Y-85870D01*
X57056Y-85950D01*
X57263Y-86046D01*
X57280D01*
X57311Y-86062D01*
X57423Y-86126D01*
X57535Y-86205D01*
X57599Y-86237D01*
X57630Y-86269D01*
X57646Y-86285D01*
X57678Y-86317D01*
X57726Y-86365D01*
X57742Y-86413D01*
Y-86429D01*
X57758Y-86445D01*
X57790Y-86540D01*
Y-86556D01*
X57806Y-86588D01*
Y-86652D01*
X57822Y-86732D01*
Y-86748D01*
X57838Y-86812D01*
Y-86907D01*
Y-87019D01*
Y-87051D01*
Y-87115D01*
Y-87210D01*
X57822Y-87306D01*
Y-87322D01*
X57806Y-87386D01*
X57790Y-87450D01*
X57774Y-87529D01*
Y-87545D01*
X57758Y-87577D01*
X57694Y-87657D01*
X57662Y-87673D01*
X57583Y-87689D01*
X57567D01*
X57503Y-87673D01*
X57407Y-87641D01*
X57263Y-87561D01*
X57248D01*
X57232Y-87545D01*
X57184Y-87513D01*
X57120Y-87481D01*
X56944Y-87386D01*
X56721Y-87274D01*
X56705D01*
X56673Y-87242D01*
X56610Y-87210D01*
X56514Y-87178D01*
X56402Y-87131D01*
X56290Y-87083D01*
X56147Y-87035D01*
X55987Y-86987D01*
X55971D01*
X55908Y-86971D01*
X55828Y-86939D01*
X55700Y-86907D01*
X55573Y-86891D01*
X55397Y-86859D01*
X55222Y-86843D01*
X54855D01*
X54743Y-86859D01*
X54600Y-86875D01*
X54456Y-86907D01*
X54169Y-86987D01*
X54153D01*
X54105Y-87003D01*
X54041Y-87035D01*
X53962Y-87083D01*
X53754Y-87194D01*
X53563Y-87338D01*
X53547Y-87354D01*
X53531Y-87370D01*
X53483Y-87418D01*
X53435Y-87481D01*
X53308Y-87657D01*
X53196Y-87864D01*
Y-87880D01*
X53180Y-87912D01*
X53164Y-87976D01*
X53148Y-88056D01*
X53116Y-88151D01*
X53100Y-88263D01*
X53084Y-88518D01*
Y-88534D01*
Y-88598D01*
X53100Y-88694D01*
X53116Y-88805D01*
X53132Y-88949D01*
X53180Y-89093D01*
X53228Y-89236D01*
X53308Y-89380D01*
X53324Y-89396D01*
X53355Y-89444D01*
X53403Y-89507D01*
X53467Y-89587D01*
X53547Y-89683D01*
X53659Y-89794D01*
X53786Y-89890D01*
X53914Y-90002D01*
X53930Y-90018D01*
X53978Y-90050D01*
X54057Y-90098D01*
X54169Y-90161D01*
X54297Y-90241D01*
X54440Y-90337D01*
X54775Y-90512D01*
X54791Y-90528D01*
X54855Y-90544D01*
X54967Y-90592D01*
X55094Y-90656D01*
X55238Y-90720D01*
X55413Y-90799D01*
X55780Y-90975D01*
X55796Y-90991D01*
X55876Y-91023D01*
X55971Y-91070D01*
X56099Y-91134D01*
X56243Y-91214D01*
X56418Y-91294D01*
X56769Y-91501D01*
X56785Y-91517D01*
X56849Y-91549D01*
X56944Y-91613D01*
X57072Y-91677D01*
X57200Y-91772D01*
X57343Y-91884D01*
X57646Y-92155D01*
X57662Y-92171D01*
X57710Y-92219D01*
X57774Y-92299D01*
X57870Y-92410D01*
X57965Y-92538D01*
X58077Y-92697D01*
X58173Y-92873D01*
X58268Y-93064D01*
X58284Y-93080D01*
X58300Y-93160D01*
X58348Y-93256D01*
X58396Y-93399D01*
X58428Y-93591D01*
X58476Y-93798D01*
X58492Y-94022D01*
X58508Y-94277D01*
Y-94293D01*
Y-94309D01*
Y-94356D01*
Y-94420D01*
X58492Y-94580D01*
X58476Y-94787D01*
X58428Y-95010D01*
X58380Y-95266D01*
X58300Y-95521D01*
X58189Y-95776D01*
X58173Y-95808D01*
X58141Y-95888D01*
X58061Y-95999D01*
X57965Y-96159D01*
X57838Y-96334D01*
X57694Y-96526D01*
X57519Y-96717D01*
X57327Y-96893D01*
X57295Y-96909D01*
X57232Y-96973D01*
X57120Y-97052D01*
X56961Y-97148D01*
X56769Y-97260D01*
X56562Y-97355D01*
X56307Y-97467D01*
X56035Y-97563D01*
X56003Y-97579D01*
X55908Y-97594D01*
X55764Y-97626D01*
X55557Y-97674D01*
X55333Y-97722D01*
X55062Y-97754D01*
X54775Y-97770D01*
X54456Y-97786D01*
X54233D01*
X54089Y-97770D01*
X53914D01*
X53722Y-97738D01*
X53340Y-97690D01*
X53324D01*
X53260Y-97674D01*
X53164Y-97658D01*
X53036Y-97626D01*
X52893Y-97594D01*
X52733Y-97547D01*
X52430Y-97451D01*
X52414D01*
X52366Y-97419D01*
X52287Y-97387D01*
X52191Y-97355D01*
X51984Y-97244D01*
X51760Y-97132D01*
X51744D01*
X51712Y-97100D01*
X51617Y-97036D01*
X51489Y-96957D01*
X51378Y-96861D01*
X51362Y-96845D01*
X51330Y-96781D01*
X51282Y-96701D01*
X51234Y-96590D01*
Y-96574D01*
Y-96558D01*
X51218Y-96462D01*
X51202Y-96319D01*
X51186Y-96127D01*
Y-96111D01*
Y-96095D01*
Y-96015D01*
Y-95904D01*
X51202Y-95808D01*
Y-95776D01*
X51218Y-95728D01*
X51234Y-95648D01*
X51250Y-95585D01*
Y-95569D01*
X51266Y-95537D01*
X51298Y-95505D01*
X51330Y-95473D01*
X51346Y-95457D01*
X51378Y-95441D01*
X51425Y-95425D01*
X51505D01*
X51569Y-95441D01*
X51681Y-95489D01*
X51824Y-95585D01*
X51840D01*
X51872Y-95617D01*
X51920Y-95648D01*
X51984Y-95680D01*
X52079Y-95744D01*
X52175Y-95792D01*
X52430Y-95936D01*
X52446D01*
X52494Y-95968D01*
X52574Y-95999D01*
X52685Y-96047D01*
X52813Y-96095D01*
X52973Y-96143D01*
X53132Y-96207D01*
X53324Y-96271D01*
X53355D01*
X53419Y-96302D01*
X53531Y-96319D01*
X53675Y-96350D01*
X53850Y-96382D01*
X54057Y-96398D01*
X54281Y-96430D01*
X54711D01*
X54839Y-96414D01*
X54983Y-96398D01*
X55142Y-96382D01*
X55461Y-96302D01*
X55477D01*
X55541Y-96271D01*
X55621Y-96239D01*
X55716Y-96207D01*
X55956Y-96079D01*
X56195Y-95920D01*
X56211Y-95904D01*
X56243Y-95872D01*
X56307Y-95824D01*
X56370Y-95744D01*
X56450Y-95648D01*
X56530Y-95553D01*
X56673Y-95298D01*
X56689Y-95282D01*
X56705Y-95234D01*
X56737Y-95154D01*
X56769Y-95058D01*
X56801Y-94931D01*
X56817Y-94787D01*
X56849Y-94628D01*
Y-94452D01*
Y-94436D01*
Y-94372D01*
X56833Y-94277D01*
X56817Y-94149D01*
X56785Y-94022D01*
X56753Y-93878D01*
X56689Y-93734D01*
X56610Y-93591D01*
X56594Y-93575D01*
X56562Y-93527D01*
X56514Y-93463D01*
X56450Y-93383D01*
X56370Y-93288D01*
X56259Y-93176D01*
X56147Y-93080D01*
X56003Y-92969D01*
X55987Y-92953D01*
X55940Y-92921D01*
X55860Y-92873D01*
X55748Y-92793D01*
X55621Y-92713D01*
X55477Y-92634D01*
X55142Y-92458D01*
X55126Y-92442D01*
X55062Y-92426D01*
X54967Y-92379D01*
X54839Y-92315D01*
X54695Y-92251D01*
X54520Y-92171D01*
X54153Y-92012D01*
X54137Y-91996D01*
X54073Y-91964D01*
X53962Y-91916D01*
X53834Y-91852D01*
X53691Y-91772D01*
X53515Y-91693D01*
X53164Y-91485D01*
X53148Y-91469D01*
X53084Y-91437D01*
X52989Y-91374D01*
X52877Y-91294D01*
X52749Y-91198D01*
X52606Y-91087D01*
X52303Y-90815D01*
X52287Y-90799D01*
X52239Y-90751D01*
X52175Y-90672D01*
X52095Y-90560D01*
X52000Y-90433D01*
X51888Y-90273D01*
X51792Y-90113D01*
X51697Y-89922D01*
X51681Y-89890D01*
X51665Y-89826D01*
X51633Y-89715D01*
X51585Y-89571D01*
X51537Y-89380D01*
X51505Y-89172D01*
X51489Y-88933D01*
X51473Y-88662D01*
Y-88646D01*
Y-88630D01*
Y-88534D01*
X51489Y-88391D01*
X51505Y-88215D01*
X51537Y-88008D01*
X51585Y-87785D01*
X51649Y-87561D01*
X51744Y-87338D01*
X51760Y-87306D01*
X51792Y-87242D01*
X51856Y-87131D01*
X51936Y-86987D01*
X52048Y-86843D01*
X52175Y-86668D01*
X52319Y-86509D01*
X52494Y-86349D01*
X52510Y-86333D01*
X52574Y-86285D01*
X52685Y-86205D01*
X52813Y-86126D01*
X52989Y-86030D01*
X53180Y-85918D01*
X53403Y-85823D01*
X53643Y-85743D01*
X53675Y-85727D01*
X53754Y-85711D01*
X53898Y-85679D01*
X54073Y-85631D01*
X54281Y-85599D01*
X54536Y-85567D01*
X54791Y-85551D01*
X55078Y-85535D01*
X55222D01*
X55333Y-85551D01*
D02*
G37*
G36*
X-31393Y-85551D02*
X-31282D01*
X-31138Y-85567D01*
X-30851Y-85615D01*
X-30835D01*
X-30787Y-85631D01*
X-30707Y-85647D01*
X-30596Y-85663D01*
X-30484Y-85679D01*
X-30356Y-85711D01*
X-30085Y-85791D01*
X-30069D01*
X-30021Y-85807D01*
X-29958Y-85838D01*
X-29878Y-85870D01*
X-29671Y-85950D01*
X-29463Y-86046D01*
X-29447D01*
X-29415Y-86062D01*
X-29304Y-86126D01*
X-29192Y-86205D01*
X-29128Y-86237D01*
X-29096Y-86269D01*
X-29080Y-86285D01*
X-29048Y-86317D01*
X-29001Y-86365D01*
X-28985Y-86413D01*
Y-86429D01*
X-28969Y-86445D01*
X-28937Y-86540D01*
Y-86556D01*
X-28921Y-86588D01*
Y-86652D01*
X-28905Y-86732D01*
Y-86748D01*
X-28889Y-86812D01*
Y-86907D01*
Y-87019D01*
Y-87051D01*
Y-87115D01*
Y-87210D01*
X-28905Y-87306D01*
Y-87322D01*
X-28921Y-87386D01*
X-28937Y-87450D01*
X-28953Y-87529D01*
Y-87545D01*
X-28969Y-87577D01*
X-29032Y-87657D01*
X-29064Y-87673D01*
X-29144Y-87689D01*
X-29160D01*
X-29224Y-87673D01*
X-29320Y-87641D01*
X-29463Y-87561D01*
X-29479D01*
X-29495Y-87545D01*
X-29543Y-87513D01*
X-29607Y-87481D01*
X-29782Y-87386D01*
X-30006Y-87274D01*
X-30021D01*
X-30053Y-87242D01*
X-30117Y-87210D01*
X-30213Y-87178D01*
X-30324Y-87131D01*
X-30436Y-87083D01*
X-30580Y-87035D01*
X-30739Y-86987D01*
X-30755D01*
X-30819Y-86971D01*
X-30899Y-86939D01*
X-31026Y-86907D01*
X-31154Y-86891D01*
X-31329Y-86859D01*
X-31505Y-86844D01*
X-31872D01*
X-31983Y-86859D01*
X-32127Y-86875D01*
X-32271Y-86907D01*
X-32558Y-86987D01*
X-32574D01*
X-32622Y-87003D01*
X-32685Y-87035D01*
X-32765Y-87083D01*
X-32972Y-87194D01*
X-33164Y-87338D01*
X-33180Y-87354D01*
X-33196Y-87370D01*
X-33244Y-87418D01*
X-33291Y-87481D01*
X-33419Y-87657D01*
X-33531Y-87864D01*
Y-87880D01*
X-33547Y-87912D01*
X-33563Y-87976D01*
X-33579Y-88056D01*
X-33610Y-88152D01*
X-33626Y-88263D01*
X-33642Y-88518D01*
Y-88534D01*
Y-88598D01*
X-33626Y-88694D01*
X-33610Y-88806D01*
X-33595Y-88949D01*
X-33547Y-89093D01*
X-33499Y-89236D01*
X-33419Y-89380D01*
X-33403Y-89396D01*
X-33371Y-89444D01*
X-33323Y-89507D01*
X-33259Y-89587D01*
X-33180Y-89683D01*
X-33068Y-89794D01*
X-32940Y-89890D01*
X-32813Y-90002D01*
X-32797Y-90018D01*
X-32749Y-90050D01*
X-32669Y-90098D01*
X-32558Y-90161D01*
X-32430Y-90241D01*
X-32287Y-90337D01*
X-31951Y-90512D01*
X-31936Y-90528D01*
X-31872Y-90544D01*
X-31760Y-90592D01*
X-31632Y-90656D01*
X-31489Y-90720D01*
X-31314Y-90799D01*
X-30947Y-90975D01*
X-30931Y-90991D01*
X-30851Y-91023D01*
X-30755Y-91070D01*
X-30628Y-91134D01*
X-30484Y-91214D01*
X-30308Y-91294D01*
X-29958Y-91501D01*
X-29942Y-91517D01*
X-29878Y-91549D01*
X-29782Y-91613D01*
X-29655Y-91677D01*
X-29527Y-91772D01*
X-29383Y-91884D01*
X-29080Y-92155D01*
X-29064Y-92171D01*
X-29016Y-92219D01*
X-28953Y-92299D01*
X-28857Y-92410D01*
X-28761Y-92538D01*
X-28650Y-92698D01*
X-28554Y-92873D01*
X-28458Y-93064D01*
X-28442Y-93080D01*
X-28426Y-93160D01*
X-28379Y-93256D01*
X-28331Y-93399D01*
X-28299Y-93591D01*
X-28251Y-93798D01*
X-28235Y-94022D01*
X-28219Y-94277D01*
Y-94293D01*
Y-94309D01*
Y-94356D01*
Y-94420D01*
X-28235Y-94580D01*
X-28251Y-94787D01*
X-28299Y-95010D01*
X-28347Y-95266D01*
X-28426Y-95521D01*
X-28538Y-95776D01*
X-28554Y-95808D01*
X-28586Y-95888D01*
X-28666Y-95999D01*
X-28761Y-96159D01*
X-28889Y-96334D01*
X-29032Y-96526D01*
X-29208Y-96717D01*
X-29399Y-96893D01*
X-29431Y-96909D01*
X-29495Y-96973D01*
X-29607Y-97052D01*
X-29766Y-97148D01*
X-29958Y-97260D01*
X-30165Y-97355D01*
X-30420Y-97467D01*
X-30691Y-97563D01*
X-30723Y-97579D01*
X-30819Y-97595D01*
X-30963Y-97626D01*
X-31170Y-97674D01*
X-31393Y-97722D01*
X-31664Y-97754D01*
X-31951Y-97770D01*
X-32271Y-97786D01*
X-32494D01*
X-32637Y-97770D01*
X-32813D01*
X-33004Y-97738D01*
X-33387Y-97690D01*
X-33403D01*
X-33467Y-97674D01*
X-33563Y-97658D01*
X-33690Y-97626D01*
X-33834Y-97595D01*
X-33993Y-97547D01*
X-34296Y-97451D01*
X-34312D01*
X-34360Y-97419D01*
X-34440Y-97387D01*
X-34536Y-97355D01*
X-34743Y-97244D01*
X-34966Y-97132D01*
X-34982D01*
X-35014Y-97100D01*
X-35110Y-97036D01*
X-35238Y-96957D01*
X-35349Y-96861D01*
X-35365Y-96845D01*
X-35397Y-96781D01*
X-35445Y-96701D01*
X-35493Y-96590D01*
Y-96574D01*
Y-96558D01*
X-35509Y-96462D01*
X-35525Y-96319D01*
X-35540Y-96127D01*
Y-96111D01*
Y-96095D01*
Y-96015D01*
Y-95904D01*
X-35525Y-95808D01*
Y-95776D01*
X-35509Y-95728D01*
X-35493Y-95648D01*
X-35477Y-95585D01*
Y-95569D01*
X-35461Y-95537D01*
X-35429Y-95505D01*
X-35397Y-95473D01*
X-35381Y-95457D01*
X-35349Y-95441D01*
X-35301Y-95425D01*
X-35222D01*
X-35158Y-95441D01*
X-35046Y-95489D01*
X-34903Y-95585D01*
X-34887D01*
X-34855Y-95617D01*
X-34807Y-95648D01*
X-34743Y-95680D01*
X-34647Y-95744D01*
X-34552Y-95792D01*
X-34296Y-95936D01*
X-34280D01*
X-34232Y-95968D01*
X-34153Y-95999D01*
X-34041Y-96047D01*
X-33914Y-96095D01*
X-33754Y-96143D01*
X-33595Y-96207D01*
X-33403Y-96271D01*
X-33371D01*
X-33307Y-96302D01*
X-33196Y-96319D01*
X-33052Y-96350D01*
X-32877Y-96382D01*
X-32669Y-96398D01*
X-32446Y-96430D01*
X-32015D01*
X-31888Y-96414D01*
X-31744Y-96398D01*
X-31585Y-96382D01*
X-31266Y-96302D01*
X-31250D01*
X-31186Y-96271D01*
X-31106Y-96239D01*
X-31010Y-96207D01*
X-30771Y-96079D01*
X-30532Y-95920D01*
X-30516Y-95904D01*
X-30484Y-95872D01*
X-30420Y-95824D01*
X-30356Y-95744D01*
X-30277Y-95648D01*
X-30197Y-95553D01*
X-30053Y-95298D01*
X-30037Y-95282D01*
X-30021Y-95234D01*
X-29990Y-95154D01*
X-29958Y-95058D01*
X-29926Y-94931D01*
X-29910Y-94787D01*
X-29878Y-94628D01*
Y-94452D01*
Y-94436D01*
Y-94372D01*
X-29894Y-94277D01*
X-29910Y-94149D01*
X-29942Y-94022D01*
X-29974Y-93878D01*
X-30037Y-93734D01*
X-30117Y-93591D01*
X-30133Y-93575D01*
X-30165Y-93527D01*
X-30213Y-93463D01*
X-30277Y-93384D01*
X-30356Y-93288D01*
X-30468Y-93176D01*
X-30580Y-93080D01*
X-30723Y-92969D01*
X-30739Y-92953D01*
X-30787Y-92921D01*
X-30867Y-92873D01*
X-30979Y-92793D01*
X-31106Y-92713D01*
X-31250Y-92634D01*
X-31585Y-92458D01*
X-31601Y-92442D01*
X-31664Y-92426D01*
X-31760Y-92379D01*
X-31888Y-92315D01*
X-32031Y-92251D01*
X-32207Y-92171D01*
X-32574Y-92012D01*
X-32590Y-91996D01*
X-32653Y-91964D01*
X-32765Y-91916D01*
X-32893Y-91852D01*
X-33036Y-91772D01*
X-33212Y-91693D01*
X-33563Y-91485D01*
X-33579Y-91469D01*
X-33642Y-91437D01*
X-33738Y-91374D01*
X-33850Y-91294D01*
X-33977Y-91198D01*
X-34121Y-91087D01*
X-34424Y-90815D01*
X-34440Y-90799D01*
X-34488Y-90751D01*
X-34552Y-90672D01*
X-34631Y-90560D01*
X-34727Y-90433D01*
X-34839Y-90273D01*
X-34934Y-90113D01*
X-35030Y-89922D01*
X-35046Y-89890D01*
X-35062Y-89826D01*
X-35094Y-89715D01*
X-35142Y-89571D01*
X-35190Y-89380D01*
X-35222Y-89172D01*
X-35238Y-88933D01*
X-35253Y-88662D01*
Y-88646D01*
Y-88630D01*
Y-88534D01*
X-35238Y-88391D01*
X-35222Y-88215D01*
X-35190Y-88008D01*
X-35142Y-87785D01*
X-35078Y-87561D01*
X-34982Y-87338D01*
X-34966Y-87306D01*
X-34934Y-87242D01*
X-34871Y-87131D01*
X-34791Y-86987D01*
X-34679Y-86844D01*
X-34552Y-86668D01*
X-34408Y-86509D01*
X-34232Y-86349D01*
X-34217Y-86333D01*
X-34153Y-86285D01*
X-34041Y-86205D01*
X-33914Y-86126D01*
X-33738Y-86030D01*
X-33547Y-85918D01*
X-33323Y-85823D01*
X-33084Y-85743D01*
X-33052Y-85727D01*
X-32972Y-85711D01*
X-32829Y-85679D01*
X-32653Y-85631D01*
X-32446Y-85599D01*
X-32191Y-85567D01*
X-31936Y-85551D01*
X-31648Y-85535D01*
X-31505D01*
X-31393Y-85551D01*
D02*
G37*
G36*
X17928Y-85727D02*
X18008Y-85759D01*
X18024Y-85775D01*
X18087Y-85791D01*
X18151Y-85838D01*
X18215Y-85902D01*
X18231Y-85918D01*
X18279Y-85950D01*
X18327Y-86030D01*
X18375Y-86110D01*
X18391Y-86126D01*
X18406Y-86189D01*
X18422Y-86301D01*
X18438Y-86429D01*
Y-97371D01*
Y-97387D01*
Y-97419D01*
X18422Y-97467D01*
X18391Y-97515D01*
X18359Y-97547D01*
X18327Y-97563D01*
X18263Y-97594D01*
X18247D01*
X18199Y-97611D01*
X18119D01*
X18024Y-97626D01*
X17992D01*
X17928Y-97642D01*
X17800Y-97658D01*
X17513D01*
X17385Y-97642D01*
X17258Y-97626D01*
X17242D01*
X17178Y-97611D01*
X17098D01*
X17019Y-97594D01*
X17003D01*
X16971Y-97579D01*
X16923Y-97547D01*
X16891Y-97515D01*
Y-97499D01*
X16875Y-97467D01*
X16859Y-97371D01*
Y-87019D01*
X16827D01*
X12632Y-97419D01*
Y-97435D01*
X12616Y-97451D01*
X12600Y-97499D01*
X12552Y-97531D01*
X12536D01*
X12520Y-97563D01*
X12473Y-97579D01*
X12409Y-97611D01*
X12393D01*
X12345Y-97626D01*
X12281D01*
X12185Y-97642D01*
X12106D01*
X11994Y-97658D01*
X11755D01*
X11643Y-97642D01*
X11531Y-97626D01*
X11516D01*
X11452Y-97611D01*
X11388D01*
X11308Y-97594D01*
X11292D01*
X11260Y-97579D01*
X11212Y-97547D01*
X11165Y-97515D01*
Y-97499D01*
X11133Y-97483D01*
X11101Y-97419D01*
X7081Y-87019D01*
Y-97371D01*
Y-97387D01*
Y-97419D01*
X7065Y-97467D01*
X7033Y-97515D01*
X7001Y-97547D01*
X6969Y-97563D01*
X6906Y-97594D01*
X6890D01*
X6842Y-97611D01*
X6762D01*
X6650Y-97626D01*
X6618D01*
X6555Y-97642D01*
X6427Y-97658D01*
X6140D01*
X6012Y-97642D01*
X5885Y-97626D01*
X5869D01*
X5805Y-97611D01*
X5725D01*
X5645Y-97594D01*
X5630D01*
X5598Y-97579D01*
X5566Y-97547D01*
X5534Y-97515D01*
Y-97499D01*
X5518Y-97467D01*
X5502Y-97371D01*
Y-86429D01*
Y-86413D01*
Y-86365D01*
X5518Y-86301D01*
X5534Y-86221D01*
X5582Y-86030D01*
X5630Y-85950D01*
X5693Y-85886D01*
X5709Y-85870D01*
X5725Y-85855D01*
X5837Y-85791D01*
X5980Y-85743D01*
X6060Y-85711D01*
X7304D01*
X7480Y-85743D01*
X7655Y-85775D01*
X7671D01*
X7687Y-85791D01*
X7783Y-85807D01*
X7911Y-85870D01*
X8038Y-85950D01*
X8054D01*
X8070Y-85966D01*
X8134Y-86030D01*
X8230Y-86126D01*
X8325Y-86253D01*
X8341Y-86285D01*
X8389Y-86365D01*
X8453Y-86509D01*
X8517Y-86684D01*
X11930Y-95298D01*
X11962D01*
X15503Y-86716D01*
Y-86700D01*
X15519Y-86668D01*
X15551Y-86620D01*
X15567Y-86540D01*
X15647Y-86397D01*
X15727Y-86237D01*
Y-86221D01*
X15743Y-86205D01*
X15806Y-86126D01*
X15902Y-86030D01*
X15998Y-85934D01*
X16030Y-85918D01*
X16093Y-85870D01*
X16189Y-85823D01*
X16317Y-85775D01*
X16333D01*
X16349Y-85759D01*
X16429Y-85743D01*
X16572Y-85727D01*
X16731Y-85711D01*
X17832D01*
X17928Y-85727D01*
D02*
G37*
G36*
X39239Y-85711D02*
X39366Y-85727D01*
X39398D01*
X39462Y-85743D01*
X39542Y-85759D01*
X39606Y-85791D01*
X39622D01*
X39653Y-85807D01*
X39701Y-85838D01*
X39733Y-85886D01*
X39749D01*
X39765Y-85918D01*
X39781Y-85950D01*
Y-85998D01*
Y-96973D01*
Y-97004D01*
Y-97084D01*
X39749Y-97180D01*
X39717Y-97291D01*
X39701Y-97307D01*
X39669Y-97371D01*
X39622Y-97435D01*
X39542Y-97499D01*
X39526Y-97515D01*
X39478Y-97547D01*
X39414Y-97579D01*
X39318Y-97611D01*
X39302D01*
X39255Y-97626D01*
X39175Y-97642D01*
X38409D01*
X38266Y-97626D01*
X38122Y-97594D01*
X38090Y-97579D01*
X38010Y-97547D01*
X37899Y-97499D01*
X37771Y-97419D01*
X37739Y-97387D01*
X37675Y-97323D01*
X37564Y-97196D01*
X37436Y-97052D01*
Y-97036D01*
X37404Y-97004D01*
X37372Y-96957D01*
X37341Y-96893D01*
X37277Y-96797D01*
X37229Y-96701D01*
X37085Y-96446D01*
X33448Y-89683D01*
X33432Y-89667D01*
X33400Y-89587D01*
X33337Y-89491D01*
X33273Y-89348D01*
X33177Y-89188D01*
X33082Y-89013D01*
X32986Y-88805D01*
X32874Y-88598D01*
X32858Y-88566D01*
X32826Y-88502D01*
X32778Y-88391D01*
X32699Y-88247D01*
X32619Y-88072D01*
X32539Y-87880D01*
X32348Y-87481D01*
X32316D01*
Y-87513D01*
Y-87593D01*
X32332Y-87721D01*
Y-87896D01*
Y-88088D01*
X32348Y-88327D01*
Y-88566D01*
Y-88821D01*
Y-88853D01*
Y-88933D01*
Y-89077D01*
X32364Y-89252D01*
Y-89459D01*
Y-89683D01*
Y-89938D01*
Y-90193D01*
Y-97371D01*
Y-97387D01*
Y-97403D01*
X32348Y-97451D01*
X32316Y-97499D01*
Y-97515D01*
X32284Y-97531D01*
X32252Y-97563D01*
X32188Y-97594D01*
X32172D01*
X32124Y-97611D01*
X32045D01*
X31933Y-97626D01*
X31901D01*
X31837Y-97642D01*
X31726Y-97658D01*
X31423D01*
X31295Y-97642D01*
X31167Y-97626D01*
X31151D01*
X31088Y-97611D01*
X31008D01*
X30928Y-97594D01*
X30912D01*
X30880Y-97563D01*
X30848Y-97547D01*
X30816Y-97499D01*
Y-97483D01*
X30800Y-97451D01*
X30784Y-97371D01*
Y-86397D01*
Y-86381D01*
Y-86333D01*
X30800Y-86269D01*
X30816Y-86189D01*
X30880Y-86014D01*
X30928Y-85934D01*
X30992Y-85870D01*
X31008D01*
X31024Y-85838D01*
X31119Y-85791D01*
X31263Y-85743D01*
X31439Y-85711D01*
X32380D01*
X32523Y-85727D01*
X32667Y-85759D01*
X32683D01*
X32699Y-85775D01*
X32778Y-85791D01*
X32890Y-85838D01*
X33002Y-85918D01*
X33034Y-85934D01*
X33098Y-85998D01*
X33193Y-86094D01*
X33289Y-86221D01*
X33321Y-86253D01*
X33385Y-86349D01*
X33480Y-86493D01*
X33592Y-86684D01*
X36383Y-91900D01*
X36399Y-91916D01*
X36431Y-91980D01*
X36479Y-92075D01*
X36543Y-92203D01*
X36623Y-92347D01*
X36702Y-92506D01*
X36878Y-92841D01*
X36894Y-92857D01*
X36926Y-92921D01*
X36974Y-93001D01*
X37022Y-93112D01*
X37101Y-93256D01*
X37181Y-93399D01*
X37341Y-93734D01*
X37356Y-93750D01*
X37372Y-93814D01*
X37420Y-93894D01*
X37484Y-94005D01*
X37548Y-94149D01*
X37612Y-94293D01*
X37771Y-94612D01*
X37787Y-94628D01*
X37803Y-94676D01*
X37851Y-94771D01*
X37915Y-94867D01*
X37978Y-94994D01*
X38058Y-95138D01*
X38218Y-95457D01*
Y-95441D01*
Y-95425D01*
Y-95330D01*
Y-95186D01*
Y-94994D01*
X38202Y-94771D01*
Y-94516D01*
Y-94245D01*
Y-93958D01*
Y-93942D01*
Y-93926D01*
Y-93878D01*
Y-93814D01*
Y-93671D01*
Y-93463D01*
Y-93240D01*
Y-92985D01*
Y-92442D01*
Y-85998D01*
Y-85982D01*
Y-85966D01*
X38234Y-85886D01*
Y-85870D01*
X38266Y-85855D01*
X38298Y-85823D01*
X38361Y-85791D01*
X38377Y-85775D01*
X38425Y-85759D01*
X38505Y-85743D01*
X38601Y-85727D01*
X38633D01*
X38712Y-85711D01*
X38840Y-85695D01*
X39127D01*
X39239Y-85711D01*
D02*
G37*
G36*
X-38316Y-85711D02*
X-38188Y-85727D01*
X-38156D01*
X-38093Y-85743D01*
X-38013Y-85759D01*
X-37949Y-85791D01*
X-37933D01*
X-37901Y-85807D01*
X-37854Y-85838D01*
X-37822Y-85886D01*
X-37806D01*
X-37790Y-85918D01*
X-37774Y-85950D01*
Y-85998D01*
Y-96973D01*
Y-97004D01*
Y-97084D01*
X-37806Y-97180D01*
X-37838Y-97291D01*
X-37854Y-97308D01*
X-37885Y-97371D01*
X-37933Y-97435D01*
X-38013Y-97499D01*
X-38029Y-97515D01*
X-38077Y-97547D01*
X-38141Y-97579D01*
X-38236Y-97611D01*
X-38252D01*
X-38300Y-97626D01*
X-38380Y-97642D01*
X-39146D01*
X-39289Y-97626D01*
X-39433Y-97595D01*
X-39464Y-97579D01*
X-39544Y-97547D01*
X-39656Y-97499D01*
X-39784Y-97419D01*
X-39815Y-97387D01*
X-39879Y-97323D01*
X-39991Y-97196D01*
X-40118Y-97052D01*
Y-97036D01*
X-40150Y-97004D01*
X-40182Y-96957D01*
X-40214Y-96893D01*
X-40278Y-96797D01*
X-40326Y-96701D01*
X-40469Y-96446D01*
X-44106Y-89683D01*
X-44122Y-89667D01*
X-44154Y-89587D01*
X-44218Y-89491D01*
X-44282Y-89348D01*
X-44377Y-89188D01*
X-44473Y-89013D01*
X-44569Y-88806D01*
X-44681Y-88598D01*
X-44696Y-88566D01*
X-44728Y-88502D01*
X-44776Y-88391D01*
X-44856Y-88247D01*
X-44936Y-88072D01*
X-45016Y-87880D01*
X-45207Y-87481D01*
X-45239D01*
Y-87513D01*
Y-87593D01*
X-45223Y-87721D01*
Y-87896D01*
Y-88088D01*
X-45207Y-88327D01*
Y-88566D01*
Y-88821D01*
Y-88853D01*
Y-88933D01*
Y-89077D01*
X-45191Y-89252D01*
Y-89459D01*
Y-89683D01*
Y-89938D01*
Y-90193D01*
Y-97371D01*
Y-97387D01*
Y-97403D01*
X-45207Y-97451D01*
X-45239Y-97499D01*
Y-97515D01*
X-45271Y-97531D01*
X-45303Y-97563D01*
X-45367Y-97595D01*
X-45382D01*
X-45430Y-97611D01*
X-45510D01*
X-45622Y-97626D01*
X-45654D01*
X-45717Y-97642D01*
X-45829Y-97658D01*
X-46132D01*
X-46260Y-97642D01*
X-46387Y-97626D01*
X-46403D01*
X-46467Y-97611D01*
X-46547D01*
X-46627Y-97595D01*
X-46643D01*
X-46674Y-97563D01*
X-46706Y-97547D01*
X-46738Y-97499D01*
Y-97483D01*
X-46754Y-97451D01*
X-46770Y-97371D01*
Y-86397D01*
Y-86381D01*
Y-86333D01*
X-46754Y-86269D01*
X-46738Y-86189D01*
X-46674Y-86014D01*
X-46627Y-85934D01*
X-46563Y-85870D01*
X-46547D01*
X-46531Y-85838D01*
X-46435Y-85791D01*
X-46292Y-85743D01*
X-46116Y-85711D01*
X-45175D01*
X-45031Y-85727D01*
X-44888Y-85759D01*
X-44872D01*
X-44856Y-85775D01*
X-44776Y-85791D01*
X-44665Y-85838D01*
X-44553Y-85918D01*
X-44521Y-85934D01*
X-44457Y-85998D01*
X-44362Y-86094D01*
X-44266Y-86221D01*
X-44234Y-86253D01*
X-44170Y-86349D01*
X-44074Y-86493D01*
X-43963Y-86684D01*
X-41171Y-91900D01*
X-41155Y-91916D01*
X-41123Y-91980D01*
X-41076Y-92076D01*
X-41012Y-92203D01*
X-40932Y-92347D01*
X-40852Y-92506D01*
X-40677Y-92841D01*
X-40661Y-92857D01*
X-40629Y-92921D01*
X-40581Y-93001D01*
X-40533Y-93112D01*
X-40454Y-93256D01*
X-40374Y-93399D01*
X-40214Y-93734D01*
X-40198Y-93750D01*
X-40182Y-93814D01*
X-40135Y-93894D01*
X-40071Y-94006D01*
X-40007Y-94149D01*
X-39943Y-94293D01*
X-39784Y-94612D01*
X-39768Y-94628D01*
X-39752Y-94676D01*
X-39704Y-94771D01*
X-39640Y-94867D01*
X-39576Y-94994D01*
X-39496Y-95138D01*
X-39337Y-95457D01*
Y-95441D01*
Y-95425D01*
Y-95330D01*
Y-95186D01*
Y-94994D01*
X-39353Y-94771D01*
Y-94516D01*
Y-94245D01*
Y-93958D01*
Y-93942D01*
Y-93926D01*
Y-93878D01*
Y-93814D01*
Y-93671D01*
Y-93463D01*
Y-93240D01*
Y-92985D01*
Y-92442D01*
Y-85998D01*
Y-85982D01*
Y-85966D01*
X-39321Y-85886D01*
Y-85870D01*
X-39289Y-85855D01*
X-39257Y-85823D01*
X-39193Y-85791D01*
X-39177Y-85775D01*
X-39130Y-85759D01*
X-39050Y-85743D01*
X-38954Y-85727D01*
X-38922D01*
X-38842Y-85711D01*
X-38715Y-85695D01*
X-38428D01*
X-38316Y-85711D01*
D02*
G37*
G36*
X1833Y-85679D02*
X1945Y-85695D01*
X1977D01*
X2041Y-85711D01*
X2120Y-85727D01*
X2184Y-85743D01*
X2200D01*
X2232Y-85759D01*
X2280Y-85791D01*
X2328Y-85838D01*
X2344Y-85855D01*
X2359Y-85870D01*
X2376Y-85918D01*
Y-85966D01*
Y-93224D01*
Y-93240D01*
Y-93272D01*
Y-93336D01*
Y-93399D01*
X2359Y-93495D01*
Y-93607D01*
X2344Y-93878D01*
X2296Y-94181D01*
X2248Y-94500D01*
X2168Y-94835D01*
X2056Y-95170D01*
Y-95186D01*
X2041Y-95202D01*
X2025Y-95250D01*
X1993Y-95314D01*
X1929Y-95473D01*
X1817Y-95665D01*
X1690Y-95888D01*
X1546Y-96127D01*
X1355Y-96366D01*
X1147Y-96606D01*
X1115Y-96637D01*
X1036Y-96701D01*
X924Y-96797D01*
X748Y-96925D01*
X541Y-97068D01*
X286Y-97212D01*
X15Y-97355D01*
X-288Y-97483D01*
X-304D01*
X-320Y-97499D01*
X-368Y-97515D01*
X-432Y-97531D01*
X-512Y-97547D01*
X-607Y-97579D01*
X-847Y-97626D01*
X-1134Y-97690D01*
X-1453Y-97738D01*
X-1820Y-97770D01*
X-2218Y-97786D01*
X-2378D01*
X-2474Y-97770D01*
X-2569D01*
X-2809Y-97754D01*
X-3080Y-97722D01*
X-3383Y-97674D01*
X-3702Y-97611D01*
X-4005Y-97515D01*
X-4021D01*
X-4037Y-97499D01*
X-4085Y-97483D01*
X-4133Y-97467D01*
X-4292Y-97387D01*
X-4484Y-97307D01*
X-4707Y-97180D01*
X-4930Y-97036D01*
X-5170Y-96861D01*
X-5393Y-96669D01*
X-5425Y-96637D01*
X-5488Y-96574D01*
X-5584Y-96446D01*
X-5712Y-96286D01*
X-5855Y-96079D01*
X-6015Y-95840D01*
X-6158Y-95585D01*
X-6286Y-95282D01*
Y-95266D01*
X-6302Y-95250D01*
X-6318Y-95202D01*
X-6334Y-95138D01*
X-6350Y-95058D01*
X-6382Y-94963D01*
X-6430Y-94723D01*
X-6493Y-94436D01*
X-6541Y-94117D01*
X-6573Y-93750D01*
X-6589Y-93351D01*
Y-85966D01*
Y-85950D01*
Y-85918D01*
X-6557Y-85838D01*
Y-85823D01*
X-6525Y-85807D01*
X-6493Y-85775D01*
X-6430Y-85743D01*
X-6414D01*
X-6366Y-85727D01*
X-6286Y-85711D01*
X-6190Y-85695D01*
X-6158D01*
X-6095Y-85679D01*
X-5967Y-85663D01*
X-5680D01*
X-5552Y-85679D01*
X-5425Y-85695D01*
X-5393D01*
X-5329Y-85711D01*
X-5249Y-85727D01*
X-5185Y-85743D01*
X-5170D01*
X-5138Y-85759D01*
X-5090Y-85791D01*
X-5058Y-85838D01*
X-5042Y-85855D01*
X-5026Y-85870D01*
X-5010Y-85918D01*
Y-85966D01*
Y-93144D01*
Y-93160D01*
Y-93176D01*
Y-93224D01*
Y-93288D01*
X-4994Y-93431D01*
X-4978Y-93639D01*
X-4962Y-93862D01*
X-4930Y-94101D01*
X-4882Y-94356D01*
X-4818Y-94596D01*
X-4803Y-94628D01*
X-4787Y-94691D01*
X-4739Y-94803D01*
X-4659Y-94947D01*
X-4579Y-95106D01*
X-4484Y-95282D01*
X-4356Y-95457D01*
X-4228Y-95617D01*
X-4212Y-95632D01*
X-4164Y-95680D01*
X-4085Y-95760D01*
X-3973Y-95856D01*
X-3846Y-95952D01*
X-3686Y-96047D01*
X-3510Y-96159D01*
X-3319Y-96239D01*
X-3287D01*
X-3223Y-96271D01*
X-3112Y-96302D01*
X-2968Y-96334D01*
X-2777Y-96366D01*
X-2585Y-96398D01*
X-2346Y-96414D01*
X-2107Y-96430D01*
X-1995D01*
X-1868Y-96414D01*
X-1692Y-96398D01*
X-1517Y-96382D01*
X-1309Y-96350D01*
X-1102Y-96302D01*
X-895Y-96239D01*
X-863Y-96223D01*
X-799Y-96207D01*
X-703Y-96159D01*
X-575Y-96079D01*
X-432Y-95999D01*
X-288Y-95888D01*
X-129Y-95776D01*
X15Y-95632D01*
X31Y-95617D01*
X78Y-95553D01*
X142Y-95473D01*
X238Y-95345D01*
X318Y-95202D01*
X413Y-95026D01*
X509Y-94835D01*
X589Y-94628D01*
X605Y-94596D01*
X621Y-94516D01*
X653Y-94404D01*
X701Y-94229D01*
X733Y-94022D01*
X764Y-93782D01*
X780Y-93511D01*
X796Y-93224D01*
Y-85966D01*
Y-85950D01*
Y-85918D01*
X828Y-85838D01*
Y-85823D01*
X860Y-85807D01*
X892Y-85775D01*
X956Y-85743D01*
X972D01*
X1020Y-85727D01*
X1099Y-85711D01*
X1195Y-85695D01*
X1227D01*
X1307Y-85679D01*
X1418Y-85663D01*
X1706D01*
X1833Y-85679D01*
D02*
G37*
G36*
X27913Y-85727D02*
X27945Y-85759D01*
X27961D01*
X27977Y-85791D01*
X28009Y-85823D01*
X28041Y-85870D01*
X28057Y-85886D01*
X28073Y-85918D01*
X28089Y-85998D01*
X28105Y-86078D01*
Y-86094D01*
X28121Y-86158D01*
X28137Y-86253D01*
Y-86381D01*
Y-86413D01*
Y-86477D01*
X28121Y-86588D01*
X28105Y-86684D01*
Y-86700D01*
X28089Y-86748D01*
X28041Y-86875D01*
Y-86891D01*
X28025Y-86923D01*
X27993Y-86955D01*
X27945Y-86987D01*
X27929D01*
X27913Y-87003D01*
X27818Y-87019D01*
X23176D01*
Y-90767D01*
X27211D01*
X27259Y-90783D01*
X27291Y-90815D01*
X27307Y-90831D01*
X27323Y-90847D01*
X27387Y-90943D01*
X27403Y-90959D01*
X27419Y-90991D01*
X27435Y-91055D01*
X27451Y-91134D01*
Y-91150D01*
X27467Y-91214D01*
X27483Y-91310D01*
Y-91437D01*
Y-91469D01*
Y-91533D01*
X27467Y-91629D01*
X27451Y-91725D01*
Y-91741D01*
X27435Y-91788D01*
X27387Y-91916D01*
Y-91932D01*
X27371Y-91948D01*
X27291Y-92012D01*
X27275D01*
X27259Y-92028D01*
X27164Y-92044D01*
X23176D01*
Y-96302D01*
X27929D01*
X27977Y-96319D01*
X28009Y-96350D01*
X28025D01*
X28041Y-96382D01*
X28089Y-96414D01*
X28121Y-96462D01*
X28137Y-96478D01*
X28153Y-96510D01*
X28168Y-96590D01*
X28184Y-96669D01*
Y-96685D01*
X28201Y-96749D01*
X28216Y-96845D01*
Y-96973D01*
Y-97004D01*
Y-97068D01*
X28201Y-97164D01*
X28184Y-97260D01*
Y-97275D01*
X28168Y-97339D01*
X28153Y-97403D01*
X28121Y-97467D01*
Y-97483D01*
X28089Y-97515D01*
X28057Y-97547D01*
X28009Y-97579D01*
X27993D01*
X27977Y-97594D01*
X27881Y-97611D01*
X22139D01*
X22043Y-97594D01*
X21916Y-97563D01*
X21772Y-97483D01*
X21740Y-97451D01*
X21724Y-97419D01*
X21692Y-97371D01*
X21660Y-97291D01*
X21629Y-97212D01*
X21613Y-97100D01*
X21597Y-96973D01*
Y-86365D01*
Y-86349D01*
Y-86301D01*
X21613Y-86237D01*
Y-86158D01*
X21676Y-85998D01*
X21708Y-85918D01*
X21772Y-85855D01*
X21788D01*
X21804Y-85838D01*
X21900Y-85775D01*
X22027Y-85727D01*
X22171Y-85711D01*
X27866D01*
X27913Y-85727D01*
D02*
G37*
G36*
X50165D02*
X50197Y-85759D01*
X50213D01*
X50229Y-85791D01*
X50261Y-85823D01*
X50293Y-85870D01*
X50309Y-85886D01*
X50325Y-85934D01*
X50341Y-85998D01*
X50357Y-86094D01*
Y-86110D01*
X50373Y-86173D01*
X50389Y-86269D01*
Y-86397D01*
Y-86429D01*
Y-86493D01*
X50373Y-86604D01*
X50357Y-86700D01*
Y-86716D01*
X50341Y-86780D01*
X50325Y-86843D01*
X50293Y-86907D01*
Y-86923D01*
X50277Y-86955D01*
X50245Y-86987D01*
X50197Y-87019D01*
X50181D01*
X50165Y-87035D01*
X50069Y-87051D01*
X46736D01*
Y-97371D01*
Y-97387D01*
Y-97419D01*
X46720Y-97467D01*
X46688Y-97515D01*
X46656Y-97547D01*
X46624Y-97563D01*
X46560Y-97594D01*
X46544D01*
X46497Y-97611D01*
X46417D01*
X46305Y-97626D01*
X46273D01*
X46209Y-97642D01*
X46098Y-97658D01*
X45811D01*
X45683Y-97642D01*
X45555Y-97626D01*
X45539D01*
X45476Y-97611D01*
X45396D01*
X45316Y-97594D01*
X45300D01*
X45268Y-97579D01*
X45220Y-97547D01*
X45188Y-97515D01*
Y-97499D01*
X45173Y-97467D01*
X45157Y-97371D01*
Y-87051D01*
X41759D01*
X41663Y-87019D01*
X41631Y-86987D01*
X41599Y-86955D01*
X41568Y-86907D01*
Y-86891D01*
X41552Y-86843D01*
X41536Y-86780D01*
X41520Y-86700D01*
Y-86684D01*
Y-86620D01*
X41504Y-86524D01*
Y-86397D01*
Y-86381D01*
Y-86365D01*
Y-86285D01*
Y-86189D01*
X41520Y-86094D01*
Y-86062D01*
X41536Y-86014D01*
X41552Y-85934D01*
X41568Y-85870D01*
X41583Y-85855D01*
X41599Y-85823D01*
X41631Y-85791D01*
X41663Y-85759D01*
X41679Y-85743D01*
X41711Y-85727D01*
X41759Y-85711D01*
X50117D01*
X50165Y-85727D01*
D02*
G37*
G36*
X-13177D02*
X-12938Y-85743D01*
X-12826D01*
X-12762Y-85759D01*
X-12587Y-85775D01*
X-12395Y-85791D01*
X-12363D01*
X-12284Y-85807D01*
X-12156Y-85838D01*
X-11981Y-85886D01*
X-11805Y-85934D01*
X-11598Y-85998D01*
X-11183Y-86173D01*
X-11167Y-86189D01*
X-11087Y-86221D01*
X-10992Y-86269D01*
X-10880Y-86349D01*
X-10736Y-86445D01*
X-10593Y-86556D01*
X-10449Y-86684D01*
X-10306Y-86827D01*
X-10290Y-86843D01*
X-10242Y-86891D01*
X-10178Y-86971D01*
X-10098Y-87083D01*
X-10019Y-87210D01*
X-9923Y-87370D01*
X-9843Y-87529D01*
X-9763Y-87721D01*
X-9747Y-87737D01*
X-9732Y-87816D01*
X-9700Y-87912D01*
X-9668Y-88056D01*
X-9636Y-88215D01*
X-9604Y-88407D01*
X-9572Y-88630D01*
Y-88853D01*
Y-88885D01*
Y-88949D01*
X-9588Y-89061D01*
Y-89204D01*
X-9620Y-89380D01*
X-9652Y-89555D01*
X-9684Y-89731D01*
X-9747Y-89922D01*
Y-89938D01*
X-9779Y-90002D01*
X-9811Y-90098D01*
X-9859Y-90209D01*
X-9923Y-90337D01*
X-10003Y-90480D01*
X-10210Y-90767D01*
X-10226Y-90783D01*
X-10258Y-90831D01*
X-10322Y-90895D01*
X-10417Y-90975D01*
X-10529Y-91070D01*
X-10641Y-91182D01*
X-10784Y-91278D01*
X-10944Y-91390D01*
X-10960Y-91405D01*
X-11023Y-91437D01*
X-11103Y-91485D01*
X-11215Y-91549D01*
X-11358Y-91613D01*
X-11518Y-91693D01*
X-11694Y-91772D01*
X-11885Y-91836D01*
X-11869D01*
X-11837Y-91852D01*
X-11773Y-91884D01*
X-11710Y-91932D01*
X-11534Y-92028D01*
X-11343Y-92171D01*
X-11327Y-92187D01*
X-11295Y-92203D01*
X-11263Y-92251D01*
X-11199Y-92299D01*
X-11056Y-92458D01*
X-10896Y-92650D01*
X-10880Y-92666D01*
X-10864Y-92697D01*
X-10816Y-92761D01*
X-10768Y-92825D01*
X-10704Y-92921D01*
X-10641Y-93033D01*
X-10513Y-93288D01*
X-10497Y-93304D01*
X-10481Y-93351D01*
X-10449Y-93415D01*
X-10402Y-93511D01*
X-10338Y-93639D01*
X-10274Y-93766D01*
X-10146Y-94085D01*
X-9078Y-96701D01*
Y-96717D01*
X-9062Y-96749D01*
X-9030Y-96813D01*
X-9014Y-96877D01*
X-8950Y-97036D01*
X-8934Y-97100D01*
X-8918Y-97164D01*
X-8902Y-97180D01*
X-8886Y-97244D01*
X-8870Y-97307D01*
Y-97371D01*
Y-97387D01*
Y-97419D01*
X-8902Y-97515D01*
X-8934Y-97547D01*
X-8966Y-97563D01*
X-9030Y-97594D01*
X-9046D01*
X-9093Y-97611D01*
X-9173D01*
X-9285Y-97626D01*
X-9317D01*
X-9396Y-97642D01*
X-9540Y-97658D01*
X-9859D01*
X-9987Y-97642D01*
X-10114Y-97626D01*
X-10130D01*
X-10194Y-97611D01*
X-10274Y-97594D01*
X-10354Y-97579D01*
X-10369D01*
X-10402Y-97547D01*
X-10449Y-97531D01*
X-10497Y-97483D01*
Y-97467D01*
X-10529Y-97435D01*
X-10545Y-97371D01*
X-10577Y-97291D01*
X-11678Y-94484D01*
X-11694Y-94468D01*
X-11710Y-94404D01*
X-11741Y-94309D01*
X-11805Y-94197D01*
X-11853Y-94053D01*
X-11933Y-93910D01*
X-12076Y-93607D01*
X-12092Y-93591D01*
X-12108Y-93543D01*
X-12156Y-93463D01*
X-12220Y-93368D01*
X-12379Y-93144D01*
X-12571Y-92921D01*
X-12587Y-92905D01*
X-12619Y-92873D01*
X-12682Y-92825D01*
X-12762Y-92761D01*
X-12858Y-92682D01*
X-12970Y-92618D01*
X-13241Y-92474D01*
X-13257Y-92458D01*
X-13305Y-92442D01*
X-13384Y-92410D01*
X-13496Y-92379D01*
X-13640Y-92347D01*
X-13799Y-92331D01*
X-13974Y-92299D01*
X-15219D01*
Y-97371D01*
Y-97387D01*
Y-97419D01*
X-15235Y-97467D01*
X-15267Y-97515D01*
X-15282D01*
X-15299Y-97547D01*
X-15346Y-97563D01*
X-15410Y-97594D01*
X-15426D01*
X-15474Y-97611D01*
X-15538D01*
X-15649Y-97626D01*
X-15681D01*
X-15745Y-97642D01*
X-15857Y-97658D01*
X-16144D01*
X-16272Y-97642D01*
X-16399Y-97626D01*
X-16415D01*
X-16479Y-97611D01*
X-16559D01*
X-16638Y-97594D01*
X-16654D01*
X-16686Y-97579D01*
X-16734Y-97547D01*
X-16766Y-97515D01*
Y-97499D01*
X-16782Y-97467D01*
X-16798Y-97371D01*
Y-86365D01*
Y-86349D01*
Y-86301D01*
X-16782Y-86237D01*
Y-86158D01*
X-16718Y-85998D01*
X-16686Y-85918D01*
X-16622Y-85855D01*
X-16607D01*
X-16590Y-85838D01*
X-16495Y-85775D01*
X-16367Y-85727D01*
X-16224Y-85711D01*
X-13432D01*
X-13177Y-85727D01*
D02*
G37*
G36*
X-18744D02*
X-18712Y-85759D01*
X-18696D01*
X-18680Y-85791D01*
X-18648Y-85823D01*
X-18616Y-85870D01*
X-18600Y-85886D01*
X-18584Y-85934D01*
X-18569Y-85998D01*
X-18553Y-86094D01*
Y-86110D01*
X-18537Y-86173D01*
X-18521Y-86269D01*
Y-86397D01*
Y-86429D01*
Y-86493D01*
X-18537Y-86604D01*
X-18553Y-86700D01*
Y-86716D01*
X-18569Y-86780D01*
X-18584Y-86843D01*
X-18616Y-86907D01*
Y-86923D01*
X-18632Y-86955D01*
X-18664Y-86987D01*
X-18712Y-87019D01*
X-18728D01*
X-18744Y-87035D01*
X-18840Y-87051D01*
X-22173D01*
Y-97371D01*
Y-97387D01*
Y-97419D01*
X-22189Y-97467D01*
X-22221Y-97515D01*
X-22253Y-97547D01*
X-22285Y-97563D01*
X-22349Y-97594D01*
X-22365D01*
X-22413Y-97611D01*
X-22492D01*
X-22604Y-97626D01*
X-22636D01*
X-22700Y-97642D01*
X-22812Y-97658D01*
X-23099D01*
X-23226Y-97642D01*
X-23354Y-97626D01*
X-23370D01*
X-23434Y-97611D01*
X-23513D01*
X-23593Y-97594D01*
X-23609D01*
X-23641Y-97579D01*
X-23689Y-97547D01*
X-23721Y-97515D01*
Y-97499D01*
X-23737Y-97467D01*
X-23753Y-97371D01*
Y-87051D01*
X-27150Y-87051D01*
X-27246Y-87019D01*
X-27278Y-86987D01*
X-27310Y-86955D01*
X-27342Y-86907D01*
Y-86891D01*
X-27358Y-86844D01*
X-27373Y-86780D01*
X-27390Y-86700D01*
Y-86684D01*
Y-86620D01*
X-27405Y-86524D01*
Y-86397D01*
Y-86381D01*
Y-86365D01*
Y-86285D01*
Y-86189D01*
X-27390Y-86094D01*
Y-86062D01*
X-27373Y-86014D01*
X-27358Y-85934D01*
X-27342Y-85870D01*
X-27326Y-85855D01*
X-27310Y-85823D01*
X-27278Y-85791D01*
X-27246Y-85759D01*
X-27230Y-85743D01*
X-27198Y-85727D01*
X-27150Y-85711D01*
X-18792Y-85711D01*
X-18744Y-85727D01*
D02*
G37*
G36*
X-50471Y-85679D02*
X-50359Y-85695D01*
X-50327D01*
X-50264Y-85711D01*
X-50184Y-85727D01*
X-50104Y-85743D01*
X-50088D01*
X-50056Y-85759D01*
X-50008Y-85791D01*
X-49976Y-85838D01*
X-49960Y-85855D01*
X-49945Y-85870D01*
X-49928Y-85918D01*
Y-85966D01*
Y-97371D01*
Y-97387D01*
Y-97419D01*
X-49945Y-97467D01*
X-49976Y-97515D01*
X-50008Y-97547D01*
X-50040Y-97563D01*
X-50104Y-97595D01*
X-50120D01*
X-50168Y-97611D01*
X-50248D01*
X-50359Y-97626D01*
X-50391D01*
X-50455Y-97642D01*
X-50567Y-97658D01*
X-50854D01*
X-50981Y-97642D01*
X-51109Y-97626D01*
X-51125D01*
X-51189Y-97611D01*
X-51268D01*
X-51348Y-97595D01*
X-51364D01*
X-51396Y-97579D01*
X-51444Y-97547D01*
X-51476Y-97515D01*
Y-97499D01*
X-51492Y-97467D01*
X-51508Y-97371D01*
Y-85966D01*
Y-85950D01*
Y-85918D01*
X-51476Y-85838D01*
X-51460Y-85823D01*
X-51444Y-85807D01*
X-51396Y-85775D01*
X-51332Y-85743D01*
X-51316D01*
X-51268Y-85727D01*
X-51189Y-85711D01*
X-51093Y-85695D01*
X-51061D01*
X-50981Y-85679D01*
X-50870Y-85663D01*
X-50599D01*
X-50471Y-85679D01*
D02*
G37*
%LPC*%
G36*
X72997Y-5140D02*
X70915D01*
Y-17303D01*
X73247D01*
X73372Y-17283D01*
X73539D01*
X73893Y-17262D01*
X74289Y-17220D01*
X74705Y-17157D01*
X75143Y-17074D01*
X75539Y-16949D01*
X75559D01*
X75580Y-16928D01*
X75705Y-16887D01*
X75893Y-16803D01*
X76143Y-16679D01*
X76392Y-16533D01*
X76684Y-16324D01*
X76955Y-16116D01*
X77225Y-15845D01*
X77246Y-15804D01*
X77330Y-15700D01*
X77455Y-15533D01*
X77621Y-15304D01*
X77788Y-15033D01*
X77955Y-14700D01*
X78121Y-14325D01*
X78267Y-13908D01*
Y-13888D01*
X78288Y-13846D01*
X78309Y-13783D01*
X78329Y-13700D01*
X78350Y-13575D01*
X78371Y-13450D01*
X78413Y-13283D01*
X78454Y-13117D01*
X78517Y-12700D01*
X78559Y-12221D01*
X78600Y-11659D01*
X78621Y-11076D01*
Y-11055D01*
Y-11013D01*
Y-10951D01*
Y-10847D01*
Y-10742D01*
X78600Y-10618D01*
X78579Y-10284D01*
X78538Y-9930D01*
X78475Y-9535D01*
X78392Y-9118D01*
X78288Y-8701D01*
Y-8681D01*
X78267Y-8660D01*
X78246Y-8597D01*
X78225Y-8514D01*
X78142Y-8306D01*
X78038Y-8056D01*
X77892Y-7764D01*
X77725Y-7452D01*
X77517Y-7118D01*
X77288Y-6827D01*
X77267Y-6785D01*
X77163Y-6702D01*
X77038Y-6556D01*
X76830Y-6369D01*
X76601Y-6181D01*
X76309Y-5973D01*
X75997Y-5785D01*
X75622Y-5598D01*
X75601D01*
X75580Y-5577D01*
X75518Y-5556D01*
X75434Y-5536D01*
X75330Y-5494D01*
X75205Y-5452D01*
X74914Y-5369D01*
X74539Y-5286D01*
X74081Y-5202D01*
X73581Y-5161D01*
X72997Y-5140D01*
D02*
G37*
G36*
X67767Y-40879D02*
X67751D01*
X65710Y-46813D01*
X69841D01*
X67767Y-40879D01*
D02*
G37*
G36*
X56984Y-40608D02*
X55341D01*
Y-44612D01*
X56984D01*
X57096Y-44596D01*
X57256D01*
X57415Y-44580D01*
X57607Y-44548D01*
X57782Y-44516D01*
X57957Y-44468D01*
X57973D01*
X58037Y-44436D01*
X58117Y-44405D01*
X58229Y-44357D01*
X58484Y-44229D01*
X58723Y-44054D01*
X58739Y-44038D01*
X58771Y-44006D01*
X58835Y-43942D01*
X58899Y-43878D01*
X58962Y-43783D01*
X59042Y-43671D01*
X59170Y-43416D01*
Y-43400D01*
X59186Y-43352D01*
X59218Y-43272D01*
X59250Y-43176D01*
X59265Y-43049D01*
X59297Y-42905D01*
X59313Y-42602D01*
Y-42586D01*
Y-42570D01*
Y-42490D01*
X59297Y-42363D01*
X59281Y-42203D01*
X59233Y-42012D01*
X59186Y-41821D01*
X59106Y-41629D01*
X58994Y-41438D01*
X58978Y-41422D01*
X58930Y-41358D01*
X58851Y-41262D01*
X58739Y-41167D01*
X58595Y-41055D01*
X58420Y-40927D01*
X58197Y-40831D01*
X57941Y-40736D01*
X57926D01*
X57910Y-40720D01*
X57862D01*
X57798Y-40704D01*
X57622Y-40672D01*
X57415Y-40640D01*
X57367D01*
X57303Y-40624D01*
X57112D01*
X56984Y-40608D01*
D02*
G37*
G36*
X46648Y-40879D02*
X46632D01*
X44590Y-46813D01*
X48722D01*
X46648Y-40879D01*
D02*
G37*
G36*
X-10298D02*
X-10314D01*
X-12356Y-46813D01*
X-8224D01*
X-10298Y-40879D01*
D02*
G37*
G36*
X-44704Y-40481D02*
X-44880D01*
X-44960Y-40497D01*
X-45071D01*
X-45311Y-40528D01*
X-45582Y-40576D01*
X-45869Y-40656D01*
X-46172Y-40752D01*
X-46443Y-40879D01*
X-46475Y-40895D01*
X-46555Y-40943D01*
X-46683Y-41039D01*
X-46842Y-41150D01*
X-47017Y-41294D01*
X-47209Y-41486D01*
X-47400Y-41677D01*
X-47576Y-41916D01*
X-47592Y-41948D01*
X-47639Y-42028D01*
X-47719Y-42155D01*
X-47815Y-42347D01*
X-47911Y-42554D01*
X-48022Y-42810D01*
X-48118Y-43097D01*
X-48198Y-43416D01*
Y-43432D01*
Y-43447D01*
X-48214Y-43495D01*
X-48230Y-43559D01*
X-48246Y-43735D01*
X-48278Y-43958D01*
X-48309Y-44229D01*
X-48341Y-44532D01*
X-48357Y-44867D01*
X-48373Y-45218D01*
Y-45234D01*
Y-45266D01*
Y-45314D01*
Y-45394D01*
Y-45489D01*
X-48357Y-45585D01*
Y-45840D01*
X-48341Y-46143D01*
X-48309Y-46462D01*
X-48214Y-47148D01*
Y-47164D01*
X-48198Y-47180D01*
Y-47228D01*
X-48182Y-47292D01*
X-48134Y-47451D01*
X-48070Y-47659D01*
X-47990Y-47898D01*
X-47895Y-48153D01*
X-47767Y-48408D01*
X-47624Y-48664D01*
X-47608Y-48696D01*
X-47544Y-48775D01*
X-47448Y-48887D01*
X-47337Y-49030D01*
X-47177Y-49190D01*
X-46986Y-49349D01*
X-46762Y-49509D01*
X-46523Y-49653D01*
X-46507D01*
X-46491Y-49668D01*
X-46395Y-49700D01*
X-46252Y-49764D01*
X-46044Y-49828D01*
X-45789Y-49892D01*
X-45486Y-49956D01*
X-45151Y-49988D01*
X-44768Y-50003D01*
X-44593D01*
X-44513Y-49988D01*
X-44401D01*
X-44162Y-49956D01*
X-43891Y-49908D01*
X-43604Y-49844D01*
X-43301Y-49748D01*
X-43030Y-49621D01*
X-43014D01*
X-42998Y-49605D01*
X-42918Y-49557D01*
X-42790Y-49461D01*
X-42631Y-49349D01*
X-42439Y-49206D01*
X-42248Y-49015D01*
X-42073Y-48823D01*
X-41897Y-48584D01*
X-41881Y-48552D01*
X-41833Y-48472D01*
X-41754Y-48329D01*
X-41658Y-48153D01*
X-41562Y-47930D01*
X-41451Y-47675D01*
X-41355Y-47387D01*
X-41275Y-47068D01*
Y-47052D01*
X-41259Y-47021D01*
Y-46973D01*
X-41243Y-46909D01*
X-41211Y-46733D01*
X-41179Y-46510D01*
X-41147Y-46239D01*
X-41115Y-45920D01*
X-41084Y-45585D01*
Y-45234D01*
Y-45218D01*
Y-45186D01*
Y-45138D01*
Y-45059D01*
Y-44963D01*
X-41100Y-44867D01*
Y-44612D01*
X-41131Y-44325D01*
X-41163Y-44006D01*
X-41211Y-43687D01*
X-41275Y-43352D01*
Y-43336D01*
Y-43320D01*
X-41291Y-43272D01*
X-41307Y-43208D01*
X-41355Y-43049D01*
X-41419Y-42841D01*
X-41498Y-42602D01*
X-41594Y-42363D01*
X-41722Y-42092D01*
X-41865Y-41852D01*
X-41881Y-41821D01*
X-41945Y-41741D01*
X-42041Y-41629D01*
X-42152Y-41486D01*
X-42312Y-41326D01*
X-42503Y-41150D01*
X-42727Y-40991D01*
X-42982Y-40848D01*
X-43014Y-40831D01*
X-43109Y-40784D01*
X-43253Y-40736D01*
X-43460Y-40656D01*
X-43716Y-40592D01*
X-44003Y-40544D01*
X-44338Y-40497D01*
X-44704Y-40481D01*
D02*
G37*
G36*
X-25798Y77390D02*
X-30219D01*
Y62861D01*
X-25506D01*
X-25117Y62910D01*
X-24631D01*
X-24048Y63007D01*
X-23465Y63104D01*
X-22834Y63201D01*
X-22299Y63396D01*
X-22250Y63444D01*
X-22056Y63493D01*
X-21765Y63639D01*
X-21424Y63833D01*
X-20647Y64319D01*
X-19870Y64951D01*
X-19821Y64999D01*
X-19724Y65145D01*
X-19529Y65339D01*
X-19287Y65631D01*
X-19044Y65971D01*
X-18801Y66360D01*
X-18558Y66797D01*
X-18363Y67283D01*
X-18315Y67332D01*
X-18266Y67526D01*
X-18169Y67818D01*
X-18072Y68206D01*
X-17974Y68643D01*
X-17926Y69178D01*
X-17829Y69761D01*
Y70344D01*
Y70393D01*
Y70441D01*
Y70733D01*
X-17877Y71122D01*
X-17926Y71607D01*
X-18023Y72191D01*
X-18218Y72822D01*
X-18412Y73405D01*
X-18703Y73988D01*
X-18752Y74037D01*
X-18849Y74231D01*
X-19044Y74523D01*
X-19287Y74815D01*
X-19578Y75203D01*
X-19918Y75592D01*
X-20307Y75932D01*
X-20744Y76224D01*
X-20793Y76272D01*
X-20938Y76321D01*
X-21181Y76466D01*
X-21522Y76612D01*
X-21910Y76758D01*
X-22299Y76904D01*
X-22785Y77050D01*
X-23271Y77147D01*
X-23319D01*
X-23465Y77195D01*
X-23757Y77244D01*
X-24048Y77293D01*
X-24437D01*
X-24874Y77341D01*
X-25798Y77390D01*
D02*
G37*
G36*
X-55438D02*
X-59859D01*
Y62861D01*
X-55146D01*
X-54757Y62910D01*
X-54271D01*
X-53688Y63007D01*
X-53105Y63104D01*
X-52474Y63201D01*
X-51939Y63396D01*
X-51891Y63444D01*
X-51696Y63493D01*
X-51405Y63639D01*
X-51065Y63833D01*
X-50287Y64319D01*
X-49510Y64951D01*
X-49461Y64999D01*
X-49364Y65145D01*
X-49169Y65339D01*
X-48927Y65631D01*
X-48684Y65971D01*
X-48441Y66360D01*
X-48198Y66797D01*
X-48003Y67283D01*
X-47955Y67332D01*
X-47906Y67526D01*
X-47809Y67818D01*
X-47712Y68206D01*
X-47615Y68643D01*
X-47566Y69178D01*
X-47469Y69761D01*
Y70344D01*
Y70393D01*
Y70441D01*
Y70733D01*
X-47517Y71122D01*
X-47566Y71607D01*
X-47663Y72191D01*
X-47857Y72822D01*
X-48052Y73405D01*
X-48343Y73988D01*
X-48392Y74037D01*
X-48489Y74231D01*
X-48684Y74523D01*
X-48927Y74815D01*
X-49218Y75203D01*
X-49558Y75592D01*
X-49947Y75932D01*
X-50384Y76224D01*
X-50433Y76272D01*
X-50579Y76321D01*
X-50821Y76466D01*
X-51162Y76612D01*
X-51550Y76758D01*
X-51939Y76904D01*
X-52425Y77050D01*
X-52911Y77147D01*
X-52959D01*
X-53105Y77195D01*
X-53397Y77244D01*
X-53688Y77293D01*
X-54077D01*
X-54514Y77341D01*
X-55438Y77390D01*
D02*
G37*
G36*
X-13576Y-87019D02*
X-15219D01*
Y-91023D01*
X-13576D01*
X-13464Y-91007D01*
X-13305D01*
X-13145Y-90991D01*
X-12954Y-90959D01*
X-12778Y-90927D01*
X-12603Y-90879D01*
X-12587D01*
X-12523Y-90847D01*
X-12443Y-90815D01*
X-12332Y-90767D01*
X-12076Y-90640D01*
X-11837Y-90464D01*
X-11821Y-90448D01*
X-11789Y-90416D01*
X-11725Y-90353D01*
X-11662Y-90289D01*
X-11598Y-90193D01*
X-11518Y-90082D01*
X-11390Y-89826D01*
Y-89810D01*
X-11374Y-89762D01*
X-11343Y-89683D01*
X-11311Y-89587D01*
X-11295Y-89459D01*
X-11263Y-89316D01*
X-11247Y-89013D01*
Y-88997D01*
Y-88981D01*
Y-88901D01*
X-11263Y-88773D01*
X-11279Y-88614D01*
X-11327Y-88423D01*
X-11374Y-88231D01*
X-11454Y-88040D01*
X-11566Y-87848D01*
X-11582Y-87832D01*
X-11630Y-87769D01*
X-11710Y-87673D01*
X-11821Y-87577D01*
X-11965Y-87465D01*
X-12140Y-87338D01*
X-12363Y-87242D01*
X-12619Y-87147D01*
X-12635D01*
X-12651Y-87131D01*
X-12698D01*
X-12762Y-87115D01*
X-12938Y-87083D01*
X-13145Y-87051D01*
X-13193D01*
X-13257Y-87035D01*
X-13448D01*
X-13576Y-87019D01*
D02*
G37*
%LPD*%
D10*
X132750Y32000D02*
G03*
X142750Y42000I0J10000D01*
G01*
Y82000D02*
G03*
X132750Y92000I-10000J0D01*
G01*
X-132750D02*
G03*
X-142750Y82000I0J-10000D01*
G01*
Y42000D02*
G03*
X-132750Y32000I10000J0D01*
G01*
Y92000D02*
X132750D01*
X-132750Y32000D02*
X132750D01*
X142750Y42000D02*
Y82000D01*
X-142750Y42000D02*
Y82000D01*
D11*
X60706Y-75250D02*
G03*
X60706Y-75250I-2206J0D01*
G01*
X48206Y-67750D02*
G03*
X48206Y-67750I-2206J0D01*
G01*
X68206Y-72750D02*
G03*
X68206Y-72750I-2206J0D01*
G01*
X73206Y-57750D02*
G03*
X73206Y-57750I-2206J0D01*
G01*
X70706Y-65250D02*
G03*
X70706Y-65250I-2206J0D01*
G01*
X-78000Y-56750D02*
X-76500Y-60250D01*
X-81500Y-55250D02*
X-78000Y-56750D01*
X-86500Y-60250D02*
X-85000Y-56750D01*
X-81500Y-55250D01*
X-71500Y-75250D02*
X-70000Y-78750D01*
X-66500Y-80250D01*
X-63000Y-78750D01*
X-61500Y-75250D01*
X-76500Y-60250D02*
X-71500Y-75250D01*
X-89000Y-67750D02*
X-86500Y-60250D01*
X-61500Y-75250D02*
X-59000Y-55250D01*
X-54000D01*
Y-80250D02*
Y-55250D01*
Y-80250D02*
X-49000D01*
Y-55250D01*
X-44000D01*
Y-80250D02*
Y-55250D01*
Y-80250D02*
X-36500D01*
Y-55250D01*
X-31500D01*
Y-67750D02*
Y-55250D01*
Y-67750D02*
X-26500D01*
X-24000Y-65250D01*
X-19000Y-70250D01*
X-14000Y-65250D01*
X-9000Y-70250D01*
X-6500Y-67750D01*
X3500D01*
Y-72750D02*
Y-62750D01*
X8500Y-72750D02*
Y-67750D01*
Y-62750D01*
Y-67750D02*
X13500D01*
X21000Y-75250D01*
X13500Y-67750D02*
X21000Y-60250D01*
X13500Y-75250D02*
Y-60250D01*
X21000D02*
Y-55250D01*
Y-80250D02*
Y-75250D01*
X26000D01*
Y-67750D01*
X31000D01*
Y-75250D02*
Y-60250D01*
Y-75250D02*
X43500Y-67750D01*
X31000Y-60250D02*
X43500Y-67750D01*
X48500D02*
X61000D01*
X56000Y-72750D02*
X56750Y-73500D01*
X48500Y-72750D02*
X56000D01*
X61000Y-67750D02*
X63956Y-70706D01*
X68206Y-72750D02*
X83500D01*
X66000Y-62750D02*
X66875Y-63625D01*
X48500Y-62750D02*
X66000D01*
X48500Y-57750D02*
X68500D01*
X56000Y-80250D02*
X86000D01*
X71000Y-65250D02*
X86000D01*
X53500Y-77750D02*
X56000Y-80250D01*
X49004Y-77750D02*
X53500Y-77750D01*
X17323Y-73411D02*
X21000Y-75250D01*
X19161Y-71573D02*
X21000Y-75250D01*
X17323Y-73411D02*
X19161Y-71573D01*
X73500Y-57750D02*
X86000D01*
M02*
