M48
;Layer_Color=9474304
;FILE_FORMAT=2:5
INCH,LZ
;TYPE=PLATED
T1F00S00C0.01400
T2F00S00C0.01500
T3F00S00C0.04000
T4F00S00C0.06000
T5F00S00C0.19685
%
T01
X00195Y-0057
X0031Y-0052
X0041Y-00225
X00085Y-0058
X-0024Y-00635
X-00315Y-0072
X-006Y-0064
Y-0054
Y-0044
Y-0034
Y-0024
Y-0014
Y-0004
X-007
Y-0014
Y-0024
Y-0034
Y-0044
Y-0054
Y-0064
X-008
Y-0054
Y-0044
Y-0034
Y-0024
Y-0014
Y-0004
X-009
Y-0014
Y-0024
Y-0034
Y-0044
Y-0054
Y-0064
X-01
Y-0054
Y-0044
Y-0034
Y-0024
Y-0014
Y-0004
X-011
Y-0014
Y-0024
Y-0034
Y-0044
Y-0054
Y-0064
X-012
Y-0054
Y-0044
Y-0034
X-0129988
X-012Y-0024
Y-0014
Y-0004
X-0129988
X-013Y-008
X-012
X-00965
X-005Y-0044
Y-0034
Y-0024
Y-0014
Y-0004
X-004
Y-0014
Y-0024
Y-0034
X-003
Y-0024
Y-0014
X-01505Y-0018
X-0185Y-00175
X-0192
X-0176Y-00065
X-0188Y-0053
X-0206
X-01535Y-0073
X-01455Y-00795
X-0142Y0006
Y0016
X-01585Y0018
X-01665
X-01805
X-01885
X-01795Y00365
X-0184Y00435
X-0187Y0053
X-02065
X-01665Y00365
X-0142Y0046
X-01455Y008
X-0154Y0073
X-012Y0066
X-011
X-01
X-009
X-008
X-007
X-006
Y0056
Y0046
Y0036
Y0026
Y0016
Y0006
X-007
Y0016
Y0026
Y0036
Y0046
Y0056
X-008
Y0046
Y0036
Y0026
Y0016
Y0006
X-009
Y0016
Y0026
Y0036
Y0046
Y0056
X-01
Y0046
Y0036
Y0026
Y0016
Y0006
X-011
Y0016
Y0026
Y0036
Y0046
Y0056
X-012
Y0046
Y0036
X-0129988
Y0026
X-012
Y0016
X-0129988
Y0006
X-012
X-005
Y0016
Y0026
Y0036
X-004
Y0026
Y0016
Y0006
X-003Y002
X-00295Y00495
X0006Y00595
X-0001Y0031
X00195Y00575
X0031Y0052
X0041Y00245
T02
X0026Y-00155
X0035
X00104Y00225
X-00099
X0026Y00155
X0034999Y0015499
T03
X-0180748Y0004921
X-0165
X-0149252
X00225Y0031
X00325
T04
X-0135472Y-0012402
X-0194528Y0012402
T05
X0Y0
M30
