%FSLAX25Y25*%
%MOIN*%
G70*
G01*
G75*
G04 Layer_Color=16711935*
G04:AMPARAMS|DCode=10|XSize=40mil|YSize=50mil|CornerRadius=0mil|HoleSize=0mil|Usage=FLASHONLY|Rotation=135.000|XOffset=0mil|YOffset=0mil|HoleType=Round|Shape=Rectangle|*
%AMROTATEDRECTD10*
4,1,4,0.03182,0.00354,-0.00354,-0.03182,-0.03182,-0.00354,0.00354,0.03182,0.03182,0.00354,0.0*
%
%ADD10ROTATEDRECTD10*%

G04:AMPARAMS|DCode=11|XSize=40mil|YSize=50mil|CornerRadius=0mil|HoleSize=0mil|Usage=FLASHONLY|Rotation=45.000|XOffset=0mil|YOffset=0mil|HoleType=Round|Shape=Rectangle|*
%AMROTATEDRECTD11*
4,1,4,0.00354,-0.03182,-0.03182,0.00354,-0.00354,0.03182,0.03182,-0.00354,0.00354,-0.03182,0.0*
%
%ADD11ROTATEDRECTD11*%

%ADD12R,0.15748X0.07874*%
%ADD13R,0.04000X0.05000*%
%ADD14R,0.13000X0.17000*%
%ADD15R,0.06000X0.10000*%
G04:AMPARAMS|DCode=16|XSize=60mil|YSize=60mil|CornerRadius=15mil|HoleSize=0mil|Usage=FLASHONLY|Rotation=180.000|XOffset=0mil|YOffset=0mil|HoleType=Round|Shape=RoundedRectangle|*
%AMROUNDEDRECTD16*
21,1,0.06000,0.03000,0,0,180.0*
21,1,0.03000,0.06000,0,0,180.0*
1,1,0.03000,-0.01500,0.01500*
1,1,0.03000,0.01500,0.01500*
1,1,0.03000,0.01500,-0.01500*
1,1,0.03000,-0.01500,-0.01500*
%
%ADD16ROUNDEDRECTD16*%
%ADD17R,0.09843X0.07874*%
%ADD18R,0.12500X0.06000*%
%ADD19R,0.05000X0.04000*%
%ADD20R,0.08000X0.02400*%
%ADD21O,0.08000X0.02400*%
%ADD22R,0.24000X0.08000*%
%ADD23C,0.02500*%
%ADD24C,0.01000*%
%ADD25R,0.04712X0.19969*%
%ADD26C,0.06500*%
%ADD27C,0.09000*%
%ADD28C,0.23622*%
%ADD29C,0.03400*%
%ADD30C,0.03500*%
%ADD31C,0.03200*%
%ADD32R,0.03000X0.03000*%
%ADD33C,0.00800*%
%ADD34C,0.00600*%
%ADD35C,0.00400*%
%ADD36C,0.00500*%
%ADD37C,0.00984*%
%ADD38R,0.08400X0.03800*%
%ADD39C,0.10000*%
G04:AMPARAMS|DCode=40|XSize=48mil|YSize=58mil|CornerRadius=0mil|HoleSize=0mil|Usage=FLASHONLY|Rotation=135.000|XOffset=0mil|YOffset=0mil|HoleType=Round|Shape=Rectangle|*
%AMROTATEDRECTD40*
4,1,4,0.03748,0.00354,-0.00354,-0.03748,-0.03748,-0.00354,0.00354,0.03748,0.03748,0.00354,0.0*
%
%ADD40ROTATEDRECTD40*%

G04:AMPARAMS|DCode=41|XSize=48mil|YSize=58mil|CornerRadius=0mil|HoleSize=0mil|Usage=FLASHONLY|Rotation=45.000|XOffset=0mil|YOffset=0mil|HoleType=Round|Shape=Rectangle|*
%AMROTATEDRECTD41*
4,1,4,0.00354,-0.03748,-0.03748,0.00354,-0.00354,0.03748,0.03748,-0.00354,0.00354,-0.03748,0.0*
%
%ADD41ROTATEDRECTD41*%

%ADD42R,0.16148X0.08274*%
%ADD43R,0.04800X0.05800*%
%ADD44R,0.13400X0.17400*%
%ADD45R,0.06400X0.10400*%
G04:AMPARAMS|DCode=46|XSize=64mil|YSize=64mil|CornerRadius=17mil|HoleSize=0mil|Usage=FLASHONLY|Rotation=180.000|XOffset=0mil|YOffset=0mil|HoleType=Round|Shape=RoundedRectangle|*
%AMROUNDEDRECTD46*
21,1,0.06400,0.03000,0,0,180.0*
21,1,0.03000,0.06400,0,0,180.0*
1,1,0.03400,-0.01500,0.01500*
1,1,0.03400,0.01500,0.01500*
1,1,0.03400,0.01500,-0.01500*
1,1,0.03400,-0.01500,-0.01500*
%
%ADD46ROUNDEDRECTD46*%
%ADD47R,0.10642X0.08674*%
%ADD48R,0.13300X0.06800*%
%ADD49R,0.05800X0.04800*%
%ADD50R,0.08800X0.03200*%
%ADD51O,0.08800X0.03200*%
%ADD52R,0.24400X0.08400*%
%ADD53C,0.07300*%
%ADD54C,0.09800*%
%ADD55C,0.24022*%
%ADD56C,0.03000*%
%ADD57O,0.04500X0.02500*%
%ADD58R,0.03800X0.03800*%
%ADD59C,0.04500*%
G36*
X-507789Y-385383D02*
X-507729D01*
X-507656Y-385396D01*
X-507576Y-385403D01*
X-507483Y-385423D01*
X-507376Y-385443D01*
X-507269Y-385476D01*
X-507156Y-385509D01*
X-507043Y-385556D01*
X-506930Y-385609D01*
X-506810Y-385669D01*
X-506697Y-385749D01*
X-506590Y-385829D01*
X-506484Y-385929D01*
X-506477Y-385936D01*
X-506457Y-385956D01*
X-506430Y-385982D01*
X-506397Y-386029D01*
X-506357Y-386082D01*
X-506310Y-386149D01*
X-506264Y-386222D01*
X-506211Y-386309D01*
X-506164Y-386402D01*
X-506117Y-386508D01*
X-506071Y-386622D01*
X-506031Y-386742D01*
X-505991Y-386868D01*
X-505964Y-387008D01*
X-505951Y-387155D01*
X-505944Y-387308D01*
Y-387314D01*
Y-387348D01*
X-505951Y-387388D01*
Y-387448D01*
X-505957Y-387521D01*
X-505971Y-387607D01*
X-505991Y-387701D01*
X-506011Y-387801D01*
X-506044Y-387907D01*
X-506077Y-388020D01*
X-506124Y-388134D01*
X-506177Y-388253D01*
X-506237Y-388373D01*
X-506310Y-388487D01*
X-506397Y-388600D01*
X-506490Y-388706D01*
X-506497Y-388713D01*
X-506517Y-388733D01*
X-506543Y-388759D01*
X-506590Y-388793D01*
X-506643Y-388833D01*
X-506703Y-388879D01*
X-506783Y-388933D01*
X-506863Y-388979D01*
X-506963Y-389033D01*
X-507063Y-389086D01*
X-507176Y-389132D01*
X-507296Y-389172D01*
X-507423Y-389206D01*
X-507562Y-389232D01*
X-507702Y-389252D01*
X-507856Y-389259D01*
X-507909D01*
X-507942Y-389252D01*
X-507989D01*
X-508042Y-389246D01*
X-508102Y-389239D01*
X-508169Y-389232D01*
X-508322Y-389206D01*
X-508482Y-389166D01*
X-508661Y-389106D01*
X-508835Y-389033D01*
X-508841D01*
X-508855Y-389019D01*
X-508881Y-389006D01*
X-508908Y-388986D01*
X-508948Y-388966D01*
X-508994Y-388933D01*
X-509094Y-388859D01*
X-509207Y-388766D01*
X-509321Y-388646D01*
X-509434Y-388513D01*
X-509534Y-388353D01*
Y-388347D01*
X-509547Y-388333D01*
X-509554Y-388307D01*
X-509574Y-388273D01*
X-509587Y-388227D01*
X-509607Y-388180D01*
X-509634Y-388120D01*
X-509654Y-388047D01*
X-509674Y-387974D01*
X-509700Y-387894D01*
X-509720Y-387801D01*
X-509734Y-387707D01*
X-509760Y-387501D01*
X-509774Y-387268D01*
Y-387261D01*
Y-387248D01*
Y-387221D01*
X-509767Y-387181D01*
Y-387141D01*
X-509760Y-387088D01*
X-509754Y-387028D01*
X-509740Y-386968D01*
X-509714Y-386822D01*
X-509674Y-386662D01*
X-509614Y-386495D01*
X-509534Y-386322D01*
Y-386315D01*
X-509521Y-386302D01*
X-509507Y-386275D01*
X-509487Y-386249D01*
X-509467Y-386209D01*
X-509434Y-386162D01*
X-509361Y-386062D01*
X-509261Y-385949D01*
X-509148Y-385836D01*
X-509008Y-385723D01*
X-508855Y-385623D01*
X-508848D01*
X-508835Y-385609D01*
X-508808Y-385603D01*
X-508775Y-385583D01*
X-508735Y-385563D01*
X-508681Y-385543D01*
X-508628Y-385523D01*
X-508562Y-385496D01*
X-508415Y-385456D01*
X-508249Y-385416D01*
X-508069Y-385390D01*
X-507869Y-385376D01*
X-507829D01*
X-507789Y-385383D01*
D02*
G37*
G36*
X-525272D02*
X-525211D01*
X-525138Y-385396D01*
X-525058Y-385403D01*
X-524965Y-385423D01*
X-524859Y-385443D01*
X-524752Y-385476D01*
X-524639Y-385509D01*
X-524525Y-385556D01*
X-524412Y-385609D01*
X-524292Y-385669D01*
X-524179Y-385749D01*
X-524073Y-385829D01*
X-523966Y-385929D01*
X-523959Y-385936D01*
X-523940Y-385956D01*
X-523913Y-385982D01*
X-523879Y-386029D01*
X-523840Y-386082D01*
X-523793Y-386149D01*
X-523746Y-386222D01*
X-523693Y-386309D01*
X-523646Y-386402D01*
X-523600Y-386508D01*
X-523553Y-386622D01*
X-523513Y-386742D01*
X-523473Y-386868D01*
X-523447Y-387008D01*
X-523433Y-387155D01*
X-523427Y-387308D01*
Y-387314D01*
Y-387348D01*
X-523433Y-387388D01*
Y-387448D01*
X-523440Y-387521D01*
X-523453Y-387607D01*
X-523473Y-387701D01*
X-523493Y-387801D01*
X-523526Y-387907D01*
X-523560Y-388020D01*
X-523606Y-388134D01*
X-523660Y-388253D01*
X-523720Y-388373D01*
X-523793Y-388487D01*
X-523879Y-388600D01*
X-523973Y-388706D01*
X-523979Y-388713D01*
X-523999Y-388733D01*
X-524026Y-388759D01*
X-524073Y-388793D01*
X-524126Y-388833D01*
X-524186Y-388879D01*
X-524266Y-388933D01*
X-524346Y-388979D01*
X-524446Y-389033D01*
X-524545Y-389086D01*
X-524659Y-389132D01*
X-524779Y-389172D01*
X-524905Y-389206D01*
X-525045Y-389232D01*
X-525185Y-389252D01*
X-525338Y-389259D01*
X-525391D01*
X-525425Y-389252D01*
X-525471D01*
X-525525Y-389246D01*
X-525585Y-389239D01*
X-525651Y-389232D01*
X-525804Y-389206D01*
X-525964Y-389166D01*
X-526144Y-389106D01*
X-526317Y-389033D01*
X-526324D01*
X-526337Y-389019D01*
X-526364Y-389006D01*
X-526390Y-388986D01*
X-526430Y-388966D01*
X-526477Y-388933D01*
X-526577Y-388859D01*
X-526690Y-388766D01*
X-526803Y-388646D01*
X-526917Y-388513D01*
X-527016Y-388353D01*
Y-388347D01*
X-527030Y-388333D01*
X-527036Y-388307D01*
X-527056Y-388273D01*
X-527070Y-388227D01*
X-527090Y-388180D01*
X-527116Y-388120D01*
X-527136Y-388047D01*
X-527156Y-387974D01*
X-527183Y-387894D01*
X-527203Y-387801D01*
X-527216Y-387707D01*
X-527243Y-387501D01*
X-527256Y-387268D01*
Y-387261D01*
Y-387248D01*
Y-387221D01*
X-527249Y-387181D01*
Y-387141D01*
X-527243Y-387088D01*
X-527236Y-387028D01*
X-527223Y-386968D01*
X-527196Y-386822D01*
X-527156Y-386662D01*
X-527096Y-386495D01*
X-527016Y-386322D01*
Y-386315D01*
X-527003Y-386302D01*
X-526990Y-386275D01*
X-526970Y-386249D01*
X-526950Y-386209D01*
X-526917Y-386162D01*
X-526843Y-386062D01*
X-526743Y-385949D01*
X-526630Y-385836D01*
X-526490Y-385723D01*
X-526337Y-385623D01*
X-526330D01*
X-526317Y-385609D01*
X-526290Y-385603D01*
X-526257Y-385583D01*
X-526217Y-385563D01*
X-526164Y-385543D01*
X-526111Y-385523D01*
X-526044Y-385496D01*
X-525898Y-385456D01*
X-525731Y-385416D01*
X-525551Y-385390D01*
X-525351Y-385376D01*
X-525311D01*
X-525272Y-385383D01*
D02*
G37*
G36*
X-528388Y-385463D02*
X-527716D01*
Y-386242D01*
X-528388D01*
Y-387747D01*
Y-387754D01*
Y-387767D01*
Y-387787D01*
Y-387821D01*
Y-387894D01*
Y-387980D01*
X-528382Y-388073D01*
Y-388160D01*
Y-388233D01*
X-528375Y-388260D01*
Y-388280D01*
X-528368Y-388293D01*
X-528355Y-388320D01*
X-528328Y-388360D01*
X-528288Y-388400D01*
X-528282D01*
X-528275Y-388407D01*
X-528242Y-388420D01*
X-528182Y-388440D01*
X-528115Y-388446D01*
X-528089D01*
X-528062Y-388440D01*
X-528015Y-388433D01*
X-527962Y-388426D01*
X-527895Y-388407D01*
X-527816Y-388387D01*
X-527722Y-388353D01*
X-527636Y-389119D01*
X-527642D01*
X-527649Y-389126D01*
X-527669Y-389132D01*
X-527696Y-389139D01*
X-527769Y-389166D01*
X-527862Y-389186D01*
X-527975Y-389212D01*
X-528109Y-389239D01*
X-528255Y-389252D01*
X-528415Y-389259D01*
X-528462D01*
X-528508Y-389252D01*
X-528568Y-389246D01*
X-528641Y-389239D01*
X-528721Y-389219D01*
X-528808Y-389199D01*
X-528888Y-389172D01*
X-528895Y-389166D01*
X-528921Y-389159D01*
X-528961Y-389139D01*
X-529008Y-389112D01*
X-529108Y-389039D01*
X-529161Y-388993D01*
X-529201Y-388946D01*
X-529208Y-388939D01*
X-529214Y-388919D01*
X-529234Y-388886D01*
X-529254Y-388839D01*
X-529281Y-388786D01*
X-529301Y-388720D01*
X-529321Y-388646D01*
X-529341Y-388560D01*
Y-388553D01*
X-529347Y-388526D01*
Y-388480D01*
X-529354Y-388407D01*
X-529361Y-388313D01*
Y-388260D01*
Y-388193D01*
X-529367Y-388127D01*
Y-388047D01*
Y-387960D01*
Y-387867D01*
Y-386242D01*
X-529820D01*
Y-385463D01*
X-529367D01*
Y-384724D01*
X-528388Y-384144D01*
Y-385463D01*
D02*
G37*
G36*
X-504199Y-389172D02*
X-505178D01*
Y-384051D01*
X-504199D01*
Y-389172D01*
D02*
G37*
G36*
X-538938Y-384058D02*
X-538791Y-384064D01*
X-538638Y-384071D01*
X-538498Y-384084D01*
X-538432Y-384098D01*
X-538372Y-384104D01*
X-538358D01*
X-538318Y-384118D01*
X-538265Y-384131D01*
X-538192Y-384151D01*
X-538112Y-384177D01*
X-538019Y-384217D01*
X-537925Y-384264D01*
X-537839Y-384317D01*
X-537826Y-384324D01*
X-537799Y-384344D01*
X-537759Y-384384D01*
X-537699Y-384431D01*
X-537639Y-384490D01*
X-537572Y-384564D01*
X-537506Y-384650D01*
X-537446Y-384744D01*
X-537439Y-384757D01*
X-537419Y-384790D01*
X-537393Y-384843D01*
X-537366Y-384917D01*
X-537339Y-385010D01*
X-537313Y-385110D01*
X-537293Y-385223D01*
X-537286Y-385343D01*
Y-385350D01*
Y-385356D01*
Y-385376D01*
Y-385403D01*
X-537293Y-385470D01*
X-537313Y-385563D01*
X-537333Y-385663D01*
X-537366Y-385776D01*
X-537413Y-385889D01*
X-537479Y-386002D01*
X-537486Y-386016D01*
X-537512Y-386049D01*
X-537559Y-386102D01*
X-537619Y-386169D01*
X-537692Y-386242D01*
X-537786Y-386322D01*
X-537886Y-386389D01*
X-538005Y-386455D01*
X-537999D01*
X-537985Y-386462D01*
X-537959Y-386469D01*
X-537925Y-386482D01*
X-537892Y-386495D01*
X-537846Y-386515D01*
X-537739Y-386568D01*
X-537626Y-386628D01*
X-537506Y-386708D01*
X-537393Y-386808D01*
X-537286Y-386921D01*
Y-386928D01*
X-537273Y-386935D01*
X-537259Y-386955D01*
X-537246Y-386981D01*
X-537206Y-387048D01*
X-537160Y-387141D01*
X-537113Y-387254D01*
X-537073Y-387388D01*
X-537046Y-387534D01*
X-537033Y-387694D01*
Y-387701D01*
Y-387707D01*
Y-387727D01*
Y-387754D01*
X-537040Y-387821D01*
X-537053Y-387907D01*
X-537073Y-388014D01*
X-537106Y-388127D01*
X-537146Y-388247D01*
X-537199Y-388373D01*
Y-388380D01*
X-537206Y-388387D01*
X-537226Y-388426D01*
X-537266Y-388487D01*
X-537313Y-388560D01*
X-537379Y-388646D01*
X-537453Y-388733D01*
X-537546Y-388820D01*
X-537646Y-388899D01*
X-537659Y-388906D01*
X-537692Y-388933D01*
X-537759Y-388966D01*
X-537839Y-388999D01*
X-537939Y-389046D01*
X-538059Y-389079D01*
X-538192Y-389112D01*
X-538338Y-389139D01*
X-538365D01*
X-538392Y-389146D01*
X-538472D01*
X-538525Y-389153D01*
X-538591D01*
X-538665Y-389159D01*
X-538858D01*
X-538971Y-389166D01*
X-539244D01*
X-539404Y-389172D01*
X-541322D01*
Y-384051D01*
X-539071D01*
X-538938Y-384058D01*
D02*
G37*
G36*
X-497333Y-385383D02*
X-497273D01*
X-497206Y-385396D01*
X-497126Y-385403D01*
X-497040Y-385423D01*
X-496940Y-385443D01*
X-496840Y-385476D01*
X-496733Y-385509D01*
X-496620Y-385556D01*
X-496514Y-385609D01*
X-496407Y-385669D01*
X-496301Y-385749D01*
X-496201Y-385829D01*
X-496107Y-385929D01*
X-496101Y-385936D01*
X-496087Y-385956D01*
X-496061Y-385989D01*
X-496034Y-386029D01*
X-495994Y-386089D01*
X-495954Y-386162D01*
X-495914Y-386242D01*
X-495868Y-386342D01*
X-495828Y-386455D01*
X-495781Y-386575D01*
X-495748Y-386715D01*
X-495708Y-386861D01*
X-495681Y-387028D01*
X-495661Y-387208D01*
X-495648Y-387394D01*
Y-387601D01*
X-498105D01*
Y-387607D01*
Y-387621D01*
Y-387641D01*
X-498099Y-387674D01*
X-498092Y-387754D01*
X-498072Y-387854D01*
X-498045Y-387960D01*
X-498005Y-388073D01*
X-497945Y-388187D01*
X-497872Y-388287D01*
X-497859Y-388300D01*
X-497832Y-388327D01*
X-497786Y-388360D01*
X-497719Y-388407D01*
X-497632Y-388453D01*
X-497539Y-388487D01*
X-497426Y-388513D01*
X-497306Y-388526D01*
X-497266D01*
X-497226Y-388520D01*
X-497173Y-388513D01*
X-497113Y-388500D01*
X-497053Y-388473D01*
X-496986Y-388446D01*
X-496926Y-388407D01*
X-496920Y-388400D01*
X-496900Y-388380D01*
X-496873Y-388353D01*
X-496833Y-388307D01*
X-496793Y-388247D01*
X-496753Y-388180D01*
X-496713Y-388093D01*
X-496680Y-387994D01*
X-495701Y-388160D01*
Y-388167D01*
X-495708Y-388187D01*
X-495721Y-388213D01*
X-495734Y-388247D01*
X-495761Y-388293D01*
X-495781Y-388347D01*
X-495848Y-388467D01*
X-495934Y-388600D01*
X-496034Y-388733D01*
X-496161Y-388866D01*
X-496301Y-388979D01*
X-496307D01*
X-496320Y-388993D01*
X-496340Y-389006D01*
X-496374Y-389026D01*
X-496414Y-389046D01*
X-496460Y-389066D01*
X-496514Y-389092D01*
X-496580Y-389119D01*
X-496653Y-389146D01*
X-496727Y-389172D01*
X-496900Y-389212D01*
X-497100Y-389246D01*
X-497319Y-389259D01*
X-497359D01*
X-497413Y-389252D01*
X-497479Y-389246D01*
X-497559Y-389239D01*
X-497646Y-389226D01*
X-497752Y-389206D01*
X-497859Y-389179D01*
X-497972Y-389146D01*
X-498092Y-389106D01*
X-498212Y-389053D01*
X-498325Y-388993D01*
X-498445Y-388919D01*
X-498552Y-388833D01*
X-498651Y-388740D01*
X-498745Y-388626D01*
X-498751Y-388620D01*
X-498758Y-388600D01*
X-498778Y-388573D01*
X-498805Y-388533D01*
X-498831Y-388487D01*
X-498858Y-388426D01*
X-498891Y-388353D01*
X-498924Y-388273D01*
X-498965Y-388187D01*
X-498998Y-388093D01*
X-499024Y-387987D01*
X-499051Y-387874D01*
X-499078Y-387754D01*
X-499098Y-387627D01*
X-499104Y-387488D01*
X-499111Y-387348D01*
Y-387334D01*
Y-387308D01*
X-499104Y-387261D01*
Y-387194D01*
X-499098Y-387121D01*
X-499084Y-387028D01*
X-499071Y-386928D01*
X-499051Y-386822D01*
X-499024Y-386708D01*
X-498991Y-386588D01*
X-498958Y-386469D01*
X-498911Y-386349D01*
X-498851Y-386229D01*
X-498791Y-386116D01*
X-498718Y-386002D01*
X-498631Y-385902D01*
X-498625Y-385896D01*
X-498611Y-385882D01*
X-498585Y-385856D01*
X-498545Y-385823D01*
X-498498Y-385783D01*
X-498438Y-385736D01*
X-498372Y-385689D01*
X-498298Y-385636D01*
X-498212Y-385589D01*
X-498125Y-385543D01*
X-498025Y-385496D01*
X-497912Y-385456D01*
X-497799Y-385423D01*
X-497679Y-385396D01*
X-497546Y-385383D01*
X-497413Y-385376D01*
X-497373D01*
X-497333Y-385383D01*
D02*
G37*
G36*
X-518358D02*
X-518265Y-385396D01*
X-518159Y-385416D01*
X-518045Y-385450D01*
X-517926Y-385490D01*
X-517819Y-385543D01*
X-517812D01*
X-517806Y-385549D01*
X-517772Y-385576D01*
X-517719Y-385609D01*
X-517659Y-385669D01*
X-517586Y-385736D01*
X-517519Y-385823D01*
X-517453Y-385922D01*
X-517393Y-386036D01*
X-517386Y-386049D01*
X-517373Y-386082D01*
X-517359Y-386136D01*
X-517339Y-386215D01*
X-517319Y-386322D01*
X-517299Y-386455D01*
X-517293Y-386535D01*
Y-386615D01*
X-517286Y-386702D01*
Y-386802D01*
Y-389172D01*
X-518265D01*
Y-387055D01*
Y-387048D01*
Y-387028D01*
Y-387001D01*
Y-386968D01*
Y-386921D01*
X-518272Y-386868D01*
X-518278Y-386755D01*
X-518292Y-386635D01*
X-518312Y-386522D01*
X-518338Y-386415D01*
X-518352Y-386375D01*
X-518372Y-386342D01*
X-518378Y-386335D01*
X-518398Y-386309D01*
X-518432Y-386275D01*
X-518472Y-386235D01*
X-518532Y-386195D01*
X-518605Y-386162D01*
X-518691Y-386136D01*
X-518791Y-386129D01*
X-518825D01*
X-518864Y-386136D01*
X-518918Y-386142D01*
X-518978Y-386162D01*
X-519044Y-386182D01*
X-519111Y-386215D01*
X-519177Y-386255D01*
X-519184Y-386262D01*
X-519204Y-386282D01*
X-519238Y-386309D01*
X-519277Y-386349D01*
X-519317Y-386402D01*
X-519364Y-386469D01*
X-519404Y-386542D01*
X-519437Y-386628D01*
Y-386642D01*
X-519451Y-386675D01*
X-519464Y-386735D01*
X-519477Y-386815D01*
X-519491Y-386921D01*
X-519504Y-387055D01*
X-519511Y-387208D01*
X-519517Y-387301D01*
Y-387394D01*
Y-389172D01*
X-520496D01*
Y-387141D01*
Y-387135D01*
Y-387115D01*
Y-387088D01*
Y-387055D01*
Y-387008D01*
Y-386961D01*
X-520503Y-386855D01*
X-520510Y-386735D01*
X-520516Y-386622D01*
X-520530Y-386522D01*
X-520543Y-386482D01*
X-520549Y-386449D01*
Y-386442D01*
X-520556Y-386422D01*
X-520570Y-386395D01*
X-520589Y-386355D01*
X-520643Y-386282D01*
X-520676Y-386242D01*
X-520716Y-386209D01*
X-520723Y-386202D01*
X-520736Y-386195D01*
X-520763Y-386182D01*
X-520789Y-386169D01*
X-520836Y-386156D01*
X-520883Y-386142D01*
X-520942Y-386129D01*
X-521049D01*
X-521089Y-386136D01*
X-521142Y-386142D01*
X-521209Y-386162D01*
X-521276Y-386182D01*
X-521349Y-386215D01*
X-521422Y-386255D01*
X-521429Y-386262D01*
X-521449Y-386275D01*
X-521482Y-386309D01*
X-521522Y-386342D01*
X-521562Y-386395D01*
X-521608Y-386455D01*
X-521648Y-386528D01*
X-521682Y-386608D01*
Y-386622D01*
X-521695Y-386655D01*
X-521702Y-386708D01*
X-521715Y-386788D01*
X-521728Y-386895D01*
X-521735Y-386955D01*
X-521742Y-387028D01*
X-521748Y-387101D01*
Y-387188D01*
X-521755Y-387274D01*
Y-387374D01*
Y-389172D01*
X-522734D01*
Y-385463D01*
X-521828D01*
Y-385976D01*
X-521822Y-385969D01*
X-521808Y-385949D01*
X-521782Y-385922D01*
X-521742Y-385882D01*
X-521695Y-385836D01*
X-521642Y-385783D01*
X-521575Y-385729D01*
X-521502Y-385676D01*
X-521422Y-385623D01*
X-521335Y-385563D01*
X-521242Y-385516D01*
X-521142Y-385470D01*
X-521036Y-385430D01*
X-520923Y-385403D01*
X-520803Y-385383D01*
X-520683Y-385376D01*
X-520623D01*
X-520556Y-385383D01*
X-520470Y-385396D01*
X-520376Y-385416D01*
X-520270Y-385443D01*
X-520163Y-385476D01*
X-520063Y-385529D01*
X-520050Y-385536D01*
X-520017Y-385556D01*
X-519970Y-385589D01*
X-519910Y-385636D01*
X-519843Y-385703D01*
X-519777Y-385776D01*
X-519704Y-385862D01*
X-519637Y-385969D01*
Y-385962D01*
X-519624Y-385956D01*
X-519597Y-385922D01*
X-519544Y-385869D01*
X-519477Y-385803D01*
X-519397Y-385736D01*
X-519311Y-385663D01*
X-519211Y-385589D01*
X-519111Y-385529D01*
X-519104D01*
X-519098Y-385523D01*
X-519058Y-385503D01*
X-519004Y-385483D01*
X-518925Y-385450D01*
X-518838Y-385423D01*
X-518731Y-385403D01*
X-518625Y-385383D01*
X-518505Y-385376D01*
X-518438D01*
X-518358Y-385383D01*
D02*
G37*
G36*
X-499790Y-389172D02*
X-500703D01*
Y-388640D01*
X-500716Y-388646D01*
X-500743Y-388686D01*
X-500789Y-388740D01*
X-500856Y-388806D01*
X-500936Y-388886D01*
X-501029Y-388966D01*
X-501129Y-389039D01*
X-501242Y-389106D01*
X-501256Y-389112D01*
X-501295Y-389132D01*
X-501355Y-389153D01*
X-501435Y-389179D01*
X-501529Y-389212D01*
X-501635Y-389232D01*
X-501748Y-389252D01*
X-501868Y-389259D01*
X-501895D01*
X-501928Y-389252D01*
X-501975D01*
X-502028Y-389246D01*
X-502095Y-389232D01*
X-502168Y-389219D01*
X-502241Y-389192D01*
X-502328Y-389166D01*
X-502414Y-389132D01*
X-502508Y-389092D01*
X-502601Y-389039D01*
X-502694Y-388986D01*
X-502781Y-388913D01*
X-502874Y-388839D01*
X-502960Y-388746D01*
X-502967Y-388740D01*
X-502980Y-388720D01*
X-503000Y-388693D01*
X-503034Y-388653D01*
X-503067Y-388600D01*
X-503100Y-388533D01*
X-503147Y-388460D01*
X-503187Y-388373D01*
X-503227Y-388280D01*
X-503267Y-388167D01*
X-503307Y-388054D01*
X-503340Y-387920D01*
X-503373Y-387787D01*
X-503393Y-387634D01*
X-503407Y-387474D01*
X-503413Y-387308D01*
Y-387294D01*
Y-387268D01*
Y-387214D01*
X-503407Y-387155D01*
X-503400Y-387074D01*
X-503387Y-386981D01*
X-503373Y-386881D01*
X-503360Y-386775D01*
X-503307Y-386542D01*
X-503273Y-386422D01*
X-503227Y-386302D01*
X-503180Y-386182D01*
X-503120Y-386069D01*
X-503054Y-385969D01*
X-502974Y-385869D01*
X-502967Y-385862D01*
X-502954Y-385849D01*
X-502927Y-385823D01*
X-502894Y-385789D01*
X-502847Y-385756D01*
X-502794Y-385716D01*
X-502734Y-385669D01*
X-502667Y-385623D01*
X-502588Y-385576D01*
X-502501Y-385529D01*
X-502408Y-385490D01*
X-502308Y-385456D01*
X-502201Y-385423D01*
X-502095Y-385396D01*
X-501975Y-385383D01*
X-501848Y-385376D01*
X-501788D01*
X-501742Y-385383D01*
X-501688Y-385390D01*
X-501628Y-385403D01*
X-501555Y-385423D01*
X-501482Y-385443D01*
X-501402Y-385470D01*
X-501315Y-385503D01*
X-501222Y-385543D01*
X-501129Y-385596D01*
X-501042Y-385656D01*
X-500949Y-385723D01*
X-500856Y-385803D01*
X-500769Y-385896D01*
Y-384051D01*
X-499790D01*
Y-389172D01*
D02*
G37*
G36*
X-512364Y-383964D02*
X-512285Y-383971D01*
X-512191Y-383978D01*
X-512091Y-383991D01*
X-511978Y-384011D01*
X-511745Y-384064D01*
X-511625Y-384098D01*
X-511505Y-384138D01*
X-511385Y-384184D01*
X-511272Y-384244D01*
X-511166Y-384311D01*
X-511072Y-384384D01*
X-511066Y-384391D01*
X-511052Y-384404D01*
X-511026Y-384424D01*
X-510992Y-384457D01*
X-510959Y-384504D01*
X-510919Y-384550D01*
X-510873Y-384610D01*
X-510826Y-384684D01*
X-510779Y-384757D01*
X-510733Y-384843D01*
X-510693Y-384937D01*
X-510653Y-385037D01*
X-510619Y-385143D01*
X-510586Y-385256D01*
X-510566Y-385383D01*
X-510560Y-385509D01*
X-511592Y-385549D01*
Y-385543D01*
Y-385529D01*
X-511598Y-385509D01*
X-511605Y-385483D01*
X-511625Y-385416D01*
X-511652Y-385330D01*
X-511692Y-385236D01*
X-511738Y-385143D01*
X-511805Y-385057D01*
X-511878Y-384983D01*
X-511892Y-384977D01*
X-511918Y-384957D01*
X-511971Y-384930D01*
X-512045Y-384897D01*
X-512131Y-384863D01*
X-512245Y-384837D01*
X-512378Y-384817D01*
X-512531Y-384810D01*
X-512604D01*
X-512644Y-384817D01*
X-512684D01*
X-512791Y-384830D01*
X-512904Y-384857D01*
X-513017Y-384890D01*
X-513137Y-384937D01*
X-513237Y-384997D01*
X-513243Y-385003D01*
X-513264Y-385017D01*
X-513290Y-385043D01*
X-513317Y-385083D01*
X-513343Y-385130D01*
X-513370Y-385183D01*
X-513390Y-385243D01*
X-513397Y-385316D01*
Y-385323D01*
Y-385343D01*
X-513390Y-385383D01*
X-513377Y-385423D01*
X-513357Y-385470D01*
X-513330Y-385523D01*
X-513297Y-385576D01*
X-513243Y-385629D01*
X-513237Y-385636D01*
X-513224Y-385643D01*
X-513203Y-385656D01*
X-513177Y-385669D01*
X-513144Y-385689D01*
X-513104Y-385709D01*
X-513050Y-385729D01*
X-512997Y-385756D01*
X-512930Y-385783D01*
X-512851Y-385809D01*
X-512764Y-385842D01*
X-512664Y-385869D01*
X-512558Y-385902D01*
X-512431Y-385936D01*
X-512298Y-385969D01*
X-512291D01*
X-512264Y-385976D01*
X-512224Y-385989D01*
X-512171Y-386002D01*
X-512111Y-386016D01*
X-512038Y-386036D01*
X-511958Y-386056D01*
X-511878Y-386082D01*
X-511698Y-386142D01*
X-511512Y-386202D01*
X-511339Y-386269D01*
X-511259Y-386309D01*
X-511186Y-386342D01*
X-511179D01*
X-511172Y-386349D01*
X-511152Y-386362D01*
X-511126Y-386375D01*
X-511059Y-386422D01*
X-510979Y-386482D01*
X-510886Y-386555D01*
X-510793Y-386648D01*
X-510706Y-386748D01*
X-510619Y-386868D01*
Y-386875D01*
X-510613Y-386881D01*
X-510600Y-386901D01*
X-510586Y-386928D01*
X-510573Y-386961D01*
X-510553Y-386995D01*
X-510513Y-387094D01*
X-510480Y-387208D01*
X-510446Y-387348D01*
X-510420Y-387508D01*
X-510413Y-387681D01*
Y-387687D01*
Y-387701D01*
Y-387727D01*
X-510420Y-387754D01*
Y-387794D01*
X-510426Y-387841D01*
X-510446Y-387954D01*
X-510473Y-388080D01*
X-510520Y-388220D01*
X-510579Y-388367D01*
X-510659Y-388513D01*
Y-388520D01*
X-510673Y-388526D01*
X-510686Y-388546D01*
X-510706Y-388573D01*
X-510759Y-388640D01*
X-510839Y-388726D01*
X-510939Y-388820D01*
X-511052Y-388913D01*
X-511192Y-388999D01*
X-511352Y-389079D01*
X-511359D01*
X-511372Y-389086D01*
X-511399Y-389099D01*
X-511432Y-389106D01*
X-511479Y-389119D01*
X-511525Y-389139D01*
X-511592Y-389153D01*
X-511658Y-389172D01*
X-511738Y-389192D01*
X-511818Y-389206D01*
X-511911Y-389219D01*
X-512011Y-389239D01*
X-512224Y-389259D01*
X-512464Y-389266D01*
X-512558D01*
X-512624Y-389259D01*
X-512704Y-389252D01*
X-512797Y-389239D01*
X-512904Y-389226D01*
X-513017Y-389212D01*
X-513257Y-389159D01*
X-513377Y-389119D01*
X-513503Y-389079D01*
X-513623Y-389026D01*
X-513743Y-388966D01*
X-513856Y-388899D01*
X-513956Y-388820D01*
X-513963Y-388813D01*
X-513976Y-388800D01*
X-514003Y-388773D01*
X-514036Y-388733D01*
X-514083Y-388686D01*
X-514123Y-388633D01*
X-514176Y-388566D01*
X-514229Y-388487D01*
X-514282Y-388400D01*
X-514336Y-388307D01*
X-514389Y-388200D01*
X-514436Y-388080D01*
X-514482Y-387954D01*
X-514522Y-387814D01*
X-514549Y-387667D01*
X-514575Y-387514D01*
X-513570Y-387414D01*
Y-387421D01*
X-513563Y-387434D01*
X-513556Y-387461D01*
X-513550Y-387494D01*
X-513543Y-387541D01*
X-513530Y-387587D01*
X-513490Y-387694D01*
X-513443Y-387821D01*
X-513377Y-387940D01*
X-513297Y-388060D01*
X-513203Y-388160D01*
X-513190Y-388167D01*
X-513150Y-388193D01*
X-513090Y-388233D01*
X-513004Y-388273D01*
X-512897Y-388320D01*
X-512771Y-388353D01*
X-512624Y-388380D01*
X-512458Y-388393D01*
X-512411D01*
X-512378Y-388387D01*
X-512331D01*
X-512285Y-388380D01*
X-512178Y-388367D01*
X-512051Y-388340D01*
X-511932Y-388307D01*
X-511812Y-388253D01*
X-511705Y-388187D01*
X-511692Y-388180D01*
X-511665Y-388147D01*
X-511625Y-388107D01*
X-511572Y-388047D01*
X-511525Y-387974D01*
X-511485Y-387887D01*
X-511459Y-387794D01*
X-511445Y-387694D01*
Y-387687D01*
Y-387661D01*
X-511452Y-387627D01*
X-511459Y-387587D01*
X-511472Y-387534D01*
X-511492Y-387481D01*
X-511518Y-387427D01*
X-511552Y-387381D01*
X-511558Y-387374D01*
X-511572Y-387361D01*
X-511598Y-387334D01*
X-511638Y-387308D01*
X-511692Y-387274D01*
X-511752Y-387234D01*
X-511832Y-387194D01*
X-511925Y-387161D01*
X-511932Y-387155D01*
X-511965Y-387148D01*
X-511985Y-387141D01*
X-512018Y-387135D01*
X-512051Y-387121D01*
X-512098Y-387108D01*
X-512145Y-387094D01*
X-512205Y-387074D01*
X-512271Y-387055D01*
X-512351Y-387035D01*
X-512438Y-387015D01*
X-512531Y-386988D01*
X-512637Y-386961D01*
X-512751Y-386935D01*
X-512757D01*
X-512784Y-386928D01*
X-512831Y-386915D01*
X-512884Y-386895D01*
X-512951Y-386875D01*
X-513030Y-386855D01*
X-513117Y-386828D01*
X-513210Y-386795D01*
X-513403Y-386722D01*
X-513596Y-386635D01*
X-513683Y-386588D01*
X-513770Y-386535D01*
X-513849Y-386482D01*
X-513916Y-386428D01*
X-513923Y-386422D01*
X-513936Y-386409D01*
X-513956Y-386382D01*
X-513989Y-386355D01*
X-514023Y-386309D01*
X-514063Y-386262D01*
X-514103Y-386202D01*
X-514149Y-386136D01*
X-514189Y-386069D01*
X-514236Y-385989D01*
X-514309Y-385809D01*
X-514342Y-385716D01*
X-514362Y-385609D01*
X-514376Y-385503D01*
X-514382Y-385390D01*
Y-385383D01*
Y-385370D01*
Y-385350D01*
X-514376Y-385323D01*
X-514369Y-385250D01*
X-514356Y-385156D01*
X-514329Y-385043D01*
X-514289Y-384923D01*
X-514236Y-384790D01*
X-514163Y-384664D01*
Y-384657D01*
X-514149Y-384650D01*
X-514123Y-384604D01*
X-514069Y-384544D01*
X-514003Y-384471D01*
X-513909Y-384384D01*
X-513803Y-384297D01*
X-513676Y-384211D01*
X-513530Y-384138D01*
X-513523D01*
X-513510Y-384131D01*
X-513490Y-384118D01*
X-513457Y-384111D01*
X-513417Y-384098D01*
X-513363Y-384078D01*
X-513310Y-384064D01*
X-513243Y-384044D01*
X-513177Y-384031D01*
X-513097Y-384018D01*
X-512930Y-383984D01*
X-512737Y-383964D01*
X-512524Y-383958D01*
X-512431D01*
X-512364Y-383964D01*
D02*
G37*
G36*
X-530773Y-385463D02*
X-530100D01*
Y-386242D01*
X-530773D01*
Y-387747D01*
Y-387754D01*
Y-387767D01*
Y-387787D01*
Y-387821D01*
Y-387894D01*
Y-387980D01*
X-530766Y-388073D01*
Y-388160D01*
Y-388233D01*
X-530759Y-388260D01*
Y-388280D01*
X-530753Y-388293D01*
X-530739Y-388320D01*
X-530713Y-388360D01*
X-530673Y-388400D01*
X-530666D01*
X-530659Y-388407D01*
X-530626Y-388420D01*
X-530566Y-388440D01*
X-530500Y-388446D01*
X-530473D01*
X-530446Y-388440D01*
X-530400Y-388433D01*
X-530346Y-388426D01*
X-530280Y-388407D01*
X-530200Y-388387D01*
X-530107Y-388353D01*
X-530020Y-389119D01*
X-530027D01*
X-530033Y-389126D01*
X-530053Y-389132D01*
X-530080Y-389139D01*
X-530153Y-389166D01*
X-530246Y-389186D01*
X-530360Y-389212D01*
X-530493Y-389239D01*
X-530639Y-389252D01*
X-530799Y-389259D01*
X-530846D01*
X-530893Y-389252D01*
X-530952Y-389246D01*
X-531026Y-389239D01*
X-531106Y-389219D01*
X-531192Y-389199D01*
X-531272Y-389172D01*
X-531279Y-389166D01*
X-531305Y-389159D01*
X-531345Y-389139D01*
X-531392Y-389112D01*
X-531492Y-389039D01*
X-531545Y-388993D01*
X-531585Y-388946D01*
X-531592Y-388939D01*
X-531598Y-388919D01*
X-531618Y-388886D01*
X-531638Y-388839D01*
X-531665Y-388786D01*
X-531685Y-388720D01*
X-531705Y-388646D01*
X-531725Y-388560D01*
Y-388553D01*
X-531732Y-388526D01*
Y-388480D01*
X-531738Y-388407D01*
X-531745Y-388313D01*
Y-388260D01*
Y-388193D01*
X-531752Y-388127D01*
Y-388047D01*
Y-387960D01*
Y-387867D01*
Y-386242D01*
X-532204D01*
Y-385463D01*
X-531752D01*
Y-384724D01*
X-530773Y-384144D01*
Y-385463D01*
D02*
G37*
G36*
X-534409Y-385383D02*
X-534349D01*
X-534276Y-385396D01*
X-534196Y-385403D01*
X-534103Y-385423D01*
X-533996Y-385443D01*
X-533889Y-385476D01*
X-533776Y-385509D01*
X-533663Y-385556D01*
X-533550Y-385609D01*
X-533430Y-385669D01*
X-533317Y-385749D01*
X-533210Y-385829D01*
X-533104Y-385929D01*
X-533097Y-385936D01*
X-533077Y-385956D01*
X-533050Y-385982D01*
X-533017Y-386029D01*
X-532977Y-386082D01*
X-532931Y-386149D01*
X-532884Y-386222D01*
X-532831Y-386309D01*
X-532784Y-386402D01*
X-532737Y-386508D01*
X-532691Y-386622D01*
X-532651Y-386742D01*
X-532611Y-386868D01*
X-532584Y-387008D01*
X-532571Y-387155D01*
X-532564Y-387308D01*
Y-387314D01*
Y-387348D01*
X-532571Y-387388D01*
Y-387448D01*
X-532578Y-387521D01*
X-532591Y-387607D01*
X-532611Y-387701D01*
X-532631Y-387801D01*
X-532664Y-387907D01*
X-532697Y-388020D01*
X-532744Y-388134D01*
X-532797Y-388253D01*
X-532857Y-388373D01*
X-532931Y-388487D01*
X-533017Y-388600D01*
X-533110Y-388706D01*
X-533117Y-388713D01*
X-533137Y-388733D01*
X-533164Y-388759D01*
X-533210Y-388793D01*
X-533263Y-388833D01*
X-533323Y-388879D01*
X-533403Y-388933D01*
X-533483Y-388979D01*
X-533583Y-389033D01*
X-533683Y-389086D01*
X-533796Y-389132D01*
X-533916Y-389172D01*
X-534043Y-389206D01*
X-534183Y-389232D01*
X-534322Y-389252D01*
X-534476Y-389259D01*
X-534529D01*
X-534562Y-389252D01*
X-534609D01*
X-534662Y-389246D01*
X-534722Y-389239D01*
X-534789Y-389232D01*
X-534942Y-389206D01*
X-535102Y-389166D01*
X-535281Y-389106D01*
X-535455Y-389033D01*
X-535461D01*
X-535475Y-389019D01*
X-535501Y-389006D01*
X-535528Y-388986D01*
X-535568Y-388966D01*
X-535614Y-388933D01*
X-535714Y-388859D01*
X-535827Y-388766D01*
X-535941Y-388646D01*
X-536054Y-388513D01*
X-536154Y-388353D01*
Y-388347D01*
X-536167Y-388333D01*
X-536174Y-388307D01*
X-536194Y-388273D01*
X-536207Y-388227D01*
X-536227Y-388180D01*
X-536254Y-388120D01*
X-536274Y-388047D01*
X-536294Y-387974D01*
X-536320Y-387894D01*
X-536340Y-387801D01*
X-536354Y-387707D01*
X-536380Y-387501D01*
X-536394Y-387268D01*
Y-387261D01*
Y-387248D01*
Y-387221D01*
X-536387Y-387181D01*
Y-387141D01*
X-536380Y-387088D01*
X-536374Y-387028D01*
X-536360Y-386968D01*
X-536334Y-386822D01*
X-536294Y-386662D01*
X-536234Y-386495D01*
X-536154Y-386322D01*
Y-386315D01*
X-536141Y-386302D01*
X-536127Y-386275D01*
X-536107Y-386249D01*
X-536087Y-386209D01*
X-536054Y-386162D01*
X-535981Y-386062D01*
X-535881Y-385949D01*
X-535768Y-385836D01*
X-535628Y-385723D01*
X-535475Y-385623D01*
X-535468D01*
X-535455Y-385609D01*
X-535428Y-385603D01*
X-535395Y-385583D01*
X-535355Y-385563D01*
X-535301Y-385543D01*
X-535248Y-385523D01*
X-535182Y-385496D01*
X-535035Y-385456D01*
X-534868Y-385416D01*
X-534689Y-385390D01*
X-534489Y-385376D01*
X-534449D01*
X-534409Y-385383D01*
D02*
G37*
G36*
X-493010D02*
X-492931Y-385396D01*
X-492831Y-385423D01*
X-492717Y-385456D01*
X-492604Y-385503D01*
X-492484Y-385563D01*
X-492791Y-386422D01*
X-492804Y-386415D01*
X-492831Y-386395D01*
X-492877Y-386369D01*
X-492937Y-386335D01*
X-493010Y-386309D01*
X-493090Y-386282D01*
X-493170Y-386262D01*
X-493250Y-386255D01*
X-493284D01*
X-493323Y-386262D01*
X-493377Y-386269D01*
X-493430Y-386282D01*
X-493490Y-386309D01*
X-493550Y-386335D01*
X-493610Y-386375D01*
X-493616Y-386382D01*
X-493630Y-386395D01*
X-493656Y-386428D01*
X-493690Y-386469D01*
X-493723Y-386528D01*
X-493763Y-386595D01*
X-493796Y-386682D01*
X-493830Y-386788D01*
Y-386802D01*
X-493836Y-386822D01*
X-493843Y-386848D01*
X-493850Y-386888D01*
X-493856Y-386928D01*
X-493863Y-386988D01*
X-493869Y-387055D01*
X-493876Y-387128D01*
X-493883Y-387221D01*
X-493890Y-387321D01*
X-493896Y-387434D01*
X-493903Y-387561D01*
Y-387701D01*
X-493910Y-387854D01*
Y-388027D01*
Y-389172D01*
X-494888D01*
Y-385463D01*
X-493976D01*
Y-385989D01*
X-493963Y-385982D01*
X-493956Y-385962D01*
X-493936Y-385936D01*
X-493890Y-385869D01*
X-493836Y-385796D01*
X-493770Y-385709D01*
X-493703Y-385629D01*
X-493630Y-385556D01*
X-493556Y-385503D01*
X-493550Y-385496D01*
X-493523Y-385483D01*
X-493483Y-385463D01*
X-493437Y-385436D01*
X-493370Y-385416D01*
X-493303Y-385396D01*
X-493223Y-385383D01*
X-493137Y-385376D01*
X-493077D01*
X-493010Y-385383D01*
D02*
G37*
%LPC*%
G36*
X-539218Y-386941D02*
X-540290D01*
Y-388307D01*
X-539144D01*
X-539031Y-388300D01*
X-538911D01*
X-538798Y-388293D01*
X-538745D01*
X-538698Y-388287D01*
X-538658D01*
X-538625Y-388280D01*
X-538611D01*
X-538585Y-388273D01*
X-538545Y-388260D01*
X-538492Y-388240D01*
X-538432Y-388213D01*
X-538365Y-388180D01*
X-538305Y-388134D01*
X-538245Y-388080D01*
X-538238Y-388073D01*
X-538225Y-388047D01*
X-538199Y-388014D01*
X-538172Y-387960D01*
X-538145Y-387900D01*
X-538119Y-387827D01*
X-538105Y-387740D01*
X-538099Y-387641D01*
Y-387627D01*
Y-387601D01*
X-538105Y-387561D01*
X-538112Y-387508D01*
X-538125Y-387448D01*
X-538145Y-387381D01*
X-538172Y-387314D01*
X-538212Y-387254D01*
X-538218Y-387248D01*
X-538232Y-387228D01*
X-538258Y-387194D01*
X-538292Y-387161D01*
X-538338Y-387121D01*
X-538398Y-387081D01*
X-538465Y-387048D01*
X-538538Y-387015D01*
X-538552Y-387008D01*
X-538585Y-387001D01*
X-538611Y-386995D01*
X-538645Y-386988D01*
X-538685Y-386981D01*
X-538731Y-386975D01*
X-538791Y-386968D01*
X-538858Y-386961D01*
X-538931D01*
X-539018Y-386955D01*
X-539111Y-386948D01*
X-539218Y-386941D01*
D02*
G37*
G36*
X-497353Y-386129D02*
X-497366D01*
X-497406Y-386136D01*
X-497466Y-386142D01*
X-497539Y-386156D01*
X-497626Y-386189D01*
X-497712Y-386229D01*
X-497799Y-386289D01*
X-497886Y-386369D01*
X-497892Y-386382D01*
X-497919Y-386409D01*
X-497952Y-386462D01*
X-497985Y-386535D01*
X-498025Y-386628D01*
X-498059Y-386735D01*
X-498085Y-386861D01*
X-498092Y-387001D01*
X-496620D01*
Y-386995D01*
Y-386981D01*
Y-386961D01*
X-496627Y-386928D01*
X-496633Y-386855D01*
X-496653Y-386761D01*
X-496680Y-386655D01*
X-496720Y-386548D01*
X-496773Y-386449D01*
X-496847Y-386355D01*
X-496853Y-386349D01*
X-496886Y-386322D01*
X-496926Y-386282D01*
X-496986Y-386242D01*
X-497060Y-386202D01*
X-497146Y-386162D01*
X-497246Y-386136D01*
X-497353Y-386129D01*
D02*
G37*
G36*
X-539251Y-384903D02*
X-540290D01*
Y-386089D01*
X-539297D01*
X-539164Y-386082D01*
X-538938D01*
X-538898Y-386076D01*
X-538851D01*
X-538818Y-386069D01*
X-538771Y-386056D01*
X-538711Y-386042D01*
X-538645Y-386016D01*
X-538578Y-385982D01*
X-538505Y-385942D01*
X-538445Y-385889D01*
X-538438Y-385882D01*
X-538418Y-385862D01*
X-538398Y-385829D01*
X-538365Y-385783D01*
X-538338Y-385723D01*
X-538318Y-385656D01*
X-538298Y-385576D01*
X-538292Y-385490D01*
Y-385476D01*
Y-385450D01*
X-538298Y-385403D01*
X-538305Y-385350D01*
X-538325Y-385290D01*
X-538345Y-385223D01*
X-538378Y-385163D01*
X-538425Y-385103D01*
X-538432Y-385097D01*
X-538452Y-385076D01*
X-538478Y-385057D01*
X-538525Y-385023D01*
X-538578Y-384997D01*
X-538645Y-384963D01*
X-538725Y-384943D01*
X-538818Y-384923D01*
X-538825D01*
X-538851Y-384917D01*
X-538938D01*
X-538984Y-384910D01*
X-539171D01*
X-539251Y-384903D01*
D02*
G37*
G36*
X-507789Y-386175D02*
X-507902D01*
X-507929Y-386182D01*
X-507995Y-386189D01*
X-508089Y-386215D01*
X-508189Y-386249D01*
X-508295Y-386302D01*
X-508408Y-386375D01*
X-508455Y-386422D01*
X-508508Y-386475D01*
X-508522Y-386489D01*
X-508535Y-386508D01*
X-508548Y-386528D01*
X-508568Y-386562D01*
X-508588Y-386595D01*
X-508635Y-386688D01*
X-508688Y-386808D01*
X-508728Y-386955D01*
X-508755Y-387128D01*
X-508768Y-387321D01*
Y-387328D01*
Y-387348D01*
Y-387374D01*
X-508761Y-387414D01*
Y-387461D01*
X-508755Y-387514D01*
X-508735Y-387634D01*
X-508701Y-387767D01*
X-508661Y-387914D01*
X-508595Y-388047D01*
X-508508Y-388167D01*
X-508495Y-388180D01*
X-508462Y-388213D01*
X-508408Y-388260D01*
X-508328Y-388313D01*
X-508235Y-388367D01*
X-508129Y-388413D01*
X-508002Y-388446D01*
X-507935Y-388453D01*
X-507862Y-388460D01*
X-507822D01*
X-507796Y-388453D01*
X-507729Y-388446D01*
X-507642Y-388420D01*
X-507536Y-388387D01*
X-507429Y-388333D01*
X-507323Y-388260D01*
X-507269Y-388220D01*
X-507223Y-388167D01*
Y-388160D01*
X-507209Y-388154D01*
X-507196Y-388134D01*
X-507183Y-388113D01*
X-507163Y-388080D01*
X-507136Y-388047D01*
X-507090Y-387947D01*
X-507043Y-387827D01*
X-506996Y-387681D01*
X-506970Y-387514D01*
X-506956Y-387314D01*
Y-387308D01*
Y-387288D01*
Y-387261D01*
X-506963Y-387221D01*
Y-387181D01*
X-506970Y-387128D01*
X-506990Y-387001D01*
X-507023Y-386868D01*
X-507070Y-386728D01*
X-507136Y-386595D01*
X-507223Y-386475D01*
Y-386469D01*
X-507236Y-386462D01*
X-507269Y-386428D01*
X-507323Y-386382D01*
X-507403Y-386322D01*
X-507496Y-386269D01*
X-507603Y-386222D01*
X-507722Y-386189D01*
X-507789Y-386175D01*
D02*
G37*
G36*
X-501522Y-386129D02*
X-501622D01*
X-501648Y-386136D01*
X-501715Y-386142D01*
X-501795Y-386162D01*
X-501888Y-386195D01*
X-501981Y-386249D01*
X-502081Y-386315D01*
X-502175Y-386409D01*
X-502181Y-386422D01*
X-502208Y-386462D01*
X-502248Y-386528D01*
X-502288Y-386615D01*
X-502334Y-386735D01*
X-502368Y-386875D01*
X-502394Y-387048D01*
X-502408Y-387241D01*
Y-387248D01*
Y-387268D01*
Y-387301D01*
Y-387341D01*
X-502401Y-387388D01*
Y-387448D01*
X-502388Y-387574D01*
X-502368Y-387714D01*
X-502341Y-387860D01*
X-502301Y-387994D01*
X-502275Y-388054D01*
X-502248Y-388107D01*
Y-388113D01*
X-502235Y-388120D01*
X-502221Y-388140D01*
X-502201Y-388167D01*
X-502148Y-388227D01*
X-502075Y-388293D01*
X-501981Y-388367D01*
X-501868Y-388426D01*
X-501802Y-388453D01*
X-501735Y-388473D01*
X-501662Y-388480D01*
X-501582Y-388487D01*
X-501548D01*
X-501522Y-388480D01*
X-501462Y-388473D01*
X-501382Y-388453D01*
X-501289Y-388413D01*
X-501196Y-388367D01*
X-501096Y-388293D01*
X-501049Y-388253D01*
X-501002Y-388200D01*
Y-388193D01*
X-500989Y-388187D01*
X-500982Y-388167D01*
X-500962Y-388147D01*
X-500949Y-388113D01*
X-500929Y-388080D01*
X-500903Y-388034D01*
X-500882Y-387987D01*
X-500863Y-387927D01*
X-500836Y-387860D01*
X-500816Y-387794D01*
X-500803Y-387714D01*
X-500783Y-387627D01*
X-500776Y-387541D01*
X-500763Y-387441D01*
Y-387334D01*
Y-387328D01*
Y-387308D01*
Y-387274D01*
X-500769Y-387228D01*
Y-387174D01*
X-500776Y-387115D01*
X-500789Y-386981D01*
X-500823Y-386828D01*
X-500863Y-386675D01*
X-500916Y-386535D01*
X-500956Y-386469D01*
X-500996Y-386415D01*
Y-386409D01*
X-501009Y-386402D01*
X-501036Y-386369D01*
X-501089Y-386322D01*
X-501156Y-386269D01*
X-501242Y-386222D01*
X-501342Y-386175D01*
X-501462Y-386142D01*
X-501522Y-386129D01*
D02*
G37*
G36*
X-534409Y-386175D02*
X-534522D01*
X-534549Y-386182D01*
X-534615Y-386189D01*
X-534709Y-386215D01*
X-534809Y-386249D01*
X-534915Y-386302D01*
X-535028Y-386375D01*
X-535075Y-386422D01*
X-535128Y-386475D01*
X-535142Y-386489D01*
X-535155Y-386508D01*
X-535168Y-386528D01*
X-535188Y-386562D01*
X-535208Y-386595D01*
X-535255Y-386688D01*
X-535308Y-386808D01*
X-535348Y-386955D01*
X-535375Y-387128D01*
X-535388Y-387321D01*
Y-387328D01*
Y-387348D01*
Y-387374D01*
X-535381Y-387414D01*
Y-387461D01*
X-535375Y-387514D01*
X-535355Y-387634D01*
X-535321Y-387767D01*
X-535281Y-387914D01*
X-535215Y-388047D01*
X-535128Y-388167D01*
X-535115Y-388180D01*
X-535082Y-388213D01*
X-535028Y-388260D01*
X-534948Y-388313D01*
X-534855Y-388367D01*
X-534749Y-388413D01*
X-534622Y-388446D01*
X-534555Y-388453D01*
X-534482Y-388460D01*
X-534442D01*
X-534416Y-388453D01*
X-534349Y-388446D01*
X-534262Y-388420D01*
X-534156Y-388387D01*
X-534049Y-388333D01*
X-533943Y-388260D01*
X-533889Y-388220D01*
X-533843Y-388167D01*
Y-388160D01*
X-533830Y-388154D01*
X-533816Y-388134D01*
X-533803Y-388113D01*
X-533783Y-388080D01*
X-533756Y-388047D01*
X-533710Y-387947D01*
X-533663Y-387827D01*
X-533616Y-387681D01*
X-533590Y-387514D01*
X-533576Y-387314D01*
Y-387308D01*
Y-387288D01*
Y-387261D01*
X-533583Y-387221D01*
Y-387181D01*
X-533590Y-387128D01*
X-533610Y-387001D01*
X-533643Y-386868D01*
X-533690Y-386728D01*
X-533756Y-386595D01*
X-533843Y-386475D01*
Y-386469D01*
X-533856Y-386462D01*
X-533889Y-386428D01*
X-533943Y-386382D01*
X-534023Y-386322D01*
X-534116Y-386269D01*
X-534223Y-386222D01*
X-534342Y-386189D01*
X-534409Y-386175D01*
D02*
G37*
G36*
X-525272D02*
X-525385D01*
X-525411Y-386182D01*
X-525478Y-386189D01*
X-525571Y-386215D01*
X-525671Y-386249D01*
X-525778Y-386302D01*
X-525891Y-386375D01*
X-525937Y-386422D01*
X-525991Y-386475D01*
X-526004Y-386489D01*
X-526017Y-386508D01*
X-526031Y-386528D01*
X-526051Y-386562D01*
X-526071Y-386595D01*
X-526117Y-386688D01*
X-526171Y-386808D01*
X-526210Y-386955D01*
X-526237Y-387128D01*
X-526251Y-387321D01*
Y-387328D01*
Y-387348D01*
Y-387374D01*
X-526244Y-387414D01*
Y-387461D01*
X-526237Y-387514D01*
X-526217Y-387634D01*
X-526184Y-387767D01*
X-526144Y-387914D01*
X-526077Y-388047D01*
X-525991Y-388167D01*
X-525977Y-388180D01*
X-525944Y-388213D01*
X-525891Y-388260D01*
X-525811Y-388313D01*
X-525718Y-388367D01*
X-525611Y-388413D01*
X-525485Y-388446D01*
X-525418Y-388453D01*
X-525345Y-388460D01*
X-525305D01*
X-525278Y-388453D01*
X-525211Y-388446D01*
X-525125Y-388420D01*
X-525018Y-388387D01*
X-524912Y-388333D01*
X-524805Y-388260D01*
X-524752Y-388220D01*
X-524705Y-388167D01*
Y-388160D01*
X-524692Y-388154D01*
X-524679Y-388134D01*
X-524665Y-388113D01*
X-524645Y-388080D01*
X-524619Y-388047D01*
X-524572Y-387947D01*
X-524525Y-387827D01*
X-524479Y-387681D01*
X-524452Y-387514D01*
X-524439Y-387314D01*
Y-387308D01*
Y-387288D01*
Y-387261D01*
X-524446Y-387221D01*
Y-387181D01*
X-524452Y-387128D01*
X-524472Y-387001D01*
X-524506Y-386868D01*
X-524552Y-386728D01*
X-524619Y-386595D01*
X-524705Y-386475D01*
Y-386469D01*
X-524719Y-386462D01*
X-524752Y-386428D01*
X-524805Y-386382D01*
X-524885Y-386322D01*
X-524978Y-386269D01*
X-525085Y-386222D01*
X-525205Y-386189D01*
X-525272Y-386175D01*
D02*
G37*
%LPD*%
D39*
X16688Y0D02*
G03*
X16688Y0I-16688J0D01*
G01*
D43*
X-144000Y-2500D02*
D03*
X-136000D02*
D03*
X-166000Y-6500D02*
D03*
X-174000D02*
D03*
X-158500D02*
D03*
X-150500D02*
D03*
D49*
X-173500Y28500D02*
D03*
X-173500Y20500D02*
D03*
D53*
X-180748Y4921D02*
D03*
X-165000D02*
D03*
X-149252D02*
D03*
X32500Y31000D02*
D03*
X22500D02*
D03*
D54*
X-194528Y12402D02*
D03*
X-135472Y-12402D02*
D03*
D55*
X0Y0D02*
D03*
D56*
X-13386D02*
G03*
X-13386Y0I-1500J0D01*
G01*
D57*
X-120000Y-72500D02*
G03*
X-115000Y-67500I0J5000D01*
G01*
X-100000Y-72500D02*
G03*
X-95000Y-67500I0J5000D01*
G01*
X-80000Y-72500D02*
G03*
X-75000Y-67500I0J5000D01*
G01*
X-60000Y-72500D02*
G03*
X-55000Y-67500I0J5000D01*
G01*
X-40000Y-42500D02*
G03*
X-35000Y-37500I0J5000D01*
G01*
X-125000Y-67500D02*
G03*
X-120000Y-72500I5000J0D01*
G01*
X-125000Y42000D02*
G03*
X-128000Y45000I-3000J0D01*
G01*
X-110000Y75000D02*
G03*
X-115000Y70000I0J-5000D01*
G01*
X-105000Y-67500D02*
G03*
X-100000Y-72500I5000J0D01*
G01*
X-85000Y-67500D02*
G03*
X-80000Y-72500I5000J0D01*
G01*
X-105000Y70000D02*
G03*
X-110000Y75000I-5000J0D01*
G01*
X-132500Y45000D02*
G03*
X-136000Y41500I0J-3500D01*
G01*
X-90000Y75000D02*
G03*
X-95000Y70000I0J-5000D01*
G01*
X-85000D02*
G03*
X-90000Y75000I-5000J0D01*
G01*
X-70000D02*
G03*
X-75000Y70000I0J-5000D01*
G01*
X-65000Y-67500D02*
G03*
X-60000Y-72500I5000J0D01*
G01*
X-65000Y70000D02*
G03*
X-70000Y75000I-5000J0D01*
G01*
X-50000Y45000D02*
G03*
X-55000Y40000I0J-5000D01*
G01*
X-45000Y-37500D02*
G03*
X-40000Y-42500I5000J0D01*
G01*
X-45000Y40000D02*
G03*
X-50000Y45000I-5000J0D01*
G01*
X-28000Y0D02*
G03*
X-35000Y-7000I0J-7000D01*
G01*
X-28000Y0D02*
G03*
X-35000Y-7000I0J-7000D01*
G01*
X-45000Y40000D02*
G03*
X-50000Y45000I-5000J0D01*
G01*
X-45000Y-37500D02*
G03*
X-40000Y-42500I5000J0D01*
G01*
X-50000Y45000D02*
G03*
X-55000Y40000I0J-5000D01*
G01*
X-65000Y70000D02*
G03*
X-70000Y75000I-5000J0D01*
G01*
X-65000Y-67500D02*
G03*
X-60000Y-72500I5000J0D01*
G01*
X-70000Y75000D02*
G03*
X-75000Y70000I0J-5000D01*
G01*
X-85000D02*
G03*
X-90000Y75000I-5000J0D01*
G01*
D02*
G03*
X-95000Y70000I0J-5000D01*
G01*
X-132500Y45000D02*
G03*
X-136000Y41500I0J-3500D01*
G01*
X-105000Y70000D02*
G03*
X-110000Y75000I-5000J0D01*
G01*
X-85000Y-67500D02*
G03*
X-80000Y-72500I5000J0D01*
G01*
X-105000Y-67500D02*
G03*
X-100000Y-72500I5000J0D01*
G01*
X-110000Y75000D02*
G03*
X-115000Y70000I0J-5000D01*
G01*
X-125000Y42000D02*
G03*
X-128000Y45000I-3000J0D01*
G01*
X-125000Y-67500D02*
G03*
X-120000Y-72500I5000J0D01*
G01*
X-40000Y-42500D02*
G03*
X-35000Y-37500I0J5000D01*
G01*
X-60000Y-72500D02*
G03*
X-55000Y-67500I0J5000D01*
G01*
X-80000Y-72500D02*
G03*
X-75000Y-67500I0J5000D01*
G01*
X-100000Y-72500D02*
G03*
X-95000Y-67500I0J5000D01*
G01*
X-120000Y-72500D02*
G03*
X-115000Y-67500I0J5000D01*
G01*
D58*
X-16786Y0D02*
D03*
X-12500D02*
D03*
D59*
X-125000Y-67500D02*
Y42000D01*
X-115000Y-67500D02*
Y70000D01*
X-105000Y-67500D02*
Y70000D01*
X-95000Y-67500D02*
Y70000D01*
X-85000Y-67500D02*
Y70000D01*
X-136000Y-2500D02*
Y41500D01*
X-132500Y45000D02*
X-128000D01*
X-75000Y-67500D02*
Y70000D01*
X-65000Y-67500D02*
Y70000D01*
X-55000Y-67500D02*
Y40000D01*
X-45000Y-37500D02*
Y40000D01*
X-35000Y-37500D02*
Y-7000D01*
X-28000Y0D02*
X-17500D01*
X-28000D02*
X-17500D01*
X-35000Y-37500D02*
Y-7000D01*
X-45000Y-37500D02*
Y40000D01*
X-55000Y-67500D02*
Y40000D01*
X-65000Y-67500D02*
Y70000D01*
X-75000Y-67500D02*
Y70000D01*
X-132500Y45000D02*
X-128000D01*
X-136000Y-2500D02*
Y41500D01*
X-85000Y-67500D02*
Y70000D01*
X-95000Y-67500D02*
Y70000D01*
X-105000Y-67500D02*
Y70000D01*
X-115000Y-67500D02*
Y70000D01*
X-125000Y-67500D02*
Y42000D01*
M02*
