%FSLAX25Y25*%
%MOIN*%
G70*
G01*
G75*
G04 Layer_Color=16711935*
G04:AMPARAMS|DCode=10|XSize=40mil|YSize=50mil|CornerRadius=0mil|HoleSize=0mil|Usage=FLASHONLY|Rotation=135.000|XOffset=0mil|YOffset=0mil|HoleType=Round|Shape=Rectangle|*
%AMROTATEDRECTD10*
4,1,4,0.03182,0.00354,-0.00354,-0.03182,-0.03182,-0.00354,0.00354,0.03182,0.03182,0.00354,0.0*
%
%ADD10ROTATEDRECTD10*%

G04:AMPARAMS|DCode=11|XSize=40mil|YSize=50mil|CornerRadius=0mil|HoleSize=0mil|Usage=FLASHONLY|Rotation=45.000|XOffset=0mil|YOffset=0mil|HoleType=Round|Shape=Rectangle|*
%AMROTATEDRECTD11*
4,1,4,0.00354,-0.03182,-0.03182,0.00354,-0.00354,0.03182,0.03182,-0.00354,0.00354,-0.03182,0.0*
%
%ADD11ROTATEDRECTD11*%

%ADD12R,0.15748X0.07874*%
%ADD13R,0.04000X0.05000*%
%ADD14R,0.13000X0.17000*%
%ADD15R,0.06000X0.10000*%
G04:AMPARAMS|DCode=16|XSize=60mil|YSize=60mil|CornerRadius=15mil|HoleSize=0mil|Usage=FLASHONLY|Rotation=180.000|XOffset=0mil|YOffset=0mil|HoleType=Round|Shape=RoundedRectangle|*
%AMROUNDEDRECTD16*
21,1,0.06000,0.03000,0,0,180.0*
21,1,0.03000,0.06000,0,0,180.0*
1,1,0.03000,-0.01500,0.01500*
1,1,0.03000,0.01500,0.01500*
1,1,0.03000,0.01500,-0.01500*
1,1,0.03000,-0.01500,-0.01500*
%
%ADD16ROUNDEDRECTD16*%
%ADD17R,0.09843X0.07874*%
%ADD18R,0.12500X0.06000*%
%ADD19R,0.05000X0.04000*%
%ADD20R,0.08000X0.02400*%
%ADD21O,0.08000X0.02400*%
%ADD22R,0.24000X0.08000*%
%ADD23C,0.02500*%
%ADD24C,0.01000*%
%ADD25R,0.04712X0.19969*%
%ADD26C,0.06500*%
%ADD27C,0.09000*%
%ADD28C,0.23622*%
%ADD29C,0.03400*%
%ADD30C,0.03500*%
%ADD31C,0.03200*%
%ADD32R,0.03000X0.03000*%
%ADD33C,0.00800*%
%ADD34C,0.00600*%
%ADD35C,0.00400*%
%ADD36C,0.00500*%
%ADD37C,0.00984*%
%ADD38R,0.08400X0.03800*%
%ADD39C,0.10000*%
G04:AMPARAMS|DCode=40|XSize=48mil|YSize=58mil|CornerRadius=0mil|HoleSize=0mil|Usage=FLASHONLY|Rotation=135.000|XOffset=0mil|YOffset=0mil|HoleType=Round|Shape=Rectangle|*
%AMROTATEDRECTD40*
4,1,4,0.03748,0.00354,-0.00354,-0.03748,-0.03748,-0.00354,0.00354,0.03748,0.03748,0.00354,0.0*
%
%ADD40ROTATEDRECTD40*%

G04:AMPARAMS|DCode=41|XSize=48mil|YSize=58mil|CornerRadius=0mil|HoleSize=0mil|Usage=FLASHONLY|Rotation=45.000|XOffset=0mil|YOffset=0mil|HoleType=Round|Shape=Rectangle|*
%AMROTATEDRECTD41*
4,1,4,0.00354,-0.03748,-0.03748,0.00354,-0.00354,0.03748,0.03748,-0.00354,0.00354,-0.03748,0.0*
%
%ADD41ROTATEDRECTD41*%

%ADD42R,0.16148X0.08274*%
%ADD43R,0.04800X0.05800*%
%ADD44R,0.13400X0.17400*%
%ADD45R,0.06400X0.10400*%
G04:AMPARAMS|DCode=46|XSize=64mil|YSize=64mil|CornerRadius=17mil|HoleSize=0mil|Usage=FLASHONLY|Rotation=180.000|XOffset=0mil|YOffset=0mil|HoleType=Round|Shape=RoundedRectangle|*
%AMROUNDEDRECTD46*
21,1,0.06400,0.03000,0,0,180.0*
21,1,0.03000,0.06400,0,0,180.0*
1,1,0.03400,-0.01500,0.01500*
1,1,0.03400,0.01500,0.01500*
1,1,0.03400,0.01500,-0.01500*
1,1,0.03400,-0.01500,-0.01500*
%
%ADD46ROUNDEDRECTD46*%
%ADD47R,0.10642X0.08674*%
%ADD48R,0.13300X0.06800*%
%ADD49R,0.05800X0.04800*%
%ADD50R,0.08800X0.03200*%
%ADD51O,0.08800X0.03200*%
%ADD52R,0.24400X0.08400*%
%ADD53C,0.07300*%
%ADD54C,0.09800*%
%ADD55C,0.24022*%
%ADD56C,0.03000*%
%ADD57O,0.04500X0.02500*%
%ADD58R,0.03800X0.03800*%
%ADD59C,0.04500*%
G36*
X-493350Y-419383D02*
X-493290D01*
X-493223Y-419396D01*
X-493144Y-419403D01*
X-493057Y-419423D01*
X-492957Y-419443D01*
X-492857Y-419476D01*
X-492751Y-419510D01*
X-492637Y-419556D01*
X-492531Y-419609D01*
X-492424Y-419669D01*
X-492318Y-419749D01*
X-492218Y-419829D01*
X-492125Y-419929D01*
X-492118Y-419936D01*
X-492105Y-419956D01*
X-492078Y-419989D01*
X-492051Y-420029D01*
X-492011Y-420089D01*
X-491971Y-420162D01*
X-491931Y-420242D01*
X-491885Y-420342D01*
X-491845Y-420455D01*
X-491798Y-420575D01*
X-491765Y-420715D01*
X-491725Y-420861D01*
X-491698Y-421028D01*
X-491678Y-421208D01*
X-491665Y-421394D01*
Y-421601D01*
X-494123D01*
Y-421607D01*
Y-421621D01*
Y-421641D01*
X-494116Y-421674D01*
X-494109Y-421754D01*
X-494089Y-421854D01*
X-494063Y-421960D01*
X-494023Y-422074D01*
X-493963Y-422187D01*
X-493890Y-422287D01*
X-493876Y-422300D01*
X-493850Y-422327D01*
X-493803Y-422360D01*
X-493736Y-422406D01*
X-493650Y-422453D01*
X-493556Y-422486D01*
X-493443Y-422513D01*
X-493323Y-422526D01*
X-493284D01*
X-493244Y-422520D01*
X-493190Y-422513D01*
X-493130Y-422500D01*
X-493070Y-422473D01*
X-493004Y-422446D01*
X-492944Y-422406D01*
X-492937Y-422400D01*
X-492917Y-422380D01*
X-492891Y-422353D01*
X-492851Y-422307D01*
X-492811Y-422247D01*
X-492771Y-422180D01*
X-492731Y-422093D01*
X-492697Y-421994D01*
X-491718Y-422160D01*
Y-422167D01*
X-491725Y-422187D01*
X-491738Y-422213D01*
X-491752Y-422247D01*
X-491778Y-422293D01*
X-491798Y-422347D01*
X-491865Y-422467D01*
X-491952Y-422600D01*
X-492051Y-422733D01*
X-492178Y-422866D01*
X-492318Y-422979D01*
X-492324D01*
X-492338Y-422993D01*
X-492358Y-423006D01*
X-492391Y-423026D01*
X-492431Y-423046D01*
X-492478Y-423066D01*
X-492531Y-423093D01*
X-492597Y-423119D01*
X-492671Y-423146D01*
X-492744Y-423173D01*
X-492917Y-423212D01*
X-493117Y-423246D01*
X-493337Y-423259D01*
X-493377D01*
X-493430Y-423252D01*
X-493497Y-423246D01*
X-493576Y-423239D01*
X-493663Y-423226D01*
X-493770Y-423206D01*
X-493876Y-423179D01*
X-493989Y-423146D01*
X-494109Y-423106D01*
X-494229Y-423053D01*
X-494342Y-422993D01*
X-494462Y-422919D01*
X-494569Y-422833D01*
X-494669Y-422740D01*
X-494762Y-422626D01*
X-494769Y-422620D01*
X-494775Y-422600D01*
X-494795Y-422573D01*
X-494822Y-422533D01*
X-494849Y-422486D01*
X-494875Y-422427D01*
X-494909Y-422353D01*
X-494942Y-422273D01*
X-494982Y-422187D01*
X-495015Y-422093D01*
X-495042Y-421987D01*
X-495068Y-421874D01*
X-495095Y-421754D01*
X-495115Y-421627D01*
X-495122Y-421488D01*
X-495128Y-421348D01*
Y-421334D01*
Y-421308D01*
X-495122Y-421261D01*
Y-421194D01*
X-495115Y-421121D01*
X-495102Y-421028D01*
X-495088Y-420928D01*
X-495068Y-420822D01*
X-495042Y-420708D01*
X-495008Y-420588D01*
X-494975Y-420469D01*
X-494929Y-420349D01*
X-494869Y-420229D01*
X-494809Y-420116D01*
X-494735Y-420002D01*
X-494649Y-419902D01*
X-494642Y-419896D01*
X-494629Y-419882D01*
X-494602Y-419856D01*
X-494562Y-419823D01*
X-494516Y-419782D01*
X-494456Y-419736D01*
X-494389Y-419689D01*
X-494316Y-419636D01*
X-494229Y-419589D01*
X-494143Y-419543D01*
X-494043Y-419496D01*
X-493929Y-419456D01*
X-493816Y-419423D01*
X-493696Y-419396D01*
X-493563Y-419383D01*
X-493430Y-419376D01*
X-493390D01*
X-493350Y-419383D01*
D02*
G37*
G36*
X-510506Y-419463D02*
X-509834D01*
Y-420242D01*
X-510506D01*
Y-421747D01*
Y-421754D01*
Y-421767D01*
Y-421787D01*
Y-421820D01*
Y-421894D01*
Y-421980D01*
X-510500Y-422074D01*
Y-422160D01*
Y-422233D01*
X-510493Y-422260D01*
Y-422280D01*
X-510486Y-422293D01*
X-510473Y-422320D01*
X-510446Y-422360D01*
X-510406Y-422400D01*
X-510400D01*
X-510393Y-422406D01*
X-510360Y-422420D01*
X-510300Y-422440D01*
X-510233Y-422446D01*
X-510207D01*
X-510180Y-422440D01*
X-510133Y-422433D01*
X-510080Y-422427D01*
X-510013Y-422406D01*
X-509934Y-422387D01*
X-509840Y-422353D01*
X-509754Y-423119D01*
X-509760D01*
X-509767Y-423126D01*
X-509787Y-423133D01*
X-509814Y-423139D01*
X-509887Y-423166D01*
X-509980Y-423186D01*
X-510093Y-423212D01*
X-510226Y-423239D01*
X-510373Y-423252D01*
X-510533Y-423259D01*
X-510579D01*
X-510626Y-423252D01*
X-510686Y-423246D01*
X-510759Y-423239D01*
X-510839Y-423219D01*
X-510926Y-423199D01*
X-511006Y-423173D01*
X-511012Y-423166D01*
X-511039Y-423159D01*
X-511079Y-423139D01*
X-511126Y-423112D01*
X-511226Y-423039D01*
X-511279Y-422993D01*
X-511319Y-422946D01*
X-511325Y-422939D01*
X-511332Y-422919D01*
X-511352Y-422886D01*
X-511372Y-422839D01*
X-511399Y-422786D01*
X-511419Y-422720D01*
X-511439Y-422646D01*
X-511459Y-422560D01*
Y-422553D01*
X-511465Y-422526D01*
Y-422480D01*
X-511472Y-422406D01*
X-511479Y-422313D01*
Y-422260D01*
Y-422193D01*
X-511485Y-422127D01*
Y-422047D01*
Y-421960D01*
Y-421867D01*
Y-420242D01*
X-511938D01*
Y-419463D01*
X-511485D01*
Y-418724D01*
X-510506Y-418144D01*
Y-419463D01*
D02*
G37*
G36*
X-496780Y-423039D02*
X-497020Y-423685D01*
Y-423692D01*
X-497026Y-423699D01*
X-497040Y-423739D01*
X-497066Y-423799D01*
X-497100Y-423865D01*
X-497133Y-423945D01*
X-497180Y-424025D01*
X-497220Y-424105D01*
X-497266Y-424178D01*
X-497273Y-424185D01*
X-497286Y-424205D01*
X-497313Y-424238D01*
X-497346Y-424278D01*
X-497386Y-424325D01*
X-497433Y-424371D01*
X-497539Y-424458D01*
X-497546Y-424465D01*
X-497566Y-424478D01*
X-497599Y-424498D01*
X-497639Y-424518D01*
X-497692Y-424544D01*
X-497759Y-424571D01*
X-497832Y-424598D01*
X-497912Y-424624D01*
X-497919D01*
X-497952Y-424631D01*
X-497999Y-424644D01*
X-498059Y-424651D01*
X-498132Y-424664D01*
X-498218Y-424678D01*
X-498312Y-424684D01*
X-498458D01*
X-498518Y-424678D01*
X-498585D01*
X-498671Y-424671D01*
X-498765Y-424658D01*
X-498965Y-424624D01*
X-499051Y-423858D01*
X-499038D01*
X-499011Y-423865D01*
X-498971Y-423872D01*
X-498911Y-423878D01*
X-498851Y-423892D01*
X-498778Y-423898D01*
X-498638Y-423905D01*
X-498625D01*
X-498585Y-423898D01*
X-498525Y-423892D01*
X-498445Y-423878D01*
X-498365Y-423852D01*
X-498279Y-423818D01*
X-498199Y-423765D01*
X-498132Y-423699D01*
X-498125Y-423692D01*
X-498105Y-423665D01*
X-498072Y-423619D01*
X-498039Y-423559D01*
X-497999Y-423486D01*
X-497952Y-423399D01*
X-497912Y-423299D01*
X-497879Y-423186D01*
X-499291Y-419463D01*
X-498245D01*
X-497359Y-422100D01*
X-496487Y-419463D01*
X-495468D01*
X-496780Y-423039D01*
D02*
G37*
G36*
X-501189Y-419383D02*
X-501122D01*
X-501056Y-419390D01*
X-500976Y-419396D01*
X-500823Y-419416D01*
X-500656Y-419443D01*
X-500503Y-419483D01*
X-500436Y-419510D01*
X-500370Y-419536D01*
X-500363D01*
X-500356Y-419543D01*
X-500316Y-419563D01*
X-500263Y-419596D01*
X-500190Y-419643D01*
X-500117Y-419696D01*
X-500043Y-419769D01*
X-499977Y-419842D01*
X-499917Y-419929D01*
X-499910Y-419942D01*
X-499897Y-419976D01*
X-499884Y-420002D01*
X-499877Y-420036D01*
X-499864Y-420082D01*
X-499850Y-420129D01*
X-499837Y-420182D01*
X-499824Y-420249D01*
X-499817Y-420322D01*
X-499804Y-420402D01*
X-499797Y-420489D01*
X-499790Y-420588D01*
X-499784Y-420695D01*
Y-420808D01*
X-499797Y-421954D01*
Y-421960D01*
Y-421974D01*
Y-422000D01*
Y-422034D01*
Y-422074D01*
Y-422120D01*
X-499790Y-422227D01*
X-499784Y-422347D01*
X-499777Y-422467D01*
X-499764Y-422580D01*
X-499750Y-422680D01*
Y-422693D01*
X-499744Y-422720D01*
X-499730Y-422766D01*
X-499710Y-422826D01*
X-499684Y-422899D01*
X-499657Y-422986D01*
X-499617Y-423079D01*
X-499571Y-423173D01*
X-500543D01*
Y-423166D01*
X-500550Y-423152D01*
X-500556Y-423133D01*
X-500569Y-423099D01*
X-500583Y-423059D01*
X-500603Y-423013D01*
X-500623Y-422953D01*
X-500643Y-422886D01*
Y-422879D01*
Y-422873D01*
X-500656Y-422839D01*
X-500663Y-422799D01*
X-500676Y-422773D01*
X-500689Y-422786D01*
X-500723Y-422813D01*
X-500769Y-422859D01*
X-500836Y-422913D01*
X-500916Y-422973D01*
X-501009Y-423033D01*
X-501109Y-423086D01*
X-501216Y-423139D01*
X-501229Y-423146D01*
X-501262Y-423159D01*
X-501322Y-423179D01*
X-501395Y-423199D01*
X-501489Y-423219D01*
X-501588Y-423239D01*
X-501702Y-423252D01*
X-501822Y-423259D01*
X-501875D01*
X-501915Y-423252D01*
X-501961D01*
X-502021Y-423246D01*
X-502148Y-423219D01*
X-502294Y-423186D01*
X-502448Y-423133D01*
X-502594Y-423053D01*
X-502661Y-423006D01*
X-502727Y-422953D01*
X-502734Y-422946D01*
X-502741Y-422939D01*
X-502754Y-422919D01*
X-502781Y-422899D01*
X-502827Y-422826D01*
X-502887Y-422740D01*
X-502947Y-422626D01*
X-503000Y-422486D01*
X-503040Y-422333D01*
X-503047Y-422253D01*
X-503054Y-422167D01*
Y-422160D01*
Y-422154D01*
Y-422114D01*
X-503047Y-422054D01*
X-503034Y-421980D01*
X-503020Y-421894D01*
X-502994Y-421801D01*
X-502954Y-421701D01*
X-502907Y-421607D01*
X-502901Y-421594D01*
X-502880Y-421567D01*
X-502847Y-421521D01*
X-502794Y-421467D01*
X-502734Y-421408D01*
X-502667Y-421348D01*
X-502581Y-421288D01*
X-502488Y-421234D01*
X-502474Y-421228D01*
X-502434Y-421214D01*
X-502374Y-421188D01*
X-502288Y-421154D01*
X-502175Y-421121D01*
X-502041Y-421081D01*
X-501888Y-421041D01*
X-501708Y-421008D01*
X-501702D01*
X-501675Y-421001D01*
X-501642Y-420995D01*
X-501595Y-420988D01*
X-501542Y-420975D01*
X-501475Y-420961D01*
X-501329Y-420928D01*
X-501169Y-420888D01*
X-501009Y-420848D01*
X-500936Y-420828D01*
X-500869Y-420801D01*
X-500803Y-420782D01*
X-500749Y-420761D01*
Y-420668D01*
Y-420662D01*
Y-420655D01*
Y-420622D01*
X-500756Y-420568D01*
X-500769Y-420508D01*
X-500783Y-420435D01*
X-500809Y-420369D01*
X-500849Y-420309D01*
X-500896Y-420255D01*
X-500903Y-420249D01*
X-500922Y-420235D01*
X-500962Y-420215D01*
X-501016Y-420189D01*
X-501082Y-420169D01*
X-501176Y-420149D01*
X-501289Y-420135D01*
X-501422Y-420129D01*
X-501469D01*
X-501515Y-420135D01*
X-501575Y-420142D01*
X-501642Y-420155D01*
X-501708Y-420176D01*
X-501775Y-420202D01*
X-501835Y-420235D01*
X-501842Y-420242D01*
X-501861Y-420255D01*
X-501888Y-420282D01*
X-501922Y-420322D01*
X-501955Y-420369D01*
X-501995Y-420435D01*
X-502035Y-420508D01*
X-502068Y-420602D01*
X-502954Y-420442D01*
Y-420435D01*
X-502947Y-420415D01*
X-502941Y-420389D01*
X-502927Y-420355D01*
X-502907Y-420309D01*
X-502887Y-420255D01*
X-502834Y-420142D01*
X-502767Y-420009D01*
X-502674Y-419876D01*
X-502567Y-419749D01*
X-502441Y-419643D01*
X-502434D01*
X-502421Y-419629D01*
X-502401Y-419616D01*
X-502374Y-419603D01*
X-502334Y-419583D01*
X-502288Y-419556D01*
X-502228Y-419536D01*
X-502168Y-419510D01*
X-502095Y-419483D01*
X-502015Y-419463D01*
X-501922Y-419436D01*
X-501828Y-419416D01*
X-501722Y-419403D01*
X-501602Y-419390D01*
X-501482Y-419376D01*
X-501242D01*
X-501189Y-419383D01*
D02*
G37*
G36*
X-506097Y-422307D02*
X-503527D01*
Y-423173D01*
X-507130D01*
Y-418091D01*
X-506097D01*
Y-422307D01*
D02*
G37*
G36*
X-512551Y-423173D02*
X-513463D01*
Y-422620D01*
X-513470Y-422633D01*
X-513503Y-422666D01*
X-513543Y-422726D01*
X-513610Y-422793D01*
X-513683Y-422866D01*
X-513776Y-422946D01*
X-513876Y-423019D01*
X-513996Y-423093D01*
X-514003D01*
X-514009Y-423099D01*
X-514029Y-423106D01*
X-514049Y-423119D01*
X-514116Y-423146D01*
X-514202Y-423173D01*
X-514309Y-423206D01*
X-514429Y-423232D01*
X-514556Y-423252D01*
X-514689Y-423259D01*
X-514749D01*
X-514822Y-423252D01*
X-514915Y-423239D01*
X-515015Y-423219D01*
X-515128Y-423192D01*
X-515248Y-423152D01*
X-515361Y-423099D01*
X-515375Y-423093D01*
X-515408Y-423066D01*
X-515461Y-423033D01*
X-515521Y-422979D01*
X-515594Y-422913D01*
X-515668Y-422833D01*
X-515728Y-422746D01*
X-515788Y-422640D01*
Y-422633D01*
X-515794Y-422626D01*
X-515801Y-422606D01*
X-515808Y-422586D01*
X-515828Y-422520D01*
X-515847Y-422427D01*
X-515874Y-422307D01*
X-515894Y-422167D01*
X-515907Y-422000D01*
X-515914Y-421814D01*
Y-419463D01*
X-514935D01*
Y-421168D01*
Y-421174D01*
Y-421201D01*
Y-421241D01*
Y-421294D01*
Y-421354D01*
Y-421427D01*
X-514928Y-421581D01*
X-514922Y-421747D01*
X-514915Y-421907D01*
X-514909Y-421980D01*
X-514902Y-422040D01*
X-514888Y-422093D01*
X-514882Y-422133D01*
Y-422140D01*
X-514868Y-422160D01*
X-514855Y-422193D01*
X-514835Y-422233D01*
X-514809Y-422273D01*
X-514775Y-422320D01*
X-514735Y-422367D01*
X-514689Y-422406D01*
X-514682Y-422413D01*
X-514662Y-422420D01*
X-514629Y-422440D01*
X-514589Y-422453D01*
X-514536Y-422473D01*
X-514476Y-422493D01*
X-514402Y-422500D01*
X-514329Y-422507D01*
X-514289D01*
X-514236Y-422500D01*
X-514176Y-422486D01*
X-514109Y-422473D01*
X-514029Y-422453D01*
X-513956Y-422420D01*
X-513876Y-422373D01*
X-513869Y-422367D01*
X-513843Y-422347D01*
X-513810Y-422320D01*
X-513770Y-422280D01*
X-513723Y-422227D01*
X-513676Y-422173D01*
X-513636Y-422107D01*
X-513603Y-422034D01*
X-513596Y-422020D01*
Y-422007D01*
X-513590Y-421987D01*
X-513583Y-421960D01*
X-513577Y-421927D01*
X-513570Y-421880D01*
X-513563Y-421827D01*
X-513556Y-421767D01*
X-513550Y-421694D01*
Y-421614D01*
X-513543Y-421521D01*
X-513537Y-421414D01*
X-513530Y-421301D01*
Y-421168D01*
Y-421028D01*
Y-419463D01*
X-512551D01*
Y-423173D01*
D02*
G37*
G36*
X-522028Y-421807D02*
X-523959D01*
Y-420828D01*
X-522028D01*
Y-421807D01*
D02*
G37*
G36*
X-538738Y-420042D02*
X-536700Y-423173D01*
X-538039D01*
X-539451Y-420768D01*
X-540290Y-421627D01*
Y-423173D01*
X-541322D01*
Y-418051D01*
X-540290D01*
Y-420329D01*
X-538192Y-418051D01*
X-536800D01*
X-538738Y-420042D01*
D02*
G37*
G36*
X-526071Y-419383D02*
X-526011Y-419390D01*
X-525951Y-419403D01*
X-525878Y-419416D01*
X-525798Y-419443D01*
X-525711Y-419469D01*
X-525624Y-419503D01*
X-525531Y-419543D01*
X-525438Y-419589D01*
X-525345Y-419649D01*
X-525258Y-419723D01*
X-525165Y-419796D01*
X-525078Y-419889D01*
X-525072Y-419896D01*
X-525058Y-419909D01*
X-525038Y-419942D01*
X-525005Y-419982D01*
X-524972Y-420036D01*
X-524932Y-420095D01*
X-524892Y-420169D01*
X-524852Y-420255D01*
X-524812Y-420349D01*
X-524765Y-420455D01*
X-524732Y-420575D01*
X-524699Y-420695D01*
X-524665Y-420835D01*
X-524645Y-420981D01*
X-524632Y-421135D01*
X-524625Y-421301D01*
Y-421314D01*
Y-421341D01*
Y-421388D01*
X-524632Y-421454D01*
X-524639Y-421534D01*
X-524652Y-421621D01*
X-524665Y-421721D01*
X-524685Y-421834D01*
X-524705Y-421947D01*
X-524739Y-422060D01*
X-524772Y-422187D01*
X-524819Y-422307D01*
X-524872Y-422420D01*
X-524932Y-422540D01*
X-525005Y-422646D01*
X-525085Y-422746D01*
X-525092Y-422753D01*
X-525105Y-422766D01*
X-525132Y-422793D01*
X-525165Y-422826D01*
X-525211Y-422866D01*
X-525265Y-422906D01*
X-525325Y-422953D01*
X-525391Y-422999D01*
X-525471Y-423053D01*
X-525551Y-423099D01*
X-525644Y-423139D01*
X-525738Y-423179D01*
X-525844Y-423212D01*
X-525951Y-423239D01*
X-526064Y-423252D01*
X-526184Y-423259D01*
X-526237D01*
X-526297Y-423252D01*
X-526370Y-423246D01*
X-526457Y-423232D01*
X-526550Y-423206D01*
X-526643Y-423179D01*
X-526743Y-423139D01*
X-526757Y-423133D01*
X-526783Y-423112D01*
X-526836Y-423086D01*
X-526903Y-423039D01*
X-526976Y-422986D01*
X-527063Y-422913D01*
X-527163Y-422826D01*
X-527263Y-422720D01*
Y-424591D01*
X-528242D01*
Y-419463D01*
X-527329D01*
Y-420009D01*
X-527323Y-419996D01*
X-527296Y-419962D01*
X-527256Y-419909D01*
X-527203Y-419849D01*
X-527136Y-419776D01*
X-527056Y-419703D01*
X-526956Y-419623D01*
X-526850Y-419556D01*
X-526843D01*
X-526836Y-419549D01*
X-526797Y-419529D01*
X-526737Y-419496D01*
X-526650Y-419463D01*
X-526550Y-419436D01*
X-526437Y-419403D01*
X-526310Y-419383D01*
X-526177Y-419376D01*
X-526117D01*
X-526071Y-419383D01*
D02*
G37*
G36*
X-489028D02*
X-488948Y-419396D01*
X-488848Y-419423D01*
X-488735Y-419456D01*
X-488622Y-419503D01*
X-488502Y-419563D01*
X-488808Y-420422D01*
X-488821Y-420415D01*
X-488848Y-420395D01*
X-488895Y-420369D01*
X-488954Y-420335D01*
X-489028Y-420309D01*
X-489108Y-420282D01*
X-489188Y-420262D01*
X-489267Y-420255D01*
X-489301D01*
X-489341Y-420262D01*
X-489394Y-420269D01*
X-489447Y-420282D01*
X-489507Y-420309D01*
X-489567Y-420335D01*
X-489627Y-420375D01*
X-489634Y-420382D01*
X-489647Y-420395D01*
X-489674Y-420429D01*
X-489707Y-420469D01*
X-489740Y-420528D01*
X-489780Y-420595D01*
X-489814Y-420682D01*
X-489847Y-420788D01*
Y-420801D01*
X-489854Y-420822D01*
X-489860Y-420848D01*
X-489867Y-420888D01*
X-489874Y-420928D01*
X-489880Y-420988D01*
X-489887Y-421055D01*
X-489893Y-421128D01*
X-489900Y-421221D01*
X-489907Y-421321D01*
X-489914Y-421434D01*
X-489920Y-421561D01*
Y-421701D01*
X-489927Y-421854D01*
Y-422027D01*
Y-423173D01*
X-490906D01*
Y-419463D01*
X-489993D01*
Y-419989D01*
X-489980Y-419982D01*
X-489973Y-419962D01*
X-489954Y-419936D01*
X-489907Y-419869D01*
X-489854Y-419796D01*
X-489787Y-419709D01*
X-489720Y-419629D01*
X-489647Y-419556D01*
X-489574Y-419503D01*
X-489567Y-419496D01*
X-489540Y-419483D01*
X-489501Y-419463D01*
X-489454Y-419436D01*
X-489387Y-419416D01*
X-489321Y-419396D01*
X-489241Y-419383D01*
X-489154Y-419376D01*
X-489094D01*
X-489028Y-419383D01*
D02*
G37*
G36*
X-530699D02*
X-530639D01*
X-530573Y-419396D01*
X-530493Y-419403D01*
X-530406Y-419423D01*
X-530306Y-419443D01*
X-530206Y-419476D01*
X-530100Y-419510D01*
X-529987Y-419556D01*
X-529880Y-419609D01*
X-529774Y-419669D01*
X-529667Y-419749D01*
X-529567Y-419829D01*
X-529474Y-419929D01*
X-529467Y-419936D01*
X-529454Y-419956D01*
X-529427Y-419989D01*
X-529401Y-420029D01*
X-529361Y-420089D01*
X-529321Y-420162D01*
X-529281Y-420242D01*
X-529234Y-420342D01*
X-529194Y-420455D01*
X-529148Y-420575D01*
X-529114Y-420715D01*
X-529074Y-420861D01*
X-529048Y-421028D01*
X-529028Y-421208D01*
X-529014Y-421394D01*
Y-421601D01*
X-531472D01*
Y-421607D01*
Y-421621D01*
Y-421641D01*
X-531465Y-421674D01*
X-531459Y-421754D01*
X-531439Y-421854D01*
X-531412Y-421960D01*
X-531372Y-422074D01*
X-531312Y-422187D01*
X-531239Y-422287D01*
X-531225Y-422300D01*
X-531199Y-422327D01*
X-531152Y-422360D01*
X-531086Y-422406D01*
X-530999Y-422453D01*
X-530906Y-422486D01*
X-530793Y-422513D01*
X-530673Y-422526D01*
X-530633D01*
X-530593Y-422520D01*
X-530540Y-422513D01*
X-530480Y-422500D01*
X-530420Y-422473D01*
X-530353Y-422446D01*
X-530293Y-422406D01*
X-530286Y-422400D01*
X-530266Y-422380D01*
X-530240Y-422353D01*
X-530200Y-422307D01*
X-530160Y-422247D01*
X-530120Y-422180D01*
X-530080Y-422093D01*
X-530047Y-421994D01*
X-529068Y-422160D01*
Y-422167D01*
X-529074Y-422187D01*
X-529088Y-422213D01*
X-529101Y-422247D01*
X-529128Y-422293D01*
X-529148Y-422347D01*
X-529214Y-422467D01*
X-529301Y-422600D01*
X-529401Y-422733D01*
X-529527Y-422866D01*
X-529667Y-422979D01*
X-529674D01*
X-529687Y-422993D01*
X-529707Y-423006D01*
X-529740Y-423026D01*
X-529780Y-423046D01*
X-529827Y-423066D01*
X-529880Y-423093D01*
X-529947Y-423119D01*
X-530020Y-423146D01*
X-530093Y-423173D01*
X-530266Y-423212D01*
X-530466Y-423246D01*
X-530686Y-423259D01*
X-530726D01*
X-530779Y-423252D01*
X-530846Y-423246D01*
X-530926Y-423239D01*
X-531012Y-423226D01*
X-531119Y-423206D01*
X-531225Y-423179D01*
X-531339Y-423146D01*
X-531459Y-423106D01*
X-531578Y-423053D01*
X-531692Y-422993D01*
X-531812Y-422919D01*
X-531918Y-422833D01*
X-532018Y-422740D01*
X-532111Y-422626D01*
X-532118Y-422620D01*
X-532125Y-422600D01*
X-532145Y-422573D01*
X-532171Y-422533D01*
X-532198Y-422486D01*
X-532225Y-422427D01*
X-532258Y-422353D01*
X-532291Y-422273D01*
X-532331Y-422187D01*
X-532364Y-422093D01*
X-532391Y-421987D01*
X-532418Y-421874D01*
X-532444Y-421754D01*
X-532464Y-421627D01*
X-532471Y-421488D01*
X-532478Y-421348D01*
Y-421334D01*
Y-421308D01*
X-532471Y-421261D01*
Y-421194D01*
X-532464Y-421121D01*
X-532451Y-421028D01*
X-532438Y-420928D01*
X-532418Y-420822D01*
X-532391Y-420708D01*
X-532358Y-420588D01*
X-532324Y-420469D01*
X-532278Y-420349D01*
X-532218Y-420229D01*
X-532158Y-420116D01*
X-532085Y-420002D01*
X-531998Y-419902D01*
X-531991Y-419896D01*
X-531978Y-419882D01*
X-531951Y-419856D01*
X-531912Y-419823D01*
X-531865Y-419782D01*
X-531805Y-419736D01*
X-531738Y-419689D01*
X-531665Y-419636D01*
X-531578Y-419589D01*
X-531492Y-419543D01*
X-531392Y-419496D01*
X-531279Y-419456D01*
X-531166Y-419423D01*
X-531046Y-419396D01*
X-530912Y-419383D01*
X-530779Y-419376D01*
X-530739D01*
X-530699Y-419383D01*
D02*
G37*
G36*
X-534675D02*
X-534615D01*
X-534549Y-419396D01*
X-534469Y-419403D01*
X-534382Y-419423D01*
X-534282Y-419443D01*
X-534183Y-419476D01*
X-534076Y-419510D01*
X-533963Y-419556D01*
X-533856Y-419609D01*
X-533750Y-419669D01*
X-533643Y-419749D01*
X-533543Y-419829D01*
X-533450Y-419929D01*
X-533443Y-419936D01*
X-533430Y-419956D01*
X-533403Y-419989D01*
X-533377Y-420029D01*
X-533337Y-420089D01*
X-533297Y-420162D01*
X-533257Y-420242D01*
X-533210Y-420342D01*
X-533170Y-420455D01*
X-533124Y-420575D01*
X-533090Y-420715D01*
X-533050Y-420861D01*
X-533024Y-421028D01*
X-533004Y-421208D01*
X-532990Y-421394D01*
Y-421601D01*
X-535448D01*
Y-421607D01*
Y-421621D01*
Y-421641D01*
X-535441Y-421674D01*
X-535435Y-421754D01*
X-535415Y-421854D01*
X-535388Y-421960D01*
X-535348Y-422074D01*
X-535288Y-422187D01*
X-535215Y-422287D01*
X-535202Y-422300D01*
X-535175Y-422327D01*
X-535128Y-422360D01*
X-535062Y-422406D01*
X-534975Y-422453D01*
X-534882Y-422486D01*
X-534769Y-422513D01*
X-534649Y-422526D01*
X-534609D01*
X-534569Y-422520D01*
X-534515Y-422513D01*
X-534456Y-422500D01*
X-534396Y-422473D01*
X-534329Y-422446D01*
X-534269Y-422406D01*
X-534262Y-422400D01*
X-534242Y-422380D01*
X-534216Y-422353D01*
X-534176Y-422307D01*
X-534136Y-422247D01*
X-534096Y-422180D01*
X-534056Y-422093D01*
X-534023Y-421994D01*
X-533044Y-422160D01*
Y-422167D01*
X-533050Y-422187D01*
X-533064Y-422213D01*
X-533077Y-422247D01*
X-533104Y-422293D01*
X-533124Y-422347D01*
X-533190Y-422467D01*
X-533277Y-422600D01*
X-533377Y-422733D01*
X-533503Y-422866D01*
X-533643Y-422979D01*
X-533650D01*
X-533663Y-422993D01*
X-533683Y-423006D01*
X-533716Y-423026D01*
X-533756Y-423046D01*
X-533803Y-423066D01*
X-533856Y-423093D01*
X-533923Y-423119D01*
X-533996Y-423146D01*
X-534069Y-423173D01*
X-534242Y-423212D01*
X-534442Y-423246D01*
X-534662Y-423259D01*
X-534702D01*
X-534755Y-423252D01*
X-534822Y-423246D01*
X-534902Y-423239D01*
X-534988Y-423226D01*
X-535095Y-423206D01*
X-535202Y-423179D01*
X-535315Y-423146D01*
X-535435Y-423106D01*
X-535555Y-423053D01*
X-535668Y-422993D01*
X-535788Y-422919D01*
X-535894Y-422833D01*
X-535994Y-422740D01*
X-536087Y-422626D01*
X-536094Y-422620D01*
X-536101Y-422600D01*
X-536121Y-422573D01*
X-536147Y-422533D01*
X-536174Y-422486D01*
X-536201Y-422427D01*
X-536234Y-422353D01*
X-536267Y-422273D01*
X-536307Y-422187D01*
X-536340Y-422093D01*
X-536367Y-421987D01*
X-536394Y-421874D01*
X-536420Y-421754D01*
X-536440Y-421627D01*
X-536447Y-421488D01*
X-536454Y-421348D01*
Y-421334D01*
Y-421308D01*
X-536447Y-421261D01*
Y-421194D01*
X-536440Y-421121D01*
X-536427Y-421028D01*
X-536414Y-420928D01*
X-536394Y-420822D01*
X-536367Y-420708D01*
X-536334Y-420588D01*
X-536300Y-420469D01*
X-536254Y-420349D01*
X-536194Y-420229D01*
X-536134Y-420116D01*
X-536061Y-420002D01*
X-535974Y-419902D01*
X-535967Y-419896D01*
X-535954Y-419882D01*
X-535927Y-419856D01*
X-535887Y-419823D01*
X-535841Y-419782D01*
X-535781Y-419736D01*
X-535714Y-419689D01*
X-535641Y-419636D01*
X-535555Y-419589D01*
X-535468Y-419543D01*
X-535368Y-419496D01*
X-535255Y-419456D01*
X-535142Y-419423D01*
X-535022Y-419396D01*
X-534889Y-419383D01*
X-534755Y-419376D01*
X-534715D01*
X-534675Y-419383D01*
D02*
G37*
G36*
X-519084Y-417964D02*
X-519004Y-417971D01*
X-518904Y-417978D01*
X-518798Y-417998D01*
X-518671Y-418018D01*
X-518538Y-418044D01*
X-518398Y-418084D01*
X-518252Y-418131D01*
X-518099Y-418184D01*
X-517945Y-418257D01*
X-517799Y-418337D01*
X-517652Y-418431D01*
X-517513Y-418537D01*
X-517379Y-418664D01*
X-517373Y-418670D01*
X-517353Y-418697D01*
X-517319Y-418737D01*
X-517273Y-418790D01*
X-517219Y-418863D01*
X-517166Y-418950D01*
X-517100Y-419057D01*
X-517040Y-419170D01*
X-516973Y-419303D01*
X-516913Y-419450D01*
X-516860Y-419609D01*
X-516807Y-419789D01*
X-516760Y-419976D01*
X-516727Y-420176D01*
X-516707Y-420395D01*
X-516700Y-420622D01*
Y-420628D01*
Y-420635D01*
Y-420675D01*
X-516707Y-420742D01*
X-516713Y-420828D01*
X-516720Y-420935D01*
X-516733Y-421055D01*
X-516760Y-421188D01*
X-516787Y-421334D01*
X-516820Y-421488D01*
X-516866Y-421641D01*
X-516920Y-421807D01*
X-516986Y-421967D01*
X-517066Y-422127D01*
X-517153Y-422280D01*
X-517260Y-422427D01*
X-517379Y-422566D01*
X-517386Y-422573D01*
X-517413Y-422593D01*
X-517446Y-422633D01*
X-517499Y-422673D01*
X-517572Y-422726D01*
X-517652Y-422786D01*
X-517746Y-422853D01*
X-517859Y-422913D01*
X-517979Y-422979D01*
X-518112Y-423046D01*
X-518258Y-423106D01*
X-518418Y-423159D01*
X-518591Y-423199D01*
X-518778Y-423232D01*
X-518971Y-423259D01*
X-519177Y-423266D01*
X-519231D01*
X-519284Y-423259D01*
X-519364Y-423252D01*
X-519464Y-423246D01*
X-519570Y-423226D01*
X-519697Y-423206D01*
X-519830Y-423179D01*
X-519970Y-423139D01*
X-520123Y-423099D01*
X-520270Y-423039D01*
X-520423Y-422973D01*
X-520570Y-422893D01*
X-520716Y-422799D01*
X-520856Y-422693D01*
X-520989Y-422573D01*
X-520996Y-422566D01*
X-521016Y-422540D01*
X-521049Y-422500D01*
X-521096Y-422446D01*
X-521142Y-422373D01*
X-521202Y-422287D01*
X-521262Y-422187D01*
X-521322Y-422067D01*
X-521389Y-421940D01*
X-521449Y-421794D01*
X-521509Y-421641D01*
X-521555Y-421467D01*
X-521602Y-421281D01*
X-521635Y-421081D01*
X-521655Y-420875D01*
X-521662Y-420648D01*
Y-420642D01*
Y-420615D01*
Y-420575D01*
X-521655Y-420515D01*
Y-420448D01*
X-521648Y-420369D01*
X-521642Y-420282D01*
X-521635Y-420189D01*
X-521602Y-419982D01*
X-521562Y-419763D01*
X-521509Y-419536D01*
X-521429Y-419330D01*
Y-419323D01*
X-521422Y-419310D01*
X-521409Y-419290D01*
X-521395Y-419263D01*
X-521355Y-419190D01*
X-521302Y-419097D01*
X-521236Y-418983D01*
X-521156Y-418870D01*
X-521062Y-418750D01*
X-520956Y-418630D01*
X-520949Y-418624D01*
X-520942Y-418617D01*
X-520902Y-418577D01*
X-520843Y-418524D01*
X-520763Y-418457D01*
X-520663Y-418377D01*
X-520549Y-418304D01*
X-520430Y-418231D01*
X-520296Y-418164D01*
X-520290D01*
X-520276Y-418157D01*
X-520250Y-418144D01*
X-520210Y-418131D01*
X-520163Y-418118D01*
X-520110Y-418097D01*
X-520050Y-418078D01*
X-519977Y-418058D01*
X-519904Y-418044D01*
X-519817Y-418024D01*
X-519630Y-417991D01*
X-519417Y-417964D01*
X-519191Y-417958D01*
X-519138D01*
X-519084Y-417964D01*
D02*
G37*
%LPC*%
G36*
X-534695Y-420129D02*
X-534709D01*
X-534749Y-420135D01*
X-534809Y-420142D01*
X-534882Y-420155D01*
X-534968Y-420189D01*
X-535055Y-420229D01*
X-535142Y-420289D01*
X-535228Y-420369D01*
X-535235Y-420382D01*
X-535261Y-420409D01*
X-535295Y-420462D01*
X-535328Y-420535D01*
X-535368Y-420628D01*
X-535401Y-420735D01*
X-535428Y-420861D01*
X-535435Y-421001D01*
X-533963D01*
Y-420995D01*
Y-420981D01*
Y-420961D01*
X-533969Y-420928D01*
X-533976Y-420855D01*
X-533996Y-420761D01*
X-534023Y-420655D01*
X-534063Y-420548D01*
X-534116Y-420448D01*
X-534189Y-420355D01*
X-534196Y-420349D01*
X-534229Y-420322D01*
X-534269Y-420282D01*
X-534329Y-420242D01*
X-534402Y-420202D01*
X-534489Y-420162D01*
X-534589Y-420135D01*
X-534695Y-420129D01*
D02*
G37*
G36*
X-530719D02*
X-530733D01*
X-530773Y-420135D01*
X-530832Y-420142D01*
X-530906Y-420155D01*
X-530992Y-420189D01*
X-531079Y-420229D01*
X-531166Y-420289D01*
X-531252Y-420369D01*
X-531259Y-420382D01*
X-531285Y-420409D01*
X-531319Y-420462D01*
X-531352Y-420535D01*
X-531392Y-420628D01*
X-531425Y-420735D01*
X-531452Y-420861D01*
X-531459Y-421001D01*
X-529987D01*
Y-420995D01*
Y-420981D01*
Y-420961D01*
X-529993Y-420928D01*
X-530000Y-420855D01*
X-530020Y-420761D01*
X-530047Y-420655D01*
X-530087Y-420548D01*
X-530140Y-420448D01*
X-530213Y-420355D01*
X-530220Y-420349D01*
X-530253Y-420322D01*
X-530293Y-420282D01*
X-530353Y-420242D01*
X-530426Y-420202D01*
X-530513Y-420162D01*
X-530613Y-420135D01*
X-530719Y-420129D01*
D02*
G37*
G36*
X-493370D02*
X-493383D01*
X-493423Y-420135D01*
X-493483Y-420142D01*
X-493556Y-420155D01*
X-493643Y-420189D01*
X-493730Y-420229D01*
X-493816Y-420289D01*
X-493903Y-420369D01*
X-493910Y-420382D01*
X-493936Y-420409D01*
X-493969Y-420462D01*
X-494003Y-420535D01*
X-494043Y-420628D01*
X-494076Y-420735D01*
X-494103Y-420861D01*
X-494109Y-421001D01*
X-492637D01*
Y-420995D01*
Y-420981D01*
Y-420961D01*
X-492644Y-420928D01*
X-492651Y-420855D01*
X-492671Y-420761D01*
X-492697Y-420655D01*
X-492737Y-420548D01*
X-492791Y-420448D01*
X-492864Y-420355D01*
X-492871Y-420349D01*
X-492904Y-420322D01*
X-492944Y-420282D01*
X-493004Y-420242D01*
X-493077Y-420202D01*
X-493164Y-420162D01*
X-493263Y-420135D01*
X-493370Y-420129D01*
D02*
G37*
G36*
X-500749Y-421401D02*
X-500756D01*
X-500783Y-421414D01*
X-500829Y-421427D01*
X-500896Y-421448D01*
X-500982Y-421467D01*
X-501089Y-421494D01*
X-501209Y-421521D01*
X-501355Y-421554D01*
X-501362D01*
X-501375Y-421561D01*
X-501395D01*
X-501422Y-421567D01*
X-501489Y-421587D01*
X-501575Y-421607D01*
X-501662Y-421634D01*
X-501748Y-421661D01*
X-501828Y-421687D01*
X-501888Y-421721D01*
X-501895Y-421727D01*
X-501915Y-421747D01*
X-501948Y-421774D01*
X-501981Y-421814D01*
X-502015Y-421867D01*
X-502048Y-421927D01*
X-502068Y-421994D01*
X-502075Y-422067D01*
Y-422074D01*
Y-422100D01*
X-502068Y-422140D01*
X-502055Y-422187D01*
X-502035Y-422247D01*
X-502008Y-422300D01*
X-501975Y-422360D01*
X-501922Y-422420D01*
X-501915Y-422427D01*
X-501895Y-422440D01*
X-501861Y-422467D01*
X-501815Y-422493D01*
X-501762Y-422520D01*
X-501695Y-422546D01*
X-501622Y-422560D01*
X-501535Y-422566D01*
X-501489D01*
X-501435Y-422560D01*
X-501369Y-422546D01*
X-501295Y-422526D01*
X-501209Y-422493D01*
X-501116Y-422453D01*
X-501022Y-422393D01*
X-501016Y-422387D01*
X-500996Y-422373D01*
X-500962Y-422340D01*
X-500929Y-422307D01*
X-500889Y-422260D01*
X-500849Y-422207D01*
X-500816Y-422140D01*
X-500789Y-422074D01*
Y-422067D01*
X-500783Y-422047D01*
X-500776Y-422014D01*
X-500769Y-421967D01*
X-500763Y-421900D01*
X-500756Y-421820D01*
X-500749Y-421721D01*
Y-421601D01*
Y-421401D01*
D02*
G37*
G36*
X-526384Y-420149D02*
X-526477D01*
X-526504Y-420155D01*
X-526570Y-420162D01*
X-526650Y-420182D01*
X-526750Y-420215D01*
X-526850Y-420269D01*
X-526950Y-420335D01*
X-527043Y-420429D01*
X-527050Y-420442D01*
X-527076Y-420482D01*
X-527116Y-420548D01*
X-527156Y-420635D01*
X-527203Y-420755D01*
X-527236Y-420895D01*
X-527263Y-421061D01*
X-527276Y-421254D01*
Y-421261D01*
Y-421281D01*
Y-421314D01*
X-527269Y-421354D01*
Y-421408D01*
X-527263Y-421467D01*
X-527243Y-421607D01*
X-527216Y-421754D01*
X-527170Y-421907D01*
X-527110Y-422054D01*
X-527070Y-422120D01*
X-527030Y-422180D01*
X-527016Y-422193D01*
X-526983Y-422227D01*
X-526930Y-422273D01*
X-526863Y-422327D01*
X-526777Y-422387D01*
X-526670Y-422433D01*
X-526557Y-422467D01*
X-526497Y-422473D01*
X-526430Y-422480D01*
X-526417D01*
X-526370Y-422473D01*
X-526310Y-422467D01*
X-526230Y-422446D01*
X-526144Y-422413D01*
X-526051Y-422367D01*
X-525951Y-422300D01*
X-525864Y-422207D01*
X-525851Y-422193D01*
X-525844Y-422180D01*
X-525824Y-422154D01*
X-525811Y-422127D01*
X-525791Y-422087D01*
X-525771Y-422040D01*
X-525744Y-421994D01*
X-525724Y-421934D01*
X-525704Y-421867D01*
X-525684Y-421794D01*
X-525664Y-421714D01*
X-525651Y-421621D01*
X-525638Y-421527D01*
X-525631Y-421421D01*
Y-421308D01*
Y-421301D01*
Y-421281D01*
Y-421254D01*
X-525638Y-421214D01*
Y-421161D01*
X-525644Y-421108D01*
X-525658Y-420981D01*
X-525691Y-420835D01*
X-525731Y-420695D01*
X-525791Y-420555D01*
X-525831Y-420495D01*
X-525871Y-420435D01*
Y-420429D01*
X-525884Y-420422D01*
X-525911Y-420389D01*
X-525964Y-420342D01*
X-526031Y-420289D01*
X-526111Y-420242D01*
X-526210Y-420195D01*
X-526324Y-420162D01*
X-526384Y-420149D01*
D02*
G37*
G36*
X-519177Y-418844D02*
X-519238D01*
X-519284Y-418850D01*
X-519337Y-418857D01*
X-519397Y-418863D01*
X-519471Y-418877D01*
X-519544Y-418897D01*
X-519710Y-418950D01*
X-519797Y-418983D01*
X-519883Y-419030D01*
X-519970Y-419077D01*
X-520050Y-419136D01*
X-520137Y-419203D01*
X-520210Y-419283D01*
X-520217Y-419290D01*
X-520223Y-419303D01*
X-520243Y-419330D01*
X-520270Y-419363D01*
X-520296Y-419410D01*
X-520330Y-419469D01*
X-520370Y-419536D01*
X-520403Y-419616D01*
X-520436Y-419703D01*
X-520476Y-419803D01*
X-520510Y-419909D01*
X-520536Y-420029D01*
X-520563Y-420155D01*
X-520576Y-420295D01*
X-520589Y-420448D01*
X-520596Y-420608D01*
Y-420615D01*
Y-420648D01*
Y-420695D01*
X-520589Y-420748D01*
X-520583Y-420822D01*
X-520576Y-420908D01*
X-520563Y-421001D01*
X-520543Y-421101D01*
X-520496Y-421314D01*
X-520463Y-421427D01*
X-520430Y-421534D01*
X-520383Y-421641D01*
X-520330Y-421747D01*
X-520270Y-421847D01*
X-520196Y-421934D01*
X-520190Y-421940D01*
X-520177Y-421954D01*
X-520157Y-421974D01*
X-520123Y-422000D01*
X-520083Y-422040D01*
X-520037Y-422074D01*
X-519983Y-422114D01*
X-519917Y-422154D01*
X-519850Y-422200D01*
X-519770Y-422240D01*
X-519690Y-422273D01*
X-519597Y-422307D01*
X-519504Y-422340D01*
X-519397Y-422360D01*
X-519291Y-422373D01*
X-519177Y-422380D01*
X-519118D01*
X-519078Y-422373D01*
X-519024Y-422367D01*
X-518958Y-422353D01*
X-518891Y-422340D01*
X-518818Y-422327D01*
X-518658Y-422273D01*
X-518572Y-422233D01*
X-518492Y-422193D01*
X-518405Y-422140D01*
X-518318Y-422080D01*
X-518238Y-422014D01*
X-518165Y-421934D01*
X-518159Y-421927D01*
X-518145Y-421914D01*
X-518125Y-421887D01*
X-518105Y-421847D01*
X-518072Y-421801D01*
X-518039Y-421747D01*
X-518005Y-421674D01*
X-517965Y-421601D01*
X-517926Y-421507D01*
X-517892Y-421408D01*
X-517859Y-421301D01*
X-517826Y-421181D01*
X-517806Y-421048D01*
X-517786Y-420908D01*
X-517772Y-420755D01*
X-517766Y-420595D01*
Y-420582D01*
Y-420555D01*
Y-420508D01*
X-517772Y-420448D01*
X-517779Y-420375D01*
X-517786Y-420295D01*
X-517799Y-420202D01*
X-517812Y-420102D01*
X-517859Y-419889D01*
X-517892Y-419776D01*
X-517926Y-419669D01*
X-517972Y-419563D01*
X-518025Y-419463D01*
X-518085Y-419370D01*
X-518152Y-419283D01*
X-518159Y-419276D01*
X-518172Y-419263D01*
X-518192Y-419243D01*
X-518225Y-419216D01*
X-518258Y-419183D01*
X-518305Y-419143D01*
X-518365Y-419103D01*
X-518425Y-419063D01*
X-518492Y-419023D01*
X-518572Y-418983D01*
X-518658Y-418943D01*
X-518745Y-418910D01*
X-518845Y-418883D01*
X-518951Y-418863D01*
X-519058Y-418850D01*
X-519177Y-418844D01*
D02*
G37*
%LPD*%
D35*
X-41868Y49399D02*
X-40029Y49225D01*
X-43748Y49955D02*
X-41868Y49399D01*
X-45375Y50804D02*
X-43748Y49955D01*
X-46706Y51837D02*
X-45375Y50804D01*
X-47845Y53086D02*
X-46706Y51837D01*
X-48745Y54495D02*
X-47845Y53086D01*
X-49380Y55996D02*
X-48745Y54495D01*
X-49749Y57520D02*
X-49380Y55996D01*
X-49842Y58303D02*
X-49749Y57520D01*
X-49872Y59068D02*
X-49842Y58303D01*
X-49872Y59068D02*
X-49698Y60907D01*
X-49142Y62787D01*
X-48293Y64414D01*
X-47260Y65745D01*
X-46011Y66884D01*
X-44602Y67784D01*
X-43101Y68419D01*
X-41577Y68788D01*
X-40794Y68881D01*
X-40029Y68910D01*
X-38190Y68737D01*
X-36311Y68181D01*
X-34683Y67332D01*
X-33352Y66299D01*
X-32213Y65050D01*
X-31313Y63641D01*
X-30678Y62140D01*
X-30309Y60616D01*
X-30217Y59833D01*
X-30187Y59068D01*
X-30360Y57229D02*
X-30187Y59068D01*
X-30916Y55349D02*
X-30360Y57229D01*
X-31765Y53722D02*
X-30916Y55349D01*
X-32798Y52391D02*
X-31765Y53722D01*
X-34047Y51252D02*
X-32798Y52391D01*
X-35456Y50352D02*
X-34047Y51252D01*
X-36957Y49717D02*
X-35456Y50352D01*
X-38481Y49348D02*
X-36957Y49717D01*
X-39264Y49255D02*
X-38481Y49348D01*
X-40029Y49225D02*
X-39264Y49255D01*
X-140294Y49399D02*
X-138454Y49225D01*
X-142173Y49955D02*
X-140294Y49399D01*
X-143800Y50804D02*
X-142173Y49955D01*
X-145132Y51837D02*
X-143800Y50804D01*
X-146271Y53086D02*
X-145132Y51837D01*
X-147170Y54495D02*
X-146271Y53086D01*
X-147805Y55996D02*
X-147170Y54495D01*
X-148174Y57520D02*
X-147805Y55996D01*
X-148267Y58303D02*
X-148174Y57520D01*
X-148297Y59068D02*
X-148267Y58303D01*
X-148297Y59068D02*
X-148124Y60907D01*
X-147567Y62787D01*
X-146719Y64414D01*
X-145686Y65745D01*
X-144436Y66884D01*
X-143027Y67784D01*
X-141526Y68419D01*
X-140003Y68788D01*
X-139219Y68881D01*
X-138454Y68910D01*
X-136615Y68737D01*
X-134736Y68181D01*
X-133108Y67332D01*
X-131777Y66299D01*
X-130638Y65050D01*
X-129739Y63641D01*
X-129104Y62140D01*
X-128734Y60616D01*
X-128642Y59833D01*
X-128612Y59068D01*
X-128785Y57229D02*
X-128612Y59068D01*
X-129341Y55349D02*
X-128785Y57229D01*
X-130190Y53722D02*
X-129341Y55349D01*
X-131223Y52391D02*
X-130190Y53722D01*
X-132473Y51252D02*
X-131223Y52391D01*
X-133881Y50352D02*
X-132473Y51252D01*
X-135382Y49717D02*
X-133881Y50352D01*
X-136906Y49348D02*
X-135382Y49717D01*
X-137689Y49255D02*
X-136906Y49348D01*
X-138454Y49225D02*
X-137689Y49255D01*
X-140294Y-68711D02*
X-138454Y-68885D01*
X-142173Y-68155D02*
X-140294Y-68711D01*
X-143800Y-67306D02*
X-142173Y-68155D01*
X-145132Y-66273D02*
X-143800Y-67306D01*
X-146271Y-65024D02*
X-145132Y-66273D01*
X-147170Y-63615D02*
X-146271Y-65024D01*
X-147805Y-62114D02*
X-147170Y-63615D01*
X-148174Y-60590D02*
X-147805Y-62114D01*
X-148267Y-59807D02*
X-148174Y-60590D01*
X-148297Y-59042D02*
X-148267Y-59807D01*
X-148297Y-59042D02*
X-148124Y-57203D01*
X-147567Y-55324D01*
X-146719Y-53696D01*
X-145686Y-52365D01*
X-144436Y-51226D01*
X-143027Y-50327D01*
X-141526Y-49691D01*
X-140003Y-49322D01*
X-139219Y-49229D01*
X-138454Y-49200D01*
X-136615Y-49373D01*
X-134736Y-49929D01*
X-133108Y-50778D01*
X-131777Y-51811D01*
X-130638Y-53060D01*
X-129739Y-54469D01*
X-129104Y-55970D01*
X-128734Y-57494D01*
X-128642Y-58277D01*
X-128612Y-59042D01*
X-128785Y-60881D02*
X-128612Y-59042D01*
X-129341Y-62761D02*
X-128785Y-60881D01*
X-130190Y-64388D02*
X-129341Y-62761D01*
X-131223Y-65719D02*
X-130190Y-64388D01*
X-132473Y-66858D02*
X-131223Y-65719D01*
X-133881Y-67758D02*
X-132473Y-66858D01*
X-135382Y-68393D02*
X-133881Y-67758D01*
X-136906Y-68762D02*
X-135382Y-68393D01*
X-137689Y-68855D02*
X-136906Y-68762D01*
X-138454Y-68885D02*
X-137689Y-68855D01*
X-41868Y-68711D02*
X-40029Y-68885D01*
X-43748Y-68155D02*
X-41868Y-68711D01*
X-45375Y-67306D02*
X-43748Y-68155D01*
X-46706Y-66273D02*
X-45375Y-67306D01*
X-47845Y-65024D02*
X-46706Y-66273D01*
X-48745Y-63615D02*
X-47845Y-65024D01*
X-49380Y-62114D02*
X-48745Y-63615D01*
X-49749Y-60590D02*
X-49380Y-62114D01*
X-49842Y-59807D02*
X-49749Y-60590D01*
X-49872Y-59042D02*
X-49842Y-59807D01*
X-49872Y-59042D02*
X-49698Y-57203D01*
X-49142Y-55324D01*
X-48293Y-53696D01*
X-47260Y-52365D01*
X-46011Y-51226D01*
X-44602Y-50327D01*
X-43101Y-49691D01*
X-41577Y-49322D01*
X-40794Y-49229D01*
X-40029Y-49200D01*
X-38190Y-49373D01*
X-36311Y-49929D01*
X-34683Y-50778D01*
X-33352Y-51811D01*
X-32213Y-53060D01*
X-31313Y-54469D01*
X-30678Y-55970D01*
X-30309Y-57494D01*
X-30217Y-58277D01*
X-30187Y-59042D01*
X-30360Y-60881D02*
X-30187Y-59042D01*
X-30916Y-62761D02*
X-30360Y-60881D01*
X-31765Y-64388D02*
X-30916Y-62761D01*
X-32798Y-65719D02*
X-31765Y-64388D01*
X-34047Y-66858D02*
X-32798Y-65719D01*
X-35456Y-67758D02*
X-34047Y-66858D01*
X-36957Y-68393D02*
X-35456Y-67758D01*
X-38481Y-68762D02*
X-36957Y-68393D01*
X-39264Y-68855D02*
X-38481Y-68762D01*
X-40029Y-68885D02*
X-39264Y-68855D01*
X-209043Y56881D02*
X-208956Y57000D01*
X-210851Y53809D02*
X-209043Y56881D01*
X-212365Y50598D02*
X-210851Y53809D01*
X-213693Y46892D02*
X-212365Y50598D01*
X-214654Y43033D02*
X-213693Y46892D01*
X-215187Y39485D02*
X-214654Y43033D01*
X-215344Y37468D02*
X-215187Y39485D01*
X-215397Y35451D02*
X-215344Y37468D01*
X-215397Y-35425D02*
Y35451D01*
Y-35425D02*
X-215197Y-39384D01*
X-214677Y-42929D01*
X-213730Y-46764D01*
X-212400Y-50491D01*
X-210884Y-53722D01*
X-209084Y-56797D01*
X-183605Y-57062D01*
X-183284Y-55320D01*
X-182787Y-53675D01*
X-181844Y-51569D01*
X-180549Y-49552D01*
X-179046Y-47836D01*
X-177321Y-46362D01*
X-175190Y-45041D01*
X-172892Y-44079D01*
X-170486Y-43495D01*
X-168724Y-43312D01*
X-167006Y-43325D01*
X-164719Y-43636D01*
X-162419Y-44309D01*
X-160349Y-45268D01*
X-158449Y-46507D01*
X-156580Y-48179D01*
X-155010Y-50114D01*
X-153771Y-52257D01*
X-153099Y-53896D01*
X-152627Y-55548D01*
X-152281Y-57830D01*
X-152278Y-60226D01*
X-152614Y-62483D02*
X-152278Y-60226D01*
X-153268Y-64655D02*
X-152614Y-62483D01*
X-154346Y-66919D02*
X-153268Y-64655D01*
X-155759Y-68972D02*
X-154346Y-66919D01*
X-157466Y-70765D02*
X-155759Y-68972D01*
X-158849Y-71871D02*
X-157466Y-70765D01*
X-160301Y-72790D02*
X-158849Y-71871D01*
X-160301Y-72790D02*
X-146800Y-83700D01*
X-89655Y-83655D01*
X-29500Y-76000D01*
X-18532Y-62747D01*
X-20401Y-61448D02*
X-18532Y-62747D01*
X-22055Y-59901D02*
X-20401Y-61448D01*
X-23603Y-57937D02*
X-22055Y-59901D01*
X-24815Y-55767D02*
X-23603Y-57937D01*
X-25666Y-53449D02*
X-24815Y-55767D01*
X-26077Y-51527D02*
X-25666Y-53449D01*
X-26243Y-49642D02*
X-26077Y-51527D01*
X-26243Y-49642D02*
X-26138Y-47329D01*
X-25666Y-44953D01*
X-24891Y-42800D01*
X-23818Y-40793D01*
X-22475Y-38971D01*
X-20705Y-37204D01*
X-18690Y-35748D01*
X-16486Y-34633D01*
X-14625Y-34001D01*
X-12773Y-33616D01*
X-10463Y-33452D01*
X-8049Y-33644D01*
X-5820Y-34164D01*
X-3702Y-34995D01*
X-1735Y-36117D01*
X225Y-37670D01*
X1906Y-39502D01*
X3270Y-41561D01*
X4114Y-43336D01*
X4712Y-45130D01*
X5144Y-47405D01*
X5234Y-49826D01*
X4977Y-52100D02*
X5234Y-49826D01*
X4397Y-54301D02*
X4977Y-52100D01*
X3512Y-56384D02*
X4397Y-54301D01*
X3512Y-56384D02*
X6509Y-63544D01*
X13364Y-62398D01*
X20209Y-61198D01*
X20640Y-61121D01*
X20909Y-61072D01*
X21178Y-61024D01*
X34210Y-54932D01*
X35439Y-52439D01*
X45000Y-23292D01*
Y25811D01*
X35273Y52859D02*
X45000Y25811D01*
X34117Y55114D02*
X35273Y52859D01*
X21178Y61050D02*
X34117Y55114D01*
X20747Y61127D02*
X21178Y61050D01*
X20478Y61175D02*
X20747Y61127D01*
X20209Y61224D02*
X20478Y61175D01*
X9250Y63118D02*
X20209Y61224D01*
X2386Y64232D02*
X9250Y63118D01*
X2386Y64232D02*
X2479Y58142D01*
X3623Y56189D01*
X4547Y53865D01*
X5090Y51439D01*
X5244Y48974D01*
X5090Y47015D02*
X5244Y48974D01*
X4713Y45161D02*
X5090Y47015D01*
X3952Y42974D02*
X4713Y45161D01*
X2823Y40831D02*
X3952Y42974D01*
X1466Y38989D02*
X2823Y40831D01*
X-135Y37371D02*
X1466Y38989D01*
X-1942Y36007D02*
X-135Y37371D01*
X-4143Y34818D02*
X-1942Y36007D01*
X-6489Y33997D02*
X-4143Y34818D01*
X-8919Y33557D02*
X-6489Y33997D01*
X-10883Y33482D02*
X-8919Y33557D01*
X-12768Y33641D02*
X-10883Y33482D01*
X-15029Y34142D02*
X-12768Y33641D01*
X-17288Y35015D02*
X-15029Y34142D01*
X-19276Y36148D02*
X-17288Y35015D01*
X-21069Y37550D02*
X-19276Y36148D01*
X-22634Y39186D02*
X-21069Y37550D01*
X-24071Y41233D02*
X-22634Y39186D01*
X-25159Y43468D02*
X-24071Y41233D01*
X-25879Y45830D02*
X-25159Y43468D01*
X-26182Y47772D02*
X-25879Y45830D01*
X-26244Y49663D02*
X-26182Y47772D01*
X-26244Y49663D02*
X-26009Y51967D01*
X-25406Y54312D01*
X-24511Y56419D01*
X-23328Y58363D01*
X-21885Y60107D01*
X-20019Y61773D01*
X-19000Y62425D01*
X-29500Y75000D02*
X-19000Y62425D01*
X-89532Y83896D02*
X-29500Y75000D01*
X-146700Y83920D02*
X-89532Y83896D01*
X-160300Y72815D02*
X-146700Y83920D01*
X-160300Y72815D02*
X-158848Y71896D01*
X-157465Y70790D01*
X-155758Y68997D01*
X-154345Y66944D01*
X-153268Y64680D01*
X-152614Y62507D01*
X-152278Y60251D01*
X-152281Y57854D02*
X-152278Y60251D01*
X-152627Y55573D02*
X-152281Y57854D01*
X-153099Y53921D02*
X-152627Y55573D01*
X-153771Y52282D02*
X-153099Y53921D01*
X-155010Y50139D02*
X-153771Y52282D01*
X-156581Y48205D02*
X-155010Y50139D01*
X-158449Y46533D02*
X-156581Y48205D01*
X-160350Y45293D02*
X-158449Y46533D01*
X-162420Y44335D02*
X-160350Y45293D01*
X-164720Y43661D02*
X-162420Y44335D01*
X-167007Y43350D02*
X-164720Y43661D01*
X-168725Y43338D02*
X-167007Y43350D01*
X-170486Y43520D02*
X-168725Y43338D01*
X-172892Y44105D02*
X-170486Y43520D01*
X-175191Y45067D02*
X-172892Y44105D01*
X-177321Y46388D02*
X-175191Y45067D01*
X-179047Y47862D02*
X-177321Y46388D01*
X-180550Y49578D02*
X-179047Y47862D01*
X-181844Y51595D02*
X-180550Y49578D01*
X-182787Y53701D02*
X-181844Y51595D01*
X-183284Y55346D02*
X-182787Y53701D01*
X-183605Y57088D02*
X-183284Y55346D01*
X-208956Y57000D02*
X-183605Y57088D01*
M02*
