%FSLAX25Y25*%
%MOIN*%
G70*
G01*
G75*
G04 Layer_Physical_Order=1*
G04 Layer_Color=255*
G04:AMPARAMS|DCode=10|XSize=40mil|YSize=50mil|CornerRadius=0mil|HoleSize=0mil|Usage=FLASHONLY|Rotation=135.000|XOffset=0mil|YOffset=0mil|HoleType=Round|Shape=Rectangle|*
%AMROTATEDRECTD10*
4,1,4,0.03182,0.00354,-0.00354,-0.03182,-0.03182,-0.00354,0.00354,0.03182,0.03182,0.00354,0.0*
%
%ADD10ROTATEDRECTD10*%

G04:AMPARAMS|DCode=11|XSize=40mil|YSize=50mil|CornerRadius=0mil|HoleSize=0mil|Usage=FLASHONLY|Rotation=45.000|XOffset=0mil|YOffset=0mil|HoleType=Round|Shape=Rectangle|*
%AMROTATEDRECTD11*
4,1,4,0.00354,-0.03182,-0.03182,0.00354,-0.00354,0.03182,0.03182,-0.00354,0.00354,-0.03182,0.0*
%
%ADD11ROTATEDRECTD11*%

%ADD12R,0.15748X0.07874*%
%ADD13R,0.04000X0.05000*%
%ADD14R,0.13000X0.17000*%
%ADD15R,0.06000X0.10000*%
G04:AMPARAMS|DCode=16|XSize=60mil|YSize=60mil|CornerRadius=15mil|HoleSize=0mil|Usage=FLASHONLY|Rotation=180.000|XOffset=0mil|YOffset=0mil|HoleType=Round|Shape=RoundedRectangle|*
%AMROUNDEDRECTD16*
21,1,0.06000,0.03000,0,0,180.0*
21,1,0.03000,0.06000,0,0,180.0*
1,1,0.03000,-0.01500,0.01500*
1,1,0.03000,0.01500,0.01500*
1,1,0.03000,0.01500,-0.01500*
1,1,0.03000,-0.01500,-0.01500*
%
%ADD16ROUNDEDRECTD16*%
%ADD17R,0.09843X0.07874*%
%ADD18R,0.12500X0.06000*%
%ADD19R,0.05000X0.04000*%
%ADD20R,0.08000X0.02400*%
%ADD21O,0.08000X0.02400*%
%ADD22R,0.24000X0.08000*%
%ADD23C,0.02500*%
%ADD24C,0.01000*%
%ADD25R,0.04712X0.19969*%
%ADD26C,0.06500*%
%ADD27C,0.09000*%
%ADD28C,0.23622*%
%ADD29C,0.03400*%
%ADD30C,0.03500*%
%ADD31C,0.03200*%
G36*
X-519404Y-367383D02*
X-519337D01*
X-519270Y-367390D01*
X-519190Y-367396D01*
X-519037Y-367416D01*
X-518871Y-367443D01*
X-518717Y-367483D01*
X-518651Y-367510D01*
X-518584Y-367536D01*
X-518578D01*
X-518571Y-367543D01*
X-518531Y-367563D01*
X-518478Y-367596D01*
X-518404Y-367643D01*
X-518331Y-367696D01*
X-518258Y-367769D01*
X-518191Y-367843D01*
X-518131Y-367929D01*
X-518125Y-367942D01*
X-518111Y-367976D01*
X-518098Y-368002D01*
X-518091Y-368036D01*
X-518078Y-368082D01*
X-518065Y-368129D01*
X-518051Y-368182D01*
X-518038Y-368249D01*
X-518032Y-368322D01*
X-518018Y-368402D01*
X-518012Y-368489D01*
X-518005Y-368588D01*
X-517998Y-368695D01*
Y-368808D01*
X-518012Y-369954D01*
Y-369960D01*
Y-369974D01*
Y-370000D01*
Y-370034D01*
Y-370074D01*
Y-370120D01*
X-518005Y-370227D01*
X-517998Y-370347D01*
X-517992Y-370466D01*
X-517978Y-370580D01*
X-517965Y-370680D01*
Y-370693D01*
X-517958Y-370720D01*
X-517945Y-370766D01*
X-517925Y-370826D01*
X-517898Y-370899D01*
X-517872Y-370986D01*
X-517832Y-371079D01*
X-517785Y-371172D01*
X-518757D01*
Y-371166D01*
X-518764Y-371152D01*
X-518771Y-371132D01*
X-518784Y-371099D01*
X-518797Y-371059D01*
X-518817Y-371013D01*
X-518837Y-370953D01*
X-518857Y-370886D01*
Y-370879D01*
Y-370873D01*
X-518871Y-370839D01*
X-518877Y-370799D01*
X-518891Y-370773D01*
X-518904Y-370786D01*
X-518937Y-370813D01*
X-518984Y-370859D01*
X-519051Y-370913D01*
X-519130Y-370973D01*
X-519224Y-371033D01*
X-519324Y-371086D01*
X-519430Y-371139D01*
X-519444Y-371146D01*
X-519477Y-371159D01*
X-519537Y-371179D01*
X-519610Y-371199D01*
X-519703Y-371219D01*
X-519803Y-371239D01*
X-519916Y-371252D01*
X-520036Y-371259D01*
X-520089D01*
X-520129Y-371252D01*
X-520176D01*
X-520236Y-371246D01*
X-520363Y-371219D01*
X-520509Y-371186D01*
X-520662Y-371132D01*
X-520809Y-371053D01*
X-520875Y-371006D01*
X-520942Y-370953D01*
X-520949Y-370946D01*
X-520955Y-370939D01*
X-520969Y-370919D01*
X-520995Y-370899D01*
X-521042Y-370826D01*
X-521102Y-370740D01*
X-521162Y-370626D01*
X-521215Y-370486D01*
X-521255Y-370333D01*
X-521262Y-370253D01*
X-521268Y-370167D01*
Y-370160D01*
Y-370153D01*
Y-370113D01*
X-521262Y-370054D01*
X-521248Y-369980D01*
X-521235Y-369894D01*
X-521208Y-369800D01*
X-521168Y-369701D01*
X-521122Y-369607D01*
X-521115Y-369594D01*
X-521095Y-369567D01*
X-521062Y-369521D01*
X-521009Y-369467D01*
X-520949Y-369408D01*
X-520882Y-369348D01*
X-520795Y-369288D01*
X-520702Y-369234D01*
X-520689Y-369228D01*
X-520649Y-369214D01*
X-520589Y-369188D01*
X-520502Y-369155D01*
X-520389Y-369121D01*
X-520256Y-369081D01*
X-520103Y-369041D01*
X-519923Y-369008D01*
X-519916D01*
X-519890Y-369001D01*
X-519856Y-368995D01*
X-519810Y-368988D01*
X-519757Y-368975D01*
X-519690Y-368961D01*
X-519543Y-368928D01*
X-519383Y-368888D01*
X-519224Y-368848D01*
X-519150Y-368828D01*
X-519084Y-368801D01*
X-519017Y-368781D01*
X-518964Y-368761D01*
Y-368668D01*
Y-368662D01*
Y-368655D01*
Y-368622D01*
X-518971Y-368568D01*
X-518984Y-368508D01*
X-518997Y-368435D01*
X-519024Y-368369D01*
X-519064Y-368309D01*
X-519110Y-368255D01*
X-519117Y-368249D01*
X-519137Y-368235D01*
X-519177Y-368215D01*
X-519230Y-368189D01*
X-519297Y-368169D01*
X-519390Y-368149D01*
X-519503Y-368135D01*
X-519637Y-368129D01*
X-519683D01*
X-519730Y-368135D01*
X-519790Y-368142D01*
X-519856Y-368156D01*
X-519923Y-368176D01*
X-519990Y-368202D01*
X-520049Y-368235D01*
X-520056Y-368242D01*
X-520076Y-368255D01*
X-520103Y-368282D01*
X-520136Y-368322D01*
X-520169Y-368369D01*
X-520209Y-368435D01*
X-520249Y-368508D01*
X-520283Y-368602D01*
X-521168Y-368442D01*
Y-368435D01*
X-521162Y-368415D01*
X-521155Y-368389D01*
X-521142Y-368355D01*
X-521122Y-368309D01*
X-521102Y-368255D01*
X-521048Y-368142D01*
X-520982Y-368009D01*
X-520889Y-367876D01*
X-520782Y-367749D01*
X-520656Y-367643D01*
X-520649D01*
X-520636Y-367629D01*
X-520616Y-367616D01*
X-520589Y-367603D01*
X-520549Y-367583D01*
X-520502Y-367556D01*
X-520442Y-367536D01*
X-520382Y-367510D01*
X-520309Y-367483D01*
X-520229Y-367463D01*
X-520136Y-367436D01*
X-520043Y-367416D01*
X-519936Y-367403D01*
X-519816Y-367390D01*
X-519697Y-367376D01*
X-519457D01*
X-519404Y-367383D01*
D02*
G37*
G36*
X-524312Y-370307D02*
X-521741D01*
Y-371172D01*
X-525344D01*
Y-366091D01*
X-524312D01*
Y-370307D01*
D02*
G37*
G36*
X-536760Y-366917D02*
X-538271D01*
Y-371172D01*
X-539304D01*
Y-366917D01*
X-540822D01*
Y-366051D01*
X-536760D01*
Y-366917D01*
D02*
G37*
G36*
X-529587Y-367383D02*
X-529527Y-367390D01*
X-529467Y-367403D01*
X-529393Y-367416D01*
X-529314Y-367443D01*
X-529227Y-367470D01*
X-529140Y-367503D01*
X-529047Y-367543D01*
X-528954Y-367589D01*
X-528861Y-367649D01*
X-528774Y-367723D01*
X-528681Y-367796D01*
X-528594Y-367889D01*
X-528588Y-367896D01*
X-528574Y-367909D01*
X-528554Y-367942D01*
X-528521Y-367982D01*
X-528488Y-368036D01*
X-528448Y-368095D01*
X-528408Y-368169D01*
X-528368Y-368255D01*
X-528328Y-368349D01*
X-528281Y-368455D01*
X-528248Y-368575D01*
X-528215Y-368695D01*
X-528181Y-368835D01*
X-528161Y-368981D01*
X-528148Y-369134D01*
X-528141Y-369301D01*
Y-369314D01*
Y-369341D01*
Y-369388D01*
X-528148Y-369454D01*
X-528155Y-369534D01*
X-528168Y-369621D01*
X-528181Y-369721D01*
X-528201Y-369834D01*
X-528221Y-369947D01*
X-528255Y-370060D01*
X-528288Y-370187D01*
X-528335Y-370307D01*
X-528388Y-370420D01*
X-528448Y-370540D01*
X-528521Y-370646D01*
X-528601Y-370746D01*
X-528608Y-370753D01*
X-528621Y-370766D01*
X-528648Y-370793D01*
X-528681Y-370826D01*
X-528727Y-370866D01*
X-528781Y-370906D01*
X-528841Y-370953D01*
X-528907Y-370999D01*
X-528987Y-371053D01*
X-529067Y-371099D01*
X-529160Y-371139D01*
X-529254Y-371179D01*
X-529360Y-371212D01*
X-529467Y-371239D01*
X-529580Y-371252D01*
X-529700Y-371259D01*
X-529753D01*
X-529813Y-371252D01*
X-529886Y-371246D01*
X-529973Y-371232D01*
X-530066Y-371206D01*
X-530159Y-371179D01*
X-530259Y-371139D01*
X-530273Y-371132D01*
X-530299Y-371112D01*
X-530352Y-371086D01*
X-530419Y-371039D01*
X-530492Y-370986D01*
X-530579Y-370913D01*
X-530679Y-370826D01*
X-530779Y-370720D01*
Y-372591D01*
X-531758D01*
Y-367463D01*
X-530845D01*
Y-368009D01*
X-530839Y-367996D01*
X-530812Y-367962D01*
X-530772Y-367909D01*
X-530719Y-367849D01*
X-530652Y-367776D01*
X-530572Y-367703D01*
X-530472Y-367623D01*
X-530366Y-367556D01*
X-530359D01*
X-530352Y-367549D01*
X-530313Y-367529D01*
X-530253Y-367496D01*
X-530166Y-367463D01*
X-530066Y-367436D01*
X-529953Y-367403D01*
X-529826Y-367383D01*
X-529693Y-367376D01*
X-529633D01*
X-529587Y-367383D01*
D02*
G37*
G36*
X-507242D02*
X-507162Y-367396D01*
X-507062Y-367423D01*
X-506949Y-367456D01*
X-506836Y-367503D01*
X-506716Y-367563D01*
X-507022Y-368422D01*
X-507036Y-368415D01*
X-507062Y-368395D01*
X-507109Y-368369D01*
X-507169Y-368335D01*
X-507242Y-368309D01*
X-507322Y-368282D01*
X-507402Y-368262D01*
X-507482Y-368255D01*
X-507515D01*
X-507555Y-368262D01*
X-507609Y-368269D01*
X-507662Y-368282D01*
X-507722Y-368309D01*
X-507782Y-368335D01*
X-507842Y-368375D01*
X-507848Y-368382D01*
X-507862Y-368395D01*
X-507888Y-368428D01*
X-507922Y-368468D01*
X-507955Y-368528D01*
X-507995Y-368595D01*
X-508028Y-368682D01*
X-508062Y-368788D01*
Y-368801D01*
X-508068Y-368822D01*
X-508075Y-368848D01*
X-508081Y-368888D01*
X-508088Y-368928D01*
X-508095Y-368988D01*
X-508102Y-369055D01*
X-508108Y-369128D01*
X-508115Y-369221D01*
X-508121Y-369321D01*
X-508128Y-369434D01*
X-508135Y-369561D01*
Y-369701D01*
X-508141Y-369854D01*
Y-370027D01*
Y-371172D01*
X-509120D01*
Y-367463D01*
X-508208D01*
Y-367989D01*
X-508195Y-367982D01*
X-508188Y-367962D01*
X-508168Y-367936D01*
X-508121Y-367869D01*
X-508068Y-367796D01*
X-508002Y-367709D01*
X-507935Y-367629D01*
X-507862Y-367556D01*
X-507789Y-367503D01*
X-507782Y-367496D01*
X-507755Y-367483D01*
X-507715Y-367463D01*
X-507669Y-367436D01*
X-507602Y-367416D01*
X-507535Y-367396D01*
X-507455Y-367383D01*
X-507369Y-367376D01*
X-507309D01*
X-507242Y-367383D01*
D02*
G37*
G36*
X-514995Y-371039D02*
X-515234Y-371685D01*
Y-371692D01*
X-515241Y-371699D01*
X-515254Y-371739D01*
X-515281Y-371798D01*
X-515314Y-371865D01*
X-515347Y-371945D01*
X-515394Y-372025D01*
X-515434Y-372105D01*
X-515481Y-372178D01*
X-515487Y-372185D01*
X-515501Y-372205D01*
X-515527Y-372238D01*
X-515561Y-372278D01*
X-515601Y-372325D01*
X-515647Y-372371D01*
X-515754Y-372458D01*
X-515761Y-372464D01*
X-515780Y-372478D01*
X-515814Y-372498D01*
X-515854Y-372518D01*
X-515907Y-372544D01*
X-515974Y-372571D01*
X-516047Y-372598D01*
X-516127Y-372624D01*
X-516133D01*
X-516167Y-372631D01*
X-516213Y-372644D01*
X-516273Y-372651D01*
X-516347Y-372664D01*
X-516433Y-372678D01*
X-516526Y-372684D01*
X-516673D01*
X-516733Y-372678D01*
X-516799D01*
X-516886Y-372671D01*
X-516979Y-372658D01*
X-517179Y-372624D01*
X-517266Y-371858D01*
X-517252D01*
X-517226Y-371865D01*
X-517186Y-371872D01*
X-517126Y-371878D01*
X-517066Y-371892D01*
X-516993Y-371898D01*
X-516853Y-371905D01*
X-516839D01*
X-516799Y-371898D01*
X-516740Y-371892D01*
X-516660Y-371878D01*
X-516580Y-371852D01*
X-516493Y-371818D01*
X-516413Y-371765D01*
X-516347Y-371699D01*
X-516340Y-371692D01*
X-516320Y-371665D01*
X-516287Y-371619D01*
X-516253Y-371559D01*
X-516213Y-371485D01*
X-516167Y-371399D01*
X-516127Y-371299D01*
X-516093Y-371186D01*
X-517505Y-367463D01*
X-516460D01*
X-515574Y-370100D01*
X-514702Y-367463D01*
X-513683D01*
X-514995Y-371039D01*
D02*
G37*
G36*
X-140122Y82694D02*
X-139931Y82232D01*
X-151096Y71067D01*
X-151428Y70570D01*
X-151544Y69985D01*
Y64915D01*
X-152039Y64842D01*
X-152096Y65033D01*
X-152140Y65115D01*
X-152163Y65206D01*
X-153240Y67470D01*
X-153299Y67549D01*
X-153337Y67638D01*
X-154750Y69691D01*
X-154820Y69758D01*
X-154872Y69840D01*
X-156579Y71633D01*
X-156647Y71681D01*
X-156701Y71745D01*
X-157846Y72662D01*
X-157880Y73161D01*
X-157868Y73173D01*
X-157868D01*
X-157858Y73184D01*
X-157858D01*
X-157664Y73388D01*
X-157895Y73199D01*
D01*
X-146264Y82696D01*
X-140122Y82694D01*
D02*
G37*
G36*
X-87081Y76419D02*
X-86585Y76087D01*
X-86000Y75971D01*
X-67133D01*
X-63146Y71983D01*
X-62650Y71651D01*
X-62064Y71535D01*
X-35698D01*
X-29998Y65835D01*
Y64746D01*
X-30478Y64606D01*
X-31182Y65708D01*
X-31255Y65784D01*
X-31309Y65874D01*
X-32448Y67124D01*
X-32533Y67186D01*
X-32602Y67266D01*
X-33933Y68299D01*
X-34032Y68348D01*
X-34117Y68417D01*
X-35745Y69266D01*
X-35859Y69299D01*
X-35963Y69354D01*
X-37843Y69910D01*
X-37961Y69921D01*
X-38075Y69955D01*
X-39914Y70129D01*
X-39996Y70120D01*
X-40077Y70133D01*
X-40842Y70103D01*
X-40889Y70092D01*
X-40938Y70096D01*
X-41721Y70003D01*
X-41791Y69980D01*
X-41865Y69977D01*
X-43389Y69608D01*
X-43480Y69566D01*
X-43578Y69546D01*
X-45079Y68911D01*
X-45164Y68853D01*
X-45261Y68815D01*
X-46670Y67915D01*
X-46745Y67843D01*
X-46835Y67788D01*
X-48085Y66649D01*
X-48147Y66564D01*
X-48227Y66495D01*
X-49260Y65164D01*
X-49309Y65066D01*
X-49378Y64980D01*
X-50227Y63353D01*
X-50260Y63239D01*
X-50315Y63134D01*
X-50872Y61254D01*
X-50883Y61136D01*
X-50916Y61022D01*
X-51090Y59183D01*
X-51082Y59101D01*
X-51094Y59020D01*
X-51064Y58255D01*
X-51053Y58208D01*
X-51057Y58159D01*
X-50964Y57376D01*
X-50941Y57306D01*
X-50938Y57232D01*
X-50569Y55708D01*
X-50527Y55617D01*
X-50507Y55519D01*
X-49872Y54018D01*
X-49814Y53933D01*
X-49776Y53837D01*
X-48877Y52428D01*
X-48804Y52352D01*
X-48750Y52262D01*
X-47611Y51012D01*
X-47526Y50950D01*
X-47456Y50870D01*
X-46125Y49837D01*
X-46027Y49788D01*
X-45941Y49719D01*
X-44314Y48870D01*
X-44200Y48837D01*
X-44095Y48782D01*
X-42216Y48226D01*
X-42097Y48215D01*
X-41983Y48181D01*
X-40144Y48007D01*
X-40062Y48016D01*
X-39981Y48003D01*
X-39216Y48033D01*
X-39169Y48044D01*
X-39120Y48040D01*
X-38337Y48133D01*
X-38267Y48156D01*
X-38193Y48159D01*
X-36669Y48528D01*
X-36579Y48570D01*
X-36481Y48590D01*
X-34980Y49226D01*
X-34894Y49283D01*
X-34798Y49321D01*
X-33389Y50221D01*
X-33313Y50293D01*
X-33223Y50348D01*
X-32298Y51191D01*
X-31902Y50887D01*
X-32179Y50218D01*
X-32274Y49500D01*
X-32179Y48782D01*
X-31902Y48113D01*
X-31461Y47539D01*
X-30887Y47098D01*
X-30218Y46821D01*
X-29500Y46726D01*
X-28782Y46821D01*
X-28113Y47098D01*
X-27790Y47346D01*
X-27325Y47160D01*
X-27088Y45641D01*
X-27058Y45560D01*
X-27050Y45474D01*
X-26330Y43111D01*
X-26284Y43025D01*
X-26259Y42932D01*
X-25171Y40697D01*
X-25112Y40620D01*
X-25073Y40530D01*
X-23636Y38483D01*
X-23569Y38419D01*
X-23519Y38340D01*
X-21954Y36704D01*
X-21881Y36653D01*
X-21823Y36586D01*
X-20029Y35184D01*
X-19950Y35144D01*
X-19882Y35085D01*
X-17894Y33952D01*
X-17807Y33923D01*
X-17729Y33874D01*
X-15470Y33001D01*
X-15378Y32985D01*
X-15294Y32948D01*
X-13033Y32447D01*
X-12950Y32445D01*
X-12871Y32422D01*
X-10986Y32263D01*
X-10911Y32271D01*
X-10836Y32260D01*
X-8872Y32335D01*
X-8788Y32355D01*
X-8701Y32353D01*
X-6271Y32793D01*
X-6180Y32829D01*
X-6084Y32842D01*
X-3739Y33664D01*
X-3655Y33713D01*
X-3561Y33742D01*
X-1361Y34930D01*
X-1289Y34990D01*
X-1205Y35030D01*
X602Y36394D01*
X661Y36461D01*
X735Y36511D01*
X2335Y38129D01*
X2385Y38203D01*
X2451Y38263D01*
X3808Y40106D01*
X3847Y40189D01*
X3905Y40261D01*
X5035Y42403D01*
X5061Y42492D01*
X5108Y42572D01*
X5869Y44759D01*
X5880Y44841D01*
X5912Y44917D01*
X6289Y46771D01*
X6290Y46846D01*
X6310Y46919D01*
X6464Y48878D01*
X6454Y48965D01*
X6465Y49051D01*
X6311Y51516D01*
X6286Y51609D01*
X6284Y51706D01*
X5742Y54132D01*
X5702Y54221D01*
X5684Y54317D01*
X4760Y56641D01*
X4709Y56719D01*
X4679Y56807D01*
X3697Y58483D01*
X3638Y62401D01*
X4016Y62728D01*
X9048Y61911D01*
X19997Y60019D01*
X20262Y59971D01*
X20262D01*
X20531Y59923D01*
X20531D01*
X20531Y59923D01*
X20809Y59873D01*
X33222Y54179D01*
X34148Y52371D01*
X43777Y25598D01*
Y-23096D01*
X34303Y-51975D01*
X33303Y-54006D01*
X20805Y-59848D01*
X20693Y-59868D01*
X20693Y-59868D01*
X20693D01*
X20424Y-59916D01*
X20424D01*
X19995Y-59993D01*
X13158Y-61192D01*
X7263Y-62177D01*
X4840Y-56388D01*
X5523Y-54779D01*
X5542Y-54692D01*
X5581Y-54612D01*
X6160Y-52411D01*
X6166Y-52322D01*
X6193Y-52237D01*
X6450Y-49963D01*
X6442Y-49871D01*
X6457Y-49780D01*
X6367Y-47360D01*
X6345Y-47270D01*
X6346Y-47177D01*
X5914Y-44902D01*
X5883Y-44826D01*
X5872Y-44744D01*
X5275Y-42949D01*
X5237Y-42883D01*
X5219Y-42810D01*
X4374Y-41035D01*
X4323Y-40966D01*
X4290Y-40885D01*
X2926Y-38826D01*
X2858Y-38757D01*
X2807Y-38674D01*
X1127Y-36843D01*
X1048Y-36785D01*
X985Y-36711D01*
X-975Y-35158D01*
X-1058Y-35116D01*
X-1129Y-35055D01*
X-3095Y-33933D01*
X-3180Y-33905D01*
X-3255Y-33857D01*
X-5373Y-33025D01*
X-5461Y-33009D01*
X-5542Y-32972D01*
X-7771Y-32452D01*
X-7863Y-32449D01*
X-7952Y-32424D01*
X-10366Y-32232D01*
X-10458Y-32243D01*
X-10550Y-32231D01*
X-12860Y-32396D01*
X-12939Y-32418D01*
X-13022Y-32419D01*
X-14874Y-32803D01*
X-14944Y-32833D01*
X-15019Y-32843D01*
X-16880Y-33475D01*
X-16955Y-33518D01*
X-17039Y-33541D01*
X-19242Y-34656D01*
X-19319Y-34716D01*
X-19407Y-34756D01*
X-21421Y-36212D01*
X-21488Y-36284D01*
X-21569Y-36338D01*
X-23339Y-38104D01*
X-23391Y-38182D01*
X-23460Y-38245D01*
X-24803Y-40067D01*
X-24841Y-40148D01*
X-24897Y-40216D01*
X-25970Y-42224D01*
X-25996Y-42309D01*
X-26042Y-42386D01*
X-26818Y-44539D01*
X-26831Y-44630D01*
X-26866Y-44715D01*
X-27338Y-47091D01*
X-27338Y-47183D01*
X-27360Y-47273D01*
X-27466Y-49587D01*
X-27453Y-49668D01*
X-27462Y-49750D01*
X-27296Y-51635D01*
X-27274Y-51707D01*
X-27273Y-51783D01*
X-26862Y-53705D01*
X-26828Y-53784D01*
X-26814Y-53870D01*
X-25964Y-56189D01*
X-25913Y-56271D01*
X-25883Y-56364D01*
X-24672Y-58534D01*
X-24608Y-58608D01*
X-24564Y-58695D01*
X-23016Y-60659D01*
X-22945Y-60720D01*
X-22890Y-60795D01*
X-21236Y-62341D01*
X-21161Y-62388D01*
X-21099Y-62452D01*
X-20626Y-62781D01*
X-20558Y-63276D01*
X-30134Y-74847D01*
X-89733Y-82432D01*
X-146368Y-82476D01*
X-157887Y-73168D01*
D01*
X-157729Y-73295D01*
X-157881Y-73136D01*
X-157847Y-72637D01*
X-156702Y-71720D01*
X-156648Y-71656D01*
X-156580Y-71608D01*
X-154873Y-69815D01*
X-154821Y-69733D01*
X-154751Y-69665D01*
X-153338Y-67613D01*
X-153299Y-67524D01*
X-153241Y-67445D01*
X-152163Y-65181D01*
X-152140Y-65091D01*
X-152097Y-65008D01*
X-151443Y-62835D01*
X-151434Y-62747D01*
X-151404Y-62663D01*
X-151068Y-60406D01*
X-151073Y-60315D01*
X-151055Y-60225D01*
X-151057Y-57828D01*
X-151075Y-57738D01*
X-151071Y-57646D01*
X-151417Y-55365D01*
X-151444Y-55290D01*
X-151450Y-55212D01*
X-151922Y-53559D01*
X-151953Y-53499D01*
X-151967Y-53431D01*
X-152639Y-51793D01*
X-152685Y-51723D01*
X-152711Y-51645D01*
X-153950Y-49501D01*
X-154015Y-49428D01*
X-154060Y-49342D01*
X-155630Y-47408D01*
X-155706Y-47346D01*
X-155764Y-47267D01*
X-157633Y-45596D01*
X-157713Y-45548D01*
X-157780Y-45483D01*
X-159681Y-44243D01*
X-159763Y-44210D01*
X-159835Y-44157D01*
X-161906Y-43199D01*
X-161995Y-43177D01*
X-162076Y-43135D01*
X-164376Y-42462D01*
X-164467Y-42454D01*
X-164554Y-42423D01*
X-166841Y-42112D01*
X-166920Y-42117D01*
X-166997Y-42101D01*
X-168715Y-42088D01*
X-168783Y-42101D01*
X-168851Y-42095D01*
X-170612Y-42278D01*
X-170692Y-42302D01*
X-170775Y-42306D01*
X-173181Y-42890D01*
X-173269Y-42931D01*
X-173364Y-42950D01*
X-175663Y-43912D01*
X-175744Y-43967D01*
X-175835Y-44001D01*
X-177966Y-45323D01*
X-178034Y-45386D01*
X-178116Y-45432D01*
X-179841Y-46906D01*
X-179896Y-46976D01*
X-179967Y-47030D01*
X-181470Y-48746D01*
X-181516Y-48825D01*
X-181579Y-48891D01*
X-182874Y-50908D01*
X-182907Y-50994D01*
X-182960Y-51069D01*
X-183904Y-53175D01*
X-183922Y-53252D01*
X-183959Y-53322D01*
X-184455Y-54967D01*
X-184462Y-55035D01*
X-184487Y-55098D01*
X-184622Y-55828D01*
X-208378Y-55581D01*
X-209800Y-53152D01*
X-211267Y-50024D01*
X-212557Y-46410D01*
X-213475Y-42693D01*
X-213978Y-39264D01*
X-214174Y-35394D01*
Y35435D01*
X-214122Y37405D01*
X-213970Y39347D01*
X-213453Y42794D01*
X-212521Y46537D01*
X-212367Y46967D01*
X-211874Y46881D01*
Y37063D01*
X-197807D01*
X-190622Y29878D01*
X-189878Y29381D01*
X-189431Y29292D01*
X-189480Y28794D01*
X-193772D01*
X-194126Y29148D01*
Y30937D01*
X-211874D01*
Y21063D01*
X-205294D01*
Y7500D01*
X-212750D01*
Y-500D01*
X-198250D01*
Y1206D01*
X-197450D01*
X-177421Y-18823D01*
Y-26352D01*
X-177421Y-26352D01*
X-177421D01*
X-177421Y-26437D01*
X-177690Y-26706D01*
X-199579D01*
Y-19799D01*
X-203206D01*
Y-19000D01*
X-198250D01*
Y-11000D01*
X-212750D01*
Y-19000D01*
X-207794D01*
Y-19799D01*
X-211421D01*
Y-29673D01*
X-203807D01*
X-202858Y-30622D01*
X-202114Y-31119D01*
X-201236Y-31294D01*
X-177454D01*
X-177421Y-31327D01*
X-177421Y-31648D01*
X-177421Y-31648D01*
X-177421D01*
Y-37206D01*
X-181250D01*
Y-35000D01*
X-195750D01*
Y-37206D01*
X-199579D01*
Y-34563D01*
X-211421D01*
Y-44437D01*
X-199579D01*
Y-41794D01*
X-195750D01*
Y-43000D01*
X-181250D01*
Y-41794D01*
X-174736D01*
X-173858Y-41620D01*
X-173232Y-41201D01*
X-165579D01*
Y-31648D01*
X-165579Y-31648D01*
D01*
D01*
X-165579Y-31327D01*
D01*
X-165546Y-31294D01*
X-162450D01*
X-159921Y-33823D01*
Y-41437D01*
X-148079D01*
Y-31563D01*
X-155693D01*
X-159878Y-27378D01*
X-160622Y-26880D01*
X-161500Y-26706D01*
X-165310D01*
X-165579Y-26437D01*
X-165579Y-26352D01*
X-165579Y-26352D01*
X-165579D01*
Y-16563D01*
X-173193D01*
X-194878Y5122D01*
X-195622Y5619D01*
X-196500Y5794D01*
X-198250D01*
Y7500D01*
X-200706D01*
Y21063D01*
X-194126D01*
Y24206D01*
X-184500Y24206D01*
X-184244Y24257D01*
X-181700D01*
X-180842Y24428D01*
X-180114Y24914D01*
X-179628Y25642D01*
X-179457Y26500D01*
X-179628Y27358D01*
X-180114Y28086D01*
X-180842Y28572D01*
X-181525Y28708D01*
X-181476Y29206D01*
X-176450D01*
X-174324Y27080D01*
Y14028D01*
X-174150Y13150D01*
X-173652Y12406D01*
X-168538Y7292D01*
X-168712Y7065D01*
X-169141Y6031D01*
X-169287Y4921D01*
X-169141Y3812D01*
X-168712Y2778D01*
X-168031Y1890D01*
X-167143Y1209D01*
X-166110Y781D01*
X-165000Y635D01*
X-163891Y781D01*
X-162857Y1209D01*
X-161969Y1890D01*
X-161288Y2778D01*
X-160859Y3812D01*
X-160713Y4921D01*
X-160859Y6031D01*
X-161288Y7065D01*
X-161969Y7952D01*
X-162857Y8634D01*
X-163769Y9012D01*
X-169736Y14979D01*
Y28030D01*
X-169911Y28908D01*
X-170408Y29652D01*
X-173878Y33122D01*
X-173971Y33184D01*
Y34866D01*
X-170367Y38471D01*
X-169019D01*
X-168798Y38022D01*
X-168902Y37887D01*
X-169179Y37218D01*
X-169274Y36500D01*
X-169179Y35782D01*
X-168902Y35113D01*
X-168461Y34539D01*
X-167887Y34098D01*
X-167218Y33821D01*
X-166726Y33756D01*
X-166612Y33269D01*
X-166886Y33086D01*
X-167372Y32358D01*
X-167543Y31500D01*
X-167372Y30642D01*
X-166886Y29914D01*
X-166158Y29428D01*
X-165300Y29257D01*
X-159700D01*
X-158842Y29428D01*
X-158114Y29914D01*
X-157628Y30642D01*
X-157457Y31500D01*
X-157628Y32358D01*
X-158114Y33086D01*
X-158842Y33572D01*
X-159700Y33743D01*
X-164798D01*
X-164834Y33850D01*
X-164543Y34257D01*
X-159700D01*
X-158842Y34428D01*
X-158114Y34914D01*
X-157628Y35642D01*
X-157457Y36500D01*
X-157628Y37358D01*
X-158114Y38086D01*
X-158265Y38187D01*
Y38687D01*
X-157919Y38919D01*
X-154962Y41875D01*
X-154500Y41684D01*
Y23500D01*
X-149294D01*
Y19950D01*
X-151122Y18122D01*
X-151620Y17378D01*
X-151794Y16500D01*
Y8328D01*
X-152283Y7952D01*
X-152964Y7065D01*
X-153393Y6031D01*
X-153539Y4921D01*
X-153393Y3812D01*
X-152964Y2778D01*
X-152283Y1890D01*
X-151395Y1209D01*
X-150361Y781D01*
X-149252Y635D01*
X-148143Y781D01*
X-147109Y1209D01*
X-146221Y1890D01*
X-145540Y2778D01*
X-145111Y3812D01*
X-144965Y4921D01*
X-145111Y6031D01*
X-145540Y7065D01*
X-146221Y7952D01*
X-147109Y8634D01*
X-147206Y8674D01*
Y15550D01*
X-145378Y17378D01*
X-144880Y18122D01*
X-144706Y19000D01*
Y23500D01*
X-139500D01*
Y42500D01*
X-153684D01*
X-153875Y42962D01*
X-148933Y47904D01*
X-148602Y48400D01*
X-148582Y48497D01*
X-148485Y48985D01*
Y53390D01*
X-148005Y53530D01*
X-147302Y52428D01*
X-147229Y52352D01*
X-147175Y52262D01*
X-146036Y51012D01*
X-145951Y50950D01*
X-145882Y50870D01*
X-144550Y49837D01*
X-144452Y49788D01*
X-144366Y49719D01*
X-142739Y48870D01*
X-142625Y48837D01*
X-142520Y48782D01*
X-140641Y48226D01*
X-140522Y48215D01*
X-140408Y48181D01*
X-138569Y48007D01*
X-138488Y48016D01*
X-138407Y48003D01*
X-137642Y48033D01*
X-137594Y48044D01*
X-137545Y48040D01*
X-136762Y48133D01*
X-136692Y48156D01*
X-136618Y48159D01*
X-135094Y48528D01*
X-135004Y48570D01*
X-134906Y48590D01*
X-133405Y49226D01*
X-133319Y49283D01*
X-133223Y49321D01*
X-131814Y50221D01*
X-131738Y50293D01*
X-131648Y50348D01*
X-130399Y51487D01*
X-130336Y51572D01*
X-130257Y51641D01*
X-129224Y52972D01*
X-129174Y53070D01*
X-129105Y53156D01*
X-128257Y54783D01*
X-128223Y54897D01*
X-128168Y55002D01*
X-127612Y56882D01*
X-127601Y57000D01*
X-127567Y57114D01*
X-127394Y58953D01*
X-127402Y59035D01*
X-127389Y59116D01*
X-127419Y59881D01*
X-127430Y59928D01*
X-127427Y59977D01*
X-127519Y60760D01*
X-127542Y60830D01*
X-127545Y60904D01*
X-127915Y62428D01*
X-127956Y62519D01*
X-127977Y62617D01*
X-128612Y64118D01*
X-128670Y64203D01*
X-128707Y64299D01*
X-129607Y65708D01*
X-129680Y65784D01*
X-129734Y65874D01*
X-130873Y67124D01*
X-130958Y67186D01*
X-131027Y67266D01*
X-132358Y68299D01*
X-132457Y68348D01*
X-132543Y68417D01*
X-134170Y69266D01*
X-134284Y69299D01*
X-134389Y69354D01*
X-136268Y69910D01*
X-136387Y69921D01*
X-136501Y69955D01*
X-138340Y70129D01*
X-138421Y70120D01*
X-138502Y70133D01*
X-139267Y70103D01*
X-139315Y70092D01*
X-139363Y70096D01*
X-140146Y70003D01*
X-140217Y69980D01*
X-140291Y69977D01*
X-141814Y69608D01*
X-141905Y69566D01*
X-142003Y69546D01*
X-143504Y68911D01*
X-143589Y68853D01*
X-143686Y68815D01*
X-145095Y67915D01*
X-145170Y67843D01*
X-145261Y67788D01*
X-146510Y66649D01*
X-146572Y66564D01*
X-146652Y66495D01*
X-147685Y65164D01*
X-147734Y65066D01*
X-147803Y64980D01*
X-148000Y64603D01*
X-148485Y64722D01*
Y69352D01*
X-137366Y80471D01*
X-91133D01*
X-87081Y76419D01*
D02*
G37*
G36*
X-203854Y55794D02*
X-203854D01*
X-203763Y55703D01*
X-203500Y55441D01*
X-203500D01*
D01*
Y48500D01*
X-202794D01*
Y46937D01*
X-211874D01*
X-211874Y46937D01*
X-211874Y46937D01*
X-211987Y46978D01*
X-212201Y47430D01*
X-211233Y50129D01*
X-209768Y53237D01*
X-208272Y55779D01*
X-203854Y55794D01*
Y55794D01*
D02*
G37*
G36*
X-511565Y-367383D02*
X-511505D01*
X-511438Y-367396D01*
X-511358Y-367403D01*
X-511272Y-367423D01*
X-511172Y-367443D01*
X-511072Y-367476D01*
X-510965Y-367510D01*
X-510852Y-367556D01*
X-510745Y-367609D01*
X-510639Y-367669D01*
X-510532Y-367749D01*
X-510432Y-367829D01*
X-510339Y-367929D01*
X-510333Y-367936D01*
X-510319Y-367956D01*
X-510293Y-367989D01*
X-510266Y-368029D01*
X-510226Y-368089D01*
X-510186Y-368162D01*
X-510146Y-368242D01*
X-510100Y-368342D01*
X-510059Y-368455D01*
X-510013Y-368575D01*
X-509980Y-368715D01*
X-509940Y-368861D01*
X-509913Y-369028D01*
X-509893Y-369208D01*
X-509880Y-369394D01*
Y-369601D01*
X-512337D01*
Y-369607D01*
Y-369621D01*
Y-369641D01*
X-512331Y-369674D01*
X-512324Y-369754D01*
X-512304Y-369854D01*
X-512277Y-369960D01*
X-512237Y-370074D01*
X-512177Y-370187D01*
X-512104Y-370287D01*
X-512091Y-370300D01*
X-512064Y-370327D01*
X-512018Y-370360D01*
X-511951Y-370407D01*
X-511864Y-370453D01*
X-511771Y-370486D01*
X-511658Y-370513D01*
X-511538Y-370526D01*
X-511498D01*
X-511458Y-370520D01*
X-511405Y-370513D01*
X-511345Y-370500D01*
X-511285Y-370473D01*
X-511218Y-370446D01*
X-511158Y-370407D01*
X-511152Y-370400D01*
X-511132Y-370380D01*
X-511105Y-370353D01*
X-511065Y-370307D01*
X-511025Y-370247D01*
X-510985Y-370180D01*
X-510945Y-370093D01*
X-510912Y-369994D01*
X-509933Y-370160D01*
Y-370167D01*
X-509940Y-370187D01*
X-509953Y-370213D01*
X-509966Y-370247D01*
X-509993Y-370293D01*
X-510013Y-370347D01*
X-510079Y-370466D01*
X-510166Y-370600D01*
X-510266Y-370733D01*
X-510393Y-370866D01*
X-510532Y-370979D01*
X-510539D01*
X-510552Y-370993D01*
X-510572Y-371006D01*
X-510606Y-371026D01*
X-510646Y-371046D01*
X-510692Y-371066D01*
X-510745Y-371093D01*
X-510812Y-371119D01*
X-510885Y-371146D01*
X-510959Y-371172D01*
X-511132Y-371212D01*
X-511332Y-371246D01*
X-511551Y-371259D01*
X-511591D01*
X-511645Y-371252D01*
X-511711Y-371246D01*
X-511791Y-371239D01*
X-511878Y-371226D01*
X-511984Y-371206D01*
X-512091Y-371179D01*
X-512204Y-371146D01*
X-512324Y-371106D01*
X-512444Y-371053D01*
X-512557Y-370993D01*
X-512677Y-370919D01*
X-512783Y-370833D01*
X-512883Y-370740D01*
X-512977Y-370626D01*
X-512983Y-370620D01*
X-512990Y-370600D01*
X-513010Y-370573D01*
X-513036Y-370533D01*
X-513063Y-370486D01*
X-513090Y-370427D01*
X-513123Y-370353D01*
X-513156Y-370273D01*
X-513196Y-370187D01*
X-513230Y-370093D01*
X-513256Y-369987D01*
X-513283Y-369874D01*
X-513310Y-369754D01*
X-513330Y-369627D01*
X-513336Y-369488D01*
X-513343Y-369348D01*
Y-369334D01*
Y-369308D01*
X-513336Y-369261D01*
Y-369194D01*
X-513330Y-369121D01*
X-513316Y-369028D01*
X-513303Y-368928D01*
X-513283Y-368822D01*
X-513256Y-368708D01*
X-513223Y-368588D01*
X-513190Y-368468D01*
X-513143Y-368349D01*
X-513083Y-368229D01*
X-513023Y-368115D01*
X-512950Y-368002D01*
X-512863Y-367902D01*
X-512857Y-367896D01*
X-512843Y-367882D01*
X-512817Y-367856D01*
X-512777Y-367823D01*
X-512730Y-367782D01*
X-512670Y-367736D01*
X-512604Y-367689D01*
X-512530Y-367636D01*
X-512444Y-367589D01*
X-512357Y-367543D01*
X-512257Y-367496D01*
X-512144Y-367456D01*
X-512031Y-367423D01*
X-511911Y-367396D01*
X-511778Y-367383D01*
X-511645Y-367376D01*
X-511605D01*
X-511565Y-367383D01*
D02*
G37*
G36*
X-534342D02*
X-534282D01*
X-534209Y-367396D01*
X-534129Y-367403D01*
X-534035Y-367423D01*
X-533929Y-367443D01*
X-533822Y-367476D01*
X-533709Y-367510D01*
X-533596Y-367556D01*
X-533483Y-367609D01*
X-533363Y-367669D01*
X-533250Y-367749D01*
X-533143Y-367829D01*
X-533037Y-367929D01*
X-533030Y-367936D01*
X-533010Y-367956D01*
X-532983Y-367982D01*
X-532950Y-368029D01*
X-532910Y-368082D01*
X-532863Y-368149D01*
X-532817Y-368222D01*
X-532763Y-368309D01*
X-532717Y-368402D01*
X-532670Y-368508D01*
X-532624Y-368622D01*
X-532584Y-368742D01*
X-532544Y-368868D01*
X-532517Y-369008D01*
X-532504Y-369155D01*
X-532497Y-369308D01*
Y-369314D01*
Y-369348D01*
X-532504Y-369388D01*
Y-369447D01*
X-532510Y-369521D01*
X-532524Y-369607D01*
X-532544Y-369701D01*
X-532564Y-369800D01*
X-532597Y-369907D01*
X-532630Y-370020D01*
X-532677Y-370133D01*
X-532730Y-370253D01*
X-532790Y-370373D01*
X-532863Y-370486D01*
X-532950Y-370600D01*
X-533043Y-370706D01*
X-533050Y-370713D01*
X-533070Y-370733D01*
X-533097Y-370760D01*
X-533143Y-370793D01*
X-533196Y-370833D01*
X-533256Y-370879D01*
X-533336Y-370933D01*
X-533416Y-370979D01*
X-533516Y-371033D01*
X-533616Y-371086D01*
X-533729Y-371132D01*
X-533849Y-371172D01*
X-533976Y-371206D01*
X-534115Y-371232D01*
X-534255Y-371252D01*
X-534409Y-371259D01*
X-534462D01*
X-534495Y-371252D01*
X-534542D01*
X-534595Y-371246D01*
X-534655Y-371239D01*
X-534722Y-371232D01*
X-534875Y-371206D01*
X-535035Y-371166D01*
X-535214Y-371106D01*
X-535388Y-371033D01*
X-535394D01*
X-535407Y-371019D01*
X-535434Y-371006D01*
X-535461Y-370986D01*
X-535501Y-370966D01*
X-535547Y-370933D01*
X-535647Y-370859D01*
X-535760Y-370766D01*
X-535874Y-370646D01*
X-535987Y-370513D01*
X-536087Y-370353D01*
Y-370347D01*
X-536100Y-370333D01*
X-536107Y-370307D01*
X-536127Y-370273D01*
X-536140Y-370227D01*
X-536160Y-370180D01*
X-536187Y-370120D01*
X-536207Y-370047D01*
X-536227Y-369974D01*
X-536253Y-369894D01*
X-536273Y-369800D01*
X-536287Y-369707D01*
X-536313Y-369501D01*
X-536327Y-369268D01*
Y-369261D01*
Y-369248D01*
Y-369221D01*
X-536320Y-369181D01*
Y-369141D01*
X-536313Y-369088D01*
X-536307Y-369028D01*
X-536293Y-368968D01*
X-536267Y-368822D01*
X-536227Y-368662D01*
X-536167Y-368495D01*
X-536087Y-368322D01*
Y-368315D01*
X-536073Y-368302D01*
X-536060Y-368275D01*
X-536040Y-368249D01*
X-536020Y-368209D01*
X-535987Y-368162D01*
X-535914Y-368062D01*
X-535814Y-367949D01*
X-535701Y-367836D01*
X-535561Y-367723D01*
X-535407Y-367623D01*
X-535401D01*
X-535388Y-367609D01*
X-535361Y-367603D01*
X-535327Y-367583D01*
X-535288Y-367563D01*
X-535234Y-367543D01*
X-535181Y-367523D01*
X-535114Y-367496D01*
X-534968Y-367456D01*
X-534801Y-367416D01*
X-534622Y-367390D01*
X-534422Y-367376D01*
X-534382D01*
X-534342Y-367383D01*
D02*
G37*
G36*
X-184487Y55124D02*
X-184462Y55061D01*
X-184455Y54993D01*
X-183959Y53348D01*
X-183922Y53278D01*
X-183904Y53201D01*
X-182961Y51095D01*
X-182907Y51020D01*
X-182874Y50934D01*
X-181579Y48917D01*
X-181516Y48851D01*
X-181470Y48772D01*
X-179967Y47056D01*
X-179896Y47002D01*
X-179841Y46932D01*
X-178116Y45458D01*
X-178034Y45412D01*
X-177966Y45348D01*
X-175835Y44027D01*
X-175744Y43992D01*
X-175663Y43938D01*
X-173364Y42976D01*
X-173269Y42957D01*
X-173181Y42916D01*
X-170775Y42331D01*
X-170692Y42328D01*
X-170613Y42303D01*
X-168851Y42121D01*
X-168783Y42127D01*
X-168716Y42114D01*
X-166998Y42127D01*
X-166920Y42143D01*
X-166842Y42138D01*
X-164555Y42449D01*
X-164468Y42479D01*
X-164376Y42487D01*
X-162076Y43161D01*
X-161995Y43203D01*
X-161906Y43224D01*
X-159836Y44183D01*
X-159764Y44235D01*
X-159681Y44268D01*
X-157781Y45508D01*
X-157714Y45573D01*
X-157633Y45621D01*
X-155765Y47293D01*
X-155706Y47371D01*
X-155631Y47433D01*
X-154060Y49367D01*
X-154015Y49453D01*
X-153951Y49526D01*
X-152712Y51670D01*
X-152685Y51749D01*
X-152639Y51818D01*
X-152035Y53291D01*
X-151544Y53194D01*
Y49619D01*
X-159634Y41529D01*
X-171000D01*
X-171585Y41413D01*
X-172081Y41082D01*
X-176319Y36844D01*
X-176793Y37004D01*
X-176821Y37218D01*
X-177098Y37887D01*
X-177539Y38461D01*
X-178113Y38902D01*
X-178782Y39179D01*
X-179500Y39274D01*
X-180218Y39179D01*
X-180887Y38902D01*
X-181150Y38700D01*
X-189500D01*
Y35898D01*
X-189962Y35706D01*
X-194126Y39870D01*
Y41206D01*
X-193000D01*
Y40000D01*
X-187000D01*
Y47000D01*
X-193000D01*
Y45794D01*
X-194126D01*
Y46937D01*
X-198206D01*
Y48500D01*
X-197500D01*
Y55500D01*
X-197500D01*
Y55816D01*
X-184623Y55861D01*
X-184487Y55124D01*
D02*
G37*
%LPC*%
G36*
X-518964Y-369401D02*
X-518971D01*
X-518997Y-369414D01*
X-519044Y-369427D01*
X-519110Y-369447D01*
X-519197Y-369467D01*
X-519304Y-369494D01*
X-519423Y-369521D01*
X-519570Y-369554D01*
X-519577D01*
X-519590Y-369561D01*
X-519610D01*
X-519637Y-369567D01*
X-519703Y-369587D01*
X-519790Y-369607D01*
X-519876Y-369634D01*
X-519963Y-369661D01*
X-520043Y-369687D01*
X-520103Y-369721D01*
X-520110Y-369727D01*
X-520129Y-369747D01*
X-520163Y-369774D01*
X-520196Y-369814D01*
X-520229Y-369867D01*
X-520263Y-369927D01*
X-520283Y-369994D01*
X-520289Y-370067D01*
Y-370074D01*
Y-370100D01*
X-520283Y-370140D01*
X-520269Y-370187D01*
X-520249Y-370247D01*
X-520223Y-370300D01*
X-520189Y-370360D01*
X-520136Y-370420D01*
X-520129Y-370427D01*
X-520110Y-370440D01*
X-520076Y-370466D01*
X-520029Y-370493D01*
X-519976Y-370520D01*
X-519910Y-370546D01*
X-519836Y-370560D01*
X-519750Y-370566D01*
X-519703D01*
X-519650Y-370560D01*
X-519583Y-370546D01*
X-519510Y-370526D01*
X-519423Y-370493D01*
X-519330Y-370453D01*
X-519237Y-370393D01*
X-519230Y-370387D01*
X-519210Y-370373D01*
X-519177Y-370340D01*
X-519144Y-370307D01*
X-519104Y-370260D01*
X-519064Y-370207D01*
X-519031Y-370140D01*
X-519004Y-370074D01*
Y-370067D01*
X-518997Y-370047D01*
X-518991Y-370014D01*
X-518984Y-369967D01*
X-518977Y-369900D01*
X-518971Y-369820D01*
X-518964Y-369721D01*
Y-369601D01*
Y-369401D01*
D02*
G37*
G36*
X-529900Y-368149D02*
X-529993D01*
X-530020Y-368156D01*
X-530086Y-368162D01*
X-530166Y-368182D01*
X-530266Y-368215D01*
X-530366Y-368269D01*
X-530466Y-368335D01*
X-530559Y-368428D01*
X-530566Y-368442D01*
X-530592Y-368482D01*
X-530632Y-368548D01*
X-530672Y-368635D01*
X-530719Y-368755D01*
X-530752Y-368895D01*
X-530779Y-369061D01*
X-530792Y-369254D01*
Y-369261D01*
Y-369281D01*
Y-369314D01*
X-530785Y-369354D01*
Y-369408D01*
X-530779Y-369467D01*
X-530759Y-369607D01*
X-530732Y-369754D01*
X-530686Y-369907D01*
X-530626Y-370054D01*
X-530586Y-370120D01*
X-530546Y-370180D01*
X-530532Y-370193D01*
X-530499Y-370227D01*
X-530446Y-370273D01*
X-530379Y-370327D01*
X-530293Y-370387D01*
X-530186Y-370433D01*
X-530073Y-370466D01*
X-530013Y-370473D01*
X-529946Y-370480D01*
X-529933D01*
X-529886Y-370473D01*
X-529826Y-370466D01*
X-529746Y-370446D01*
X-529660Y-370413D01*
X-529567Y-370367D01*
X-529467Y-370300D01*
X-529380Y-370207D01*
X-529367Y-370193D01*
X-529360Y-370180D01*
X-529340Y-370153D01*
X-529327Y-370127D01*
X-529307Y-370087D01*
X-529287Y-370040D01*
X-529260Y-369994D01*
X-529240Y-369934D01*
X-529220Y-369867D01*
X-529200Y-369794D01*
X-529180Y-369714D01*
X-529167Y-369621D01*
X-529154Y-369527D01*
X-529147Y-369421D01*
Y-369308D01*
Y-369301D01*
Y-369281D01*
Y-369254D01*
X-529154Y-369214D01*
Y-369161D01*
X-529160Y-369108D01*
X-529174Y-368981D01*
X-529207Y-368835D01*
X-529247Y-368695D01*
X-529307Y-368555D01*
X-529347Y-368495D01*
X-529387Y-368435D01*
Y-368428D01*
X-529400Y-368422D01*
X-529427Y-368389D01*
X-529480Y-368342D01*
X-529547Y-368289D01*
X-529627Y-368242D01*
X-529727Y-368195D01*
X-529840Y-368162D01*
X-529900Y-368149D01*
D02*
G37*
G36*
X-534342Y-368176D02*
X-534455D01*
X-534482Y-368182D01*
X-534548Y-368189D01*
X-534642Y-368215D01*
X-534741Y-368249D01*
X-534848Y-368302D01*
X-534961Y-368375D01*
X-535008Y-368422D01*
X-535061Y-368475D01*
X-535075Y-368489D01*
X-535088Y-368508D01*
X-535101Y-368528D01*
X-535121Y-368562D01*
X-535141Y-368595D01*
X-535188Y-368688D01*
X-535241Y-368808D01*
X-535281Y-368955D01*
X-535308Y-369128D01*
X-535321Y-369321D01*
Y-369328D01*
Y-369348D01*
Y-369374D01*
X-535314Y-369414D01*
Y-369461D01*
X-535308Y-369514D01*
X-535288Y-369634D01*
X-535254Y-369767D01*
X-535214Y-369914D01*
X-535148Y-370047D01*
X-535061Y-370167D01*
X-535048Y-370180D01*
X-535014Y-370213D01*
X-534961Y-370260D01*
X-534881Y-370313D01*
X-534788Y-370367D01*
X-534682Y-370413D01*
X-534555Y-370446D01*
X-534488Y-370453D01*
X-534415Y-370460D01*
X-534375D01*
X-534348Y-370453D01*
X-534282Y-370446D01*
X-534195Y-370420D01*
X-534089Y-370387D01*
X-533982Y-370333D01*
X-533876Y-370260D01*
X-533822Y-370220D01*
X-533776Y-370167D01*
Y-370160D01*
X-533762Y-370153D01*
X-533749Y-370133D01*
X-533736Y-370113D01*
X-533716Y-370080D01*
X-533689Y-370047D01*
X-533643Y-369947D01*
X-533596Y-369827D01*
X-533549Y-369681D01*
X-533523Y-369514D01*
X-533509Y-369314D01*
Y-369308D01*
Y-369288D01*
Y-369261D01*
X-533516Y-369221D01*
Y-369181D01*
X-533523Y-369128D01*
X-533543Y-369001D01*
X-533576Y-368868D01*
X-533623Y-368728D01*
X-533689Y-368595D01*
X-533776Y-368475D01*
Y-368468D01*
X-533789Y-368462D01*
X-533822Y-368428D01*
X-533876Y-368382D01*
X-533956Y-368322D01*
X-534049Y-368269D01*
X-534155Y-368222D01*
X-534275Y-368189D01*
X-534342Y-368176D01*
D02*
G37*
G36*
X-511585Y-368129D02*
X-511598D01*
X-511638Y-368135D01*
X-511698Y-368142D01*
X-511771Y-368156D01*
X-511858Y-368189D01*
X-511944Y-368229D01*
X-512031Y-368289D01*
X-512117Y-368369D01*
X-512124Y-368382D01*
X-512151Y-368409D01*
X-512184Y-368462D01*
X-512217Y-368535D01*
X-512257Y-368628D01*
X-512291Y-368735D01*
X-512317Y-368861D01*
X-512324Y-369001D01*
X-510852D01*
Y-368995D01*
Y-368981D01*
Y-368961D01*
X-510859Y-368928D01*
X-510865Y-368855D01*
X-510885Y-368761D01*
X-510912Y-368655D01*
X-510952Y-368548D01*
X-511005Y-368448D01*
X-511079Y-368355D01*
X-511085Y-368349D01*
X-511119Y-368322D01*
X-511158Y-368282D01*
X-511218Y-368242D01*
X-511292Y-368202D01*
X-511378Y-368162D01*
X-511478Y-368135D01*
X-511585Y-368129D01*
D02*
G37*
G36*
X-159700Y28743D02*
X-165300D01*
X-166158Y28572D01*
X-166886Y28086D01*
X-167372Y27358D01*
X-167543Y26500D01*
X-167372Y25642D01*
X-166886Y24914D01*
X-166158Y24428D01*
X-165300Y24257D01*
X-159700D01*
X-158842Y24428D01*
X-158114Y24914D01*
X-157628Y25642D01*
X-157457Y26500D01*
X-157628Y27358D01*
X-158114Y28086D01*
X-158842Y28572D01*
X-159700Y28743D01*
D02*
G37*
G36*
X-194528Y17949D02*
X-195963Y17760D01*
X-197301Y17206D01*
X-198450Y16324D01*
X-199332Y15175D01*
X-199886Y13837D01*
X-200075Y12402D01*
X-199886Y10966D01*
X-199332Y9628D01*
X-198450Y8479D01*
X-197301Y7597D01*
X-195963Y7043D01*
X-194528Y6854D01*
X-193092Y7043D01*
X-191754Y7597D01*
X-190605Y8479D01*
X-189723Y9628D01*
X-189169Y10966D01*
X-188980Y12402D01*
X-189169Y13837D01*
X-189723Y15175D01*
X-190605Y16324D01*
X-191754Y17206D01*
X-193092Y17760D01*
X-194528Y17949D01*
D02*
G37*
G36*
X22500Y35287D02*
X21391Y35141D01*
X20357Y34712D01*
X19469Y34031D01*
X18788Y33143D01*
X18533Y32529D01*
X16000D01*
Y34500D01*
X10000D01*
Y27500D01*
X16000D01*
Y29471D01*
X18533D01*
X18788Y28857D01*
X19469Y27969D01*
X20357Y27288D01*
X21391Y26859D01*
X22500Y26713D01*
X23609Y26859D01*
X24643Y27288D01*
X25531Y27969D01*
X26212Y28857D01*
X26641Y29890D01*
X26787Y31000D01*
X26641Y32109D01*
X26212Y33143D01*
X25531Y34031D01*
X24643Y34712D01*
X23609Y35141D01*
X22500Y35287D01*
D02*
G37*
G36*
X8000Y34500D02*
X2000D01*
Y32529D01*
X1293D01*
X961Y32961D01*
X387Y33402D01*
X-282Y33679D01*
X-1000Y33774D01*
X-1718Y33679D01*
X-2387Y33402D01*
X-2961Y32961D01*
X-3402Y32387D01*
X-3679Y31718D01*
X-3774Y31000D01*
X-3679Y30282D01*
X-3402Y29613D01*
X-2961Y29039D01*
X-2387Y28598D01*
X-1718Y28321D01*
X-1000Y28226D01*
X-282Y28321D01*
X387Y28598D01*
X961Y29039D01*
X1293Y29471D01*
X2000D01*
Y27500D01*
X8000D01*
Y34500D01*
D02*
G37*
G36*
X-180748Y9208D02*
X-181858Y9062D01*
X-182891Y8634D01*
X-183779Y7952D01*
X-184460Y7065D01*
X-184889Y6031D01*
X-185035Y4921D01*
X-184889Y3812D01*
X-184460Y2778D01*
X-183779Y1890D01*
X-182891Y1209D01*
X-181858Y781D01*
X-180748Y635D01*
X-179639Y781D01*
X-178605Y1209D01*
X-177717Y1890D01*
X-177036Y2778D01*
X-176607Y3812D01*
X-176461Y4921D01*
X-176607Y6031D01*
X-177036Y7065D01*
X-177717Y7952D01*
X-178605Y8634D01*
X-179639Y9062D01*
X-180748Y9208D01*
D02*
G37*
G36*
X-138502Y-47977D02*
X-139267Y-48007D01*
X-139315Y-48018D01*
X-139363Y-48015D01*
X-140146Y-48107D01*
X-140217Y-48130D01*
X-140291Y-48133D01*
X-141814Y-48502D01*
X-141905Y-48544D01*
X-142003Y-48565D01*
X-143504Y-49200D01*
X-143589Y-49258D01*
X-143686Y-49295D01*
X-145095Y-50195D01*
X-145170Y-50268D01*
X-145261Y-50322D01*
X-146510Y-51461D01*
X-146572Y-51546D01*
X-146652Y-51615D01*
X-147685Y-52946D01*
X-147734Y-53045D01*
X-147803Y-53130D01*
X-148652Y-54758D01*
X-148685Y-54871D01*
X-148741Y-54976D01*
X-149297Y-56856D01*
X-149308Y-56974D01*
X-149342Y-57088D01*
X-149515Y-58927D01*
X-149507Y-59009D01*
X-149520Y-59090D01*
X-149490Y-59855D01*
X-149478Y-59903D01*
X-149482Y-59951D01*
X-149389Y-60734D01*
X-149367Y-60804D01*
X-149364Y-60878D01*
X-148994Y-62402D01*
X-148952Y-62493D01*
X-148932Y-62591D01*
X-148297Y-64092D01*
X-148239Y-64177D01*
X-148201Y-64274D01*
X-147302Y-65683D01*
X-147229Y-65758D01*
X-147175Y-65848D01*
X-146036Y-67098D01*
X-145951Y-67160D01*
X-145882Y-67240D01*
X-144550Y-68273D01*
X-144452Y-68322D01*
X-144366Y-68391D01*
X-142739Y-69240D01*
X-142625Y-69273D01*
X-142520Y-69328D01*
X-140641Y-69885D01*
X-140522Y-69895D01*
X-140408Y-69929D01*
X-138569Y-70103D01*
X-138488Y-70095D01*
X-138407Y-70107D01*
X-137642Y-70078D01*
X-137594Y-70066D01*
X-137545Y-70070D01*
X-136762Y-69977D01*
X-136692Y-69954D01*
X-136618Y-69951D01*
X-135094Y-69582D01*
X-135004Y-69540D01*
X-134906Y-69520D01*
X-133405Y-68885D01*
X-133319Y-68827D01*
X-133223Y-68789D01*
X-131814Y-67890D01*
X-131738Y-67817D01*
X-131648Y-67763D01*
X-130399Y-66624D01*
X-130336Y-66539D01*
X-130257Y-66470D01*
X-129224Y-65138D01*
X-129174Y-65040D01*
X-129105Y-64954D01*
X-128257Y-63327D01*
X-128223Y-63213D01*
X-128168Y-63108D01*
X-127612Y-61229D01*
X-127601Y-61110D01*
X-127567Y-60996D01*
X-127394Y-59157D01*
X-127402Y-59075D01*
X-127389Y-58995D01*
X-127419Y-58229D01*
X-127430Y-58182D01*
X-127427Y-58133D01*
X-127519Y-57350D01*
X-127542Y-57280D01*
X-127545Y-57206D01*
X-127915Y-55682D01*
X-127956Y-55591D01*
X-127977Y-55493D01*
X-128612Y-53993D01*
X-128670Y-53907D01*
X-128707Y-53811D01*
X-129607Y-52402D01*
X-129680Y-52326D01*
X-129734Y-52236D01*
X-130873Y-50987D01*
X-130958Y-50924D01*
X-131027Y-50844D01*
X-132358Y-49812D01*
X-132457Y-49762D01*
X-132543Y-49693D01*
X-134170Y-48845D01*
X-134284Y-48811D01*
X-134389Y-48756D01*
X-136268Y-48200D01*
X-136387Y-48189D01*
X-136501Y-48155D01*
X-138340Y-47982D01*
X-138421Y-47990D01*
X-138502Y-47977D01*
D02*
G37*
G36*
X-40077D02*
X-40842Y-48007D01*
X-40889Y-48018D01*
X-40938Y-48015D01*
X-41721Y-48107D01*
X-41791Y-48130D01*
X-41865Y-48133D01*
X-43389Y-48502D01*
X-43480Y-48544D01*
X-43578Y-48565D01*
X-45079Y-49200D01*
X-45164Y-49258D01*
X-45261Y-49295D01*
X-46670Y-50195D01*
X-46745Y-50268D01*
X-46835Y-50322D01*
X-48085Y-51461D01*
X-48147Y-51546D01*
X-48227Y-51615D01*
X-49260Y-52946D01*
X-49309Y-53045D01*
X-49378Y-53130D01*
X-50227Y-54758D01*
X-50260Y-54871D01*
X-50315Y-54976D01*
X-50872Y-56856D01*
X-50883Y-56974D01*
X-50916Y-57088D01*
X-51090Y-58927D01*
X-51082Y-59009D01*
X-51094Y-59090D01*
X-51064Y-59855D01*
X-51053Y-59903D01*
X-51057Y-59951D01*
X-50964Y-60734D01*
X-50941Y-60804D01*
X-50938Y-60878D01*
X-50569Y-62402D01*
X-50527Y-62493D01*
X-50507Y-62591D01*
X-49872Y-64092D01*
X-49814Y-64177D01*
X-49776Y-64274D01*
X-48877Y-65683D01*
X-48804Y-65758D01*
X-48750Y-65848D01*
X-47611Y-67098D01*
X-47526Y-67160D01*
X-47456Y-67240D01*
X-46125Y-68273D01*
X-46027Y-68322D01*
X-45941Y-68391D01*
X-44314Y-69240D01*
X-44200Y-69273D01*
X-44095Y-69328D01*
X-42216Y-69885D01*
X-42097Y-69895D01*
X-41983Y-69929D01*
X-40144Y-70103D01*
X-40062Y-70095D01*
X-39981Y-70107D01*
X-39216Y-70078D01*
X-39169Y-70066D01*
X-39120Y-70070D01*
X-38337Y-69977D01*
X-38267Y-69954D01*
X-38193Y-69951D01*
X-36669Y-69582D01*
X-36579Y-69540D01*
X-36481Y-69520D01*
X-34980Y-68885D01*
X-34894Y-68827D01*
X-34798Y-68789D01*
X-33389Y-67890D01*
X-33313Y-67817D01*
X-33223Y-67763D01*
X-31974Y-66624D01*
X-31911Y-66539D01*
X-31831Y-66470D01*
X-30799Y-65138D01*
X-30749Y-65040D01*
X-30680Y-64954D01*
X-29831Y-63327D01*
X-29798Y-63213D01*
X-29743Y-63108D01*
X-29187Y-61229D01*
X-29176Y-61110D01*
X-29142Y-60996D01*
X-28969Y-59157D01*
X-28977Y-59076D01*
X-28964Y-58995D01*
X-28994Y-58230D01*
X-29005Y-58182D01*
X-29001Y-58133D01*
X-29094Y-57350D01*
X-29117Y-57280D01*
X-29120Y-57206D01*
X-29489Y-55682D01*
X-29531Y-55591D01*
X-29552Y-55493D01*
X-30187Y-53993D01*
X-30245Y-53907D01*
X-30282Y-53811D01*
X-31182Y-52402D01*
X-31255Y-52326D01*
X-31309Y-52236D01*
X-32448Y-50987D01*
X-32533Y-50924D01*
X-32602Y-50844D01*
X-33933Y-49812D01*
X-34032Y-49762D01*
X-34117Y-49693D01*
X-35745Y-48845D01*
X-35859Y-48811D01*
X-35963Y-48756D01*
X-37843Y-48200D01*
X-37961Y-48189D01*
X-38075Y-48155D01*
X-39914Y-47982D01*
X-39996Y-47990D01*
X-40077Y-47977D01*
D02*
G37*
G36*
X-135472Y-6854D02*
X-136908Y-7043D01*
X-138246Y-7597D01*
X-139395Y-8479D01*
X-140277Y-9628D01*
X-140831Y-10966D01*
X-141020Y-12402D01*
X-140831Y-13837D01*
X-140277Y-15175D01*
X-139395Y-16324D01*
X-138246Y-17206D01*
X-136908Y-17760D01*
X-135472Y-17949D01*
X-134037Y-17760D01*
X-132699Y-17206D01*
X-131550Y-16324D01*
X-130668Y-15175D01*
X-130114Y-13837D01*
X-129925Y-12402D01*
X-130114Y-10966D01*
X-130668Y-9628D01*
X-131550Y-8479D01*
X-132699Y-7597D01*
X-134037Y-7043D01*
X-135472Y-6854D01*
D02*
G37*
G36*
X0Y22298D02*
X-2910Y22107D01*
X-5771Y21538D01*
X-8533Y20600D01*
X-11149Y19310D01*
X-13574Y17690D01*
X-15767Y15767D01*
X-17690Y13574D01*
X-19310Y11149D01*
X-20600Y8533D01*
X-21538Y5771D01*
X-21564Y5642D01*
X-21529Y5633D01*
X-21643Y5063D01*
X-21468Y4185D01*
X-21272Y3891D01*
X-21507Y3450D01*
X-26475D01*
Y2244D01*
X-140457D01*
X-141335Y2070D01*
X-142079Y1572D01*
X-152122Y-8471D01*
X-152620Y-9215D01*
X-152794Y-10093D01*
Y-16472D01*
X-152902Y-16613D01*
X-152979Y-16799D01*
X-159921D01*
Y-26673D01*
X-152071D01*
X-143294Y-35450D01*
Y-36500D01*
X-144250D01*
Y-44500D01*
X-129750D01*
Y-36500D01*
X-137756D01*
X-138706Y-35550D01*
Y-34500D01*
X-138881Y-33622D01*
X-139378Y-32878D01*
X-148079Y-24177D01*
Y-19341D01*
X-147821Y-18718D01*
X-147726Y-18000D01*
X-147821Y-17282D01*
X-148098Y-16613D01*
X-148206Y-16472D01*
Y-11043D01*
X-139507Y-2344D01*
X-26475D01*
Y-3550D01*
X-21468D01*
X-21233Y-3991D01*
X-21438Y-4298D01*
X-21613Y-5176D01*
X-21497Y-5760D01*
X-21538Y-5771D01*
X-20600Y-8533D01*
X-19310Y-11149D01*
X-17690Y-13574D01*
X-15767Y-15767D01*
X-13574Y-17690D01*
X-11149Y-19310D01*
X-8533Y-20600D01*
X-5864Y-21506D01*
X-5855Y-21472D01*
X-5262Y-21590D01*
X-4384Y-21415D01*
X-4340Y-21386D01*
X-3850Y-21483D01*
X-3500Y-22007D01*
Y-25500D01*
X3500D01*
Y-22006D01*
X3855Y-21475D01*
X4163Y-21348D01*
X4298Y-21438D01*
X5176Y-21613D01*
X5760Y-21497D01*
X5771Y-21538D01*
X8533Y-20600D01*
X11149Y-19310D01*
X13574Y-17690D01*
X15767Y-15767D01*
X17690Y-13574D01*
X19310Y-11149D01*
X20600Y-8533D01*
X20691Y-8268D01*
X20700Y-8263D01*
X20700D01*
X20869Y-7415D01*
X20694Y-6537D01*
X20370Y-6053D01*
X22000Y500D01*
X20312Y5492D01*
X20178Y5781D01*
X20197Y5793D01*
X20694Y6537D01*
X20869Y7415D01*
X20700Y8263D01*
X20700D01*
X20691Y8268D01*
X20600Y8533D01*
X19310Y11149D01*
X17690Y13574D01*
X15767Y15767D01*
X13574Y17690D01*
X11149Y19310D01*
X8533Y20600D01*
X5771Y21538D01*
X2910Y22107D01*
X0Y22298D01*
D02*
G37*
%LPD*%
D10*
X-15950Y16450D02*
D03*
X-10293Y10793D02*
D03*
X15950Y-16450D02*
D03*
X10293Y-10793D02*
D03*
D11*
X16450Y16450D02*
D03*
X10793Y10793D02*
D03*
D12*
X-203000Y42000D02*
D03*
X-203000Y26000D02*
D03*
D13*
X13000Y31000D02*
D03*
X5000D02*
D03*
X-182000Y43500D02*
D03*
X-190000Y43500D02*
D03*
X-192500Y52000D02*
D03*
X-200500Y52000D02*
D03*
X-15475Y-50D02*
D03*
X-23475D02*
D03*
D14*
X-147000Y33000D02*
D03*
X-32200D02*
D03*
D15*
X18600Y0D02*
D03*
D16*
X-0Y-19000D02*
D03*
D17*
X-171500Y-36264D02*
D03*
Y-21500D02*
D03*
X-154000Y-21736D02*
D03*
Y-36500D02*
D03*
X-205500Y-24736D02*
D03*
Y-39500D02*
D03*
D18*
Y-15000D02*
D03*
Y3500D02*
D03*
X-188500Y-39000D02*
D03*
Y-20500D02*
D03*
X-137000Y-40500D02*
D03*
Y-22000D02*
D03*
D19*
X0Y14500D02*
D03*
Y22500D02*
D03*
Y-22500D02*
D03*
Y-30500D02*
D03*
D20*
X-184500Y36500D02*
D03*
D21*
X-162500Y26500D02*
D03*
X-184500D02*
D03*
Y31500D02*
D03*
X-162500Y36500D02*
D03*
Y31500D02*
D03*
X-184500Y21500D02*
D03*
X-162500D02*
D03*
D22*
X31000Y-11500D02*
D03*
Y11500D02*
D03*
D23*
X-150500Y-18000D02*
Y-10093D01*
X-140457Y-50D01*
X-24803D01*
X-15475Y-500D02*
X0D01*
X-175500Y31500D02*
X-172030Y28030D01*
Y14028D02*
Y28030D01*
Y14028D02*
X-165000Y6998D01*
Y4921D02*
Y6998D01*
X-149500Y5169D02*
X-149252Y4921D01*
X-149500Y5169D02*
Y16500D01*
X-141000Y-36500D02*
X-137000Y-40500D01*
X-141000Y-36500D02*
Y-34500D01*
X-153764Y-21736D02*
X-141000Y-34500D01*
X-154000Y-21736D02*
X-153764D01*
X-161500Y-29000D02*
X-154000Y-36500D01*
X-201236Y-29000D02*
X-161500D01*
X-205500Y-24736D02*
X-201236Y-29000D01*
X-205500Y-39500D02*
X-174736D01*
X-171500Y-36264D01*
X-205500Y-24736D02*
Y-15000D01*
X-196500Y3500D02*
X-171500Y-21500D01*
X-205500Y3500D02*
X-196500D01*
X-205500D02*
X-203000Y6000D01*
Y26000D01*
X-200500Y43500D02*
Y52000D01*
Y42500D02*
Y43500D01*
X-190000D01*
X-201500D02*
X-200500D01*
X-199500Y42000D02*
X-189000Y31500D01*
X-184500D01*
X-200500Y26500D02*
X-184500Y26500D01*
X-149500Y16500D02*
X-147000Y19000D01*
Y33000D01*
X-184500Y31500D02*
X-175500D01*
X0Y-500D02*
X10293Y-10793D01*
Y-10293D01*
X0Y0D02*
X10793Y10793D01*
X0Y500D02*
Y14500D01*
Y0D02*
Y500D01*
X-10293Y10793D02*
X0Y500D01*
X-0Y-19500D02*
Y-19000D01*
D24*
X-138000Y82000D02*
X-90500D01*
X-62064Y73064D02*
X-35064D01*
X-90500Y82000D02*
X-86000Y77500D01*
X-66500D01*
X-62064Y73064D01*
X-35064D02*
X-28469Y66469D01*
X-184500Y36500D02*
X-179500D01*
X-184000Y43500D02*
X-184000Y43500D01*
X-182000D01*
X-188000Y52000D02*
X-187000Y53000D01*
X-192500Y52000D02*
X-188000D01*
X-162500Y18000D02*
Y21500D01*
X-150015Y69985D02*
X-138000Y82000D01*
X-150015Y48985D02*
Y69985D01*
X-159000Y40000D02*
X-150015Y48985D01*
X-171000Y40000D02*
X-159000D01*
X-175500Y35500D02*
X-171000Y40000D01*
X-175500Y31500D02*
Y35500D01*
X20899Y-11500D02*
X31000D01*
X15950Y-16450D02*
X20899Y-11500D01*
X21399Y11500D02*
X31000D01*
X-1000Y31000D02*
X5000D01*
X13000D02*
X22500D01*
X34999Y15499D02*
X35000Y15500D01*
X34999Y15499D02*
X34999D01*
X31000Y11500D02*
X34999Y15499D01*
X31000Y11500D02*
X31000D01*
X35000Y15500D02*
Y23500D01*
X32500Y26000D02*
X35000Y23500D01*
X32500Y26000D02*
Y31000D01*
X-29500Y49500D02*
X-28469Y50531D01*
Y66469D01*
D25*
X22100Y1415D02*
D03*
D26*
X-180748Y4921D02*
D03*
X-165000D02*
D03*
X-149252D02*
D03*
X32500Y31000D02*
D03*
X22500D02*
D03*
D27*
X-194528Y12402D02*
D03*
X-135472Y-12402D02*
D03*
D28*
X0Y0D02*
D03*
D29*
X-180500Y18000D02*
D03*
X-30000Y-14000D02*
D03*
Y-24000D02*
D03*
Y-34000D02*
D03*
X-40000Y-14000D02*
D03*
Y-24000D02*
D03*
Y-34000D02*
D03*
X-50000Y-44000D02*
D03*
Y-34000D02*
D03*
Y-24000D02*
D03*
Y-14000D02*
D03*
Y-4000D02*
D03*
X-40000D02*
D03*
Y6000D02*
D03*
Y16000D02*
D03*
Y26000D02*
D03*
Y36000D02*
D03*
X-50000Y6000D02*
D03*
Y16000D02*
D03*
Y26000D02*
D03*
Y36000D02*
D03*
X-142000Y46000D02*
D03*
Y16000D02*
D03*
Y6000D02*
D03*
X-129988Y-34000D02*
D03*
Y-4000D02*
D03*
Y6000D02*
D03*
Y16000D02*
D03*
Y26000D02*
D03*
Y36000D02*
D03*
X-120000Y-64000D02*
D03*
Y-54000D02*
D03*
Y-44000D02*
D03*
Y-34000D02*
D03*
Y-24000D02*
D03*
Y-14000D02*
D03*
Y-4000D02*
D03*
Y6000D02*
D03*
Y16000D02*
D03*
Y26000D02*
D03*
Y36000D02*
D03*
Y46000D02*
D03*
Y56000D02*
D03*
Y66000D02*
D03*
X-110000Y-64000D02*
D03*
Y-54000D02*
D03*
Y-44000D02*
D03*
Y-34000D02*
D03*
Y-24000D02*
D03*
Y-14000D02*
D03*
Y-4000D02*
D03*
Y6000D02*
D03*
Y16000D02*
D03*
Y26000D02*
D03*
Y36000D02*
D03*
Y46000D02*
D03*
Y56000D02*
D03*
Y66000D02*
D03*
X-100000Y-64000D02*
D03*
Y-54000D02*
D03*
Y-44000D02*
D03*
Y-34000D02*
D03*
Y-24000D02*
D03*
Y-14000D02*
D03*
Y-4000D02*
D03*
Y6000D02*
D03*
Y16000D02*
D03*
Y26000D02*
D03*
Y36000D02*
D03*
Y46000D02*
D03*
Y56000D02*
D03*
Y66000D02*
D03*
X-90000Y-64000D02*
D03*
Y-54000D02*
D03*
Y-44000D02*
D03*
Y-34000D02*
D03*
Y-24000D02*
D03*
Y-14000D02*
D03*
Y-4000D02*
D03*
Y6000D02*
D03*
Y16000D02*
D03*
Y26000D02*
D03*
Y36000D02*
D03*
Y46000D02*
D03*
Y56000D02*
D03*
Y66000D02*
D03*
X-80000Y-64000D02*
D03*
Y-54000D02*
D03*
Y-44000D02*
D03*
Y-34000D02*
D03*
Y-24000D02*
D03*
Y-14000D02*
D03*
Y-4000D02*
D03*
Y6000D02*
D03*
Y16000D02*
D03*
Y26000D02*
D03*
Y36000D02*
D03*
Y46000D02*
D03*
Y56000D02*
D03*
Y66000D02*
D03*
X-70000Y-64000D02*
D03*
Y-54000D02*
D03*
Y-44000D02*
D03*
Y-34000D02*
D03*
Y-24000D02*
D03*
Y-14000D02*
D03*
Y-4000D02*
D03*
Y6000D02*
D03*
Y16000D02*
D03*
Y26000D02*
D03*
Y36000D02*
D03*
Y46000D02*
D03*
Y56000D02*
D03*
Y66000D02*
D03*
X-60000D02*
D03*
Y56000D02*
D03*
Y46000D02*
D03*
Y36000D02*
D03*
Y26000D02*
D03*
Y16000D02*
D03*
Y6000D02*
D03*
Y-4000D02*
D03*
Y-14000D02*
D03*
Y-24000D02*
D03*
Y-34000D02*
D03*
Y-44000D02*
D03*
Y-54000D02*
D03*
Y-64000D02*
D03*
X-96500Y-80000D02*
D03*
X-145500Y80000D02*
D03*
X-154000Y73000D02*
D03*
X-187000Y53000D02*
D03*
X-206500D02*
D03*
X-206000Y-53000D02*
D03*
X-188000D02*
D03*
X-153500Y-73000D02*
D03*
X-145500Y-79500D02*
D03*
X-31500Y-72000D02*
D03*
X-24000Y-63500D02*
D03*
X8500Y-58000D02*
D03*
X19500Y-57000D02*
D03*
X31000Y-52000D02*
D03*
X41000Y-22500D02*
D03*
Y24500D02*
D03*
X31000Y52000D02*
D03*
X19500Y57500D02*
D03*
X6000Y59500D02*
D03*
X-176000Y-6500D02*
D03*
X-158500Y18000D02*
D03*
X-192000Y-17500D02*
D03*
X-185000D02*
D03*
X-120000Y-80000D02*
D03*
X-130000D02*
D03*
X-30000Y20000D02*
D03*
D30*
X-188500Y18000D02*
D03*
X-150500Y-18000D02*
D03*
X-166500Y36500D02*
D03*
X-179500D02*
D03*
X-184000Y43500D02*
D03*
X-166500Y18000D02*
D03*
X-1000Y31000D02*
D03*
X-29500Y49500D02*
D03*
D31*
X34999Y15499D02*
D03*
X10400Y22500D02*
D03*
X-9900D02*
D03*
X35000Y-15500D02*
D03*
X26000D02*
D03*
Y15500D02*
D03*
M02*
